<?xml version="1.0" encoding="utf-8"?>
<!-- Generator: Adobe Illustrator 19.2.1, SVG Export Plug-In . SVG Version: 6.00 Build 0)  -->
<svg version="1.0" id="Layer_1" xmlns="http://www.w3.org/2000/svg" xmlns:xlink="http://www.w3.org/1999/xlink" x="0px" y="0px"
	 width="24px" height="24px" viewBox="0 0 24 24" enable-background="new 0 0 24 24" xml:space="preserve">
<path display="none" fill="#FFFFFF" d="M16.93,12.379c-0.446-0.481-1.04-0.799-1.781-0.955v-0.064
	c0.516-0.215,0.92-0.551,1.213-1.007c0.293-0.457,0.439-0.978,0.439-1.563c0-0.505-0.106-0.951-0.318-1.338
	c-0.212-0.387-0.533-0.696-0.963-0.927c-0.398-0.215-0.823-0.356-1.277-0.423C13.788,6.034,13.12,6,12.239,6H8v12h4.803
	c0.833,0,1.519-0.075,2.059-0.226c0.54-0.15,1.036-0.403,1.487-0.758c0.381-0.295,0.685-0.669,0.911-1.12s0.338-0.975,0.338-1.572
	C17.598,13.508,17.375,12.86,16.93,12.379z M10.998,8.2h0.21c0.537,0,0.941,0.004,1.213,0.012c0.271,0.008,0.506,0.055,0.705,0.141
	c0.21,0.091,0.364,0.239,0.463,0.443c0.099,0.204,0.149,0.403,0.149,0.596c0,0.263-0.046,0.494-0.137,0.693
	c-0.091,0.199-0.258,0.355-0.5,0.467c-0.22,0.102-0.434,0.159-0.641,0.169c-0.207,0.011-0.568,0.016-1.084,0.016h-0.379V8.2z
	 M14.306,15.046c-0.126,0.228-0.326,0.402-0.6,0.52c-0.312,0.134-0.618,0.207-0.919,0.218c-0.301,0.011-0.844,0.016-1.628,0.016
	h-0.161v-3.006h0.556c0.537,0,0.966,0.004,1.285,0.012c0.32,0.008,0.571,0.047,0.753,0.117c0.301,0.108,0.527,0.266,0.677,0.475
	c0.15,0.21,0.226,0.5,0.226,0.87C14.496,14.559,14.432,14.818,14.306,15.046z"/>
<path fill="#FFFFFF" d="M18.5,1h-13C3.019,1,1,3.019,1,5.5v13C1,20.981,3.019,23,5.5,23h13c2.481,0,4.5-2.019,4.5-4.5v-13
	C23,3.019,20.981,1,18.5,1z M22,18.5c0,1.93-1.57,3.5-3.5,3.5h-13C3.57,22,2,20.43,2,18.5v-13C2,3.57,3.57,2,5.5,2h13
	C20.43,2,22,3.57,22,5.5V18.5z"/>
<path fill="#FFFFFF" d="M15.148,11.424v-0.064c0.516-0.215,0.92-0.551,1.213-1.007c0.293-0.457,0.439-0.978,0.439-1.563
	c0-0.505-0.106-0.951-0.318-1.338c-0.212-0.387-0.533-0.696-0.963-0.927c-0.398-0.215-0.823-0.356-1.277-0.423
	C13.788,6.034,13.12,6,12.239,6H8v12h4.803c0.833,0,1.519-0.075,2.059-0.226c0.54-0.15,1.036-0.403,1.487-0.758
	c0.381-0.295,0.685-0.669,0.911-1.12s0.338-0.975,0.338-1.572c0-0.817-0.223-1.465-0.669-1.946
	C16.483,11.898,15.89,11.58,15.148,11.424z M10.998,8.2h0.21c0.537,0,0.941,0.004,1.213,0.012c0.271,0.008,0.506,0.055,0.705,0.141
	c0.21,0.091,0.364,0.239,0.463,0.443c0.099,0.204,0.149,0.403,0.149,0.596c0,0.263-0.046,0.494-0.137,0.693
	c-0.091,0.199-0.258,0.355-0.5,0.467c-0.22,0.102-0.434,0.159-0.641,0.169c-0.207,0.011-0.568,0.016-1.084,0.016h-0.379V8.2z
	 M14.306,15.046c-0.126,0.228-0.326,0.402-0.6,0.52c-0.312,0.134-0.618,0.207-0.919,0.218c-0.301,0.011-0.844,0.016-1.628,0.016
	h-0.161v-3.006h0.556c0.537,0,0.966,0.004,1.285,0.012c0.32,0.008,0.571,0.047,0.753,0.117c0.301,0.108,0.527,0.266,0.677,0.475
	c0.15,0.21,0.226,0.5,0.226,0.87C14.496,14.559,14.432,14.818,14.306,15.046z"/>
</svg>
