<?xml version="1.0" encoding="UTF-8" standalone="no"?>
<!-- Generator: Adobe Illustrator 16.0.4, SVG Export Plug-In . SVG Version: 6.00 Build 0)  -->
<!DOCTYPE svg  PUBLIC '-//W3C//DTD SVG 1.1//EN'  'http://www.w3.org/Graphics/SVG/1.1/DTD/svg11.dtd'>
<svg id="Layer_1" xmlns="http://www.w3.org/2000/svg" xml:space="preserve" height="24px" viewBox="0 0 24 24" width="24px" version="1.1" y="0px" x="0px" xmlns:xlink="http://www.w3.org/1999/xlink" enable-background="new 0 0 24 24">
<path d="m21.8 0h-19.6c-1.2 0-2.2 1-2.2 2.2v19.6c0 1.2 1 2.2 2.2 2.2h19.6c1.2 0 2.2-1 2.2-2.2v-19.6c0-1.2-1-2.2-2.2-2.2zm-1.6 17.3h-2.4s-0.5 0.101-1.2-0.399c-0.9-0.601-1.7-2.201-2.4-2.001s-0.6 1.7-0.6 1.7 0 0.301-0.1 0.4c-0.2 0.2-0.5 0.2-0.5 0.2h-1.1s-2.4 0.2-4.5-2c-2.3-2.4-4.4-7.1-4.4-7.1s-0.1-0.3 0-0.4c0.1-0.2 0.5-0.2 0.5-0.2h2.6s0.2 0 0.4 0.2c0.1 0.1 0.2 0.3 0.2 0.3s0.4 1.1 1 2c1.1 1.9 1.6 2.3 1.9 2.1 0.5-0.3 0.4-2.6 0.4-2.6s0-0.8-0.3-1.2c-0.1-0.5-0.5-0.5-0.7-0.6-0.1 0 0.1-0.4 0.4-0.5 0.5-0.2 1.3-0.2 2.3-0.2 0.8 0 1 0.1 1.3 0.1 0.9 0.2 0.6 1 0.6 3 0 0.6-0.1 1.5 0.301 1.8 0.199 0.1 0.699 0 1.899-2 0.601-1 1-2.1 1-2.1s0.1-0.2 0.2-0.3 0.3-0.1 0.3-0.1h2.7s0.8-0.1 0.9 0.3-0.3 1.3-1.4 2.8c-1.8 2.4-2 2.2-0.4 3.6 1.4 1.301 1.7 2 1.801 2.102 0.599 0.998-0.701 1.098-0.701 1.098z" fill="#000"/>
</svg>
