<?xml version="1.0" encoding="utf-8"?>
<!-- Generator: Adobe Illustrator 19.2.1, SVG Export Plug-In . SVG Version: 6.00 Build 0)  -->
<svg version="1.0" id="Layer_1" xmlns="http://www.w3.org/2000/svg" xmlns:xlink="http://www.w3.org/1999/xlink" x="0px" y="0px"
	 width="24px" height="24px" viewBox="0 0 24 24" enable-background="new 0 0 24 24" xml:space="preserve">
<path fill="#FFFFFF" d="M18.5,1h-13C3.019,1,1,3.019,1,5.5v13C1,20.981,3.019,23,5.5,23h13c2.481,0,4.5-2.019,4.5-4.5v-13
	C23,3.019,20.981,1,18.5,1z M22,18.5c0,1.93-1.57,3.5-3.5,3.5H15v-7h3l0.121-2.977L15,12c0-1.132,0-1.652,0-1.876
	c0-0.06,0-0.102,0-0.124c0-0.775,0.178-1.273,1.211-1.273c0.954,0,1.829,0.008,1.829,0.008l0.067-2.627c0,0-0.858-0.109-2.017-0.109
	C13.226,6,12,8.113,12,10v2h-2v3h2v7H5.5C3.57,22,2,20.43,2,18.5v-13C2,3.57,3.57,2,5.5,2h13C20.43,2,22,3.57,22,5.5V18.5z"/>
</svg>
