<?xml version="1.0" encoding="UTF-8" standalone="no"?>
<!-- Generator: Adobe Illustrator 16.0.4, SVG Export Plug-In . SVG Version: 6.00 Build 0)  -->
<!DOCTYPE svg  PUBLIC '-//W3C//DTD SVG 1.1//EN'  'http://www.w3.org/Graphics/SVG/1.1/DTD/svg11.dtd'>
<svg id="Capa_1" xmlns="http://www.w3.org/2000/svg" xml:space="preserve" height="18.135px" viewBox="0 0 18.135 18.135" width="18.135px" version="1.1" y="0px" x="0px" xmlns:xlink="http://www.w3.org/1999/xlink" enable-background="new 0 0 18.135 18.135">
<path d="m16.278 0h-14.424c-1.024 0-1.854 0.83-1.854 1.855v14.426c0 1.024 0.83 1.854 1.854 1.854h14.424c1.025 0 1.855-0.827 1.855-1.854v-14.426c0.001-1.025-0.829-1.855-1.855-1.855zm1.285 3.863c-0.446 0.641-0.982 1.195-1.612 1.658-0.048 0.033-0.061 0.069-0.061 0.127 0.002 0.215 0.01 0.435 0.004 0.65-0.015 0.57-0.082 1.135-0.197 1.691-0.229 1.109-0.629 2.156-1.194 3.14-0.546 0.946-1.226 1.784-2.042 2.509-0.745 0.66-1.574 1.188-2.486 1.586-0.758 0.324-1.542 0.553-2.358 0.678-0.306 0.052-0.61 0.09-0.919 0.106-0.022 0.002-0.065-0.021-0.074 0.031h-0.138c-0.035-0.026-0.068-0.024-0.104 0h-0.961c-0.022-0.024-0.046-0.028-0.069 0h-0.172c0.002-0.004 0.004-0.006 0.006-0.008 0.001-0.003 0.003-0.007 0.003-0.007-0.026-0.021-0.061-0.021-0.09-0.021-0.583-0.041-1.155-0.141-1.72-0.285-0.902-0.234-1.753-0.589-2.559-1.06-0.103-0.062-0.202-0.127-0.325-0.202 1.937 0.195 3.657-0.284 5.203-1.452-1.817-0.073-2.949-1.339-3.275-2.448 0.52 0.09 1.034 0.078 1.545-0.062-0.814-0.188-1.489-0.601-2.011-1.25-0.525-0.651-0.774-1.4-0.777-2.249 0.25 0.14 0.499 0.241 0.76 0.313 0.264 0.073 0.53 0.118 0.819 0.125-1.844-1.3-1.819-3.521-1.066-4.688 0.207 0.26 0.431 0.506 0.664 0.739 0.645 0.645 1.36 1.193 2.154 1.644 1.356 0.767 2.813 1.19 4.367 1.285 0.045 0.003 0.06-0.006 0.047-0.058-0.04-0.171-0.064-0.348-0.072-0.525-0.04-0.764 0.132-1.475 0.553-2.115 0.592-0.9 1.426-1.434 2.495-1.589 0.021-0.004 0.06 0.013 0.059-0.032h0.086c0.018 0.022 0.034 0.022 0.051 0h0.533c0.021 0.022 0.045 0.026 0.066 0h0.088c-0.003 0.047 0.035 0.028 0.057 0.032 0.088 0.019 0.18 0.026 0.27 0.048 0.688 0.147 1.277 0.475 1.772 0.977 0.033 0.033 0.061 0.056 0.117 0.043 0.591-0.125 1.159-0.317 1.699-0.588 0.153-0.075 0.305-0.16 0.473-0.248-0.137 0.412-0.332 0.772-0.59 1.1-0.259 0.329-0.569 0.603-0.922 0.83 0.682-0.079 1.333-0.261 1.981-0.542-0.037 0.057-0.055 0.088-0.078 0.117z" fill="#fff"/>
</svg>
