<?xml version="1.0" encoding="utf-8"?>
<!-- Generator: Adobe Illustrator 19.2.1, SVG Export Plug-In . SVG Version: 6.00 Build 0)  -->
<svg version="1.0" id="Layer_1" xmlns="http://www.w3.org/2000/svg" xmlns:xlink="http://www.w3.org/1999/xlink" x="0px" y="0px"
	 width="24px" height="24px" viewBox="0 0 24 24" enable-background="new 0 0 24 24" xml:space="preserve">
<path fill="#FFFFFF" d="M17.66,8.225c0.117-0.045,0.209-0.143,0.303-0.215c0.42-0.327,0.693-0.756,0.894-1.306
	c-0.113,0.062-0.228,0.125-0.342,0.189c-0.353,0.181-0.952,0.44-1.413,0.481c-0.542-0.5-1.112-0.892-2.18-0.873
	c-0.113,0.012-0.225,0.027-0.336,0.04c-0.217,0.049-0.426,0.107-0.612,0.189c-0.783,0.343-1.315,0.981-1.561,1.867
	c-0.098,0.353-0.138,0.942-0.014,1.305c-0.441-0.001-0.868-0.07-1.238-0.161C9.703,9.378,8.796,8.89,7.789,8.096
	C7.494,7.863,7.203,7.599,6.968,7.305C6.892,7.21,6.773,7.127,6.719,7.014C6.715,7.012,6.71,7.01,6.706,7.008
	C6.588,7.226,6.479,7.463,6.41,7.732C6.137,8.79,6.569,9.677,7.029,10.254c0.139,0.174,0.366,0.283,0.505,0.446h0.015
	c-0.105,0.039-0.286-0.015-0.377-0.034c-0.214-0.045-0.399-0.085-0.579-0.161c-0.094-0.045-0.189-0.091-0.282-0.136
	c-0.004,1.168,0.581,1.928,1.299,2.381c0.233,0.147,0.562,0.347,0.902,0.365c-0.182,0.155-0.962,0.084-1.232,0.053
	c0.339,0.878,0.858,1.461,1.75,1.779c0.23,0.082,0.511,0.154,0.822,0.148c-0.164,0.198-0.516,0.358-0.747,0.495
	c-0.478,0.281-1.032,0.463-1.655,0.601c-0.252,0.055-0.516,0.044-0.788,0.088c-0.3,0.049-0.614-0.026-0.881-0.034
	c0.081,0.05,0.16,0.099,0.242,0.149c0.246,0.151,0.503,0.284,0.78,0.406c0.5,0.22,1.032,0.387,1.621,0.534
	c1.189,0.297,2.866,0.164,3.903-0.161c2.89-0.907,4.715-3.027,5.404-6.148c0.118-0.537,0.135-1.147,0.128-1.786
	C18,9.125,18.143,9.01,18.287,8.895c0.355-0.287,0.689-0.687,0.935-1.082V7.806c-0.469,0.148-0.963,0.42-1.562,0.426V8.225z"/>
<path fill="#FFFFFF" d="M18.5,1h-13C3.019,1,1,3.019,1,5.5v13C1,20.981,3.019,23,5.5,23h13c2.481,0,4.5-2.019,4.5-4.5v-13
	C23,3.019,20.981,1,18.5,1z M22,18.5c0,1.93-1.57,3.5-3.5,3.5h-13C3.57,22,2,20.43,2,18.5v-13C2,3.57,3.57,2,5.5,2h13
	C20.43,2,22,3.57,22,5.5V18.5z"/>
</svg>
