<?xml version="1.0" encoding="utf-8"?>
<!-- Generator: Adobe Illustrator 19.2.1, SVG Export Plug-In . SVG Version: 6.00 Build 0)  -->
<svg version="1.0" id="Layer_1" xmlns="http://www.w3.org/2000/svg" xmlns:xlink="http://www.w3.org/1999/xlink" x="0px" y="0px"
	 width="18px" height="18px" viewBox="0 0 18 18" enable-background="new 0 0 18 18" xml:space="preserve">
<path d="M12.955,6.473c0.078-0.03,0.14-0.096,0.203-0.144c0.281-0.219,0.464-0.506,0.598-0.874
	c-0.075,0.042-0.153,0.084-0.229,0.127c-0.236,0.121-0.637,0.294-0.946,0.322c-0.363-0.334-0.744-0.597-1.459-0.585
	c-0.076,0.008-0.151,0.018-0.225,0.027c-0.146,0.033-0.285,0.072-0.41,0.127c-0.524,0.23-0.88,0.657-1.045,1.25
	c-0.066,0.236-0.092,0.63-0.009,0.874c-0.295,0-0.581-0.047-0.829-0.108c-0.975-0.242-1.583-0.569-2.257-1.1
	c-0.198-0.156-0.392-0.333-0.55-0.53C5.746,5.793,5.666,5.737,5.63,5.662C5.627,5.661,5.624,5.659,5.621,5.658
	C5.542,5.804,5.469,5.963,5.423,6.143C5.24,6.851,5.53,7.445,5.838,7.831C5.931,7.948,6.082,8.021,6.175,8.13h0.01
	C6.115,8.156,5.993,8.12,5.933,8.107C5.789,8.077,5.665,8.05,5.545,7.999c-0.063-0.03-0.127-0.061-0.189-0.091
	C5.353,8.69,5.745,9.199,6.225,9.502c0.156,0.098,0.376,0.232,0.604,0.244C6.707,9.85,6.185,9.803,6.004,9.782
	c0.227,0.587,0.574,0.978,1.172,1.191c0.154,0.055,0.342,0.103,0.55,0.099c-0.11,0.133-0.346,0.24-0.5,0.331
	c-0.32,0.188-0.691,0.31-1.108,0.403c-0.168,0.037-0.346,0.03-0.528,0.059C5.389,11.898,5.179,11.847,5,11.842
	c0.054,0.034,0.107,0.066,0.162,0.1c0.164,0.101,0.337,0.19,0.522,0.272c0.335,0.147,0.691,0.259,1.085,0.357
	c0.796,0.199,1.919,0.11,2.613-0.108c1.935-0.607,3.156-2.026,3.618-4.116c0.079-0.36,0.091-0.768,0.086-1.196
	c0.096-0.076,0.192-0.153,0.288-0.23c0.238-0.192,0.461-0.46,0.626-0.724V6.193c-0.314,0.099-0.644,0.281-1.045,0.285V6.473z"/>
<path d="M13.5,1h-9C2.57,1,1,2.57,1,4.5v9C1,15.43,2.57,17,4.5,17h9c1.93,0,3.5-1.57,3.5-3.5v-9C17,2.57,15.43,1,13.5,1z M16,13.5
	c0,1.379-1.122,2.5-2.5,2.5h-9C3.122,16,2,14.879,2,13.5v-9C2,3.121,3.122,2,4.5,2h9C14.878,2,16,3.121,16,4.5V13.5z"/>
</svg>
