<?xml version="1.0" encoding="utf-8"?>
<!-- Generator: Adobe Illustrator 19.2.1, SVG Export Plug-In . SVG Version: 6.00 Build 0)  -->
<svg version="1.0" id="Layer_1" xmlns="http://www.w3.org/2000/svg" xmlns:xlink="http://www.w3.org/1999/xlink" x="0px" y="0px"
	 width="18px" height="18px" viewBox="0 0 18 18" enable-background="new 0 0 18 18" xml:space="preserve">
<path fill="#FFFFFF" d="M13.5,1h-9C2.57,1,1,2.57,1,4.5v9C1,15.43,2.57,17,4.5,17h9c1.93,0,3.5-1.57,3.5-3.5v-9
	C17,2.57,15.43,1,13.5,1z M16,13.5c0,1.379-1.122,2.5-2.5,2.5h-9C3.122,16,2,14.879,2,13.5v-9C2,3.121,3.122,2,4.5,2h9
	C14.878,2,16,3.121,16,4.5V13.5z"/>
<path fill="#FFFFFF" d="M10.908,8.616V8.573c0.344-0.143,0.613-0.367,0.809-0.672c0.195-0.304,0.293-0.652,0.293-1.042
	c0-0.337-0.071-0.634-0.212-0.892c-0.142-0.258-0.356-0.464-0.642-0.618c-0.265-0.143-0.549-0.237-0.852-0.282
	C10.001,5.022,9.556,5,8.969,5H6.143v8h3.202c0.555,0,1.013-0.05,1.373-0.15c0.36-0.1,0.69-0.269,0.991-0.505
	c0.254-0.197,0.457-0.446,0.607-0.747c0.15-0.301,0.226-0.65,0.226-1.048c0-0.544-0.149-0.977-0.446-1.298
	C11.798,8.932,11.403,8.72,10.908,8.616z M8.142,6.467h0.14c0.358,0,0.628,0.003,0.809,0.008C9.271,6.48,9.427,6.512,9.56,6.569
	C9.7,6.63,9.803,6.728,9.869,6.864C9.935,7,9.968,7.133,9.968,7.262c0,0.176-0.03,0.33-0.091,0.462
	C9.816,7.857,9.705,7.96,9.544,8.036C9.397,8.104,9.255,8.141,9.117,8.148C8.979,8.156,8.738,8.159,8.394,8.159H8.142V6.467z
	 M10.347,11.031c-0.084,0.152-0.218,0.268-0.4,0.347c-0.208,0.09-0.412,0.138-0.612,0.145c-0.201,0.007-0.562,0.011-1.085,0.011
	H8.142V9.529h0.371c0.358,0,0.644,0.003,0.857,0.008c0.213,0.005,0.38,0.031,0.502,0.078c0.201,0.072,0.351,0.177,0.451,0.317
	s0.15,0.333,0.15,0.58C10.473,10.706,10.431,10.879,10.347,11.031z"/>
</svg>
