<?xml version="1.0" encoding="utf-8"?>
<!-- Generator: Adobe Illustrator 19.2.1, SVG Export Plug-In . SVG Version: 6.00 Build 0)  -->
<svg version="1.0" id="Layer_1" xmlns="http://www.w3.org/2000/svg" xmlns:xlink="http://www.w3.org/1999/xlink" x="0px" y="0px"
	 width="18px" height="18px" viewBox="0 0 18 18" enable-background="new 0 0 18 18" xml:space="preserve">
<path d="M13.5,1h-9C2.57,1,1,2.57,1,4.5v9C1,15.43,2.57,17,4.5,17h9c1.93,0,3.5-1.57,3.5-3.5v-9C17,2.57,15.43,1,13.5,1z M16,13.5
	c0,1.378-1.122,2.5-2.5,2.5h-2.357v-4.857h2.143l0.087-2.126L11.143,9c0-0.809,0-1.18,0-1.34c0-0.043,0-0.073,0-0.089
	c0-0.554,0.128-0.909,0.865-0.909c0.681,0,1.306,0.006,1.306,0.006l0.048-1.876c0,0-0.613-0.078-1.441-0.078
	C9.876,4.714,9,6.223,9,7.571V9H7.571v2.143H9V16H4.5C3.122,16,2,14.878,2,13.5v-9C2,3.122,3.122,2,4.5,2h9
	C14.878,2,16,3.122,16,4.5V13.5z"/>
</svg>
