<?xml version="1.0" encoding="utf-8"?>
<!-- Generator: Adobe Illustrator 16.0.4, SVG Export Plug-In . SVG Version: 6.00 Build 0)  -->
<!DOCTYPE svg PUBLIC "-//W3C//DTD SVG 1.1//EN" "http://www.w3.org/Graphics/SVG/1.1/DTD/svg11.dtd">
<svg version="1.1" id="Capa_1" xmlns="http://www.w3.org/2000/svg" xmlns:xlink="http://www.w3.org/1999/xlink" x="0px" y="0px"
	 width="18.135px" height="18.135px" viewBox="0 0 18.135 18.135" enable-background="new 0 0 18.135 18.135" xml:space="preserve">
<path d="M16.278,0H1.854C0.83,0,0,0.83,0,1.855v14.426c0,1.024,0.83,1.854,1.854,1.854h14.424c1.025,0,1.855-0.827,1.855-1.854
	V1.855C18.134,0.83,17.304,0,16.278,0z M17.563,3.863c-0.446,0.641-0.982,1.195-1.612,1.658C15.903,5.554,15.89,5.59,15.89,5.648
	c0.002,0.215,0.01,0.435,0.004,0.65c-0.015,0.57-0.082,1.135-0.197,1.691c-0.229,1.109-0.629,2.156-1.194,3.14
	c-0.546,0.946-1.226,1.784-2.042,2.509c-0.745,0.66-1.574,1.188-2.486,1.586c-0.758,0.324-1.542,0.553-2.358,0.678
	c-0.306,0.052-0.61,0.09-0.919,0.106c-0.022,0.002-0.065-0.021-0.074,0.031c-0.045,0-0.092,0-0.138,0
	c-0.035-0.026-0.068-0.024-0.104,0c-0.32,0-0.642,0-0.961,0c-0.022-0.024-0.046-0.028-0.069,0c-0.057,0-0.114,0-0.172,0
	c0.002-0.004,0.004-0.006,0.006-0.008c0.001-0.003,0.003-0.007,0.003-0.007c-0.026-0.021-0.061-0.021-0.09-0.021
	c-0.583-0.041-1.155-0.141-1.72-0.285c-0.902-0.234-1.753-0.589-2.559-1.06c-0.103-0.062-0.202-0.127-0.325-0.202
	c1.937,0.195,3.657-0.284,5.203-1.452c-1.817-0.073-2.949-1.339-3.275-2.448c0.52,0.09,1.034,0.078,1.545-0.062
	c-0.814-0.188-1.489-0.601-2.011-1.25c-0.525-0.651-0.774-1.4-0.777-2.249C1.43,7.135,1.679,7.236,1.94,7.308
	c0.264,0.073,0.53,0.118,0.819,0.125c-1.844-1.3-1.819-3.521-1.066-4.688C1.9,3.005,2.124,3.251,2.357,3.484
	c0.645,0.645,1.36,1.193,2.154,1.644c1.356,0.767,2.813,1.19,4.367,1.285c0.045,0.003,0.06-0.006,0.047-0.058
	C8.885,6.184,8.861,6.007,8.853,5.83c-0.04-0.764,0.132-1.475,0.553-2.115c0.592-0.9,1.426-1.434,2.495-1.589
	c0.021-0.004,0.06,0.013,0.059-0.032c0.027,0,0.057,0,0.086,0c0.018,0.022,0.034,0.022,0.051,0c0.178,0,0.355,0,0.533,0
	c0.021,0.022,0.045,0.026,0.066,0c0.029,0,0.059,0,0.088,0c-0.003,0.047,0.035,0.028,0.057,0.032c0.088,0.019,0.18,0.026,0.27,0.048
	c0.688,0.147,1.277,0.475,1.772,0.977C14.916,3.184,14.944,3.207,15,3.194c0.591-0.125,1.159-0.317,1.699-0.588
	c0.153-0.075,0.305-0.16,0.473-0.248c-0.137,0.412-0.332,0.772-0.59,1.1c-0.259,0.329-0.569,0.603-0.922,0.83
	c0.682-0.079,1.333-0.261,1.981-0.542C17.604,3.803,17.586,3.834,17.563,3.863z"/>
</svg>
