<?xml version="1.0" encoding="utf-8"?>
<!-- Generator: Adobe Illustrator 18.1.1, SVG Export Plug-In . SVG Version: 6.00 Build 0)  -->
<svg version="1.1" id="Слой_1" xmlns="http://www.w3.org/2000/svg" xmlns:xlink="http://www.w3.org/1999/xlink" x="0px" y="0px"
	 viewBox="0 0 54.772 77.891" enable-background="new 0 0 54.772 77.891" xml:space="preserve">
<g>
	<path fill="#FFFFFF" d="M8.118,44.461v33.431H5.229V0.01h24.338c8.238,0,14.487,1.988,18.749,5.964
		c4.261,3.977,6.392,9.388,6.392,16.234c0,6.918-2.131,12.356-6.392,16.314c-4.262,3.959-10.511,5.938-18.749,5.938H8.118z
		 M8.118,41.572h21.449c7.524,0,13.114-1.81,16.77-5.43c3.655-3.619,5.482-8.229,5.482-13.827c0-5.741-1.818-10.412-5.456-14.015
		C42.726,4.7,37.128,2.898,29.567,2.898H8.118V41.572z"/>
</g>
<rect x="0" y="41.572" fill="#FFFFFF" width="7.848" height="2.89"/>
<rect x="0" y="51.556" fill="#FFFFFF" width="44.078" height="2.922"/>
<rect x="12.375" y="42.821" fill="#FFFFFF" width="0.438" height="0.078"/>
</svg>
