<?xml version="1.0" encoding="utf-8"?>
<!-- Generator: Adobe Illustrator 19.2.1, SVG Export Plug-In . SVG Version: 6.00 Build 0)  -->
<svg version="1.0" id="art" xmlns="http://www.w3.org/2000/svg" xmlns:xlink="http://www.w3.org/1999/xlink" x="0px" y="0px"
	 width="18px" height="18px" viewBox="0 0 18 18" enable-background="new 0 0 18 18" xml:space="preserve">
<g id="check">
</g>
<path d="M9.879,2.467c-0.397-0.644-1.361-0.644-1.758,0L0.385,15.01c-0.408,0.661,0.084,1.5,0.879,1.5h15.472
	c0.795,0,1.286-0.839,0.879-1.5L9.879,2.467z M10,13.75c0,0.455-0.381,0.823-0.85,0.823h-0.3C8.381,14.573,8,14.205,8,13.75v-0.29
	c0-0.455,0.381-0.823,0.85-0.823h0.3c0.469,0,0.85,0.369,0.85,0.823V13.75z M9.75,11.668h-1.5L8,5.858h2L9.75,11.668z"/>
</svg>
