<?xml version="1.0" encoding="utf-8"?>
<!-- Generator: Adobe Illustrator 19.2.1, SVG Export Plug-In . SVG Version: 6.00 Build 0)  -->
<svg version="1.0" id="art" xmlns="http://www.w3.org/2000/svg" xmlns:xlink="http://www.w3.org/1999/xlink" x="0px" y="0px"
	 width="30px" height="30px" viewBox="0 0 30 30" enable-background="new 0 0 30 30" xml:space="preserve">
<g id="check">
</g>
<path fill="#EF3124" d="M29.227,23.004L16.641,1.931c-0.742-1.241-2.54-1.241-3.281,0L0.773,23.004
	c-0.761,1.274,0.157,2.891,1.641,2.891h25.172C29.07,25.895,29.987,24.278,29.227,23.004z M16.297,8.817L16.18,18.29H13.82
	l-0.117-9.473H16.297z M15,22.588c-0.842,0-1.502-0.66-1.502-1.502s0.66-1.502,1.502-1.502c0.856,0,1.502,0.646,1.502,1.502
	C16.502,21.928,15.842,22.588,15,22.588z"/>
</svg>
