<svg width="21" height="19" viewBox="0 0 21 19" xmlns="http://www.w3.org/2000/svg"><path d="M20.19 16.963L11.28 1.375c-.582-1.02-1.538-1.02-2.122 0L.248 16.963c-.583 1.02-.105 1.857 1.063 1.857h17.82c1.167 0 1.645-.836 1.06-1.857zm-9.944-.942h-.013c-.573 0-1-.43-1-1.06 0-.607.427-1.05 1.013-1.05.587 0 1.013.443 1.013 1.05 0 .63-.427 1.06-1.014 1.06zm.933-7.546c-.254 1.44-.454 2.893-.654 4.44-.04.16-.586.175-.613 0-.2-1.547-.412-3-.666-4.44-.08-.51-.12-.753-.12-.982 0-.323.227-.578 1.093-.578h.013c.826 0 1.08.255 1.08.578 0 .23-.054.47-.134.982z" fill="#EF3124" fill-rule="evenodd"/></svg>
