<?xml version="1.0" encoding="utf-8"?>
<!-- Generator: Adobe Illustrator 19.2.1, SVG Export Plug-In . SVG Version: 6.00 Build 0)  -->
<svg version="1.0" id="art" xmlns="http://www.w3.org/2000/svg" xmlns:xlink="http://www.w3.org/1999/xlink" x="0px" y="0px"
	 width="24px" height="24px" viewBox="0 0 24 24" enable-background="new 0 0 24 24" xml:space="preserve">
<g id="check">
</g>
<path d="M12,2C6.486,2,2,6.486,2,12s4.486,10,10,10c5.514,0,10-4.486,10-10S17.514,2,12,2z M12,21c-4.962,0-9-4.038-9-9s4.038-9,9-9
	c4.963,0,9,4.038,9,9S16.963,21,12,21z"/>
<polygon points="15.646,7.646 12,11.293 8.354,7.646 7.646,8.354 11.293,12 7.646,15.646 8.354,16.354 12,12.707 15.646,16.354 
	16.354,15.646 12.707,12 16.354,8.354 "/>
</svg>
