<?xml version="1.0" encoding="utf-8"?>
<!-- Generator: Adobe Illustrator 19.2.1, SVG Export Plug-In . SVG Version: 6.00 Build 0)  -->
<svg version="1.0" id="art" xmlns="http://www.w3.org/2000/svg" xmlns:xlink="http://www.w3.org/1999/xlink" x="0px" y="0px"
	 width="18px" height="18px" viewBox="0 0 18 18" enable-background="new 0 0 18 18" xml:space="preserve">
<path fill="#FFFFFF" d="M16,3h-4v4h1V4.529C14.263,5.661,15,7.283,15,9c0,3.309-2.691,6-6,6c-0.266,0-0.527-0.018-0.784-0.051
	l-0.129,0.992C8.386,15.98,8.69,16,9,16c3.86,0,7-3.141,7-7c0-1.9-0.781-3.693-2.118-5H16V3z"/>
<path fill="#FFFFFF" d="M2,15h4v-4H5v2.471C3.737,12.339,3,10.717,3,9c0-3.309,2.691-6,6-6c0.266,0,0.527,0.018,0.784,0.051
	l0.129-0.992C9.614,2.02,9.31,2,9,2C5.14,2,2,5.141,2,9c0,1.9,0.781,3.693,2.118,5H2V15z"/>
</svg>
