<?xml version="1.0" encoding="utf-8"?>
<!-- Generator: Adobe Illustrator 19.2.1, SVG Export Plug-In . SVG Version: 6.00 Build 0)  -->
<svg version="1.0" id="art" xmlns="http://www.w3.org/2000/svg" xmlns:xlink="http://www.w3.org/1999/xlink" x="0px" y="0px"
	 width="24px" height="24px" viewBox="0 0 24 24" enable-background="new 0 0 24 24" xml:space="preserve">
<path fill="#FFFFFF" d="M12,2C6.486,2,2,6.486,2,12s4.486,10,10,10c5.514,0,10-4.486,10-10S17.514,2,12,2z M12,21
	c-4.962,0-9-4.038-9-9s4.038-9,9-9c4.963,0,9,4.038,9,9S16.963,21,12,21z"/>
<polygon fill="#FFFFFF" points="10.797,15.557 7.568,11.35 6.775,11.958 10.797,17.2 17.568,8.375 16.775,7.767 "/>
</svg>
