<?xml version="1.0" encoding="utf-8"?>
<!-- Generator: Adobe Illustrator 19.2.1, SVG Export Plug-In . SVG Version: 6.00 Build 0)  -->
<svg version="1.0" id="art" xmlns="http://www.w3.org/2000/svg" xmlns:xlink="http://www.w3.org/1999/xlink" x="0px" y="0px"
	 width="30px" height="30px" viewBox="0 0 30 30" enable-background="new 0 0 30 30" xml:space="preserve">
<g id="check">
</g>
<path d="M15,28c7.168,0,13-5.832,13-13S22.168,2,15,2S2,7.832,2,15S7.832,28,15,28z M15,3c6.617,0,12,5.383,12,12s-5.383,12-12,12
	S3,21.617,3,15S8.383,3,15,3z"/>
<polygon points="10.854,19.854 15,15.707 19.146,19.854 19.854,19.146 15.707,15 19.854,10.854 19.146,10.146 15,14.293 
	10.854,10.146 10.146,10.854 14.293,15 10.146,19.146 "/>
</svg>
