<?xml version="1.0" encoding="utf-8"?>
<!-- Generator: Adobe Illustrator 19.2.1, SVG Export Plug-In . SVG Version: 6.00 Build 0)  -->
<svg version="1.0" id="art" xmlns="http://www.w3.org/2000/svg" xmlns:xlink="http://www.w3.org/1999/xlink" x="0px" y="0px"
	 width="36px" height="36px" viewBox="0 0 36 36" enable-background="new 0 0 36 36" xml:space="preserve">
<g id="check">
</g>
<path d="M18,33c8.271,0,15-6.729,15-15S26.271,3,18,3S3,9.729,3,18S9.729,33,18,33z M18,4c7.72,0,14,6.28,14,14s-6.28,14-14,14
	S4,25.72,4,18S10.28,4,18,4z"/>
<polygon points="13.161,23.546 18,18.707 22.839,23.546 23.546,22.839 18.707,18 23.546,13.161 22.839,12.454 18,17.293 
	13.161,12.454 12.454,13.161 17.293,18 12.454,22.839 "/>
</svg>
