<?xml version="1.0" encoding="UTF-8" standalone="no"?>
<!-- Generator: Adobe Illustrator 18.1.0, SVG Export Plug-In . SVG Version: 6.00 Build 0)  -->
<svg id="Слой_1" xmlns="http://www.w3.org/2000/svg" xml:space="preserve" viewBox="0 0 20 20" version="1.1" y="0px" x="0px" xmlns:xlink="http://www.w3.org/1999/xlink" enable-background="new 0 0 20 20">
<path d="m9.924 1.773c-0.292-0.002-0.579 0.006-0.871 0.038-0.772 0.083-1.539 0.283-2.272 0.606-0.005 0.002-0.013-0.002-0.019 0-2.877 1.24-4.715 4.11-4.715 7.195h-1.817l2.727 3.635 2.727-3.635h-1.819c0-2.363 1.432-4.584 3.635-5.529 2.255-0.996 4.951-0.465 6.684 1.269l1.288-1.288c-1.487-1.487-3.505-2.282-5.548-2.291zm6.968 4.203l-2.727 3.635h1.818c0 2.363-1.432 4.584-3.635 5.529-2.255 0.996-4.951 0.465-6.684-1.269l-1.288 1.288c2.261 2.261 5.739 2.943 8.691 1.647 0.005-0.002 0.014 0.002 0.019 0 2.877-1.24 4.715-4.11 4.715-7.195h1.818c0 0.001-2.727-3.635-2.727-3.635z" fill="#fff"/>
</svg>
