<?xml version="1.0" encoding="utf-8"?>
<!-- Generator: Adobe Illustrator 19.2.1, SVG Export Plug-In . SVG Version: 6.00 Build 0)  -->
<svg version="1.0" id="art" xmlns="http://www.w3.org/2000/svg" xmlns:xlink="http://www.w3.org/1999/xlink" x="0px" y="0px"
	 width="18px" height="18px" viewBox="0 0 18 18" enable-background="new 0 0 18 18" xml:space="preserve">
<g id="check">
</g>
<path fill="#EF3124" d="M17.615,15.451L9.879,2.499c-0.397-0.665-1.361-0.665-1.758,0L0.385,15.451C-0.022,16.134,0.469,17,1.264,17
	h15.472C17.531,17,18.023,16.134,17.615,15.451z M10,14.15C10,14.619,9.619,15,9.15,15h-0.3C8.381,15,8,14.619,8,14.15v-0.3
	C8,13.381,8.381,13,8.85,13h0.3C9.619,13,10,13.381,10,13.85V14.15z M9.75,12h-1.5L8,6h2L9.75,12z"/>
</svg>
