<?xml version="1.0" encoding="utf-8"?>
<!-- Generator: Adobe Illustrator 19.2.1, SVG Export Plug-In . SVG Version: 6.00 Build 0)  -->
<svg version="1.0" id="art" xmlns="http://www.w3.org/2000/svg" xmlns:xlink="http://www.w3.org/1999/xlink" x="0px" y="0px"
	 width="18px" height="18px" viewBox="0 0 18 18" enable-background="new 0 0 18 18" xml:space="preserve">
<path fill="#FFFFFF" d="M9,17c4.411,0,8-3.589,8-8s-3.589-8-8-8S1,4.589,1,9S4.589,17,9,17z M9,2c3.86,0,7,3.14,7,7s-3.14,7-7,7
	s-7-3.14-7-7S5.14,2,9,2z"/>
<polygon fill="#FFFFFF" points="6.626,12.081 9,9.707 11.374,12.081 12.081,11.374 9.707,9 12.081,6.626 11.374,5.919 9,8.293 
	6.626,5.919 5.919,6.626 8.293,9 5.919,11.374 "/>
</svg>
