<?xml version="1.0" encoding="utf-8"?>
<!-- Generator: Adobe Illustrator 19.2.1, SVG Export Plug-In . SVG Version: 6.00 Build 0)  -->
<svg version="1.0" id="art" xmlns="http://www.w3.org/2000/svg" xmlns:xlink="http://www.w3.org/1999/xlink" x="0px" y="0px"
	 width="36px" height="36px" viewBox="0 0 36 36" enable-background="new 0 0 36 36" xml:space="preserve">
<g id="check">
</g>
<path d="M18,31c-0.571,0-1.146-0.037-1.706-0.111l-0.131,0.992C16.768,31.96,17.385,32,18,32c7.72,0,14-6.28,14-14
	c0-3.91-1.652-7.669-4.534-10.315L26.748,7H31V6h-6v6h1V7.668l0.775,0.74v0.001c0.004,0.003,0.008,0.007,0.012,0.01
	C29.465,10.877,31,14.368,31,18C31,25.168,25.168,31,18,31z"/>
<path d="M3.981,18.001c0,3.911,1.652,7.669,4.534,10.314l0.718,0.686H4.981v1h6v-6h-1v4.331l-0.775-0.741
	c-0.004-0.003-0.008-0.007-0.012-0.01c-2.678-2.457-4.213-5.947-4.213-9.58c0-7.168,5.832-13,13-13c0.571,0,1.146,0.037,1.706,0.111
	l0.131-0.992c-0.604-0.079-1.222-0.119-1.837-0.119C10.262,4.001,3.981,10.281,3.981,18.001z"/>
</svg>
