<?xml version="1.0" encoding="utf-8"?>
<!-- Generator: Adobe Illustrator 19.2.1, SVG Export Plug-In . SVG Version: 6.00 Build 0)  -->
<svg version="1.0" id="art" xmlns="http://www.w3.org/2000/svg" xmlns:xlink="http://www.w3.org/1999/xlink" x="0px" y="0px"
	 width="30px" height="30px" viewBox="0 0 30 30" enable-background="new 0 0 30 30" xml:space="preserve">
<g id="check">
</g>
<path d="M25,4h-5v5h1V5.623l1.749,1.575C24.846,9.28,26,12.053,26,15.006c0,6.065-4.935,11-11,11c-0.322,0-0.643-0.014-0.957-0.041
	l-0.086,0.996c0.344,0.029,0.691,0.045,1.043,0.045c6.617,0,12-5.383,12-12c0-3.222-1.26-6.246-3.563-8.533L21.802,5H25V4z"/>
<path d="M3,14.994c0,3.222,1.26,6.246,3.563,8.533L8.198,25H5v1h5v-5H9v3.377l-1.749-1.575C5.154,20.72,4,17.947,4,14.994
	c0-6.065,4.935-11,11-11c0.322,0,0.643,0.014,0.957,0.041l0.086-0.996C15.699,3.01,15.352,2.994,15,2.994
	C8.383,2.994,3,8.377,3,14.994z"/>
</svg>
