<?xml version="1.0" encoding="utf-8"?>
<!-- Generator: Adobe Illustrator 18.1.0, SVG Export Plug-In . SVG Version: 6.00 Build 0)  -->
<svg version="1.1" id="Layer_1" xmlns="http://www.w3.org/2000/svg" xmlns:xlink="http://www.w3.org/1999/xlink" x="0px" y="0px"
	 viewBox="-197 389.8 38 61.1" enable-background="new -197 389.8 38 61.1" xml:space="preserve">
<g>
	<path fill="#fff" d="M-178,390.5c4,0,5.3,2.9,6.4,5.9c0.4,1.2,10.9,30.3,11.2,31.2c0.1,0.2,0,0.6-0.3,0.8
		c-0.4,0.1-5.8,2.3-6.1,2.4c-0.3,0.1-0.6-0.1-0.8-0.4c-0.1-0.3-2.4-6.6-2.6-7.3c-0.7,0-14.8,0-15.5,0c-0.3,0.7-2.5,7.1-2.6,7.3
		c-0.1,0.3-0.4,0.5-0.7,0.4c-0.3-0.1-5.8-2.3-6.1-2.4c-0.3-0.1-0.5-0.5-0.3-0.8c0.4-1.1,10.7-29.7,11.2-31.2
		C-183.3,393.4-182,390.5-178,390.5z M-196.4,442.5c-0.3,0-0.6,0.3-0.6,0.6v6.8c0,0.3,0.3,0.6,0.6,0.6h36.8c0.3,0,0.6-0.3,0.6-0.6
		v-6.8c0-0.3-0.3-0.6-0.6-0.6L-196.4,442.5L-196.4,442.5z M-178,400l-5.2,16h10.6L-178,400L-178,400z"/>
</g>
</svg>
