<?xml version="1.0" encoding="utf-8"?>
<!-- Generator: Adobe Illustrator 18.1.0, SVG Export Plug-In . SVG Version: 6.00 Build 0)  -->
<svg version="1.1" id="Слой_1" xmlns="http://www.w3.org/2000/svg" xmlns:xlink="http://www.w3.org/1999/xlink" x="0px" y="0px"
	 viewBox="0 0 20 20" enable-background="new 0 0 20 20" xml:space="preserve">
<path fill="#FFFFFF" d="M9.924,1.773C9.632,1.771,9.345,1.779,9.053,1.811C8.281,1.894,7.514,2.094,6.781,2.417
	c-0.005,0.002-0.013-0.002-0.019,0c-2.877,1.24-4.715,4.11-4.715,7.195H0.23l2.727,3.635l2.727-3.635H3.865
	c0-2.363,1.432-4.584,3.635-5.529c2.255-0.996,4.951-0.465,6.684,1.269l1.288-1.288C13.985,2.577,11.967,1.782,9.924,1.773
	L9.924,1.773z M16.892,5.976l-2.727,3.635h1.818c0,2.363-1.432,4.584-3.635,5.529c-2.255,0.996-4.951,0.465-6.684-1.269
	l-1.288,1.288c2.261,2.261,5.739,2.943,8.691,1.647c0.005-0.002,0.014,0.002,0.019,0c2.877-1.24,4.715-4.11,4.715-7.195h1.818
	C19.619,9.612,16.892,5.976,16.892,5.976z"/>
</svg>
