<?xml version="1.0" encoding="utf-8"?>
<!-- Generator: Adobe Illustrator 19.2.1, SVG Export Plug-In . SVG Version: 6.00 Build 0)  -->
<svg version="1.0" id="art" xmlns="http://www.w3.org/2000/svg" xmlns:xlink="http://www.w3.org/1999/xlink" x="0px" y="0px"
	 width="24px" height="24px" viewBox="0 0 24 24" enable-background="new 0 0 24 24" xml:space="preserve">
<path d="M19,21H6.7l-0.04,0.001c2.16-0.606,3.643-2.527,3.69-4.773c-0.027-1.101-0.236-2.18-0.609-3.228H16v-1H9.418
	c-0.018-0.044-0.032-0.082-0.054-0.136C8.708,10.382,8.334,8.808,8.25,7.179c0-2.717,2.139-4.473,5.444-4.473
	c0.136-0.005,0.272-0.008,0.408-0.008c1.294,0,2.554,0.247,3.747,0.736V2.76C16.604,2.256,15.29,2,13.944,2
	c-0.113,0-0.227,0.002-0.345,0.005c-3.793,0-6.15,1.982-6.15,5.166c0.082,1.582,0.447,3.119,1.091,4.578
	C8.571,11.834,8.6,11.918,8.628,12H5v1h3.97c0.395,1.032,0.629,2.11,0.68,3.224c0,2.369-1.739,4.155-4.9,5.041V22H19V21z"/>
</svg>
