<?xml version="1.0" encoding="utf-8"?>
<!-- Generator: Adobe Illustrator 19.2.1, SVG Export Plug-In . SVG Version: 6.00 Build 0)  -->
<svg version="1.0" id="art" xmlns="http://www.w3.org/2000/svg" xmlns:xlink="http://www.w3.org/1999/xlink" x="0px" y="0px"
	 width="30px" height="30px" viewBox="0 0 30 30" enable-background="new 0 0 30 30" xml:space="preserve">
<path d="M22,25H8.359c0.993-0.358,4.096-1.763,4.096-5.329c0-1.309-0.357-2.537-0.751-3.671H18v-1h-6.661l-0.044-0.12
	c-0.611-1.621-1.243-3.297-1.243-5.157c0-3.045,2.274-4.937,5.935-4.937c2.004,0,3.694,0.399,4.598,0.827V4.835
	C19.753,4.425,17.981,4,15.927,4C11.747,4,9.15,6.187,9.15,9.708c0,1.882,0.661,3.646,1.192,5.064L10.427,15H6v1h4.792
	c0.475,1.328,0.793,2.482,0.793,3.686c0,2.402-1.644,4.302-4.55,5.314H6v1h16V25z"/>
</svg>
