<?xml version="1.0" encoding="utf-8"?>
<!-- Generator: Adobe Illustrator 19.2.1, SVG Export Plug-In . SVG Version: 6.00 Build 0)  -->
<svg version="1.0" id="art" xmlns="http://www.w3.org/2000/svg" xmlns:xlink="http://www.w3.org/1999/xlink" x="0px" y="0px"
	 width="30px" height="30px" viewBox="0 0 30 30" enable-background="new 0 0 30 30" xml:space="preserve">
<path d="M9.002,20.253H8.156c0.173,3.16,3.021,5.553,6.844,5.741V28h1v-2h0.022c4.084-0.211,6.827-2.533,6.827-5.778
	c0-3.059-1.762-4.622-6.504-5.768L16,14.365V4.752h0.035c2.948,0.181,5.351,2.129,5.547,4.467h0.845
	c-0.194-2.816-2.916-5.047-6.4-5.219H16V2h-1v2.007c-3.722,0.206-6.315,2.47-6.315,5.53c0,2.799,1.711,4.311,6.106,5.391L15,14.987
	v10.222C11.78,25.016,9.236,22.909,9.002,20.253z M16.061,15.229c4.335,1.014,5.947,2.384,5.947,5.053
	c0,2.744-2.514,4.826-5.983,4.951l-0.024,0V15.216L16.061,15.229z M9.525,9.477c0-2.591,2.297-4.562,5.475-4.716v9.38
	C11.064,13.178,9.525,11.869,9.525,9.477z"/>
</svg>
