<?xml version="1.0" encoding="utf-8"?>
<!-- Generator: Adobe Illustrator 19.2.1, SVG Export Plug-In . SVG Version: 6.00 Build 0)  -->
<svg version="1.0" id="art" xmlns="http://www.w3.org/2000/svg" xmlns:xlink="http://www.w3.org/1999/xlink" x="0px" y="0px"
	 width="18px" height="18px" viewBox="0 0 18 18" enable-background="new 0 0 18 18" xml:space="preserve">
<path d="M10.03,8.564L10,8.556V2.69c1.683,0.184,3.005,1.361,3.065,2.777h0.686C13.69,3.655,12.105,2.211,10,2.024V1H9v1.031
	c-2.178,0.204-3.679,1.615-3.679,3.54c0,1.797,1.031,2.771,3.679,3.461v6.252c-1.827-0.2-3.229-1.48-3.314-3.083H5
	c0.051,2.028,1.725,3.568,4,3.768V17h1v-1.023c2.372-0.198,4-1.669,4-3.7C14,10.298,12.914,9.294,10.03,8.564z M6.006,5.533
	c0-1.509,1.263-2.671,2.994-2.84v5.612C6.844,7.716,6.006,6.946,6.006,5.533z M10,15.306V9.288c2.407,0.62,3.314,1.45,3.314,3.028
	C13.314,13.921,11.915,15.16,10,15.306z"/>
</svg>
