<?xml version="1.0" encoding="utf-8"?>
<!-- Generator: Adobe Illustrator 19.2.1, SVG Export Plug-In . SVG Version: 6.00 Build 0)  -->
<svg version="1.0" id="art" xmlns="http://www.w3.org/2000/svg" xmlns:xlink="http://www.w3.org/1999/xlink" x="0px" y="0px"
	 width="18px" height="18px" viewBox="0 0 18 18" enable-background="new 0 0 18 18" xml:space="preserve">
<path d="M4,15.278V16h10.838v-0.712H5.547v-0.041c1.272-0.448,2.859-1.516,2.859-3.613c0-0.896-0.244-1.8-0.539-2.634H12V8H7.473
	C7.108,7.023,6.778,6.031,6.778,4.949c0-1.903,1.374-3.216,3.918-3.216c1.445,0,2.656,0.306,3.216,0.621V1.601
	C13.372,1.315,12.141,1,10.655,1C7.663,1,5.964,2.578,5.964,4.938C5.964,6.036,6.285,7.037,6.64,8H4v1h3.033
	c0.315,0.855,0.58,1.759,0.58,2.644C7.613,13.669,5.964,14.779,4,15.278z"/>
</svg>
