<?xml version="1.0" encoding="utf-8"?>
<!-- Generator: Adobe Illustrator 19.2.1, SVG Export Plug-In . SVG Version: 6.00 Build 0)  -->
<svg version="1.0" id="art" xmlns="http://www.w3.org/2000/svg" xmlns:xlink="http://www.w3.org/1999/xlink" x="0px" y="0px"
	 width="18px" height="18px" viewBox="0 0 18 18" enable-background="new 0 0 18 18" xml:space="preserve">
<path fill="#FFFFFF" d="M11.971,16c0.515,0,1.192-0.051,1.535-0.142v-0.737c-0.344,0.091-1.02,0.142-1.535,0.142
	c-2.732,0-5.057-1.472-5.918-4.263H13v-1H5.801C5.786,9.904,5.77,9.79,5.749,9.636c-0.05-0.364-0.071-0.737-0.071-1.131
	c0-0.173,0.016-0.337,0.025-0.505H13V7H5.788C5.798,6.931,5.81,6.871,5.83,6.808c0.636-3.323,3.152-5.061,6.141-5.061
	c0.515,0,1.192,0.051,1.535,0.142V1.142C13.163,1.051,12.486,1,11.971,1C8.557,1,5.648,2.99,5.002,6.808
	C4.988,6.857,4.976,6.926,4.965,7H3v1h1.885C4.876,8.166,4.86,8.324,4.86,8.495c0,0.394,0.02,0.777,0.061,1.141
	C4.934,9.792,4.949,9.905,4.963,10H3v1h2.213C6.12,14.273,8.814,16,11.971,16z"/>
</svg>
