<?xml version="1.0" encoding="utf-8"?>
<!-- Generator: Adobe Illustrator 19.2.1, SVG Export Plug-In . SVG Version: 6.00 Build 0)  -->
<svg version="1.0" id="art" xmlns="http://www.w3.org/2000/svg" xmlns:xlink="http://www.w3.org/1999/xlink" x="0px" y="0px"
	 width="36px" height="36px" viewBox="0 0 36 36" enable-background="new 0 0 36 36" xml:space="preserve">
<path d="M21.511,32c0.807,0,1.858-0.07,2.419-0.193v-0.841c-0.561,0.14-1.613,0.21-2.419,0.21c-5.377,0-9.972-3.164-11.103-9.176H21
	v-1H10.248c-0.081-0.644-0.116-1.317-0.116-2.009c0-0.631,0.035-1.227,0.088-1.806c0.01-0.081,0.017-0.134,0.023-0.185H21v-1H10.409
	c1.138-6.019,5.722-9.176,11.102-9.176c0.807,0,1.858,0.07,2.419,0.21V6.193C23.369,6.07,22.317,6,21.511,6
	c-5.871,0-10.841,3.454-12,10H5v1h4.361c-0.01,0.108-0.017,0.185-0.017,0.185c-0.053,0.579-0.088,1.175-0.088,1.806
	c0,0.692,0.035,1.365,0.116,2.009H5v1h4.512C10.68,28.538,15.643,32,21.511,32z"/>
</svg>
