<?xml version="1.0" encoding="utf-8"?>
<!-- Generator: Adobe Illustrator 19.2.1, SVG Export Plug-In . SVG Version: 6.00 Build 0)  -->
<svg version="1.0" id="art" xmlns="http://www.w3.org/2000/svg" xmlns:xlink="http://www.w3.org/1999/xlink" x="0px" y="0px"
	 width="24px" height="24px" viewBox="0 0 24 24" enable-background="new 0 0 24 24" xml:space="preserve">
<path d="M6.772,16.774H6c0.172,2.86,2.614,4.976,6,5.212V23h1v-1.002c3.478-0.203,6-2.417,6-5.274c0-2.788-1.509-4.17-5.756-5.278
	L13,11.403V2.706c2.568,0.107,4.743,1.892,4.93,4.018h0.773C18.523,4.167,16.181,2.191,13.075,2H13V1h-1v1.022
	C8.94,2.298,6.571,4.48,6.571,7.076c0,2.526,1.509,3.893,5.385,4.88L12,11.968v9.3C9.157,20.99,6.95,19.104,6.772,16.774z
	 M7.149,6.975c0-2.302,2.077-4.112,4.851-4.259v8.505C8.47,10.39,7.149,9.234,7.149,6.975z M13.011,12.255
	c3.825,0.921,5.316,2.201,5.316,4.569c0,2.441-2.287,4.359-5.326,4.47v-9.042L13.011,12.255z"/>
</svg>
