<?xml version="1.0" encoding="utf-8"?>
<!-- Generator: Adobe Illustrator 19.2.1, SVG Export Plug-In . SVG Version: 6.00 Build 0)  -->
<svg version="1.0" id="art" xmlns="http://www.w3.org/2000/svg" xmlns:xlink="http://www.w3.org/1999/xlink" x="0px" y="0px"
	 width="24px" height="24px" viewBox="0 0 24 24" enable-background="new 0 0 24 24" xml:space="preserve">
<path fill="#FFFFFF" d="M3.772,17.774H3c0.172,2.86,2.614,4.976,6,5.212V24h1v-1.002c3.478-0.203,6-2.417,6-5.274
	c0-2.788-1.509-4.17-5.756-5.278L10,12.403V3.706c2.568,0.107,4.743,1.892,4.93,4.018h0.773C15.523,5.167,13.181,3.191,10.075,3H10
	V2H9v1.022C5.94,3.298,3.571,5.48,3.571,8.076c0,2.526,1.509,3.893,5.385,4.88L9,12.968v9.3C6.157,21.99,3.95,20.104,3.772,17.774z
	 M4.149,7.975c0-2.302,2.077-4.112,4.851-4.259v8.505C5.47,11.39,4.149,10.234,4.149,7.975z M10.011,13.255
	c3.825,0.921,5.316,2.201,5.316,4.569c0,2.441-2.287,4.359-5.326,4.47v-9.042L10.011,13.255z"/>
</svg>
