<?xml version="1.0" encoding="utf-8"?>
<!-- Generator: Adobe Illustrator 19.2.1, SVG Export Plug-In . SVG Version: 6.00 Build 0)  -->
<svg version="1.0" id="art" xmlns="http://www.w3.org/2000/svg" xmlns:xlink="http://www.w3.org/1999/xlink" x="0px" y="0px"
	 width="36px" height="36px" viewBox="0 0 36 36" enable-background="new 0 0 36 36" xml:space="preserve">
<path d="M18,32v-2.01c4.287-0.23,7.506-2.914,7.506-6.29c0-3.349-1.855-5-7.025-6.3L18,17.39V6.631
	c3.295,0.197,6.068,2.384,6.325,4.939h0.785C24.77,8.606,21.706,6.189,18,6.003V4h-1v2.007c-3.966,0.213-6.946,2.781-6.946,6.008
	c0,3.099,1.82,4.706,6.652,5.92L17,17.938v11.425c-3.544-0.217-6.369-2.553-6.694-5.504h-0.8c0.236,3.372,3.34,5.922,7.494,6.133V32
	H18z M18.033,18.132c5.003,1.197,6.775,2.679,6.775,5.663c0,3.072-2.922,5.464-6.809,5.574V18.125L18.033,18.132z M10.845,11.825
	c0-2.889,2.625-5.144,6.155-5.282v10.56C13.102,16.153,10.845,14.983,10.845,11.825z"/>
</svg>
