<?xml version="1.0" encoding="utf-8"?>
<!-- Generator: Adobe Illustrator 19.2.1, SVG Export Plug-In . SVG Version: 6.00 Build 0)  -->
<svg version="1.0" id="art" xmlns="http://www.w3.org/2000/svg" xmlns:xlink="http://www.w3.org/1999/xlink" x="0px" y="0px"
	 width="24px" height="24px" viewBox="0 0 24 24" enable-background="new 0 0 24 24" xml:space="preserve">
<path fill="#FFFFFF" d="M15.513,22c0.142,0,0.284-0.003,0.419-0.008L18,21.805v-0.694l-2.045,0.185
	c-0.147,0.007-0.294,0.01-0.439,0.01h-0.001c-4.028,0-7.446-2.619-8.344-6.306H16v-1H6.999l-0.05-0.43
	c-0.071-0.501-0.107-1.012-0.107-1.515C6.829,11.637,6.834,11.313,6.878,11H16v-1H7.023l0.032-0.274
	c0.685-4.015,4.288-6.929,8.568-6.929c0.11,0,0.22,0.002,0.339,0.006L18,2.988V2.194l-2.059-0.186C15.807,2.003,15.676,2,15.543,2
	c-4.705,0-8.717,3.341-9.335,7.778L6.166,10H3v1h3.026C6.003,11.368,6,11.753,6,12.048c0.007,0.495,0.042,0.994,0.104,1.484
	L6.159,14H3v1h3.33C7.281,19.089,11.045,22,15.513,22z"/>
</svg>
