<?xml version="1.0" encoding="utf-8"?>
<!-- Generator: Adobe Illustrator 19.2.1, SVG Export Plug-In . SVG Version: 6.00 Build 0)  -->
<svg version="1.0" id="art" xmlns="http://www.w3.org/2000/svg" xmlns:xlink="http://www.w3.org/1999/xlink" x="0px" y="0px"
	 width="30px" height="30px" viewBox="0 0 30 30" enable-background="new 0 0 30 30" xml:space="preserve">
<path d="M18.506,26c0.685,0,1.611-0.061,2.15-0.179v-0.786c-0.569,0.113-1.477,0.172-2.15,0.172c-4.699,0-8.21-2.753-9.246-7.207H19
	v-1H9.078l-0.044-0.289c-0.072-0.515-0.108-1.073-0.108-1.703c0-0.317,0.015-0.655,0.038-1.007H19v-1H9.071l0.084-0.545
	c0.91-4.717,4.493-7.648,9.351-7.648c0.674,0,1.581,0.059,2.15,0.172V4.179C20.117,4.061,19.19,4,18.506,4
	C13.05,4,9.104,7.261,8.209,12.505L8.141,13H5v1h3.049C8.027,14.335,8,14.676,8,14.993c0,0.588,0.029,1.153,0.088,1.673L8.14,17H5v1
	h3.321C9.39,22.942,13.255,26,18.506,26z"/>
</svg>
