<?xml version="1.0" encoding="utf-8"?>
<!-- Generator: Adobe Illustrator 19.2.1, SVG Export Plug-In . SVG Version: 6.00 Build 0)  -->
<svg version="1.0" id="art" xmlns="http://www.w3.org/2000/svg" xmlns:xlink="http://www.w3.org/1999/xlink" x="0px" y="0px"
	 width="36px" height="36px" viewBox="0 0 36 36" enable-background="new 0 0 36 36" xml:space="preserve">
<path fill="#FFFFFF" d="M26.816,30.188H10.048v-0.071c2.295-0.671,5.313-2.453,5.313-6.284c0-1.747-0.512-3.389-1.13-5.013h7.961
	v-0.812h-8.261c-0.759-2.012-1.553-4.042-1.553-6.301c0-3.424,2.418-5.895,7.008-5.895c2.665,0,4.73,0.565,5.719,1.112V6.059
	C24.221,5.6,22.05,5,19.35,5c-5.031,0-7.855,2.736-7.855,6.69c0,2.312,0.759,4.36,1.518,6.319H8.777v0.812h4.536
	c0.635,1.677,1.2,3.301,1.2,5.013c0,3.707-3.018,5.419-6.513,6.319V31h18.816V30.188z"/>
</svg>
