<?xml version="1.0" encoding="UTF-8" standalone="no"?>
<!-- Generator: Adobe Illustrator 18.1.1, SVG Export Plug-In . SVG Version: 6.00 Build 0)  -->
<svg id="Слой_1" xmlns="http://www.w3.org/2000/svg" xml:space="preserve" viewBox="0 0 54.772 77.891" version="1.1" y="0px" x="0px" xmlns:xlink="http://www.w3.org/1999/xlink" enable-background="new 0 0 54.772 77.891">
	<path d="m8.118 44.461v33.431h-2.889v-77.882h24.338c8.238 0 14.487 1.988 18.749 5.964 4.261 3.977 6.392 9.388 6.392 16.234 0 6.918-2.131 12.356-6.392 16.314-4.262 3.959-10.511 5.938-18.749 5.938h-21.449zm0-2.889h21.449c7.524 0 13.114-1.81 16.77-5.43 3.655-3.619 5.482-8.229 5.482-13.827 0-5.741-1.818-10.412-5.456-14.015-3.637-3.6-9.235-5.402-16.796-5.402h-21.449v38.674z"/>
<rect y="41.572" x="0" height="2.89" width="7.848"/>
<rect y="51.556" x="0" height="2.922" width="44.078"/>
<rect y="42.821" x="12.375" height=".078" width=".438"/>
</svg>
