<?xml version="1.0" encoding="UTF-8" standalone="no"?>
<!-- Generator: Adobe Illustrator 18.1.0, SVG Export Plug-In . SVG Version: 6.00 Build 0)  -->
<svg id="Layer_1" xmlns="http://www.w3.org/2000/svg" xml:space="preserve" viewBox="140 -80 300 180" version="1.1" y="0px" x="0px" xmlns:xlink="http://www.w3.org/1999/xlink" enable-background="new 140 -80 300 180">
<g id="g10305">
	<path id="path2268" d="m438.03 10.5c0.014 48.936-39.646 88.614-88.582 88.627-48.937 0.012-88.614-39.646-88.627-88.582v-0.045c-0.013-48.935 39.647-88.615 88.581-88.628 48.937-0.013 88.615 39.647 88.628 88.583v0.045z" fill="#f90"/>
	<path id="path1350" d="m230-78.105c-48.646 0.309-88.034 39.886-88.034 88.605 0 48.909 39.695 88.604 88.605 88.604 22.955 0 43.879-8.748 59.624-23.086-0.001 0-0.003-0.002-0.007-0.004h0.019c3.224-2.938 6.231-6.108 8.995-9.488h-18.15c-2.424-2.928-4.627-5.979-6.606-9.127h31.308c1.904-3.047 3.628-6.211 5.158-9.488h-41.635c-1.419-3.042-2.651-6.153-3.703-9.309h49.045c2.956-8.832 4.56-18.281 4.56-28.103 0-6.512-0.706-12.861-2.042-18.974h-54.164c0.671-3.146 1.518-6.254 2.528-9.308h49.063c-1.097-3.25-2.371-6.417-3.82-9.487h-41.48c1.496-3.196 3.191-6.305 5.084-9.307h31.285c-2.082-3.317-4.386-6.486-6.877-9.488h-17.443c2.697-3.174 5.666-6.163 8.889-8.95-15.746-14.34-36.676-23.09-59.636-23.09-0.19 0-0.38-0.001-0.57 0z" fill="#c00"/>
	<path id="use9412" d="m429.14 56.82c0.482 0 0.951 0.125 1.409 0.371 0.46 0.246 0.814 0.601 1.07 1.062 0.256 0.456 0.384 0.937 0.384 1.435 0 0.492-0.127 0.968-0.379 1.424-0.251 0.455-0.605 0.81-1.061 1.063-0.451 0.249-0.928 0.375-1.424 0.375s-0.972-0.126-1.426-0.375c-0.455-0.254-0.807-0.607-1.063-1.063-0.252-0.456-0.377-0.932-0.377-1.424 0-0.498 0.127-0.979 0.384-1.435 0.258-0.461 0.614-0.813 1.071-1.062 0.47-0.246 0.94-0.371 1.42-0.371m0 0.475c-0.401 0-0.793 0.104-1.176 0.311-0.38 0.207-0.677 0.5-0.891 0.888-0.217 0.382-0.325 0.778-0.325 1.194 0 0.412 0.106 0.81 0.315 1.188 0.214 0.377 0.51 0.673 0.888 0.885 0.381 0.211 0.776 0.315 1.188 0.315 0.414 0 0.81-0.104 1.189-0.315 0.378-0.212 0.673-0.508 0.884-0.885 0.209-0.378 0.313-0.775 0.313-1.188 0-0.416-0.106-0.813-0.321-1.194-0.213-0.388-0.511-0.681-0.894-0.888-0.38-0.208-0.77-0.311-1.17-0.311m-1.25 3.975v-3.082h1.062c0.36 0 0.622 0.028 0.784 0.088 0.162 0.057 0.291 0.154 0.388 0.297 0.095 0.141 0.144 0.291 0.144 0.451 0 0.226-0.08 0.422-0.242 0.588-0.158 0.166-0.373 0.261-0.639 0.281 0.109 0.045 0.196 0.102 0.264 0.164 0.125 0.12 0.275 0.323 0.455 0.61l0.375 0.603h-0.606l-0.272-0.485c-0.215-0.382-0.388-0.62-0.521-0.718-0.091-0.069-0.224-0.105-0.397-0.105h-0.293v1.311h-0.5m0.49-1.738h0.604c0.288 0 0.483-0.044 0.588-0.129 0.106-0.088 0.159-0.2 0.159-0.342 0-0.092-0.024-0.174-0.075-0.244-0.052-0.073-0.122-0.125-0.213-0.162-0.089-0.035-0.255-0.055-0.497-0.055h-0.564v0.932" fill="#FCB340"/>
</g>
<g id="g10289">
	<path id="path4157" d="m262.43 33.059l1.181-8.019c-0.645 0-1.594 0.276-2.431 0.276-3.284 0-3.646-1.746-3.437-3.037l2.66-16.362h4.991l1.205-8.87h-4.706l0.958-5.516h-9.434c-0.208 0.208-5.569 31.023-5.569 34.775 0 5.555 3.119 8.029 7.517 7.989 3.44-0.029 6.12-0.982 7.06-1.236z" fill="#fff"/>
	<path id="path4155" d="m265.42 17.77c0 13.332 8.8 16.5 16.297 16.5 6.92 0 9.965-1.547 9.965-1.547l1.662-9.099s-5.264 2.319-10.018 2.319c-10.13 0-8.356-7.553-8.356-7.553h19.172s1.238-6.113 1.238-8.604c0-6.216-3.094-13.79-13.452-13.79-9.48 0.002-16.5 10.223-16.5 21.774zm16.55-13.325c5.324 0 4.342 5.983 4.342 6.467h-10.474c0-0.618 0.98-6.467 6.13-6.467z" fill="#fff"/>
	<path id="path4151" d="m341.71 33.055l1.688-10.285s-4.629 2.321-7.806 2.321c-6.692 0-9.376-5.11-9.376-10.6 0-11.137 5.758-17.264 12.168-17.264 4.807 0 8.665 2.699 8.665 2.699l1.54-9.993s-5.721-2.315-10.625-2.315c-10.891 0-21.486 9.448-21.486 27.192 0 11.766 5.721 19.537 16.979 19.537 3.19 0.001 8.26-1.292 8.26-1.292z" fill="#fff"/>
	<path id="path4149" d="m210.55-3.857c-6.469 0-11.428 2.079-11.428 2.079l-1.369 8.127s4.093-1.663 10.28-1.663c3.513 0 6.083 0.395 6.083 3.25 0 1.734-0.315 2.374-0.315 2.374s-2.771-0.232-4.054-0.232c-8.159 0-16.73 3.482-16.73 13.98 0 8.272 5.623 10.17 9.108 10.17 6.656 0 9.525-4.319 9.678-4.332l-0.311 3.605h8.307l3.706-25.981c-0.02-11.022-9.63-11.377-12.97-11.377zm2.02 21.154c0.18 1.587-0.995 9.026-6.675 9.026-2.93 0-3.692-2.238-3.692-3.562 0-2.582 1.403-5.682 8.316-5.682 1.59 0.002 1.77 0.174 2.04 0.218z" fill="#fff"/>
	<path id="path4145" d="m232.33 34.038c2.125 0 14.273 0.54 14.273-11.995 0-11.719-11.245-9.404-11.245-14.112 0-2.344 1.833-3.082 5.183-3.082 1.33 0 6.447 0.423 6.447 0.423l1.19-8.33c0 0.001-3.312-0.741-8.704-0.741-6.979 0-14.063 2.786-14.063 12.318 0 10.801 11.812 9.717 11.812 14.267 0 3.037-3.3 3.284-5.843 3.284-4.401 0-8.364-1.51-8.378-1.438l-1.258 8.246c0.22 0.07 2.67 1.16 10.58 1.16z" fill="#fff"/>
	<path id="path4139" d="m419.85-11.332l-2.035 12.627s-3.551-4.905-9.11-4.905c-8.644 0-15.849 10.422-15.849 22.397 0 7.73 3.843 15.304 11.699 15.304 5.651 0 8.784-3.94 8.784-3.94l-0.415 3.365h9.176l7.207-44.863-9.46 0.015zm-4.38 24.62c0 4.983-2.467 11.639-7.582 11.639-3.395 0-4.986-2.85-4.986-7.323 0-7.314 3.285-12.14 7.43-12.14 3.4-0.001 5.14 2.332 5.14 7.824z" fill="#fff"/>
	<path id="path4133" d="m159.47 33.555l5.743-33.87 0.843 33.87h6.5l12.125-33.87-5.371 33.87h9.658l7.438-44.923h-14.935l-9.301 27.563-0.484-27.563h-13.767l-7.545 44.923h9.09z" fill="#fff"/>
	<path id="path4131" d="m304.82 33.617c2.746-15.616 3.255-28.296 9.808-25.975 1.147-6.044 2.254-8.382 3.506-10.94 0 0-0.587-0.123-1.819-0.123-4.225 0-7.355 5.772-7.355 5.772l0.841-5.301h-8.784l-5.885 36.567h9.68z" fill="#fff"/>
	<g id="use8523" transform="translate(847.01)">
		<path id="path4149_1_" d="m-483.53-3.857c-6.469 0-11.428 2.079-11.428 2.079l-1.368 8.127s4.093-1.663 10.28-1.663c3.513 0 6.081 0.395 6.081 3.25 0 1.734-0.313 2.374-0.313 2.374s-2.771-0.232-4.055-0.232c-8.158 0-16.729 3.482-16.729 13.98 0 8.272 5.622 10.17 9.107 10.17 6.656 0 9.525-4.319 9.677-4.332l-0.309 3.605h8.307l3.705-25.981c0-11.022-9.61-11.377-12.95-11.377zm2.02 21.154c0.18 1.587-0.996 9.026-6.678 9.026-2.93 0-3.69-2.238-3.69-3.562 0-2.582 1.403-5.682 8.315-5.682 1.61 0.002 1.78 0.174 2.05 0.218z" fill="#fff"/>
	</g>
	<g id="use8525" transform="translate(442.29)">
		<path id="path4131_1_" d="m-58.263 33.617c2.747-15.616 3.256-28.296 9.807-25.975 1.149-6.044 2.257-8.382 3.508-10.94 0 0-0.587-0.123-1.819-0.123-4.225 0-7.355 5.772-7.355 5.772l0.841-5.301h-8.784l-5.885 36.567h9.687z" fill="#fff"/>
	</g>
	<path id="text9407" d="m429.1 27.975c0.479 0 0.951 0.123 1.406 0.373 0.459 0.242 0.816 0.598 1.072 1.059 0.257 0.458 0.383 0.935 0.383 1.434 0 0.493-0.126 0.969-0.379 1.424-0.251 0.455-0.604 0.812-1.059 1.063-0.454 0.25-0.93 0.376-1.424 0.376-0.498 0-0.974-0.126-1.429-0.376-0.454-0.253-0.806-0.608-1.058-1.063-0.256-0.455-0.381-0.931-0.381-1.424 0-0.499 0.127-0.976 0.384-1.434 0.258-0.461 0.616-0.815 1.073-1.059 0.47-0.25 0.95-0.373 1.42-0.373m0 0.472c-0.401 0-0.793 0.104-1.176 0.313-0.382 0.204-0.679 0.499-0.894 0.885-0.214 0.381-0.322 0.78-0.322 1.194s0.104 0.81 0.313 1.188c0.213 0.377 0.509 0.673 0.891 0.886 0.378 0.208 0.773 0.313 1.188 0.313 0.412 0 0.81-0.105 1.188-0.313 0.378-0.213 0.674-0.509 0.884-0.886 0.211-0.381 0.314-0.774 0.314-1.188s-0.107-0.813-0.321-1.194c-0.213-0.386-0.51-0.681-0.894-0.885-0.37-0.208-0.76-0.313-1.17-0.313m-1.25 3.976v-3.083h1.061c0.361 0 0.625 0.029 0.785 0.088 0.162 0.055 0.289 0.154 0.388 0.297 0.097 0.142 0.146 0.291 0.146 0.451 0 0.225-0.082 0.422-0.244 0.588-0.158 0.166-0.371 0.262-0.637 0.28 0.106 0.046 0.194 0.101 0.262 0.163 0.123 0.122 0.275 0.326 0.455 0.611l0.377 0.604h-0.609l-0.271-0.485c-0.216-0.383-0.389-0.621-0.521-0.718-0.091-0.071-0.224-0.106-0.399-0.106h-0.291v1.311l-0.52-0.001m0.5-1.735h0.604c0.289 0 0.484-0.043 0.588-0.129 0.105-0.084 0.16-0.199 0.16-0.342 0-0.091-0.025-0.173-0.075-0.242-0.051-0.074-0.122-0.127-0.213-0.164-0.091-0.035-0.254-0.053-0.498-0.053h-0.565v0.93" fill="#fff"/>
</g>
</svg>
