<?xml version="1.0" encoding="utf-8"?>
<!-- Generator: Adobe Illustrator 18.1.1, SVG Export Plug-In . SVG Version: 6.00 Build 0)  -->
<svg version="1.1" id="Слой_1" xmlns="http://www.w3.org/2000/svg" xmlns:xlink="http://www.w3.org/1999/xlink" x="0px" y="0px"
	 viewBox="76.5 -39.625 154.375 50.125" enable-background="new 76.5 -39.625 154.375 50.125" xml:space="preserve">
<path fill="#FFFFFF" d="M78.51-37.13c2.02-1.04,4.33-0.62,6.5-0.66c4.97,0.13,9.95-0.12,14.92,0.1c2.24-0.01,4.16,1.85,4.47,4.02
	c1.56,7.56,2.99,15.15,4.52,22.73c-2.53-8.88-9.21-16.13-17.06-20.74C87.71-34.17,83.08-35.62,78.51-37.13z"/>
<path fill="#FFFFFF" d="M121.75-37.77c4.31,0.05,8.61,0.03,12.91,0c-6.54,15.63-12.64,31.44-19.32,47.01
	c-4.2-0.13-8.4-0.07-12.6-0.07c-3.72-13.59-7.19-27.25-10.88-40.85c7.85,4.61,14.53,11.86,17.06,20.74
	c0.38,1.72,0.65,3.48,0.98,5.22C113.82-16.41,117.79-27.09,121.75-37.77z"/>
<path fill="#FFFFFF" d="M139.49-37.79c4.05,0.03,8.1,0.03,12.15,0c-2.49,15.66-5.11,31.3-7.54,46.97c-4.03,0.01-8.06,0.01-12.1,0
	C134.32-6.5,137.05-22.12,139.49-37.79z"/>
<path fill="#FFFFFF" d="M163.16-34.84c7.26-4.77,16.75-4.63,24.78-1.99c-0.37,3.47-0.95,6.91-1.55,10.34
	c-4.27-2.05-9.25-2.96-13.89-1.77c-2.19,0.52-4.35,3.24-2.53,5.28c3.74,3.83,9.63,4.7,13.15,8.87c4.08,3.99,3.93,10.71,1.15,15.38
	c-2.94,4.93-8.6,7.51-14.11,8.25c-6.23,0.65-12.72,0.26-18.56-2.15c0.62-3.5,1.14-7.02,1.77-10.52c5.05,2.61,10.91,3.92,16.54,2.67
	c1.91-0.64,3.88-2.21,3.71-4.45c-0.63-2.67-3.42-3.81-5.59-5.02c-4.21-2.07-8.74-4.61-10.63-9.16
	C155.05-24.86,158.16-31.59,163.16-34.84z"/>
<path fill="#FFFFFF" d="M219.11-37.73c-3.72,0.07-7.46-0.15-11.18,0.11c-2.53,0.13-4.13,2.48-4.94,4.64
	c-5.85,14.08-11.77,28.13-17.63,42.2c4.24-0.01,8.48-0.01,12.72-0.01c0.89-2.35,1.75-4.72,2.58-7.09
	c5.18,0.03,10.36,0.02,15.55,0.02c0.48,2.37,0.98,4.73,1.51,7.08c3.74-0.01,7.48-0.01,11.22-0.02
	C225.66-6.44,222.44-22.09,219.11-37.73z M204.19-7.54c2.26-5.81,4.11-11.79,6.64-17.49c0.75,5.9,2.22,11.68,3.43,17.5
	C210.9-7.53,207.55-7.53,204.19-7.54z"/>
</svg>
