<?xml version="1.0" encoding="utf-8"?>
<!-- Generator: Adobe Illustrator 18.1.0, SVG Export Plug-In . SVG Version: 6.00 Build 0)  -->
<svg version="1.1" id="Layer_1" xmlns="http://www.w3.org/2000/svg" xmlns:xlink="http://www.w3.org/1999/xlink" x="0px" y="0px"
	 viewBox="0 0 144 89.38" enable-background="new 0 0 144 89.38" xml:space="preserve">
<path fill="#FFFFFF" d="M144,44.685c0,24.641-20.049,44.695-44.691,44.695c-10.278,0-19.754-3.496-27.312-9.343
	c-7.554,5.847-17.029,9.343-27.308,9.343C20.048,89.38,0,69.327,0,44.685S20.048,0,44.689,0c10.279,0,19.754,3.483,27.308,9.337
	C79.556,3.483,89.031,0,99.309,0C123.951,0,144,20.044,144,44.685z M99.309,3.996c-9.065,0-17.434,2.97-24.195,7.982
	c6.132,5.707,10.667,13.119,12.834,21.471h-4.143c-2.122-7.384-6.27-13.903-11.808-18.92c-5.534,5.017-9.685,11.536-11.799,18.92
	h-4.148c2.172-8.352,6.707-15.763,12.838-21.471c-6.765-5.012-15.13-7.982-24.2-7.982c-22.47,0-40.685,18.215-40.685,40.69
	c0,22.469,18.216,40.69,40.685,40.69c9.07,0,17.436-2.97,24.2-7.981c-5.77-5.374-10.122-12.259-12.423-20.009h4.188
	c2.225,6.786,6.175,12.775,11.344,17.458c5.173-4.683,9.128-10.672,11.353-17.458h4.188c-2.306,7.75-6.657,14.635-12.424,20.009
	c6.761,5.012,15.13,7.981,24.195,7.981c22.47,0,40.686-18.221,40.686-40.69C139.995,22.211,121.779,3.996,99.309,3.996z
	 M28.222,34.987h-6.515l-4.071,12.138l-0.169-12.138h-6.038L8.151,54.598h3.929l2.523-14.983l0.352,14.983h2.862l5.365-15.072
	l-2.404,15.072h4.196L28.222,34.987z M36.025,47.491c-0.441-0.045-0.633-0.062-0.937-0.062c-2.381,0-3.581,0.815-3.581,2.421
	c0,0.995,0.589,1.628,1.498,1.628C34.719,51.477,35.949,49.849,36.025,47.491z M39.075,54.598c-0.562,0-3.478,0-3.478,0l0.081-1.654
	c-1.062,1.307-2.475,1.932-4.397,1.932c-2.279,0-3.83-1.779-3.83-4.353c0-3.889,2.707-6.149,7.362-6.149
	c0.477,0,1.088,0.044,1.712,0.125c0.129-0.531,0.161-0.753,0.161-1.039c0-1.052-0.727-1.449-2.689-1.449
	c-2.051-0.027-3.745,0.486-4.441,0.718c0.045-0.268,0.584-3.586,0.584-3.586c2.087-0.615,3.469-0.847,5.021-0.847
	c3.603,0,5.512,1.614,5.507,4.673c0.004,0.82-0.129,1.832-0.339,3.167C39.963,48.44,39.183,53.39,39.075,54.598z M93.888,34.505
	c-5.561,0-9.449,4.896-9.449,11.906c0,5.208,2.815,8.464,7.331,8.464c1.159,0,2.162-0.152,3.705-0.58l0.736-4.464
	c-1.387,0.683-2.528,1.008-3.564,1.008c-2.439,0-3.911-1.802-3.911-4.776c0-4.321,2.19-7.349,5.325-7.349
	c1.163,0,2.252,0.303,3.75,1.062l0.687-4.254C97.883,35.281,95.72,34.505,93.888,34.505z M105.98,47.491
	c-0.436-0.045-0.633-0.062-0.94-0.062c-2.377,0-3.581,0.815-3.581,2.421c0,0.995,0.589,1.628,1.508,1.628
	C104.675,51.477,105.91,49.849,105.98,47.491z M109.031,54.598c-0.558,0-3.474,0-3.474,0l0.08-1.654
	c-1.065,1.307-2.483,1.932-4.401,1.932c-2.274,0-3.835-1.779-3.835-4.353c0-3.889,2.716-6.149,7.366-6.149
	c0.478,0,1.089,0.044,1.713,0.125c0.129-0.531,0.16-0.753,0.16-1.039c0-1.052-0.727-1.449-2.685-1.449
	c-2.056-0.027-3.745,0.486-4.441,0.718c0.04-0.268,0.58-3.586,0.58-3.586c2.091-0.615,3.474-0.847,5.017-0.847
	c3.607,0,5.517,1.614,5.512,4.673c0.009,0.82-0.129,1.832-0.339,3.167C109.923,48.44,109.139,53.39,109.031,54.598z M59.699,50.826
	c-0.281,0.099-0.651,0.151-1.128,0.151c-0.999,0-1.44-0.356-1.44-1.182c0.009-0.508,0.7-4.28,1.182-7.309h2.154l0.571-3.835h-2.145
	l0.486-2.407h-4.17c0,0-1.578,9.386-1.815,10.871c-0.268,1.699-0.606,3.55-0.58,4.254c0,2.271,1.168,3.506,3.313,3.506
	c0.972,0,1.868-0.161,3.019-0.518L59.699,50.826z M72.533,54.233c-1.436,0.438-2.818,0.643-4.281,0.643
	c-4.674-0.01-7.108-2.448-7.108-7.117c0-5.45,3.099-9.463,7.304-9.463c3.438,0,5.637,2.243,5.637,5.774
	c0,1.168-0.156,2.306-0.518,3.925h-8.303c-0.281,2.305,1.2,3.269,3.625,3.269c1.494,0,2.836-0.304,4.334-0.999L72.533,54.233z
	 M70.187,44.775c0.027-0.33,0.441-2.854-1.94-2.854c-1.329,0-2.283,1.021-2.667,2.854H70.187z M42.3,43.691
	c0,2.021,0.972,3.407,3.192,4.455c1.699,0.803,1.962,1.034,1.962,1.762c0,0.989-0.75,1.435-2.413,1.435
	c-1.249,0-2.417-0.188-3.759-0.624c0,0-0.553,3.514-0.58,3.684c0.959,0.205,1.806,0.4,4.37,0.473c4.428,0,6.47-1.69,6.47-5.329
	c0-2.198-0.852-3.474-2.957-4.442c-1.756-0.812-1.961-0.99-1.961-1.734c0-0.865,0.7-1.302,2.06-1.302c0.82,0,1.948,0.089,3.01,0.241
	l0.598-3.701c-1.088-0.17-2.733-0.312-3.692-0.312C43.905,38.295,42.282,40.744,42.3,43.691z M132.664,54.598h-3.973l0.2-1.484
	c-1.154,1.227-2.336,1.762-3.87,1.762c-3.051,0-5.066-2.627-5.066-6.613c0-5.312,3.125-9.78,6.826-9.78
	c1.624,0,2.863,0.66,4.01,2.172l0.927-5.668h4.139L132.664,54.598z M126.471,50.915c1.953,0,3.331-2.217,3.331-5.374
	c0-2.029-0.78-3.126-2.226-3.126c-1.904,0-3.255,2.216-3.255,5.351C124.321,49.858,125.044,50.915,126.471,50.915z M113.526,38.652
	c-0.526,4.932-1.458,9.931-2.186,14.872l-0.191,1.074h4.191c1.503-9.752,1.868-11.656,4.219-11.416
	c0.373-2.002,1.069-3.746,1.596-4.628c-1.761-0.366-2.742,0.633-4.021,2.52c0.103-0.821,0.285-1.61,0.245-2.422H113.526z
	 M76.85,38.652c-0.526,4.932-1.463,9.931-2.19,14.872l-0.192,1.074h4.196c1.503-9.752,1.864-11.656,4.214-11.416
	c0.379-2.002,1.079-3.746,1.597-4.628c-1.753-0.366-2.742,0.633-4.022,2.52c0.103-0.821,0.285-1.61,0.25-2.422H76.85z
	 M135.84,55.423c0.803,0,1.453-0.651,1.453-1.444c0-0.799-0.65-1.445-1.453-1.445c-0.794,0-1.437,0.646-1.437,1.445
	C134.403,54.772,135.046,55.423,135.84,55.423z M134.742,53.979c0-0.607,0.491-1.102,1.098-1.102c0.615,0,1.097,0.495,1.097,1.102
	c0,0.598-0.481,1.097-1.097,1.097C135.233,55.076,134.742,54.577,134.742,53.979z M135.652,54.603h-0.294v-1.258h0.535
	c0.107,0,0.223,0,0.32,0.062c0.099,0.062,0.161,0.192,0.161,0.312c0,0.147-0.081,0.276-0.224,0.33l0.232,0.553h-0.33l-0.188-0.49
	h-0.214V54.603z M135.652,53.894h0.16c0.062,0,0.125,0,0.179-0.026c0.054-0.031,0.071-0.094,0.071-0.147
	c0-0.054-0.026-0.103-0.071-0.134c-0.045-0.027-0.134-0.018-0.188-0.018h-0.151V53.894z M138.042,69.608
	c0-0.794,0.651-1.445,1.445-1.445c0.794,0,1.444,0.651,1.444,1.445c0,0.794-0.65,1.444-1.444,1.444
	C138.693,71.052,138.042,70.402,138.042,69.608z M139.487,70.704c0.606,0,1.105-0.5,1.105-1.097c0-0.606-0.499-1.098-1.105-1.098
	c-0.606,0-1.097,0.491-1.097,1.098C138.391,70.204,138.881,70.704,139.487,70.704z M139.291,69.732h0.214l0.196,0.509h0.33
	l-0.231-0.562c0.133-0.054,0.223-0.179,0.223-0.326c0-0.12-0.071-0.254-0.16-0.32c-0.099-0.067-0.224-0.067-0.33-0.067h-0.535v1.275
	h0.294V69.732z M139.291,69.197h0.16c0.054,0,0.134-0.009,0.179,0.019c0.045,0.035,0.08,0.08,0.08,0.134
	c0,0.058-0.026,0.115-0.08,0.151c-0.045,0.022-0.116,0.022-0.17,0.022h-0.169V69.197z"/>
</svg>
