<?xml version="1.0" encoding="utf-8"?>
<!-- Generator: Adobe Illustrator 18.1.0, SVG Export Plug-In . SVG Version: 6.00 Build 0)  -->
<svg version="1.1" id="Слой_1" xmlns="http://www.w3.org/2000/svg" xmlns:xlink="http://www.w3.org/1999/xlink" x="0px" y="0px"
	 viewBox="0 0 30 30" enable-background="new 0 0 30 30" xml:space="preserve">
<polygon fill="#E3E3E3" points="23.435,24.697 29.631,13.966 23.435,3.234 21.177,3.234 27.372,13.966 21.177,24.697 "/>
<g>
	<g>
		<path fill="#E3E3E3" d="M25.078,13.967L18.881,3.234c0,0-12.407-0.004-12.407,0c4.557,0.911,7.99,4.944,7.99,9.77
			c0,0.335-0.017,0.667-0.05,0.993c2.855,1.757,4.754,4.866,4.754,8.411c0,0.775-0.08,1.565-0.252,2.289L25.078,13.967z"/>
	</g>
	<path fill="#E3E3E3" d="M18.917,24.697C18.099,18.64,12.9,13.967,6.629,13.967c2.364,0,3.89-1.676,3.892-3.917
		c0-1.258-1.314-4.936-4.046-6.817L0.291,13.967L6.488,24.7L18.917,24.697z"/>
</g>
</svg>
