<?xml version="1.0" encoding="utf-8"?>
<!-- Generator: Adobe Illustrator 18.1.0, SVG Export Plug-In . SVG Version: 6.00 Build 0)  -->
<svg version="1.1" id="Layer_1" xmlns="http://www.w3.org/2000/svg" xmlns:xlink="http://www.w3.org/1999/xlink" x="0px" y="0px"
	 viewBox="-140.4 390.9 143.4 60" enable-background="new -140.4 390.9 143.4 60" xml:space="preserve">
<g>
	<path fill="#fff" d="M-41,423.4c0,1.8-1,3-2.8,3c-0.7,0-1.3,0-2.2-0.3v-5.5c0.4-0.1,1.3-0.2,2.2-0.2
		C-42,420.6-41,421.4-41,423.4z M-37.3,423.1c0-3.4-1.9-5.7-6-5.7c-1,0-1.7,0.1-2.8,0.4l0-4.8c0.7-0.1,1.8-0.2,3.1-0.2
		c1.2,0,2.7,0.1,4,0.2l0.1-2.8c-1.5-0.3-3.7-0.6-5.4-0.6c-1.7,0-4.3,0.4-5.5,0.8l0,17.8c1.9,0.7,3.8,1,5.8,1
		C-39.6,429.3-37.3,426.9-37.3,423.1z M-79.6,422.1c0,2.5-1,4.1-2.6,4.1c-0.7,0-1,0-1.8-0.3v-7.5c0.8-0.4,1.3-0.4,2-0.4
		C-80.4,418.1-79.6,419.4-79.6,422.1 M-91.8,422.2c0-2.7,0.8-4.1,2.4-4.1c0.7,0,1.1,0,2,0.4v7.5c-0.8,0.3-1.1,0.3-1.8,0.3
		C-91.1,426.2-91.8,424.7-91.8,422.2 M-84,433.4v-4.9c0.4,0.3,1.3,0.7,2.8,0.7c3,0,5.2-2.5,5.2-7.1c0-4.9-2.2-7-5.7-7
		c-0.9,0-1.5,0.1-2.2,0.4v-5.8h-3.5v5.8c-0.7-0.4-1.3-0.4-2.2-0.4c-3.6,0-5.7,2.2-5.7,7.1c0,4.6,2,7,5.2,7c1.5,0,2.4-0.4,2.8-0.7
		v4.9L-84,433.4 M-110.5,429v-13c-1.9-0.6-3.4-0.8-5.3-0.8c-1.9,0-3.4,0.3-5.3,0.8v6.7c0,1.8,0,2.4-0.2,2.9
		c-0.2,0.5-0.5,1.1-1.2,1.6l1,2.1c2.8-0.8,3.9-2,3.9-6v-4.9c0.9-0.1,1.1-0.2,1.9-0.2c0.7,0,0.9,0,1.8,0.2V429L-110.5,429L-110.5,429
		z M-67.3,426.1c-0.8,0.3-1.3,0.3-1.9,0.3c-1.3,0-2-0.5-2-1.8c0-1.4,0.9-1.8,2.6-1.8c0.4,0,0.8,0.1,1,0.1v1
		C-67.5,425-67.5,425.7-67.3,426.1z M-62.9,427.7c-0.9-1.4-1.2-2.3-1.2-4.1V420c0-2-0.2-2.7-0.7-3.4c-0.7-1-1.9-1.4-4.1-1.4
		c-1.5,0-3.1,0.2-4.5,0.5l0.5,2.6c1-0.1,2-0.3,2.8-0.3c2.3,0,2.6,0.3,2.6,2.1v0.7c-0.5-0.1-1.1-0.2-1.8-0.2c-3.5,0-5.4,1.7-5.4,4.6
		c0,2.7,2,4.2,4.4,4.2c0.9,0,1.8-0.2,2.6-0.5c0.4-0.2,0.6-0.3,1.2-0.7c0.4,0.5,1,1,1.3,1.1L-62.9,427.7z M-28.7,426.1
		c-0.8,0.3-1.3,0.3-1.9,0.3c-1.3,0-2-0.5-2-1.8c0-1.4,0.9-1.8,2.6-1.8c0.4,0,0.8,0.1,1,0.1v1C-28.8,425-28.8,425.7-28.7,426.1z
		 M-24.2,427.7c-0.9-1.4-1.2-2.3-1.2-4.1V420c0-2-0.2-2.7-0.7-3.4c-0.7-1-1.9-1.4-4.1-1.4c-1.5,0-3.1,0.2-4.5,0.5l0.5,2.6
		c1-0.1,2-0.3,2.8-0.3c2.3,0,2.6,0.3,2.6,2.1v0.7c-0.5-0.1-1.1-0.2-1.8-0.2c-3.5,0-5.4,1.7-5.4,4.6c0,2.7,2,4.2,4.4,4.2
		c0.9,0,1.8-0.2,2.6-0.5c0.4-0.2,0.6-0.3,1.2-0.7c0.4,0.5,1.1,1,1.3,1.1L-24.2,427.7z M-100.5,424.3c0,1.3-0.5,2.2-2.1,2.2
		c-0.6,0-0.8,0-1.5-0.2v-3.9c0.9-0.2,1-0.2,1.5-0.2C-101.1,422.2-100.5,423-100.5,424.3z M-107.7,415.3l0,12.9c1.7,0.7,3.5,1,5.1,1
		c3.7,0,5.7-2,5.7-5.2c0-2.9-1.8-4.7-5.1-4.7c-0.8,0-1.3,0.1-2.2,0.3v-4.4L-107.7,415.3L-107.7,415.3z M-11.4,429v-13.5h-3.5v5.1h-4
		v-5.1h-3.5V429h3.5v-5.5h4v5.5H-11.4z M3,429c0,0-1.9-4.1-2.4-5.1c-0.5-1.1-1-1.8-2.1-2.1v-0.1c0.7-0.1,1.3-0.6,1.9-1.9
		c0.6-1.3,0.8-1.6,1.1-1.9c0.3-0.3,0.8-0.2,0.8-0.2l0.2-2.5c-0.5-0.1-1.1-0.1-1.6,0c-0.9,0.1-1.4,0.3-1.9,0.8
		c-0.4,0.4-0.6,0.9-0.9,1.6c-0.3,0.7-0.6,1.2-0.9,1.9c-0.3,0.7-0.5,1-1.4,1h-0.6v-5.1h-3.5V429h3.5v-5.5l0.5,0c1,0,1.2,0.3,1.7,1.3
		C-2,426-0.8,429-0.8,429L3,429L3,429z M-127.6,429h4l-6.1-18.9c-0.6-0.2-1.4-0.4-2.3-0.4c-0.9,0-1.3,0.1-2,0.4l-6.5,18.9h3.9
		c0,0,0.5-1.7,1.2-3.7h6.7C-128.1,427.3-127.6,429-127.6,429z M-134.4,422.1c0,0,1.1-3.8,1.3-4.4c0.5-1.5,1.1-4,1.1-4h0.1
		c0,0,0.6,2.5,1,3.9c0.2,0.6,1.2,4.4,1.2,4.4S-134.4,422.1-134.4,422.1z M-56.9,419.9c-1.2,0-2.2,1-2.2,2.3c0,1.3,1,2.3,2.2,2.3
		c1.2,0,2.2-1,2.2-2.3C-54.7,421-55.7,419.9-56.9,419.9z"/>
</g>
</svg>
