<?xml version="1.0" encoding="utf-8"?>
<!-- Generator: Adobe Illustrator 19.2.1, SVG Export Plug-In . SVG Version: 6.00 Build 0)  -->
<svg version="1.0" id="Layer_2" xmlns="http://www.w3.org/2000/svg" xmlns:xlink="http://www.w3.org/1999/xlink" x="0px" y="0px"
	 width="30px" height="30px" viewBox="0 0 30 30" enable-background="new 0 0 30 30" xml:space="preserve">
<g id="check">
</g>
<g>
	<polygon points="14.101,5 17,5 17,4 2,4 2,5 3.809,5 	"/>
	<path d="M18.415,14.999L20.799,15l4.576-9.188C25.747,5.22,26,5,26.373,5H28V4h-8v1h1.567c0.88,0,1.462,0.508,0.957,1.624
		L18.415,14.999z"/>
	<circle cx="26" cy="13" r="2"/>
	<path d="M8.966,15h9.317l-0.285-0.563c-0.041-0.092-0.058-0.174-0.083-0.26c-0.016-0.057-0.044-0.118-0.055-0.173l-0.033,0
		l-9.345,0.026L8.966,15z"/>
	<path d="M16.936,12.242c-0.026-0.08-0.06-0.163-0.076-0.238l-0.045,0l-9.332,0.026L7.966,13h9.317l-0.285-0.563
		C16.967,12.368,16.957,12.307,16.936,12.242z"/>
	<path d="M16.283,11l-0.285-0.563c-0.02-0.046-0.025-0.086-0.041-0.13c-0.037-0.103-0.076-0.207-0.096-0.303l-0.057,0l-9.32,0.026
		L6.966,11H16.283z"/>
	<path d="M15.283,9l-0.285-0.563c-0.01-0.023-0.012-0.043-0.021-0.065c-0.051-0.128-0.092-0.251-0.117-0.368l-0.069,0L5.483,8.029
		L5.966,9H15.283z"/>
	<path d="M13.86,6.003L4.483,6.029L4.966,7h9.317l-0.285-0.563C13.93,6.284,13.889,6.141,13.86,6.003z"/>
	<polygon points="18.838,16 12,16 9.439,16 9.437,16 14.854,26.893 18.779,19 19.274,18.005 19.773,17 28,17 28,16 20.271,16 	"/>
</g>
</svg>
