<?xml version="1.0" encoding="utf-8"?>
<!-- Generator: Adobe Illustrator 19.2.1, SVG Export Plug-In . SVG Version: 6.00 Build 0)  -->
<svg version="1.0" id="Layer_2" xmlns="http://www.w3.org/2000/svg" xmlns:xlink="http://www.w3.org/1999/xlink" x="0px" y="0px"
	 width="18px" height="18px" viewBox="0 0 18 18" enable-background="new 0 0 18 18" xml:space="preserve">
<g id="check">
</g>
<g>
	<path fill="#FFFFFF" d="M16.764,8.548c-0.883-1.203-2.126-0.963-3.249-0.321c-0.401-1.725-0.481-2.086-2.046-2.487
		c0.04-0.16,0.04-0.281,0-0.441c-0.521,0.12-1.043,0.281-1.524,0.642c0.361,0.281,0.762,0.521,1.123,0.802
		c0.16-0.08,0.321-0.201,0.401-0.401c1.324,0.241,1.123,1.203,1.324,2.407c-0.602,0.481-1.163,1.043-1.484,1.444
		c-0.241-0.201-0.722-0.321-0.722,0.361c-0.882,0.642-1.524,0.401-2.006-0.241c0.441-0.16,0.682-0.441,0.602-1.163
		c0.281-0.321,0.642-0.602,0.401-1.123c0.321-0.241,0.481-0.562,0.361-1.163c0.16-0.201,0.241-0.441,0-0.762
		c0-0.321-0.04-0.682-0.08-1.003c-0.16,0-0.321-0.08-0.481-0.281c0.08-0.682-0.321-0.682-0.802-0.602
		C8.3,4.136,7.98,4.016,7.699,3.935c-0.16-0.12-0.281-0.201-0.441-0.321c-0.08,0.16-0.04,0.361,0.08,0.642
		c-0.12,0.04-0.281,0.04-0.401,0.04c-0.16,0.441-0.762,0.602-0.963,1.003c-0.12,0.08-0.281,0.16-0.441,0.16
		c-0.08,0-0.16,0.08-0.201,0.241c0,0.12,0.04,0.321,0.04,0.441c0.16,0.12,0.201,0.12,0.321,0.281c0.08-0.04,0.16-0.08,0.281-0.16
		c-0.04,0.12-0.04,0.201-0.04,0.281c0.04,0.08,0.16,0.12,0.321,0.08c0.04-0.08,0.12-0.16,0.16-0.281
		c0.08-0.16,0.521-0.201,0.802-0.281c0.16,0.201,0.481,0.201,0.802,0.16C7.699,6.422,7.578,6.703,7.418,7.064
		C7.177,7.546,6.094,8.027,5.974,8.669C5.773,9.431,4.65,9.752,4.69,10.875c-0.201-0.321-0.401-0.602-0.642-0.882
		c-0.201-0.04-0.401-0.04-0.562,0.04l-0.241,0.241c-0.04,0.241-0.04,0.401-0.04,0.602H2.805c-0.361,0.923-1.163,0.722-1.765,1.484
		C1,12.439,1,12.52,1,12.6c0.08,0.04,0.201,0.12,0.281,0.16c0.321,0.08,0.642,0.08,0.963,0c0.201-0.04,0.441-0.04,0.281-0.401
		c0.12,0.08,0.321,0.12,0.481,0.08c0.401-0.441,0.481-1.163,0.802-1.444c0.12,0.04,0.201,0.16,0.281,0.321
		c0.842,3.851,5.816,3.891,8.103,1.163c0.321-0.401,1.163-0.201,1.765-0.762c-0.241-0.201-0.521-0.16-0.682-0.361l0.481-0.722
		l0.08,0.08C14.678,11.517,17.887,11.396,16.764,8.548z M14.398,9.912c0.441-0.562,1.083-1.083,1.444-0.401
		C15.882,10.153,15.039,10.273,14.398,9.912z"/>
</g>
</svg>
