<?xml version="1.0" encoding="utf-8"?>
<!-- Generator: Adobe Illustrator 19.2.1, SVG Export Plug-In . SVG Version: 6.00 Build 0)  -->
<svg version="1.0" id="Layer_2" xmlns="http://www.w3.org/2000/svg" xmlns:xlink="http://www.w3.org/1999/xlink" x="0px" y="0px"
	 width="36px" height="36px" viewBox="0 0 36 36" enable-background="new 0 0 36 36" xml:space="preserve">
<g id="check">
</g>
<g>
	<path d="M6.684,35h22.632c0.132,0,0.395-0.132,0.395-0.395v-4.211c0-0.132-0.132-0.395-0.395-0.395H6.684
		c-0.132,0-0.395,0.132-0.395,0.395v4.211C6.289,34.737,6.421,35,6.684,35z"/>
	<path d="M14.455,3.86C14.21,4.717,8.335,21.117,8.091,21.729c-0.122,0.245,0,0.49,0.122,0.49c0.245,0,3.427,1.346,3.549,1.346
		s0.367-0.122,0.367-0.245s1.346-3.794,1.469-4.161h8.812c0.122,0.367,1.469,4.039,1.469,4.161c0.122,0.245,0.367,0.245,0.49,0.245
		c0.245,0,3.305-1.346,3.549-1.346c0.122-0.122,0.122-0.367,0.122-0.49c-0.122-0.49-6.119-17.134-6.364-17.869
		c-0.612-1.713-1.346-3.427-3.672-3.427S14.944,2.025,14.455,3.86z M21.186,14.998h-6.119l2.937-9.179L21.186,14.998z"/>
</g>
</svg>
