<?xml version="1.0" encoding="utf-8"?>
<!-- Generator: Adobe Illustrator 19.2.1, SVG Export Plug-In . SVG Version: 6.00 Build 0)  -->
<svg version="1.0" id="Layer_2" xmlns="http://www.w3.org/2000/svg" xmlns:xlink="http://www.w3.org/1999/xlink" x="0px" y="0px"
	 width="36px" height="36px" viewBox="0 0 36 36" enable-background="new 0 0 36 36" xml:space="preserve">
<g id="check">
</g>
<g>
	<path fill="#FFFFFF" d="M18,28c4.95,0,7.071-3.939,7.172-7.879c0-2.727-0.909-5.758-2.424-8.283C21.232,9.414,19.515,8,18,8
		s-3.232,1.515-4.747,3.838c-1.515,2.525-2.424,5.556-2.424,8.283C10.828,24.061,13.05,28,18,28z"/>
	<path fill="#FFFFFF" d="M2,30.823C2,32.575,3.426,34,5.178,34h25.645C32.574,34,34,32.575,34,30.823V5.177
		C34,3.455,32.545,2,30.822,2H5.178C3.426,2,2,3.425,2,5.177V30.823z M4,5.177C4,4.528,4.528,4,5.178,4h25.645
		C31.428,4,32,4.572,32,5.177v25.646C32,31.472,31.472,32,30.822,32H5.178C4.528,32,4,31.472,4,30.823V5.177z"/>
</g>
</svg>
