<?xml version="1.0" encoding="utf-8"?>
<!-- Generator: Adobe Illustrator 19.2.1, SVG Export Plug-In . SVG Version: 6.00 Build 0)  -->
<svg version="1.0" id="Layer_2" xmlns="http://www.w3.org/2000/svg" xmlns:xlink="http://www.w3.org/1999/xlink" x="0px" y="0px"
	 width="24px" height="24px" viewBox="0 0 24 24" enable-background="new 0 0 24 24" xml:space="preserve">
<g id="check">
</g>
<g>
	<path d="M17.874,16.061c-0.214-0.071-0.214,0.143-0.143,0.285c0.143,0.357,0.285,0.642,0.357,0.713
		c0.071,0.071,0.214-0.071,0.143-0.428C18.231,16.489,18.088,16.133,17.874,16.061z"/>
	<path d="M16.305,16.775c-0.143,0-0.214,0-0.357,0.071c-0.214,0.143-0.285,0.499-0.071,0.785c0.071,0.143,0.214,0.214,0.357,0.285
		c0.143,0,0.214,0,0.357-0.071c0.214-0.214,0.214-0.571,0-0.856C16.519,16.917,16.447,16.775,16.305,16.775z"/>
	<path d="M19.301,6.004C16.59,1.796,10.884,0.726,6.462,3.65C2.039,6.504,0.684,12.21,3.395,16.275
		c2.211,3.495,7.418,4.494,10.414,3.566c1.141-0.357,4.993-0.713,7.703,2.496c0,0,0.214,0.285,0.357,0.571
		c0,0,0.071,0.143,0.143,0.071c0.071-0.071,0.143-0.143-0.143-0.642c-0.571-1.141-1.641-1.997-2.71-2.639
		c-0.428-0.214-0.856-0.357-1.213-0.499c-0.856-0.285-1.641-0.357-2.71-0.499c-0.785-0.143-1.427-0.499-2.068-0.927
		c-0.357-0.285-0.642-0.571-0.856-0.927c0-0.071-0.214-0.357-0.214-0.428c0,0-0.143,0.642,0.143,1.498
		c-2.782-0.071-5.278-1.641-6.419-3.566C3.751,10.854,4.465,6.575,7.246,4.72s6.99-0.499,9.272,2.853
		c1.427,2.068,1.854,4.565,1.213,6.562c0,0.009-0.005,0.017-0.005,0.026c-1.183-0.785-2.277-0.383-2.277-0.383
		c1.213-0.143,2.14,0.856,2.14,0.856l0.024-0.048l0.404,0.404c0,0.071,0.071,0.071,0.071,0.143c0.285,0.428,0.499,0.927,0.571,1.427
		C21.012,13.494,21.44,9.285,19.301,6.004z"/>
</g>
</svg>
