<?xml version="1.0" encoding="utf-8"?>
<!-- Generator: Adobe Illustrator 19.2.1, SVG Export Plug-In . SVG Version: 6.00 Build 0)  -->
<svg version="1.0" id="art" xmlns="http://www.w3.org/2000/svg" xmlns:xlink="http://www.w3.org/1999/xlink" x="0px" y="0px"
	 width="18px" height="18px" viewBox="0 0 18 18" enable-background="new 0 0 18 18" xml:space="preserve">
<g id="check">
</g>
<path fill="#193163" d="M3.499,8H2.42C2.289,8.332,2.172,8.666,2.071,9h1.047C3.23,8.661,3.358,8.327,3.499,8z"/>
<path fill="#193163" d="M4.594,6H3.409C3.212,6.325,3.031,6.659,2.863,7h1.116C4.169,6.651,4.376,6.319,4.594,6z"/>
<path fill="#193163" d="M6.396,4H4.933c-0.301,0.312-0.59,0.643-0.857,1h1.284C5.688,4.624,6.036,4.288,6.396,4z"/>
<path fill="#193163" d="M14.853,14H6.392c-1.36-1.054-2.393-2.448-3.037-4h-1.1c0.75,2.045,2.105,3.769,3.803,5h10.123
	c-0.296-1.86-1.679-3.686-2.984-5h-1.45C12.369,10.547,14.078,12.162,14.853,14z"/>
<path fill="#193163" d="M14.931,4h1.048c0.109-0.339,0.199-0.675,0.251-1H6.059c-0.397,0.288-0.77,0.63-1.126,1h1.463H14.931z"/>
<path fill="#193163" d="M4.594,6h1.249c0.293-0.37,0.598-0.713,0.918-1h6.587c-0.201,0.349-0.427,0.681-0.661,1h1.225
	c0.208-0.324,0.398-0.659,0.571-1H5.359C5.089,5.307,4.836,5.646,4.594,6z"/>
<path fill="#193163" d="M13.913,6h1.159c0.189-0.329,0.362-0.662,0.516-1h-1.103C14.311,5.341,14.121,5.676,13.913,6z"/>
<path fill="#193163" d="M5.359,5H4.075C3.837,5.318,3.617,5.655,3.409,6h1.186C4.836,5.646,5.089,5.307,5.359,5z"/>
<path fill="#193163" d="M13.349,5H6.762c-0.32,0.287-0.625,0.63-0.918,1h6.844C12.921,5.681,13.147,5.349,13.349,5z"/>
<path fill="#193163" d="M11.178,7.622L10.674,8h1.6c0.307-0.286,0.617-0.625,0.918-1h-1.335C11.626,7.24,11.396,7.458,11.178,7.622z
	"/>
<path fill="#193163" d="M5.145,7H3.979c-0.175,0.323-0.333,0.658-0.48,1h1.094C4.759,7.653,4.948,7.322,5.145,7z"/>
<path fill="#193163" d="M12.274,8h1.385c0.268-0.308,0.526-0.647,0.775-1h-1.242C12.891,7.375,12.581,7.714,12.274,8z"/>
<path fill="#193163" d="M3.979,7H2.863C2.701,7.329,2.553,7.662,2.42,8h1.079C3.646,7.658,3.804,7.323,3.979,7z"/>
<path fill="#193163" d="M4.593,8h6.081l0.504-0.378C11.396,7.458,11.626,7.24,11.857,7H5.145C4.948,7.322,4.759,7.653,4.593,8z"/>
<path fill="#193163" d="M9.205,9.102L10.23,10h1.517c-0.008-0.007-0.021-0.019-0.028-0.026l-0.927-0.812L11.007,9H9.341L9.205,9.102
	z"/>
<path fill="#193163" d="M11.007,9l-0.216,0.162l0.927,0.812c0.008,0.007,0.02,0.018,0.028,0.026h1.45
	c-0.28-0.282-0.697-0.662-1.072-1L11.007,9z"/>
<path fill="#193163" d="M3.043,9.221C3.065,9.146,3.095,9.074,3.119,9H2.071C2.049,9.074,2.021,9.148,2,9.222
	C2.074,9.487,2.162,9.745,2.255,10h1.1C3.248,9.741,3.126,9.488,3.043,9.221z"/>
<path fill="#193163" d="M4.435,10h5.795L9.205,9.102L9.341,9H4C4.075,9.359,4.313,9.742,4.435,10z"/>
</svg>
