<?xml version="1.0" encoding="utf-8"?>
<!-- Generator: Adobe Illustrator 19.2.1, SVG Export Plug-In . SVG Version: 6.00 Build 0)  -->
<svg version="1.0" id="art" xmlns="http://www.w3.org/2000/svg" xmlns:xlink="http://www.w3.org/1999/xlink" x="0px" y="0px"
	 width="18px" height="18px" viewBox="0 0 18 18" enable-background="new 0 0 18 18" xml:space="preserve">
<g id="check">
</g>
<g>
	<path fill="#164A82" d="M4.69,10.875C4.65,9.752,5.773,9.431,5.974,8.669c0.12-0.642,1.203-1.123,1.444-1.605
		c0.16-0.361,0.281-0.642,0.602-0.842c-0.321,0.04-0.642,0.04-0.802-0.16c-0.281,0.08-0.722,0.12-0.802,0.281
		c-0.04,0.12-0.12,0.201-0.16,0.281c-0.16,0.04-0.281,0-0.321-0.08c0-0.08,0-0.16,0.04-0.281c-0.12,0.08-0.201,0.12-0.281,0.16
		c-0.12-0.16-0.16-0.16-0.321-0.281c0-0.12-0.04-0.321-0.04-0.441c0.04-0.16,0.12-0.241,0.201-0.241c0.16,0,0.321-0.08,0.441-0.16
		c0.201-0.401,0.802-0.562,0.963-1.003c0.12,0,0.281,0,0.401-0.04c-0.12-0.281-0.16-0.481-0.08-0.642
		c0.16,0.12,0.281,0.201,0.441,0.321C7.98,4.016,8.3,4.136,8.581,4.216c0.481-0.08,0.882-0.08,0.802,0.602
		c0.16,0.201,0.321,0.281,0.481,0.281c0.04,0.321,0.08,0.682,0.08,1.003c0.241,0.321,0.16,0.562,0,0.762
		c0.12,0.602-0.04,0.923-0.361,1.163c0.241,0.521-0.12,0.802-0.401,1.123c0.08,0.722-0.16,1.003-0.602,1.163
		c0.481,0.642,1.123,0.882,2.006,0.241c0-0.682,0.481-0.562,0.722-0.361c0.321-0.401,0.882-0.963,1.484-1.444
		c-0.201-1.203,0-2.166-1.324-2.407c-0.08,0.201-0.241,0.321-0.401,0.401c-0.361-0.281-0.762-0.521-1.123-0.802
		c0.481-0.361,1.003-0.521,1.524-0.642c0.04,0.16,0.04,0.281,0,0.441c1.564,0.401,1.645,0.762,2.046,2.487
		c1.123-0.642,2.367-0.882,3.249,0.321c1.123,2.848-2.086,2.968-2.928,2.166l-0.08-0.08l-0.481,0.722
		c0.16,0.201,0.441,0.16,0.682,0.361c-0.602,0.562-1.444,0.361-1.765,0.762c-2.286,2.728-7.26,2.688-8.103-1.163
		c-0.08-0.16-0.16-0.281-0.281-0.321c-0.321,0.281-0.401,1.003-0.802,1.444c-0.16,0.04-0.361,0-0.481-0.08
		c0.16,0.361-0.08,0.361-0.281,0.401c-0.321,0.08-0.642,0.08-0.963,0C1.201,12.72,1.08,12.64,1,12.6c0-0.08,0-0.16,0.04-0.241
		c0.602-0.762,1.404-0.562,1.765-1.484h0.401c0-0.201,0-0.361,0.04-0.602l0.241-0.241c0.16-0.08,0.361-0.08,0.562-0.04
		C4.289,10.273,4.49,10.554,4.69,10.875L4.69,10.875z M14.398,9.912c0.642,0.361,1.484,0.241,1.444-0.401
		C15.481,8.829,14.839,9.351,14.398,9.912L14.398,9.912z"/>
</g>
</svg>
