<?xml version="1.0" encoding="utf-8"?>
<!-- Generator: Adobe Illustrator 19.2.1, SVG Export Plug-In . SVG Version: 6.00 Build 0)  -->
<svg version="1.0" id="art" xmlns="http://www.w3.org/2000/svg" xmlns:xlink="http://www.w3.org/1999/xlink" x="0px" y="0px"
	 width="24px" height="24px" viewBox="0 0 24 24" enable-background="new 0 0 24 24" xml:space="preserve">
<g id="check">
</g>
<path fill="#EE3424" d="M12.002,1.26c1.395,0,1.836,1.028,2.203,2.056c0.147,0.441,3.745,10.427,3.819,10.721
	c0,0.073,0,0.22-0.073,0.294c-0.147,0-1.983,0.808-2.13,0.808c-0.073,0-0.22,0-0.294-0.147c0-0.073-0.808-2.276-0.881-2.497H9.359
	c-0.073,0.22-0.881,2.423-0.881,2.497c0,0.073-0.147,0.147-0.22,0.147c-0.073,0-1.983-0.808-2.13-0.808
	c-0.073,0-0.147-0.147-0.073-0.294C6.201,13.67,9.726,3.83,9.873,3.316C10.167,2.215,10.607,1.26,12.002,1.26L12.002,1.26z
	 M5.211,19c-0.079,0-0.237,0.079-0.237,0.237v2.526C4.974,21.842,5.053,22,5.211,22h13.579c0.079,0,0.237-0.079,0.237-0.237v-2.526
	c0-0.079-0.079-0.237-0.237-0.237H5.211z M12.002,4.491L10.24,9.999h3.672L12.002,4.491z"/>
</svg>
