<?xml version="1.0" encoding="utf-8"?>
<!-- Generator: Adobe Illustrator 19.2.1, SVG Export Plug-In . SVG Version: 6.00 Build 0)  -->
<svg version="1.0" id="art" xmlns="http://www.w3.org/2000/svg" xmlns:xlink="http://www.w3.org/1999/xlink" x="0px" y="0px"
	 width="30px" height="30px" viewBox="0 0 30 30" enable-background="new 0 0 30 30" xml:space="preserve">
<g id="check">
</g>
<g>
	<path fill="#E9883C" d="M21.655,25.155v-0.394l0.197,0.296L21.655,25.155z M21.655,22.197v-0.789l0.394,0.394L21.655,22.197z
		 M21.655,19.93v-0.887l0.592-1.085l1.676,0.986l-0.986,1.676L21.655,19.93L21.655,19.93z M21.655,10.958V10.07l1.282-0.789
		l0.986,1.676l-1.676,0.986L21.655,10.958L21.655,10.958z M21.655,8.592v-0.69l0.394,0.296L21.655,8.592z M21.655,5.239V4.845
		l0.099,0.099L21.655,5.239z M24.514,4.746L23.43,3.859l-0.887,1.085l1.085,0.887L24.514,4.746z M27.472,8.592l-0.69-1.183
		l-1.183,0.69l0.69,1.183L27.472,8.592z M24.81,7.901l-1.085-1.38l-1.38,1.085l1.085,1.479L24.81,7.901z M27.57,13.521l1.38-0.197
		l-0.296-1.38l-1.38,0.197L27.57,13.521z M22.838,14.606l1.873-0.296l-0.296-1.873l-1.873,0.296L22.838,14.606z M26.585,11.746
		l-0.592-1.676l-1.676,0.592l0.592,1.676L26.585,11.746z M27.57,16.577l-0.197,1.38l1.38,0.197l0.197-1.38L27.57,16.577z
		 M24.711,15.69l-1.873-0.296l-0.296,1.873l1.873,0.296L24.711,15.69z M27.077,14.113h-1.775v1.775h1.775V14.113z M25.599,21.901
		l1.183,0.69l0.69-1.183l-1.183-0.69L25.599,21.901z M26.585,18.352l-1.676-0.592l-0.592,1.676l1.676,0.592L26.585,18.352z
		 M22.542,25.155l0.887,1.085l1.085-0.887l-0.887-1.085L22.542,25.155z M22.345,22.296l1.38,1.085L24.81,22l-1.38-1.085
		L22.345,22.296z M20.373,2.085l-1.282-0.493l-0.493,1.282l1.282,0.493L20.373,2.085z M21.655,4.845v0.394l-0.69,1.282l-1.479-0.887
		l0.789-1.479L21.655,4.845L21.655,4.845z M21.655,7.901V8.69l-0.887,0.986l-1.479-1.282l1.282-1.479L21.655,7.901z M21.655,10.07
		v0.887l-0.394-0.69L21.655,10.07z M21.655,19.141v0.789l-0.394-0.197L21.655,19.141L21.655,19.141z M21.655,21.408v0.789
		l-1.085,0.986l-1.282-1.479l1.479-1.282L21.655,21.408z M21.655,24.761v0.394l-1.38,0.789l-0.887-1.479l1.479-0.887L21.655,24.761z
		 M8.345,25.155v-0.394l0.69-1.282l1.479,0.887l-0.887,1.479L8.345,25.155z M8.345,22.197v-0.789l0.887-1.085l1.479,1.282
		L9.43,23.085L8.345,22.197L8.345,22.197z M8.345,19.93v-0.887l0.394,0.69L8.345,19.93L8.345,19.93z M8.345,10.958V10.07
		l0.394,0.197L8.345,10.958z M8.345,8.592v-0.69L9.43,6.915l1.282,1.479L9.232,9.676L8.345,8.592L8.345,8.592z M8.345,5.239V4.845
		l1.38-0.69l0.887,1.479L9.035,6.521L8.345,5.239L8.345,5.239z M19.19,6.225l-1.873-0.69l-0.69,1.873l1.873,0.69L19.19,6.225z
		 M17.908,3.268l-1.676-0.296l-0.296,1.775l1.676,0.296L17.908,3.268z M11.993,26.732l1.775,0.296l0.296-1.775l-1.775-0.296
		L11.993,26.732z M9.528,27.915l1.282,0.493l0.493-1.282l-1.282-0.493L9.528,27.915z M12.585,24.465l0.69-1.873l-1.873-0.69
		l-0.69,1.873L12.585,24.465z M18.697,27.127l0.493,1.282l1.282-0.493l-0.493-1.282L18.697,27.127z M17.415,24.465l1.873-0.69
		l-0.69-1.873l-1.873,0.69L17.415,24.465z M11.303,2.873L10.81,1.592L9.528,2.085l0.493,1.282L11.303,2.873z M13.176,7.31
		l-0.69-1.873l-1.873,0.69L11.303,8L13.176,7.31z M14.261,29h1.38v-1.38h-1.38V29z M13.965,24.761h1.972v-1.972h-1.972V24.761z
		 M15.937,25.352l0.296,1.775l1.775-0.296l-0.296-1.676L15.937,25.352z M14.063,4.648l-0.296-1.775l-1.775,0.296l0.296,1.775
		L14.063,4.648z M15.641,1h-1.38v1.38h1.38V1z M15.937,5.239h-1.972v1.972h1.972V5.239z M8.345,4.845v0.394L8.148,4.944L8.345,4.845
		z M8.345,7.901V8.69L7.951,8.197L8.345,7.901z M8.345,10.07v0.887l-0.592,1.085l-1.676-0.986L7.063,9.38L8.345,10.07z
		 M8.345,19.141v0.789l-1.282,0.789l-0.986-1.676l1.676-0.986L8.345,19.141L8.345,19.141z M8.345,21.408v0.789l-0.394-0.394
		L8.345,21.408z M8.345,24.761v0.394l-0.197-0.099L8.345,24.761z M5.486,25.352l1.085,0.887l0.887-1.085l-1.085-0.887L5.486,25.352z
		 M5.19,22.099l1.085,1.38l1.38-1.085l-1.085-1.38L5.19,22.099z M2.528,21.408l0.69,1.183l1.085-0.69l-0.69-1.183L2.528,21.408z
		 M5.585,19.338l-0.592-1.577l-1.676,0.592l0.592,1.577L5.585,19.338z M2.43,16.577l-1.38,0.197l0.197,1.38l1.38-0.197L2.43,16.577z
		 M7.162,15.394L5.289,15.69l0.296,1.873l1.873-0.296L7.162,15.394L7.162,15.394z M2.923,15.887h1.775v-1.775H2.923L2.923,15.887z
		 M2.627,12.141l-1.38-0.197l-0.197,1.282l1.38,0.197L2.627,12.141z M5.19,14.31l1.873,0.296l0.296-1.873l-1.873-0.296L5.19,14.31z
		 M3.317,11.746l1.676,0.592l0.592-1.676L3.908,10.07L3.317,11.746z M4.303,8.099l-1.085-0.69l-0.69,1.183l1.183,0.69L4.303,8.099z
		 M7.655,7.704L6.275,6.62L5.19,7.901l1.282,1.183L7.655,7.704z M7.359,4.845L6.472,3.859L5.486,4.746l0.887,1.085L7.359,4.845z"/>
</g>
</svg>
