<?xml version="1.0" encoding="utf-8"?>
<!-- Generator: Adobe Illustrator 19.2.1, SVG Export Plug-In . SVG Version: 6.00 Build 0)  -->
<svg version="1.0" id="art" xmlns="http://www.w3.org/2000/svg" xmlns:xlink="http://www.w3.org/1999/xlink" x="0px" y="0px"
	 width="18px" height="18px" viewBox="0 0 18 18" enable-background="new 0 0 18 18" xml:space="preserve">
<g id="check">
</g>
<path fill="#04713D" d="M15.728,4.444c-0.141-0.203-0.291-0.4-0.45-0.589L5.5,9.5L1.386,7.125C1.322,7.391,1.272,7.662,1.235,7.938
	l4.265,2.5L15.728,4.444z"/>
<path fill="#04713D" d="M14.57,3.122c-0.247-0.228-0.506-0.441-0.781-0.636L5.5,7.272l-3.429-1.98
	c-0.152,0.29-0.283,0.592-0.399,0.902L5.5,8.437L14.57,3.122z"/>
<path fill="#04713D" d="M12.844,1.905c-0.276-0.144-0.562-0.268-0.856-0.38L5.5,5.272L3.038,3.85
	C2.867,4.053,2.706,4.264,2.555,4.483L5.5,6.209L12.844,1.905z"/>
<path fill="#04713D" d="M16.244,5.297L5.5,11.5L1.157,8.992c0,0.003,0,0.005,0,0.008c0,4.418,3.582,8,8,8s8-3.582,8-8
	C17.156,7.663,16.824,6.405,16.244,5.297z"/>
</svg>
