<?xml version="1.0" encoding="utf-8"?>
<!-- Generator: Adobe Illustrator 19.2.1, SVG Export Plug-In . SVG Version: 6.00 Build 0)  -->
<svg version="1.0" id="art" xmlns="http://www.w3.org/2000/svg" xmlns:xlink="http://www.w3.org/1999/xlink" x="0px" y="0px"
	 width="24px" height="24px" viewBox="0 0 24 24" enable-background="new 0 0 24 24" xml:space="preserve">
<g id="check">
</g>
<g>
	<path fill="#164A82" d="M6.074,14.578c-0.055-1.544,1.489-1.986,1.765-3.034C8.005,10.662,9.494,10,9.825,9.338
		c0.221-0.496,0.386-0.882,0.827-1.158C10.211,8.235,9.77,8.235,9.549,7.959C9.163,8.07,8.556,8.125,8.446,8.346
		C8.391,8.511,8.28,8.621,8.225,8.732c-0.221,0.055-0.386,0-0.441-0.11c0-0.11,0-0.221,0.055-0.386
		c-0.165,0.11-0.276,0.165-0.386,0.221C7.288,8.235,7.232,8.235,7.012,8.07c0-0.165-0.055-0.441-0.055-0.607
		c0.055-0.221,0.165-0.331,0.276-0.331c0.221,0,0.441-0.11,0.607-0.221C8.115,6.36,8.942,6.139,9.163,5.533
		c0.165,0,0.386,0,0.552-0.055c-0.165-0.386-0.221-0.662-0.11-0.882C9.825,4.76,9.99,4.871,10.211,5.036
		c0.386,0.11,0.827,0.276,1.213,0.386c0.662-0.11,1.213-0.11,1.103,0.827c0.221,0.276,0.441,0.386,0.662,0.386
		c0.055,0.441,0.11,0.938,0.11,1.379c0.331,0.441,0.221,0.772,0,1.048c0.165,0.827-0.055,1.269-0.496,1.599
		c0.331,0.717-0.165,1.103-0.552,1.544c0.11,0.993-0.221,1.379-0.827,1.599c0.662,0.882,1.544,1.213,2.758,0.331
		c0-0.938,0.662-0.772,0.993-0.496c0.441-0.552,1.213-1.324,2.041-1.986c-0.276-1.655,0-2.978-1.82-3.309
		c-0.11,0.276-0.331,0.441-0.552,0.552C14.347,8.511,13.796,8.18,13.3,7.794c0.662-0.496,1.379-0.717,2.096-0.882
		c0.055,0.221,0.055,0.386,0,0.607c2.151,0.552,2.261,1.048,2.813,3.42c1.544-0.882,3.254-1.213,4.468,0.441
		c1.544,3.916-2.868,4.081-4.026,2.978l-0.11-0.11l-0.662,0.993c0.221,0.276,0.607,0.221,0.938,0.496
		c-0.827,0.772-1.986,0.496-2.427,1.048c-3.144,3.751-9.983,3.695-11.141-1.599c-0.11-0.221-0.221-0.386-0.386-0.441
		c-0.441,0.386-0.552,1.379-1.103,1.986c-0.221,0.055-0.496,0-0.662-0.11c0.221,0.496-0.11,0.496-0.386,0.552
		c-0.441,0.11-0.882,0.11-1.324,0C1.276,17.115,1.11,17.005,1,16.95c0-0.11,0-0.221,0.055-0.331c0.827-1.048,1.93-0.772,2.427-2.041
		h0.552c0-0.276,0-0.496,0.055-0.827L4.42,13.42c0.221-0.11,0.496-0.11,0.772-0.055C5.523,13.751,5.798,14.137,6.074,14.578
		L6.074,14.578z M19.422,13.254c0.882,0.496,2.041,0.331,1.986-0.552C20.911,11.765,20.028,12.482,19.422,13.254L19.422,13.254z"/>
</g>
</svg>
