<?xml version="1.0" encoding="utf-8"?>
<!-- Generator: Adobe Illustrator 19.2.1, SVG Export Plug-In . SVG Version: 6.00 Build 0)  -->
<svg version="1.0" id="Layer_2" xmlns="http://www.w3.org/2000/svg" xmlns:xlink="http://www.w3.org/1999/xlink" x="0px" y="0px"
	 width="36px" height="36px" viewBox="0 0 36 36" enable-background="new 0 0 36 36" xml:space="preserve">
<g id="check">
</g>
<g>
	<path fill="#FFFFFF" d="M36,6H0v22h36V6z M35,27H1V7h34V27z"/>
	<path fill="#FFFFFF" d="M29,25h4V10.453l-4-1.464L23,10.5V24H3v1h20H29z M32,11.152V24h-3V10.054L32,11.152z"/>
	<polygon fill="#FFFFFF" points="3.594,16.706 4.689,16.706 4.689,18 5.283,18 5.283,15 4.689,15 4.689,16.151 3.594,16.151 
		3.594,15 3,15 3,18 3.594,18 	"/>
	<path fill="#FFFFFF" d="M6.4,17.547c0.128,0.141,0.287,0.252,0.474,0.333C7.062,17.96,7.274,18,7.509,18
		c0.238,0,0.45-0.04,0.636-0.121c0.186-0.081,0.344-0.191,0.474-0.333c0.128-0.141,0.228-0.307,0.296-0.498s0.103-0.396,0.103-0.617
		c0-0.226-0.034-0.436-0.103-0.629c-0.069-0.193-0.168-0.362-0.296-0.506c-0.129-0.144-0.287-0.257-0.474-0.339
		c-0.186-0.082-0.398-0.123-0.636-0.123c-0.235,0-0.447,0.041-0.635,0.123C6.687,15.04,6.528,15.153,6.4,15.297
		c-0.129,0.144-0.228,0.313-0.297,0.506C6.034,15.996,6,16.206,6,16.432c0,0.221,0.034,0.426,0.102,0.617
		C6.171,17.239,6.27,17.405,6.4,17.547z M6.72,16.047c0.03-0.124,0.078-0.235,0.144-0.333c0.065-0.097,0.152-0.175,0.258-0.233
		c0.106-0.058,0.235-0.087,0.387-0.087c0.152,0,0.28,0.029,0.386,0.087c0.107,0.058,0.192,0.136,0.259,0.233
		c0.066,0.098,0.113,0.208,0.144,0.333c0.03,0.125,0.045,0.253,0.045,0.386c0,0.127-0.015,0.251-0.045,0.371
		s-0.078,0.228-0.144,0.324c-0.066,0.096-0.152,0.173-0.259,0.231c-0.106,0.058-0.234,0.087-0.386,0.087
		c-0.152,0-0.281-0.029-0.387-0.087C7.016,17.3,6.93,17.223,6.864,17.127c-0.066-0.096-0.114-0.204-0.144-0.324
		c-0.03-0.12-0.045-0.244-0.045-0.371C6.674,16.299,6.689,16.171,6.72,16.047z"/>
	<polygon fill="#FFFFFF" points="10.091,15.891 10.099,15.891 10.792,17.986 11.271,17.986 11.964,15.87 11.971,15.87 
		11.971,17.986 12.553,17.986 12.553,15 11.678,15 11.053,17.053 11.045,17.053 10.384,15 9.509,15 9.509,17.986 10.091,17.986 	"/>
	<polygon fill="#FFFFFF" points="15.598,17.434 13.976,17.434 13.976,16.702 15.434,16.702 15.434,16.192 13.976,16.192 
		13.976,15.552 15.564,15.552 15.564,15 13.314,15 13.314,17.986 15.598,17.986 	"/>
	<path fill="#FFFFFF" d="M3.377,21.547c0.121,0.141,0.271,0.252,0.448,0.333C4.003,21.96,4.203,22,4.425,22
		c0.178,0,0.342-0.028,0.491-0.085c0.149-0.056,0.279-0.138,0.39-0.246c0.111-0.107,0.2-0.237,0.268-0.39
		c0.067-0.153,0.109-0.324,0.125-0.513H5.082c-0.025,0.204-0.091,0.367-0.201,0.492c-0.11,0.124-0.262,0.186-0.457,0.186
		c-0.143,0-0.266-0.029-0.365-0.087c-0.1-0.057-0.182-0.134-0.243-0.231c-0.063-0.096-0.108-0.204-0.136-0.324
		c-0.029-0.12-0.043-0.244-0.043-0.371c0-0.133,0.014-0.261,0.043-0.386c0.029-0.124,0.074-0.235,0.136-0.333
		c0.062-0.097,0.143-0.175,0.243-0.233s0.222-0.087,0.365-0.087c0.078,0,0.153,0.014,0.225,0.041
		c0.071,0.026,0.136,0.064,0.193,0.112c0.057,0.048,0.104,0.104,0.142,0.167c0.038,0.064,0.063,0.134,0.073,0.21h0.618
		c-0.019-0.175-0.065-0.33-0.138-0.466c-0.074-0.136-0.167-0.25-0.278-0.341c-0.113-0.092-0.239-0.162-0.381-0.21
		c-0.143-0.048-0.293-0.072-0.453-0.072c-0.222,0-0.422,0.041-0.599,0.123c-0.177,0.082-0.327,0.195-0.448,0.339
		c-0.122,0.144-0.216,0.313-0.281,0.506C3.033,19.996,3,20.206,3,20.432c0,0.221,0.033,0.426,0.097,0.617
		C3.162,21.239,3.255,21.405,3.377,21.547z"/>
	<path fill="#FFFFFF" d="M6.67,20.828h0.67c0.167,0,0.288,0.037,0.362,0.109c0.074,0.073,0.122,0.188,0.145,0.345
		c0.018,0.121,0.03,0.247,0.038,0.378c0.009,0.132,0.032,0.245,0.068,0.34h0.67c-0.032-0.042-0.055-0.093-0.07-0.153
		c-0.016-0.06-0.027-0.124-0.034-0.191c-0.007-0.067-0.012-0.133-0.015-0.197c-0.003-0.064-0.006-0.12-0.009-0.168
		c-0.005-0.076-0.016-0.151-0.032-0.227c-0.016-0.076-0.041-0.145-0.075-0.208c-0.033-0.063-0.077-0.118-0.132-0.164
		c-0.054-0.046-0.122-0.08-0.205-0.103V20.58c0.171-0.067,0.293-0.165,0.369-0.294c0.075-0.129,0.113-0.281,0.113-0.458
		c0-0.115-0.021-0.222-0.062-0.321c-0.041-0.1-0.101-0.187-0.179-0.263c-0.078-0.076-0.172-0.135-0.281-0.179
		C7.901,19.022,7.778,19,7.641,19H6v3h0.67V20.828z M6.67,19.513h0.734c0.153,0,0.268,0.033,0.345,0.099
		c0.077,0.066,0.116,0.172,0.116,0.317c0,0.151-0.038,0.261-0.116,0.327c-0.077,0.067-0.192,0.101-0.345,0.101H6.67V19.513z"/>
	<polygon fill="#FFFFFF" points="11.879,19.554 11.879,19 9.602,19 9.602,22 11.913,22 11.913,21.445 10.271,21.445 10.271,20.71 
		11.747,20.71 11.747,20.197 10.271,20.197 10.271,19.554 	"/>
	<path fill="#FFFFFF" d="M14.567,21.884c0.172-0.077,0.316-0.183,0.431-0.317c0.115-0.134,0.201-0.294,0.258-0.479
		c0.057-0.185,0.085-0.387,0.085-0.605c0-0.249-0.035-0.466-0.104-0.651c-0.07-0.185-0.167-0.339-0.29-0.462
		c-0.124-0.123-0.271-0.216-0.44-0.277C14.338,19.031,14.156,19,13.959,19h-1.313v3h1.313C14.193,22,14.395,21.961,14.567,21.884z
		 M13.316,21.445v-1.891h0.478c0.164,0,0.303,0.023,0.416,0.069c0.112,0.046,0.202,0.113,0.271,0.2
		c0.068,0.087,0.117,0.191,0.147,0.313c0.029,0.122,0.044,0.258,0.044,0.409c0,0.165-0.021,0.305-0.064,0.42
		c-0.042,0.115-0.099,0.208-0.17,0.279c-0.072,0.071-0.152,0.123-0.243,0.153c-0.091,0.031-0.185,0.046-0.281,0.046H13.316z"/>
	<rect x="16" y="19" fill="#FFFFFF" width="0.67" height="3"/>
	<polygon fill="#FFFFFF" points="18.124,22 18.794,22 18.794,19.554 19.707,19.554 19.707,19 17.212,19 17.212,19.554 
		18.124,19.554 	"/>
</g>
</svg>
