<?xml version="1.0" encoding="utf-8"?>
<!-- Generator: Adobe Illustrator 19.2.1, SVG Export Plug-In . SVG Version: 6.00 Build 0)  -->
<svg version="1.0" id="art" xmlns="http://www.w3.org/2000/svg" xmlns:xlink="http://www.w3.org/1999/xlink" x="0px" y="0px"
	 width="36px" height="36px" viewBox="0 0 36 36" enable-background="new 0 0 36 36" xml:space="preserve">
<g id="check">
</g>
<rect y="7" fill="#CD1232" width="36" height="21"/>
<path fill="#FFFFFF" d="M29,9.989L23,11.5V25H3v1h20h6h4V11.453L29,9.989z M32,25h-3V11.054l3,1.098V25z"/>
<polygon fill="#FFFFFF" points="3.594,17.706 4.689,17.706 4.689,19 5.283,19 5.283,16 4.689,16 4.689,17.151 3.594,17.151 
	3.594,16 3,16 3,19 3.594,19 "/>
<path fill="#FFFFFF" d="M6.4,18.547c0.128,0.141,0.287,0.252,0.474,0.333C7.062,18.96,7.274,19,7.509,19
	c0.238,0,0.45-0.04,0.636-0.121c0.186-0.081,0.344-0.191,0.474-0.333c0.128-0.141,0.228-0.307,0.296-0.498s0.103-0.396,0.103-0.617
	c0-0.226-0.034-0.436-0.103-0.629c-0.069-0.193-0.168-0.362-0.296-0.506c-0.129-0.144-0.287-0.257-0.474-0.339
	c-0.186-0.082-0.398-0.123-0.636-0.123c-0.235,0-0.447,0.041-0.635,0.123C6.687,16.04,6.528,16.153,6.4,16.297
	c-0.129,0.144-0.228,0.313-0.297,0.506C6.034,16.996,6,17.206,6,17.432c0,0.221,0.034,0.426,0.102,0.617
	C6.171,18.239,6.27,18.405,6.4,18.547z M6.72,17.047c0.03-0.124,0.078-0.235,0.144-0.333c0.065-0.097,0.152-0.175,0.258-0.233
	c0.106-0.058,0.235-0.087,0.387-0.087c0.152,0,0.28,0.029,0.386,0.087c0.107,0.058,0.192,0.136,0.259,0.233
	c0.066,0.098,0.113,0.208,0.144,0.333c0.03,0.125,0.045,0.253,0.045,0.386c0,0.127-0.015,0.251-0.045,0.371
	s-0.078,0.228-0.144,0.324c-0.066,0.096-0.152,0.173-0.259,0.231c-0.106,0.058-0.234,0.087-0.386,0.087
	c-0.152,0-0.281-0.029-0.387-0.087C7.016,18.3,6.93,18.223,6.864,18.127c-0.066-0.096-0.114-0.204-0.144-0.324
	c-0.03-0.12-0.045-0.244-0.045-0.371C6.674,17.299,6.689,17.171,6.72,17.047z"/>
<polygon fill="#FFFFFF" points="10.091,16.891 10.099,16.891 10.792,18.986 11.271,18.986 11.964,16.87 11.971,16.87 11.971,18.986 
	12.553,18.986 12.553,16 11.678,16 11.053,18.053 11.045,18.053 10.384,16 9.509,16 9.509,18.986 10.091,18.986 "/>
<polygon fill="#FFFFFF" points="15.598,18.434 13.976,18.434 13.976,17.702 15.434,17.702 15.434,17.192 13.976,17.192 
	13.976,16.552 15.564,16.552 15.564,16 13.314,16 13.314,18.986 15.598,18.986 "/>
<path fill="#FFFFFF" d="M3.377,22.547c0.121,0.141,0.271,0.252,0.448,0.333C4.003,22.96,4.203,23,4.425,23
	c0.178,0,0.342-0.028,0.491-0.085c0.149-0.056,0.279-0.138,0.39-0.246c0.111-0.107,0.2-0.237,0.268-0.39
	c0.067-0.153,0.109-0.324,0.125-0.513H5.082c-0.025,0.204-0.091,0.367-0.201,0.492c-0.11,0.124-0.262,0.186-0.457,0.186
	c-0.143,0-0.266-0.029-0.365-0.087c-0.1-0.057-0.182-0.134-0.243-0.231c-0.063-0.096-0.108-0.204-0.136-0.324
	c-0.029-0.12-0.043-0.244-0.043-0.371c0-0.133,0.014-0.261,0.043-0.386c0.029-0.124,0.074-0.235,0.136-0.333
	c0.062-0.097,0.143-0.175,0.243-0.233s0.222-0.087,0.365-0.087c0.078,0,0.153,0.014,0.225,0.041
	c0.071,0.026,0.136,0.064,0.193,0.112c0.057,0.048,0.104,0.104,0.142,0.167c0.038,0.064,0.063,0.134,0.073,0.21h0.618
	c-0.019-0.175-0.065-0.33-0.138-0.466c-0.074-0.136-0.167-0.25-0.278-0.341c-0.113-0.092-0.239-0.162-0.381-0.21
	c-0.143-0.048-0.293-0.072-0.453-0.072c-0.222,0-0.422,0.041-0.599,0.123c-0.177,0.082-0.327,0.195-0.448,0.339
	c-0.122,0.144-0.216,0.313-0.281,0.506C3.033,20.996,3,21.206,3,21.432c0,0.221,0.033,0.426,0.097,0.617
	C3.162,22.239,3.255,22.405,3.377,22.547z"/>
<path fill="#FFFFFF" d="M6.67,21.828h0.67c0.167,0,0.288,0.037,0.362,0.109c0.074,0.073,0.122,0.188,0.145,0.345
	c0.018,0.121,0.03,0.247,0.038,0.378c0.009,0.132,0.032,0.245,0.068,0.34h0.67c-0.032-0.042-0.055-0.093-0.07-0.153
	c-0.016-0.06-0.027-0.124-0.034-0.191c-0.007-0.067-0.012-0.133-0.015-0.197c-0.003-0.064-0.006-0.12-0.009-0.168
	c-0.005-0.076-0.016-0.151-0.032-0.227c-0.016-0.076-0.041-0.145-0.075-0.208c-0.033-0.063-0.077-0.118-0.132-0.164
	c-0.054-0.046-0.122-0.08-0.205-0.103V21.58c0.171-0.067,0.293-0.165,0.369-0.294c0.075-0.129,0.113-0.281,0.113-0.458
	c0-0.115-0.021-0.222-0.062-0.321c-0.041-0.1-0.101-0.187-0.179-0.263c-0.078-0.076-0.172-0.135-0.281-0.179
	C7.901,20.022,7.778,20,7.641,20H6v3h0.67V21.828z M6.67,20.513h0.734c0.153,0,0.268,0.033,0.345,0.099
	c0.077,0.066,0.116,0.172,0.116,0.317c0,0.151-0.038,0.261-0.116,0.327c-0.077,0.067-0.192,0.101-0.345,0.101H6.67V20.513z"/>
<polygon fill="#FFFFFF" points="11.879,20.554 11.879,20 9.602,20 9.602,23 11.913,23 11.913,22.445 10.271,22.445 10.271,21.71 
	11.747,21.71 11.747,21.197 10.271,21.197 10.271,20.554 "/>
<path fill="#FFFFFF" d="M14.567,22.884c0.172-0.077,0.316-0.183,0.431-0.317c0.115-0.134,0.201-0.294,0.258-0.479
	c0.057-0.185,0.085-0.387,0.085-0.605c0-0.249-0.035-0.466-0.104-0.651c-0.07-0.185-0.167-0.339-0.29-0.462
	c-0.124-0.123-0.271-0.216-0.44-0.277C14.338,20.031,14.156,20,13.959,20h-1.313v3h1.313C14.193,23,14.395,22.961,14.567,22.884z
	 M13.316,22.445v-1.891h0.478c0.164,0,0.303,0.023,0.416,0.069c0.112,0.046,0.202,0.113,0.271,0.2
	c0.068,0.087,0.117,0.191,0.147,0.313c0.029,0.122,0.044,0.258,0.044,0.409c0,0.165-0.021,0.305-0.064,0.42
	c-0.042,0.115-0.099,0.208-0.17,0.279c-0.072,0.071-0.152,0.123-0.243,0.153c-0.091,0.031-0.185,0.046-0.281,0.046H13.316z"/>
<rect x="16" y="20" fill="#FFFFFF" width="0.67" height="3"/>
<polygon fill="#FFFFFF" points="18.124,23 18.794,23 18.794,20.554 19.707,20.554 19.707,20 17.212,20 17.212,20.554 18.124,20.554 
	"/>
</svg>
