<?xml version="1.0" encoding="utf-8"?>
<!-- Generator: Adobe Illustrator 19.2.1, SVG Export Plug-In . SVG Version: 6.00 Build 0)  -->
<svg version="1.0" id="art" xmlns="http://www.w3.org/2000/svg" xmlns:xlink="http://www.w3.org/1999/xlink" x="0px" y="0px"
	 width="30px" height="30px" viewBox="0 0 30 30" enable-background="new 0 0 30 30" xml:space="preserve">
<g id="check">
</g>
<path fill="#D4372F" d="M3.887,28C2.846,28,2,27.154,2,26.113V3.887C2,2.846,2.846,2,3.887,2h22.225C27.118,2,28,2.882,28,3.887
	v22.226C28,27.154,27.154,28,26.113,28H3.887z"/>
<g>
	<g>
		<path fill="#FFFFFF" d="M15,23c-3.96,0-5.737-3.152-5.737-6.303c0-2.182,0.727-4.606,1.939-6.626C12.414,8.212,13.788,7,15,7
			s2.586,1.131,3.798,3.071c1.212,2.02,1.939,4.444,1.939,6.626C20.657,19.848,18.96,23,15,23z"/>
	</g>
</g>
</svg>
