<?xml version="1.0" encoding="utf-8"?>
<!-- Generator: Adobe Illustrator 19.2.1, SVG Export Plug-In . SVG Version: 6.00 Build 0)  -->
<svg version="1.0" id="Layer_2" xmlns="http://www.w3.org/2000/svg" xmlns:xlink="http://www.w3.org/1999/xlink" x="0px" y="0px"
	 width="24px" height="24px" viewBox="0 0 24 24" enable-background="new 0 0 24 24" xml:space="preserve">
<g id="check">
</g>
<g>
	<rect x="11.125" y="4.125" fill="#FFFFFF" width="1.75" height="1.75"/>
	<rect x="11.5" y="0.5" fill="#FFFFFF" width="1" height="1"/>
	<rect x="7.29" y="1.337" transform="matrix(0.9239 -0.3827 0.3827 0.9239 -0.1101 3.1212)" fill="#FFFFFF" width="1" height="1"/>
	<rect x="3.722" y="3.722" transform="matrix(0.7071 -0.7071 0.7071 0.7071 -1.7487 4.2218)" fill="#FFFFFF" width="1" height="1"/>
	<rect x="1.337" y="7.29" transform="matrix(0.3827 -0.9239 0.9239 0.3827 -6.0632 6.5066)" fill="#FFFFFF" width="1" height="1"/>
	<rect x="0.5" y="11.5" fill="#FFFFFF" width="1" height="1"/>
	<rect x="1.337" y="15.709" transform="matrix(0.9239 -0.3827 0.3827 0.9239 -6.0633 1.937)" fill="#FFFFFF" width="1" height="1"/>
	
		<rect x="3.722" y="19.278" transform="matrix(0.7071 -0.7071 0.7071 0.7071 -12.7482 8.7774)" fill="#FFFFFF" width="1" height="1"/>
	
		<rect x="7.291" y="21.663" transform="matrix(0.3827 -0.9239 0.9239 0.3827 -15.6664 20.8788)" fill="#FFFFFF" width="1" height="1"/>
	<rect x="11.5" y="22.5" fill="#FFFFFF" width="1" height="1"/>
	
		<rect x="15.709" y="21.663" transform="matrix(0.9239 -0.3827 0.3827 0.9239 -7.2478 7.8908)" fill="#FFFFFF" width="1" height="1"/>
	
		<rect x="19.278" y="19.278" transform="matrix(0.7071 -0.7071 0.7071 0.7071 -8.1924 19.7794)" fill="#FFFFFF" width="1" height="1"/>
	
		<rect x="21.663" y="15.709" transform="matrix(0.3827 -0.9239 0.9239 0.3827 -1.2943 30.482)" fill="#FFFFFF" width="1" height="1"/>
	<rect x="22.5" y="11.5" fill="#FFFFFF" width="1" height="1"/>
	<rect x="21.663" y="7.29" transform="matrix(0.9239 -0.3827 0.3827 0.9239 -1.2942 9.0744)" fill="#FFFFFF" width="1" height="1"/>
	
		<rect x="19.278" y="3.722" transform="matrix(0.7071 -0.7071 0.7071 0.7071 2.8076 15.2218)" fill="#FFFFFF" width="1" height="1"/>
	
		<rect x="15.709" y="1.337" transform="matrix(0.3827 -0.9239 0.9239 0.3827 8.3089 16.1098)" fill="#FFFFFF" width="1" height="1"/>
	
		<rect x="9.494" y="2.423" transform="matrix(0.9808 -0.1951 0.1951 0.9808 -0.4221 2.0597)" fill="#FFFFFF" width="1.5" height="1.5"/>
	
		<rect x="6.25" y="3.767" transform="matrix(0.8315 -0.5556 0.5556 0.8315 -1.3296 4.6502)" fill="#FFFFFF" width="1.5" height="1.5"/>
	
		<rect x="3.767" y="6.25" transform="matrix(0.5556 -0.8315 0.8315 0.5556 -3.8128 6.8662)" fill="#FFFFFF" width="1.5" height="1.5"/>
	
		<rect x="2.423" y="9.494" transform="matrix(0.1951 -0.9808 0.9808 0.1951 -7.4935 11.3576)" fill="#FFFFFF" width="1.5" height="1.5"/>
	
		<rect x="2.423" y="13.006" transform="matrix(0.9808 -0.1951 0.1951 0.9808 -2.6224 0.8832)" fill="#FFFFFF" width="1.5" height="1.5"/>
	
		<rect x="3.767" y="16.25" transform="matrix(0.8315 -0.5556 0.5556 0.8315 -8.6834 5.3741)" fill="#FFFFFF" width="1.5" height="1.5"/>
	
		<rect x="6.25" y="18.733" transform="matrix(0.5556 -0.8315 0.8315 0.5556 -13.089 14.4795)" fill="#FFFFFF" width="1.5" height="1.5"/>
	
		<rect x="9.494" y="20.077" transform="matrix(0.1951 -0.9808 0.9808 0.1951 -12.1816 26.8108)" fill="#FFFFFF" width="1.5" height="1.5"/>
	
		<rect x="13.006" y="20.077" transform="matrix(0.9808 -0.1951 0.1951 0.9808 -3.7992 3.0841)" fill="#FFFFFF" width="1.5" height="1.5"/>
	
		<rect x="16.25" y="18.733" transform="matrix(0.8315 -0.5556 0.5556 0.8315 -7.9592 12.7279)" fill="#FFFFFF" width="1.5" height="1.5"/>
	
		<rect x="18.733" y="16.25" transform="matrix(0.5556 -0.8315 0.8315 0.5556 -5.4763 23.7549)" fill="#FFFFFF" width="1.5" height="1.5"/>
	
		<rect x="20.077" y="13.006" transform="matrix(0.1951 -0.9808 0.9808 0.1951 3.2723 31.499)" fill="#FFFFFF" width="1.5" height="1.5"/>
	
		<rect x="20.077" y="9.494" transform="matrix(0.9808 -0.1951 0.1951 0.9808 -1.5984 4.2604)" fill="#FFFFFF" width="1.5" height="1.5"/>
	
		<rect x="18.733" y="6.25" transform="matrix(0.8315 -0.5556 0.5556 0.8315 -0.6052 12.0044)" fill="#FFFFFF" width="1.5" height="1.5"/>
	
		<rect x="16.25" y="3.767" transform="matrix(0.5556 -0.8315 0.8315 0.5556 3.7998 16.1423)" fill="#FFFFFF" width="1.5" height="1.5"/>
	
		<rect x="13.006" y="2.423" transform="matrix(0.1951 -0.9808 0.9808 0.1951 7.9606 16.0454)" fill="#FFFFFF" width="1.5" height="1.5"/>
	<rect x="11.125" y="18.125" fill="#FFFFFF" width="1.75" height="1.75"/>
	
		<rect x="8.417" y="4.628" transform="matrix(0.9239 -0.3827 0.3827 0.9239 -1.4078 3.9883)" fill="#FFFFFF" width="1.809" height="1.809"/>
	
		<rect x="13.774" y="17.563" transform="matrix(0.9239 -0.3827 0.3827 0.9239 -5.9498 7.0231)" fill="#FFFFFF" width="1.809" height="1.809"/>
	
		<rect x="6.139" y="6.139" transform="matrix(0.7071 -0.7071 0.7071 0.7071 -2.9203 7.0504)" fill="#FFFFFF" width="1.823" height="1.823"/>
	
		<rect x="16.038" y="16.038" transform="matrix(0.7071 -0.7071 0.7071 0.7071 -7.0208 16.9498)" fill="#FFFFFF" width="1.823" height="1.823"/>
	
		<rect x="4.63" y="8.418" transform="matrix(0.3827 -0.9239 0.9239 0.3827 -5.1962 10.8657)" fill="#FFFFFF" width="1.806" height="1.806"/>
	
		<rect x="17.563" y="13.774" transform="matrix(0.3827 -0.9239 0.9239 0.3827 -2.1612 26.1232)" fill="#FFFFFF" width="1.809" height="1.809"/>
	<rect x="4.125" y="11.125" fill="#FFFFFF" width="1.75" height="1.75"/>
	<rect x="18.125" y="11.125" fill="#FFFFFF" width="1.75" height="1.75"/>
	
		<rect x="4.628" y="13.774" transform="matrix(0.9239 -0.3827 0.3827 0.9239 -5.1961 3.2346)" fill="#FFFFFF" width="1.809" height="1.809"/>
	
		<rect x="17.563" y="8.417" transform="matrix(0.9239 -0.3827 0.3827 0.9239 -2.1613 7.7764)" fill="#FFFFFF" width="1.809" height="1.809"/>
	
		<rect x="6.139" y="16.038" transform="matrix(0.7071 -0.7071 0.7071 0.7071 -9.9203 9.9497)" fill="#FFFFFF" width="1.823" height="1.823"/>
	
		<rect x="16.038" y="6.139" transform="matrix(0.7071 -0.7071 0.7071 0.7071 -0.0209 14.0499)" fill="#FFFFFF" width="1.823" height="1.823"/>
	
		<rect x="8.417" y="17.563" transform="matrix(0.3827 -0.9239 0.9239 0.3827 -11.3073 20.0117)" fill="#FFFFFF" width="1.809" height="1.809"/>
	
		<rect x="13.774" y="4.628" transform="matrix(0.3827 -0.9239 0.9239 0.3827 3.9498 16.9769)" fill="#FFFFFF" width="1.809" height="1.809"/>
</g>
</svg>
