<?xml version="1.0" encoding="utf-8"?>
<!-- Generator: Adobe Illustrator 19.2.1, SVG Export Plug-In . SVG Version: 6.00 Build 0)  -->
<svg version="1.0" id="Layer_2" xmlns="http://www.w3.org/2000/svg" xmlns:xlink="http://www.w3.org/1999/xlink" x="0px" y="0px"
	 width="24px" height="24px" viewBox="0 0 24 24" enable-background="new 0 0 24 24" xml:space="preserve">
<g id="check">
</g>
<g>
	<path fill="#FFFFFF" d="M3.858,19.442c-0.07,0.104-0.114,0.171-0.122,0.187c-0.234,0.351-0.585,0.702-0.234,1.053
		s0.936-0.234,1.17-0.351c0.01-0.01,0.033-0.029,0.053-0.046c0.537,0.47,1.106,0.908,1.736,1.272C8.035,22.487,10.001,23,12,23
		c1.982,0,3.844-0.484,5.537-1.442c3.416-1.974,5.538-5.636,5.538-9.558c0-2.06-0.597-4.04-1.648-5.75
		c0.349-0.37,0.567-0.675,0.567-0.898c0-0.468,0.234-1.053-1.99-1.287c-0.112-0.012-0.238-0.021-0.366-0.029
		c-0.632-0.604-1.33-1.149-2.106-1.597C13.783,0.483,9.706,0.564,6.384,2.444C2.966,4.542,0.925,8.115,0.925,12
		C0.925,14.787,2.013,17.43,3.858,19.442z M22.075,12c0,3.565-1.93,6.896-5.034,8.689C15.504,21.56,13.808,22,12,22
		c-1.822,0-3.608-0.463-5.034-1.306c-0.517-0.299-0.988-0.653-1.436-1.031c1.161-0.876,3.152-2.339,3.824-2.843
		c0.936-0.702,5.5-4.681,7.022-5.968c1.521-1.287,3.511-3.16,3.511-3.16c0.289-0.26,0.564-0.506,0.814-0.736
		C21.583,8.467,22.075,10.202,22.075,12z M6.892,3.306C8.424,2.439,10.118,2,11.925,2c1.728,0,3.458,0.446,5.125,1.314
		c0.36,0.208,0.7,0.441,1.026,0.688c-2.581,0.022-6.072,0.322-6.616,0.413c-0.702,0.117-0.702,0.819-0.468,0.936
		c0.234,0.234,1.287,0.819,1.638,1.053c0.351,0.117,0.234,0.351,0.234,0.585c-0.117,0.117-1.404,1.755-1.404,1.755
		c-0.476,0.476-5.204,7.215-7.02,9.846C2.857,16.783,1.925,14.454,1.925,12C1.925,8.465,3.788,5.211,6.892,3.306z"/>
</g>
</svg>
