<?xml version="1.0" encoding="utf-8"?>
<!-- Generator: Adobe Illustrator 19.2.1, SVG Export Plug-In . SVG Version: 6.00 Build 0)  -->
<svg version="1.0" id="art" xmlns="http://www.w3.org/2000/svg" xmlns:xlink="http://www.w3.org/1999/xlink" x="0px" y="0px"
	 width="30px" height="30px" viewBox="0 0 30 30" enable-background="new 0 0 30 30" xml:space="preserve">
<g id="check">
</g>
<g>
	<path fill="#184A81" d="M15.67,12.727c-4.5,0-8.318,3.068-8.318,7.091c0,1.227,0.409,2.523,1.159,3.682
		c2.114-1.977,4.023-5.659,4.705-9.886c0.068,0,0.682-0.205,1.227-0.205c0,0.614-0.545,9.818-3.75,13.159
		C8.307,24.932,6.602,22.136,6.602,19c0-4.364,3-7.909,7.023-8.795c0.205-2.864,0.205-4.091,0.205-5.523h0.682
		c0,0,0,4.091-0.068,5.386c0.273,0,0.477-0.068,0.75-0.068V1h0.614v9c0.273,0,0.477,0,0.75,0.068c0-1.295-0.068-5.386-0.068-5.386
		h0.682c0,1.432,0,2.591,0.205,5.523c4.091,0.886,7.023,4.5,7.023,8.795c0,3.136-1.568,5.932-4.091,7.5
		c-3.273-3.273-3.75-12.545-3.75-13.159c0.477,0,1.091,0.205,1.227,0.205c0.682,4.364,2.523,7.909,4.705,9.886
		c0.818-1.159,1.159-2.455,1.159-3.682C23.92,15.795,20.102,12.727,15.67,12.727 M12.807,27.591c1.295-2.25,2.045-6.614,2.318-14.25
		h0.955c0.273,7.636,1.023,12,2.318,14.25C17.511,27.864,16.557,28,15.602,28S13.693,27.864,12.807,27.591L12.807,27.591z"/>
</g>
</svg>
