<?xml version="1.0" encoding="utf-8"?>
<!-- Generator: Adobe Illustrator 19.2.1, SVG Export Plug-In . SVG Version: 6.00 Build 0)  -->
<svg version="1.0" id="art" xmlns="http://www.w3.org/2000/svg" xmlns:xlink="http://www.w3.org/1999/xlink" x="0px" y="0px"
	 width="36px" height="36px" viewBox="0 0 36 36" enable-background="new 0 0 36 36" xml:space="preserve">
<g id="check">
</g>
<g>
	<path fill="#E9883C" d="M25.606,29.606v-0.451l0.225,0.338L25.606,29.606z M25.606,26.225v-0.901l0.451,0.451L25.606,26.225z
		 M25.606,23.634V22.62l0.676-1.239l1.915,1.127l-1.127,1.915L25.606,23.634L25.606,23.634z M25.606,13.38v-1.014l1.465-0.901
		l1.127,1.915l-1.915,1.127L25.606,13.38L25.606,13.38z M25.606,10.676V9.887l0.451,0.338L25.606,10.676z M25.606,6.845V6.394
		l0.113,0.113L25.606,6.845z M28.873,6.282l-1.239-1.014L26.62,6.507l1.239,1.014L28.873,6.282z M32.254,10.676l-0.789-1.352
		l-1.352,0.789l0.789,1.352L32.254,10.676z M29.211,9.887L27.972,8.31l-1.577,1.239l1.239,1.69L29.211,9.887z M32.366,16.31
		l1.577-0.225l-0.338-1.577l-1.577,0.225L32.366,16.31z M26.958,17.549l2.141-0.338l-0.338-2.141l-2.141,0.338L26.958,17.549z
		 M31.239,14.282l-0.676-1.915l-1.915,0.676l0.676,1.915L31.239,14.282z M32.366,19.803l-0.225,1.577l1.577,0.225l0.225-1.577
		L32.366,19.803z M29.099,18.789l-2.141-0.338l-0.338,2.141l2.141,0.338L29.099,18.789z M31.803,16.986h-2.028v2.028h2.028V16.986z
		 M30.113,25.887l1.352,0.789l0.789-1.352l-1.352-0.789L30.113,25.887z M31.239,21.831l-1.915-0.676l-0.676,1.915l1.915,0.676
		L31.239,21.831z M26.62,29.606l1.014,1.239l1.239-1.014l-1.014-1.239L26.62,29.606z M26.394,26.338l1.577,1.239L29.211,26
		l-1.577-1.239L26.394,26.338z M24.141,3.239l-1.465-0.563l-0.563,1.465l1.465,0.563L24.141,3.239z M25.606,6.394v0.451L24.817,8.31
		l-1.69-1.014l0.901-1.69L25.606,6.394L25.606,6.394z M25.606,9.887v0.901l-1.014,1.127l-1.69-1.465l1.465-1.69L25.606,9.887z
		 M25.606,12.366v1.014l-0.451-0.789L25.606,12.366z M25.606,22.732v0.901l-0.451-0.225L25.606,22.732L25.606,22.732z
		 M25.606,25.324v0.901l-1.239,1.127l-1.465-1.69l1.69-1.465L25.606,25.324z M25.606,29.155v0.451l-1.577,0.901l-1.014-1.69
		l1.69-1.014L25.606,29.155z M10.394,29.606v-0.451l0.789-1.465l1.69,1.014l-1.014,1.69L10.394,29.606z M10.394,26.225v-0.901
		l1.014-1.239l1.69,1.465l-1.465,1.69L10.394,26.225L10.394,26.225z M10.394,23.634V22.62l0.451,0.789L10.394,23.634L10.394,23.634z
		 M10.394,13.38v-1.014l0.451,0.225L10.394,13.38z M10.394,10.676V9.887l1.239-1.127l1.465,1.69l-1.69,1.465L10.394,10.676
		L10.394,10.676z M10.394,6.845V6.394l1.577-0.789l1.014,1.69L11.183,8.31L10.394,6.845L10.394,6.845z M22.789,7.972l-2.141-0.789
		l-0.789,2.141L22,10.113L22.789,7.972z M21.324,4.592l-1.915-0.338L19.07,6.282l1.915,0.338L21.324,4.592z M14.563,31.408
		l2.028,0.338l0.338-2.028l-2.028-0.338L14.563,31.408z M11.746,32.761l1.465,0.563l0.563-1.465l-1.465-0.563L11.746,32.761z
		 M15.239,28.817l0.789-2.141l-2.141-0.789l-0.789,2.141L15.239,28.817z M22.225,31.859l0.563,1.465l1.465-0.563l-0.563-1.465
		L22.225,31.859z M20.761,28.817l2.141-0.789l-0.789-2.141l-2.141,0.789L20.761,28.817z M13.775,4.141l-0.563-1.465l-1.465,0.563
		l0.563,1.465L13.775,4.141z M15.915,9.211L15.127,7.07l-2.141,0.789L13.775,10L15.915,9.211z M17.155,34h1.577v-1.577h-1.577V34z
		 M16.817,29.155h2.254v-2.254h-2.254V29.155z M19.07,29.831l0.338,2.028l2.028-0.338l-0.338-1.915L19.07,29.831z M16.93,6.169
		l-0.338-2.028l-2.028,0.338l0.338,2.028L16.93,6.169z M18.732,2h-1.577v1.577h1.577V2z M19.07,6.845h-2.254v2.254h2.254V6.845z
		 M10.394,6.394v0.451l-0.225-0.338L10.394,6.394z M10.394,9.887v0.901l-0.451-0.563L10.394,9.887z M10.394,12.366v1.014
		L9.718,14.62l-1.915-1.127l1.127-1.915L10.394,12.366z M10.394,22.732v0.901L8.93,24.535L7.803,22.62l1.915-1.127L10.394,22.732
		L10.394,22.732z M10.394,25.324v0.901l-0.451-0.451L10.394,25.324z M10.394,29.155v0.451l-0.225-0.113L10.394,29.155z
		 M7.127,29.831l1.239,1.014l1.014-1.239l-1.239-1.014L7.127,29.831z M6.789,26.113l1.239,1.577l1.577-1.239l-1.239-1.577
		L6.789,26.113z M3.746,25.324l0.789,1.352l1.239-0.789l-0.789-1.352L3.746,25.324z M7.239,22.958l-0.676-1.803l-1.915,0.676
		l0.676,1.803L7.239,22.958z M3.634,19.803l-1.577,0.225l0.225,1.577l1.577-0.225L3.634,19.803z M9.042,18.451l-2.141,0.338
		l0.338,2.141l2.141-0.338L9.042,18.451L9.042,18.451z M4.197,19.014h2.028v-2.028H4.197V19.014z M3.859,14.732l-1.577-0.225
		l-0.225,1.465l1.577,0.225L3.859,14.732z M6.789,17.211l2.141,0.338l0.338-2.141L7.127,15.07L6.789,17.211z M4.648,14.282
		l1.915,0.676l0.676-1.915l-1.915-0.676L4.648,14.282z M5.775,10.113L4.535,9.324l-0.789,1.352l1.352,0.789L5.775,10.113z
		 M9.606,9.662L8.028,8.423L6.789,9.887l1.465,1.352L9.606,9.662z M9.268,6.394L8.254,5.268L7.127,6.282l1.014,1.239L9.268,6.394z"
		/>
</g>
</svg>
