<?xml version="1.0" encoding="utf-8"?>
<!-- Generator: Adobe Illustrator 19.2.1, SVG Export Plug-In . SVG Version: 6.00 Build 0)  -->
<svg version="1.0" id="art" xmlns="http://www.w3.org/2000/svg" xmlns:xlink="http://www.w3.org/1999/xlink" x="0px" y="0px"
	 width="36px" height="36px" viewBox="0 0 36 36" enable-background="new 0 0 36 36" xml:space="preserve">
<g id="check">
</g>
<g>
	<path fill="#04713D" d="M12.242,21.54l-8.77-5.072v0.74c0,0.951,0.106,1.902,0.211,2.853C4,21.751,4.634,23.336,5.374,24.709
		c1.057,1.796,2.43,3.381,4.121,4.543c1.162,0.845,2.325,1.479,3.698,1.902c0.528,0.211,1.162,0.317,1.796,0.528
		C15.834,31.894,16.679,32,17.63,32h0.845c0.423,0,0.951,0,1.479-0.106c2.008-0.211,4.015-0.951,5.706-2.008
		c1.691-1.057,3.17-2.43,4.226-4.015c1.162-1.691,2.008-3.592,2.43-5.6c0-0.211,0.106-0.528,0.106-0.845
		c0.106-0.634,0.106-1.374,0.106-2.008v-0.423c0-0.634-0.106-1.162-0.211-1.796c-0.211-1.585-0.74-3.064-1.479-4.438L12.242,21.54
		L12.242,21.54z M12.242,17.842l-8.136-4.755C4,13.404,3.894,13.826,3.789,14.143c0,0.211-0.106,0.317-0.106,0.528l8.558,4.966
		L30.098,9.389c-0.211-0.317-0.317-0.528-0.528-0.74c-0.106-0.106-0.106-0.211-0.211-0.317c0-0.106-0.106-0.106-0.106-0.211
		L12.242,17.842L12.242,17.842z M12.242,14.143l-6.868-3.909c-0.317,0.423-0.528,0.951-0.74,1.374l7.608,4.438l15.849-9.087
		c-0.423-0.423-0.845-0.74-1.268-1.057L12.242,14.143z M12.242,10.551L7.17,7.592C6.853,8.015,6.536,8.438,6.219,8.86l6.023,3.487
		l13.102-7.502C24.815,4.528,24.181,4.211,23.653,4L12.242,10.551L12.242,10.551z"/>
</g>
</svg>
