<?xml version="1.0" encoding="utf-8"?>
<!-- Generator: Adobe Illustrator 19.2.1, SVG Export Plug-In . SVG Version: 6.00 Build 0)  -->
<svg version="1.0" id="Layer_2" xmlns="http://www.w3.org/2000/svg" xmlns:xlink="http://www.w3.org/1999/xlink" x="0px" y="0px"
	 width="18px" height="18px" viewBox="0 0 18 18" enable-background="new 0 0 18 18" xml:space="preserve">
<g id="check">
</g>
<g>
	<path fill="#FFFFFF" d="M4.474,16h9.053c0.053,0,0.158-0.053,0.158-0.158v-1.684c0-0.053-0.053-0.158-0.158-0.158H4.474
		c-0.053,0-0.158,0.053-0.158,0.158v1.684C4.316,15.895,4.368,16,4.474,16z"/>
	<path fill="#FFFFFF" d="M7.582,3.544c-0.098,0.343-2.448,6.903-2.546,7.147c-0.049,0.098,0,0.196,0.049,0.196
		c0.098,0,1.371,0.539,1.42,0.539s0.147-0.049,0.147-0.098S7.19,9.81,7.239,9.664h3.525c0.049,0.147,0.587,1.616,0.587,1.664
		c0.049,0.098,0.147,0.098,0.196,0.098c0.098,0,1.322-0.539,1.42-0.539c0.049-0.049,0.049-0.147,0.049-0.196
		c-0.049-0.196-2.448-6.854-2.546-7.147c-0.245-0.685-0.539-1.371-1.469-1.371C8.072,2.173,7.778,2.81,7.582,3.544z M10.275,7.999
		H7.827l1.175-3.672L10.275,7.999z"/>
</g>
</svg>
