<?xml version="1.0" encoding="utf-8"?>
<!-- Generator: Adobe Illustrator 19.2.1, SVG Export Plug-In . SVG Version: 6.00 Build 0)  -->
<svg version="1.0" id="Layer_2" xmlns="http://www.w3.org/2000/svg" xmlns:xlink="http://www.w3.org/1999/xlink" x="0px" y="0px"
	 width="30px" height="30px" viewBox="0 0 30 30" enable-background="new 0 0 30 30" xml:space="preserve">
<g id="check">
</g>
<g>
	<path fill="#FFFFFF" d="M15,23c3.96,0,5.657-3.151,5.737-6.303c0-2.182-0.727-4.606-1.939-6.626C17.586,8.131,16.212,7,15,7
		s-2.586,1.212-3.798,3.071c-1.212,2.02-1.939,4.444-1.939,6.626C9.263,19.849,11.04,23,15,23z"/>
	<path fill="#FFFFFF" d="M1,3.887v22.227C1,27.705,2.295,29,3.888,29h22.225C27.705,29,29,27.705,29,26.113V3.887
		C29,2.322,27.678,1,26.112,1H3.888C2.295,1,1,2.295,1,3.887z M3,3.887C3,3.398,3.398,3,3.888,3h22.225C26.568,3,27,3.431,27,3.887
		v22.227C27,26.602,26.602,27,26.112,27H3.888C3.398,27,3,26.602,3,26.113V3.887z"/>
</g>
</svg>
