<?xml version="1.0" encoding="utf-8"?>
<!-- Generator: Adobe Illustrator 19.2.1, SVG Export Plug-In . SVG Version: 6.00 Build 0)  -->
<svg version="1.0" id="Layer_2" xmlns="http://www.w3.org/2000/svg" xmlns:xlink="http://www.w3.org/1999/xlink" x="0px" y="0px"
	 width="18px" height="18px" viewBox="0 0 18 18" enable-background="new 0 0 18 18" xml:space="preserve">
<g id="check">
</g>
<g>
	<path d="M9,5C8.394,5,7.707,5.606,7.101,6.535c-0.606,1.01-0.97,2.222-0.97,3.313C6.131,11.424,7.02,13,9,13
		s2.828-1.576,2.869-3.151c0-1.091-0.364-2.303-0.97-3.313C10.293,5.566,9.606,5,9,5z"/>
	<path d="M17,2.251C17,1.585,16.415,1,15.749,1H2.251C1.562,1,1,1.562,1,2.251v13.497C1,16.438,1.562,17,2.251,17h13.497
		C16.438,17,17,16.438,17,15.749V2.251z M16,15.749C16,15.887,15.887,16,15.749,16H2.251C2.113,16,2,15.887,2,15.749V2.251
		C2,2.113,2.113,2,2.251,2h13.497C15.866,2,16,2.134,16,2.251V15.749z"/>
</g>
</svg>
