<?xml version="1.0" encoding="utf-8"?>
<!-- Generator: Adobe Illustrator 19.2.1, SVG Export Plug-In . SVG Version: 6.00 Build 0)  -->
<svg version="1.0" id="art" xmlns="http://www.w3.org/2000/svg" xmlns:xlink="http://www.w3.org/1999/xlink" x="0px" y="0px"
	 width="24px" height="24px" viewBox="0 0 24 24" enable-background="new 0 0 24 24" xml:space="preserve">
<g id="check">
</g>
<rect x="1" y="3" fill="#21365F" width="11" height="1"/>
<path fill="#21365F" d="M15,3v1h1.625c1.125,0,1.186,0.652,0.775,1.5s-3.139,6.463-3.139,6.463h1.364c0,0,2.957-5.992,3.2-6.463
	C19.375,4.438,19.522,4,20.5,4H23V3H15z"/>
<polygon fill="#21365F" points="13.26,11 5.911,11 6.398,12 13.76,12 "/>
<polygon fill="#21365F" points="12.259,9 4.936,9 5.424,10 12.76,10 "/>
<polygon fill="#21365F" points="11.259,7 3.961,7 4.449,8 11.759,8 "/>
<polygon fill="#21365F" points="10.258,5 2.987,5 3.474,6 10.759,6 "/>
<polygon fill="#21365F" points="14.261,13 11,13 6.886,13 11.05,21.574 14.7,14 23,14 23,13 15.182,13 "/>
<circle fill="#21365F" cx="21" cy="10" r="1.875"/>
</svg>
