<?xml version="1.0" encoding="utf-8"?>
<!-- Generator: Adobe Illustrator 19.2.1, SVG Export Plug-In . SVG Version: 6.00 Build 0)  -->
<svg version="1.0" id="art" xmlns="http://www.w3.org/2000/svg" xmlns:xlink="http://www.w3.org/1999/xlink" x="0px" y="0px"
	 width="36px" height="36px" viewBox="0 0 36 36" enable-background="new 0 0 36 36" xml:space="preserve">
<g id="check">
</g>
<path fill="#EE3424" d="M18.004,0.434c2.325,0,3.06,1.713,3.672,3.427c0.245,0.734,6.242,17.379,6.364,17.869
	c0,0.122,0,0.367-0.122,0.49c-0.245,0-3.304,1.346-3.549,1.346c-0.122,0-0.367,0-0.49-0.245c0-0.122-1.346-3.794-1.469-4.161h-8.812
	c-0.122,0.367-1.469,4.039-1.469,4.161s-0.245,0.245-0.367,0.245s-3.304-1.346-3.549-1.346c-0.122,0-0.245-0.245-0.122-0.49
	C8.335,21.117,14.21,4.717,14.455,3.86C14.944,2.025,15.679,0.434,18.004,0.434L18.004,0.434z M6.684,30
	c-0.132,0-0.395,0.132-0.395,0.395v4.211C6.289,34.737,6.421,35,6.684,35h22.632c0.132,0,0.395-0.132,0.395-0.395v-4.211
	c0-0.132-0.132-0.395-0.395-0.395H6.684z M18.004,5.819l-2.937,9.179h6.119L18.004,5.819z"/>
</svg>
