<?xml version="1.0" encoding="utf-8"?>
<!-- Generator: Adobe Illustrator 19.2.1, SVG Export Plug-In . SVG Version: 6.00 Build 0)  -->
<svg version="1.0" id="Layer_2" xmlns="http://www.w3.org/2000/svg" xmlns:xlink="http://www.w3.org/1999/xlink" x="0px" y="0px"
	 width="18px" height="18px" viewBox="0 0 18 18" enable-background="new 0 0 18 18" xml:space="preserve">
<g id="check">
</g>
<g>
	<path fill="#FFFFFF" d="M15.761,10.667c0-3.023-2.063-5.566-4.942-6.189c-0.144-2.063-0.144-0.879-0.144-1.886h-0.48
		c0,0,0.048,0.879,0.048,1.79c-0.192-0.048-0.336-0.048-0.528-0.048V0H9.284v4.333c-0.192,0-0.336,0.048-0.528,0.048
		c0.048-0.912,0.048-1.79,0.048-1.79h-0.48c0,1.008,0-0.129-0.144,1.886C5.35,5.101,3.239,7.596,3.239,10.667
		c0,2.207,1.2,4.174,2.879,5.326c2.255-2.351,2.639-8.828,2.639-9.26c-0.384,0-0.816,0.144-0.864,0.144
		c-0.48,2.975-1.823,5.566-3.311,6.957c-0.528-0.816-0.816-1.727-0.816-2.591c0-2.831,2.687-4.99,5.854-4.99
		c3.119,0,5.806,2.159,5.614,4.942c0,0.864-0.24,1.775-0.816,2.591c-1.535-1.391-2.831-3.886-3.311-6.957
		c-0.096,0-0.528-0.144-0.864-0.144c0,0.432,0.336,6.957,2.639,9.26C14.658,14.841,15.761,12.874,15.761,10.667z"/>
	<path fill="#FFFFFF" d="M9.236,6.684c-0.192,5.374-0.72,8.444-1.631,10.028C8.229,16.904,8.9,17,9.572,17
		c0.672,0,1.343-0.096,1.967-0.288c-0.912-1.583-1.439-4.654-1.631-10.028H9.236z"/>
</g>
</svg>
