<?xml version="1.0" encoding="utf-8"?>
<!-- Generator: Adobe Illustrator 19.2.1, SVG Export Plug-In . SVG Version: 6.00 Build 0)  -->
<svg version="1.0" id="Layer_2" xmlns="http://www.w3.org/2000/svg" xmlns:xlink="http://www.w3.org/1999/xlink" x="0px" y="0px"
	 width="18px" height="18px" viewBox="0 0 18 18" enable-background="new 0 0 18 18" xml:space="preserve">
<g id="check">
</g>
<g>
	<path fill="#FFFFFF" d="M16.676,1h-5.459L7,6.081L11.162,11h5.514C10.351,5.378,16.676,1,16.676,1z M11.052,7.5
		c-0.833,0-1.5-0.667-1.5-1.5c0-0.833,0.667-1.5,1.5-1.5c0.833,0,1.5,0.667,1.5,1.5C12.552,6.833,11.885,7.5,11.052,7.5z"/>
	<path fill="#FFFFFF" d="M1,7c0,0,6.324,4.378,0,10h5.514l4.162-4.919L6.46,7H1z M8.124,12c0,0.833-0.667,1.5-1.5,1.5
		c-0.833,0-1.5-0.667-1.5-1.5c0-0.833,0.667-1.5,1.5-1.5C7.457,10.5,8.124,11.167,8.124,12z"/>
</g>
</svg>
