<?xml version="1.0" encoding="UTF-8" standalone="no"?>
<!-- Generator: Adobe Illustrator 18.1.0, SVG Export Plug-In . SVG Version: 6.00 Build 0)  -->
<svg id="Layer_1" xmlns="http://www.w3.org/2000/svg" xml:space="preserve" viewBox="0 0 30 30" version="1.1" y="0px" x="0px" xmlns:xlink="http://www.w3.org/1999/xlink" enable-background="new 0 0 30 30">
	<path d="m15 1c1.9 0 2.5 1.4 3 2.8 0.2 0.6 5.1 14.2 5.2 14.6 0 0.1 0 0.3-0.1 0.4-0.2 0-2.7 1.1-2.9 1.1-0.1 0-0.3 0-0.4-0.2 0-0.1-1.1-3.1-1.2-3.4h-7.2c-0.1 0.3-1.2 3.3-1.2 3.4s-0.2 0.2-0.3 0.2-2.7-1.1-2.9-1.1c-0.1 0-0.2-0.2-0.1-0.4 0.2-0.5 5-13.9 5.2-14.6 0.4-1.5 1-2.8 2.9-2.8zm-8.6 24.3c-0.1 0-0.3 0.1-0.3 0.3v3.2c0 0.1 0.1 0.3 0.3 0.3h17.2c0.1 0 0.3-0.1 0.3-0.3v-3.2c0-0.1-0.1-0.3-0.3-0.3h-17.2zm8.6-19.9l-2.4 7.5h5l-2.6-7.5z" fill="#fff"/>
</svg>
