<?xml version="1.0" encoding="utf-8"?>
<!-- Generator: Adobe Illustrator 19.2.1, SVG Export Plug-In . SVG Version: 6.00 Build 0)  -->
<svg version="1.0" id="Layer_2" xmlns="http://www.w3.org/2000/svg" xmlns:xlink="http://www.w3.org/1999/xlink" x="0px" y="0px"
	 width="18px" height="18px" viewBox="0 0 18 18" enable-background="new 0 0 18 18" xml:space="preserve">
<g id="check">
</g>
<g>
	<path d="M11.268,4.448l-1.766,1.72l0.362,0.407l-0.905,0.86l-0.86-0.86l0.453-0.407L6.696,4.402
		C5.247,3.225,3.753,5.036,3.708,6.802l0.543-0.453l1.63,1.72l0.589-0.498V6.53l0.362,0.272v1.403L7.51,8.884l-3.576,3.531
		l1.494,1.494l3.486-3.531L12.49,14l1.494-1.494L10.408,8.93l0.679-0.679V6.847l0.407-0.362v1.087l0.543,0.453l1.675-1.675
		l0.543,0.407C14.573,5.58,12.762,2.954,11.268,4.448z"/>
	<path d="M1,17h16V1H1V17z M2,2h14v14H2V2z"/>
</g>
</svg>
