<?xml version="1.0" encoding="utf-8"?>
<!-- Generator: Adobe Illustrator 19.2.1, SVG Export Plug-In . SVG Version: 6.00 Build 0)  -->
<svg version="1.0" id="art" xmlns="http://www.w3.org/2000/svg" xmlns:xlink="http://www.w3.org/1999/xlink" x="0px" y="0px"
	 width="18px" height="18px" viewBox="0 0 18 18" enable-background="new 0 0 18 18" xml:space="preserve">
<g id="check">
</g>
<path fill="#D4372F" d="M2.701,16C2.314,16,2,15.686,2,15.299V2.701C2,2.314,2.314,2,2.701,2h12.597C15.665,2,16,2.334,16,2.701
	v12.598C16,15.686,15.686,16,15.298,16H2.701z"/>
<g>
	<g>
		<path fill="#FFFFFF" d="M9,13c-1.98,0-2.869-1.576-2.869-3.152c0-1.091,0.364-2.303,0.97-3.313C7.707,5.606,8.394,5,9,5
			s1.293,0.566,1.899,1.535c0.606,1.01,0.97,2.222,0.97,3.313C11.828,11.424,10.98,13,9,13z"/>
	</g>
</g>
</svg>
