<?xml version="1.0" encoding="utf-8"?>
<!-- Generator: Adobe Illustrator 19.2.1, SVG Export Plug-In . SVG Version: 6.00 Build 0)  -->
<svg version="1.0" id="art" xmlns="http://www.w3.org/2000/svg" xmlns:xlink="http://www.w3.org/1999/xlink" x="0px" y="0px"
	 width="18px" height="18px" viewBox="0 0 18 18" enable-background="new 0 0 18 18" xml:space="preserve">
<g id="check">
</g>
<path fill="#DF493A" d="M16.124,5.395c1.389-1.528,0.336-2.378-1.32-2.335l-0.001,0.001c1.484,0.174,1.335,0.58,1.335,0.907
	c0,0.334-0.669,0.919-1.505,1.672c0,0-1.421,1.337-2.508,2.257c-1.087,0.92-4.347,3.762-5.016,4.263
	c-0.669,0.502-3.176,2.341-3.344,2.508c-0.155,0.077-0.523,0.434-0.776,0.289l-0.012,0.012c0.235,0.235,0.57,0.27,0.929,0.2
	c0.343,0.286,0.702,0.555,1.095,0.784C6.136,16.629,7.556,17,9,17c1.433,0,2.78-0.353,4-1.047c2.467-1.436,4-4.1,4-6.953
	C17,7.727,16.68,6.5,16.124,5.395z"/>
<path fill="#DF493A" d="M8.615,6.392c0,0,0.919-1.17,1.003-1.254c0-0.167,0.084-0.334-0.167-0.418
	C9.2,4.553,8.448,4.135,8.281,3.968C8.113,3.884,8.113,3.383,8.615,3.299c0.463-0.077,3.91-0.367,5.689-0.28
	c-0.398-0.359-0.823-0.692-1.295-0.966C11.68,1.354,10.312,1,8.943,1C7.51,1,6.164,1.353,4.95,2.044C2.476,3.573,1,6.173,1,9
	c0,1.971,0.741,3.846,2.008,5.294c0.03-0.043,0.061-0.085,0.09-0.128C3.182,13.999,8.197,6.81,8.615,6.392z"/>
<path fill="#FFFFFF" d="M3.767,14.668c0.167-0.167,2.675-2.006,3.344-2.508c0.669-0.502,3.929-3.344,5.016-4.263
	c1.087-0.919,2.508-2.257,2.508-2.257c0.836-0.752,1.505-1.337,1.505-1.672c0-0.327,0.149-0.733-1.335-0.907
	c-0.032-0.004-0.053-0.009-0.086-0.012c-0.123-0.013-0.264-0.022-0.413-0.029c-1.779-0.087-5.226,0.203-5.689,0.28
	C8.113,3.383,8.113,3.884,8.281,3.968C8.448,4.135,9.2,4.553,9.451,4.72c0.251,0.084,0.167,0.251,0.167,0.418
	C9.535,5.222,8.615,6.392,8.615,6.392c-0.418,0.418-5.433,7.607-5.517,7.774c-0.028,0.043-0.059,0.085-0.09,0.128
	c-0.148,0.208-0.286,0.416-0.078,0.625c0.019,0.019,0.04,0.027,0.06,0.039C3.244,15.102,3.612,14.745,3.767,14.668z"/>
</svg>
