<?xml version="1.0" encoding="utf-8"?>
<!-- Generator: Adobe Illustrator 19.2.1, SVG Export Plug-In . SVG Version: 6.00 Build 0)  -->
<svg version="1.0" id="art" xmlns="http://www.w3.org/2000/svg" xmlns:xlink="http://www.w3.org/1999/xlink" x="0px" y="0px"
	 width="24px" height="24px" viewBox="0 0 24 24" enable-background="new 0 0 24 24" xml:space="preserve">
<g id="check">
</g>
<g id="XMLID_20_">
	<g>
		<rect x="22" y="13" fill="#231F20" width="1" height="1"/>
		<rect x="22" y="11" fill="#231F20" width="1" height="1"/>
		<rect x="22" y="9" fill="#231F20" width="1" height="1"/>
		<rect x="22" y="6" fill="#231F20" width="1" height="1"/>
		<rect x="21" y="16" fill="#231F20" width="1" height="1"/>
		<rect x="21" y="14" fill="#231F20" width="1" height="1"/>
		<rect x="21" y="12" fill="#231F20" width="1" height="1"/>
		<rect x="21" y="10" fill="#231F20" width="1" height="1"/>
		<rect x="21" y="8" fill="#231F20" width="1" height="1"/>
		<rect x="21" y="5" fill="#231F20" width="1" height="1"/>
		<rect x="20" y="17" fill="#231F20" width="1" height="1"/>
		<rect x="20" y="15" fill="#231F20" width="1" height="1"/>
		<rect x="20" y="13" fill="#231F20" width="1" height="1"/>
		<rect x="20" y="11" fill="#231F20" width="1" height="1"/>
		<rect x="20" y="9" fill="#231F20" width="1" height="1"/>
		<rect x="20" y="7" fill="#231F20" width="1" height="1"/>
		<rect x="19" y="18" fill="#231F20" width="1" height="1"/>
		<rect x="19" y="16" fill="#231F20" width="1" height="1"/>
		<rect x="19" y="14" fill="#231F20" width="1" height="1"/>
		<rect x="19" y="12" fill="#231F20" width="1" height="1"/>
		<rect x="19" y="10" fill="#231F20" width="1" height="1"/>
		<rect x="19" y="8" fill="#231F20" width="1" height="1"/>
		<rect x="19" y="6" fill="#231F20" width="1" height="1"/>
		<rect x="19" y="4" fill="#231F20" width="1" height="1"/>
		<rect x="18" y="5" fill="#231F20" width="1" height="1"/>
		<rect x="18" y="3" fill="#231F20" width="1" height="1"/>
		<rect x="16" y="20" fill="#231F20" width="1" height="1"/>
		<polygon fill="#231F20" points="17,8 17,16 16,16 16,13 16,12 16,8 		"/>
		<rect x="15" y="20" fill="#231F20" width="1" height="1"/>
		<rect x="15" y="16" fill="#231F20" width="1" height="1"/>
		<rect x="8" y="12" fill="#231F20" width="8" height="1"/>
		<polygon fill="#FFE60D" points="16,13 16,16 15,16 15,17 14,17 14,18 10,18 10,17 9,17 9,16 8,16 8,13 		"/>
		<polygon fill="#FFE60D" points="16,8 16,12 8,12 8,8 9,8 9,7 10,7 10,8 11,8 11,9 13,9 13,8 14,8 14,7 15,7 15,8 		"/>
		<rect x="15" y="7" fill="#231F20" width="1" height="1"/>
		<rect x="9" y="21" fill="#231F20" width="6" height="1"/>
		<rect x="14" y="17" fill="#231F20" width="1" height="1"/>
		<rect x="14" y="6" fill="#231F20" width="1" height="1"/>
		<rect x="14" y="5.08" fill="#231F20" width="1" height="0.92"/>
		<polygon fill="#231F20" points="15,5 15,5.08 14,5.08 14,6 10,6 10,5.08 9,5.08 9,5 		"/>
		<rect x="10" y="18" fill="#231F20" width="4" height="1"/>
		<rect x="13" y="7" fill="#231F20" width="1" height="1"/>
		<polygon fill="#FFFFFF" points="14,6 14,7 13,7 13,8 11,8 11,7 10,7 10,6 		"/>
		<rect x="10" y="2" fill="#231F20" width="4" height="1"/>
		<rect x="11" y="8" fill="#231F20" width="2" height="1"/>
		<rect x="10" y="7" fill="#231F20" width="1" height="1"/>
		<rect x="9" y="17" fill="#231F20" width="1" height="1"/>
		<rect x="9" y="6" fill="#231F20" width="1" height="1"/>
		<rect x="9" y="5.08" fill="#231F20" width="1" height="0.92"/>
		<rect x="8" y="20" fill="#231F20" width="1" height="1"/>
		<rect x="8" y="16" fill="#231F20" width="1" height="1"/>
		<rect x="8" y="7" fill="#231F20" width="1" height="1"/>
		<rect x="7" y="20" fill="#231F20" width="1" height="1"/>
		<polygon fill="#231F20" points="8,12 8,13 8,16 7,16 7,8 8,8 		"/>
		<rect x="5" y="5" fill="#231F20" width="1" height="1"/>
		<rect x="5" y="3" fill="#231F20" width="1" height="1"/>
		<rect x="4" y="18" fill="#231F20" width="1" height="1"/>
		<rect x="4" y="16" fill="#231F20" width="1" height="1"/>
		<rect x="4" y="14" fill="#231F20" width="1" height="1"/>
		<rect x="4" y="12" fill="#231F20" width="1" height="1"/>
		<rect x="4" y="10" fill="#231F20" width="1" height="1"/>
		<rect x="4" y="8" fill="#231F20" width="1" height="1"/>
		<rect x="4" y="6" fill="#231F20" width="1" height="1"/>
		<rect x="4" y="4" fill="#231F20" width="1" height="1"/>
		<rect x="3" y="17" fill="#231F20" width="1" height="1"/>
		<rect x="3" y="15" fill="#231F20" width="1" height="1"/>
		<rect x="3" y="13" fill="#231F20" width="1" height="1"/>
		<rect x="3" y="11" fill="#231F20" width="1" height="1"/>
		<rect x="3" y="9" fill="#231F20" width="1" height="1"/>
		<rect x="3" y="7" fill="#231F20" width="1" height="1"/>
		<rect x="2" y="16" fill="#231F20" width="1" height="1"/>
		<rect x="2" y="14" fill="#231F20" width="1" height="1"/>
		<rect x="2" y="12" fill="#231F20" width="1" height="1"/>
		<rect x="2" y="10" fill="#231F20" width="1" height="1"/>
		<rect x="2" y="8" fill="#231F20" width="1" height="1"/>
		<rect x="2" y="5" fill="#231F20" width="1" height="1"/>
		<rect x="1" y="13" fill="#231F20" width="1" height="1"/>
		<rect x="1" y="11" fill="#231F20" width="1" height="1"/>
		<rect x="1" y="9" fill="#231F20" width="1" height="1"/>
		<rect x="1" y="6" fill="#231F20" width="1" height="1"/>
	</g>
</g>
</svg>
