<?xml version="1.0" encoding="utf-8"?>
<!-- Generator: Adobe Illustrator 19.2.1, SVG Export Plug-In . SVG Version: 6.00 Build 0)  -->
<svg version="1.0" id="art" xmlns="http://www.w3.org/2000/svg" xmlns:xlink="http://www.w3.org/1999/xlink" x="0px" y="0px"
	 width="24px" height="24px" viewBox="0 0 24 24" enable-background="new 0 0 24 24" xml:space="preserve">
<g id="check">
</g>
<g>
	<linearGradient id="SVGID_1_" gradientUnits="userSpaceOnUse" x1="2.7419" y1="7.023" x2="2.7419" y2="16.0184">
		<stop  offset="0" style="stop-color:#571356"/>
		<stop  offset="0.2515" style="stop-color:#A30046"/>
		<stop  offset="0.3339" style="stop-color:#B30A3B"/>
		<stop  offset="0.5092" style="stop-color:#D31E25"/>
		<stop  offset="0.7423" style="stop-color:#A30046"/>
		<stop  offset="0.762" style="stop-color:#9C0247"/>
		<stop  offset="0.9214" style="stop-color:#6A0E52"/>
		<stop  offset="1" style="stop-color:#571356"/>
	</linearGradient>
	<path fill="url(#SVGID_1_)" d="M4.069,16.018c-0.295-0.516-0.516-1.106-0.516-1.77V7.023C2.594,7.244,1.857,7.908,1.415,8.719
		v4.571C2.005,14.47,2.963,15.429,4.069,16.018"/>
	<linearGradient id="SVGID_2_" gradientUnits="userSpaceOnUse" x1="0.9605" y1="6.9169" x2="7.3999" y2="4.1703">
		<stop  offset="0" style="stop-color:#EC1C24"/>
		<stop  offset="0.0992" style="stop-color:#D7142E"/>
		<stop  offset="0.2597" style="stop-color:#BA093B"/>
		<stop  offset="0.3998" style="stop-color:#A90243"/>
		<stop  offset="0.5031" style="stop-color:#A30046"/>
		<stop  offset="0.5675" style="stop-color:#950349"/>
		<stop  offset="0.7497" style="stop-color:#730C50"/>
		<stop  offset="0.9004" style="stop-color:#5F1154"/>
		<stop  offset="1" style="stop-color:#571356"/>
	</linearGradient>
	<path fill="url(#SVGID_2_)" d="M4.438,6.138h2.138c0.59,0,1.106-0.516,1.106-1.106S7.166,4,6.576,4H4.438
		C2.742,4,1.415,5.327,1.415,7.023v0.959C1.931,6.876,3.111,6.138,4.438,6.138"/>
	<linearGradient id="SVGID_3_" gradientUnits="userSpaceOnUse" x1="1.4245" y1="15.3066" x2="20.9918" y2="7.5198">
		<stop  offset="0" style="stop-color:#00ADEE"/>
		<stop  offset="0.1427" style="stop-color:#02AAEB"/>
		<stop  offset="0.2473" style="stop-color:#07A1E2"/>
		<stop  offset="0.3397" style="stop-color:#1091D2"/>
		<stop  offset="0.4251" style="stop-color:#1D7ABC"/>
		<stop  offset="0.5056" style="stop-color:#2D5D9F"/>
		<stop  offset="0.5815" style="stop-color:#413A7C"/>
		<stop  offset="0.6503" style="stop-color:#571356"/>
		<stop  offset="0.691" style="stop-color:#641053"/>
		<stop  offset="0.7655" style="stop-color:#85074C"/>
		<stop  offset="0.8221" style="stop-color:#A30046"/>
		<stop  offset="0.8413" style="stop-color:#AC0342"/>
		<stop  offset="0.947" style="stop-color:#DA152C"/>
		<stop  offset="1" style="stop-color:#EC1C24"/>
	</linearGradient>
	<path fill="url(#SVGID_3_)" d="M21.028,7.834C20.585,5.622,18.742,4,16.456,4H11v10.249c0,1.991-1.696,3.613-3.687,3.613
		c-2.359,0-4.719-1.327-5.899-3.539C1.488,17.419,4.069,20,7.313,20s5.899-2.581,5.899-5.751V6.138h3.539
		C18.299,6.138,19.848,6.802,21.028,7.834"/>
	<linearGradient id="SVGID_4_" gradientUnits="userSpaceOnUse" x1="20.4487" y1="7.0968" x2="20.4487" y2="16.2396">
		<stop  offset="0" style="stop-color:#571356"/>
		<stop  offset="0.2577" style="stop-color:#A30046"/>
		<stop  offset="0.413" style="stop-color:#C5152F"/>
		<stop  offset="0.5031" style="stop-color:#D31E25"/>
		<stop  offset="0.641" style="stop-color:#B50C39"/>
		<stop  offset="0.7485" style="stop-color:#A30046"/>
		<stop  offset="0.9061" style="stop-color:#700D51"/>
		<stop  offset="1" style="stop-color:#571356"/>
	</linearGradient>
	<path fill="url(#SVGID_4_)" d="M20.806,10.267c0.221-0.59,0.295-1.327,0.295-1.696c-0.664-0.59-1.622-1.18-2.654-1.475
		c0.295,0.369,0.516,1.032,0.516,1.548s-0.147,0.959-0.442,1.475c-0.295,0.442-0.295,1.032,0.221,1.327
		c0.959,0.516,1.622,1.475,1.696,2.507c0.074,0.737-0.074,1.548-0.516,2.286c1.18-0.59,2.138-1.548,2.654-2.654
		C22.429,12.406,21.912,11.3,20.806,10.267"/>
	<linearGradient id="SVGID_5_" gradientUnits="userSpaceOnUse" x1="12.6958" y1="17.1982" x2="22.6513" y2="17.1982">
		<stop  offset="0" style="stop-color:#571356"/>
		<stop  offset="0.0996" style="stop-color:#5F1154"/>
		<stop  offset="0.2503" style="stop-color:#730C50"/>
		<stop  offset="0.4325" style="stop-color:#950349"/>
		<stop  offset="0.4969" style="stop-color:#A30046"/>
		<stop  offset="0.577" style="stop-color:#B00540"/>
		<stop  offset="0.8571" style="stop-color:#DB162C"/>
		<stop  offset="1" style="stop-color:#EC1C24"/>
	</linearGradient>
	<path fill="url(#SVGID_5_)" d="M17.267,17.788h-3.465c-0.59,0-1.106,0.516-1.106,1.106S13.212,20,13.802,20h3.465
		c2.949,0,5.456-2.507,5.382-5.604C21.912,16.313,19.922,17.788,17.267,17.788"/>
</g>
</svg>
