<?xml version="1.0" encoding="utf-8"?>
<!-- Generator: Adobe Illustrator 19.2.1, SVG Export Plug-In . SVG Version: 6.00 Build 0)  -->
<svg version="1.0" id="art" xmlns="http://www.w3.org/2000/svg" xmlns:xlink="http://www.w3.org/1999/xlink" x="0px" y="0px"
	 width="30px" height="30px" viewBox="0 0 30 30" enable-background="new 0 0 30 30" xml:space="preserve">
<g id="check">
</g>
<path fill="#DF493A" d="M26.979,9.954C30.459,6.783,28.5,5,25.291,5.083c2.859,0.301,2.558,1.053,2.558,1.655
	c0,0.602-1.204,1.655-2.708,3.009c0,0-2.558,2.407-4.514,4.063c-1.956,1.655-7.824,6.771-9.028,7.674
	c-1.204,0.903-5.718,4.213-6.019,4.514c-0.301,0.15-1.053,0.903-1.505,0.451c0.88,0.879,2.527,0.249,3.759-0.57
	c0.219,0.146,0.441,0.287,0.67,0.421C10.346,27.396,12.653,28,15,28c2.329,0,4.517-0.573,6.5-1.702C25.509,23.965,28,19.636,28,15
	C28,13.243,27.641,11.531,26.979,9.954C26.979,9.954,26.979,9.954,26.979,9.954z"/>
<path fill="#DF493A" d="M16.112,8.845c0-0.301,0.151-0.602-0.301-0.752c-0.451-0.301-1.806-1.053-2.107-1.354
	c-0.301-0.151-0.301-1.053,0.602-1.204c0.735-0.122,5.653-0.544,9-0.534c-0.56-0.473-1.149-0.915-1.792-1.289
	C19.355,2.576,17.132,2,14.908,2c-2.329,0-4.517,0.573-6.49,1.696C4.399,6.18,2,10.406,2,15c0,3.241,1.229,6.321,3.334,8.684
	c2.371-3.433,8.366-11.975,8.973-12.583C14.307,11.102,15.962,8.995,16.112,8.845z"/>
<path fill="#FFFFFF" d="M5.58,25.998c0.301-0.301,4.815-3.611,6.019-4.514c1.204-0.903,7.072-6.019,9.028-7.674
	c1.956-1.655,4.514-4.063,4.514-4.063c1.505-1.354,2.708-2.407,2.708-3.009c0-0.602,0.301-1.354-2.558-1.655
	C24.758,5.027,24.074,5.002,23.307,5c-3.347-0.009-8.266,0.412-9,0.534c-0.903,0.15-0.903,1.053-0.602,1.204
	c0.301,0.301,1.655,1.053,2.107,1.354c0.451,0.15,0.301,0.451,0.301,0.752c-0.15,0.15-1.806,2.257-1.806,2.257
	c-0.607,0.607-6.602,9.149-8.973,12.583c-0.567,0.821-0.929,1.353-0.958,1.411c-0.301,0.451-0.752,0.903-0.301,1.354
	C4.527,26.9,5.279,26.148,5.58,25.998z"/>
</svg>
