<?xml version="1.0" encoding="utf-8"?>
<!-- Generator: Adobe Illustrator 19.2.1, SVG Export Plug-In . SVG Version: 6.00 Build 0)  -->
<svg version="1.0" id="Layer_2" xmlns="http://www.w3.org/2000/svg" xmlns:xlink="http://www.w3.org/1999/xlink" x="0px" y="0px"
	 width="18px" height="18px" viewBox="0 0 18 18" enable-background="new 0 0 18 18" xml:space="preserve">
<g id="check">
</g>
<g>
	<path d="M1.235,7.938l4.265,2.5l10.227-5.994c-0.141-0.203-0.291-0.4-0.45-0.589L5.5,9.5L1.386,7.125
		C1.322,7.391,1.272,7.662,1.235,7.938z"/>
	<path d="M1.672,6.194L5.5,8.437l9.07-5.315c-0.247-0.228-0.506-0.441-0.781-0.636L5.5,7.272l-3.429-1.98
		C1.919,5.582,1.788,5.884,1.672,6.194z"/>
	<path d="M12.844,1.905c-0.276-0.144-0.562-0.268-0.856-0.38L5.5,5.272L3.038,3.85C2.867,4.053,2.706,4.264,2.555,4.483L5.5,6.209
		L12.844,1.905z"/>
	<path d="M5.5,11.5L1.157,8.992c0,0.003,0,0.005,0,0.008c0,4.418,3.582,8,8,8s8-3.582,8-8c0-1.337-0.332-2.595-0.912-3.703L5.5,11.5
		z"/>
</g>
</svg>
