<?xml version="1.0" encoding="utf-8"?>
<!-- Generator: Adobe Illustrator 19.2.1, SVG Export Plug-In . SVG Version: 6.00 Build 0)  -->
<svg version="1.0" id="Layer_2" xmlns="http://www.w3.org/2000/svg" xmlns:xlink="http://www.w3.org/1999/xlink" x="0px" y="0px"
	 width="36px" height="36px" viewBox="0 0 36 36" enable-background="new 0 0 36 36" xml:space="preserve">
<g id="check">
</g>
<g>
	<polygon points="16.538,4 20,4 20,3 1,3 1,4 2.5,4 	"/>
	<path d="M22.235,18h2.988l6.465-13c0.458-0.729,0.77-1,1.228-1H34V3h-9v1h2c1.083,0,1.8,0.625,1.178,2L22.235,18z"/>
	<circle cx="31.5" cy="15.5" r="2.5"/>
	<path d="M10.307,18h11.465c-0.076-0.172-0.125-0.333-0.159-0.488l-0.258-0.508L9.824,17.029L10.307,18z"/>
	<path d="M9.307,16h11.465c-0.064-0.143-0.099-0.275-0.132-0.407l-0.299-0.589L8.824,15.029L9.307,16z"/>
	<path d="M19.772,14c-0.051-0.115-0.074-0.218-0.106-0.325l-0.34-0.671L7.824,13.029L8.307,14H19.772z"/>
	<path d="M18.772,12c-0.038-0.086-0.052-0.162-0.079-0.244l-0.382-0.752L6.824,11.029L7.307,12H18.772z"/>
	<path d="M17.772,10c-0.025-0.057-0.032-0.107-0.053-0.163l-0.423-0.833L5.824,9.029L6.307,10H17.772z"/>
	<path d="M16.772,8c-0.013-0.029-0.015-0.053-0.026-0.081l-0.464-0.915L4.824,7.029L5.307,8H16.772z"/>
	<path d="M3.824,5.029L4.307,6h11.465c-0.166-0.372-0.224-0.707-0.21-0.997L3.824,5.029z"/>
	<polygon points="22.368,19 11,19 10.769,19 10.652,19 17.633,33.045 17.692,32.928 19.58,29.189 24.221,20 35,20 35,19 24.726,19 	
		"/>
</g>
</svg>
