<?xml version="1.0" encoding="utf-8"?>
<!-- Generator: Adobe Illustrator 19.2.1, SVG Export Plug-In . SVG Version: 6.00 Build 0)  -->
<svg version="1.0" id="Layer_2" xmlns="http://www.w3.org/2000/svg" xmlns:xlink="http://www.w3.org/1999/xlink" x="0px" y="0px"
	 width="36px" height="36px" viewBox="0 0 36 36" enable-background="new 0 0 36 36" xml:space="preserve">
<g id="check">
</g>
<g>
	<ellipse transform="matrix(0.0611 -0.9981 0.9981 0.0611 -8.4447 38.0944)" cx="16.026" cy="23.536" rx="0.111" ry="0.113"/>
	<path d="M11.836,31.162c0.805,0.389,1.92,0.954,2.941,1.234l-0.241,0.658c0,0,1.295,0.59,3.451,0.595v0.001h0.006h0.01h0.008h0.005
		v-0.001c2.159-0.006,3.453-0.595,3.453-0.595l-0.242-0.658c1.021-0.279,2.138-0.845,2.94-1.234L23.466,30.9l-0.631-0.242
		l0.174-0.652l0.192-0.711c0,0-1.118,0.607-2.695,1.062c-0.447,0.128-0.786,0.186-0.786,0.186v0.484c0,0-0.843,0.146-1.695,0.146
		h-0.01h-0.013h-0.016h-0.009c-0.853,0-1.694-0.146-1.694-0.146v-0.484c0,0-0.339-0.059-0.786-0.186
		c-1.576-0.455-2.693-1.062-2.693-1.062l0.189,0.711l0.178,0.652L12.538,30.9L11.836,31.162z M22.688,29.859l-0.306,1.002
		l1.037,0.345c-0.627,0.315-1.388,0.608-2.309,0.861l-0.5-1.377C21.206,30.509,22.23,30.119,22.688,29.859z M15.631,31.215
		c0.511,0.15,1.575,0.308,2.346,0.303h0.002h0.024h0.021h0.002c0.772,0.005,1.834-0.153,2.347-0.303l0.615,1.667
		c-0.406,0.145-1.782,0.422-2.986,0.422c-1.206,0-2.583-0.277-2.988-0.422L15.631,31.215z M13.623,30.861l-0.307-1.002
		c0.458,0.259,1.483,0.649,2.077,0.83l-0.501,1.377c-0.918-0.252-1.681-0.546-2.308-0.861L13.623,30.861z"/>
	<path d="M20.882,5.755c0,0,0.169-1.016,0.745-1.912l-1.035,0.118l-0.542-1.15l-1.04,0.536L18.001,2.35l-1.006,0.997l-1.042-0.536
		l-0.541,1.15l-1.035-0.118c0.576,0.896,0.744,1.912,0.744,1.912c0.572-0.454,1.596-0.88,2.879-0.88
		C19.286,4.875,20.314,5.301,20.882,5.755z M15.094,4.331l0.273,0.033l0.287,0.03l0.124-0.262l0.362-0.773l0.671,0.347l0.26,0.133
		l0.207-0.205l0.724-0.718l0.726,0.718l0.208,0.205l0.26-0.133l0.667-0.347l0.366,0.773l0.122,0.262l0.287-0.03l0.274-0.033
		c-0.125,0.283-0.218,0.552-0.284,0.774c-0.724-0.403-1.665-0.633-2.626-0.633c-0.956,0-1.896,0.23-2.623,0.633
		C15.311,4.883,15.219,4.614,15.094,4.331z"/>
	<path d="M33.074,18.348c1.661,0,2.217-1.69,2.24-1.762l0.186-0.596l-0.623,0.02h-0.002c-0.219,0-2.053-0.049-3.353-1.701
		L31.4,14.155c-0.849-1.08-1.654-2.107-3.095-2.576c0.042-0.038,0.101-0.084,0.183-0.137c0.764-0.502,1.208-1.113,1.32-1.821
		c0.164-1.066-0.517-1.917-0.547-1.951l-0.462-0.572L28.51,7.777c-0.019,0.043-0.505,1.129-1.528,1.129h-0.076
		c-0.07-0.004-0.137-0.007-0.203-0.012c0.036-0.484-0.052-1.234-0.733-1.938c-0.818-0.847-1.821-0.974-2.345-0.974
		c-0.28,0-0.466,0.035-0.487,0.037L22.44,6.157l0.431,0.568c0.338,0.438,0.645,1.246,0.281,1.668
		c-0.117,0.135-0.356,0.243-0.584,0.353c-0.471,0.216-1.114,0.519-1.114,1.287c0,0.497,0.386,1.017,1.085,1.459
		c2.069,1.301,3.345,2.659,3.896,4.157c0.853,2.305-0.26,3.62-1.341,4.313l-0.485,0.312l0.424,0.39
		c0.057,0.05,0.576,0.508,1.343,0.573c0.145,0.009,0.284,0.018,0.414,0.018c0.491,0,0.91-0.077,1.25-0.181
		c-0.093,0.164-0.209,0.331-0.353,0.499c-0.618,0.715-1.378,1.041-2.47,1.059l-0.406,0.007l-0.031,0.407
		c-0.004,0.082-0.034,0.838,0.68,1.479c0.109,0.1,0.241,0.181,0.38,0.248c-0.485,0.437-0.978,1.197-1.073,2.499
		c-0.081,1.087-0.339,1.489-0.343,1.493l-0.448,0.685l0.811,0.011c1.34,0,2.366-0.37,3.077-1.102c0.42-0.433,0.66-0.923,0.802-1.356
		c0.233,0.198,0.534,0.373,0.927,0.466c0.149,0.035,0.312,0.054,0.488,0.054c0.378,0,0.695-0.08,0.731-0.089l0.518-0.138
		l-0.229-0.483c-0.017-0.039-0.449-1.009,0.016-2.392c0.2-0.599,0.302-1.134,0.352-1.552c0.326,0.17,0.763,0.31,1.327,0.312
		c1.282,0,1.847-0.958,1.872-0.998l0.253-0.44l-0.468-0.193c-1.528-0.634-1.866-2.338-1.934-3.259
		c0.138,0.027,0.296,0.051,0.474,0.056L33.074,18.348z M34.285,21.958c0,0-0.447,0.778-1.474,0.778h-0.013
		c-1.232-0.007-1.729-0.759-1.729-0.759s0.071,0.978-0.372,2.297c-0.535,1.591,0.005,2.727,0.005,2.727s-0.288,0.078-0.619,0.078
		c-0.127,0-0.259-0.013-0.384-0.045c-1.029-0.244-1.286-1.181-1.286-1.181s0.095,3.164-3.595,3.164H24.79
		c0,0,0.325-0.442,0.421-1.715c0.175-2.348,1.765-2.67,1.765-2.67s-0.848-0.107-1.216-0.436c-0.575-0.521-0.534-1.123-0.534-1.123
		c1.298-0.018,2.148-0.46,2.796-1.21c0.702-0.812,0.817-1.686,0.817-1.686s-0.698,0.633-2.047,0.633
		c-0.119,0-0.246-0.006-0.376-0.018c-0.639-0.052-1.08-0.458-1.08-0.458c1.405-0.901,2.39-2.473,1.517-4.84
		c-0.7-1.897-2.383-3.314-4.077-4.382c-0.563-0.352-0.878-0.744-0.878-1.08c0-0.793,1.128-0.818,1.59-1.351
		c0.534-0.619,0.199-1.623-0.263-2.227c0,0,0.156-0.032,0.401-0.032c0.488,0,1.331,0.123,2.025,0.842
		c0.921,0.952,0.539,1.99,0.539,1.99l0.247,0.048c0.147,0.031,0.294,0.037,0.447,0.045c0.033,0,0.067,0.002,0.099,0.002
		c1.338,0,1.936-1.399,1.936-1.399s1.422,1.749-0.672,3.121c-0.36,0.234-0.519,0.452-0.477,0.683l0.032,0.152l0.149,0.027
		c1.518,0.412,2.286,1.459,3.224,2.649c1.425,1.81,3.439,1.869,3.688,1.869h0.027c0,0-0.46,1.452-1.815,1.452
		c-0.023,0-0.042,0-0.064-0.001c-0.622-0.022-0.942-0.261-0.942-0.261S31.825,20.936,34.285,21.958z"/>
	<path d="M30.154,11.763c0.62,0.33,0.981,0.773,1.297,1.165c0.311,0.383,0.606,0.751,1.068,0.905
		c0.164,0.056,0.338,0.083,0.516,0.083c0.693,0,1.389-0.424,1.653-1.012l0.266-0.589l-0.643-0.038
		c-0.03-0.001-0.857-0.077-1.777-1.016c-0.378-0.386-0.836-0.588-1.329-0.588c-0.602,0-1.049,0.301-1.098,0.332l-0.591,0.416
		L30.154,11.763z M31.207,11.116c0.309,0,0.67,0.105,1.011,0.458c1.071,1.087,2.067,1.148,2.067,1.148
		c-0.181,0.401-0.706,0.752-1.249,0.752c-0.126,0-0.252-0.019-0.377-0.062c-0.737-0.249-1-1.353-2.294-2.042
		C30.365,11.37,30.726,11.116,31.207,11.116z"/>
	<path d="M30.445,17.654c-0.373-3.009-2.558-5.182-4.989-6.503c-0.225-0.121-0.433-0.223-0.634-0.321
		c0.74,0.115,1.932,0.129,2.852-0.67c0,0-1.408,1.036-4.292,0.095c0.798,0.518,2.349,1.249,3.766,2.433
		c3.54,3.111,1.008,6.145,1.008,6.145c1.272-1.328,1.325-2.75,0.951-3.912c0.67,1.115,1.098,2.468,1.031,4.138
		c-0.097,2.391-1.412,4.459-2.794,6.121c-0.665,0.806-0.813,1.797-0.813,1.797s0.268-0.874,1.037-1.774
		c1.482-1.735,2.749-3.537,2.915-6.134c0.153,0.472,0.785,1.781,1.786,2.275c0,0-1.258-0.758-1.824-3.713V17.654z"/>
	<path d="M2.929,18.348l0.08-0.002c0.176-0.005,0.334-0.029,0.474-0.056c-0.069,0.922-0.408,2.625-1.936,3.259l-0.467,0.193
		l0.253,0.44c0.024,0.04,0.591,0.998,1.876,0.998c0.561-0.002,0.997-0.142,1.324-0.312c0.05,0.417,0.152,0.952,0.352,1.551
		c0.465,1.383,0.032,2.354,0.016,2.392l-0.23,0.483l0.519,0.138c0.034,0.008,0.353,0.089,0.73,0.089c0.176,0,0.34-0.019,0.487-0.054
		c0.393-0.093,0.697-0.267,0.928-0.466c0.141,0.433,0.382,0.923,0.801,1.356c0.713,0.733,1.738,1.102,3.077,1.102l0.812-0.011
		l-0.449-0.685c-0.001-0.004-0.259-0.406-0.341-1.493c-0.096-1.302-0.589-2.062-1.075-2.499c0.14-0.067,0.271-0.148,0.38-0.248
		c0.714-0.642,0.684-1.397,0.679-1.479l-0.028-0.407l-0.409-0.007c-1.089-0.017-1.851-0.343-2.468-1.059
		c-0.143-0.168-0.259-0.336-0.354-0.499c0.34,0.104,0.756,0.181,1.249,0.181c0.132,0,0.27-0.008,0.415-0.017
		c0.767-0.066,1.286-0.523,1.344-0.573l0.425-0.39l-0.485-0.312c-1.084-0.693-2.193-2.008-1.341-4.313
		c0.552-1.499,1.826-2.856,3.898-4.157c0.699-0.442,1.082-0.962,1.082-1.459c0-0.768-0.641-1.07-1.112-1.287
		c-0.229-0.11-0.468-0.218-0.584-0.353c-0.364-0.422-0.057-1.23,0.281-1.668l0.434-0.568l-0.702-0.139
		c-0.021-0.002-0.205-0.037-0.486-0.037c-0.525,0-1.525,0.127-2.343,0.974C9.354,7.66,9.265,8.409,9.3,8.894
		C9.234,8.899,9.168,8.902,9.098,8.905H9.023c-1.025,0-1.51-1.086-1.529-1.129L7.206,7.098L6.739,7.67
		C6.713,7.705,6.031,8.555,6.197,9.621c0.11,0.708,0.555,1.319,1.319,1.821c0.083,0.053,0.141,0.099,0.183,0.137
		c-1.442,0.468-2.247,1.496-3.096,2.576l-0.123,0.153c-1.298,1.652-3.135,1.701-3.355,1.701L0.5,15.989l0.191,0.596
		C0.713,16.657,1.267,18.348,2.929,18.348z M1.141,16.452c0.25,0,2.263-0.059,3.687-1.869c0.938-1.19,1.707-2.237,3.223-2.649
		l0.152-0.026l0.032-0.152c0.042-0.232-0.117-0.449-0.477-0.684C5.665,9.7,7.087,7.951,7.087,7.951S7.682,9.35,9.023,9.35
		c0.032,0,0.063-0.001,0.098-0.001C9.272,9.34,9.42,9.334,9.568,9.303l0.247-0.048c0,0-0.383-1.038,0.54-1.991
		c0.694-0.719,1.537-0.841,2.024-0.841c0.247,0,0.4,0.031,0.4,0.031c-0.461,0.605-0.796,1.608-0.262,2.227
		c0.462,0.532,1.588,0.558,1.588,1.351c0,0.336-0.314,0.728-0.877,1.08c-1.695,1.067-3.377,2.484-4.077,4.382
		c-0.873,2.367,0.112,3.939,1.519,4.84c0,0-0.442,0.406-1.082,0.458c-0.13,0.013-0.256,0.018-0.377,0.018
		c-1.348,0-2.046-0.633-2.046-0.633s0.116,0.875,0.814,1.687c0.652,0.749,1.501,1.191,2.799,1.209c0,0,0.041,0.602-0.533,1.123
		c-0.368,0.329-1.218,0.436-1.218,0.436s1.591,0.322,1.766,2.67c0.095,1.272,0.418,1.715,0.418,1.715h-0.026
		c-3.69,0-3.595-3.164-3.595-3.164s-0.257,0.937-1.286,1.181c-0.123,0.033-0.255,0.045-0.383,0.045
		c-0.331,0-0.617-0.078-0.617-0.078s0.536-1.136,0.002-2.727c-0.442-1.319-0.371-2.297-0.371-2.297s-0.496,0.752-1.729,0.759H3.193
		c-1.026,0-1.474-0.778-1.474-0.778c2.458-1.021,2.218-4.316,2.218-4.316s-0.32,0.238-0.943,0.261
		c-0.023,0.001-0.043,0.001-0.065,0.001c-1.356,0-1.815-1.452-1.815-1.452H1.141z"/>
	<path d="M1.693,12.277l-0.642,0.038l0.264,0.589c0.265,0.587,0.961,1.011,1.653,1.011c0.178,0,0.352-0.027,0.517-0.083
		c0.464-0.154,0.758-0.521,1.069-0.905c0.318-0.392,0.676-0.835,1.295-1.165l0.638-0.342l-0.592-0.416
		c-0.05-0.031-0.494-0.331-1.096-0.331c-0.494,0-0.952,0.202-1.331,0.588C2.547,12.201,1.723,12.276,1.693,12.277z M4.798,11.116
		c0.478,0,0.84,0.254,0.84,0.254c-1.292,0.689-1.559,1.794-2.297,2.042c-0.122,0.043-0.248,0.062-0.374,0.062
		c-0.543,0-1.068-0.351-1.248-0.752c0,0,0.995-0.061,2.065-1.148C4.127,11.222,4.487,11.116,4.798,11.116z"/>
	<path d="M3.735,21.345c1-0.494,1.63-1.803,1.784-2.275c0.167,2.597,1.434,4.399,2.916,6.134c0.769,0.9,1.04,1.774,1.04,1.774
		s-0.15-0.991-0.818-1.797c-1.38-1.661-2.694-3.729-2.79-6.121c-0.069-1.669,0.359-3.022,1.03-4.138
		c-0.374,1.162-0.323,2.584,0.951,3.912c0,0-2.533-3.035,1.009-6.146c1.416-1.184,2.966-1.915,3.764-2.433
		c-2.883,0.941-4.291-0.095-4.291-0.095c0.92,0.798,2.112,0.784,2.852,0.669c-0.2,0.098-0.41,0.2-0.633,0.321
		c-2.432,1.321-4.616,3.494-4.991,6.503v-0.023C4.992,20.587,3.735,21.345,3.735,21.345z"/>
	<path d="M17.772,13.37v0.86c0,0-0.014,0.423-0.164,0.606h0.431h0.429c-0.148-0.183-0.164-0.606-0.164-0.606v-0.86
		c0,0,0.398-0.051,0.603,0.199v-0.597h-0.869h-0.87v0.597C17.375,13.319,17.772,13.37,17.772,13.37z"/>
	<path d="M16.799,9.434c0.276,0.218,0.434,0.255,0.439,0.258l0.108,0.05V9.18l-1.011-0.425C16.335,8.755,16.343,9.08,16.799,9.434z"
		/>
	<path d="M19.204,9.434c0.457-0.354,0.466-0.679,0.466-0.679L18.658,9.18v0.562l0.107-0.05C18.77,9.688,18.929,9.652,19.204,9.434z"
		/>
	<path d="M15.544,29.109c1.459,0,1.655-0.067,2.46,0.735c0.801-0.802,0.997-0.735,2.457-0.735c1.888,0,3.63-1.082,3.63-3.351v-9.372
		c0-0.72,0.296-1.383,0.608-2.008h-4.236c0.094-0.132,0.19-0.269,0.285-0.425c0.078-0.124,0.161-0.239,0.246-0.346
		c0.342-0.428,0.761-0.711,1.313-0.711c0.765,0,1.173,0.54,1.264,1.058c0.364-0.262,0.232-0.897-0.397-1.331
		c-0.169-0.117-0.539-0.307-0.539-0.307h0.006l-1.646-0.96l-0.633-0.369l0.633-3.631l0.031-0.21c0-0.853-1.435-1.62-3.019-1.62
		h-0.001h-0.004h-0.004c-1.584,0-3.019,0.767-3.019,1.62l0.031,0.21l0.633,3.631l-0.635,0.369l-1.644,0.96h0.006
		c0,0-0.37,0.19-0.541,0.307c-0.626,0.435-0.759,1.069-0.395,1.331c0.089-0.517,0.498-1.058,1.264-1.058
		c0.551,0,0.972,0.285,1.31,0.711c0.088,0.108,0.17,0.223,0.248,0.346c0.095,0.156,0.191,0.293,0.285,0.425h-4.234
		c0.311,0.626,0.607,1.288,0.607,2.008v9.372C11.912,28.026,13.657,29.109,15.544,29.109z M20.165,28.503
		c-0.166,0-0.32,0.002-0.457,0.008l0.362-1.126c0.057-0.156-0.229-0.356-0.347-0.532c0.178,0.112,0.64,0.357,0.862,0.455
		C20.561,27.344,20.165,28.503,20.165,28.503z M21.301,27.223l-0.236,1.233c-0.151,0.021-0.31,0.032-0.475,0.039l0.249-1.185
		c0.074-0.352-0.871-0.462-1.338-1.154c-0.228,0.256-0.657,0.333-1.089,0.333c-0.394,0-0.787-0.063-1.026-0.11
		c-0.06-0.01-0.118-0.016-0.176-0.016c-0.138,0-0.264,0.043-0.351,0.189l-0.068,0.116l-1.288-0.304l-0.32,0.531
		c-0.045,0.086-0.049,0.158,0.024,0.239l0.087,0.095c-0.06,0.188-0.328,0.471-0.328,0.471l-0.191-0.239
		c-0.152-0.169-0.127-0.48,0.031-0.767l0.511-0.863l1.091,0.158l-0.169-0.386c-0.228-0.511,0.119-1.161,0.156-1.536
		c-0.013,0.113-0.117,0.139-0.237,0.139c-0.11,0-0.233-0.021-0.315-0.021c-0.032,0-0.06,0.003-0.074,0.014l-0.296,0.179
		l-0.233-0.206c-0.028-0.039-0.037-0.132,0.031-0.202l0.54-0.606l-0.638-0.745l0.893,0.448l0.273-0.33
		c0.075,0.073,0.042,0.265,0.042,0.265c0.278,0.007,1.06,0.439,1.102,1.448c0.002,0.031,0.002,0.065,0.002,0.099
		c0,0,0.007,0.013,0.021,0.033c0.055,0.076,0.208,0.271,0.401,0.289l1.234,0.122h0.005c0.135,0,0.405-0.159,0.751-0.159
		c0.188,0,0.397,0.048,0.621,0.189c0,0,0.112-0.089,0.294-0.098c0.014-0.002,0.03-0.002,0.043-0.002c0.553,0,0.783,0.5,1.081,0.916
		c0.223,0.317,0.522,0.787,0.522,0.787c-0.11,0.131-0.213,0.204-0.385,0.204c-0.047,0-0.101-0.004-0.159-0.016
		c-0.594-0.109-0.679-1.33-1.018-1.426c-0.018-0.005-0.037-0.007-0.054-0.007c-0.109,0-0.157,0.097-0.157,0.097
		c0.155,0.416,0.064,0.584,0.231,0.905c0.124,0.238,0.345,0.433,0.437,0.526C21.352,26.908,21.327,27.089,21.301,27.223z
		 M14.668,26.059l0.057,0.143c-0.038,0.125-0.465,0.301-0.465,0.301L14.167,26.3c-0.098-0.215-0.077-0.579,0.221-0.801l0.693-0.422
		l0.735,0.156c-0.014,0.233,0.126,0.408,0.126,0.408l-0.77-0.148l-0.461,0.319C14.633,25.865,14.627,25.965,14.668,26.059z
		 M21.417,28.389l0.212-1.103c0.011-0.065,0.025-0.141,0.034-0.204c0.06,0.025,0.123,0.045,0.191,0.058
		c0.079,0.015,0.152,0.023,0.218,0.023c0.323,0,0.512-0.17,0.637-0.315l0.162-0.189l-0.133-0.207
		c-0.012-0.021-0.306-0.485-0.531-0.803c-0.045-0.063-0.087-0.125-0.13-0.192c-0.257-0.385-0.578-0.866-1.223-0.866l-0.058,0.001
		c-0.106,0.007-0.197,0.028-0.271,0.056c-0.203-0.095-0.412-0.144-0.629-0.144c-0.267,0-0.491,0.074-0.641,0.124
		c-0.043,0.013-0.081,0.026-0.111,0.032l-1.205-0.118c-0.015-0.003-0.064-0.032-0.124-0.103v-0.006l0.261-0.104
		c-0.074-0.869-0.908-1.403-1.373-1.584c-0.02-0.087-0.062-0.174-0.135-0.244l-0.259-0.246l-0.228,0.273l-0.112,0.139l-1.688-0.693
		l1.098,1.379l-0.433,0.657c-0.159,0.168,0.016,0.337,0.016,0.337l0.448,0.308l0.464-0.173c0.016,0,0.03,0.004,0.046,0.006
		c-0.023,0.071-0.052,0.347-0.071,0.424l-0.806-0.158l-0.846,0.478c-0.435,0.32-0.494,0.848-0.333,1.21l0.094,0.205l0.133,0.29
		l0.296-0.123c0.004-0.001,0.008-0.003,0.011-0.005c-0.107,0.34-0.063,0.664,0.126,0.875l0.18,0.226l0.239,0.302l0.263-0.282
		c0.077-0.077,0.328-0.358,0.405-0.598l0.057-0.183l-0.128-0.141l-0.021-0.025l0.144-0.238l1.051,0.248l0.237,0.055l0.126-0.208
		l0.068-0.113c0.013-0.024,0.016-0.028,0.065-0.028c0.037,0,0.074,0.004,0.115,0.013c0.397,0.075,0.763,0.112,1.088,0.112
		c0.315,0,0.503-0.012,0.728-0.087c0,0,0.564,0.641,0.584,0.666l-0.346,1.067l-0.015,0.064c-0.655,0.053-0.973,0.197-1.359,0.582
		c-0.56-0.555-0.956-0.614-2.46-0.614c-1.8,0-3.02-1.055-3.02-2.741v-4.121h10.957l0.002,4.121
		C23.483,27.124,22.68,28.078,21.417,28.389z M23.785,14.988c-0.168,0.443-0.306,0.921-0.306,1.398l0.001,3.075
		c-0.643-0.108-0.718-0.8-0.721-0.83l-0.012-0.141l-0.138-0.012c-0.279-0.027-0.465-0.145-0.621-0.297
		c-0.315-0.315-0.316-0.826-0.315-0.83c-0.005,0.026-0.347,0.506,0.051,1.03c0.167,0.22,0.409,0.356,0.723,0.41
		c0.074,0.384,0.359,0.926,1.034,1.008v1.505h-1.896c-0.874-0.487-0.504-1.343-0.487-1.379l0.074-0.162l-0.167-0.063
		c-0.947-0.351-0.686-1.295-0.673-1.336l0.038-0.138l-0.129-0.061c-0.781-0.363-0.676-1.338-0.665-1.379
		c-0.241,0.195-0.327,0.593-0.162,0.982c-0.089,0.103-0.21,0.226-0.342,0.363c-0.81-0.206-0.835-0.95-0.835-0.984l-0.002-0.115
		l-0.107-0.041c-0.316-0.117-0.533-0.293-0.64-0.528c-0.12-0.261-0.078-0.535-0.045-0.666c0.093,0.021,0.185,0.036,0.273,0.043
		c0.091,0.009,0.184,0.015,0.278,0.015h0.006h0.007c0.094,0,0.186-0.006,0.278-0.015c0.505-0.05,1.069-0.267,1.658-0.85H23.785z
		 M20.193,19.488c-0.338,0.249-1.208,0.885-1.524,1.105l-3.039-0.546c0.007-0.027,0.014-0.055,0.021-0.081
		c0.04-0.158,0.081-0.373,0.083-0.626l2.554,0.041l0.049-0.05c0.039-0.039,0.848-0.821,1.261-1.27
		c0.098,0.123,0.22,0.24,0.382,0.343C19.924,18.703,19.947,19.129,20.193,19.488z M19.817,10.953l-1.638,0.863V8.321l2.222-0.754
		L19.817,10.953z M18.001,6.066c1.276,0.001,2.231,0.418,2.437,0.909l-2.437,0.962l-2.436-0.962
		C15.772,6.484,16.727,6.067,18.001,6.066z M15.599,7.567l2.224,0.754v3.494l-1.637-0.863L15.599,7.567z M15.491,13.319
		c-0.014-0.019-0.026-0.034-0.04-0.051c-0.058-0.071-0.117-0.141-0.177-0.206c-0.013-0.01-0.021-0.023-0.032-0.033
		c-0.273-0.278-0.594-0.487-1.018-0.604l0.19-0.11h0.008l0.75-0.435l0.77-0.441l2.056,1.119l0.004-0.005l0.006,0.005l2.055-1.119
		l0.769,0.441l0.749,0.435h0.01l0.188,0.11c-0.423,0.117-0.746,0.329-1.017,0.606c-0.01,0.009-0.019,0.019-0.03,0.029
		c-0.062,0.066-0.124,0.138-0.183,0.211c-0.011,0.014-0.023,0.029-0.035,0.045c-0.058,0.074-0.112,0.151-0.165,0.231
		c-0.009,0.014-0.018,0.027-0.028,0.04c-0.062,0.093-0.122,0.191-0.181,0.294c-0.533,0.919-1.384,1.468-2.141,1.469
		c-0.756-0.001-1.607-0.55-2.139-1.469c-0.058-0.1-0.117-0.196-0.178-0.29c-0.012-0.017-0.023-0.036-0.035-0.051
		C15.597,13.464,15.544,13.389,15.491,13.319z M16.06,14.988c0.365,0.363,0.723,0.589,1.063,0.713
		c-0.044,0.175-0.102,0.537,0.061,0.897c0.134,0.291,0.377,0.515,0.727,0.664c0.038,0.359,0.266,0.899,0.894,1.138
		c-0.276,0.277-0.543,0.539-0.651,0.645l-2.549-0.041c-0.058-0.029-0.156-0.094-0.201-0.186c-0.005-0.013-0.013-0.02-0.019-0.032
		l0.416,0.067c0.009,0.001,0.018,0.001,0.027,0.001c0.081,0,0.151-0.056,0.164-0.138c0.014-0.092-0.048-0.177-0.138-0.191
		l-0.512-0.081l0.568-1.961l-0.538-1.132l-0.861,0.911l-0.053,2.039l-0.579-0.092c-0.089-0.017-0.175,0.048-0.191,0.139
		c-0.014,0.089,0.047,0.175,0.138,0.191l0.243,0.037c-0.087,0.049-0.144,0.089-0.151,0.094l-0.049,0.035l-0.014,0.06
		c-0.141,0.572,0.178,1.115,0.522,1.358l-0.012,0.072c-0.014,0.088,0.006,0.174,0.059,0.246c0.05,0.073,0.126,0.117,0.213,0.133
		c0.017,0.003,0.037,0.005,0.053,0.005c0.149,0,0.279-0.103,0.316-0.254c0.128,0.015,0.246,0.018,0.326,0.018h0.068l3.344,0.604
		l0.057-0.038c0.266-0.186,1.282-0.926,1.615-1.172c0.091,0.079,0.194,0.15,0.317,0.21c-0.108,0.361-0.115,0.918,0.312,1.358h-8.523
		v-4.918c0-0.476-0.139-0.955-0.304-1.398H16.06z M15.104,18.962c0.072,0.151,0.201,0.251,0.292,0.308
		c-0.003,0.141-0.016,0.36-0.054,0.554c-0.009,0.043-0.02,0.083-0.032,0.123c-0.006,0.025-0.014,0.046-0.019,0.062
		c-0.134,0-0.397-0.016-0.614-0.095c-0.239-0.088-0.595-0.526-0.513-1.009c0.103-0.063,0.343-0.198,0.567-0.198
		C14.904,18.707,15.022,18.788,15.104,18.962z M14.788,18.355l0.052-1.958l0.439-0.465l0.276,0.578l-0.544,1.879L14.788,18.355z"/>
</g>
</svg>
