<?xml version="1.0" encoding="utf-8"?>
<!-- Generator: Adobe Illustrator 19.2.1, SVG Export Plug-In . SVG Version: 6.00 Build 0)  -->
<svg version="1.0" id="Layer_2" xmlns="http://www.w3.org/2000/svg" xmlns:xlink="http://www.w3.org/1999/xlink" x="0px" y="0px"
	 width="30px" height="30px" viewBox="0 0 30 30" enable-background="new 0 0 30 30" xml:space="preserve">
<g id="check">
</g>
<g>
	<path d="M2,14.291c0,0.851,0.095,1.702,0.189,2.553c0.284,1.513,0.851,2.931,1.513,4.16c0.945,1.607,2.174,3.025,3.687,4.065
		c1.04,0.756,2.08,1.324,3.309,1.702c0.473,0.189,1.04,0.284,1.607,0.473c0.756,0.189,1.513,0.284,2.364,0.284h0.756
		c0.378,0,0.851,0,1.324-0.095c1.796-0.189,3.593-0.851,5.105-1.796c1.513-0.945,2.836-2.175,3.782-3.593
		c1.04-1.513,1.796-3.215,2.175-5.011c0-0.189,0.095-0.473,0.095-0.756C28,15.709,28,15.047,28,14.48v-0.378
		c0-0.567-0.095-1.04-0.189-1.607c-0.189-1.418-0.662-2.742-1.324-3.971l-16.64,9.644L2,13.629V14.291z"/>
	<path d="M2.284,11.549c0,0.189-0.095,0.284-0.095,0.473l7.658,4.444l15.978-9.171c-0.189-0.284-0.284-0.473-0.473-0.662
		c-0.095-0.095-0.095-0.189-0.189-0.284c0-0.095-0.095-0.095-0.095-0.189L9.847,14.858l-7.28-4.255
		C2.473,10.887,2.378,11.265,2.284,11.549z"/>
	<path d="M21.571,3.229c-0.473-0.284-1.04-0.567-1.513-0.756L9.847,8.335L5.309,5.687C5.025,6.065,4.742,6.444,4.458,6.822
		l5.389,3.12L21.571,3.229z"/>
	<path d="M3.04,9.28l6.807,3.971L24.029,5.12c-0.378-0.378-0.756-0.662-1.135-0.945L9.847,11.549L3.702,8.051
		C3.418,8.429,3.229,8.902,3.04,9.28z"/>
</g>
</svg>
