<?xml version="1.0" encoding="utf-8"?>
<!-- Generator: Adobe Illustrator 19.2.1, SVG Export Plug-In . SVG Version: 6.00 Build 0)  -->
<svg version="1.0" id="art" xmlns="http://www.w3.org/2000/svg" xmlns:xlink="http://www.w3.org/1999/xlink" x="0px" y="0px"
	 width="24px" height="24px" viewBox="0 0 24 24" enable-background="new 0 0 24 24" xml:space="preserve">
<g id="check">
</g>
<path fill="#DF493A" d="M21.891,7.236c1.797-2.051,0.391-3.199-1.842-3.166c2.172,0.237,1.945,0.817,1.945,1.282
	c0,0.468-0.936,1.287-2.107,2.341c0,0-1.989,1.872-3.511,3.16c-1.521,1.287-6.085,5.266-7.022,5.968
	c-0.936,0.702-4.447,3.277-4.681,3.511c-0.198,0.099-0.644,0.525-0.99,0.446c0.444,0.291,1.051,0.241,1.668,0.005
	c0.366,0.281,0.749,0.543,1.154,0.778C8.062,22.489,10.014,23,12,23c1.971,0,3.822-0.485,5.5-1.44C20.892,19.585,23,15.923,23,12
	C23,10.324,22.595,8.705,21.891,7.236z"/>
<path fill="#DF493A" d="M12.865,6.99c0-0.234,0.117-0.468-0.234-0.585c-0.351-0.234-1.404-0.819-1.638-1.053
	c-0.234-0.117-0.234-0.819,0.468-0.936c0.661-0.11,5.682-0.531,8.121-0.384c-0.623-0.599-1.307-1.14-2.069-1.584
	C15.685,1.487,13.804,1,11.922,1C9.951,1,8.1,1.485,6.431,2.435C3.03,4.537,1,8.113,1,12c0,2.771,1.066,5.4,2.882,7.408
	C4.889,17.913,10.92,9.286,11.46,8.746C11.46,8.746,12.748,7.107,12.865,6.99z"/>
<path fill="#FFFFFF" d="M4.673,20.332c0.234-0.234,3.745-2.809,4.681-3.511c0.936-0.702,5.5-4.681,7.022-5.968
	c1.521-1.287,3.511-3.16,3.511-3.16c1.17-1.053,2.107-1.872,2.107-2.341c0-0.465,0.228-1.044-1.945-1.282
	c-0.016-0.002-0.029-0.004-0.045-0.005c-0.129-0.014-0.272-0.024-0.422-0.033c-2.439-0.147-7.46,0.274-8.121,0.384
	c-0.702,0.117-0.702,0.819-0.468,0.936c0.234,0.234,1.287,0.819,1.638,1.053c0.351,0.117,0.234,0.351,0.234,0.585
	c-0.117,0.117-1.404,1.755-1.404,1.755c-0.541,0.541-6.571,9.167-7.579,10.662c-0.083,0.123-0.136,0.204-0.145,0.222
	c-0.234,0.351-0.585,0.702-0.234,1.053c0.055,0.055,0.116,0.081,0.18,0.095C4.028,20.857,4.475,20.43,4.673,20.332z"/>
</svg>
