<?xml version="1.0" encoding="utf-8"?>
<!-- Generator: Adobe Illustrator 19.2.1, SVG Export Plug-In . SVG Version: 6.00 Build 0)  -->
<svg version="1.0" id="Layer_2" xmlns="http://www.w3.org/2000/svg" xmlns:xlink="http://www.w3.org/1999/xlink" x="0px" y="0px"
	 width="18px" height="18px" viewBox="0 0 18 18" enable-background="new 0 0 18 18" xml:space="preserve">
<g id="check">
</g>
<g>
	<path d="M9,2C5.155,2,2,5.155,2,9c0,3.845,3.106,7,7,7c3.894,0,7-3.155,7-7C16,5.155,12.845,2,9,2z M7.718,13.289
		c-0.099,0.197-0.296,0.247-0.493,0.247c-0.099,0-0.246-0.049-0.345-0.099l-0.345-0.148c-1.43-0.739-2.317-2.268-2.317-3.993v-0.69
		c0-1.676,0.887-3.204,2.317-3.993l0.296-0.148C6.93,4.415,7.077,4.366,7.176,4.366c0.197,0,0.394,0.099,0.493,0.246
		c0.099,0.148,0.099,0.296,0.099,0.493c0,0.345-0.247,0.493-0.247,0.493C6.683,5.993,6.19,6.831,6.19,7.768v2.465
		c0,0.937,0.493,1.824,1.331,2.169c0.049,0.049,0.247,0.148,0.296,0.394C7.866,12.993,7.817,13.141,7.718,13.289z M11.416,13.338
		l-0.345,0.148c-0.099,0.049-0.246,0.099-0.345,0.099c-0.246,0-0.394-0.099-0.493-0.246c-0.099-0.148-0.099-0.296-0.049-0.493
		c0.049-0.246,0.246-0.345,0.296-0.394c0.838-0.394,1.331-1.232,1.331-2.169V7.817c0-0.937-0.493-1.824-1.331-2.169
		c0,0-0.246-0.099-0.296-0.394c-0.049-0.197,0-0.345,0.049-0.493c0.099-0.148,0.296-0.246,0.493-0.246
		c0.099,0,0.247,0.049,0.345,0.099l0.296,0.148c1.43,0.739,2.317,2.268,2.317,3.993c0.049-0.099,0.049,0.592,0.049,0.592
		C13.732,11.021,12.845,12.549,11.416,13.338z"/>
</g>
</svg>
