<?xml version="1.0" encoding="utf-8"?>
<!-- Generator: Adobe Illustrator 19.2.1, SVG Export Plug-In . SVG Version: 6.00 Build 0)  -->
<svg version="1.0" id="art" xmlns="http://www.w3.org/2000/svg" xmlns:xlink="http://www.w3.org/1999/xlink" x="0px" y="0px"
	 width="24px" height="24px" viewBox="0 0 24 24" enable-background="new 0 0 24 24" xml:space="preserve">
<g id="check">
</g>
<g>
	<path fill="#184A81" d="M12.645,10.49c-3.833,0-7.086,2.614-7.086,6.04c0,1.045,0.348,2.149,0.987,3.136
		c1.801-1.684,3.427-4.821,4.008-8.422c0.058,0,0.581-0.174,1.045-0.174c0,0.523-0.465,8.364-3.194,11.21
		c-2.033-1.394-3.485-3.775-3.485-6.447c0-3.717,2.556-6.737,5.982-7.492c0.174-2.439,0.174-3.485,0.174-4.705h0.581
		c0,0,0,3.485-0.058,4.588c0.232,0,0.407-0.058,0.639-0.058V0.5h0.523v7.667c0.232,0,0.407,0,0.639,0.058
		c0-1.104-0.058-4.588-0.058-4.588h0.581c0,1.22,0,2.207,0.174,4.705c3.485,0.755,5.982,3.833,5.982,7.492
		c0,2.672-1.336,5.053-3.485,6.389c-2.788-2.788-3.194-10.687-3.194-11.21c0.407,0,0.929,0.174,1.045,0.174
		c0.581,3.717,2.149,6.737,4.008,8.422c0.697-0.987,0.987-2.091,0.987-3.136C19.673,13.104,16.42,10.49,12.645,10.49 M10.206,23.152
		c1.104-1.917,1.742-5.634,1.975-12.139h0.813c0.232,6.505,0.871,10.222,1.975,12.139C14.213,23.384,13.4,23.5,12.587,23.5
		S10.961,23.384,10.206,23.152L10.206,23.152z"/>
</g>
</svg>
