<?xml version="1.0" encoding="utf-8"?>
<!-- Generator: Adobe Illustrator 19.2.1, SVG Export Plug-In . SVG Version: 6.00 Build 0)  -->
<svg version="1.0" id="Layer_2" xmlns="http://www.w3.org/2000/svg" xmlns:xlink="http://www.w3.org/1999/xlink" x="0px" y="0px"
	 width="18px" height="18px" viewBox="0 0 18 18" enable-background="new 0 0 18 18" xml:space="preserve">
<g id="check">
</g>
<g>
	<path fill="#FFFFFF" d="M6.396,4h8.535h1.048c0.109-0.339,0.199-0.675,0.251-1H6.059c-0.397,0.288-0.77,0.63-1.126,1
		c-0.301,0.312-0.59,0.643-0.857,1C3.837,5.318,3.617,5.655,3.409,6C3.212,6.325,3.031,6.659,2.863,7
		C2.701,7.329,2.553,7.662,2.42,8C2.289,8.332,2.172,8.666,2.071,9C2.049,9.074,2.021,9.148,2,9.222
		C2.074,9.487,2.162,9.745,2.255,10c0.75,2.045,2.105,3.769,3.803,5h10.123c-0.296-1.86-1.679-3.686-2.984-5
		c-0.28-0.282-0.697-0.662-1.072-1l-1.118,0H9.341H4c0.075,0.359,0.313,0.742,0.435,1h5.795h1.517c0.621,0.547,2.331,2.162,3.105,4
		H6.392c-1.36-1.054-2.393-2.448-3.037-4C3.248,9.741,3.126,9.488,3.043,9.221C3.065,9.146,3.095,9.074,3.119,9
		c0.112-0.339,0.239-0.673,0.38-1h1.094h6.081h1.6h1.385c0.268-0.308,0.526-0.647,0.775-1h-1.242h-1.335H5.145H3.979
		c0.19-0.349,0.398-0.681,0.615-1h1.249h6.844h1.225h1.159c0.189-0.329,0.362-0.662,0.516-1h-1.103H5.359
		C5.688,4.624,6.036,4.288,6.396,4z"/>
</g>
</svg>
