<?xml version="1.0" encoding="utf-8"?>
<!-- Generator: Adobe Illustrator 19.2.1, SVG Export Plug-In . SVG Version: 6.00 Build 0)  -->
<svg version="1.0" id="art" xmlns="http://www.w3.org/2000/svg" xmlns:xlink="http://www.w3.org/1999/xlink" x="0px" y="0px"
	 width="30px" height="30px" viewBox="0 0 30 30" enable-background="new 0 0 30 30" xml:space="preserve">
<g id="check">
</g>
<polygon fill="#21365F" points="17,5 17,4 2,4 2,5 3.809,5 14.101,5 "/>
<path fill="#21365F" d="M20,4v1h1.567c0.88,0,1.462,0.508,0.957,1.624l-4.109,8.375L20.799,15l4.576-9.188
	C25.747,5.22,26,5,26.373,5H28V4H20z"/>
<circle fill="#21365F" cx="26" cy="13" r="2"/>
<polygon fill="#21365F" points="17.828,14.003 8.46,14.029 8.942,15 18.332,15 "/>
<polygon fill="#21365F" points="16.815,12.003 7.466,12.029 7.948,13 17.32,13 "/>
<polygon fill="#21365F" points="15.803,10.003 6.471,10.029 6.954,11 16.308,11 "/>
<polygon fill="#21365F" points="14.791,8.003 5.477,8.029 5.96,9 15.295,9 "/>
<path fill="#21365F" d="M13.998,6.437c-0.068-0.153-0.109-0.296-0.138-0.433L4.483,6.029L4.966,7h9.317L13.998,6.437z"/>
<polygon fill="#21365F" points="18.838,16 12,16 9.439,16 9.437,16 14.854,26.893 19.773,17 20.058,17 28,17 28,16 20.271,16 "/>
</svg>
