<?xml version="1.0" encoding="utf-8"?>
<!-- Generator: Adobe Illustrator 19.2.1, SVG Export Plug-In . SVG Version: 6.00 Build 0)  -->
<svg version="1.0" id="art" xmlns="http://www.w3.org/2000/svg" xmlns:xlink="http://www.w3.org/1999/xlink" x="0px" y="0px"
	 width="36px" height="36px" viewBox="0 0 36 36" enable-background="new 0 0 36 36" xml:space="preserve">
<g id="check">
</g>
<g>
	<path fill="#4AB9E4" d="M18,3C9.761,3,3,9.761,3,18s6.655,15,15,15s15-6.761,15-15S26.239,3,18,3 M14.831,25.289
		c0.106,0.106,0.528,0.317,0.634,0.845c0.106,0.423,0,0.739-0.211,1.056c-0.211,0.423-0.634,0.528-1.056,0.528
		c-0.211,0-0.528-0.106-0.739-0.211l-0.739-0.317c-3.063-1.585-4.965-4.859-4.965-8.556v-1.479c0-3.592,1.901-6.866,4.965-8.556
		l0.634-0.317c0.211-0.106,0.528-0.211,0.739-0.211c0.423,0,0.845,0.211,1.056,0.528s0.211,0.634,0.211,1.056
		c0,0.739-0.528,1.056-0.528,1.056c-1.796,0.845-2.852,2.641-2.852,4.648v5.282C11.979,22.648,13.035,24.549,14.831,25.289
		 M28.141,18.739c0,3.592-1.901,6.866-4.965,8.556l-0.739,0.317c-0.211,0.106-0.528,0.211-0.739,0.211
		c-0.528,0-0.845-0.211-1.056-0.528c-0.211-0.317-0.211-0.634-0.106-1.056c0.106-0.528,0.528-0.739,0.634-0.845
		c1.796-0.845,2.852-2.641,2.852-4.648v-5.282c0-2.007-1.056-3.908-2.852-4.648c0,0-0.528-0.211-0.634-0.845
		c-0.106-0.423,0-0.739,0.106-1.056c0.211-0.317,0.634-0.528,1.056-0.528c0.211,0,0.528,0.106,0.739,0.211l0.634,0.317
		c3.063,1.585,4.965,4.859,4.965,8.556C28.141,17.261,28.141,18.739,28.141,18.739L28.141,18.739z"/>
</g>
</svg>
