<?xml version="1.0" encoding="utf-8"?>
<!-- Generator: Adobe Illustrator 19.2.1, SVG Export Plug-In . SVG Version: 6.00 Build 0)  -->
<svg version="1.0" id="art" xmlns="http://www.w3.org/2000/svg" xmlns:xlink="http://www.w3.org/1999/xlink" x="0px" y="0px"
	 width="36px" height="36px" viewBox="0 0 36 36" enable-background="new 0 0 36 36" xml:space="preserve">
<g id="check">
</g>
<g>
	<path fill="#DF493A" d="M17.204,13.006c0,0,1.9-2.419,2.073-2.591c0-0.346,0.173-0.691-0.346-0.864
		c-0.518-0.346-2.073-1.209-2.419-1.555c-0.346-0.173-0.346-1.209,0.691-1.382c0.93-0.155,7.687-0.725,11.44-0.591
		c-0.801-0.72-1.678-1.365-2.626-1.916C23.36,2.709,20.624,2,17.887,2c-2.867,0-5.559,0.706-7.987,2.088C4.953,7.145,2,12.346,2,18
		c0,3.976,1.492,7.765,4.066,10.671C7.694,26.265,16.415,13.795,17.204,13.006z"/>
	<path fill="#DF493A" d="M32.407,11.047c3.045-3.223,0.882-5.022-2.556-4.947c3.242,0.348,2.901,1.208,2.901,1.896
		c0,0.691-1.382,1.9-3.11,3.455c0,0-2.937,2.764-5.183,4.664s-8.983,7.774-10.365,8.811s-6.565,4.837-6.91,5.183
		c-0.346,0.173-1.209,1.037-1.728,0.518c0.685,0.684,1.777,0.573,2.85,0.138c0.538,0.414,1.104,0.797,1.699,1.143
		C12.272,33.257,15.111,34,18,34c2.867,0,5.559-0.706,8-2.095c4.935-2.872,8-8.2,8-13.905C34,15.558,33.435,13.187,32.407,11.047z"
		/>
</g>
<path fill="#FFFFFF" d="M7.184,30.108c0.346-0.346,5.528-4.146,6.91-5.183s8.12-6.91,10.365-8.811s5.183-4.664,5.183-4.664
	c1.728-1.555,3.11-2.764,3.11-3.455c0-0.688,0.34-1.548-2.901-1.896c-0.013-0.001-0.023-0.003-0.036-0.004
	c-0.338-0.036-0.74-0.058-1.171-0.073c-3.753-0.133-10.511,0.436-11.44,0.591c-1.037,0.173-1.037,1.209-0.691,1.382
	c0.346,0.346,1.9,1.209,2.419,1.555c0.518,0.173,0.346,0.518,0.346,0.864c-0.173,0.173-2.073,2.591-2.073,2.591
	c-0.789,0.789-9.51,13.259-11.138,15.666c-0.153,0.227-0.249,0.371-0.263,0.4c-0.346,0.518-0.864,1.037-0.346,1.555
	C5.975,31.145,6.839,30.281,7.184,30.108z"/>
</svg>
