<?xml version="1.0" encoding="utf-8"?>
<!-- Generator: Adobe Illustrator 19.2.1, SVG Export Plug-In . SVG Version: 6.00 Build 0)  -->
<svg version="1.0" id="art" xmlns="http://www.w3.org/2000/svg" xmlns:xlink="http://www.w3.org/1999/xlink" x="0px" y="0px"
	 width="36px" height="36px" viewBox="0 0 36 36" enable-background="new 0 0 36 36" xml:space="preserve">
<g id="check">
</g>
<polygon fill="#21365F" points="20,4 20,3 1,3 1,4 2.5,4 16.538,4 "/>
<path fill="#21365F" d="M22.235,18H23h2.223l6.465-13c0.458-0.729,0.77-1,1.228-1H34V3h-9v1h2c1.083,0,1.8,0.625,1.178,2L22.235,18z
	"/>
<circle fill="#21365F" cx="31.5" cy="15.5" r="2.5"/>
<polygon fill="#21365F" points="24.726,19 22.368,19 11,19 10.769,19 10.652,19 17.633,33.045 17.692,32.928 19.58,29.189 
	24.221,20 35,20 35,19 "/>
<polygon fill="#21365F" points="21.355,17.004 9.789,17.029 10.272,18 21.861,18 "/>
<polygon fill="#21365F" points="20.34,15.004 8.795,15.029 9.277,16 20.846,16 "/>
<polygon fill="#21365F" points="19.326,13.004 7.801,13.029 8.283,14 19.831,14 "/>
<polygon fill="#21365F" points="18.311,11.004 6.807,11.029 7.289,12 18.816,12 "/>
<polygon fill="#21365F" points="17.296,9.004 5.813,9.029 6.295,10 17.801,10 "/>
<polygon fill="#21365F" points="16.281,7.004 4.818,7.029 5.301,8 16.787,8 "/>
<path fill="#21365F" d="M15.562,5.003L3.824,5.029L4.307,6h11.465C15.606,5.628,15.548,5.293,15.562,5.003z"/>
</svg>
