<?xml version="1.0" encoding="utf-8"?>
<!-- Generator: Adobe Illustrator 19.2.1, SVG Export Plug-In . SVG Version: 6.00 Build 0)  -->
<svg version="1.0" id="art" xmlns="http://www.w3.org/2000/svg" xmlns:xlink="http://www.w3.org/1999/xlink" x="0px" y="0px"
	 width="30px" height="30px" viewBox="0 0 30 30" enable-background="new 0 0 30 30" xml:space="preserve">
<g id="check">
</g>
<g>
	<path fill="#164A82" d="M7.458,18.281c-0.07-1.966,1.895-2.527,2.246-3.861c0.211-1.123,2.106-1.966,2.527-2.808
		c0.281-0.632,0.491-1.123,1.053-1.474c-0.562,0.07-1.123,0.07-1.404-0.281c-0.491,0.14-1.264,0.211-1.404,0.491
		c-0.07,0.211-0.211,0.351-0.281,0.491c-0.281,0.07-0.491,0-0.562-0.14c0-0.14,0-0.281,0.07-0.491
		c-0.211,0.14-0.351,0.211-0.491,0.281c-0.211-0.281-0.281-0.281-0.562-0.491c0-0.211-0.07-0.562-0.07-0.772
		c0.07-0.281,0.211-0.421,0.351-0.421c0.281,0,0.562-0.14,0.772-0.281c0.351-0.702,1.404-0.983,1.685-1.755
		c0.211,0,0.491,0,0.702-0.07c-0.211-0.491-0.281-0.842-0.14-1.123c0.281,0.211,0.491,0.351,0.772,0.562
		c0.491,0.14,1.053,0.351,1.544,0.491c0.842-0.14,1.544-0.14,1.404,1.053c0.281,0.351,0.562,0.491,0.842,0.491
		c0.07,0.562,0.14,1.193,0.14,1.755c0.421,0.562,0.281,0.983,0,1.334c0.211,1.053-0.07,1.615-0.632,2.036
		c0.421,0.913-0.211,1.404-0.702,1.966c0.14,1.264-0.281,1.755-1.053,2.036c0.842,1.123,1.966,1.544,3.51,0.421
		c0-1.193,0.842-0.983,1.264-0.632c0.562-0.702,1.544-1.685,2.597-2.527c-0.351-2.106,0-3.791-2.317-4.212
		c-0.14,0.351-0.421,0.562-0.702,0.702c-0.632-0.491-1.334-0.913-1.966-1.404c0.842-0.632,1.755-0.913,2.667-1.123
		c0.07,0.281,0.07,0.491,0,0.772c2.738,0.702,2.878,1.334,3.58,4.352c1.966-1.123,4.142-1.544,5.686,0.562
		c1.966,4.984-3.65,5.195-5.124,3.791l-0.14-0.14l-0.842,1.264c0.281,0.351,0.772,0.281,1.193,0.632
		c-1.053,0.983-2.527,0.632-3.089,1.334c-4.001,4.773-12.706,4.703-14.18-2.036c-0.14-0.281-0.281-0.491-0.491-0.562
		c-0.562,0.491-0.702,1.755-1.404,2.527c-0.281,0.07-0.632,0-0.842-0.14c0.281,0.632-0.14,0.632-0.491,0.702
		c-0.562,0.14-1.123,0.14-1.685,0C1.351,21.51,1.14,21.37,1,21.3c0-0.14,0-0.281,0.07-0.421c1.053-1.334,2.457-0.983,3.089-2.597
		h0.702c0-0.351,0-0.632,0.07-1.053l0.421-0.421c0.281-0.14,0.632-0.14,0.983-0.07C6.756,17.228,7.107,17.72,7.458,18.281
		L7.458,18.281z M24.446,16.596c1.123,0.632,2.597,0.421,2.527-0.702C26.341,14.701,25.218,15.614,24.446,16.596L24.446,16.596z"/>
</g>
</svg>
