<?xml version="1.0" encoding="utf-8"?>
<!-- Generator: Adobe Illustrator 19.2.1, SVG Export Plug-In . SVG Version: 6.00 Build 0)  -->
<svg version="1.0" id="Layer_2" xmlns="http://www.w3.org/2000/svg" xmlns:xlink="http://www.w3.org/1999/xlink" x="0px" y="0px"
	 width="18px" height="18px" viewBox="0 0 18 18" enable-background="new 0 0 18 18" xml:space="preserve">
<g id="check">
</g>
<g>
	<rect y="1" fill="#FFFFFF" width="9" height="0.818"/>
	<path fill="#FFFFFF" d="M11.455,1.818h1.33c0.92,0,0.971,0.534,0.634,1.227c-0.337,0.694-2.568,5.287-2.568,5.287h1.116
		c0,0,2.419-4.902,2.618-5.287c0.45-0.869,0.57-1.227,1.37-1.227H18V1h-6.545V1.818z"/>
	<polygon fill="#FFFFFF" points="4.29,8 10.257,8 9.757,7 3.803,7 	"/>
	<polygon fill="#FFFFFF" points="2.803,5 3.29,6 9.257,6 8.757,5 	"/>
	<polygon fill="#FFFFFF" points="8.257,4 7.757,3 1.803,3 2.29,4 	"/>
	<polygon fill="#FFFFFF" points="10.85,9.182 10.848,9.182 8.182,9.182 4.891,9.182 4.816,9.182 8.223,16.197 11.209,10 11.257,10 
		18,10 18,9.182 11.604,9.182 	"/>
	<circle fill="#FFFFFF" cx="16.5" cy="6.5" r="1.5"/>
</g>
</svg>
