<?xml version="1.0" encoding="utf-8"?>
<!-- Generator: Adobe Illustrator 19.2.1, SVG Export Plug-In . SVG Version: 6.00 Build 0)  -->
<svg version="1.0" id="art" xmlns="http://www.w3.org/2000/svg" xmlns:xlink="http://www.w3.org/1999/xlink" x="0px" y="0px"
	 width="18px" height="18px" viewBox="0 0 18 18" enable-background="new 0 0 18 18" xml:space="preserve">
<g id="check">
</g>
<g>
	<path fill="#184A81" d="M9.62,6.253c-3.167,0-5.854,2.159-5.854,4.99c0,0.864,0.288,1.775,0.816,2.591
		c1.487-1.391,2.831-3.982,3.311-6.957c0.048,0,0.48-0.144,0.864-0.144c0,0.432-0.384,6.909-2.639,9.26
		c-1.679-1.152-2.879-3.119-2.879-5.326c0-3.071,2.111-5.566,4.942-6.189c0.144-2.015,0.144-0.879,0.144-1.886h0.48
		c0,0,0,0.879-0.048,1.79c0.192,0,0.336-0.048,0.528-0.048V0h0.432v4.333c0.192,0,0.336,0,0.528,0.048
		c0-0.912-0.048-1.79-0.048-1.79h0.48c0,1.008,0-0.177,0.144,1.886c2.879,0.624,4.942,3.167,4.942,6.189
		c0,2.207-1.104,4.174-2.879,5.278c-2.303-2.303-2.639-8.828-2.639-9.26c0.336,0,0.768,0.144,0.864,0.144
		c0.48,3.071,1.775,5.566,3.311,6.957c0.576-0.816,0.816-1.727,0.816-2.591C15.426,8.412,12.739,6.253,9.62,6.253 M7.605,16.712
		c0.912-1.583,1.439-4.654,1.631-10.028h0.672c0.192,5.374,0.72,8.444,1.631,10.028C10.915,16.904,10.244,17,9.572,17
		C8.9,17,8.229,16.904,7.605,16.712L7.605,16.712z"/>
</g>
</svg>
