<?xml version="1.0" encoding="utf-8"?>
<!-- Generator: Adobe Illustrator 19.2.1, SVG Export Plug-In . SVG Version: 6.00 Build 0)  -->
<svg version="1.0" id="Layer_2" xmlns="http://www.w3.org/2000/svg" xmlns:xlink="http://www.w3.org/1999/xlink" x="0px" y="0px"
	 width="24px" height="24px" viewBox="0 0 24 24" enable-background="new 0 0 24 24" xml:space="preserve">
<g id="check">
</g>
<g>
	<path fill="#FFFFFF" d="M8.478,14.992c0-0.073,0.808-2.276,0.881-2.497h5.287c0.073,0.22,0.881,2.423,0.881,2.497
		c0.073,0.147,0.22,0.147,0.294,0.147c0.147,0,1.983-0.808,2.13-0.808c0.073-0.073,0.073-0.22,0.073-0.294
		c-0.073-0.294-3.672-10.281-3.818-10.721c-0.367-1.028-0.808-2.056-2.203-2.056c-1.395,0-1.836,0.955-2.13,2.056
		C9.726,3.83,6.201,13.67,6.054,14.037c-0.073,0.147,0,0.294,0.073,0.294c0.147,0,2.056,0.808,2.13,0.808S8.478,15.066,8.478,14.992
		z M12.003,4.491l1.909,5.507H10.24L12.003,4.491z"/>
	<path fill="#FFFFFF" d="M4.974,19.237v2.526C4.974,21.842,5.053,22,5.211,22h13.579c0.079,0,0.237-0.079,0.237-0.237v-2.526
		c0-0.079-0.079-0.237-0.237-0.237H5.211C5.132,19,4.974,19.079,4.974,19.237z"/>
</g>
</svg>
