<?xml version="1.0" encoding="utf-8"?>
<!-- Generator: Adobe Illustrator 19.2.1, SVG Export Plug-In . SVG Version: 6.00 Build 0)  -->
<svg version="1.0" id="art" xmlns="http://www.w3.org/2000/svg" xmlns:xlink="http://www.w3.org/1999/xlink" x="0px" y="0px"
	 width="24px" height="24px" viewBox="0 0 24 24" enable-background="new 0 0 24 24" xml:space="preserve">
<g id="check">
</g>
<g>
	<path fill="#266450" d="M14.546,16.114L8.643,9H1c0,0,8.854,6.13,0,14h7.719L14.546,16.114L14.546,16.114z M9,18
		c-1.111,0-2-0.889-2-2s0.889-2,2-2s2,0.889,2,2S10.111,18,9,18z"/>
</g>
<g>
	<path fill="#266450" d="M10.454,8.114L16.281,15H24c-8.854-7.87,0-14,0-14h-7.643L10.454,8.114L10.454,8.114z M14,8
		c0-1.111,0.889-2,2-2s2,0.889,2,2s-0.889,2-2,2S14,9.111,14,8z"/>
</g>
</svg>
