<?xml version="1.0" encoding="utf-8"?>
<!-- Generator: Adobe Illustrator 19.2.1, SVG Export Plug-In . SVG Version: 6.00 Build 0)  -->
<svg version="1.0" id="Layer_2" xmlns="http://www.w3.org/2000/svg" xmlns:xlink="http://www.w3.org/1999/xlink" x="0px" y="0px"
	 width="24px" height="24px" viewBox="0 0 24 24" enable-background="new 0 0 24 24" xml:space="preserve">
<g id="check">
</g>
<g>
	<path d="M12,2C6.507,2,2,6.507,2,12c0,5.493,4.437,10,10,10s10-4.507,10-10C22,6.507,17.493,2,12,2z M10.169,18.127
		c-0.141,0.282-0.423,0.352-0.704,0.352c-0.141,0-0.352-0.07-0.493-0.141l-0.493-0.211c-2.042-1.056-3.31-3.239-3.31-5.704v-0.986
		c0-2.394,1.268-4.577,3.31-5.704l0.423-0.211C9.042,5.451,9.254,5.38,9.394,5.38c0.282,0,0.563,0.141,0.704,0.352
		c0.141,0.211,0.141,0.423,0.141,0.704c0,0.493-0.352,0.704-0.352,0.704C8.69,7.704,7.986,8.901,7.986,10.239v3.521
		c0,1.338,0.704,2.606,1.901,3.099c0.07,0.07,0.352,0.211,0.423,0.563C10.38,17.704,10.31,17.915,10.169,18.127z M15.451,18.197
		l-0.493,0.211c-0.141,0.07-0.352,0.141-0.493,0.141c-0.352,0-0.563-0.141-0.704-0.352c-0.141-0.211-0.141-0.422-0.07-0.704
		c0.07-0.352,0.352-0.493,0.423-0.563c1.197-0.563,1.901-1.761,1.901-3.099V10.31c0-1.338-0.704-2.606-1.901-3.099
		c0,0-0.352-0.141-0.423-0.563c-0.07-0.282,0-0.493,0.07-0.704c0.141-0.211,0.423-0.352,0.704-0.352c0.141,0,0.352,0.07,0.493,0.141
		l0.423,0.211c2.042,1.056,3.31,3.239,3.31,5.704c0.07-0.141,0.07,0.845,0.07,0.845C18.761,14.887,17.493,17.07,15.451,18.197z"/>
</g>
</svg>
