<?xml version="1.0" encoding="utf-8"?>
<!-- Generator: Adobe Illustrator 19.2.1, SVG Export Plug-In . SVG Version: 6.00 Build 0)  -->
<svg version="1.0" id="Layer_2" xmlns="http://www.w3.org/2000/svg" xmlns:xlink="http://www.w3.org/1999/xlink" x="0px" y="0px"
	 width="18px" height="18px" viewBox="0 0 18 18" enable-background="new 0 0 18 18" xml:space="preserve">
<g id="check">
</g>
<g>
	<path opacity="0.3" fill="#FFFFFF" d="M4,11.214V4H3.786C2.254,4,1,5.253,1,6.786v7.429C1,15.746,2.254,17,3.786,17h7.429
		C12.747,17,14,15.746,14,14.214V14H6.786C5.254,14,4,12.746,4,11.214z"/>
	<path fill="#FFFFFF" d="M6.932,8.594H6V12h0.689v-1.5l0.284,0.284h1.824c0.851,0,1.297-0.446,1.297-0.973
		c0-0.162-0.041-0.365-0.081-0.446h0.73c1.095,0,1.338-0.527,1.338-0.932C12,8.067,11.716,7.743,11.27,7.662
		c0.243-0.081,0.527-0.284,0.527-0.811C11.797,6.284,11.351,6,10.662,6H9.527v1.378H8.838c-0.892,0-1.095,0.608-1.095,0.932
		c0,0.487,0.284,0.689,0.77,0.932c0.324,0.122,0.689,0.284,0.689,0.568c0,0.162-0.162,0.405-0.527,0.405H8.108
		C8.189,10.054,8.23,9.851,8.23,9.689C8.23,9.446,8.149,8.594,6.932,8.594z M6.973,10.378H6.649V9.243h0.324
		c0.405,0,0.568,0.243,0.568,0.527S7.378,10.378,6.973,10.378z M10.297,6.608h0.324c0.527,0,0.527,0.324,0.527,0.405
		c0,0.122-0.081,0.405-0.527,0.405h-0.324V6.608z M10.257,7.986h0.405c0.487,0,0.568,0.243,0.568,0.446
		c0.041,0.284-0.122,0.486-0.568,0.486h-0.405V7.986z M9.081,8.797C8.838,8.716,8.635,8.554,8.635,8.311
		c0-0.122,0.081-0.365,0.487-0.365h0.811L9.608,8.27v0.811C9.446,9,9.243,8.919,9.081,8.797z"/>
	<path fill="#FFFFFF" d="M17,3.786C17,2.254,15.746,1,14.214,1H6.786C5.254,1,4,2.254,4,3.786V4h7.214C12.747,4,14,5.253,14,6.786
		V14h0.214C15.746,14,17,12.746,17,11.214V3.786z"/>
</g>
</svg>
