<?xml version="1.0" encoding="utf-8"?>
<!-- Generator: Adobe Illustrator 19.2.1, SVG Export Plug-In . SVG Version: 6.00 Build 0)  -->
<svg version="1.0" id="Layer_2" xmlns="http://www.w3.org/2000/svg" xmlns:xlink="http://www.w3.org/1999/xlink" x="0px" y="0px"
	 width="30px" height="30px" viewBox="0 0 30 30" enable-background="new 0 0 30 30" xml:space="preserve">
<g id="check">
</g>
<g>
	<path fill="#FFFFFF" d="M22.409,20.079c-0.275-0.092-0.275,0.183-0.183,0.367c0.183,0.459,0.367,0.825,0.459,0.917
		c0.092,0.092,0.275-0.092,0.183-0.55C22.868,20.629,22.685,20.171,22.409,20.079z"/>
	<path fill="#FFFFFF" d="M20.392,20.996c-0.183,0-0.275,0-0.459,0.092c-0.275,0.183-0.367,0.642-0.092,1.009
		c0.092,0.183,0.275,0.275,0.458,0.367c0.183,0,0.275,0,0.459-0.092c0.275-0.275,0.275-0.734,0-1.1
		C20.667,21.179,20.575,20.996,20.392,20.996z"/>
	<path fill="#FFFFFF" d="M24.244,7.148C20.759,1.738,13.422,0.362,7.737,4.122C2.051,7.79,0.308,15.127,3.793,20.354
		c2.843,4.494,9.537,5.777,13.389,4.585c1.467-0.459,6.419-0.917,9.904,3.21c0,0,0.275,0.367,0.459,0.734
		c0,0,0.092,0.183,0.183,0.092c0.092-0.092,0.183-0.183-0.183-0.825c-0.734-1.467-2.109-2.568-3.485-3.393
		c-0.55-0.275-1.1-0.459-1.559-0.642c-1.1-0.367-2.109-0.458-3.485-0.642c-1.009-0.183-1.834-0.642-2.659-1.192
		c-0.459-0.367-0.825-0.734-1.101-1.192c0-0.092-0.275-0.459-0.275-0.55c0,0-0.183,0.825,0.183,1.926
		c-3.577-0.092-6.786-2.109-8.254-4.585c-2.659-4.494-1.742-9.996,1.834-12.38c3.577-2.384,8.987-0.642,11.922,3.668
		c1.834,2.659,2.384,5.869,1.559,8.437c0,0.011-0.006,0.022-0.007,0.034c-1.521-1.009-2.928-0.492-2.928-0.492
		c1.559-0.183,2.751,1.1,2.751,1.1l0.031-0.061l0.52,0.52c0,0.092,0.092,0.092,0.092,0.183c0.367,0.55,0.642,1.192,0.734,1.834
		C26.444,16.777,26.995,11.367,24.244,7.148z"/>
</g>
</svg>
