<?xml version="1.0" encoding="utf-8"?>
<!-- Generator: Adobe Illustrator 19.2.1, SVG Export Plug-In . SVG Version: 6.00 Build 0)  -->
<svg version="1.0" id="art" xmlns="http://www.w3.org/2000/svg" xmlns:xlink="http://www.w3.org/1999/xlink" x="0px" y="0px"
	 width="30px" height="30px" viewBox="0 0 30 30" enable-background="new 0 0 30 30" xml:space="preserve">
<g id="check">
</g>
<g>
	<path fill="#04713D" d="M9.847,18.167L2,13.629v0.662c0,0.851,0.095,1.702,0.189,2.553c0.284,1.513,0.851,2.931,1.513,4.16
		c0.945,1.607,2.175,3.025,3.687,4.065c1.04,0.756,2.08,1.324,3.309,1.702c0.473,0.189,1.04,0.284,1.607,0.473
		c0.756,0.189,1.513,0.284,2.364,0.284h0.756c0.378,0,0.851,0,1.324-0.095c1.796-0.189,3.593-0.851,5.105-1.796
		c1.513-0.945,2.836-2.175,3.782-3.593c1.04-1.513,1.796-3.215,2.175-5.011c0-0.189,0.095-0.473,0.095-0.756
		C28,15.709,28,15.047,28,14.48v-0.378c0-0.567-0.095-1.04-0.189-1.607c-0.189-1.418-0.662-2.742-1.324-3.971L9.847,18.167
		L9.847,18.167z M9.847,14.858l-7.28-4.255c-0.095,0.284-0.189,0.662-0.284,0.945c0,0.189-0.095,0.284-0.095,0.473l7.658,4.444
		l15.978-9.171c-0.189-0.284-0.284-0.473-0.473-0.662c-0.095-0.095-0.095-0.189-0.189-0.284c0-0.095-0.095-0.095-0.095-0.189
		L9.847,14.858L9.847,14.858z M9.847,11.549L3.702,8.051C3.418,8.429,3.229,8.902,3.04,9.28l6.807,3.971L24.029,5.12
		c-0.378-0.378-0.756-0.662-1.135-0.945L9.847,11.549z M9.847,8.335L5.309,5.687C5.025,6.065,4.742,6.444,4.458,6.822l5.389,3.12
		l11.724-6.713c-0.473-0.284-1.04-0.567-1.513-0.756L9.847,8.335L9.847,8.335z"/>
</g>
</svg>
