<?xml version="1.0" encoding="utf-8"?>
<!-- Generator: Adobe Illustrator 19.2.1, SVG Export Plug-In . SVG Version: 6.00 Build 0)  -->
<svg version="1.0" id="Layer_2" xmlns="http://www.w3.org/2000/svg" xmlns:xlink="http://www.w3.org/1999/xlink" x="0px" y="0px"
	 width="24px" height="24px" viewBox="0 0 24 24" enable-background="new 0 0 24 24" xml:space="preserve">
<g id="check">
</g>
<g>
	<path fill="#FFFFFF" d="M12,18c2.97,0,4.242-2.364,4.303-4.727c0-1.636-0.545-3.455-1.455-4.97C13.939,6.849,12.909,6,12,6
		s-1.939,0.909-2.849,2.303c-0.909,1.515-1.455,3.333-1.455,4.97C7.697,15.636,9.03,18,12,18z"/>
	<path fill="#FFFFFF" d="M2,20.548C2,21.349,2.651,22,3.452,22h17.096C21.349,22,22,21.349,22,20.548V3.452
		C22,2.678,21.321,2,20.548,2H3.452C2.651,2,2,2.651,2,3.452V20.548z M3,3.452C3,3.203,3.203,3,3.452,3h17.096
		C20.772,3,21,3.228,21,3.452v17.097C21,20.797,20.797,21,20.548,21H3.452C3.203,21,3,20.797,3,20.548V3.452z"/>
</g>
</svg>
