<?xml version="1.0" encoding="utf-8"?>
<!-- Generator: Adobe Illustrator 19.2.1, SVG Export Plug-In . SVG Version: 6.00 Build 0)  -->
<svg version="1.0" id="Layer_2" xmlns="http://www.w3.org/2000/svg" xmlns:xlink="http://www.w3.org/1999/xlink" x="0px" y="0px"
	 width="18px" height="18px" viewBox="0 0 18 18" enable-background="new 0 0 18 18" xml:space="preserve">
<g id="check">
</g>
<g>
	<rect x="8" y="2" fill="#FFFFFF" width="2" height="1"/>
	<polygon fill="#FFFFFF" points="6,8 6,12 7,12 7,8 11,8 11,12 12,12 12,8 12,7 12,6 11,6 11,7 7,7 7,6 6,6 6,7 	"/>
	<polygon fill="#FFFFFF" points="8,5 10,5 10,6 11,6 11,5 11,4 10,4 8,4 7,4 7,5 7,6 8,6 	"/>
	<rect x="5" y="3" fill="#FFFFFF" width="1" height="1"/>
	<rect x="5" y="5" fill="#FFFFFF" width="1" height="1"/>
	<rect x="4" y="4" fill="#FFFFFF" width="1" height="1"/>
	<rect x="4" y="6" fill="#FFFFFF" width="1" height="1"/>
	<rect x="2" y="6" fill="#FFFFFF" width="1" height="1"/>
	<rect x="3" y="7" fill="#FFFFFF" width="1" height="1"/>
	<rect x="4" y="8" fill="#FFFFFF" width="1" height="1"/>
	<rect x="2" y="8" fill="#FFFFFF" width="1" height="1"/>
	<rect x="3" y="9" fill="#FFFFFF" width="1" height="1"/>
	<rect x="4" y="10" fill="#FFFFFF" width="1" height="1"/>
	<rect x="2" y="10" fill="#FFFFFF" width="1" height="1"/>
	<rect x="3" y="11" fill="#FFFFFF" width="1" height="1"/>
	<rect x="4" y="12" fill="#FFFFFF" width="1" height="1"/>
	<rect x="5" y="13" fill="#FFFFFF" width="1" height="1"/>
	<rect x="7" y="12" fill="#FFFFFF" width="1" height="1"/>
	<polygon fill="#FFFFFF" points="7,14 6,14 6,15 7,15 8,15 8,14 	"/>
	<polygon fill="#FFFFFF" points="8,15 8,16 9,16 10,16 10,15 9,15 	"/>
	<rect x="12" y="3" fill="#FFFFFF" width="1" height="1"/>
	<rect x="12" y="5" fill="#FFFFFF" width="1" height="1"/>
	<rect x="13" y="4" fill="#FFFFFF" width="1" height="1"/>
	<rect x="13" y="6" fill="#FFFFFF" width="1" height="1"/>
	<rect x="15" y="6" fill="#FFFFFF" width="1" height="1"/>
	<rect x="14" y="7" fill="#FFFFFF" width="1" height="1"/>
	<rect x="13" y="8" fill="#FFFFFF" width="1" height="1"/>
	<rect x="15" y="8" fill="#FFFFFF" width="1" height="1"/>
	<rect x="14" y="9" fill="#FFFFFF" width="1" height="1"/>
	<rect x="13" y="10" fill="#FFFFFF" width="1" height="1"/>
	<rect x="15" y="10" fill="#FFFFFF" width="1" height="1"/>
	<rect x="14" y="11" fill="#FFFFFF" width="1" height="1"/>
	<rect x="13" y="12" fill="#FFFFFF" width="1" height="1"/>
	<rect x="12" y="13" fill="#FFFFFF" width="1" height="1"/>
	<polygon fill="#FFFFFF" points="10,14 10,15 11,15 12,15 12,14 11,14 	"/>
	<polygon fill="#FFFFFF" points="10,14 10,13 9,13 8,13 8,14 9,14 	"/>
	<rect x="10" y="12" fill="#FFFFFF" width="1" height="1"/>
</g>
</svg>
