<?xml version="1.0" encoding="utf-8"?>
<!-- Generator: Adobe Illustrator 19.2.1, SVG Export Plug-In . SVG Version: 6.00 Build 0)  -->
<svg version="1.0" id="Layer_2" xmlns="http://www.w3.org/2000/svg" xmlns:xlink="http://www.w3.org/1999/xlink" x="0px" y="0px"
	 width="24px" height="24px" viewBox="0 0 24 24" enable-background="new 0 0 24 24" xml:space="preserve">
<g id="check">
</g>
<g>
	<rect x="1" y="3" width="11" height="1"/>
	<polygon points="6.886,13 11.05,21.574 14.7,14 23,14 23,13 15.182,13 14.261,13 11,13 	"/>
	<path d="M14.261,11.963h1.364c0,0,2.957-5.992,3.2-6.463C19.375,4.438,19.522,4,20.5,4H23V3h-8v1h1.625
		c1.125,0,1.186,0.652,0.775,1.5S14.261,11.963,14.261,11.963z"/>
	<polygon points="6.474,12 13.759,12 13.258,11 5.987,11 	"/>
	<polygon points="5.474,10 12.759,10 12.258,9 4.987,9 	"/>
	<polygon points="11.759,8 11.258,7 3.987,7 4.474,8 	"/>
	<polygon points="2.987,5 3.474,6 10.759,6 10.258,5 	"/>
	<circle cx="21" cy="10" r="1.875"/>
</g>
</svg>
