<?xml version="1.0" encoding="utf-8"?>
<!-- Generator: Adobe Illustrator 19.2.1, SVG Export Plug-In . SVG Version: 6.00 Build 0)  -->
<svg version="1.0" id="Layer_2" xmlns="http://www.w3.org/2000/svg" xmlns:xlink="http://www.w3.org/1999/xlink" x="0px" y="0px"
	 width="24px" height="24px" viewBox="0 0 24 24" enable-background="new 0 0 24 24" xml:space="preserve">
<g id="check">
</g>
<g>
	<path fill="#FFFFFF" d="M18.697,12c0,3.72-3.059,6.697-6.697,6.697c-3.72,0-6.697-2.976-6.697-6.697S8.28,5.303,12,5.303V1.5
		C6.213,1.5,1.5,6.213,1.5,12S6.213,22.5,12,22.5S22.5,17.787,22.5,12H18.697z"/>
	<path fill="#FFFFFF" d="M12,8.001c-2.214,0-4,1.785-4,3.999s1.786,4.07,4,3.999c2.214,0,4-1.785,4-3.999S14.214,8.001,12,8.001z"/>
	<path fill="#FFFFFF" d="M18,8.5c1.406,0,2.5-1.094,2.5-2.5S19.406,3.5,18,3.5S15.5,4.594,15.5,6S16.594,8.5,18,8.5z"/>
</g>
</svg>
