<?xml version="1.0" encoding="utf-8"?>
<!-- Generator: Adobe Illustrator 19.2.1, SVG Export Plug-In . SVG Version: 6.00 Build 0)  -->
<svg version="1.0" id="art" xmlns="http://www.w3.org/2000/svg" xmlns:xlink="http://www.w3.org/1999/xlink" x="0px" y="0px"
	 width="36px" height="36px" viewBox="0 0 36 36" enable-background="new 0 0 36 36" xml:space="preserve">
<g id="check">
</g>
<path fill="#FDEB3F" d="M3,33h30V3H3V33z M12.239,6.506l4.64,4.414l-1.132,1.019l2.15,2.15l2.264-2.15l-0.905-1.019l4.414-4.301
	c3.735-3.735,8.262,2.829,7.47,5.772l-1.358-1.019l-4.188,4.188l-1.358-1.132v-2.716l-1.019,0.905v3.509l-1.698,1.698l8.941,8.941
	L26.726,30.5l-8.941-9.054L9.07,30.274l-3.735-3.735l8.941-8.828l-1.698-1.698v-3.509l-0.905-0.679v2.603l-1.471,1.245l-4.074-4.301
	l-1.358,1.132C4.882,8.091,8.617,3.564,12.239,6.506z"/>
<path fill="#191919" d="M2,2v32h32V2H2z M33,33H3V3h30V33z"/>
<path fill="#191919" d="M10.202,15.674l1.471-1.245v-2.603l0.905,0.679v3.509l1.698,1.698l-8.941,8.828l3.735,3.735l8.715-8.828
	l8.941,9.054l3.735-3.735l-8.941-8.941l1.698-1.698v-3.509l1.019-0.905v2.716l1.358,1.132l4.188-4.188l1.358,1.019
	c0.792-2.943-3.735-9.507-7.47-5.772l-4.414,4.301l0.905,1.019l-2.264,2.15l-2.15-2.15l1.132-1.019l-4.64-4.414
	c-3.622-2.943-7.357,1.585-7.47,5.998l1.358-1.132L10.202,15.674z"/>
</svg>
