<?xml version="1.0" encoding="utf-8"?>
<!-- Generator: Adobe Illustrator 19.2.1, SVG Export Plug-In . SVG Version: 6.00 Build 0)  -->
<svg version="1.0" id="art" xmlns="http://www.w3.org/2000/svg" xmlns:xlink="http://www.w3.org/1999/xlink" x="0px" y="0px"
	 width="24px" height="24px" viewBox="0 0 24 24" enable-background="new 0 0 24 24" xml:space="preserve">
<g id="check">
</g>
<path fill="#FDEB3F" d="M2,22h20V2H2V22z M8.467,4.951l2.846,2.707l-0.694,0.625l1.319,1.319l1.388-1.319L12.77,7.658l2.707-2.637
	c2.29-2.29,5.067,1.735,4.581,3.54l-0.833-0.625l-2.568,2.568L15.824,9.81V8.144l-0.625,0.555v2.152l-1.041,1.041l5.483,5.483
	l-2.29,2.29l-5.483-5.553l-5.344,5.414l-2.29-2.29l5.483-5.414l-1.041-1.041V8.63L8.12,8.213V9.81l-0.902,0.763L4.719,7.936
	L3.886,8.63C3.955,5.923,6.246,3.147,8.467,4.951z"/>
<path fill="#191919" d="M1,1v22h22V1H1z M22,22H2V2h20V22z"/>
<path fill="#191919" d="M7.218,10.573L8.12,9.81V8.213L8.675,8.63v2.152l1.041,1.041l-5.483,5.414l2.29,2.29l5.344-5.414
	l5.483,5.553l2.29-2.29l-5.483-5.483l1.041-1.041V8.699l0.625-0.555V9.81l0.833,0.694l2.568-2.568l0.833,0.625
	c0.486-1.805-2.29-5.83-4.581-3.54L12.77,7.658l0.555,0.625l-1.388,1.319l-1.319-1.319l0.694-0.625L8.467,4.951
	C6.246,3.147,3.955,5.923,3.886,8.63l0.833-0.694L7.218,10.573z"/>
</svg>
