<?xml version="1.0" encoding="utf-8"?>
<!-- Generator: Adobe Illustrator 19.2.1, SVG Export Plug-In . SVG Version: 6.00 Build 0)  -->
<svg version="1.0" id="art" xmlns="http://www.w3.org/2000/svg" xmlns:xlink="http://www.w3.org/1999/xlink" x="0px" y="0px"
	 width="24px" height="24px" viewBox="0 0 24 24" enable-background="new 0 0 24 24" xml:space="preserve">
<g id="check">
</g>
<path fill="#193163" d="M16.894,12.001H5.999C6.265,12.698,6.608,13.362,7,14h9.098c1.188,1.146,2.381,2.552,3.165,4H8.414
	c-1.389-1.109-2.529-2.477-3.37-3.999c-0.354-0.642-0.655-1.309-0.895-2c-0.022-0.064-0.049-0.126-0.07-0.19
	C4.166,11.537,4.266,11.268,4.367,11h13.268c0.593-0.57,1.184-1.25,1.738-2H5.277c0.184-0.343,0.377-0.678,0.581-1h14.208
	c0.413-0.643,0.775-1.318,1.094-2H7.393C7.727,5.638,8.07,5.297,8.426,5h13.156c0.256-0.678,0.464-1.354,0.567-2H7.74
	C6.975,3.555,6.265,4.24,5.61,5C5.334,5.32,5.068,5.653,4.814,6c-0.462,0.633-0.89,1.302-1.268,2C3.368,8.328,3.206,8.663,3.049,9
	c-0.308,0.658-0.572,1.327-0.796,2c-0.09,0.272-0.186,0.543-0.262,0.814c0.04,0.142,0.093,0.277,0.137,0.417
	c0.19,0.608,0.414,1.2,0.676,1.769C3.917,16.423,5.641,18.478,7.74,20h14.341c-0.343-2.155-1.72-4.276-3.221-5.999
	C18.202,13.244,17.526,12.567,16.894,12.001z"/>
</svg>
