<?xml version="1.0" encoding="utf-8"?>
<!-- Generator: Adobe Illustrator 19.2.1, SVG Export Plug-In . SVG Version: 6.00 Build 0)  -->
<svg version="1.0" id="art" xmlns="http://www.w3.org/2000/svg" xmlns:xlink="http://www.w3.org/1999/xlink" x="0px" y="0px"
	 width="36px" height="36px" viewBox="0 0 36 36" enable-background="new 0 0 36 36" xml:space="preserve">
<g id="check">
</g>
<g>
	<linearGradient id="SVGID_1_" gradientUnits="userSpaceOnUse" x1="3.1248" y1="10.0318" x2="3.1248" y2="24.4335">
		<stop  offset="0" style="stop-color:#571356"/>
		<stop  offset="0.2515" style="stop-color:#A30046"/>
		<stop  offset="0.3339" style="stop-color:#B30A3B"/>
		<stop  offset="0.5092" style="stop-color:#D31E25"/>
		<stop  offset="0.7423" style="stop-color:#A30046"/>
		<stop  offset="0.762" style="stop-color:#9C0247"/>
		<stop  offset="0.9214" style="stop-color:#6A0E52"/>
		<stop  offset="1" style="stop-color:#571356"/>
	</linearGradient>
	<path fill="url(#SVGID_1_)" d="M5.25,24.434c-0.472-0.826-0.826-1.771-0.826-2.833V10.032C2.889,10.386,1.708,11.448,1,12.747
		v7.319C1.944,21.955,3.479,23.489,5.25,24.434"/>
	<linearGradient id="SVGID_2_" gradientUnits="userSpaceOnUse" x1="0.2729" y1="9.8619" x2="10.5823" y2="5.4645">
		<stop  offset="0" style="stop-color:#EC1C24"/>
		<stop  offset="0.0992" style="stop-color:#D7142E"/>
		<stop  offset="0.2597" style="stop-color:#BA093B"/>
		<stop  offset="0.3998" style="stop-color:#A90243"/>
		<stop  offset="0.5031" style="stop-color:#A30046"/>
		<stop  offset="0.5675" style="stop-color:#950349"/>
		<stop  offset="0.7497" style="stop-color:#730C50"/>
		<stop  offset="0.9004" style="stop-color:#5F1154"/>
		<stop  offset="1" style="stop-color:#571356"/>
	</linearGradient>
	<path fill="url(#SVGID_2_)" d="M5.84,8.615h3.423c0.944,0,1.771-0.826,1.771-1.771s-0.826-1.653-1.771-1.653H5.84
		C3.125,5.192,1,7.317,1,10.032v1.535C1.826,9.796,3.715,8.615,5.84,8.615"/>
	<linearGradient id="SVGID_3_" gradientUnits="userSpaceOnUse" x1="1.0157" y1="23.2939" x2="32.3431" y2="10.8272">
		<stop  offset="0" style="stop-color:#00ADEE"/>
		<stop  offset="0.1427" style="stop-color:#02AAEB"/>
		<stop  offset="0.2473" style="stop-color:#07A1E2"/>
		<stop  offset="0.3397" style="stop-color:#1091D2"/>
		<stop  offset="0.4251" style="stop-color:#1D7ABC"/>
		<stop  offset="0.5056" style="stop-color:#2D5D9F"/>
		<stop  offset="0.5815" style="stop-color:#413A7C"/>
		<stop  offset="0.6503" style="stop-color:#571356"/>
		<stop  offset="0.691" style="stop-color:#641053"/>
		<stop  offset="0.7655" style="stop-color:#85074C"/>
		<stop  offset="0.8221" style="stop-color:#A30046"/>
		<stop  offset="0.8413" style="stop-color:#AC0342"/>
		<stop  offset="0.947" style="stop-color:#DA152C"/>
		<stop  offset="1" style="stop-color:#EC1C24"/>
	</linearGradient>
	<path fill="url(#SVGID_3_)" d="M32.4,11.33c-0.708-3.541-3.659-6.138-7.319-6.138h-8.735V21.6c0,3.187-2.715,5.784-5.902,5.784
		c-3.777,0-7.555-2.125-9.444-5.666c0.118,4.958,4.25,9.09,9.444,9.09s9.444-4.132,9.444-9.208V8.615h5.666
		C28.033,8.615,30.512,9.678,32.4,11.33"/>
	<linearGradient id="SVGID_4_" gradientUnits="userSpaceOnUse" x1="31.4736" y1="10.1499" x2="31.4736" y2="24.7877">
		<stop  offset="0" style="stop-color:#571356"/>
		<stop  offset="0.2577" style="stop-color:#A30046"/>
		<stop  offset="0.413" style="stop-color:#C5152F"/>
		<stop  offset="0.5031" style="stop-color:#D31E25"/>
		<stop  offset="0.641" style="stop-color:#B50C39"/>
		<stop  offset="0.7485" style="stop-color:#A30046"/>
		<stop  offset="0.9061" style="stop-color:#700D51"/>
		<stop  offset="1" style="stop-color:#571356"/>
	</linearGradient>
	<path fill="url(#SVGID_4_)" d="M32.046,15.226c0.354-0.944,0.472-2.125,0.472-2.715c-1.062-0.944-2.597-1.889-4.25-2.361
		c0.472,0.59,0.826,1.653,0.826,2.479c0,0.826-0.236,1.535-0.708,2.361c-0.472,0.708-0.472,1.653,0.354,2.125
		c1.535,0.826,2.597,2.361,2.715,4.014c0.118,1.18-0.118,2.479-0.826,3.659c1.889-0.944,3.423-2.479,4.25-4.25
		C34.643,18.649,33.817,16.879,32.046,15.226"/>
	<linearGradient id="SVGID_5_" gradientUnits="userSpaceOnUse" x1="19.0612" y1="26.3223" x2="35" y2="26.3223">
		<stop  offset="0" style="stop-color:#571356"/>
		<stop  offset="0.0996" style="stop-color:#5F1154"/>
		<stop  offset="0.2503" style="stop-color:#730C50"/>
		<stop  offset="0.4325" style="stop-color:#950349"/>
		<stop  offset="0.4969" style="stop-color:#A30046"/>
		<stop  offset="0.577" style="stop-color:#B00540"/>
		<stop  offset="0.8571" style="stop-color:#DB162C"/>
		<stop  offset="1" style="stop-color:#EC1C24"/>
	</linearGradient>
	<path fill="url(#SVGID_5_)" d="M26.38,27.267h-5.548c-0.944,0-1.771,0.826-1.771,1.771c0,0.944,0.826,1.771,1.771,1.771h5.548
		c4.722,0,8.735-4.014,8.617-8.972C33.817,24.906,30.63,27.267,26.38,27.267"/>
</g>
</svg>
