<?xml version="1.0" encoding="utf-8"?>
<!-- Generator: Adobe Illustrator 19.2.1, SVG Export Plug-In . SVG Version: 6.00 Build 0)  -->
<svg version="1.0" id="art" xmlns="http://www.w3.org/2000/svg" xmlns:xlink="http://www.w3.org/1999/xlink" x="0px" y="0px"
	 width="30px" height="30px" viewBox="0 0 30 30" enable-background="new 0 0 30 30" xml:space="preserve">
<g id="check">
</g>
<g>
	<path fill="#4AB9E4" d="M15,2C7.859,2,2,7.859,2,15s5.768,13,13,13s13-5.859,13-13S22.141,2,15,2 M12.254,21.317
		c0.092,0.092,0.458,0.275,0.549,0.732c0.092,0.366,0,0.641-0.183,0.915c-0.183,0.366-0.549,0.458-0.915,0.458
		c-0.183,0-0.458-0.092-0.641-0.183l-0.641-0.275c-2.655-1.373-4.303-4.211-4.303-7.415v-1.282c0-3.113,1.648-5.951,4.303-7.415
		l0.549-0.275c0.183-0.092,0.458-0.183,0.641-0.183c0.366,0,0.732,0.183,0.915,0.458s0.183,0.549,0.183,0.915
		c0,0.641-0.458,0.915-0.458,0.915c-1.556,0.732-2.472,2.289-2.472,4.028v4.577C9.782,19.028,10.697,20.676,12.254,21.317
		 M23.789,15.641c0,3.113-1.648,5.951-4.303,7.415l-0.641,0.275c-0.183,0.092-0.458,0.183-0.641,0.183
		c-0.458,0-0.732-0.183-0.915-0.458c-0.183-0.275-0.183-0.549-0.092-0.915c0.092-0.458,0.458-0.641,0.549-0.732
		c1.556-0.732,2.472-2.289,2.472-4.028v-4.577c0-1.739-0.915-3.387-2.472-4.028c0,0-0.458-0.183-0.549-0.732
		c-0.092-0.366,0-0.641,0.092-0.915c0.183-0.275,0.549-0.458,0.915-0.458c0.183,0,0.458,0.092,0.641,0.183l0.549,0.275
		c2.655,1.373,4.303,4.211,4.303,7.415C23.789,14.359,23.789,15.641,23.789,15.641L23.789,15.641z"/>
</g>
</svg>
