<?xml version="1.0" encoding="utf-8"?>
<!-- Generator: Adobe Illustrator 19.2.1, SVG Export Plug-In . SVG Version: 6.00 Build 0)  -->
<svg version="1.0" id="Layer_2" xmlns="http://www.w3.org/2000/svg" xmlns:xlink="http://www.w3.org/1999/xlink" x="0px" y="0px"
	 width="36px" height="36px" viewBox="0 0 36 36" enable-background="new 0 0 36 36" xml:space="preserve">
<g id="check">
</g>
<g>
	<path fill="#FFFFFF" d="M32.752,7.996c0-0.691,0.346-1.555-2.937-1.9c-0.319-0.034-0.696-0.055-1.098-0.07
		c-0.812-0.724-1.701-1.373-2.662-1.929C23.389,2.705,20.642,2,17.89,2c-2.884,0-5.588,0.702-8.055,2.097
		C4.86,7.149,1.89,12.348,1.89,18c0,4,1.523,7.81,4.142,10.722c-0.132,0.195-0.215,0.322-0.229,0.35
		c-0.346,0.518-0.864,1.037-0.346,1.555c0.518,0.518,1.382-0.346,1.728-0.518c0.022-0.022,0.066-0.06,0.126-0.109
		c0.804,0.715,1.684,1.355,2.635,1.904C12.232,33.255,15.093,34,18,34c2.884,0,5.593-0.704,8.055-2.097
		C31.023,29.032,34.11,23.705,34.11,18c0-3.025-0.873-5.937-2.427-8.439C32.334,8.906,32.752,8.372,32.752,7.996z M2.89,18
		c0-5.303,2.792-10.182,7.453-13.042C12.642,3.658,15.181,3,17.89,3c2.589,0,5.181,0.667,7.684,1.973
		c0.54,0.312,1.054,0.659,1.546,1.03c-3.823,0.022-9.101,0.475-9.915,0.611c-1.037,0.173-1.037,1.209-0.691,1.382
		c0.346,0.346,1.9,1.209,2.419,1.555c0.518,0.173,0.346,0.518,0.346,0.864c-0.173,0.173-2.073,2.591-2.073,2.591
		C16.481,13.729,9.092,24.269,6.61,27.875C4.252,25.167,2.89,21.667,2.89,18z M33.11,18c0,5.349-2.896,10.345-7.552,13.035
		C23.252,32.339,20.709,33,18,33c-2.731,0-5.411-0.695-7.55-1.96c-0.838-0.484-1.616-1.045-2.333-1.666
		c1.636-1.242,4.919-3.654,5.978-4.448c1.382-1.037,8.12-6.91,10.365-8.811s5.183-4.664,5.183-4.664
		c0.469-0.422,0.908-0.816,1.305-1.184C32.334,12.571,33.11,15.237,33.11,18z"/>
</g>
</svg>
