<?xml version="1.0" encoding="utf-8"?>
<!-- Generator: Adobe Illustrator 19.2.1, SVG Export Plug-In . SVG Version: 6.00 Build 0)  -->
<svg version="1.0" id="Layer_2" xmlns="http://www.w3.org/2000/svg" xmlns:xlink="http://www.w3.org/1999/xlink" x="0px" y="0px"
	 width="24px" height="24px" viewBox="0 0 24 24" enable-background="new 0 0 24 24" xml:space="preserve">
<g id="check">
</g>
<g>
	<path opacity="0.3" fill="#FFFFFF" d="M2,18.308C2,20.338,3.662,22,5.692,22h8.615C16.338,22,18,20.338,18,18.308V18H9.692
		C7.661,18,6,16.338,6,14.308V6H5.692C3.662,6,2,7.661,2,9.692V18.308z"/>
	<path fill="#FFFFFF" d="M18.307,18C20.338,18,22,16.338,22,14.308V5.692C22,3.661,20.338,2,18.307,2H9.692C7.661,2,6,3.661,6,5.692
		V6h8.308C16.338,6,18,7.661,18,9.692V18H18.307z"/>
	<path fill="#FFFFFF" d="M17.122,10.649C17,10.101,16.574,9.615,15.905,9.493c0.365-0.122,0.791-0.426,0.791-1.216
		C16.696,7.426,16.027,7,14.993,7h-1.703v2.068h-1.034c-1.338,0-1.642,0.912-1.642,1.399c0,0.73,0.426,1.034,1.155,1.399
		c0.487,0.182,1.034,0.426,1.034,0.851c0,0.243-0.243,0.608-0.791,0.608h-0.851c0.122-0.243,0.182-0.547,0.182-0.791
		c0-0.365-0.122-1.642-1.946-1.642H8V16h1.034v-2.25l0.426,0.426h2.736c1.277,0,1.946-0.669,1.946-1.459
		c0-0.243-0.061-0.547-0.122-0.669h1.095C16.757,12.047,17.122,11.257,17.122,10.649z M9.459,13.568H8.973v-1.703h0.487
		c0.608,0,0.851,0.365,0.851,0.791S10.068,13.568,9.459,13.568z M13.412,10.405v1.216c-0.243-0.122-0.547-0.243-0.791-0.426
		c-0.365-0.122-0.669-0.365-0.669-0.73c0-0.182,0.122-0.547,0.73-0.547h1.216L13.412,10.405z M14.446,7.912h0.487
		c0.791,0,0.791,0.486,0.791,0.608c0,0.182-0.122,0.608-0.791,0.608h-0.487V7.912z M14.385,11.378V9.98h0.608
		c0.73,0,0.851,0.365,0.851,0.669c0.061,0.426-0.182,0.73-0.851,0.73H14.385z"/>
</g>
</svg>
