<?xml version="1.0" encoding="utf-8"?>
<!-- Generator: Adobe Illustrator 19.2.1, SVG Export Plug-In . SVG Version: 6.00 Build 0)  -->
<svg version="1.0" id="art" xmlns="http://www.w3.org/2000/svg" xmlns:xlink="http://www.w3.org/1999/xlink" x="0px" y="0px"
	 width="18px" height="18px" viewBox="0 0 18 18" enable-background="new 0 0 18 18" xml:space="preserve">
<g id="check">
</g>
<g id="XMLID_31_">
	<g>
		<rect x="15" y="10" fill="#231F20" width="1" height="1"/>
		<rect x="15" y="8" fill="#231F20" width="1" height="1"/>
		<rect x="15" y="6" fill="#231F20" width="1" height="1"/>
		<rect x="14" y="11" fill="#231F20" width="1" height="1"/>
		<rect x="14" y="9" fill="#231F20" width="1" height="1"/>
		<rect x="14" y="7" fill="#231F20" width="1" height="1"/>
		<rect x="13" y="12" fill="#231F20" width="1" height="1"/>
		<rect x="13" y="10" fill="#231F20" width="1" height="1"/>
		<rect x="13" y="8" fill="#231F20" width="1" height="1"/>
		<rect x="13" y="6" fill="#231F20" width="1" height="1"/>
		<rect x="13" y="4" fill="#231F20" width="1" height="1"/>
		<rect x="12" y="13" fill="#231F20" width="1" height="1"/>
		<rect x="12" y="5" fill="#231F20" width="1" height="1"/>
		<rect x="12" y="3" fill="#231F20" width="1" height="1"/>
		<rect x="11" y="14" fill="#231F20" width="1" height="1"/>
		<rect x="11" y="7" fill="#231F20" width="1" height="1"/>
		<rect x="11" y="8" fill="#231F20" width="1" height="4"/>
		<rect x="11" y="6" fill="#231F20" width="1" height="1"/>
		<rect x="10" y="14" fill="#231F20" width="1" height="1"/>
		<rect x="10" y="12" fill="#231F20" width="1" height="1"/>
		<polygon fill="#FFE60D" points="11,8 11,12 10,12 10,13 9,13 8,13 8,12 7,12 7,8 		"/>
		<rect x="7" y="7" fill="#231F20" width="4" height="1"/>
		<polygon fill="#FFFFFF" points="11,6 11,7 7,7 7,6 8,6 8,5 10,5 10,6 		"/>
		<rect x="10" y="5" fill="#231F20" width="1" height="1"/>
		<rect x="10" y="4" fill="#231F20" width="1" height="1"/>
		<rect x="9" y="15" fill="#231F20" width="1" height="1"/>
		<rect x="9" y="13" fill="#231F20" width="1" height="1"/>
		<rect x="8" y="4" fill="#231F20" width="2" height="1"/>
		<rect x="8" y="2" fill="#231F20" width="2" height="1"/>
		<rect x="8" y="15" fill="#231F20" width="1" height="1"/>
		<rect x="8" y="13" fill="#231F20" width="1" height="1"/>
		<rect x="7" y="14" fill="#231F20" width="1" height="1"/>
		<rect x="7" y="12" fill="#231F20" width="1" height="1"/>
		<rect x="7" y="5" fill="#231F20" width="1" height="1"/>
		<rect x="7" y="4" fill="#231F20" width="1" height="1"/>
		<rect x="6" y="14" fill="#231F20" width="1" height="1"/>
		<rect x="6" y="8" fill="#231F20" width="1" height="4"/>
		<rect x="6" y="7" fill="#231F20" width="1" height="1"/>
		<rect x="6" y="6" fill="#231F20" width="1" height="1"/>
		<rect x="5" y="13" fill="#231F20" width="1" height="1"/>
		<rect x="5" y="5" fill="#231F20" width="1" height="1"/>
		<rect x="5" y="3" fill="#231F20" width="1" height="1"/>
		<rect x="4" y="12" fill="#231F20" width="1" height="1"/>
		<rect x="4" y="10" fill="#231F20" width="1" height="1"/>
		<rect x="4" y="8" fill="#231F20" width="1" height="1"/>
		<rect x="4" y="6" fill="#231F20" width="1" height="1"/>
		<rect x="4" y="4" fill="#231F20" width="1" height="1"/>
		<rect x="3" y="11" fill="#231F20" width="1" height="1"/>
		<rect x="3" y="9" fill="#231F20" width="1" height="1"/>
		<rect x="3" y="7" fill="#231F20" width="1" height="1"/>
		<rect x="2" y="10" fill="#231F20" width="1" height="1"/>
		<rect x="2" y="8" fill="#231F20" width="1" height="1"/>
		<rect x="2" y="6" fill="#231F20" width="1" height="1"/>
	</g>
</g>
</svg>
