<?xml version="1.0" encoding="utf-8"?>
<!-- Generator: Adobe Illustrator 19.2.1, SVG Export Plug-In . SVG Version: 6.00 Build 0)  -->
<svg version="1.0" id="art" xmlns="http://www.w3.org/2000/svg" xmlns:xlink="http://www.w3.org/1999/xlink" x="0px" y="0px"
	 width="18px" height="18px" viewBox="0 0 18 18" enable-background="new 0 0 18 18" xml:space="preserve">
<g id="check">
</g>
<linearGradient id="SVGID_1_" gradientUnits="userSpaceOnUse" x1="5" y1="5" x2="13" y2="5">
	<stop  offset="0" style="stop-color:#DE3934"/>
	<stop  offset="1" style="stop-color:#E6552F"/>
</linearGradient>
<circle fill="url(#SVGID_1_)" cx="9" cy="5" r="4"/>
<linearGradient id="SVGID_2_" gradientUnits="userSpaceOnUse" x1="5" y1="12.5" x2="13" y2="12.5">
	<stop  offset="0" style="stop-color:#DE3934"/>
	<stop  offset="1" style="stop-color:#E6552F"/>
</linearGradient>
<path fill="url(#SVGID_2_)" d="M8.996,11C6.786,11.008,4.998,11.687,5,12.517C5.002,13.344,6.796,14.008,9.005,14
	c2.209-0.008,3.998-0.687,3.995-1.515C12.997,11.656,11.204,10.992,8.996,11z"/>
<linearGradient id="SVGID_3_" gradientUnits="userSpaceOnUse" x1="5" y1="16.5" x2="13" y2="16.5">
	<stop  offset="0" style="stop-color:#DE3934"/>
	<stop  offset="1" style="stop-color:#E6552F"/>
</linearGradient>
<path fill="url(#SVGID_3_)" d="M13,16.495c0.002,0.276-1.786,0.503-3.995,0.505C6.796,17.003,5.002,16.781,5,16.506
	C4.998,16.229,6.786,16.003,8.996,16C11.204,15.997,12.997,16.219,13,16.495L13,16.495z"/>
</svg>
