<?xml version="1.0" encoding="utf-8"?>
<!-- Generator: Adobe Illustrator 19.2.1, SVG Export Plug-In . SVG Version: 6.00 Build 0)  -->
<svg version="1.0" id="Layer_2" xmlns="http://www.w3.org/2000/svg" xmlns:xlink="http://www.w3.org/1999/xlink" x="0px" y="0px"
	 width="30px" height="30px" viewBox="0 0 30 30" enable-background="new 0 0 30 30" xml:space="preserve">
<g id="check">
</g>
<g>
	<path d="M15.125,13.341c-0.273,7.636-1.023,12-2.318,14.25C13.693,27.864,14.648,28,15.602,28c0.955,0,1.909-0.136,2.795-0.409
		c-1.295-2.25-2.045-6.614-2.318-14.25H15.125z"/>
	<path d="M24.398,19c0-4.295-2.932-7.909-7.023-8.795C17.17,7.273,17.17,6.114,17.17,4.682h-0.682c0,0,0.068,4.091,0.068,5.386
		C16.284,10,16.08,10,15.807,10V1h-0.614v9c-0.273,0-0.477,0.068-0.75,0.068c0.068-1.295,0.068-5.386,0.068-5.386H13.83
		c0,1.432,0,2.659-0.205,5.523C9.602,11.091,6.602,14.636,6.602,19c0,3.136,1.705,5.932,4.091,7.568
		c3.205-3.341,3.75-12.545,3.75-13.159c-0.545,0-1.159,0.205-1.227,0.205c-0.682,4.227-2.591,7.909-4.705,9.886
		c-0.75-1.159-1.159-2.455-1.159-3.682c0-4.023,3.818-7.091,8.318-7.091c4.432,0,8.25,3.068,7.977,7.023
		c0,1.227-0.341,2.523-1.159,3.682c-2.182-1.977-4.023-5.523-4.705-9.886c-0.136,0-0.75-0.205-1.227-0.205
		c0,0.614,0.477,9.886,3.75,13.159C22.83,24.932,24.398,22.136,24.398,19z"/>
</g>
</svg>
