<?xml version="1.0" encoding="utf-8"?>
<!-- Generator: Adobe Illustrator 19.2.1, SVG Export Plug-In . SVG Version: 6.00 Build 0)  -->
<svg version="1.0" id="Layer_2" xmlns="http://www.w3.org/2000/svg" xmlns:xlink="http://www.w3.org/1999/xlink" x="0px" y="0px"
	 width="18px" height="18px" viewBox="0 0 18 18" enable-background="new 0 0 18 18" xml:space="preserve">
<g id="check">
</g>
<g>
	<rect x="8.429" y="3.864" width="1.141" height="1.141"/>
	<rect x="8.674" y="1.5" width="0.652" height="0.652"/>
	<rect x="5.929" y="2.046" transform="matrix(0.9239 -0.3827 0.3827 0.9239 -0.4317 2.5741)" width="0.652" height="0.652"/>
	<rect x="3.601" y="3.601" transform="matrix(0.7072 -0.7071 0.7071 0.7072 -1.6267 3.9269)" width="0.652" height="0.652"/>
	<rect x="2.046" y="5.929" transform="matrix(0.3827 -0.9239 0.9239 0.3827 -4.3142 6.0528)" width="0.652" height="0.652"/>
	<rect x="1.5" y="8.674" width="0.652" height="0.652"/>
	<rect x="2.046" y="11.419" transform="matrix(0.9239 -0.3827 0.3827 0.9239 -4.3141 1.8018)" width="0.652" height="0.652"/>
	<rect x="3.601" y="13.747" transform="matrix(0.7071 -0.7071 0.7071 0.7071 -8.8006 6.8988)" width="0.652" height="0.652"/>
	<rect x="5.929" y="15.302" transform="matrix(0.3827 -0.9239 0.9239 0.3827 -10.5771 15.4261)" width="0.652" height="0.652"/>
	<rect x="8.674" y="15.848" width="0.652" height="0.652"/>
	<rect x="11.419" y="15.302" transform="matrix(0.9239 -0.3827 0.3827 0.9239 -5.0864 5.6842)" width="0.652" height="0.652"/>
	<rect x="13.747" y="13.747" transform="matrix(0.7071 -0.7072 0.7072 0.7071 -5.8291 14.074)" width="0.652" height="0.652"/>
	<rect x="15.302" y="11.419" transform="matrix(0.3827 -0.9239 0.9239 0.3827 -1.2038 21.689)" width="0.652" height="0.652"/>
	<rect x="15.848" y="8.674" width="0.652" height="0.652"/>
	<rect x="15.302" y="5.929" transform="matrix(0.9239 -0.3827 0.3827 0.9239 -1.204 6.4565)" width="0.652" height="0.652"/>
	<rect x="13.747" y="3.601" transform="matrix(0.7071 -0.7071 0.7071 0.7071 1.3448 11.1012)" width="0.652" height="0.652"/>
	<rect x="11.419" y="2.046" transform="matrix(0.3827 -0.9239 0.9239 0.3827 5.0591 12.3157)" width="0.652" height="0.652"/>
	<rect x="7.366" y="2.754" transform="matrix(0.9808 -0.1951 0.1951 0.9808 -0.4818 1.5948)" width="0.978" height="0.978"/>
	<rect x="5.25" y="3.63" transform="matrix(0.8314 -0.5556 0.5556 0.8314 -1.3215 3.883)" width="0.978" height="0.978"/>
	<rect x="3.63" y="5.25" transform="matrix(0.5555 -0.8315 0.8315 0.5555 -2.9409 5.9762)" width="0.978" height="0.978"/>
	<rect x="2.754" y="7.366" transform="matrix(0.195 -0.9808 0.9808 0.195 -5.0934 9.5037)" width="0.978" height="0.978"/>
	<rect x="2.754" y="9.656" transform="matrix(0.9808 -0.1951 0.1951 0.9808 -1.917 0.8277)" width="0.978" height="0.978"/>
	<rect x="3.63" y="11.772" transform="matrix(0.8315 -0.5555 0.5555 0.8315 -6.1172 4.3546)" width="0.978" height="0.978"/>
	<rect x="5.25" y="13.391" transform="matrix(0.5556 -0.8315 0.8315 0.5556 -8.9906 10.9408)" width="0.978" height="0.978"/>
	<rect x="7.366" y="14.268" transform="matrix(0.1951 -0.9808 0.9808 0.1951 -8.1509 19.5818)" width="0.978" height="0.978"/>
	<rect x="9.656" y="14.268" transform="matrix(0.9808 -0.1951 0.1951 0.9808 -2.6841 2.2628)" width="0.978" height="0.978"/>
	<rect x="11.772" y="13.391" transform="matrix(0.8315 -0.5555 0.5555 0.8315 -5.645 9.1504)" width="0.978" height="0.978"/>
	<rect x="13.391" y="11.772" transform="matrix(0.5556 -0.8314 0.8314 0.5556 -4.026 16.9896)" width="0.978" height="0.978"/>
	<rect x="14.268" y="9.656" transform="matrix(0.1951 -0.9808 0.9808 0.1951 1.9277 22.6392)" width="0.978" height="0.978"/>
	<rect x="14.268" y="7.366" transform="matrix(0.9808 -0.1951 0.1951 0.9808 -1.2489 3.0302)" width="0.978" height="0.978"/>
	<rect x="13.391" y="5.25" transform="matrix(0.8314 -0.5556 0.5556 0.8314 -0.849 8.6794)" width="0.978" height="0.978"/>
	<rect x="11.772" y="3.63" transform="matrix(0.5556 -0.8315 0.8315 0.5556 2.0238 12.0254)" width="0.978" height="0.978"/>
	<rect x="9.656" y="2.754" transform="matrix(0.1951 -0.9808 0.9808 0.1951 4.985 12.5605)" width="0.978" height="0.978"/>
	<rect x="8.429" y="12.995" width="1.141" height="1.141"/>
	<rect x="6.663" y="4.192" transform="matrix(0.9239 -0.3826 0.3826 0.9239 -1.2779 3.1393)" width="1.18" height="1.18"/>
	<rect x="10.157" y="12.628" transform="matrix(0.9239 -0.3827 0.3827 0.9239 -4.2404 5.1193)" width="1.18" height="1.18"/>
	<rect x="5.177" y="5.177" transform="matrix(0.7071 -0.7071 0.7071 0.7071 -2.3908 5.7722)" width="1.189" height="1.189"/>
	<rect x="11.634" y="11.634" transform="matrix(0.7071 -0.7071 0.7071 0.7071 -5.065 12.2275)" width="1.189" height="1.189"/>
	<rect x="4.193" y="6.664" transform="matrix(0.3827 -0.9239 0.9239 0.3827 -3.7486 8.8958)" width="1.178" height="1.178"/>
	<rect x="12.628" y="10.157" transform="matrix(0.3827 -0.9239 0.9239 0.3827 -1.7695 18.8458)" width="1.18" height="1.18"/>
	<rect x="3.864" y="8.429" width="1.141" height="1.141"/>
	<rect x="12.995" y="8.429" width="1.141" height="1.141"/>
	<rect x="4.192" y="10.157" transform="matrix(0.9239 -0.3827 0.3827 0.9239 -3.7488 2.6482)" width="1.18" height="1.18"/>
	<rect x="12.628" y="6.663" transform="matrix(0.9239 -0.3826 0.3826 0.9239 -1.7694 5.6098)" width="1.18" height="1.18"/>
	<rect x="5.177" y="11.634" transform="matrix(0.7071 -0.7071 0.7071 0.7071 -6.956 7.6629)" width="1.189" height="1.189"/>
	<rect x="11.634" y="5.177" transform="matrix(0.7071 -0.7071 0.7071 0.7071 -0.4998 10.3371)" width="1.189" height="1.189"/>
	<rect x="6.663" y="12.628" transform="matrix(0.3827 -0.9239 0.9239 0.3827 -7.7342 14.8602)" width="1.18" height="1.18"/>
	<rect x="10.157" y="4.192" transform="matrix(0.3827 -0.9239 0.9239 0.3827 2.2163 12.8813)" width="1.18" height="1.18"/>
</g>
</svg>
