<?xml version="1.0" encoding="UTF-8" standalone="no"?>
<!-- Generator: Adobe Illustrator 18.1.0, SVG Export Plug-In . SVG Version: 6.00 Build 0)  -->
<svg id="Слой_1" xmlns="http://www.w3.org/2000/svg" xml:space="preserve" viewBox="0 0 30 30" version="1.1" y="0px" x="0px" xmlns:xlink="http://www.w3.org/1999/xlink" enable-background="new 0 0 30 30">
<polygon points="23.435 24.697 29.631 13.966 23.435 3.234 21.177 3.234 27.372 13.966 21.177 24.697" fill="#d5d5d5"/>
		<path d="m25.078 13.967l-6.197-10.733s-12.407-0.004-12.407 0c4.557 0.911 7.99 4.944 7.99 9.77 0 0.335-0.017 0.667-0.05 0.993 2.855 1.757 4.754 4.866 4.754 8.411 0 0.775-0.08 1.565-0.252 2.289l6.162-10.73z" fill="#d5d5d5"/>
	<path d="m18.917 24.697c-0.818-6.057-6.017-10.73-12.288-10.73 2.364 0 3.89-1.676 3.892-3.917 0-1.258-1.314-4.936-4.046-6.817l-6.184 10.734 6.197 10.733 12.429-0.003z" fill="#d5d5d5"/>
</svg>
