<?xml version="1.0" encoding="utf-8"?>
<!-- Generator: Adobe Illustrator 19.2.1, SVG Export Plug-In . SVG Version: 6.00 Build 0)  -->
<svg version="1.0" id="art" xmlns="http://www.w3.org/2000/svg" xmlns:xlink="http://www.w3.org/1999/xlink" x="0px" y="0px"
	 width="36px" height="36px" viewBox="0 0 36 36" enable-background="new 0 0 36 36" xml:space="preserve">
<g id="check">
</g>
<g>
	<path fill="#296A51" d="M2,18C2,9.181,9.181,2,18,2v5.795C12.331,7.795,7.795,12.331,7.795,18S12.331,28.205,18,28.205
		c5.543,0,10.205-4.535,10.205-10.205H34c0,8.819-7.181,16-16,16S2,26.819,2,18"/>
	<path fill="#87B94B" d="M11,18c0-3.875,3.125-7,7-7s7,3.125,7,7s-3.125,7-7,7C14.125,25.125,11,21.875,11,18"/>
	<path fill="#296A51" d="M23,9c0-2.25,1.75-4,4-4s4,1.75,4,4s-1.75,4-4,4S23,11.25,23,9"/>
</g>
</svg>
