<?xml version="1.0" encoding="utf-8"?>
<!-- Generator: Adobe Illustrator 19.2.1, SVG Export Plug-In . SVG Version: 6.00 Build 0)  -->
<svg version="1.0" id="art" xmlns="http://www.w3.org/2000/svg" xmlns:xlink="http://www.w3.org/1999/xlink" x="0px" y="0px"
	 width="30px" height="30px" viewBox="0 0 30 30" enable-background="new 0 0 30 30" xml:space="preserve">
<g id="check">
</g>
<path fill="#4B411C" d="M14.907,21.627c0,0,0.653-0.56,0.653-1.493c0-0.933-0.84-1.587-1.773-1.68c-0.747-0.093-2.053,0-2.427,0
	s-0.933,0-1.307-0.467l1.12-0.187c0.467-0.093,1.4-0.467,1.96-0.467c0,0-0.187-0.28-0.653-0.28c-0.28,0-0.373,0.093-0.56,0.187
	c-0.28,0-0.747,0.093-1.027-0.467c0,0,0.373,0.28,0.747,0.187c0.28-0.093,0.373-0.187,0.467-0.28
	c0.187-0.093,0.373-0.187,0.56-0.187c0.187,0,0.373,0,0.56,0.187c0.093,0.093,0.467,0.093,0.28-0.093
	c-0.187-0.187-0.467-0.373-0.933-0.373c-0.747,0-2.053,0.187-2.52,0.373c-0.28,0.093-0.56,0.28-0.653,0.467l0,0
	c0,0.093-0.093,0.093-0.373,0.373c0-0.467,0.187-1.68,0.747-2.147c0.56-0.56,2.147-0.933,2.707-1.027c0,0-0.187-0.373,0-0.56
	c0.28-0.28,1.12-0.933,6.16-0.933c0,0-0.28,0.187-0.373,0.373c0,0,1.96,0.093,3.08,0.653c0.187,0.093,0.56,0.093,0.653-0.653
	l-0.28-0.187c0,0,0-0.187,0.093-0.28c0.093-0.093,0-0.187-0.093-0.093c-0.187,0-0.187,0.093-0.187,0.093s-0.28,0.093-0.28-0.093
	c0-0.093-0.28-0.56-0.933-0.653c0,0,0.28-0.467,1.027-0.373c0,0,0,0.28,0.187,0.187c0.187,0,0.373-0.187,0.373,0
	c0,0.187,0.093,0.467,0.467,0c0,0,0.373,0.187,0.747,0.093c0.373-0.093,0.653-0.373,0.747-0.933c0-0.093,0-0.187,0.093-0.28
	c0.093-0.093,0.187-0.187,0-0.373c-0.187-0.187-0.933-0.56-1.213-0.747c-0.28-0.187-0.84-0.373-0.84-1.493s-0.373-1.773-1.773-2.987
	v0.373c0,0-0.373-0.467-1.4-0.747c0,0,0.187-0.467,0.187-0.747s-0.093-0.467-0.467-0.373c-0.373,0.093-1.68,0.56-2.147,0.653
	c-0.373,0.093-3.453,1.12-5.227,2.893c0,0,0.467-1.12,1.307-2.24c-0.653,0.187-1.213,0.467-1.867,0.747
	C9.587,6.88,8.373,9.493,8.373,11.64c0,0-0.56-1.867-0.093-4.573C7.627,7.627,7.067,8.28,6.6,8.933
	c-0.093,1.493-0.093,3.547,1.12,6.44c0,0-1.307-0.933-2.427-4.013c-0.373,0.933-0.56,1.96-0.653,3.08
	c1.027,1.96,2.613,3.827,5.693,5.507c0,0-2.52-0.373-5.413-2.52c0.187,1.213,0.653,2.24,1.307,3.267
	c1.587,0.747,4.013,1.587,7.467,1.4c0,0-1.867,1.027-5.693,0.747c0,0,0.653,0.84,2.427,1.68c1.587,0.747,3.733,0.28,4.387-0.187
	c0.84-0.56,1.773-1.96,1.307-3.64C16.12,20.693,15.747,21.347,14.907,21.627z M21.253,8.187c0,0.28-0.093,0.28-0.28,0.187
	c-0.093-0.093-0.187-0.187-0.28-0.187c-0.093,0-0.187,0.093-0.093,0.187c0.093,0.093,0.28,0.467,0.187,0.747
	c0,0-0.467-0.84-0.933-1.213c-0.373-0.28,0.28-0.187,0.373-0.187c0.373,0,0.467,0.093,0.56,0.093c0.089,0,0.349,0.085,0.453-0.56
	h0.014V8.187z M16.68,5.387c0.467-0.747,1.12-1.12,1.307-1.213c0.187-0.093,0.28-0.093,0.187,0c-0.187,0.187-0.467,0.653-0.653,0.84
	c0,0.093,0,0.187,0.093,0.187c0.093,0.093,0.093,0.187,0,0.187c-0.187,0-0.467,0.093-0.747,0.187
	C16.68,5.667,16.587,5.48,16.68,5.387z M13.507,10.707c0.747-1.773,2.333-3.64,3.36-4.48l0,0c-1.213,1.493-2.053,3.547-1.96,3.64
	C15,9.773,15.28,9.773,15.467,9.68c0.187-0.093,0.187,0.093,0.187,0.187c-0.187,0.56-0.467,1.307-0.373,1.68
	c0.093,0.373,1.027,0.56,1.027,0.56c-0.187,0-1.213,0-1.4,0.093c-0.28,0-0.653,0.093-0.56-0.373c0.093-0.56,0.373-1.587,0.373-1.587
	c-0.28,0.093-0.84,0.373-1.027,0.467C13.507,10.893,13.413,10.8,13.507,10.707z"/>
<path fill="#4B411C" d="M19.573,18.36c0.373,0.187,1.12,0.373,1.12,0.373c-0.187-0.187-0.653-0.747-0.84-0.933
	c-0.56-0.653-1.4-1.307-2.147-1.68C16.4,15.467,15,15.467,14.813,15.373c-0.187,0-0.56,0-0.373-0.373
	c0.28-0.373,1.68-1.493,1.68-1.493c-0.28,0-1.68,0.093-2.053,0.187C13.693,13.787,13.6,13.6,13.6,13.32c0,0-0.84,0.747-0.373,1.12
	c0.093,0.093,0.187,0.093,0.467,0c0.187-0.093,0.653-0.187,0.747-0.28c0,0-0.373,0.56-0.373,0.747
	c-0.093,0.187-0.093,0.373,0.28,0.467c0.373,0.093,2.147,0.653,3.267,1.493c1.12,0.747,2.24,1.773,3.173,3.547
	c0.84,1.773,0.373,3.173,0.28,3.36c0.467-0.373,1.027-0.84,1.493-1.307c-0.467-1.493-1.68-2.427-2.333-3.267
	C19.947,18.827,19.573,18.36,19.573,18.36z"/>
<path fill="#4B411C" d="M24.24,20.32c0.373-0.467,0.653-1.027,0.84-1.68c-1.12-0.933-2.987-2.52-5.413-3.08
	C19.667,15.56,23.027,16.867,24.24,20.32z"/>
<path fill="#4B411C" d="M16.4,25.453c0.747-0.093,1.4-0.28,2.053-0.467c0.373-0.84,0.747-2.8,0.373-4.387
	C18.827,20.6,18.92,24.24,16.4,25.453z"/>
<path fill="#4B411C" d="M23.493,14.067c0.653,0,0.933-0.56,0.933-0.56c-0.653,0.187-1.587,0.28-2.333,0.093
	c0,0,1.867,0.84,3.64,2.52c0.093-0.467,0.093-0.84,0.093-1.307V14.72C25.547,14.627,23.493,14.067,23.493,14.067z"/>
<path fill="#4B411C" d="M15,1C7.253,1,1,7.253,1,15s6.253,14,14,14s14-6.253,14-14S22.747,1,15,1z M15,28.067
	c-7.187,0-13.067-5.88-13.067-13.067S7.813,1.933,15,1.933S28.067,7.813,28.067,15S22.187,28.067,15,28.067z"/>
</svg>
