<?xml version="1.0" encoding="utf-8"?>
<!-- Generator: Adobe Illustrator 19.2.1, SVG Export Plug-In . SVG Version: 6.00 Build 0)  -->
<svg version="1.0" id="art" xmlns="http://www.w3.org/2000/svg" xmlns:xlink="http://www.w3.org/1999/xlink" x="0px" y="0px"
	 width="36px" height="36px" viewBox="0 0 36 36" enable-background="new 0 0 36 36" xml:space="preserve">
<g id="check">
</g>
<path fill="#14478E" d="M24.176,14.155c0.608-0.203,1.318-0.709,1.318-2.027c0-1.419-1.115-2.128-2.838-2.128h-2.838v3.446h-1.723
	c-2.23,0-2.736,1.52-2.736,2.331c0,1.216,0.709,1.723,1.926,2.331c0.811,0.304,1.723,0.709,1.723,1.419
	c0,0.405-0.405,1.014-1.318,1.014H16.27c0.203-0.405,0.304-0.912,0.304-1.318c0-0.608-0.203-2.736-3.243-2.736H11V25h1.723v-3.75
	l0.709,0.709h4.561c2.128,0,3.243-1.115,3.243-2.432c0-0.405-0.101-0.912-0.203-1.115h1.824c2.736,0,3.345-1.318,3.345-2.331
	C26,15.169,25.291,14.358,24.176,14.155L24.176,14.155z M13.432,20.946h-0.811v-2.838h0.811c1.014,0,1.419,0.608,1.419,1.318
	S14.446,20.946,13.432,20.946z M20.02,15.676v2.027c-0.405-0.203-0.912-0.405-1.318-0.709c-0.608-0.203-1.115-0.608-1.115-1.216
	c0-0.304,0.203-0.912,1.216-0.912h2.027L20.02,15.676L20.02,15.676z M21.743,11.52h0.811c1.318,0,1.318,0.811,1.318,1.014
	c0,0.304-0.203,1.014-1.318,1.014h-0.811V11.52z M22.655,17.297h-1.014v-2.331h1.014c1.216,0,1.419,0.608,1.419,1.115
	C24.176,16.791,23.77,17.297,22.655,17.297z"/>
<path fill="#14478E" d="M28,2H14c-3.3,0-6,2.7-6,6l0,0h14c3.3,0,6,2.7,6,6v14h0c3.3,0,6-2.7,6-6V8C34,4.7,31.3,2,28,2z"/>
<path fill="#DC6831" d="M8,22V8h0c-3.3,0-6,2.7-6,6v14c0,3.3,2.7,6,6,6h14c3.3,0,6-2.7,6-6v0H14C10.7,28,8,25.3,8,22z"/>
</svg>
