<?xml version="1.0" encoding="utf-8"?>
<!-- Generator: Adobe Illustrator 19.2.1, SVG Export Plug-In . SVG Version: 6.00 Build 0)  -->
<svg version="1.0" id="Layer_2" xmlns="http://www.w3.org/2000/svg" xmlns:xlink="http://www.w3.org/1999/xlink" x="0px" y="0px"
	 width="24px" height="24px" viewBox="0 0 24 24" enable-background="new 0 0 24 24" xml:space="preserve">
<g id="check">
</g>
<g>
	<path fill="#FFFFFF" d="M1,9c0,0,8.854,6.13,0,14h7.719l5.827-6.886L8.643,9H1z M11,16c0,1.111-0.889,2-2,2s-2-0.889-2-2
		c0-1.111,0.889-2,2-2S11,14.889,11,16z"/>
	<path fill="#FFFFFF" d="M24,1h-7.643l-5.903,7.114L16.281,15H24C15.146,7.13,24,1,24,1z M16,10c-1.111,0-2-0.889-2-2
		c0-1.111,0.889-2,2-2s2,0.889,2,2C18,9.111,17.111,10,16,10z"/>
</g>
</svg>
