<?xml version="1.0" encoding="utf-8"?>
<!-- Generator: Adobe Illustrator 19.2.1, SVG Export Plug-In . SVG Version: 6.00 Build 0)  -->
<svg version="1.0" id="Layer_2" xmlns="http://www.w3.org/2000/svg" xmlns:xlink="http://www.w3.org/1999/xlink" x="0px" y="0px"
	 width="18px" height="18px" viewBox="0 0 18 18" enable-background="new 0 0 18 18" xml:space="preserve">
<g id="check">
</g>
<g>
	<path d="M1.036,9.968c0.442,0.885,1.161,1.604,1.991,2.046c-0.221-0.387-0.387-0.829-0.387-1.327V5.267
		C1.921,5.433,1.368,5.931,1.036,6.539V9.968z"/>
	<path d="M4.907,4.604c0.442,0,0.83-0.387,0.83-0.83S5.35,3,4.907,3H3.304C2.032,3,1.036,3.995,1.036,5.267v0.719
		c0.387-0.829,1.272-1.382,2.267-1.382H4.907z"/>
	<path d="M5.46,15c2.433,0,4.424-1.935,4.424-4.313V4.604h2.654c1.161,0,2.323,0.498,3.207,1.272C15.414,4.217,14.032,3,12.317,3
		H8.225v7.687c0,1.493-1.272,2.71-2.765,2.71c-1.77,0-3.539-0.995-4.424-2.654C1.092,13.065,3.027,15,5.46,15z"/>
	<path d="M13.81,5.323c0.221,0.276,0.387,0.774,0.387,1.161c0,0.387-0.111,0.719-0.332,1.106c-0.221,0.332-0.221,0.774,0.166,0.995
		c0.719,0.387,1.217,1.106,1.272,1.88c0.055,0.553-0.055,1.161-0.387,1.714c0.885-0.442,1.604-1.161,1.991-1.991
		C16.797,9.304,16.41,8.475,15.58,7.7c0.166-0.442,0.221-0.995,0.221-1.272C15.304,5.986,14.585,5.544,13.81,5.323z"/>
	<path d="M16.963,10.797c-0.553,1.438-2.046,2.544-4.037,2.544h-2.599c-0.442,0-0.829,0.387-0.829,0.829
		c0,0.442,0.387,0.83,0.829,0.83h2.599C15.138,15,17.018,13.12,16.963,10.797z"/>
</g>
</svg>
