<?xml version="1.0" encoding="utf-8"?>
<!-- Generator: Adobe Illustrator 19.2.1, SVG Export Plug-In . SVG Version: 6.00 Build 0)  -->
<svg version="1.0" id="Layer_2" xmlns="http://www.w3.org/2000/svg" xmlns:xlink="http://www.w3.org/1999/xlink" x="0px" y="0px"
	 width="30px" height="30px" viewBox="0 0 30 30" enable-background="new 0 0 30 30" xml:space="preserve">
<g id="check">
</g>
<g>
	<path d="M27.849,6.738c0-0.602,0.301-1.354-2.558-1.655c-0.106-0.011-0.229-0.019-0.347-0.027
		c-0.856-0.852-1.826-1.603-2.899-2.223c-4.774-2.491-9.97-2.385-14.19,0.003C3.503,5.506,0.904,10.054,0.904,15
		c0,3.594,1.406,7.012,3.812,9.584c-0.2,0.293-0.324,0.479-0.34,0.511c-0.301,0.451-0.752,0.903-0.301,1.354
		c0.451,0.451,1.204-0.301,1.505-0.451c0.04-0.04,0.161-0.138,0.334-0.273c0.631,0.533,1.309,1.02,2.038,1.441
		C9.953,28.349,12.456,29,15,29c2.521,0,4.892-0.616,7.048-1.835c4.348-2.512,7.048-7.173,7.048-12.165
		c0-2.541-0.701-4.993-1.961-7.123C27.575,7.409,27.849,7.022,27.849,6.738z M1.904,15c0-4.596,2.42-8.825,6.458-11.303
		C10.354,2.571,12.556,2,14.904,2c2.244,0,4.491,0.578,6.659,1.709c0.656,0.379,1.266,0.815,1.836,1.293
		c-3.349-0.018-8.351,0.409-9.093,0.533c-0.903,0.15-0.903,1.053-0.602,1.204c0.301,0.301,1.655,1.053,2.107,1.354
		c0.451,0.15,0.301,0.451,0.301,0.752c-0.15,0.15-1.806,2.257-1.806,2.257c-0.61,0.61-6.666,9.241-9.011,12.638
		C3.151,21.369,1.904,18.262,1.904,15z M28.096,15c0,4.636-2.509,8.966-6.544,11.297C19.552,27.427,17.348,28,15,28
		c-2.367,0-4.689-0.603-6.543-1.698c-0.613-0.354-1.187-0.76-1.726-1.2c1.5-1.13,4.014-2.978,4.868-3.618
		c1.204-0.903,7.072-6.019,9.028-7.674c1.956-1.655,4.514-4.063,4.514-4.063c0.459-0.413,0.883-0.794,1.26-1.147
		C27.49,10.527,28.096,12.726,28.096,15z"/>
</g>
</svg>
