<?xml version="1.0" encoding="utf-8"?>
<!-- Generator: Adobe Illustrator 19.2.1, SVG Export Plug-In . SVG Version: 6.00 Build 0)  -->
<svg version="1.0" id="Layer_2" xmlns="http://www.w3.org/2000/svg" xmlns:xlink="http://www.w3.org/1999/xlink" x="0px" y="0px"
	 width="24px" height="24px" viewBox="0 0 24 24" enable-background="new 0 0 24 24" xml:space="preserve">
<g id="check">
</g>
<g>
	<path d="M20.08,15.833c0-3.659-2.497-6.737-5.982-7.492c-0.174-2.497-0.174-3.485-0.174-4.705h-0.581c0,0,0.058,3.485,0.058,4.588
		c-0.232-0.058-0.407-0.058-0.639-0.058V0.5h-0.523v7.667c-0.232,0-0.407,0.058-0.639,0.058c0.058-1.104,0.058-4.588,0.058-4.588
		h-0.581c0,1.22,0,2.265-0.174,4.705C7.476,9.096,4.92,12.116,4.92,15.833c0,2.672,1.452,5.053,3.485,6.447
		c2.73-2.846,3.194-10.687,3.194-11.21c-0.465,0-0.987,0.174-1.045,0.174c-0.581,3.601-2.207,6.737-4.008,8.422
		c-0.639-0.987-0.987-2.091-0.987-3.136c0-3.427,3.253-6.04,7.086-6.04c3.775,0,7.028,2.614,6.795,5.982
		c0,1.045-0.29,2.149-0.987,3.136c-1.859-1.684-3.427-4.705-4.008-8.422c-0.116,0-0.639-0.174-1.045-0.174
		c0,0.523,0.407,8.422,3.194,11.21C18.744,20.886,20.08,18.505,20.08,15.833z"/>
	<path d="M12.181,11.013c-0.232,6.505-0.871,10.222-1.975,12.139c0.755,0.232,1.568,0.349,2.381,0.349
		c0.813,0,1.626-0.116,2.381-0.349c-1.104-1.917-1.742-5.634-1.975-12.139H12.181z"/>
</g>
</svg>
