<?xml version="1.0" encoding="utf-8"?>
<!-- Generator: Adobe Illustrator 19.2.1, SVG Export Plug-In . SVG Version: 6.00 Build 0)  -->
<svg version="1.0" id="Layer_2" xmlns="http://www.w3.org/2000/svg" xmlns:xlink="http://www.w3.org/1999/xlink" x="0px" y="0px"
	 width="30px" height="30px" viewBox="0 0 30 30" enable-background="new 0 0 30 30" xml:space="preserve">
<g id="check">
</g>
<g>
	<path fill="#FFFFFF" d="M29,2h-9.281l-7.168,8.638L19.627,19H29C18.249,9.443,29,2,29,2z M19.535,13.027
		c-1.378,0-2.481-1.103-2.481-2.481c0-1.378,1.103-2.481,2.481-2.481c1.378,0,2.481,1.103,2.481,2.481
		C22.016,11.924,20.913,13.027,19.535,13.027z"/>
	<path fill="#FFFFFF" d="M1.551,28h9.373L18,19.638L10.832,11H1.551C1.551,11,12.303,18.443,1.551,28z M11.016,17.065
		c1.378,0,2.481,1.103,2.481,2.481c0,1.378-1.103,2.481-2.481,2.481c-1.378,0-2.481-1.103-2.481-2.481
		C8.535,18.168,9.638,17.065,11.016,17.065z"/>
</g>
</svg>
