<?xml version="1.0" encoding="utf-8"?>
<!-- Generator: Adobe Illustrator 19.2.1, SVG Export Plug-In . SVG Version: 6.00 Build 0)  -->
<svg version="1.0" id="art" xmlns="http://www.w3.org/2000/svg" xmlns:xlink="http://www.w3.org/1999/xlink" x="0px" y="0px"
	 width="36px" height="36px" viewBox="0 0 36 36" enable-background="new 0 0 36 36" xml:space="preserve">
<g id="check">
</g>
<path fill="#FFFFFF" d="M14.476,6.134L14.46,6.138l0.014-0.018L14.476,6.134z"/>
<path fill="#FFFFFF" d="M18.001,6.066c-1.273,0.001-2.229,0.418-2.436,0.909l2.436,0.962l2.437-0.962
	C20.232,6.484,19.276,6.067,18.001,6.066"/>
<path fill="#FFFFFF" d="M18.026,31.518h-0.002h-0.021h-0.024h-0.002c-0.772,0.005-1.835-0.153-2.346-0.302l-0.616,1.667
	c0.406,0.145,1.782,0.422,2.988,0.422c1.204,0,2.58-0.277,2.986-0.422l-0.615-1.667C19.86,31.365,18.798,31.523,18.026,31.518"/>
<path fill="#FFFFFF" d="M22.688,29.859c-0.459,0.259-1.482,0.649-2.077,0.83l0.5,1.377c0.921-0.252,1.682-0.546,2.309-0.861
	l-1.037-0.345L22.688,29.859z"/>
<path fill="#FFFFFF" d="M13.316,29.859l0.307,1.002l-1.038,0.345c0.627,0.315,1.39,0.609,2.308,0.861l0.501-1.377
	C14.799,30.509,13.774,30.118,13.316,29.859"/>
<path fill="#FFFFFF" d="M18.001,4.472c0.96,0,1.901,0.23,2.626,0.633c0.066-0.222,0.159-0.491,0.284-0.774l-0.274,0.033l-0.287,0.03
	l-0.122-0.262l-0.366-0.773l-0.667,0.348l-0.26,0.132l-0.208-0.205l-0.726-0.718l-0.724,0.718L17.07,3.839l-0.26-0.132l-0.671-0.348
	l-0.362,0.773l-0.124,0.262l-0.287-0.03l-0.273-0.033c0.125,0.283,0.217,0.552,0.284,0.774C16.105,4.701,17.045,4.472,18.001,4.472"
	/>
<path fill="#FFFFFF" d="M32.659,13.412c0.125,0.043,0.251,0.062,0.377,0.062c0.543,0,1.068-0.351,1.249-0.753
	c0,0-0.995-0.06-2.067-1.148c-0.341-0.352-0.702-0.458-1.011-0.458c-0.481,0-0.842,0.254-0.842,0.254
	C31.659,12.059,31.923,13.163,32.659,13.412"/>
<path fill="#FFFFFF" d="M2.967,13.474c0.126,0,0.253-0.019,0.374-0.062c0.738-0.249,1.005-1.353,2.297-2.042
	c0,0-0.362-0.254-0.84-0.254c-0.311,0-0.672,0.105-1.014,0.458c-1.07,1.087-2.065,1.148-2.065,1.148
	C1.898,13.123,2.424,13.474,2.967,13.474"/>
<path fill="#FFFFFF" d="M33.01,17.902c0.023,0.001,0.042,0.001,0.065,0.001c1.355,0,1.814-1.452,1.814-1.452h-0.027
	c-0.249,0-2.264-0.059-3.688-1.869c-0.937-1.191-1.706-2.237-3.223-2.649l-0.15-0.027l-0.032-0.152
	c-0.042-0.232,0.117-0.449,0.477-0.683c2.095-1.371,0.672-3.121,0.672-3.121S28.32,9.35,26.982,9.35
	c-0.032,0-0.066-0.002-0.099-0.002c-0.152-0.008-0.299-0.014-0.446-0.045L26.19,9.255c0,0,0.382-1.038-0.539-1.99
	c-0.694-0.719-1.537-0.842-2.025-0.842c-0.246,0-0.401,0.032-0.401,0.032c0.462,0.605,0.797,1.608,0.263,2.227
	c-0.462,0.532-1.589,0.558-1.589,1.351c0,0.336,0.314,0.728,0.877,1.08c1.695,1.067,3.377,2.484,4.077,4.382
	c0.874,2.367-0.111,3.938-1.517,4.84c0,0,0.441,0.406,1.08,0.458c0.13,0.013,0.257,0.019,0.376,0.019
	c1.35,0,2.048-0.633,2.048-0.633s-0.115,0.875-0.817,1.686c-0.648,0.75-1.498,1.191-2.796,1.21c0,0-0.041,0.602,0.534,1.123
	c0.368,0.329,1.217,0.436,1.217,0.436s-1.59,0.322-1.765,2.67c-0.095,1.272-0.421,1.715-0.421,1.715h0.029
	c3.689,0,3.595-3.164,3.595-3.164s0.256,0.937,1.286,1.181c0.124,0.032,0.257,0.045,0.384,0.045c0.331,0,0.619-0.078,0.619-0.078
	s-0.539-1.137-0.005-2.727c0.444-1.32,0.372-2.297,0.372-2.297s0.497,0.752,1.729,0.758h0.013c1.026,0,1.473-0.778,1.473-0.778
	c-2.46-1.021-2.217-4.316-2.217-4.316S32.387,17.88,33.01,17.902 M32.269,21.345c-1.001-0.494-1.633-1.803-1.786-2.275
	c-0.166,2.597-1.434,4.399-2.916,6.134c-0.769,0.9-1.037,1.774-1.037,1.774s0.148-0.991,0.813-1.797
	c1.383-1.661,2.697-3.73,2.795-6.121c0.067-1.669-0.361-3.022-1.031-4.138c0.375,1.162,0.321,2.584-0.95,3.912
	c0,0,2.533-3.034-1.008-6.145c-1.417-1.184-2.968-1.915-3.765-2.433c2.884,0.941,4.292-0.095,4.292-0.095
	c-0.921,0.798-2.113,0.785-2.852,0.67c0.201,0.098,0.409,0.2,0.634,0.321c2.432,1.321,4.617,3.494,4.989,6.503v-0.023
	C31.011,20.587,32.269,21.345,32.269,21.345"/>
<path fill="#FFFFFF" d="M9.028,24.632c0,0,0.849-0.107,1.218-0.436c0.574-0.521,0.533-1.123,0.533-1.123
	c-1.298-0.018-2.147-0.46-2.799-1.209c-0.698-0.812-0.814-1.687-0.814-1.687s0.698,0.633,2.046,0.633
	c0.121,0,0.247-0.006,0.377-0.018c0.64-0.052,1.082-0.458,1.082-0.458c-1.407-0.901-2.392-2.472-1.519-4.84
	c0.7-1.897,2.382-3.314,4.077-4.382c0.563-0.352,0.877-0.744,0.877-1.08c0-0.793-1.126-0.819-1.587-1.351
	c-0.534-0.619-0.199-1.623,0.262-2.227c0,0-0.154-0.031-0.401-0.031c-0.487,0-1.33,0.122-2.024,0.841
	c-0.923,0.952-0.54,1.99-0.54,1.99L9.568,9.303C9.42,9.334,9.272,9.34,9.121,9.348c-0.035,0-0.065,0.001-0.098,0.001
	c-1.342,0-1.936-1.399-1.936-1.399S5.665,9.7,7.759,11.072c0.36,0.234,0.519,0.452,0.477,0.684l-0.032,0.152l-0.152,0.027
	c-1.515,0.412-2.285,1.459-3.223,2.649c-1.424,1.81-3.436,1.869-3.687,1.869H1.114c0,0,0.46,1.452,1.816,1.452
	c0.022,0,0.042,0,0.065-0.001c0.623-0.022,0.943-0.261,0.943-0.261s0.241,3.295-2.218,4.316c0,0,0.448,0.778,1.474,0.778h0.012
	c1.233-0.007,1.729-0.759,1.729-0.759s-0.072,0.978,0.371,2.297c0.535,1.591-0.002,2.727-0.002,2.727s0.287,0.078,0.617,0.078
	c0.129,0,0.26-0.013,0.383-0.045c1.028-0.244,1.286-1.181,1.286-1.181s-0.094,3.164,3.595,3.164h0.027c0,0-0.323-0.442-0.418-1.715
	C10.619,24.954,9.028,24.632,9.028,24.632 M8.435,25.204c-1.482-1.735-2.749-3.537-2.916-6.134
	c-0.153,0.472-0.783,1.781-1.783,2.275c0,0,1.257-0.758,1.822-3.713v0.023c0.374-3.009,2.558-5.182,4.991-6.503
	c0.223-0.121,0.433-0.223,0.633-0.321c-0.739,0.115-1.932,0.128-2.852-0.67c0,0,1.408,1.036,4.291,0.095
	c-0.798,0.518-2.347,1.249-3.764,2.433c-3.542,3.111-1.009,6.146-1.009,6.146c-1.274-1.328-1.325-2.75-0.95-3.912
	c-0.671,1.116-1.1,2.469-1.031,4.138c0.097,2.391,1.41,4.459,2.791,6.121c0.668,0.806,0.818,1.797,0.818,1.797
	S9.204,26.104,8.435,25.204"/>
<path fill="#FFFFFF" d="M15.273,13.062c0.06,0.065,0.12,0.136,0.177,0.206c0.014,0.017,0.026,0.031,0.04,0.051
	c0.053,0.07,0.106,0.145,0.158,0.221c0.012,0.015,0.023,0.033,0.035,0.051c0.062,0.093,0.12,0.19,0.178,0.29
	c0.532,0.919,1.383,1.468,2.139,1.469c0.757-0.001,1.607-0.55,2.141-1.469c0.059-0.102,0.119-0.201,0.181-0.294
	c0.009-0.013,0.019-0.027,0.027-0.041c0.053-0.079,0.108-0.156,0.165-0.231c0.012-0.016,0.024-0.031,0.035-0.045
	c0.059-0.074,0.121-0.145,0.183-0.211c0.011-0.01,0.02-0.021,0.03-0.029c0.271-0.277,0.594-0.489,1.017-0.606l-0.188-0.11h-0.011
	l-0.749-0.435l-0.769-0.441l-2.056,1.119l-0.006-0.005l-0.004,0.005l-2.056-1.119l-0.769,0.441l-0.75,0.435h-0.009l-0.19,0.11
	c0.424,0.117,0.745,0.326,1.018,0.604C15.252,13.039,15.261,13.052,15.273,13.062 M17.169,12.973h0.87h0.869v0.597
	c-0.204-0.25-0.603-0.199-0.603-0.199v0.86c0,0,0.015,0.423,0.163,0.606h-0.429h-0.431c0.151-0.183,0.164-0.606,0.164-0.606v-0.86
	c0,0-0.397-0.051-0.603,0.199V12.973z"/>
<path fill="#FFFFFF" d="M17.823,11.815V8.321l-2.224-0.754l0.586,3.385L17.823,11.815z M17.346,9.18v0.561l-0.108-0.049
	c-0.005-0.004-0.163-0.04-0.439-0.258c-0.455-0.353-0.465-0.679-0.465-0.679L17.346,9.18z"/>
<path fill="#FFFFFF" d="M19.817,10.953l0.585-3.385L18.18,8.321v3.494L19.817,10.953z M18.658,9.18l1.011-0.425
	c0,0-0.009,0.326-0.466,0.679c-0.275,0.218-0.433,0.254-0.439,0.258l-0.107,0.049V9.18z"/>
<path fill="#FFFFFF" d="M14.678,19.914c0.216,0.079,0.479,0.095,0.614,0.095c0.005-0.016,0.013-0.037,0.019-0.062
	c0.012-0.039,0.023-0.079,0.031-0.123c0.038-0.194,0.051-0.412,0.054-0.554c-0.091-0.057-0.22-0.158-0.292-0.308
	c-0.082-0.174-0.201-0.255-0.372-0.255c-0.224,0-0.463,0.134-0.567,0.198C14.083,19.388,14.439,19.826,14.678,19.914"/>
<path fill="#FFFFFF" d="M19.597,18.061c-0.413,0.449-1.222,1.231-1.261,1.27l-0.049,0.049l-2.555-0.041
	c-0.002,0.253-0.043,0.468-0.083,0.626c-0.006,0.026-0.014,0.053-0.021,0.081l3.039,0.546c0.316-0.221,1.186-0.856,1.524-1.105
	c-0.246-0.359-0.269-0.784-0.214-1.084C19.817,18.301,19.695,18.184,19.597,18.061"/>
<path fill="#FFFFFF" d="M19.943,14.988c-0.589,0.584-1.153,0.8-1.657,0.85c-0.092,0.009-0.184,0.015-0.278,0.015h-0.007h-0.005
	c-0.094,0-0.187-0.006-0.278-0.015c-0.088-0.008-0.181-0.022-0.273-0.043c-0.033,0.132-0.075,0.405,0.045,0.666
	c0.107,0.236,0.324,0.411,0.64,0.528l0.106,0.042l0.002,0.115c0,0.034,0.025,0.777,0.835,0.984c0.132-0.136,0.252-0.26,0.341-0.363
	c-0.165-0.389-0.079-0.787,0.162-0.982c-0.011,0.041-0.116,1.017,0.666,1.379l0.129,0.061l-0.038,0.137
	c-0.013,0.041-0.273,0.985,0.673,1.336l0.168,0.064l-0.074,0.162c-0.017,0.036-0.388,0.892,0.487,1.379h1.896v-1.505
	c-0.674-0.082-0.96-0.625-1.033-1.008c-0.314-0.054-0.556-0.189-0.723-0.41c-0.397-0.524-0.056-1.003-0.051-1.03
	c-0.001,0.004,0,0.515,0.315,0.83c0.156,0.152,0.341,0.27,0.621,0.296l0.138,0.012l0.012,0.141c0.002,0.03,0.078,0.722,0.721,0.83
	l-0.002-3.075c0-0.476,0.139-0.955,0.306-1.398H19.943z"/>
<polygon fill="#FFFFFF" points="14.84,16.398 14.788,18.355 15.011,18.39 15.555,16.51 15.279,15.933 "/>
<path fill="#FFFFFF" d="M20.841,25.381c0.017,0,0.036,0.002,0.054,0.007c0.339,0.097,0.424,1.317,1.018,1.426
	c0.059,0.012,0.112,0.016,0.159,0.016c0.172,0,0.274-0.073,0.385-0.204c0,0-0.299-0.469-0.522-0.787
	c-0.297-0.415-0.527-0.916-1.081-0.916c-0.013,0-0.029,0-0.043,0.002c-0.182,0.009-0.294,0.098-0.294,0.098
	c-0.224-0.141-0.433-0.189-0.621-0.189c-0.346,0-0.615,0.159-0.751,0.159H19.14l-1.235-0.122c-0.193-0.018-0.346-0.213-0.401-0.289
	c-0.014-0.021-0.021-0.033-0.021-0.033c0-0.034,0-0.068-0.002-0.098c-0.042-1.01-0.823-1.441-1.102-1.448
	c0,0,0.033-0.192-0.042-0.265l-0.273,0.33l-0.893-0.448l0.637,0.745l-0.54,0.606c-0.068,0.069-0.059,0.162-0.031,0.202l0.233,0.206
	l0.296-0.18c0.015-0.011,0.042-0.014,0.074-0.014c0.082,0,0.205,0.021,0.315,0.021c0.121,0,0.225-0.026,0.237-0.139
	c-0.037,0.374-0.385,1.025-0.156,1.536l0.169,0.386l-1.091-0.157l-0.511,0.863c-0.158,0.287-0.182,0.598-0.031,0.767l0.191,0.239
	c0,0,0.268-0.284,0.328-0.471l-0.087-0.095c-0.073-0.08-0.069-0.152-0.024-0.239l0.32-0.531l1.288,0.304l0.068-0.116
	c0.088-0.146,0.213-0.189,0.351-0.189c0.057,0,0.115,0.007,0.176,0.016c0.24,0.047,0.633,0.11,1.026,0.11
	c0.432,0,0.861-0.077,1.089-0.333c0.467,0.692,1.412,0.802,1.338,1.154l-0.249,1.185c0.164-0.007,0.323-0.018,0.474-0.039
	l0.237-1.233c0.026-0.134,0.051-0.315,0.051-0.315c-0.091-0.093-0.312-0.288-0.437-0.526c-0.167-0.321-0.076-0.488-0.232-0.905
	C20.684,25.477,20.731,25.381,20.841,25.381 M16.019,23.647c-0.063-0.002-0.11-0.056-0.106-0.119
	c0.005-0.061,0.057-0.109,0.119-0.103c0.064,0.002,0.109,0.058,0.107,0.118C16.133,23.605,16.08,23.652,16.019,23.647"/>
<path fill="#FFFFFF" d="M14.259,26.502c0,0,0.428-0.176,0.465-0.301l-0.057-0.143c-0.041-0.093-0.035-0.193,0.043-0.248l0.461-0.319
	l0.77,0.148c0,0-0.139-0.175-0.126-0.408l-0.735-0.156l-0.693,0.422c-0.298,0.222-0.319,0.586-0.221,0.801L14.259,26.502z"/>
<path fill="#FFFFFF" d="M19.708,28.511c0.138-0.006,0.291-0.008,0.457-0.008c0,0,0.396-1.159,0.419-1.196
	c-0.222-0.098-0.684-0.343-0.862-0.455c0.118,0.176,0.404,0.377,0.347,0.532L19.708,28.511z"/>
<path fill="#FFE60D" d="M23.481,21.636H12.524v4.121c0,1.686,1.22,2.741,3.02,2.741c1.504,0,1.9,0.059,2.46,0.614
	c0.386-0.385,0.704-0.528,1.359-0.582l0.015-0.064l0.345-1.067c-0.019-0.024-0.584-0.665-0.584-0.665
	c-0.224,0.074-0.412,0.087-0.728,0.087c-0.324,0-0.69-0.038-1.088-0.112c-0.04-0.009-0.077-0.013-0.114-0.013
	c-0.049,0-0.052,0.004-0.065,0.028l-0.068,0.113l-0.125,0.207l-0.237-0.054l-1.052-0.248l-0.144,0.238l0.022,0.025l0.128,0.141
	l-0.057,0.184c-0.077,0.24-0.328,0.521-0.405,0.598l-0.263,0.282l-0.24-0.302l-0.18-0.226c-0.189-0.212-0.233-0.535-0.126-0.875
	c-0.002,0.002-0.006,0.004-0.011,0.005l-0.297,0.123l-0.133-0.29l-0.094-0.205c-0.161-0.362-0.102-0.89,0.333-1.21l0.846-0.478
	l0.805,0.158c0.019-0.077,0.048-0.354,0.071-0.424c-0.016-0.002-0.03-0.005-0.046-0.005l-0.464,0.173l-0.448-0.309
	c0,0-0.175-0.169-0.016-0.337l0.433-0.657l-1.098-1.379l1.688,0.693l0.112-0.139l0.228-0.273l0.259,0.246
	c0.073,0.071,0.115,0.157,0.136,0.244c0.465,0.181,1.299,0.716,1.372,1.584l-0.261,0.104v0.006c0.06,0.071,0.109,0.1,0.125,0.103
	l1.205,0.118c0.031-0.005,0.068-0.019,0.111-0.031c0.15-0.051,0.374-0.125,0.641-0.125c0.217,0,0.427,0.05,0.629,0.144
	c0.074-0.028,0.166-0.049,0.271-0.056l0.058-0.001c0.645,0,0.966,0.482,1.223,0.867c0.043,0.067,0.086,0.129,0.13,0.191
	c0.225,0.318,0.519,0.783,0.531,0.803l0.133,0.207l-0.162,0.189c-0.125,0.145-0.314,0.315-0.637,0.315
	c-0.067,0-0.139-0.007-0.218-0.022c-0.068-0.013-0.131-0.034-0.191-0.059c-0.009,0.064-0.023,0.139-0.034,0.205l-0.211,1.103
	c1.264-0.311,2.066-1.265,2.066-2.631L23.481,21.636z"/>
<path fill="#FFE60D" d="M12.524,21.305h8.522c-0.426-0.44-0.419-0.996-0.311-1.358c-0.124-0.059-0.226-0.131-0.318-0.209
	c-0.333,0.246-1.35,0.986-1.615,1.171l-0.057,0.038L15.4,20.342h-0.068c-0.08,0-0.198-0.003-0.326-0.019
	c-0.036,0.151-0.166,0.254-0.315,0.254c-0.017,0-0.036-0.001-0.053-0.005c-0.087-0.015-0.163-0.059-0.214-0.133
	c-0.052-0.072-0.073-0.158-0.059-0.246l0.013-0.072c-0.345-0.243-0.663-0.786-0.522-1.358l0.014-0.06l0.049-0.035
	c0.007-0.005,0.065-0.045,0.151-0.094l-0.243-0.037c-0.091-0.016-0.152-0.101-0.138-0.191c0.016-0.091,0.101-0.156,0.191-0.138
	l0.579,0.092l0.053-2.039l0.861-0.911l0.538,1.132l-0.568,1.961l0.512,0.081c0.09,0.014,0.152,0.098,0.138,0.191
	c-0.013,0.082-0.083,0.138-0.164,0.138c-0.009,0-0.018,0-0.027-0.001l-0.416-0.067c0.006,0.013,0.014,0.02,0.019,0.033
	c0.044,0.092,0.142,0.157,0.2,0.185l2.549,0.041c0.108-0.105,0.375-0.367,0.651-0.644c-0.628-0.238-0.856-0.779-0.893-1.138
	c-0.351-0.15-0.593-0.373-0.727-0.664c-0.163-0.36-0.105-0.722-0.062-0.897c-0.34-0.124-0.697-0.35-1.063-0.713h-3.841
	c0.165,0.443,0.304,0.921,0.304,1.398V21.305z"/>
<path fill="#231F20" d="M16.032,23.425c-0.063-0.006-0.114,0.043-0.119,0.103c-0.004,0.064,0.043,0.117,0.106,0.119
	c0.061,0.005,0.114-0.042,0.12-0.104C16.141,23.483,16.096,23.427,16.032,23.425"/>
<path fill="#231F20" d="M23.466,30.9l-0.631-0.242l0.174-0.652l0.192-0.711c0,0-1.118,0.607-2.695,1.062
	c-0.447,0.128-0.786,0.186-0.786,0.186v0.484c0,0-0.843,0.146-1.695,0.146h-0.01h-0.013h-0.016h-0.009
	c-0.853,0-1.694-0.146-1.694-0.146v-0.484c0,0-0.339-0.059-0.786-0.186c-1.576-0.455-2.693-1.062-2.693-1.062l0.189,0.711
	l0.178,0.652L12.538,30.9l-0.702,0.262c0.805,0.389,1.92,0.954,2.941,1.234l-0.241,0.658c0,0,1.295,0.59,3.451,0.595v0.001h0.006
	h0.01h0.008h0.005v-0.001c2.159-0.006,3.453-0.595,3.453-0.595l-0.242-0.658c1.021-0.279,2.138-0.845,2.939-1.234L23.466,30.9z
	 M12.584,31.206l1.038-0.345l-0.307-1.002c0.458,0.259,1.483,0.649,2.077,0.83l-0.501,1.377
	C13.975,31.814,13.211,31.521,12.584,31.206 M18.003,33.304c-1.206,0-2.583-0.277-2.988-0.422l0.616-1.667
	c0.511,0.15,1.575,0.308,2.346,0.303h0.002h0.024h0.021h0.002c0.772,0.005,1.834-0.153,2.347-0.303l0.615,1.667
	C20.583,33.027,19.207,33.304,18.003,33.304 M21.111,32.066l-0.5-1.377c0.595-0.181,1.619-0.571,2.078-0.83l-0.306,1.002
	l1.037,0.345C22.792,31.521,22.032,31.814,21.111,32.066"/>
<path fill="#231F20" d="M18.001,4.875c1.285,0,2.313,0.426,2.881,0.879c0,0,0.169-1.016,0.745-1.912l-1.035,0.118l-0.542-1.15
	l-1.04,0.536L18.001,2.35l-1.006,0.997l-1.042-0.536l-0.541,1.15l-1.035-0.118c0.576,0.896,0.744,1.912,0.744,1.912
	C15.694,5.301,16.718,4.875,18.001,4.875 M15.367,4.364l0.287,0.03l0.124-0.262l0.362-0.773l0.671,0.347l0.26,0.133l0.207-0.205
	l0.724-0.718l0.726,0.718l0.208,0.205l0.26-0.133l0.667-0.347l0.366,0.773l0.122,0.262l0.287-0.03l0.274-0.033
	c-0.125,0.283-0.218,0.552-0.284,0.774c-0.724-0.403-1.665-0.633-2.626-0.633c-0.956,0-1.896,0.23-2.623,0.633
	c-0.067-0.222-0.159-0.491-0.284-0.774L15.367,4.364z"/>
<path fill="#231F20" d="M33.074,18.348c1.661,0,2.217-1.69,2.24-1.762l0.186-0.596l-0.623,0.02h-0.002
	c-0.219,0-2.053-0.049-3.353-1.701L31.4,14.155c-0.849-1.08-1.654-2.107-3.095-2.576c0.042-0.038,0.101-0.084,0.183-0.137
	c0.764-0.502,1.208-1.113,1.32-1.821c0.163-1.066-0.517-1.916-0.547-1.951l-0.462-0.572L28.51,7.777
	c-0.019,0.043-0.505,1.129-1.528,1.129h-0.076c-0.07-0.004-0.137-0.007-0.203-0.012c0.036-0.484-0.052-1.234-0.733-1.938
	c-0.818-0.847-1.821-0.974-2.345-0.974c-0.28,0-0.466,0.035-0.487,0.037L22.44,6.157l0.431,0.568
	c0.338,0.438,0.645,1.246,0.281,1.668c-0.117,0.134-0.356,0.243-0.584,0.353c-0.47,0.216-1.113,0.519-1.113,1.287
	c0,0.497,0.386,1.017,1.085,1.459c2.069,1.301,3.345,2.659,3.896,4.157c0.853,2.305-0.26,3.62-1.341,4.313l-0.485,0.312l0.424,0.39
	c0.057,0.05,0.576,0.508,1.343,0.573c0.145,0.009,0.284,0.017,0.414,0.017c0.491,0,0.91-0.077,1.25-0.181
	c-0.093,0.164-0.209,0.331-0.353,0.499c-0.618,0.715-1.378,1.041-2.47,1.059l-0.406,0.007l-0.031,0.407
	c-0.004,0.082-0.034,0.838,0.68,1.48c0.109,0.1,0.241,0.181,0.38,0.248c-0.485,0.437-0.978,1.197-1.073,2.499
	c-0.081,1.087-0.339,1.489-0.343,1.493l-0.448,0.685l0.811,0.011c1.34,0,2.366-0.37,3.077-1.102c0.42-0.433,0.66-0.923,0.802-1.356
	c0.233,0.198,0.534,0.373,0.927,0.466c0.149,0.035,0.312,0.054,0.488,0.054c0.378,0,0.695-0.08,0.731-0.089l0.518-0.138
	l-0.229-0.483c-0.017-0.039-0.449-1.009,0.016-2.392c0.2-0.599,0.302-1.134,0.352-1.551c0.326,0.17,0.763,0.31,1.327,0.312
	c1.282,0,1.847-0.958,1.872-0.998l0.253-0.44l-0.468-0.193c-1.528-0.634-1.866-2.338-1.934-3.259
	c0.138,0.027,0.296,0.051,0.474,0.056L33.074,18.348z M34.285,21.958c0,0-0.447,0.778-1.474,0.778h-0.013
	c-1.232-0.007-1.729-0.759-1.729-0.759s0.071,0.978-0.372,2.297c-0.535,1.591,0.005,2.727,0.005,2.727s-0.288,0.078-0.619,0.078
	c-0.127,0-0.259-0.013-0.384-0.045c-1.029-0.244-1.286-1.181-1.286-1.181s0.095,3.164-3.595,3.164H24.79
	c0,0,0.325-0.442,0.421-1.715c0.175-2.348,1.765-2.67,1.765-2.67s-0.848-0.107-1.216-0.436c-0.575-0.521-0.534-1.123-0.534-1.123
	c1.298-0.018,2.148-0.46,2.796-1.21c0.702-0.812,0.817-1.686,0.817-1.686s-0.698,0.633-2.047,0.633
	c-0.119,0-0.246-0.006-0.376-0.018c-0.639-0.052-1.08-0.458-1.08-0.458c1.405-0.901,2.39-2.473,1.517-4.84
	c-0.7-1.897-2.383-3.314-4.077-4.382c-0.563-0.352-0.878-0.744-0.878-1.08c0-0.793,1.128-0.818,1.59-1.351
	c0.534-0.619,0.199-1.623-0.263-2.227c0,0,0.156-0.032,0.401-0.032c0.488,0,1.331,0.123,2.025,0.842
	c0.921,0.952,0.539,1.99,0.539,1.99l0.247,0.048c0.147,0.031,0.294,0.037,0.447,0.045c0.033,0,0.067,0.002,0.099,0.002
	c1.338,0,1.936-1.399,1.936-1.399s1.422,1.749-0.672,3.121c-0.36,0.234-0.519,0.452-0.477,0.683l0.032,0.152l0.149,0.027
	c1.518,0.412,2.286,1.459,3.224,2.649c1.425,1.81,3.439,1.869,3.688,1.869h0.027c0,0-0.46,1.452-1.815,1.452
	c-0.023,0-0.042,0-0.064-0.001c-0.622-0.022-0.942-0.261-0.942-0.261S31.825,20.936,34.285,21.958"/>
<path fill="#231F20" d="M30.154,11.763c0.62,0.33,0.981,0.773,1.297,1.165c0.311,0.383,0.606,0.751,1.068,0.905
	c0.164,0.056,0.338,0.083,0.516,0.083c0.693,0,1.389-0.424,1.653-1.012l0.266-0.589l-0.643-0.038
	c-0.03-0.001-0.857-0.076-1.777-1.016c-0.378-0.386-0.836-0.588-1.329-0.588c-0.602,0-1.049,0.301-1.098,0.332l-0.591,0.416
	L30.154,11.763z M31.207,11.116c0.309,0,0.67,0.105,1.012,0.458c1.071,1.087,2.067,1.148,2.067,1.148
	c-0.181,0.401-0.706,0.752-1.249,0.752c-0.126,0-0.252-0.019-0.377-0.062c-0.737-0.249-1-1.353-2.294-2.042
	C30.365,11.37,30.726,11.116,31.207,11.116"/>
<path fill="#231F20" d="M30.445,17.632v0.023c-0.373-3.009-2.558-5.182-4.989-6.503c-0.225-0.121-0.433-0.223-0.634-0.321
	c0.74,0.115,1.932,0.129,2.852-0.67c0,0-1.408,1.036-4.292,0.095c0.798,0.518,2.349,1.249,3.766,2.433
	c3.54,3.111,1.008,6.145,1.008,6.145c1.272-1.328,1.325-2.75,0.951-3.912c0.67,1.115,1.098,2.468,1.031,4.138
	c-0.097,2.391-1.412,4.459-2.794,6.121c-0.665,0.806-0.813,1.797-0.813,1.797s0.268-0.874,1.037-1.774
	c1.482-1.735,2.749-3.537,2.915-6.134c0.153,0.472,0.785,1.781,1.786,2.275C32.269,21.345,31.011,20.587,30.445,17.632"/>
<path fill="#231F20" d="M11.577,28.764c-0.001-0.004-0.259-0.406-0.341-1.493c-0.096-1.302-0.589-2.062-1.075-2.499
	c0.14-0.067,0.271-0.148,0.38-0.248c0.714-0.642,0.684-1.397,0.679-1.48l-0.028-0.407l-0.409-0.007
	c-1.089-0.017-1.851-0.343-2.468-1.059c-0.143-0.168-0.259-0.336-0.353-0.499c0.34,0.104,0.756,0.181,1.249,0.181
	c0.132,0,0.27-0.008,0.415-0.017c0.767-0.066,1.286-0.523,1.344-0.573l0.425-0.39l-0.485-0.312
	c-1.084-0.693-2.193-2.008-1.341-4.313c0.552-1.499,1.826-2.856,3.898-4.157c0.699-0.442,1.082-0.962,1.082-1.459
	c0-0.768-0.641-1.071-1.112-1.287c-0.229-0.11-0.468-0.218-0.584-0.353c-0.364-0.422-0.057-1.23,0.281-1.668l0.434-0.568
	l-0.702-0.139c-0.021-0.002-0.205-0.037-0.486-0.037c-0.525,0-1.525,0.127-2.343,0.974C9.354,7.66,9.265,8.409,9.3,8.894
	C9.234,8.899,9.168,8.902,9.098,8.905H9.023c-1.025,0-1.51-1.086-1.529-1.129L7.206,7.098L6.739,7.67
	C6.713,7.705,6.031,8.555,6.197,9.621c0.11,0.708,0.555,1.319,1.32,1.821c0.083,0.053,0.141,0.099,0.183,0.137
	c-1.442,0.468-2.247,1.496-3.096,2.576l-0.123,0.153c-1.298,1.652-3.135,1.701-3.355,1.701L0.5,15.989l0.191,0.596
	c0.022,0.072,0.576,1.762,2.238,1.762l0.08-0.002c0.176-0.005,0.334-0.029,0.474-0.056c-0.069,0.922-0.408,2.625-1.936,3.259
	l-0.467,0.193l0.253,0.44c0.024,0.04,0.591,0.998,1.876,0.998c0.561-0.002,0.998-0.142,1.324-0.312
	c0.05,0.417,0.152,0.952,0.352,1.551c0.465,1.383,0.032,2.354,0.016,2.392l-0.23,0.483l0.519,0.138
	c0.034,0.008,0.353,0.089,0.73,0.089c0.176,0,0.34-0.019,0.487-0.054c0.393-0.093,0.697-0.267,0.928-0.466
	c0.141,0.433,0.382,0.923,0.801,1.356c0.713,0.733,1.738,1.102,3.077,1.102l0.812-0.011L11.577,28.764z M11.185,29.017
	c-3.69,0-3.595-3.164-3.595-3.164s-0.257,0.937-1.286,1.181c-0.123,0.033-0.255,0.045-0.383,0.045c-0.331,0-0.617-0.078-0.617-0.078
	s0.536-1.136,0.002-2.727c-0.442-1.319-0.371-2.297-0.371-2.297s-0.496,0.752-1.729,0.759H3.193c-1.026,0-1.474-0.778-1.474-0.778
	c2.458-1.021,2.218-4.316,2.218-4.316s-0.32,0.238-0.943,0.261c-0.023,0.001-0.043,0.001-0.065,0.001
	c-1.356,0-1.816-1.452-1.816-1.452h0.028c0.25,0,2.263-0.059,3.687-1.869c0.938-1.19,1.707-2.237,3.223-2.649l0.152-0.027
	l0.032-0.152c0.042-0.232-0.117-0.449-0.477-0.684C5.665,9.7,7.087,7.951,7.087,7.951S7.682,9.35,9.023,9.35
	c0.032,0,0.063-0.001,0.098-0.001C9.272,9.34,9.42,9.334,9.568,9.303l0.247-0.048c0,0-0.383-1.038,0.54-1.99
	c0.694-0.719,1.537-0.841,2.024-0.841c0.247,0,0.4,0.031,0.4,0.031c-0.461,0.605-0.796,1.608-0.262,2.227
	c0.462,0.532,1.588,0.558,1.588,1.351c0,0.336-0.314,0.728-0.877,1.08c-1.695,1.067-3.377,2.484-4.077,4.382
	c-0.873,2.367,0.112,3.939,1.519,4.84c0,0-0.442,0.406-1.082,0.458c-0.13,0.013-0.256,0.018-0.377,0.018
	c-1.348,0-2.046-0.633-2.046-0.633s0.116,0.875,0.814,1.687c0.652,0.749,1.501,1.191,2.799,1.209c0,0,0.041,0.602-0.533,1.123
	c-0.369,0.329-1.218,0.436-1.218,0.436s1.591,0.322,1.766,2.67c0.095,1.272,0.418,1.715,0.418,1.715H11.185z"/>
<path fill="#231F20" d="M2.967,13.916c0.178,0,0.352-0.027,0.517-0.083c0.463-0.154,0.758-0.521,1.069-0.905
	c0.318-0.392,0.676-0.835,1.295-1.165l0.638-0.342l-0.592-0.416c-0.05-0.031-0.494-0.331-1.096-0.331
	c-0.494,0-0.952,0.202-1.331,0.588c-0.92,0.94-1.745,1.015-1.775,1.016l-0.642,0.038l0.264,0.589
	C1.579,13.491,2.275,13.916,2.967,13.916 M3.784,11.574c0.342-0.352,0.703-0.458,1.014-0.458c0.478,0,0.84,0.254,0.84,0.254
	c-1.292,0.689-1.559,1.793-2.297,2.042c-0.122,0.043-0.248,0.062-0.374,0.062c-0.543,0-1.068-0.351-1.248-0.752
	C1.72,12.722,2.715,12.661,3.784,11.574"/>
<path fill="#231F20" d="M5.867,19.061c-0.069-1.669,0.359-3.022,1.03-4.138c-0.374,1.162-0.323,2.584,0.951,3.912
	c0,0-2.533-3.035,1.009-6.146c1.416-1.184,2.966-1.915,3.764-2.433c-2.883,0.941-4.291-0.095-4.291-0.095
	c0.92,0.798,2.112,0.784,2.852,0.669c-0.2,0.098-0.41,0.2-0.633,0.321c-2.432,1.321-4.616,3.494-4.991,6.503v-0.023
	c-0.565,2.955-1.822,3.713-1.822,3.713c1-0.494,1.63-1.803,1.784-2.275c0.167,2.597,1.434,4.399,2.916,6.134
	c0.769,0.9,1.04,1.774,1.04,1.774s-0.15-0.991-0.818-1.797C7.277,23.52,5.963,21.452,5.867,19.061"/>
<path fill="#231F20" d="M17.169,12.973v0.597c0.206-0.25,0.603-0.199,0.603-0.199v0.86c0,0-0.014,0.423-0.164,0.606h0.431h0.429
	c-0.148-0.183-0.163-0.606-0.163-0.606v-0.86c0,0,0.399-0.051,0.603,0.199v-0.597h-0.869H17.169z"/>
<path fill="#231F20" d="M16.799,9.434c0.276,0.218,0.434,0.255,0.439,0.258l0.108,0.05V9.18l-1.011-0.425
	C16.335,8.755,16.343,9.08,16.799,9.434"/>
<path fill="#231F20" d="M19.204,9.434c0.457-0.353,0.466-0.679,0.466-0.679L18.658,9.18v0.562l0.107-0.05
	C18.77,9.688,18.929,9.652,19.204,9.434"/>
<path fill="#231F20" d="M21.025,7.145c0-0.853-1.435-1.62-3.019-1.62h-0.001h-0.004h-0.004c-1.584,0-3.019,0.767-3.019,1.62
	l0.031,0.21l0.633,3.631l-0.635,0.369l-1.644,0.96h0.006c0,0-0.37,0.19-0.541,0.307c-0.626,0.434-0.759,1.069-0.395,1.331
	c0.089-0.517,0.498-1.058,1.264-1.058c0.551,0,0.972,0.285,1.31,0.711c0.088,0.108,0.17,0.223,0.248,0.346
	c0.095,0.156,0.191,0.293,0.285,0.425h-4.234c0.311,0.626,0.607,1.288,0.607,2.008v9.372c0,2.269,1.744,3.351,3.631,3.351
	c1.459,0,1.655-0.067,2.46,0.735c0.801-0.802,0.997-0.735,2.457-0.735c1.888,0,3.63-1.082,3.63-3.351v-9.372
	c0-0.72,0.295-1.383,0.608-2.008h-4.236c0.094-0.132,0.19-0.269,0.285-0.425c0.078-0.124,0.161-0.239,0.246-0.346
	c0.342-0.428,0.761-0.711,1.313-0.711c0.765,0,1.173,0.54,1.264,1.058c0.364-0.262,0.232-0.897-0.397-1.331
	c-0.169-0.117-0.539-0.307-0.539-0.307h0.006l-1.646-0.96l-0.633-0.369l0.633-3.631L21.025,7.145z M15.599,7.567l2.224,0.754v3.494
	l-1.637-0.863L15.599,7.567z M16.06,14.988c0.365,0.363,0.723,0.589,1.063,0.713c-0.044,0.175-0.102,0.537,0.061,0.897
	c0.134,0.291,0.377,0.514,0.727,0.664c0.038,0.359,0.266,0.899,0.894,1.138c-0.276,0.277-0.543,0.539-0.651,0.645l-2.549-0.041
	c-0.058-0.029-0.156-0.094-0.2-0.186c-0.005-0.013-0.013-0.02-0.019-0.032l0.416,0.067c0.009,0.001,0.018,0.001,0.027,0.001
	c0.081,0,0.151-0.056,0.164-0.138c0.014-0.092-0.048-0.177-0.138-0.191l-0.512-0.081l0.568-1.961l-0.538-1.132l-0.861,0.911
	l-0.053,2.039l-0.579-0.092c-0.089-0.017-0.175,0.048-0.191,0.139c-0.014,0.089,0.047,0.175,0.138,0.191l0.243,0.037
	c-0.087,0.049-0.144,0.089-0.151,0.094l-0.049,0.035l-0.014,0.06c-0.141,0.572,0.178,1.115,0.522,1.358l-0.012,0.072
	c-0.014,0.088,0.006,0.174,0.059,0.246c0.05,0.073,0.126,0.117,0.213,0.133c0.017,0.003,0.037,0.005,0.053,0.005
	c0.149,0,0.279-0.103,0.316-0.254c0.128,0.015,0.246,0.018,0.326,0.018H15.4l3.344,0.604l0.057-0.038
	c0.266-0.186,1.282-0.926,1.615-1.172c0.092,0.079,0.194,0.15,0.317,0.21c-0.108,0.361-0.115,0.918,0.312,1.358h-8.523v-4.918
	c0-0.476-0.139-0.955-0.304-1.398H16.06z M20.193,19.488c-0.338,0.249-1.208,0.885-1.524,1.105l-3.039-0.546
	c0.007-0.027,0.014-0.055,0.021-0.081c0.04-0.158,0.081-0.373,0.083-0.626l2.554,0.041l0.049-0.05
	c0.039-0.039,0.848-0.821,1.261-1.27c0.098,0.123,0.22,0.24,0.382,0.343C19.924,18.703,19.947,19.129,20.193,19.488 M15.104,18.962
	c0.072,0.151,0.201,0.251,0.292,0.308c-0.003,0.141-0.016,0.36-0.054,0.554c-0.009,0.043-0.02,0.083-0.032,0.123
	c-0.006,0.025-0.014,0.046-0.019,0.062c-0.134,0-0.398-0.016-0.614-0.095c-0.239-0.088-0.595-0.526-0.513-1.009
	c0.103-0.063,0.343-0.198,0.567-0.198C14.904,18.707,15.022,18.788,15.104,18.962 M14.788,18.355l0.052-1.958l0.439-0.465
	l0.276,0.578l-0.544,1.879L14.788,18.355z M20.165,28.503c-0.166,0-0.32,0.002-0.457,0.008l0.362-1.126
	c0.057-0.156-0.229-0.356-0.347-0.532c0.178,0.112,0.64,0.357,0.862,0.455C20.561,27.344,20.165,28.503,20.165,28.503
	 M21.301,27.223l-0.236,1.233c-0.151,0.021-0.31,0.032-0.475,0.039l0.249-1.185c0.074-0.352-0.871-0.462-1.338-1.154
	c-0.228,0.256-0.657,0.333-1.089,0.333c-0.394,0-0.787-0.063-1.027-0.11c-0.06-0.01-0.118-0.016-0.176-0.016
	c-0.138,0-0.264,0.043-0.351,0.189l-0.068,0.116l-1.288-0.304l-0.32,0.531c-0.045,0.086-0.049,0.158,0.024,0.239l0.087,0.095
	c-0.06,0.188-0.328,0.472-0.328,0.472l-0.191-0.239c-0.152-0.169-0.127-0.48,0.031-0.767l0.511-0.863l1.091,0.158l-0.169-0.386
	c-0.228-0.511,0.119-1.161,0.156-1.536c-0.013,0.113-0.117,0.139-0.237,0.139c-0.11,0-0.233-0.021-0.315-0.021
	c-0.032,0-0.06,0.003-0.074,0.014l-0.296,0.179l-0.233-0.206c-0.028-0.039-0.037-0.132,0.031-0.202l0.54-0.606l-0.638-0.745
	l0.893,0.448l0.273-0.33c0.075,0.073,0.042,0.265,0.042,0.265c0.278,0.007,1.06,0.439,1.102,1.448
	c0.002,0.031,0.002,0.065,0.002,0.098c0,0,0.007,0.013,0.021,0.033c0.055,0.076,0.208,0.271,0.401,0.289l1.234,0.122h0.005
	c0.135,0,0.405-0.159,0.751-0.159c0.188,0,0.398,0.048,0.621,0.189c0,0,0.112-0.089,0.294-0.098c0.014-0.002,0.03-0.002,0.043-0.002
	c0.553,0,0.783,0.501,1.081,0.916c0.223,0.317,0.522,0.787,0.522,0.787c-0.11,0.131-0.213,0.204-0.385,0.204
	c-0.047,0-0.101-0.004-0.159-0.016c-0.594-0.109-0.679-1.33-1.018-1.426c-0.018-0.005-0.037-0.007-0.054-0.007
	c-0.109,0-0.157,0.097-0.157,0.097c0.155,0.416,0.064,0.584,0.231,0.905c0.124,0.238,0.345,0.433,0.437,0.526
	C21.352,26.908,21.327,27.089,21.301,27.223 M14.668,26.059l0.057,0.143c-0.038,0.125-0.465,0.301-0.465,0.301L14.167,26.3
	c-0.098-0.215-0.077-0.579,0.221-0.801l0.693-0.422l0.735,0.156c-0.014,0.233,0.126,0.408,0.126,0.408l-0.77-0.148l-0.461,0.319
	C14.633,25.865,14.627,25.965,14.668,26.059 M21.417,28.389l0.212-1.103c0.011-0.065,0.025-0.141,0.034-0.204
	c0.06,0.025,0.123,0.045,0.191,0.058c0.079,0.015,0.152,0.023,0.218,0.023c0.323,0,0.512-0.17,0.637-0.315l0.162-0.189l-0.133-0.207
	c-0.012-0.021-0.306-0.485-0.531-0.803c-0.045-0.063-0.087-0.125-0.13-0.192c-0.257-0.385-0.578-0.866-1.223-0.866l-0.058,0.001
	c-0.106,0.007-0.197,0.028-0.271,0.056c-0.203-0.095-0.412-0.144-0.629-0.144c-0.267,0-0.491,0.074-0.641,0.124
	c-0.043,0.013-0.081,0.026-0.111,0.032l-1.205-0.118c-0.015-0.003-0.064-0.032-0.124-0.103v-0.006l0.261-0.104
	c-0.074-0.869-0.908-1.403-1.373-1.584c-0.02-0.087-0.062-0.174-0.135-0.244l-0.259-0.246l-0.228,0.273l-0.112,0.139l-1.688-0.693
	l1.098,1.379l-0.433,0.657c-0.159,0.168,0.016,0.337,0.016,0.337l0.448,0.308l0.464-0.173c0.016,0,0.03,0.004,0.046,0.006
	c-0.023,0.071-0.052,0.347-0.071,0.424l-0.806-0.158l-0.846,0.478c-0.435,0.32-0.494,0.848-0.333,1.21l0.094,0.205l0.133,0.29
	l0.296-0.123c0.004-0.001,0.008-0.003,0.011-0.005c-0.107,0.34-0.063,0.664,0.126,0.875l0.18,0.226l0.239,0.302l0.263-0.282
	c0.077-0.077,0.328-0.358,0.405-0.598l0.057-0.183l-0.128-0.141l-0.021-0.025l0.144-0.238l1.051,0.248l0.237,0.054l0.126-0.208
	l0.068-0.113c0.013-0.024,0.016-0.028,0.065-0.028c0.037,0,0.074,0.004,0.115,0.013c0.397,0.075,0.763,0.112,1.088,0.112
	c0.315,0,0.503-0.012,0.728-0.087c0,0,0.564,0.641,0.584,0.666l-0.346,1.067l-0.015,0.064c-0.655,0.053-0.973,0.197-1.359,0.582
	c-0.56-0.555-0.956-0.614-2.46-0.614c-1.8,0-3.02-1.055-3.02-2.741v-4.121h10.957l0.002,4.121
	C23.483,27.124,22.68,28.078,21.417,28.389 M23.785,14.988c-0.168,0.443-0.306,0.921-0.306,1.398l0.001,3.075
	c-0.643-0.108-0.718-0.8-0.721-0.83l-0.012-0.141l-0.138-0.012c-0.279-0.027-0.465-0.145-0.621-0.296
	c-0.315-0.315-0.316-0.826-0.315-0.83c-0.005,0.026-0.347,0.506,0.051,1.03c0.167,0.22,0.409,0.356,0.723,0.41
	c0.074,0.384,0.359,0.926,1.034,1.008v1.505h-1.896c-0.874-0.487-0.504-1.343-0.487-1.379l0.074-0.162l-0.167-0.063
	c-0.947-0.351-0.686-1.295-0.673-1.336l0.038-0.138l-0.129-0.061c-0.781-0.363-0.676-1.338-0.665-1.379
	c-0.241,0.195-0.327,0.593-0.162,0.983c-0.089,0.103-0.21,0.226-0.342,0.363c-0.81-0.206-0.835-0.95-0.835-0.984l-0.002-0.115
	l-0.107-0.041c-0.316-0.117-0.533-0.293-0.64-0.528c-0.12-0.261-0.078-0.535-0.045-0.666c0.093,0.021,0.185,0.036,0.273,0.043
	c0.091,0.009,0.184,0.015,0.278,0.015h0.006h0.007c0.094,0,0.186-0.006,0.278-0.015c0.505-0.05,1.069-0.266,1.658-0.85H23.785z
	 M20.832,11.88l0.749,0.435h0.01l0.188,0.11c-0.423,0.117-0.746,0.329-1.017,0.606c-0.01,0.009-0.019,0.019-0.03,0.029
	c-0.062,0.066-0.124,0.138-0.183,0.211c-0.011,0.014-0.023,0.029-0.035,0.045c-0.058,0.074-0.112,0.151-0.165,0.231
	c-0.009,0.014-0.019,0.027-0.028,0.041c-0.062,0.093-0.122,0.191-0.181,0.294c-0.533,0.919-1.384,1.468-2.141,1.469
	c-0.756-0.001-1.607-0.55-2.139-1.469c-0.058-0.1-0.117-0.196-0.178-0.29c-0.012-0.017-0.023-0.036-0.035-0.051
	c-0.052-0.076-0.105-0.151-0.158-0.221c-0.014-0.019-0.026-0.034-0.04-0.051c-0.058-0.071-0.117-0.141-0.177-0.206
	c-0.013-0.01-0.021-0.023-0.032-0.033c-0.273-0.278-0.594-0.487-1.018-0.604l0.19-0.11h0.008l0.75-0.435l0.769-0.441l2.056,1.119
	l0.004-0.005l0.006,0.005l2.055-1.119L20.832,11.88z M19.817,10.953l-1.638,0.863V8.321l2.222-0.754L19.817,10.953z M18.001,7.937
	l-2.436-0.962c0.207-0.491,1.163-0.908,2.436-0.909c1.276,0.001,2.231,0.418,2.437,0.909L18.001,7.937z"/>
</svg>
