<?xml version="1.0" encoding="utf-8"?>
<!-- Generator: Adobe Illustrator 19.2.1, SVG Export Plug-In . SVG Version: 6.00 Build 0)  -->
<svg version="1.0" id="art" xmlns="http://www.w3.org/2000/svg" xmlns:xlink="http://www.w3.org/1999/xlink" x="0px" y="0px"
	 width="18px" height="18px" viewBox="0 0 18 18" enable-background="new 0 0 18 18" xml:space="preserve">
<g id="check">
</g>
<path fill="#4B411C" d="M8.947,12.787c0,0,0.373-0.32,0.373-0.853c0-0.533-0.48-0.907-1.013-0.96c-0.427-0.053-1.173,0-1.387,0
	c-0.213,0-0.533,0-0.747-0.267l0.64-0.107c0.267-0.053,0.8-0.267,1.12-0.267c0,0-0.107-0.16-0.373-0.16
	c-0.16,0-0.213,0.053-0.32,0.107c-0.16,0-0.427,0.053-0.587-0.267c0,0,0.213,0.16,0.427,0.107c0.16-0.053,0.213-0.107,0.267-0.16
	c0.107-0.053,0.213-0.107,0.32-0.107s0.213,0,0.32,0.107c0.053,0.053,0.267,0.053,0.16-0.053C8.04,9.8,7.88,9.693,7.613,9.693
	c-0.427,0-1.173,0.107-1.44,0.213c-0.16,0.053-0.32,0.16-0.373,0.267l0,0c0,0.053-0.053,0.053-0.213,0.213
	c0-0.267,0.107-0.96,0.427-1.227C6.333,8.84,7.24,8.627,7.56,8.573c0,0-0.107-0.213,0-0.32C7.72,8.093,8.2,7.72,11.08,7.72
	c0,0-0.16,0.107-0.213,0.213c0,0,1.12,0.053,1.76,0.373C12.733,8.36,12.947,8.36,13,7.933l-0.16-0.107c0,0,0-0.107,0.053-0.16
	c0.053-0.053,0-0.107-0.053-0.053c-0.107,0-0.107,0.053-0.107,0.053s-0.16,0.053-0.16-0.053c0-0.053-0.16-0.32-0.533-0.373
	c0,0,0.16-0.267,0.587-0.213c0,0,0,0.16,0.107,0.107c0.107,0,0.213-0.107,0.213,0c0,0.107,0.053,0.267,0.267,0
	c0,0,0.213,0.107,0.427,0.053c0.213-0.053,0.373-0.213,0.427-0.533c0-0.053,0-0.107,0.053-0.16c0.053-0.053,0.107-0.107,0-0.213
	c-0.107-0.107-0.533-0.32-0.693-0.427c-0.16-0.107-0.48-0.213-0.48-0.853s-0.213-1.013-1.013-1.707v0.213c0,0-0.213-0.267-0.8-0.427
	c0,0,0.107-0.267,0.107-0.427c0-0.16-0.053-0.267-0.267-0.213c-0.213,0.053-0.96,0.32-1.227,0.373
	C9.533,2.867,7.773,3.453,6.76,4.467c0,0,0.267-0.64,0.747-1.28C7.133,3.293,6.813,3.453,6.44,3.613
	C5.907,4.36,5.213,5.853,5.213,7.08c0,0-0.32-1.067-0.053-2.613C4.787,4.787,4.467,5.16,4.2,5.533
	C4.147,6.387,4.147,7.56,4.84,9.213c0,0-0.747-0.533-1.387-2.293C3.24,7.453,3.133,8.04,3.08,8.68
	c0.587,1.12,1.493,2.187,3.253,3.147c0,0-1.44-0.213-3.093-1.44c0.107,0.693,0.373,1.28,0.747,1.867
	c0.907,0.427,2.293,0.907,4.267,0.8c0,0-1.067,0.587-3.253,0.427c0,0,0.373,0.48,1.387,0.96c0.907,0.427,2.133,0.16,2.507-0.107
	c0.48-0.32,1.013-1.12,0.747-2.08C9.64,12.253,9.427,12.627,8.947,12.787z M12.573,5.107c0,0.16-0.053,0.16-0.16,0.107
	c-0.053-0.053-0.107-0.107-0.16-0.107c-0.053,0-0.107,0.053-0.053,0.107c0.053,0.053,0.16,0.267,0.107,0.427
	c0,0-0.267-0.48-0.533-0.693c-0.213-0.16,0.16-0.107,0.213-0.107c0.213,0,0.267,0.053,0.32,0.053c0.051,0,0.199,0.048,0.259-0.32
	h0.008V5.107z M9.96,3.507c0.267-0.427,0.64-0.64,0.747-0.693c0.107-0.053,0.16-0.053,0.107,0c-0.107,0.107-0.267,0.373-0.373,0.48
	c0,0.053,0,0.107,0.053,0.107c0.053,0.053,0.053,0.107,0,0.107c-0.107,0-0.267,0.053-0.427,0.107C9.96,3.667,9.907,3.56,9.96,3.507z
	 M8.147,6.547c0.427-1.013,1.333-2.08,1.92-2.56l0,0c-0.693,0.853-1.173,2.027-1.12,2.08C9,6.013,9.16,6.013,9.267,5.96
	c0.107-0.053,0.107,0.053,0.107,0.107c-0.107,0.32-0.267,0.747-0.213,0.96c0.053,0.213,0.587,0.32,0.587,0.32
	c-0.107,0-0.693,0-0.8,0.053c-0.16,0-0.373,0.053-0.32-0.213C8.68,6.867,8.84,6.28,8.84,6.28C8.68,6.333,8.36,6.493,8.253,6.547
	C8.147,6.653,8.093,6.6,8.147,6.547z"/>
<path fill="#4B411C" d="M11.613,10.92c0.213,0.107,0.64,0.213,0.64,0.213c-0.107-0.107-0.373-0.427-0.48-0.533
	c-0.32-0.373-0.8-0.747-1.227-0.96C9.8,9.267,9,9.267,8.893,9.213c-0.107,0-0.32,0-0.213-0.213c0.16-0.213,0.96-0.853,0.96-0.853
	c-0.16,0-0.96,0.053-1.173,0.107C8.253,8.307,8.2,8.2,8.2,8.04c0,0-0.48,0.427-0.213,0.64c0.053,0.053,0.107,0.053,0.267,0
	C8.36,8.627,8.627,8.573,8.68,8.52c0,0-0.213,0.32-0.213,0.427C8.413,9.053,8.413,9.16,8.627,9.213
	c0.213,0.053,1.227,0.373,1.867,0.853c0.64,0.427,1.28,1.013,1.813,2.027c0.48,1.013,0.213,1.813,0.16,1.92
	c0.267-0.213,0.587-0.48,0.853-0.747c-0.267-0.853-0.96-1.387-1.333-1.867C11.827,11.187,11.613,10.92,11.613,10.92z"/>
<path fill="#4B411C" d="M14.28,12.04c0.213-0.267,0.373-0.587,0.48-0.96c-0.64-0.533-1.707-1.44-3.093-1.76
	C11.667,9.32,13.587,10.067,14.28,12.04z"/>
<path fill="#4B411C" d="M9.8,14.973c0.427-0.053,0.8-0.16,1.173-0.267c0.213-0.48,0.427-1.6,0.213-2.507
	C11.187,12.2,11.24,14.28,9.8,14.973z"/>
<path fill="#4B411C" d="M13.853,8.467c0.373,0,0.533-0.32,0.533-0.32c-0.373,0.107-0.907,0.16-1.333,0.053c0,0,1.067,0.48,2.08,1.44
	c0.053-0.267,0.053-0.48,0.053-0.747V8.84C15.027,8.787,13.853,8.467,13.853,8.467z"/>
<path fill="#4B411C" d="M9,1C4.573,1,1,4.573,1,9s3.573,8,8,8s8-3.573,8-8S13.427,1,9,1z M9,16.467c-4.107,0-7.467-3.36-7.467-7.467
	S4.893,1.533,9,1.533S16.467,4.893,16.467,9S13.107,16.467,9,16.467z"/>
</svg>
