<?xml version="1.0" encoding="utf-8"?>
<!-- Generator: Adobe Illustrator 19.2.1, SVG Export Plug-In . SVG Version: 6.00 Build 0)  -->
<svg version="1.0" id="art" xmlns="http://www.w3.org/2000/svg" xmlns:xlink="http://www.w3.org/1999/xlink" x="0px" y="0px"
	 width="24px" height="24px" viewBox="0 0 24 24" enable-background="new 0 0 24 24" xml:space="preserve">
<g id="check">
</g>
<g>
	<path fill="#04713D" d="M7.64,15.08L1,11.24v0.56c0,0.72,0.08,1.44,0.16,2.16c0.24,1.28,0.72,2.48,1.28,3.52
		c0.8,1.36,1.84,2.56,3.12,3.44c0.88,0.64,1.76,1.12,2.8,1.44c0.4,0.16,0.88,0.24,1.36,0.4c0.64,0.16,1.28,0.24,2,0.24h0.64
		c0.32,0,0.72,0,1.12-0.08c1.52-0.16,3.04-0.72,4.32-1.52c1.28-0.8,2.4-1.84,3.2-3.04c0.88-1.28,1.52-2.72,1.84-4.24
		c0-0.16,0.08-0.4,0.08-0.64C23,13,23,12.44,23,11.96v-0.32c0-0.48-0.08-0.88-0.16-1.36c-0.16-1.2-0.56-2.32-1.12-3.36L7.64,15.08
		L7.64,15.08z M7.64,12.28l-6.16-3.6C1.4,8.92,1.32,9.24,1.24,9.48c0,0.16-0.08,0.24-0.08,0.4l6.48,3.76l13.52-7.76
		c-0.16-0.24-0.24-0.4-0.4-0.56c-0.08-0.08-0.08-0.16-0.16-0.24C20.6,5,20.52,5,20.52,4.92L7.64,12.28L7.64,12.28z M7.64,9.48
		l-5.2-2.96C2.2,6.84,2.04,7.24,1.88,7.56l5.76,3.36l12-6.88c-0.32-0.32-0.64-0.56-0.96-0.8L7.64,9.48z M7.64,6.76L3.8,4.52
		C3.56,4.84,3.32,5.16,3.08,5.48l4.56,2.64l9.92-5.68c-0.4-0.24-0.88-0.48-1.28-0.64L7.64,6.76L7.64,6.76z"/>
</g>
</svg>
