<?xml version="1.0" encoding="utf-8"?>
<!-- Generator: Adobe Illustrator 19.2.1, SVG Export Plug-In . SVG Version: 6.00 Build 0)  -->
<svg version="1.0" id="art" xmlns="http://www.w3.org/2000/svg" xmlns:xlink="http://www.w3.org/1999/xlink" x="0px" y="0px"
	 width="30px" height="30px" viewBox="0 0 30 30" enable-background="new 0 0 30 30" xml:space="preserve">
<g id="check">
</g>
<g>
	<path fill="#266450" d="M12.551,10.638L19.627,19H29C18.249,9.443,29,2,29,2h-9.281L12.551,10.638L12.551,10.638z M17.054,10.546
		c0-1.378,1.103-2.481,2.481-2.481c1.378,0,2.481,1.103,2.481,2.481s-1.103,2.481-2.481,2.481
		C18.157,13.027,17.054,11.924,17.054,10.546z"/>
</g>
<g>
	<path fill="#266450" d="M18,19.638L10.832,11H1.551c0,0,10.751,7.443,0,17h9.373L18,19.638L18,19.638z M11.016,22.027
		c-1.378,0-2.481-1.103-2.481-2.481s1.103-2.481,2.481-2.481s2.481,1.103,2.481,2.481S12.395,22.027,11.016,22.027z"/>
</g>
</svg>
