<?xml version="1.0" encoding="utf-8"?>
<!-- Generator: Adobe Illustrator 19.2.1, SVG Export Plug-In . SVG Version: 6.00 Build 0)  -->
<svg version="1.0" id="art" xmlns="http://www.w3.org/2000/svg" xmlns:xlink="http://www.w3.org/1999/xlink" x="0px" y="0px"
	 width="24px" height="24px" viewBox="0 0 24 24" enable-background="new 0 0 24 24" xml:space="preserve">
<g id="check">
</g>
<g>
	<path fill="#EB923C" d="M18.231,16.632c0-0.143-0.143-0.499-0.357-0.571c-0.214-0.071-0.214,0.143-0.143,0.285
		c0.143,0.357,0.285,0.642,0.357,0.713S18.302,16.989,18.231,16.632z"/>
	<path fill="#EB923C" d="M16.59,16.989c-0.071-0.071-0.143-0.214-0.285-0.214s-0.214,0-0.357,0.071
		c-0.214,0.143-0.285,0.499-0.071,0.785c0.071,0.143,0.214,0.214,0.357,0.285c0.143,0,0.214,0,0.357-0.071
		C16.804,17.631,16.804,17.274,16.59,16.989z"/>
	<g>
		<path fill="#EB923C" d="M17.945,19.2c0.357,0.143,0.785,0.285,1.213,0.499c1.07,0.642,2.14,1.498,2.71,2.639
			c0.285,0.499,0.214,0.571,0.143,0.642s-0.143-0.071-0.143-0.071c-0.143-0.285-0.357-0.571-0.357-0.571
			c-2.71-3.21-6.562-2.853-7.703-2.496c-2.996,0.927-8.203-0.071-10.414-3.566C0.684,12.21,2.039,6.504,6.462,3.65
			c4.422-2.924,10.128-1.854,12.839,2.354c2.14,3.281,1.712,7.489-0.642,10.556c-0.071-0.499-0.285-0.999-0.571-1.427
			c0-0.071-0.071-0.071-0.071-0.143l-0.428-0.428c0.071-0.143,0.143-0.285,0.143-0.428c0.642-1.997,0.214-4.494-1.213-6.562
			c-2.282-3.352-6.491-4.708-9.272-2.853s-3.495,6.134-1.427,9.629c1.141,1.926,3.638,3.495,6.419,3.566
			c-0.285-0.856-0.143-1.498-0.143-1.498c0,0.071,0.214,0.357,0.214,0.428c0.214,0.357,0.499,0.642,0.856,0.927
			c0.642,0.428,1.284,0.785,2.068,0.927C16.305,18.843,17.089,18.914,17.945,19.2L17.945,19.2z"/>
		<path fill="#EB923C" d="M17.589,14.635c0,0-0.927-0.999-2.14-0.856c0,0,1.141-0.428,2.354,0.428"/>
	</g>
</g>
</svg>
