<?xml version="1.0" encoding="utf-8"?>
<!-- Generator: Adobe Illustrator 19.2.1, SVG Export Plug-In . SVG Version: 6.00 Build 0)  -->
<svg version="1.0" id="Layer_2" xmlns="http://www.w3.org/2000/svg" xmlns:xlink="http://www.w3.org/1999/xlink" x="0px" y="0px"
	 width="18px" height="18px" viewBox="0 0 18 18" enable-background="new 0 0 18 18" xml:space="preserve">
<g id="check">
</g>
<g>
	<path fill="#FFFFFF" d="M16.138,3.968c0-0.334,0.167-0.752-1.421-0.919c-0.113-0.012-0.241-0.021-0.377-0.028
		c-0.407-0.362-0.841-0.698-1.323-0.977c-2.718-1.418-5.676-1.362-8.103,0.009C2.43,3.577,0.947,6.175,0.947,9
		c0,1.983,0.759,3.864,2.047,5.315c-0.142,0.201-0.264,0.403-0.063,0.604c0.16,0.159,0.386,0.048,0.573-0.075
		c0.444,0.416,0.929,0.795,1.467,1.106C6.117,16.627,7.548,17,9,17c1.439,0,2.793-0.352,4.026-1.049
		c2.484-1.436,4.027-4.1,4.027-6.951c0-1.579-0.486-3.091-1.331-4.378C15.979,4.352,16.138,4.13,16.138,3.968z M1.947,9
		c0-2.475,1.305-4.754,3.475-6.086C6.496,2.308,7.682,2,8.947,2c1.211,0,2.424,0.313,3.589,0.92c0.05,0.029,0.094,0.066,0.144,0.096
		c-1.731,0.051-3.721,0.226-4.065,0.283C8.113,3.383,8.113,3.884,8.281,3.968C8.448,4.135,9.2,4.553,9.451,4.72
		c0.251,0.084,0.167,0.251,0.167,0.418C9.535,5.222,8.615,6.392,8.615,6.392c-0.342,0.342-3.766,5.222-5.04,7.07
		C2.547,12.219,1.947,10.649,1.947,9z M16.053,9c0,2.496-1.352,4.828-3.522,6.083C11.453,15.691,10.265,16,9,16
		c-1.275,0-2.525-0.324-3.524-0.914c-0.42-0.243-0.799-0.536-1.154-0.852c0.819-0.619,2.297-1.705,2.788-2.073
		c0.669-0.502,3.929-3.344,5.016-4.263c1.087-0.919,2.508-2.257,2.508-2.257c0.124-0.111,0.242-0.218,0.357-0.322
		C15.667,6.411,16.053,7.68,16.053,9z"/>
</g>
</svg>
