<?xml version="1.0" encoding="utf-8"?>
<!-- Generator: Adobe Illustrator 19.2.1, SVG Export Plug-In . SVG Version: 6.00 Build 0)  -->
<svg version="1.0" id="art" xmlns="http://www.w3.org/2000/svg" xmlns:xlink="http://www.w3.org/1999/xlink" x="0px" y="0px"
	 width="18px" height="18px" viewBox="0 0 18 18" enable-background="new 0 0 18 18" xml:space="preserve">
<g id="check">
</g>
<path fill="#EE3424" d="M9.002,2.173c0.93,0,1.224,0.685,1.469,1.371c0.098,0.294,2.497,6.952,2.546,7.147
	c0,0.049,0,0.147-0.049,0.196c-0.098,0-1.322,0.539-1.42,0.539c-0.049,0-0.147,0-0.196-0.098c0-0.049-0.539-1.518-0.587-1.664H7.239
	C7.19,9.81,6.652,11.279,6.652,11.328c0,0.049-0.098,0.098-0.147,0.098c-0.049,0-1.322-0.539-1.42-0.539
	c-0.049,0-0.098-0.098-0.049-0.196c0.098-0.245,2.448-6.805,2.546-7.147C7.778,2.81,8.072,2.173,9.002,2.173L9.002,2.173z M4.474,14
	c-0.053,0-0.158,0.053-0.158,0.158v1.684C4.316,15.895,4.368,16,4.474,16h9.053c0.053,0,0.158-0.053,0.158-0.158v-1.684
	c0-0.053-0.053-0.158-0.158-0.158H4.474z M9.002,4.327L7.827,7.999h2.448L9.002,4.327z"/>
</svg>
