<?xml version="1.0" encoding="utf-8"?>
<!-- Generator: Adobe Illustrator 19.2.1, SVG Export Plug-In . SVG Version: 6.00 Build 0)  -->
<svg version="1.0" id="Layer_2" xmlns="http://www.w3.org/2000/svg" xmlns:xlink="http://www.w3.org/1999/xlink" x="0px" y="0px"
	 width="30px" height="30px" viewBox="0 0 30 30" enable-background="new 0 0 30 30" xml:space="preserve">
<g id="check">
</g>
<g>
	<path fill="#FFFFFF" d="M20.216,4.53l-4.061,3.957l0.833,0.937l-2.082,1.978l-1.978-1.978l1.041-0.937L9.7,4.426
		C6.368,1.718,2.932,5.883,2.828,9.944l1.25-1.041l3.748,3.957l1.354-1.145V9.32l0.833,0.625v3.228l1.562,1.562l-8.226,8.122
		l3.436,3.436l8.018-8.122l8.226,8.33l3.436-3.436l-8.226-8.226l1.562-1.562v-3.228l0.937-0.833v2.499l1.25,1.041l3.853-3.853
		l1.25,0.937C27.817,7.133,23.652,1.094,20.216,4.53z"/>
	<path fill="#FFFFFF" d="M1,29h28V1H1V29z M2,2h26v26H2V2z"/>
</g>
</svg>
