<?xml version="1.0" encoding="utf-8"?>
<!-- Generator: Adobe Illustrator 19.2.1, SVG Export Plug-In . SVG Version: 6.00 Build 0)  -->
<svg version="1.0" id="Layer_2" xmlns="http://www.w3.org/2000/svg" xmlns:xlink="http://www.w3.org/1999/xlink" x="0px" y="0px"
	 width="36px" height="36px" viewBox="0 0 36 36" enable-background="new 0 0 36 36" xml:space="preserve">
<g id="check">
</g>
<g>
	<path d="M28.205,18c0,5.669-4.661,10.205-10.205,10.205c-5.669,0-10.205-4.535-10.205-10.205c0-5.669,4.535-10.205,10.205-10.205V2
		C9.181,2,2,9.181,2,18s7.181,16,16,16s16-7.181,16-16H28.205z"/>
	<path d="M18,11c-3.875,0-7,3.125-7,7s3.125,7.125,7,7c3.875,0,7-3.125,7-7S21.875,11,18,11z"/>
	<path d="M31,9c0-2.25-1.75-4-4-4s-4,1.75-4,4s1.75,4,4,4S31,11.25,31,9z"/>
</g>
</svg>
