<?xml version="1.0" encoding="utf-8"?>
<!-- Generator: Adobe Illustrator 19.2.1, SVG Export Plug-In . SVG Version: 6.00 Build 0)  -->
<svg version="1.0" id="Layer_2" xmlns="http://www.w3.org/2000/svg" xmlns:xlink="http://www.w3.org/1999/xlink" x="0px" y="0px"
	 width="30px" height="30px" viewBox="0 0 30 30" enable-background="new 0 0 30 30" xml:space="preserve">
<g id="check">
</g>
<g>
	<path fill="#FFFFFF" d="M5.947,29h18.105c0.105,0,0.316-0.105,0.316-0.316v-3.368c0-0.105-0.105-0.316-0.316-0.316H5.947
		c-0.105,0-0.316,0.105-0.316,0.316v3.368C5.632,28.789,5.737,29,5.947,29z"/>
	<path fill="#FFFFFF" d="M12.164,4.088c-0.196,0.685-4.896,13.805-5.091,14.295c-0.098,0.196,0,0.392,0.098,0.392
		c0.196,0,2.742,1.077,2.839,1.077s0.294-0.098,0.294-0.196c0-0.098,1.077-3.035,1.175-3.329h7.05
		c0.098,0.294,1.175,3.231,1.175,3.329c0.098,0.196,0.294,0.196,0.392,0.196c0.196,0,2.644-1.077,2.839-1.077
		c0.098-0.098,0.098-0.294,0.098-0.392c-0.098-0.392-4.896-13.707-5.091-14.295c-0.49-1.371-1.077-2.742-2.937-2.742
		C13.143,1.347,12.556,2.62,12.164,4.088z M17.549,12.998h-4.896l2.35-7.343L17.549,12.998z"/>
</g>
</svg>
