<?xml version="1.0" encoding="utf-8"?>
<!-- Generator: Adobe Illustrator 19.2.1, SVG Export Plug-In . SVG Version: 6.00 Build 0)  -->
<svg version="1.0" id="art" xmlns="http://www.w3.org/2000/svg" xmlns:xlink="http://www.w3.org/1999/xlink" x="0px" y="0px"
	 width="18px" height="18px" viewBox="0 0 18 18" enable-background="new 0 0 18 18" xml:space="preserve">
<g id="check">
</g>
<rect y="1" fill="#21365F" width="9" height="0.818"/>
<path fill="#21365F" d="M11.455,1v0.818h1.33c0.92,0,0.971,0.534,0.634,1.227c-0.337,0.694-2.568,5.287-2.568,5.287h1.116
	c0,0,2.419-4.902,2.618-5.287c0.45-0.869,0.57-1.227,1.37-1.227H18V1H11.455z"/>
<polygon fill="#21365F" points="9.758,7 3.752,7 4.24,8 10.258,8 "/>
<polygon fill="#21365F" points="8.757,5 2.777,5 3.265,6 9.258,6 "/>
<polygon fill="#21365F" points="7.757,3 1.803,3 2.29,4 8.257,4 "/>
<polygon fill="#21365F" points="10.85,9.182 10.759,9 4.727,9 4.816,9.182 8.223,16.197 11.209,10 13.818,10 18,10 18,9.182 
	11.604,9.182 "/>
<circle fill="#21365F" cx="16.5" cy="6.5" r="1.5"/>
</svg>
