<?xml version="1.0" encoding="utf-8"?>
<!-- Generator: Adobe Illustrator 19.2.1, SVG Export Plug-In . SVG Version: 6.00 Build 0)  -->
<svg version="1.0" id="Layer_2" xmlns="http://www.w3.org/2000/svg" xmlns:xlink="http://www.w3.org/1999/xlink" x="0px" y="0px"
	 width="18px" height="18px" viewBox="0 0 18 18" enable-background="new 0 0 18 18" xml:space="preserve">
<g id="check">
</g>
<g>
	<path fill="#FFFFFF" d="M13.784,9c0,2.657-2.185,4.783-4.784,4.783c-2.657,0-4.783-2.126-4.783-4.783S6.343,4.216,9,4.216V1.5
		C4.866,1.5,1.5,4.866,1.5,9s3.366,7.5,7.5,7.5s7.5-3.366,7.5-7.5H13.784z"/>
	<path fill="#FFFFFF" d="M9,6.188C7.443,6.188,6.188,7.444,6.188,9S7.443,11.862,9,11.812c1.557,0,2.812-1.255,2.812-2.812
		S10.557,6.188,9,6.188z"/>
	<path fill="#FFFFFF" d="M15,5c0-1.125-0.875-2-2-2s-2,0.875-2,2s0.875,2,2,2S15,6.125,15,5z"/>
</g>
</svg>
