<?xml version="1.0" encoding="utf-8"?>
<!-- Generator: Adobe Illustrator 19.2.1, SVG Export Plug-In . SVG Version: 6.00 Build 0)  -->
<svg version="1.0" id="art" xmlns="http://www.w3.org/2000/svg" xmlns:xlink="http://www.w3.org/1999/xlink" x="0px" y="0px"
	 width="30px" height="30px" viewBox="0 0 30 30" enable-background="new 0 0 30 30" xml:space="preserve">
<g id="check">
</g>
<path fill="#EE3424" d="M15.003,1.347c1.86,0,2.448,1.371,2.937,2.741c0.196,0.587,4.993,13.903,5.091,14.295
	c0,0.098,0,0.294-0.098,0.392c-0.196,0-2.644,1.077-2.839,1.077c-0.098,0-0.294,0-0.392-0.196c0-0.098-1.077-3.035-1.175-3.329
	h-7.05c-0.098,0.294-1.175,3.231-1.175,3.329c0,0.098-0.196,0.196-0.294,0.196c-0.098,0-2.644-1.077-2.839-1.077
	c-0.098,0-0.196-0.196-0.098-0.392c0.196-0.49,4.896-13.61,5.091-14.295C12.556,2.62,13.143,1.347,15.003,1.347L15.003,1.347z
	 M5.947,25c-0.105,0-0.316,0.105-0.316,0.316v3.368C5.632,28.789,5.737,29,5.947,29h18.105c0.105,0,0.316-0.105,0.316-0.316v-3.368
	c0-0.105-0.105-0.316-0.316-0.316H5.947z M15.003,5.655l-2.35,7.343h4.896L15.003,5.655z"/>
</svg>
