<?xml version="1.0" encoding="utf-8"?>
<!-- Generator: Adobe Illustrator 19.2.1, SVG Export Plug-In . SVG Version: 6.00 Build 0)  -->
<svg version="1.0" id="art" xmlns="http://www.w3.org/2000/svg" xmlns:xlink="http://www.w3.org/1999/xlink" x="0px" y="0px"
	 width="36px" height="36px" viewBox="0 0 36 36" enable-background="new 0 0 36 36" xml:space="preserve">
<g id="check">
</g>
<g>
	<path fill="#266450" d="M15.197,12.67L23.938,23h11.578c-13.281-11.805,0-21,0-21H24.051L15.197,12.67L15.197,12.67z
		 M20.759,12.557c0-1.703,1.362-3.065,3.065-3.065c1.703,0,3.065,1.362,3.065,3.065s-1.362,3.065-3.065,3.065
		C22.122,15.622,20.759,14.259,20.759,12.557z"/>
</g>
<g>
	<path fill="#266450" d="M21.803,23.67L12.949,13H1.484c0,0,13.281,9.195,0,21l11.578,0L21.803,23.67L21.803,23.67z M13.176,26.622
		c-1.703,0-3.065-1.362-3.065-3.065s1.362-3.065,3.065-3.065s3.065,1.362,3.065,3.065S14.878,26.622,13.176,26.622z"/>
</g>
</svg>
