<?xml version="1.0" encoding="utf-8"?>
<!-- Generator: Adobe Illustrator 19.2.1, SVG Export Plug-In . SVG Version: 6.00 Build 0)  -->
<svg version="1.0" id="art" xmlns="http://www.w3.org/2000/svg" xmlns:xlink="http://www.w3.org/1999/xlink" x="0px" y="0px"
	 width="24px" height="24px" viewBox="0 0 24 24" enable-background="new 0 0 24 24" xml:space="preserve">
<g id="check">
</g>
<path fill="#D4372F" d="M3.902,21C3.404,21,3,20.596,3,20.098V3.902C3,3.404,3.404,3,3.902,3h16.196C20.57,3,21,3.43,21,3.902
	v16.197C21,20.596,20.596,21,20.098,21H3.902z"/>
<g>
	<g>
		<path fill="#FFFFFF" d="M12,18c-2.97,0-4.303-2.364-4.303-4.727c0-1.636,0.545-3.455,1.455-4.97C10.061,6.909,11.091,6,12,6
			s1.939,0.848,2.848,2.303c0.909,1.515,1.455,3.333,1.455,4.97C16.242,15.636,14.97,18,12,18z"/>
	</g>
</g>
</svg>
