<?xml version="1.0" encoding="utf-8"?>
<!-- Generator: Adobe Illustrator 19.2.1, SVG Export Plug-In . SVG Version: 6.00 Build 0)  -->
<svg version="1.0" id="Layer_2" xmlns="http://www.w3.org/2000/svg" xmlns:xlink="http://www.w3.org/1999/xlink" x="0px" y="0px"
	 width="36px" height="36px" viewBox="0 0 36 36" enable-background="new 0 0 36 36" xml:space="preserve">
<g id="check">
</g>
<g>
	<path fill="#FFFFFF" d="M23.67,6.619l-4.414,4.301l0.905,1.019l-2.264,2.15l-2.15-2.15l1.132-1.019l-4.64-4.414
		c-3.622-2.943-7.357,1.585-7.47,5.998l1.358-1.132l4.074,4.301l1.471-1.245v-2.603l0.905,0.679v3.509l1.698,1.698l-8.941,8.828
		l3.735,3.735l8.715-8.828l8.941,9.054l3.735-3.735l-8.941-8.941l1.698-1.698v-3.509l1.019-0.905v2.716l1.358,1.132l4.188-4.188
		l1.358,1.019C31.932,9.449,27.405,2.884,23.67,6.619z"/>
	<path fill="#FFFFFF" d="M2,34h32V2H2V34z M3,3h30v30H3V3z"/>
</g>
</svg>
