<?xml version="1.0" encoding="utf-8"?>
<!-- Generator: Adobe Illustrator 19.2.1, SVG Export Plug-In . SVG Version: 6.00 Build 0)  -->
<svg version="1.0" id="art" xmlns="http://www.w3.org/2000/svg" xmlns:xlink="http://www.w3.org/1999/xlink" x="0px" y="0px"
	 width="36px" height="36px" viewBox="0 0 36 36" enable-background="new 0 0 36 36" xml:space="preserve">
<g id="check">
</g>
<g>
	<path fill="#184A81" d="M18.721,15.702c-5.833,0-10.783,3.977-10.783,9.192c0,1.591,0.53,3.27,1.503,4.773
		c2.74-2.563,5.215-7.336,6.098-12.816c0.088,0,0.884-0.265,1.591-0.265c0,0.795-0.707,12.727-4.861,17.058
		c-3.093-2.121-5.303-5.745-5.303-9.811c0-5.657,3.889-10.253,9.104-11.402c0.265-3.712,0.265-5.303,0.265-7.159h0.884
		c0,0,0,5.303-0.088,6.982c0.354,0,0.619-0.088,0.972-0.088V0.5h0.795v11.667c0.354,0,0.619,0,0.972,0.088
		c0-1.679-0.088-6.982-0.088-6.982h0.884c0,1.856,0,3.359,0.265,7.159c5.303,1.149,9.104,5.833,9.104,11.402
		c0,4.066-2.033,7.689-5.303,9.722c-4.242-4.242-4.861-16.263-4.861-17.058c0.619,0,1.414,0.265,1.591,0.265
		c0.884,5.657,3.27,10.253,6.098,12.816c1.061-1.503,1.503-3.182,1.503-4.773C29.415,19.679,24.466,15.702,18.721,15.702
		 M15.009,34.97c1.679-2.917,2.652-8.573,3.005-18.472h1.237c0.354,9.899,1.326,15.556,3.005,18.472
		c-1.149,0.354-2.386,0.53-3.624,0.53S16.158,35.323,15.009,34.97L15.009,34.97z"/>
</g>
</svg>
