<?xml version="1.0" encoding="utf-8"?>
<!-- Generator: Adobe Illustrator 19.2.1, SVG Export Plug-In . SVG Version: 6.00 Build 0)  -->
<svg version="1.0" id="Layer_2" xmlns="http://www.w3.org/2000/svg" xmlns:xlink="http://www.w3.org/1999/xlink" x="0px" y="0px"
	 width="30px" height="30px" viewBox="0 0 30 30" enable-background="new 0 0 30 30" xml:space="preserve">
<g id="check">
</g>
<g>
	<path fill="#FFFFFF" d="M13.219,4.423c1.142-0.555,2.419-0.554,3.561,0.008l0.441-0.897c-1.412-0.695-3.027-0.7-4.439-0.009
		L13.219,4.423z"/>
	<path fill="#FFFFFF" d="M9.394,26.497c1.776,1.161,3.707,1.774,5.583,1.774c1.894,0,3.841-0.625,5.632-1.807l-0.551-0.835
		c-3.239,2.138-6.873,2.148-10.117,0.03L9.394,26.497z"/>
	<path fill="#FFFFFF" d="M10,22c0,1.285,1.215,2.5,2.5,2.5h1c0.671,0,1.051,0.719,1.053,0.724l0.441,0.877l0.451-0.874
		c0.004-0.007,0.384-0.727,1.055-0.727h1c1.285,0,2.5-1.215,2.5-2.5V11h-2V9l-0.041-0.198C17.529,7.808,16.202,7,15,7
		s-2.529,0.808-2.959,1.802L12,9c0,0.635,0.024,1.469,0.042,2H10V22z M15,8c0.775,0,1.68,0.511,2,1.113v2.146l-1.996,1.597
		l-1.952-1.601C13.036,10.825,13.003,9.858,13,9.113C13.32,8.511,14.225,8,15,8z M11,12h1.382l2.614,2.144L17.675,12H19v5h-8V12z
		 M11,18h8v4c0,0.729-0.771,1.5-1.5,1.5h-1c-0.682,0-1.179,0.34-1.5,0.669c-0.321-0.329-0.818-0.669-1.5-0.669h-1
		c-0.729,0-1.5-0.771-1.5-1.5V18z"/>
	<path fill="#FFFFFF" d="M1.992,15.93c-0.064,1.869-0.54,4.188-1.394,5.334l-0.375,0.504L0.8,22.021c1.012,0.442,2.018,0.432,3-0.03
		c1.036,1.746,2.374,2.169,3.905,2.654L8.5,24.896v-0.683c0-0.66-0.183-2.503-0.912-3.819c0.699-0.112,1.42-0.406,1.846-1.145
		l0.317-0.552L9.14,18.52C8.623,18.37,8,16.32,8,14c0-2.691,1.043-3.523,2.761-4.573c0.793-0.485,0.691-1.035,0.617-1.436
		c-0.078-0.424-0.186-1.006,0.551-2.233L12.383,5H11.5c-1.49,0-2.991,0.565-3.395,1.81C7.523,6.535,6.759,6.049,6.372,5.479
		L5.914,4.802L5.52,5.518C4.624,7.146,4.549,8.557,5.271,9.536c-0.853,0.374-1.405,1.178-1.908,1.91
		c-0.726,1.055-1.353,1.967-2.705,1.967H0.055l0.112,0.593C0.419,15.336,1.158,15.765,1.992,15.93z M4.187,12.013
		c0.721-1.048,1.21-1.691,2.133-1.691h1.748L6.584,9.398C5.554,8.756,5.67,7.647,6.079,6.656c0.769,0.72,1.804,1.189,2.284,1.325
		L9,8.161V7.5c0-0.929,0.912-1.283,1.639-1.418c-0.438,1.039-0.32,1.677-0.244,2.09c0.018,0.092,0.041,0.219,0.035,0.25
		c-0.001,0-0.029,0.053-0.19,0.151C8.404,9.695,7,10.808,7,14c0,1.447,0.279,4.067,1.259,5.095
		c-0.272,0.199-0.742,0.364-1.604,0.364H5.448l0.854,0.854c0.663,0.664,1.039,2.102,1.157,3.203
		c-1.279-0.424-2.241-0.886-3.012-2.426l-0.245-0.491l-0.467,0.29c-0.657,0.409-1.307,0.541-1.973,0.4C2.61,19.726,3,17.291,3,15.5
		v-0.449l-0.447-0.048c-0.699-0.075-1.046-0.234-1.243-0.647C2.759,14.089,3.542,12.951,4.187,12.013z"/>
	<path fill="#FFFFFF" d="M5.938,13.741l-0.877-0.481C4.317,14.612,4,16.18,4,18.5h1C5,16.36,5.28,14.937,5.938,13.741z"/>
	<path fill="#FFFFFF" d="M26.637,11.446c-0.503-0.732-1.056-1.536-1.908-1.91c0.723-0.979,0.647-2.39-0.248-4.019l-0.395-0.715
		l-0.458,0.676c-0.387,0.57-1.151,1.056-1.733,1.331C21.491,5.565,19.99,5,18.5,5h-0.883l0.454,0.757
		c0.736,1.228,0.629,1.809,0.551,2.233c-0.074,0.401-0.176,0.951,0.617,1.436C20.957,10.477,22,11.309,22,14
		c0,2.32-0.623,4.37-1.14,4.52l-0.611,0.178l0.317,0.552c0.426,0.739,1.146,1.033,1.846,1.145c-0.729,1.316-0.912,3.159-0.912,3.819
		v0.683l0.795-0.252c1.531-0.484,2.869-0.908,3.905-2.654c0.98,0.462,1.989,0.471,3,0.03l0.576-0.252l-0.375-0.504
		c-0.854-1.146-1.329-3.465-1.394-5.334c0.834-0.166,1.573-0.594,1.825-1.924l0.112-0.593h-0.604
		C27.989,13.413,27.362,12.501,26.637,11.446z M27.447,15.003L27,15.051V15.5c0,1.791,0.39,4.226,1.237,5.788
		c-0.667,0.141-1.316,0.009-1.973-0.4l-0.467-0.29l-0.245,0.491c-0.771,1.541-1.732,2.002-3.012,2.426
		c0.118-1.101,0.494-2.539,1.157-3.203l0.854-0.854h-1.207c-0.861,0-1.331-0.165-1.604-0.364C22.721,18.067,23,15.447,23,14
		c0-3.192-1.404-4.305-3.239-5.427c-0.154-0.094-0.188-0.146-0.188-0.146c-0.007-0.037,0.016-0.163,0.033-0.255
		c0.076-0.414,0.194-1.051-0.244-2.09C20.088,6.217,21,6.571,21,7.5v0.661l0.637-0.18c0.48-0.136,1.516-0.605,2.284-1.325
		c0.409,0.991,0.525,2.1-0.505,2.742l-1.483,0.924h1.748c0.923,0,1.412,0.643,2.133,1.691c0.645,0.938,1.428,2.076,2.877,2.342
		C28.493,14.769,28.146,14.928,27.447,15.003z"/>
	<path fill="#FFFFFF" d="M24.062,13.741C24.72,14.937,25,16.36,25,18.5h1c0-2.32-0.317-3.888-1.062-5.241L24.062,13.741z"/>
</g>
</svg>
