<?xml version="1.0" encoding="utf-8"?>
<!-- Generator: Adobe Illustrator 19.2.1, SVG Export Plug-In . SVG Version: 6.00 Build 0)  -->
<svg version="1.0" id="art" xmlns="http://www.w3.org/2000/svg" xmlns:xlink="http://www.w3.org/1999/xlink" x="0px" y="0px"
	 width="36px" height="36px" viewBox="0 0 36 36" enable-background="new 0 0 36 36" xml:space="preserve">
<g id="check">
</g>
<path fill="#D4372F" d="M5.178,33C3.977,33,3,32.023,3,30.823V5.177C3,3.977,3.977,3,5.178,3h25.645C31.982,3,33,4.018,33,5.177
	v25.646C33,32.023,32.023,33,30.822,33H5.178z"/>
<g>
	<g>
		<path fill="#FFFFFF" d="M18,28c-4.949,0-7.172-3.939-7.172-7.879c0-2.727,0.909-5.758,2.424-8.283C14.768,9.515,16.485,8,18,8
			s3.232,1.414,4.747,3.838c1.515,2.525,2.424,5.556,2.424,8.283C25.071,24.061,22.949,28,18,28z"/>
	</g>
</g>
</svg>
