<?xml version="1.0" encoding="utf-8"?>
<!-- Generator: Adobe Illustrator 19.2.1, SVG Export Plug-In . SVG Version: 6.00 Build 0)  -->
<svg version="1.0" id="Layer_2" xmlns="http://www.w3.org/2000/svg" xmlns:xlink="http://www.w3.org/1999/xlink" x="0px" y="0px"
	 width="30px" height="30px" viewBox="0 0 30 30" enable-background="new 0 0 30 30" xml:space="preserve">
<g id="check">
</g>
<g>
	<path fill="#FFFFFF" d="M12.232,11.612c-0.421,0.842-2.316,1.685-2.527,2.808c-0.351,1.334-2.316,1.895-2.246,3.861
		c-0.351-0.562-0.702-1.053-1.123-1.544c-0.351-0.07-0.702-0.07-0.983,0.07l-0.421,0.421c-0.07,0.421-0.07,0.702-0.07,1.053H4.159
		c-0.632,1.615-2.036,1.263-3.089,2.597C1,21.019,1,21.159,1,21.3c0.14,0.07,0.351,0.211,0.491,0.281c0.562,0.14,1.123,0.14,1.685,0
		c0.351-0.07,0.772-0.07,0.491-0.702c0.211,0.14,0.562,0.211,0.842,0.14c0.702-0.772,0.842-2.036,1.404-2.527
		c0.211,0.07,0.351,0.281,0.491,0.562c1.474,6.739,10.179,6.809,14.18,2.036c0.562-0.702,2.036-0.351,3.089-1.334
		c-0.421-0.351-0.913-0.281-1.193-0.632l0.842-1.264l0.14,0.14c1.474,1.404,7.09,1.193,5.124-3.791
		c-1.544-2.106-3.72-1.685-5.686-0.562c-0.702-3.018-0.842-3.65-3.58-4.352c0.07-0.281,0.07-0.491,0-0.772
		c-0.913,0.211-1.825,0.491-2.667,1.123c0.632,0.491,1.334,0.913,1.966,1.404c0.281-0.14,0.562-0.351,0.702-0.702
		c2.317,0.421,1.966,2.106,2.317,4.212c-1.053,0.842-2.036,1.825-2.597,2.527c-0.421-0.351-1.264-0.562-1.264,0.632
		c-1.544,1.123-2.667,0.702-3.51-0.421c0.772-0.281,1.193-0.772,1.053-2.036c0.491-0.562,1.123-1.053,0.702-1.966
		c0.562-0.421,0.842-0.983,0.632-2.036c0.281-0.351,0.421-0.772,0-1.334c0-0.562-0.07-1.193-0.14-1.755
		c-0.281,0-0.562-0.14-0.842-0.491c0.14-1.193-0.562-1.193-1.404-1.053c-0.491-0.14-1.053-0.351-1.544-0.491
		c-0.281-0.211-0.491-0.351-0.772-0.562c-0.14,0.281-0.07,0.632,0.14,1.123c-0.211,0.07-0.491,0.07-0.702,0.07
		c-0.281,0.772-1.334,1.053-1.685,1.755c-0.211,0.14-0.491,0.281-0.772,0.281c-0.14,0-0.281,0.14-0.351,0.421
		c0,0.211,0.07,0.562,0.07,0.772c0.281,0.211,0.351,0.211,0.562,0.491c0.14-0.07,0.281-0.14,0.491-0.281
		c-0.07,0.211-0.07,0.351-0.07,0.491c0.07,0.14,0.281,0.211,0.562,0.14c0.07-0.14,0.211-0.281,0.281-0.491
		c0.14-0.281,0.913-0.351,1.404-0.491c0.281,0.351,0.842,0.351,1.404,0.281C12.723,10.489,12.512,10.981,12.232,11.612z
		 M26.973,15.894c0.07,1.123-1.404,1.334-2.527,0.702C25.218,15.614,26.341,14.701,26.973,15.894z"/>
</g>
</svg>
