<?xml version="1.0" encoding="utf-8"?>
<!-- Generator: Adobe Illustrator 19.2.1, SVG Export Plug-In . SVG Version: 6.00 Build 0)  -->
<svg version="1.0" id="Layer_2" xmlns="http://www.w3.org/2000/svg" xmlns:xlink="http://www.w3.org/1999/xlink" x="0px" y="0px"
	 width="36px" height="36px" viewBox="0 0 36 36" enable-background="new 0 0 36 36" xml:space="preserve">
<g id="check">
</g>
<g>
	<path fill="#FFFFFF" d="M14.836,14.128c-0.481,0.963-2.647,1.925-2.888,3.209c-0.401,1.524-2.647,2.166-2.567,4.412
		c-0.401-0.642-0.802-1.203-1.284-1.765c-0.401-0.08-0.802-0.08-1.123,0.08l-0.481,0.481c-0.08,0.481-0.08,0.802-0.08,1.203H5.61
		c-0.722,1.845-2.326,1.444-3.53,2.968C2,24.879,2,25.039,2,25.2c0.16,0.08,0.401,0.241,0.562,0.321c0.642,0.16,1.284,0.16,1.925,0
		c0.401-0.08,0.882-0.08,0.562-0.802c0.241,0.16,0.642,0.241,0.963,0.16c0.802-0.882,0.963-2.327,1.605-2.888
		c0.241,0.08,0.401,0.321,0.562,0.642c1.685,7.702,11.633,7.782,16.206,2.327c0.642-0.802,2.327-0.401,3.53-1.524
		c-0.481-0.401-1.043-0.321-1.364-0.722l0.963-1.444l0.16,0.16c1.685,1.604,8.103,1.364,5.856-4.332
		c-1.765-2.407-4.252-1.925-6.498-0.642c-0.802-3.45-0.963-4.172-4.091-4.974c0.08-0.321,0.08-0.562,0-0.883
		c-1.043,0.241-2.086,0.562-3.049,1.284c0.722,0.562,1.524,1.043,2.246,1.604c0.321-0.16,0.642-0.401,0.802-0.802
		c2.647,0.481,2.246,2.407,2.647,4.814c-1.203,0.963-2.327,2.086-2.968,2.888c-0.481-0.401-1.444-0.642-1.444,0.722
		c-1.765,1.284-3.049,0.802-4.011-0.481c0.883-0.321,1.364-0.882,1.203-2.326c0.562-0.642,1.284-1.203,0.802-2.246
		c0.642-0.481,0.963-1.123,0.722-2.327c0.321-0.401,0.481-0.882,0-1.524c0-0.642-0.08-1.364-0.16-2.006
		c-0.321,0-0.642-0.16-0.963-0.562c0.16-1.364-0.642-1.364-1.604-1.203c-0.562-0.16-1.203-0.401-1.765-0.562
		c-0.321-0.241-0.562-0.401-0.882-0.642c-0.16,0.321-0.08,0.722,0.16,1.284c-0.241,0.08-0.562,0.08-0.802,0.08
		c-0.321,0.883-1.524,1.203-1.925,2.006c-0.241,0.16-0.562,0.321-0.883,0.321c-0.16,0-0.321,0.16-0.401,0.481
		c0,0.241,0.08,0.642,0.08,0.883c0.321,0.241,0.401,0.241,0.642,0.562c0.16-0.08,0.321-0.16,0.562-0.321
		c-0.08,0.241-0.08,0.401-0.08,0.562c0.08,0.16,0.321,0.241,0.642,0.16c0.08-0.16,0.241-0.321,0.321-0.562
		c0.16-0.321,1.043-0.401,1.604-0.562c0.321,0.401,0.963,0.401,1.605,0.321C15.398,12.845,15.157,13.406,14.836,14.128z
		 M31.683,19.022c0.08,1.284-1.604,1.524-2.888,0.802C29.678,18.701,30.961,17.658,31.683,19.022z"/>
</g>
</svg>
