<?xml version="1.0" encoding="utf-8"?>
<!-- Generator: Adobe Illustrator 19.2.1, SVG Export Plug-In . SVG Version: 6.00 Build 0)  -->
<svg version="1.0" id="Layer_2" xmlns="http://www.w3.org/2000/svg" xmlns:xlink="http://www.w3.org/1999/xlink" x="0px" y="0px"
	 width="36px" height="36px" viewBox="0 0 36 36" enable-background="new 0 0 36 36" xml:space="preserve">
<g id="check">
</g>
<g>
	<path d="M1,20.066c0.944,1.889,2.479,3.423,4.25,4.368c-0.472-0.826-0.826-1.771-0.826-2.833V10.032
		C2.889,10.386,1.708,11.448,1,12.747V20.066z"/>
	<path d="M1,11.566c0.826-1.771,2.715-2.951,4.84-2.951h3.423c0.944,0,1.771-0.826,1.771-1.771c0-0.944-0.826-1.653-1.771-1.653
		H5.84C3.125,5.192,1,7.317,1,10.032V11.566z"/>
	<path d="M10.444,30.808c5.194,0,9.444-4.132,9.444-9.208V8.615h5.666c2.479,0,4.958,1.062,6.847,2.715
		c-0.708-3.541-3.659-6.138-7.319-6.138h-8.735V21.6c0,3.187-2.715,5.784-5.902,5.784c-3.777,0-7.555-2.125-9.444-5.666
		C1.118,26.676,5.25,30.808,10.444,30.808z"/>
	<path d="M34.879,20.538c-0.236-1.889-1.062-3.659-2.833-5.312c0.354-0.944,0.472-2.125,0.472-2.715
		c-1.062-0.944-2.597-1.889-4.25-2.361c0.472,0.59,0.826,1.653,0.826,2.479c0,0.826-0.236,1.535-0.708,2.361
		c-0.472,0.708-0.472,1.653,0.354,2.125c1.535,0.826,2.597,2.361,2.715,4.014c0.118,1.18-0.118,2.479-0.826,3.659
		C32.518,23.843,34.053,22.309,34.879,20.538z"/>
	<path d="M34.997,21.836c-1.18,3.069-4.368,5.43-8.617,5.43h-5.548c-0.944,0-1.771,0.826-1.771,1.771s0.826,1.771,1.771,1.771h5.548
		C31.102,30.808,35.115,26.794,34.997,21.836z"/>
</g>
</svg>
