<?xml version="1.0" encoding="utf-8"?>
<!-- Generator: Adobe Illustrator 19.2.1, SVG Export Plug-In . SVG Version: 6.00 Build 0)  -->
<svg version="1.0" id="Layer_2" xmlns="http://www.w3.org/2000/svg" xmlns:xlink="http://www.w3.org/1999/xlink" x="0px" y="0px"
	 width="30px" height="30px" viewBox="0 0 30 30" enable-background="new 0 0 30 30" xml:space="preserve">
<g id="check">
</g>
<g>
	<path fill="#FFFFFF" d="M23.291,15c0,4.606-3.787,8.291-8.291,8.291c-4.606,0-8.291-3.685-8.291-8.291
		c0-4.606,3.685-8.291,8.291-8.291V2C7.835,2,2,7.835,2,15s5.835,13,13,13s13-5.835,13-13H23.291z"/>
	<path fill="#FFFFFF" d="M15,9.501c-3.045,0-5.5,2.455-5.5,5.499s2.455,5.597,5.5,5.499c3.045,0,5.5-2.455,5.5-5.499
		S18.045,9.501,15,9.501z"/>
	<path fill="#FFFFFF" d="M25.679,7.571c0-1.828-1.422-3.25-3.25-3.25s-3.25,1.422-3.25,3.25s1.422,3.25,3.25,3.25
		S25.679,9.4,25.679,7.571z"/>
</g>
</svg>
