<?xml version="1.0" encoding="utf-8"?>
<!-- Generator: Adobe Illustrator 19.2.1, SVG Export Plug-In . SVG Version: 6.00 Build 0)  -->
<svg version="1.0" id="art" xmlns="http://www.w3.org/2000/svg" xmlns:xlink="http://www.w3.org/1999/xlink" x="0px" y="0px"
	 width="36px" height="36px" viewBox="0 0 36 36" enable-background="new 0 0 36 36" xml:space="preserve">
<g id="check">
</g>
<g>
	<path fill="#164A82" d="M9.381,21.75c-0.08-2.246,2.166-2.888,2.567-4.412c0.241-1.284,2.407-2.246,2.888-3.209
		c0.321-0.722,0.562-1.284,1.203-1.685c-0.642,0.08-1.284,0.08-1.605-0.321c-0.562,0.16-1.444,0.241-1.605,0.562
		c-0.08,0.241-0.241,0.401-0.321,0.562c-0.321,0.08-0.562,0-0.642-0.16c0-0.16,0-0.321,0.08-0.562
		c-0.241,0.16-0.401,0.241-0.562,0.321c-0.241-0.321-0.321-0.321-0.642-0.562c0-0.241-0.08-0.642-0.08-0.882
		c0.08-0.321,0.241-0.481,0.401-0.481c0.321,0,0.642-0.16,0.882-0.321c0.401-0.802,1.605-1.123,1.925-2.006
		c0.241,0,0.562,0,0.802-0.08c-0.241-0.562-0.321-0.963-0.16-1.284c0.321,0.241,0.562,0.401,0.882,0.642
		c0.562,0.16,1.203,0.401,1.765,0.562c0.963-0.16,1.765-0.16,1.605,1.203c0.321,0.401,0.642,0.562,0.963,0.562
		c0.08,0.642,0.16,1.364,0.16,2.006c0.481,0.642,0.321,1.123,0,1.524c0.241,1.203-0.08,1.845-0.722,2.327
		c0.481,1.043-0.241,1.605-0.802,2.246c0.16,1.444-0.321,2.006-1.203,2.327c0.963,1.284,2.246,1.765,4.011,0.481
		c0-1.364,0.963-1.123,1.444-0.722c0.642-0.802,1.765-1.925,2.968-2.888c-0.401-2.407,0-4.332-2.647-4.814
		c-0.16,0.401-0.481,0.642-0.802,0.802c-0.722-0.562-1.524-1.043-2.246-1.605c0.963-0.722,2.006-1.043,3.049-1.284
		c0.08,0.321,0.08,0.562,0,0.882c3.129,0.802,3.289,1.524,4.091,4.974c2.246-1.284,4.733-1.765,6.498,0.642
		c2.246,5.696-4.172,5.937-5.856,4.332l-0.16-0.16l-0.963,1.444c0.321,0.401,0.882,0.321,1.364,0.722
		c-1.203,1.123-2.888,0.722-3.53,1.524c-4.573,5.455-14.521,5.375-16.205-2.327c-0.16-0.321-0.321-0.562-0.562-0.642
		c-0.642,0.562-0.802,2.006-1.605,2.888c-0.321,0.08-0.722,0-0.963-0.16c0.321,0.722-0.16,0.722-0.562,0.802
		c-0.642,0.16-1.284,0.16-1.925,0C2.401,25.44,2.16,25.28,2,25.2c0-0.16,0-0.321,0.08-0.481c1.203-1.524,2.808-1.123,3.53-2.968
		h0.802c0-0.401,0-0.722,0.08-1.203l0.481-0.481c0.321-0.16,0.722-0.16,1.123-0.08C8.578,20.546,8.98,21.108,9.381,21.75
		L9.381,21.75z M28.795,19.824c1.284,0.722,2.968,0.481,2.888-0.802C30.961,17.658,29.678,18.701,28.795,19.824L28.795,19.824z"/>
</g>
</svg>
