<?xml version="1.0" encoding="utf-8"?>
<!-- Generator: Adobe Illustrator 19.2.1, SVG Export Plug-In . SVG Version: 6.00 Build 0)  -->
<svg version="1.0" id="art" xmlns="http://www.w3.org/2000/svg" xmlns:xlink="http://www.w3.org/1999/xlink" x="0px" y="0px"
	 width="36px" height="36px" viewBox="0 0 36 36" enable-background="new 0 0 36 36" xml:space="preserve">
<g id="check">
</g>
<g>
	<path fill="#EB923C" d="M26.908,24.651c0-0.201-0.201-0.705-0.503-0.805c-0.302-0.101-0.302,0.201-0.201,0.403
		c0.201,0.503,0.403,0.906,0.503,1.007S27.008,25.155,26.908,24.651z"/>
	<path fill="#EB923C" d="M24.592,25.155c-0.101-0.101-0.201-0.302-0.403-0.302c-0.201,0-0.302,0-0.503,0.101
		c-0.302,0.201-0.403,0.705-0.101,1.107c0.101,0.201,0.302,0.302,0.503,0.403c0.201,0,0.302,0,0.503-0.101
		C24.894,26.061,24.894,25.557,24.592,25.155z"/>
	<g>
		<path fill="#EB923C" d="M26.505,28.275c0.503,0.201,1.107,0.403,1.711,0.705c1.51,0.906,3.02,2.114,3.825,3.725
			c0.403,0.705,0.302,0.805,0.201,0.906c-0.101,0.101-0.201-0.101-0.201-0.101c-0.201-0.403-0.503-0.805-0.503-0.805
			c-3.825-4.53-9.262-4.027-10.872-3.523c-4.228,1.309-11.577-0.101-14.698-5.033C2.143,18.41,4.056,10.356,10.297,6.329
			c6.241-4.127,14.295-2.617,18.12,3.322c3.02,4.631,2.416,10.57-0.906,14.899c-0.101-0.705-0.403-1.409-0.805-2.013
			c0-0.101-0.101-0.101-0.101-0.201l-0.604-0.604c0.101-0.201,0.201-0.403,0.201-0.604c0.906-2.819,0.302-6.342-1.711-9.262
			c-3.221-4.731-9.161-6.644-13.087-4.027s-4.933,8.658-2.013,13.59c1.611,2.718,5.134,4.933,9.06,5.033
			c-0.403-1.208-0.201-2.114-0.201-2.114c0,0.101,0.302,0.503,0.302,0.604c0.302,0.503,0.705,0.906,1.208,1.309
			c0.906,0.604,1.812,1.107,2.919,1.309C24.19,27.772,25.297,27.873,26.505,28.275L26.505,28.275z"/>
		<path fill="#EB923C" d="M26.002,21.833c0,0-1.309-1.409-3.02-1.208c0,0,1.611-0.604,3.322,0.604"/>
	</g>
</g>
</svg>
