<?xml version="1.0" encoding="utf-8"?>
<!-- Generator: Adobe Illustrator 19.2.1, SVG Export Plug-In . SVG Version: 6.00 Build 0)  -->
<svg version="1.0" id="art" xmlns="http://www.w3.org/2000/svg" xmlns:xlink="http://www.w3.org/1999/xlink" x="0px" y="0px"
	 width="30px" height="30px" viewBox="0 0 30 30" enable-background="new 0 0 30 30" xml:space="preserve">
<g id="check">
</g>
<path fill="#FFFFFF" d="M25.812,12.01c-0.721-1.048-1.21-1.69-2.132-1.69h-1.75C22.593,11.158,23,12.275,23,14
	c0,1.448-0.279,4.069-1.26,5.096c0.271,0.199,0.74,0.364,1.6,0.364h1.207l-0.854,0.854c-0.661,0.661-1.035,2.099-1.152,3.199
	c1.278-0.422,2.241-0.885,3.012-2.426l0.247-0.494l0.467,0.294c0.652,0.411,1.301,0.545,1.971,0.4C27.39,19.728,27,17.292,27,15.5
	v-0.45l0.447-0.047c0.7-0.075,1.047-0.234,1.243-0.65C27.24,14.087,26.457,12.948,25.812,12.01z M25,18.5
	c0-2.146-0.28-3.568-0.938-4.758l0.875-0.483C25.683,14.606,26,16.174,26,18.5H25z"/>
<path fill="#FFFFFF" d="M21.929,10.318l1.487-0.923c1.03-0.64,0.914-1.747,0.505-2.737c-0.769,0.722-1.804,1.188-2.286,1.324
	L21,8.159V7.5c0-0.86-0.829-1.262-1.639-1.418c0.439,1.039,0.322,1.676,0.246,2.09c-0.018,0.092-0.04,0.219-0.033,0.255
	c0.001,0,0.033,0.051,0.187,0.146C20.607,9.088,21.361,9.601,21.929,10.318z"/>
<path fill="#FFE60D" d="M11,22c0,0.729,0.771,1.5,1.5,1.5h1c0.682,0,1.179,0.34,1.5,0.669c0.321-0.329,0.818-0.669,1.5-0.669h1
	c0.729,0,1.5-0.771,1.5-1.5v-4h-8V22z"/>
<polygon fill="#FFE60D" points="11,17 19,17 19,12 17.675,12 14.996,14.144 12.381,12 11,12 "/>
<path fill="#FFFFFF" d="M15.004,12.856L17,11.26V9.115C16.675,8.512,15.771,8,15,8c-0.77,0-1.675,0.511-2,1.114
	c0.003,0.745,0.035,1.711,0.051,2.142L15.004,12.856z"/>
<path fill="#FFFFFF" d="M8.07,10.32H6.32c-0.922,0-1.411,0.643-2.132,1.69c-0.646,0.938-1.429,2.077-2.879,2.343
	c0.196,0.416,0.543,0.575,1.243,0.65L3,15.05v0.45c0,1.792-0.39,4.228-1.237,5.788c0.672,0.145,1.318,0.011,1.971-0.4L4.2,20.593
	l0.247,0.494c0.771,1.541,1.733,2.004,3.012,2.426c-0.117-1.101-0.491-2.538-1.152-3.199L5.453,19.46H6.66
	c0.859,0,1.328-0.165,1.6-0.364C7.279,18.069,7,15.448,7,14C7,12.275,7.407,11.158,8.07,10.32z M5,18.5H4
	c0-2.326,0.317-3.894,1.062-5.242l0.875,0.483C5.28,14.932,5,16.354,5,18.5z"/>
<path fill="#FFFFFF" d="M6.079,6.658C5.67,7.648,5.554,8.755,6.584,9.395l1.487,0.923c0.567-0.717,1.321-1.23,2.168-1.745
	c0.159-0.099,0.188-0.15,0.188-0.151c0.006-0.032-0.017-0.158-0.034-0.251c-0.076-0.414-0.193-1.051,0.246-2.09
	C9.829,6.238,9,6.64,9,7.5v0.659L8.365,7.981C7.883,7.846,6.848,7.379,6.079,6.658z"/>
<path fill="#231F20" d="M16.782,4.43l0.436-0.9c-1.436-0.694-3.033-0.69-4.436-0.01l0.436,0.9
	C14.352,3.871,15.617,3.867,16.782,4.43z"/>
<path fill="#231F20" d="M9.943,25.662l-0.547,0.837c1.771,1.159,3.701,1.771,5.584,1.771c1.884,0,3.829-0.623,5.624-1.802
	l-0.549-0.836C16.793,27.774,13.16,27.766,9.943,25.662z"/>
<path fill="#231F20" d="M12,9c0,0.635,0.024,1.469,0.041,2h0.518v1h-0.178l2.615,2.144L17.675,12H17.5v-0.5c0,0,0-0.201,0-0.5H18V9
	l-0.042-0.201C17.521,7.807,16.195,7,15,7s-2.521,0.807-2.958,1.799L12,9z M15,8c0.771,0,1.675,0.512,2,1.115v2.145l-1.996,1.597
	l-1.953-1.6C13.035,10.826,13.003,9.859,13,9.114C13.325,8.511,14.23,8,15,8z"/>
<path fill="#231F20" d="M17.5,11.5V12h0.175H19v5h0.5c0,0.167,0,0.334,0,0.5c0,0.169,0,0.334,0,0.5H19v4c0,0.729-0.771,1.5-1.5,1.5
	h-1c-0.682,0-1.179,0.34-1.5,0.669c-0.321-0.329-0.818-0.669-1.5-0.669h-1c-0.729,0-1.5-0.771-1.5-1.5v-4v-1v-5h1.381h0.178v-1
	h-0.518H10v11c0,1.285,1.215,2.5,2.5,2.5h1c0.671,0,1.051,0.719,1.053,0.724l0.441,0.877l0.451-0.874
	c0.004-0.007,0.384-0.727,1.055-0.727h1c1.285,0,2.5-1.215,2.5-2.5V11h-2h-0.5C17.5,11.299,17.5,11.5,17.5,11.5z"/>
<path fill="#231F20" d="M11,18h8h0.5c0-0.166,0-0.331,0-0.5c0-0.166,0-0.333,0-0.5H19h-8V18z"/>
<path fill="#231F20" d="M9.434,19.248l0.315-0.551L9.14,18.52C8.623,18.37,8,16.321,8,14c0-2.699,1.043-3.528,2.76-4.573
	l0.003-0.001c0.788-0.486,0.688-1.034,0.613-1.435c-0.078-0.424-0.185-1.005,0.553-2.234L12.383,5H11.5
	c-1.489,0-2.99,0.565-3.395,1.808C7.551,6.547,6.776,6.077,6.375,5.48L5.918,4.801L5.522,5.518C4.624,7.147,4.548,8.556,5.271,9.534
	c-0.851,0.375-1.402,1.178-1.906,1.909C2.639,12.499,2.012,13.41,0.66,13.41H0.058l0.111,0.592c0.25,1.333,0.989,1.762,1.823,1.928
	c-0.064,1.87-0.54,4.188-1.393,5.331l-0.376,0.503l0.575,0.253c1.018,0.448,2.024,0.438,3.002-0.027
	c1.039,1.75,2.382,2.172,3.918,2.655L8.5,24.892V24.21c0-0.661-0.183-2.505-0.911-3.82C8.473,20.244,9.08,19.867,9.434,19.248z
	 M6.66,19.46H5.453l0.854,0.854c0.661,0.661,1.035,2.099,1.152,3.199c-1.278-0.422-2.241-0.885-3.012-2.426L4.2,20.593l-0.467,0.294
	c-0.652,0.412-1.299,0.545-1.971,0.4C2.61,19.728,3,17.292,3,15.5v-0.45l-0.447-0.047c-0.7-0.075-1.047-0.234-1.243-0.65
	c1.45-0.266,2.233-1.405,2.879-2.343c0.721-1.048,1.21-1.69,2.132-1.69h1.75C7.407,11.158,7,12.275,7,14
	c0,1.448,0.279,4.069,1.26,5.096C7.988,19.295,7.52,19.46,6.66,19.46z M9,7.5c0-0.86,0.829-1.262,1.639-1.418
	c-0.439,1.039-0.322,1.676-0.246,2.09c0.018,0.093,0.04,0.219,0.034,0.251c0,0-0.028,0.052-0.188,0.151
	c-0.847,0.515-1.601,1.027-2.168,1.745L6.584,9.395c-1.03-0.64-0.914-1.747-0.505-2.737c0.769,0.722,1.804,1.188,2.286,1.324
	L9,8.159V7.5z"/>
<path fill="#231F20" d="M4,18.5h1c0-2.146,0.28-3.568,0.938-4.758l-0.875-0.483C4.317,14.606,4,16.174,4,18.5z"/>
<path fill="#231F20" d="M29.831,14.002l0.111-0.592H29.34c-1.352,0-1.979-0.911-2.704-1.967c-0.504-0.731-1.056-1.535-1.906-1.909
	c0.723-0.978,0.646-2.387-0.252-4.016l-0.396-0.717L23.625,5.48c-0.401,0.596-1.176,1.066-1.73,1.328C21.49,5.565,19.989,5,18.5,5
	h-0.883l0.454,0.757c0.737,1.229,0.631,1.81,0.553,2.234c-0.074,0.4-0.175,0.949,0.613,1.435l0.003,0.001
	C20.957,10.472,22,11.301,22,14c0,2.321-0.623,4.37-1.14,4.52l-0.609,0.177l0.315,0.551c0.354,0.619,0.961,0.996,1.845,1.142
	c-0.729,1.314-0.911,3.159-0.911,3.82v0.682l0.781-0.247c1.536-0.483,2.879-0.906,3.918-2.655c0.978,0.465,1.985,0.476,3.002,0.027
	l0.575-0.253L29.4,21.261c-0.853-1.143-1.328-3.461-1.393-5.331C28.842,15.765,29.581,15.335,29.831,14.002z M27.447,15.003
	L27,15.05v0.45c0,1.792,0.39,4.228,1.237,5.788c-0.67,0.145-1.318,0.011-1.971-0.4L25.8,20.593l-0.247,0.494
	c-0.771,1.541-1.733,2.004-3.012,2.426c0.117-1.101,0.491-2.538,1.152-3.199l0.854-0.854H23.34c-0.859,0-1.328-0.165-1.6-0.364
	C22.721,18.069,23,15.448,23,14c0-1.725-0.407-2.842-1.07-3.68h1.75c0.922,0,1.411,0.643,2.132,1.69
	c0.646,0.938,1.429,2.077,2.879,2.343C28.494,14.769,28.147,14.928,27.447,15.003z M19.574,8.427
	c-0.007-0.036,0.016-0.163,0.033-0.255c0.076-0.414,0.193-1.051-0.246-2.09C20.171,6.238,21,6.64,21,7.5v0.659l0.635-0.178
	c0.482-0.135,1.518-0.602,2.286-1.324c0.409,0.99,0.525,2.097-0.505,2.737l-1.487,0.923c-0.567-0.717-1.321-1.23-2.168-1.745
	C19.607,8.479,19.575,8.427,19.574,8.427z"/>
<path fill="#231F20" d="M24.062,13.742C24.72,14.932,25,16.354,25,18.5h1c0-2.326-0.317-3.894-1.062-5.242L24.062,13.742z"/>
</svg>
