<?xml version="1.0" encoding="utf-8"?>
<!-- Generator: Adobe Illustrator 19.2.1, SVG Export Plug-In . SVG Version: 6.00 Build 0)  -->
<svg version="1.0" id="art" xmlns="http://www.w3.org/2000/svg" xmlns:xlink="http://www.w3.org/1999/xlink" x="0px" y="0px"
	 width="18px" height="18px" viewBox="0 0 18 18" enable-background="new 0 0 18 18" xml:space="preserve">
<g id="check">
</g>
<g>
	<path fill="#EB923C" d="M13.936,12.662c0-0.114-0.114-0.398-0.284-0.455c-0.171-0.057-0.171,0.114-0.114,0.227
		c0.114,0.284,0.227,0.512,0.284,0.568C13.879,13.06,13.993,12.946,13.936,12.662z"/>
	<path fill="#EB923C" d="M12.629,12.946c-0.057-0.057-0.114-0.171-0.227-0.171c-0.114,0-0.171,0-0.284,0.057
		c-0.171,0.114-0.227,0.398-0.057,0.625c0.057,0.114,0.171,0.171,0.284,0.227c0.114,0,0.171,0,0.284-0.057
		C12.799,13.458,12.799,13.174,12.629,12.946z"/>
	<g>
		<path fill="#EB923C" d="M13.709,14.709c0.284,0.114,0.625,0.227,0.966,0.398c0.853,0.512,1.705,1.194,2.16,2.103
			c0.227,0.398,0.171,0.455,0.114,0.512c-0.057,0.057-0.114-0.057-0.114-0.057c-0.114-0.227-0.284-0.455-0.284-0.455
			c-2.16-2.558-5.23-2.274-6.14-1.99c-2.388,0.739-6.538-0.057-8.3-2.842c-2.16-3.24-1.08-7.788,2.445-10.062
			c3.525-2.331,8.073-1.478,10.233,1.876c1.705,2.615,1.364,5.969-0.512,8.414c-0.057-0.398-0.227-0.796-0.455-1.137
			c0-0.057-0.057-0.057-0.057-0.114l-0.341-0.341c0.057-0.114,0.114-0.227,0.114-0.341c0.512-1.592,0.171-3.581-0.966-5.23
			C10.753,2.77,7.399,1.69,5.181,3.168s-2.786,4.889-1.137,7.675c0.91,1.535,2.899,2.786,5.116,2.842
			c-0.227-0.682-0.114-1.194-0.114-1.194c0,0.057,0.171,0.284,0.171,0.341c0.171,0.284,0.398,0.512,0.682,0.739
			c0.512,0.341,1.023,0.625,1.649,0.739C12.401,14.424,13.027,14.481,13.709,14.709L13.709,14.709z"/>
		<path fill="#EB923C" d="M13.425,11.07c0,0-0.739-0.796-1.705-0.682c0,0,0.91-0.341,1.876,0.341"/>
	</g>
</g>
</svg>
