<?xml version="1.0" encoding="utf-8"?>
<!-- Generator: Adobe Illustrator 19.2.1, SVG Export Plug-In . SVG Version: 6.00 Build 0)  -->
<svg version="1.0" id="Layer_2" xmlns="http://www.w3.org/2000/svg" xmlns:xlink="http://www.w3.org/1999/xlink" x="0px" y="0px"
	 width="36px" height="36px" viewBox="0 0 36 36" enable-background="new 0 0 36 36" xml:space="preserve">
<g id="check">
</g>
<g>
	<path fill="#FFFFFF" d="M35.516,2H24.051l-8.854,10.67L23.938,23h11.578C22.235,11.195,35.516,2,35.516,2z M23.824,15.622
		c-1.703,0-3.065-1.362-3.065-3.065s1.362-3.065,3.065-3.065s3.065,1.362,3.065,3.065S25.527,15.622,23.824,15.622z"/>
	<path fill="#FFFFFF" d="M1.484,34h11.578l8.741-10.33L12.949,13H1.484C1.484,13,14.765,22.195,1.484,34z M13.176,20.492
		c1.703,0,3.065,1.362,3.065,3.065s-1.362,3.065-3.065,3.065s-3.065-1.362-3.065-3.065S11.473,20.492,13.176,20.492z"/>
</g>
</svg>
