<?xml version="1.0" encoding="utf-8"?>
<!-- Generator: Adobe Illustrator 19.2.1, SVG Export Plug-In . SVG Version: 6.00 Build 0)  -->
<svg version="1.0" id="Layer_2" xmlns="http://www.w3.org/2000/svg" xmlns:xlink="http://www.w3.org/1999/xlink" x="0px" y="0px"
	 width="24px" height="24px" viewBox="0 0 24 24" enable-background="new 0 0 24 24" xml:space="preserve">
<g id="check">
</g>
<g>
	<path d="M9.825,9.338C9.494,10,8.005,10.662,7.839,11.544c-0.276,1.048-1.82,1.489-1.765,3.034
		c-0.276-0.441-0.552-0.827-0.882-1.213C4.916,13.309,4.64,13.309,4.42,13.42l-0.331,0.331c-0.055,0.331-0.055,0.552-0.055,0.827
		H3.482c-0.496,1.269-1.6,0.993-2.427,2.041C1,16.729,1,16.839,1,16.95c0.11,0.055,0.276,0.165,0.386,0.221
		c0.441,0.11,0.882,0.11,1.324,0c0.276-0.055,0.607-0.055,0.386-0.552c0.165,0.11,0.441,0.165,0.662,0.11
		c0.552-0.607,0.662-1.599,1.103-1.986c0.165,0.055,0.276,0.221,0.386,0.441c1.158,5.295,7.997,5.35,11.141,1.599
		c0.441-0.552,1.599-0.276,2.427-1.048c-0.331-0.276-0.717-0.221-0.938-0.496l0.662-0.993l0.11,0.11
		c1.158,1.103,5.571,0.938,4.026-2.978c-1.213-1.655-2.923-1.324-4.468-0.441c-0.552-2.372-0.662-2.868-2.813-3.42
		c0.055-0.221,0.055-0.386,0-0.607c-0.717,0.165-1.434,0.386-2.096,0.882c0.496,0.386,1.048,0.717,1.544,1.103
		c0.221-0.11,0.441-0.276,0.552-0.552c1.82,0.331,1.544,1.655,1.82,3.309c-0.827,0.662-1.599,1.434-2.041,1.986
		c-0.331-0.276-0.993-0.441-0.993,0.496c-1.213,0.882-2.096,0.552-2.758-0.331c0.607-0.221,0.938-0.607,0.827-1.599
		c0.386-0.441,0.882-0.827,0.552-1.544c0.441-0.331,0.662-0.772,0.496-1.599c0.221-0.276,0.331-0.607,0-1.048
		c0-0.441-0.055-0.938-0.11-1.379c-0.221,0-0.441-0.11-0.662-0.386c0.11-0.938-0.441-0.938-1.103-0.827
		c-0.386-0.11-0.827-0.276-1.213-0.386C9.99,4.871,9.825,4.76,9.604,4.595c-0.11,0.221-0.055,0.496,0.11,0.883
		C9.549,5.533,9.328,5.533,9.163,5.533C8.942,6.139,8.115,6.36,7.839,6.911c-0.165,0.11-0.386,0.221-0.607,0.221
		c-0.11,0-0.221,0.11-0.276,0.331c0,0.165,0.055,0.441,0.055,0.607c0.221,0.165,0.276,0.165,0.441,0.386
		c0.11-0.055,0.221-0.11,0.386-0.221C7.784,8.401,7.784,8.511,7.784,8.621c0.055,0.11,0.221,0.165,0.441,0.11
		c0.055-0.11,0.165-0.221,0.221-0.386c0.11-0.221,0.717-0.276,1.103-0.386c0.221,0.276,0.662,0.276,1.103,0.221
		C10.211,8.456,10.045,8.842,9.825,9.338z M21.407,12.703c0.055,0.882-1.103,1.048-1.986,0.552
		C20.028,12.482,20.911,11.765,21.407,12.703z"/>
</g>
</svg>
