<?xml version="1.0" encoding="utf-8"?>
<!-- Generator: Adobe Illustrator 19.2.1, SVG Export Plug-In . SVG Version: 6.00 Build 0)  -->
<svg version="1.0" id="Layer_2" xmlns="http://www.w3.org/2000/svg" xmlns:xlink="http://www.w3.org/1999/xlink" x="0px" y="0px"
	 width="30px" height="30px" viewBox="0 0 30 30" enable-background="new 0 0 30 30" xml:space="preserve">
<g id="check">
</g>
<g>
	<path fill="#FFFFFF" d="M2.365,16.58c0.722,1.444,1.896,2.618,3.25,3.34c-0.361-0.632-0.632-1.354-0.632-2.167V8.907
		C3.809,9.177,2.906,9.99,2.365,10.983V16.58z"/>
	<path fill="#FFFFFF" d="M2.365,8.907v1.174c0.632-1.354,2.076-2.257,3.701-2.257h2.618c0.722,0,1.354-0.632,1.354-1.354
		S9.406,5.206,8.684,5.206H6.066C3.99,5.206,2.365,6.83,2.365,8.907z"/>
	<path fill="#FFFFFF" d="M9.587,24.794c3.972,0,7.222-3.159,7.222-7.041v-9.93h4.333c1.896,0,3.791,0.812,5.236,2.076
		c-0.542-2.708-2.798-4.694-5.597-4.694H14.1v12.548c0,2.437-2.076,4.423-4.514,4.423c-2.889,0-5.777-1.625-7.222-4.333
		C2.455,21.635,5.615,24.794,9.587,24.794z"/>
	<path fill="#FFFFFF" d="M28.273,16.941c-0.181-1.444-0.812-2.798-2.167-4.062c0.271-0.722,0.361-1.625,0.361-2.076
		c-0.812-0.722-1.986-1.444-3.25-1.805c0.361,0.451,0.632,1.264,0.632,1.896s-0.181,1.174-0.542,1.805
		c-0.361,0.542-0.361,1.264,0.271,1.625c1.174,0.632,1.986,1.805,2.076,3.069c0.09,0.903-0.09,1.896-0.632,2.798
		C26.467,19.468,27.641,18.295,28.273,16.941z"/>
	<path fill="#FFFFFF" d="M28.363,17.934c-0.903,2.347-3.34,4.152-6.59,4.152H17.53c-0.722,0-1.354,0.632-1.354,1.354
		s0.632,1.354,1.354,1.354h4.243C25.384,24.794,28.453,21.725,28.363,17.934z"/>
</g>
</svg>
