<?xml version="1.0" encoding="utf-8"?>
<!-- Generator: Adobe Illustrator 19.2.1, SVG Export Plug-In . SVG Version: 6.00 Build 0)  -->
<svg version="1.0" id="Layer_2" xmlns="http://www.w3.org/2000/svg" xmlns:xlink="http://www.w3.org/1999/xlink" x="0px" y="0px"
	 width="24px" height="24px" viewBox="0 0 24 24" enable-background="new 0 0 24 24" xml:space="preserve">
<g id="check">
</g>
<g>
	<polygon points="8,12 8,8 7,8 7,16 8,16 8,13 16,13 16,16 17,16 17,8 16,8 16,12 	"/>
	<rect x="10" y="18" width="4" height="1"/>
	<rect x="9" y="21" width="6" height="1"/>
	<polygon points="9,5.083 9,6 9,7 10,7 10,6 14,6 14,7 15,7 15,6 15,5.083 15,5 9,5 	"/>
	<rect x="11" y="8" width="2" height="1"/>
	<rect x="10" y="2" width="4" height="1"/>
	<rect x="5" y="3" width="1" height="1"/>
	<rect x="5" y="5" width="1" height="1"/>
	<rect x="2" y="5" width="1" height="1"/>
	<rect x="4" y="4" width="1" height="1"/>
	<rect x="4" y="6" width="1" height="1"/>
	<rect x="1" y="6" width="1" height="1"/>
	<rect x="3" y="7" width="1" height="1"/>
	<rect x="4" y="8" width="1" height="1"/>
	<rect x="2" y="8" width="1" height="1"/>
	<rect x="3" y="9" width="1" height="1"/>
	<rect x="4" y="14" width="1" height="1"/>
	<rect x="2" y="14" width="1" height="1"/>
	<rect x="2" y="16" width="1" height="1"/>
	<rect x="3" y="15" width="1" height="1"/>
	<rect x="3" y="17" width="1" height="1"/>
	<rect x="4" y="10" width="1" height="1"/>
	<rect x="2" y="10" width="1" height="1"/>
	<rect x="3" y="11" width="1" height="1"/>
	<rect x="4" y="16" width="1" height="1"/>
	<rect x="4" y="18" width="1" height="1"/>
	<rect x="8" y="16" width="1" height="1"/>
	<rect x="8" y="7" width="1" height="1"/>
	<rect x="10" y="7" width="1" height="1"/>
	<rect x="15" y="7" width="1" height="1"/>
	<rect x="13" y="7" width="1" height="1"/>
	<polygon points="7,21 8,21 9,21 9,20 8,20 7,20 	"/>
	<rect x="9" y="17" width="1" height="1"/>
	<rect x="4" y="12" width="1" height="1"/>
	<rect x="2" y="12" width="1" height="1"/>
	<rect x="3" y="13" width="1" height="1"/>
	<rect x="1" y="9" width="1" height="1"/>
	<rect x="1" y="11" width="1" height="1"/>
	<rect x="1" y="13" width="1" height="1"/>
	<rect x="18" y="3" width="1" height="1"/>
	<rect x="18" y="5" width="1" height="1"/>
	<rect x="21" y="5" width="1" height="1"/>
	<rect x="19" y="4" width="1" height="1"/>
	<rect x="19" y="6" width="1" height="1"/>
	<rect x="22" y="6" width="1" height="1"/>
	<rect x="20" y="7" width="1" height="1"/>
	<rect x="19" y="8" width="1" height="1"/>
	<rect x="21" y="8" width="1" height="1"/>
	<rect x="20" y="9" width="1" height="1"/>
	<rect x="19" y="14" width="1" height="1"/>
	<rect x="21" y="14" width="1" height="1"/>
	<rect x="21" y="16" width="1" height="1"/>
	<rect x="20" y="15" width="1" height="1"/>
	<rect x="20" y="17" width="1" height="1"/>
	<rect x="19" y="10" width="1" height="1"/>
	<rect x="21" y="10" width="1" height="1"/>
	<rect x="20" y="11" width="1" height="1"/>
	<rect x="19" y="16" width="1" height="1"/>
	<rect x="19" y="18" width="1" height="1"/>
	<polygon points="17,21 17,20 16,20 15,20 15,21 16,21 	"/>
	<rect x="19" y="12" width="1" height="1"/>
	<rect x="21" y="12" width="1" height="1"/>
	<rect x="20" y="13" width="1" height="1"/>
	<rect x="22" y="9" width="1" height="1"/>
	<rect x="22" y="11" width="1" height="1"/>
	<rect x="22" y="13" width="1" height="1"/>
	<rect x="14" y="17" width="1" height="1"/>
	<rect x="15" y="16" width="1" height="1"/>
</g>
</svg>
