<?xml version="1.0" encoding="utf-8"?>
<!-- Generator: Adobe Illustrator 19.2.1, SVG Export Plug-In . SVG Version: 6.00 Build 0)  -->
<svg version="1.0" id="Layer_2" xmlns="http://www.w3.org/2000/svg" xmlns:xlink="http://www.w3.org/1999/xlink" x="0px" y="0px"
	 width="36px" height="36px" viewBox="0 0 36 36" enable-background="new 0 0 36 36" xml:space="preserve">
<g id="check">
</g>
<g>
	<path opacity="0.3" d="M2,28c0,3.3,2.7,6,6,6h14c3.3,0,6-2.7,6-6v0H14c-3.3,0-6-2.7-6-6V8h0c-3.3,0-6,2.7-6,6V28z"/>
	<path d="M26.203,16.081c-0.203-0.912-0.912-1.723-2.027-1.926c0.608-0.203,1.318-0.709,1.318-2.027
		c0-1.419-1.115-2.128-2.838-2.128h-2.838v3.446h-1.723c-2.23,0-2.737,1.52-2.737,2.331c0,1.216,0.709,1.723,1.926,2.331
		c0.811,0.304,1.723,0.709,1.723,1.419c0,0.405-0.405,1.013-1.318,1.013H16.27c0.203-0.405,0.304-0.912,0.304-1.318
		c0-0.608-0.203-2.736-3.243-2.736H11V25h1.723v-3.75l0.709,0.709h4.561c2.128,0,3.243-1.115,3.243-2.432
		c0-0.405-0.101-0.912-0.203-1.115h1.824C25.595,18.412,26.203,17.095,26.203,16.081z M13.432,20.946h-0.811v-2.838h0.811
		c1.013,0,1.419,0.608,1.419,1.318S14.446,20.946,13.432,20.946z M20.02,15.676v2.027c-0.405-0.203-0.912-0.405-1.318-0.709
		c-0.608-0.203-1.115-0.608-1.115-1.216c0-0.304,0.203-0.912,1.216-0.912h2.027L20.02,15.676z M21.743,11.52h0.811
		c1.318,0,1.318,0.811,1.318,1.014c0,0.304-0.203,1.013-1.318,1.013h-0.811V11.52z M21.642,17.297v-2.331h1.013
		c1.216,0,1.419,0.608,1.419,1.115c0.101,0.709-0.304,1.216-1.419,1.216H21.642z"/>
	<path d="M28,28c3.3,0,6-2.7,6-6V8c0-3.3-2.7-6-6-6H14c-3.3,0-6,2.7-6,6h14c3.3,0,6,2.7,6,6L28,28L28,28z"/>
</g>
</svg>
