<?xml version="1.0" encoding="utf-8"?>
<!-- Generator: Adobe Illustrator 19.2.1, SVG Export Plug-In . SVG Version: 6.00 Build 0)  -->
<svg version="1.0" id="Layer_2" xmlns="http://www.w3.org/2000/svg" xmlns:xlink="http://www.w3.org/1999/xlink" x="0px" y="0px"
	 width="30px" height="30px" viewBox="0 0 30 30" enable-background="new 0 0 30 30" xml:space="preserve">
<g id="check">
</g>
<g>
	
		<rect x="9.729" y="1.792" transform="matrix(0.9334 -0.359 0.359 0.9334 -0.1957 3.9039)" fill="#FFFFFF" width="1.373" height="1.373"/>
	<rect x="25.303" y="14.113" fill="#FFFFFF" width="1.775" height="1.775"/>
	
		<rect x="25.85" y="20.97" transform="matrix(0.5039 -0.8638 0.8638 0.5039 -5.54 33.6646)" fill="#FFFFFF" width="1.37" height="1.37"/>
	
		<rect x="24.562" y="18.006" transform="matrix(0.3328 -0.943 0.943 0.3328 -0.8369 36.6058)" fill="#FFFFFF" width="1.777" height="1.777"/>
	
		<rect x="27.465" y="16.669" transform="matrix(0.1414 -0.9899 0.9899 0.1414 6.9872 42.7888)" fill="#FFFFFF" width="1.394" height="1.394"/>
	<polygon fill="#FFFFFF" points="23.923,18.944 22.246,17.958 21.655,19.042 21.655,19.141 21.261,19.732 21.655,19.93 
		22.937,20.62 	"/>
	
		<rect x="22.679" y="12.573" transform="matrix(0.9878 -0.156 0.156 0.9878 -1.8197 3.8504)" fill="#FFFFFF" width="1.896" height="1.896"/>
	
		<rect x="22.679" y="15.531" transform="matrix(0.156 -0.9878 0.9878 0.156 3.6646 37.2464)" fill="#FFFFFF" width="1.896" height="1.896"/>
	
		<rect x="24.562" y="10.316" transform="matrix(0.943 -0.3328 0.3328 0.943 -2.278 9.1092)" fill="#FFFFFF" width="1.777" height="1.777"/>
	<polygon fill="#FFFFFF" points="20.57,6.915 19.289,8.394 20.768,9.676 21.655,8.69 21.655,8.592 22.049,8.197 21.655,7.901 	"/>
	<polygon fill="#FFFFFF" points="20.275,4.155 19.486,5.634 20.965,6.521 21.655,5.239 21.754,4.944 21.655,4.845 	"/>
	<polygon fill="#FFFFFF" points="28.655,11.944 27.275,12.141 27.57,13.521 28.951,13.324 	"/>
	<polygon fill="#FFFFFF" points="2.528,8.592 3.711,9.282 4.303,8.099 3.218,7.408 	"/>
	
		<rect x="25.85" y="7.66" transform="matrix(0.8638 -0.5039 0.5039 0.8638 -0.59 14.5078)" fill="#FFFFFF" width="1.37" height="1.37"/>
	<rect x="13.965" y="5.239" fill="#FFFFFF" width="1.972" height="1.972"/>
	<polygon fill="#FFFFFF" points="21.655,21.408 20.768,20.423 19.289,21.704 20.57,23.183 21.655,22.197 22.049,21.803 	"/>
	<polygon fill="#FFFFFF" points="23.43,9.084 24.81,7.901 23.725,6.521 22.345,7.606 	"/>
	<polygon fill="#FFFFFF" points="7.359,4.845 6.472,3.859 5.486,4.746 6.373,5.831 	"/>
	
		<rect x="22.828" y="4.144" transform="matrix(0.6332 -0.774 0.774 0.6332 4.8795 19.987)" fill="#FFFFFF" width="1.401" height="1.401"/>
	
		<rect x="3.562" y="10.316" transform="matrix(0.3328 -0.943 0.943 0.3328 -7.596 11.6722)" fill="#FFFFFF" width="1.777" height="1.777"/>
	<polygon fill="#FFFFFF" points="6.472,9.084 7.655,7.704 6.275,6.62 5.19,7.901 	"/>
	<rect x="14.261" y="1" fill="#FFFFFF" width="1.38" height="1.38"/>
	<polygon fill="#FFFFFF" points="21.852,25.056 21.655,24.761 20.866,23.577 19.387,24.465 20.275,25.944 21.655,25.155 	"/>
	
		<rect x="22.7" y="21.27" transform="matrix(0.6178 -0.7863 0.7863 0.6178 -8.4044 27.0046)" fill="#FFFFFF" width="1.755" height="1.755"/>
	
		<rect x="22.828" y="24.553" transform="matrix(0.774 -0.6332 0.6332 0.774 -10.6731 20.607)" fill="#FFFFFF" width="1.401" height="1.401"/>
	
		<rect x="18.898" y="26.835" transform="matrix(0.9334 -0.359 0.359 0.9334 -8.5737 8.8642)" fill="#FFFFFF" width="1.373" height="1.373"/>
	
		<rect x="17.009" y="22.185" transform="matrix(0.9383 -0.3457 0.3457 0.9383 -6.9042 7.6544)" fill="#FFFFFF" width="1.996" height="1.996"/>
	<polygon fill="#FFFFFF" points="21.261,10.268 21.655,10.958 22.246,11.944 23.923,10.958 22.937,9.282 21.655,10.07 	"/>
	<polygon fill="#FFFFFF" points="9.43,23.084 10.711,21.606 9.232,20.324 8.345,21.408 7.951,21.803 8.345,22.197 	"/>
	<polygon fill="#FFFFFF" points="8.739,19.732 8.345,19.042 8.345,19.141 7.754,18.056 6.077,19.042 7.063,20.718 8.345,19.93 	"/>
	
		<rect x="5.425" y="15.531" transform="matrix(0.9878 -0.156 0.156 0.9878 -2.4921 1.1957)" fill="#FFFFFF" width="1.896" height="1.896"/>
	<rect x="2.923" y="14.113" fill="#FFFFFF" width="1.775" height="1.775"/>
	
		<rect x="5.326" y="12.573" transform="matrix(0.156 -0.9878 0.9878 0.156 -8.0596 17.6101)" fill="#FFFFFF" width="1.896" height="1.896"/>
	
		<rect x="12.129" y="25.093" transform="matrix(0.1644 -0.9864 0.9864 0.1644 -14.753 34.5705)" fill="#FFFFFF" width="1.799" height="1.799"/>
	<polygon fill="#FFFFFF" points="9.627,25.845 10.514,24.366 9.035,23.479 8.345,24.761 8.148,25.056 8.345,25.155 	"/>
	
		<rect x="10.896" y="5.72" transform="matrix(0.9383 -0.3457 0.3457 0.9383 -1.5892 4.5263)" fill="#FFFFFF" width="1.996" height="1.996"/>
	
		<rect x="12.129" y="3.009" transform="matrix(0.9864 -0.1644 0.1644 0.9864 -0.4653 2.195)" fill="#FFFFFF" width="1.799" height="1.799"/>
	
		<rect x="10.995" y="22.185" transform="matrix(0.3457 -0.9383 0.9383 0.3457 -13.9068 26.4215)" fill="#FFFFFF" width="1.996" height="1.996"/>
	<polygon fill="#FFFFFF" points="2.528,21.408 3.218,22.592 4.303,21.901 3.613,20.718 	"/>
	
		<rect x="9.729" y="26.834" transform="matrix(0.359 -0.9333 0.9333 0.359 -19.0102 27.3623)" fill="#FFFFFF" width="1.373" height="1.373"/>
	<rect x="14.261" y="27.62" fill="#FFFFFF" width="1.38" height="1.38"/>
	<polygon fill="#FFFFFF" points="8.345,8.69 8.345,8.592 9.232,9.676 10.711,8.394 9.43,6.915 8.345,7.901 7.951,8.197 	"/>
	<polygon fill="#FFFFFF" points="4.993,17.761 3.317,18.352 3.908,19.93 5.585,19.338 	"/>
	
		<rect x="16.91" y="5.819" transform="matrix(0.3457 -0.9383 0.9383 0.3457 5.3209 21.2646)" fill="#FFFFFF" width="1.996" height="1.996"/>
	
		<rect x="18.799" y="1.792" transform="matrix(0.3589 -0.9334 0.9334 0.3589 10.1779 19.7764)" fill="#FFFFFF" width="1.373" height="1.373"/>
	
		<rect x="5.545" y="21.369" transform="matrix(0.7863 -0.6178 0.6178 0.7863 -12.372 8.7217)" fill="#FFFFFF" width="1.755" height="1.755"/>
	<polygon fill="#FFFFFF" points="6.077,11.056 7.754,12.042 8.345,10.958 8.739,10.268 8.345,10.07 7.063,9.38 	"/>
	<polygon fill="#FFFFFF" points="15.937,4.746 17.613,5.042 17.908,3.268 16.232,2.972 	"/>
	
		<rect x="5.771" y="24.553" transform="matrix(0.6332 -0.774 0.774 0.6332 -17.1716 14.2712)" fill="#FFFFFF" width="1.401" height="1.401"/>
	<rect x="13.965" y="22.789" fill="#FFFFFF" width="1.972" height="1.972"/>
	<polygon fill="#FFFFFF" points="16.232,27.127 18.007,26.831 17.711,25.155 15.937,25.352 	"/>
	<polygon fill="#FFFFFF" points="8.148,4.944 8.345,5.239 9.035,6.521 10.613,5.634 9.725,4.155 8.345,4.845 	"/>
	<polygon fill="#FFFFFF" points="1.049,13.225 2.43,13.423 2.627,12.141 1.246,11.944 	"/>
	
		<rect x="1.141" y="16.669" transform="matrix(0.9899 -0.1414 0.1414 0.9899 -2.4377 0.4345)" fill="#FFFFFF" width="1.394" height="1.394"/>
</g>
</svg>
