<?xml version="1.0" encoding="utf-8"?>
<!-- Generator: Adobe Illustrator 19.2.1, SVG Export Plug-In . SVG Version: 6.00 Build 0)  -->
<svg version="1.0" id="art" xmlns="http://www.w3.org/2000/svg" xmlns:xlink="http://www.w3.org/1999/xlink" x="0px" y="0px"
	 width="18px" height="18px" viewBox="0 0 18 18" enable-background="new 0 0 18 18" xml:space="preserve">
<g id="check">
</g>
<g>
	<path fill="#296A51" d="M1.5,9c0-4.134,3.366-7.5,7.5-7.5v2.717C6.343,4.217,4.217,6.343,4.217,9S6.343,13.783,9,13.783
		c2.598,0,4.783-2.126,4.783-4.783H16.5c0,4.134-3.366,7.5-7.5,7.5S1.5,13.134,1.5,9"/>
	<path fill="#87B94B" d="M6.188,9c0-1.557,1.256-2.812,2.812-2.812S11.812,7.444,11.812,9S10.557,11.812,9,11.812
		C7.443,11.862,6.188,10.557,6.188,9"/>
	<path fill="#296A51" d="M11,5c0-1.125,0.875-2,2-2s2,0.875,2,2s-0.875,2-2,2S11,6.125,11,5"/>
</g>
</svg>
