<?xml version="1.0" encoding="utf-8"?>
<!-- Generator: Adobe Illustrator 19.2.1, SVG Export Plug-In . SVG Version: 6.00 Build 0)  -->
<svg version="1.0" id="Layer_2" xmlns="http://www.w3.org/2000/svg" xmlns:xlink="http://www.w3.org/1999/xlink" x="0px" y="0px"
	 width="24px" height="24px" viewBox="0 0 24 24" enable-background="new 0 0 24 24" xml:space="preserve">
<g id="check">
</g>
<g>
	<path fill="#FFFFFF" d="M8.333,15.887c0,0-1.98-0.293-4.253-1.98c0.147,0.953,0.513,1.76,1.027,2.567
		c1.247,0.587,3.153,1.247,5.867,1.1c0,0-1.467,0.807-4.473,0.587c0,0,0.513,0.66,1.907,1.32c1.247,0.587,2.933,0.22,3.447-0.147
		c0.66-0.44,1.393-1.54,1.027-2.86c0,0-0.293,0.513-0.953,0.733c0,0,0.513-0.44,0.513-1.173s-0.66-1.247-1.393-1.32
		c-0.587-0.073-1.613,0-1.907,0s-0.733,0-1.027-0.367l0.88-0.147c0.367-0.073,1.1-0.367,1.54-0.367c0,0-0.147-0.22-0.513-0.22
		c-0.22,0-0.293,0.073-0.44,0.147c-0.22,0-0.587,0.073-0.807-0.367c0,0,0.293,0.22,0.587,0.147c0.22-0.073,0.293-0.147,0.367-0.22
		c0.147-0.073,0.293-0.147,0.44-0.147s0.293,0,0.44,0.147c0.073,0.073,0.367,0.073,0.22-0.073s-0.367-0.293-0.733-0.293
		c-0.587,0-1.613,0.147-1.98,0.293c-0.22,0.073-0.44,0.22-0.513,0.367c0,0.073-0.073,0.073-0.293,0.293
		c0-0.367,0.147-1.32,0.587-1.687c0.44-0.44,1.687-0.733,2.127-0.807c0,0-0.147-0.293,0-0.44c0.22-0.22,0.88-0.733,4.84-0.733
		c0,0-0.22,0.147-0.293,0.293c0,0,1.54,0.073,2.42,0.513c0.147,0.073,0.44,0.073,0.513-0.513l-0.22-0.147c0,0,0-0.147,0.073-0.22
		c0.073-0.073,0-0.147-0.073-0.073c-0.147,0-0.147,0.073-0.147,0.073s-0.22,0.073-0.22-0.073c0-0.073-0.22-0.44-0.733-0.513
		c0,0,0.22-0.367,0.807-0.293c0,0,0,0.22,0.147,0.147c0.147,0,0.293-0.147,0.293,0c0,0.147,0.073,0.367,0.367,0
		c0,0,0.293,0.147,0.587,0.073c0.293-0.073,0.513-0.293,0.587-0.733c0-0.073,0-0.147,0.073-0.22c0.073-0.073,0.147-0.147,0-0.293
		s-0.733-0.44-0.953-0.587c-0.22-0.147-0.66-0.293-0.66-1.173s-0.293-1.393-1.393-2.347v0.293c0,0-0.293-0.367-1.1-0.587
		c0,0,0.147-0.367,0.147-0.587c0-0.22-0.073-0.367-0.367-0.293c-0.293,0.073-1.32,0.44-1.687,0.513
		c-0.293,0.073-2.713,0.88-4.107,2.273c0,0,0.367-0.88,1.027-1.76C9.433,4.153,8.993,4.373,8.48,4.593
		C7.747,5.62,6.793,7.673,6.793,9.36c0,0-0.44-1.467-0.073-3.593C6.207,6.207,5.767,6.72,5.4,7.233
		c-0.073,1.173-0.073,2.787,0.88,5.06c0,0-1.027-0.733-1.907-3.153c-0.293,0.733-0.44,1.54-0.513,2.42
		C4.667,13.1,5.913,14.567,8.333,15.887z M16.107,6.28c0.293,0,0.367,0.073,0.44,0.073c0.07,0,0.274,0.067,0.356-0.44h0.011v0.733
		c0,0.22-0.073,0.22-0.22,0.147c-0.073-0.073-0.147-0.147-0.22-0.147c-0.073,0-0.147,0.073-0.073,0.147
		c0.073,0.073,0.22,0.367,0.147,0.587c0,0-0.367-0.66-0.733-0.953C15.52,6.207,16.033,6.28,16.107,6.28z M13.32,4.447
		c0.367-0.587,0.88-0.88,1.027-0.953c0.147-0.073,0.22-0.073,0.147,0c-0.147,0.147-0.367,0.513-0.513,0.66
		c0,0.073,0,0.147,0.073,0.147c0.073,0.073,0.073,0.147,0,0.147c-0.147,0-0.367,0.073-0.587,0.147
		C13.32,4.667,13.247,4.52,13.32,4.447z M10.827,8.627c0.587-1.393,1.833-2.86,2.64-3.52c-0.953,1.173-1.613,2.787-1.54,2.86
		C12,7.893,12.22,7.893,12.367,7.82c0.147-0.073,0.147,0.073,0.147,0.147c-0.147,0.44-0.367,1.027-0.293,1.32
		c0.073,0.293,0.807,0.44,0.807,0.44c-0.147,0-0.953,0-1.1,0.073c-0.22,0-0.513,0.073-0.44-0.293C11.56,9.067,11.78,8.26,11.78,8.26
		c-0.22,0.073-0.66,0.293-0.807,0.367C10.827,8.773,10.753,8.7,10.827,8.627z"/>
	<path fill="#FFFFFF" d="M15.593,14.64c0.293,0.147,0.88,0.293,0.88,0.293c-0.147-0.147-0.513-0.587-0.66-0.733
		c-0.44-0.513-1.1-1.027-1.687-1.32C13.1,12.367,12,12.367,11.853,12.293c-0.147,0-0.44,0-0.293-0.293
		c0.22-0.293,1.32-1.173,1.32-1.173c-0.22,0-1.32,0.073-1.613,0.147C10.973,11.047,10.9,10.9,10.9,10.68c0,0-0.66,0.587-0.293,0.88
		c0.073,0.073,0.147,0.073,0.367,0c0.147-0.073,0.513-0.147,0.587-0.22c0,0-0.293,0.44-0.293,0.587
		c-0.073,0.147-0.073,0.293,0.22,0.367c0.293,0.073,1.687,0.513,2.567,1.173c0.88,0.587,1.76,1.393,2.493,2.787
		c0.66,1.393,0.293,2.493,0.22,2.64c0.367-0.293,0.807-0.66,1.173-1.027c-0.367-1.173-1.32-1.907-1.833-2.567
		C15.887,15.007,15.593,14.64,15.593,14.64z"/>
	<path fill="#FFFFFF" d="M19.26,16.18c0.293-0.367,0.513-0.807,0.66-1.32c-0.88-0.733-2.347-1.98-4.253-2.42
		C15.667,12.44,18.307,13.467,19.26,16.18z"/>
	<path fill="#FFFFFF" d="M13.1,20.213c0.587-0.073,1.1-0.22,1.613-0.367c0.293-0.66,0.587-2.2,0.293-3.447
		C15.007,16.4,15.08,19.26,13.1,20.213z"/>
	<path fill="#FFFFFF" d="M17.573,10.9c0,0,1.467,0.66,2.86,1.98c0.073-0.367,0.073-0.66,0.073-1.027V11.78
		c-0.22-0.073-1.833-0.513-1.833-0.513c0.513,0,0.733-0.44,0.733-0.44C18.893,10.973,18.16,11.047,17.573,10.9z"/>
	<path fill="#FFFFFF" d="M12,23c6.087,0,11-4.913,11-11S18.087,1,12,1S1,5.913,1,12S5.913,23,12,23z M12,1.733
		c5.647,0,10.267,4.62,10.267,10.267S17.647,22.267,12,22.267S1.733,17.647,1.733,12S6.353,1.733,12,1.733z"/>
</g>
</svg>
