<?xml version="1.0" encoding="utf-8"?>
<!-- Generator: Adobe Illustrator 19.2.1, SVG Export Plug-In . SVG Version: 6.00 Build 0)  -->
<svg version="1.0" id="art" xmlns="http://www.w3.org/2000/svg" xmlns:xlink="http://www.w3.org/1999/xlink" x="0px" y="0px"
	 width="18px" height="18px" viewBox="0 0 18 18" enable-background="new 0 0 18 18" xml:space="preserve">
<g id="check">
</g>
<g>
	<path fill="#266450" d="M7,6.081L11.162,11h5.514c-6.324-5.622,0-10,0-10h-5.459L7,6.081L7,6.081z M9.552,6
		c0-0.833,0.667-1.5,1.5-1.5s1.5,0.667,1.5,1.5s-0.667,1.5-1.5,1.5S9.552,6.833,9.552,6z"/>
</g>
<g>
	<path fill="#266450" d="M10.676,12.081L6.46,7H1c0,0,6.324,4.378,0,10h5.514L10.676,12.081L10.676,12.081z M6.624,13.5
		c-0.833,0-1.5-0.667-1.5-1.5s0.667-1.5,1.5-1.5s1.5,0.667,1.5,1.5S7.457,13.5,6.624,13.5z"/>
</g>
</svg>
