<?xml version="1.0" encoding="utf-8"?>
<!-- Generator: Adobe Illustrator 19.2.1, SVG Export Plug-In . SVG Version: 6.00 Build 0)  -->
<svg version="1.0" id="Layer_2" xmlns="http://www.w3.org/2000/svg" xmlns:xlink="http://www.w3.org/1999/xlink" x="0px" y="0px"
	 width="18px" height="18px" viewBox="0 0 18 18" enable-background="new 0 0 18 18" xml:space="preserve">
<g id="check">
</g>
<g>
	<path d="M13.652,12.207c-0.171-0.057-0.171,0.114-0.114,0.227c0.114,0.284,0.227,0.512,0.284,0.568
		c0.057,0.057,0.171-0.057,0.114-0.341C13.936,12.548,13.822,12.264,13.652,12.207z"/>
	<path d="M12.401,12.776c-0.114,0-0.171,0-0.284,0.057c-0.171,0.114-0.227,0.398-0.057,0.625c0.057,0.114,0.171,0.171,0.284,0.227
		c0.114,0,0.171,0,0.284-0.057c0.171-0.171,0.171-0.455,0-0.682C12.572,12.889,12.515,12.776,12.401,12.776z"/>
	<path d="M14.789,4.191c-2.16-3.354-6.708-4.207-10.233-1.876C1.031,4.589-0.049,9.137,2.112,12.378
		c1.762,2.786,5.912,3.581,8.3,2.842c0.91-0.284,3.979-0.568,6.14,1.99c0,0,0.171,0.227,0.284,0.455c0,0,0.057,0.114,0.114,0.057
		c0.057-0.057,0.114-0.114-0.114-0.512c-0.455-0.91-1.307-1.592-2.16-2.103c-0.341-0.171-0.682-0.284-0.966-0.398
		c-0.682-0.227-1.308-0.284-2.16-0.398c-0.625-0.114-1.137-0.398-1.649-0.739c-0.284-0.227-0.512-0.455-0.682-0.739
		c0-0.057-0.171-0.284-0.171-0.341c0,0-0.114,0.512,0.114,1.194c-2.217-0.057-4.207-1.307-5.116-2.842
		c-1.649-2.786-1.08-6.197,1.137-7.675s5.571-0.398,7.39,2.274c1.137,1.649,1.478,3.638,0.966,5.23c0,0.007-0.004,0.014-0.004,0.021
		c-0.943-0.625-1.815-0.305-1.815-0.305c0.966-0.114,1.706,0.682,1.706,0.682l0.019-0.038l0.322,0.322
		c0,0.057,0.057,0.057,0.057,0.114c0.227,0.341,0.398,0.739,0.455,1.137C16.153,10.161,16.494,6.807,14.789,4.191z"/>
</g>
</svg>
