<?xml version="1.0" encoding="utf-8"?>
<!-- Generator: Adobe Illustrator 19.2.1, SVG Export Plug-In . SVG Version: 6.00 Build 0)  -->
<svg version="1.0" id="Layer_2" xmlns="http://www.w3.org/2000/svg" xmlns:xlink="http://www.w3.org/1999/xlink" x="0px" y="0px"
	 width="36px" height="36px" viewBox="0 0 36 36" enable-background="new 0 0 36 36" xml:space="preserve">
<g id="check">
</g>
<g>
	<path fill="#FFFFFF" d="M17.893,25.573c0,0,0.747-0.64,0.747-1.707s-0.96-1.813-2.027-1.92c-0.853-0.107-2.347,0-2.773,0
		c-0.427,0-1.067,0-1.493-0.533l1.28-0.213c0.533-0.107,1.6-0.533,2.24-0.533c0,0-0.213-0.32-0.747-0.32
		c-0.32,0-0.427,0.107-0.64,0.213c-0.32,0-0.853,0.107-1.173-0.533c0,0,0.427,0.32,0.853,0.213c0.32-0.107,0.427-0.213,0.533-0.32
		c0.213-0.107,0.427-0.213,0.64-0.213c0.213,0,0.427,0,0.64,0.213c0.107,0.107,0.533,0.107,0.32-0.107
		c-0.213-0.213-0.533-0.427-1.067-0.427c-0.853,0-2.347,0.213-2.88,0.427c-0.32,0.107-0.64,0.32-0.747,0.533
		c0,0.107-0.107,0.107-0.427,0.427c0-0.533,0.213-1.92,0.853-2.453c0.64-0.64,2.453-1.067,3.093-1.173c0,0-0.213-0.427,0-0.64
		c0.32-0.32,1.28-1.067,7.04-1.067c0,0-0.32,0.213-0.427,0.427c0,0,2.24,0.107,3.52,0.747c0.213,0.107,0.64,0.107,0.747-0.747
		l-0.32-0.213c0,0,0-0.213,0.107-0.32c0.107-0.107,0-0.213-0.107-0.107c-0.213,0-0.213,0.107-0.213,0.107s-0.32,0.107-0.32-0.107
		c0-0.107-0.32-0.64-1.067-0.747c0,0,0.32-0.533,1.173-0.427c0,0,0,0.32,0.213,0.213c0.213,0,0.427-0.213,0.427,0
		s0.107,0.533,0.533,0c0,0,0.427,0.213,0.853,0.107c0.427-0.107,0.747-0.427,0.853-1.067c0-0.107,0-0.213,0.107-0.32
		c0.107-0.107,0.213-0.213,0-0.427s-1.067-0.64-1.387-0.853s-0.96-0.427-0.96-1.707c0-1.28-0.427-2.027-2.027-3.413v0.427
		c0,0-0.427-0.533-1.6-0.853c0,0,0.213-0.533,0.213-0.853s-0.107-0.533-0.533-0.427c-0.427,0.107-1.92,0.64-2.453,0.747
		c-0.427,0.107-3.947,1.28-5.973,3.307c0,0,0.533-1.28,1.493-2.56c-0.747,0.213-1.387,0.533-2.133,0.853
		c-1.067,1.493-2.453,4.48-2.453,6.933c0,0-0.64-2.133-0.107-5.227c-0.747,0.64-1.387,1.387-1.92,2.133
		c-0.107,1.707-0.107,4.053,1.28,7.36c0,0-1.493-1.067-2.773-4.587c-0.427,1.067-0.64,2.24-0.747,3.52
		c1.173,2.24,2.987,4.373,6.507,6.293c0,0-2.88-0.427-6.187-2.88c0.213,1.387,0.747,2.56,1.493,3.733
		c1.813,0.853,4.587,1.813,8.533,1.6c0,0-2.133,1.173-6.507,0.853c0,0,0.747,0.96,2.773,1.92c1.813,0.853,4.267,0.32,5.013-0.213
		c0.96-0.64,2.027-2.24,1.493-4.16C19.28,24.507,18.853,25.253,17.893,25.573z M23.973,9.68c0.427,0,0.533,0.107,0.64,0.107
		c0.102,0,0.399,0.097,0.518-0.64h0.015v1.067c0,0.32-0.107,0.32-0.32,0.213c-0.107-0.107-0.213-0.213-0.32-0.213
		c-0.107,0-0.213,0.107-0.107,0.213c0.107,0.107,0.32,0.533,0.213,0.853c0,0-0.533-0.96-1.067-1.387
		C23.12,9.573,23.867,9.68,23.973,9.68z M19.92,7.013c0.533-0.853,1.28-1.28,1.493-1.387s0.32-0.107,0.213,0
		c-0.213,0.213-0.533,0.747-0.747,0.96c0,0.107,0,0.213,0.107,0.213c0.107,0.107,0.107,0.213,0,0.213
		c-0.213,0-0.533,0.107-0.853,0.213C19.92,7.333,19.813,7.12,19.92,7.013z M16.293,13.093c0.853-2.027,2.667-4.16,3.84-5.12
		c-1.387,1.707-2.347,4.053-2.24,4.16c0.107-0.107,0.427-0.107,0.64-0.213s0.213,0.107,0.213,0.213
		c-0.213,0.64-0.533,1.493-0.427,1.92c0.107,0.427,1.173,0.64,1.173,0.64c-0.213,0-1.387,0-1.6,0.107
		c-0.32,0-0.747,0.107-0.64-0.427c0.107-0.64,0.427-1.813,0.427-1.813c-0.32,0.107-0.96,0.427-1.173,0.533
		C16.293,13.307,16.187,13.2,16.293,13.093z"/>
	<path fill="#FFFFFF" d="M23.227,21.84c0.427,0.213,1.28,0.427,1.28,0.427c-0.213-0.213-0.747-0.853-0.96-1.067
		c-0.64-0.747-1.6-1.493-2.453-1.92C19.6,18.533,18,18.533,17.787,18.427c-0.213,0-0.64,0-0.427-0.427
		c0.32-0.427,1.92-1.707,1.92-1.707c-0.32,0-1.92,0.107-2.347,0.213C16.507,16.613,16.4,16.4,16.4,16.08c0,0-0.96,0.853-0.427,1.28
		c0.107,0.107,0.213,0.107,0.533,0c0.213-0.107,0.747-0.213,0.853-0.32c0,0-0.427,0.64-0.427,0.853
		c-0.107,0.213-0.107,0.427,0.32,0.533c0.427,0.107,2.453,0.747,3.733,1.707c1.28,0.853,2.56,2.027,3.627,4.053
		c0.96,2.027,0.427,3.627,0.32,3.84c0.533-0.427,1.173-0.96,1.707-1.493c-0.533-1.707-1.92-2.773-2.667-3.733
		C23.653,22.373,23.227,21.84,23.227,21.84z"/>
	<path fill="#FFFFFF" d="M28.56,24.08c0.427-0.533,0.747-1.173,0.96-1.92c-1.28-1.067-3.413-2.88-6.187-3.52
		C23.333,18.64,27.173,20.133,28.56,24.08z"/>
	<path fill="#FFFFFF" d="M19.6,29.947c0.853-0.107,1.6-0.32,2.347-0.533c0.427-0.96,0.853-3.2,0.427-5.013
		C22.373,24.4,22.48,28.56,19.6,29.947z"/>
	<path fill="#FFFFFF" d="M27.707,16.933c0.747,0,1.067-0.64,1.067-0.64c-0.747,0.213-1.813,0.32-2.667,0.107
		c0,0,2.133,0.96,4.16,2.88c0.107-0.533,0.107-0.96,0.107-1.493V17.68C30.053,17.573,27.707,16.933,27.707,16.933z"/>
	<path fill="#FFFFFF" d="M18,2C9.147,2,2,9.147,2,18s7.147,16,16,16s16-7.147,16-16S26.853,2,18,2z M18,32.933
		c-8.213,0-14.933-6.72-14.933-14.933C3.067,9.787,9.787,3.067,18,3.067S32.933,9.787,32.933,18
		C32.933,26.213,26.213,32.933,18,32.933z"/>
</g>
</svg>
