<?xml version="1.0" encoding="utf-8"?>
<!-- Generator: Adobe Illustrator 19.2.1, SVG Export Plug-In . SVG Version: 6.00 Build 0)  -->
<svg version="1.0" id="art" xmlns="http://www.w3.org/2000/svg" xmlns:xlink="http://www.w3.org/1999/xlink" x="0px" y="0px"
	 width="30px" height="30px" viewBox="0 0 30 30" enable-background="new 0 0 30 30" xml:space="preserve">
<g id="check">
</g>
<path fill="#FDEB3F" d="M2,28h26V2H2V28z M9.7,4.426l4.269,4.061l-1.041,0.937l1.978,1.978l2.082-1.978l-0.833-0.937l4.061-3.957
	c3.436-3.436,7.601,2.603,6.872,5.31l-1.25-0.937l-3.853,3.853l-1.25-1.041V9.215L19.8,10.048v3.228l-1.562,1.562l8.226,8.226
	L23.028,26.5l-8.226-8.33l-8.018,8.122l-3.436-3.436l8.226-8.122l-1.562-1.562V9.944L9.179,9.32v2.395L7.826,12.86L4.077,8.903
	l-1.25,1.041C2.932,5.883,6.368,1.718,9.7,4.426z"/>
<path fill="#191919" d="M1,1v28h28V1H1z M28,28H2V2h26V28z"/>
<path fill="#191919" d="M7.826,12.86l1.354-1.145V9.32l0.833,0.625v3.228l1.562,1.562l-8.226,8.122l3.436,3.436l8.018-8.122
	l8.226,8.33l3.436-3.436l-8.226-8.226l1.562-1.562v-3.228l0.937-0.833v2.499l1.25,1.041l3.853-3.853l1.25,0.937
	c0.729-2.707-3.436-8.746-6.872-5.31l-4.061,3.957l0.833,0.937l-2.082,1.978l-1.978-1.978l1.041-0.937L9.7,4.426
	C6.368,1.718,2.932,5.883,2.828,9.944l1.25-1.041L7.826,12.86z"/>
</svg>
