<?xml version="1.0" encoding="utf-8"?>
<!-- Generator: Adobe Illustrator 19.2.1, SVG Export Plug-In . SVG Version: 6.00 Build 0)  -->
<svg version="1.0" id="Layer_2" xmlns="http://www.w3.org/2000/svg" xmlns:xlink="http://www.w3.org/1999/xlink" x="0px" y="0px"
	 width="30px" height="30px" viewBox="0 0 30 30" enable-background="new 0 0 30 30" xml:space="preserve">
<g id="check">
</g>
<g>
	<path opacity="0.3" d="M6.875,18.25V6.875h0C4.193,6.875,2,9.069,2,11.75v11.375C2,25.806,4.193,28,6.875,28h11.375
		c2.681,0,4.875-2.194,4.875-4.875v0H11.75C9.069,23.125,6.875,20.931,6.875,18.25z"/>
	<path d="M23.125,2H11.75C9.069,2,6.875,4.194,6.875,6.875v0h11.375c2.681,0,4.875,2.194,4.875,4.875v11.375h0
		c2.681,0,4.875-2.194,4.875-4.875V6.875C28,4.194,25.806,2,23.125,2z"/>
	<path d="M21.162,13.865c-0.162-0.73-0.73-1.378-1.622-1.541c0.487-0.162,1.054-0.568,1.054-1.622c0-1.135-0.892-1.703-2.27-1.703
		h-2.27v2.757h-1.378c-1.784,0-2.189,1.216-2.189,1.865c0,0.973,0.568,1.378,1.541,1.865c0.649,0.243,1.378,0.568,1.378,1.135
		c0,0.324-0.324,0.811-1.054,0.811h-1.135c0.162-0.324,0.243-0.73,0.243-1.054c0-0.486-0.162-2.189-2.595-2.189H9V21h1.378v-3
		l0.568,0.568h3.649c1.703,0,2.595-0.892,2.595-1.946c0-0.324-0.081-0.73-0.162-0.892h1.459
		C20.676,15.73,21.162,14.676,21.162,13.865z M10.946,17.757h-0.649v-2.27h0.649c0.811,0,1.135,0.486,1.135,1.054
		S11.757,17.757,10.946,17.757z M16.216,13.541v1.622c-0.324-0.162-0.73-0.324-1.054-0.568c-0.487-0.162-0.892-0.487-0.892-0.973
		c0-0.243,0.162-0.73,0.973-0.73h1.622L16.216,13.541z M17.595,10.216h0.649c1.054,0,1.054,0.649,1.054,0.811
		c0,0.243-0.162,0.811-1.054,0.811h-0.649V10.216z M17.513,14.838v-1.865h0.811c0.973,0,1.135,0.487,1.135,0.892
		c0.081,0.568-0.243,0.973-1.135,0.973H17.513z"/>
</g>
</svg>
