<?xml version="1.0" encoding="utf-8"?>
<!-- Generator: Adobe Illustrator 19.2.1, SVG Export Plug-In . SVG Version: 6.00 Build 0)  -->
<svg version="1.0" id="Layer_2" xmlns="http://www.w3.org/2000/svg" xmlns:xlink="http://www.w3.org/1999/xlink" x="0px" y="0px"
	 width="36px" height="36px" viewBox="0 0 36 36" enable-background="new 0 0 36 36" xml:space="preserve">
<g id="check">
</g>
<g>
	<path d="M26.404,23.846c-0.302-0.101-0.302,0.201-0.201,0.403c0.201,0.503,0.403,0.906,0.503,1.007
		c0.101,0.101,0.302-0.101,0.201-0.604C26.908,24.45,26.706,23.947,26.404,23.846z"/>
	<path d="M24.19,24.853c-0.201,0-0.302,0-0.503,0.101c-0.302,0.201-0.403,0.705-0.101,1.107c0.101,0.201,0.302,0.302,0.503,0.403
		c0.201,0,0.302,0,0.503-0.101c0.302-0.302,0.302-0.805,0-1.208C24.492,25.054,24.391,24.853,24.19,24.853z"/>
	<path d="M28.418,9.652c-3.825-5.94-11.879-7.45-18.12-3.322c-6.242,4.027-8.154,12.08-4.329,17.818
		c3.121,4.933,10.47,6.342,14.698,5.033c1.611-0.503,7.047-1.007,10.872,3.523c0,0,0.302,0.403,0.503,0.805
		c0,0,0.101,0.201,0.201,0.101s0.201-0.201-0.201-0.906c-0.805-1.611-2.315-2.819-3.825-3.725c-0.604-0.302-1.208-0.503-1.711-0.705
		c-1.208-0.403-2.315-0.503-3.825-0.705c-1.107-0.201-2.013-0.705-2.919-1.309c-0.503-0.403-0.906-0.805-1.208-1.309
		c0-0.101-0.302-0.503-0.302-0.604c0,0-0.201,0.906,0.201,2.114c-3.926-0.101-7.45-2.315-9.06-5.033
		c-2.919-4.933-1.913-10.973,2.013-13.59c3.926-2.617,9.866-0.705,13.087,4.027c2.013,2.919,2.617,6.443,1.711,9.262
		c0,0.012-0.007,0.025-0.008,0.037c-1.67-1.108-3.214-0.54-3.214-0.54c1.711-0.201,3.02,1.208,3.02,1.208l0.034-0.067l0.57,0.57
		c0,0.101,0.101,0.101,0.101,0.201c0.403,0.604,0.705,1.309,0.805,2.013C30.834,20.222,31.438,14.282,28.418,9.652z"/>
</g>
</svg>
