<?xml version="1.0" encoding="utf-8"?>
<!-- Generator: Adobe Illustrator 19.2.1, SVG Export Plug-In . SVG Version: 6.00 Build 0)  -->
<svg version="1.0" id="Layer_2" xmlns="http://www.w3.org/2000/svg" xmlns:xlink="http://www.w3.org/1999/xlink" x="0px" y="0px"
	 width="36px" height="36px" viewBox="0 0 36 36" enable-background="new 0 0 36 36" xml:space="preserve">
<g id="check">
</g>
<g>
	<path fill="#FFFFFF" d="M12.156,7h21.05l0.811-3H11.132C6.835,7.116,3.504,12.628,2,18c1.504,5.372,4.835,9.884,9.132,13h22.777
		c-0.509-3.199-2.45-6.365-4.648-8.999c-0.924-1.107-1.891-2.117-2.82-3H7.653C8.106,20.049,8.658,21.05,9.295,22h15.916
		c1.733,1.771,3.408,3.872,4.514,6H12.14c-2.11-1.675-3.87-3.721-5.2-5.999c-0.561-0.961-1.039-1.965-1.437-3
		c-0.129-0.334-0.26-0.666-0.371-1.006C5.238,17.659,5.364,17.331,5.483,17h21.055c0.92-0.845,1.844-1.866,2.719-3H6.783
		c0.35-0.688,0.721-1.359,1.121-2h22.768c0.623-0.967,1.195-1.976,1.687-3H10.122C10.772,8.26,11.451,7.583,12.156,7z"/>
</g>
</svg>
