<?xml version="1.0" encoding="utf-8"?>
<!-- Generator: Adobe Illustrator 19.2.1, SVG Export Plug-In . SVG Version: 6.00 Build 0)  -->
<svg version="1.0" id="art" xmlns="http://www.w3.org/2000/svg" xmlns:xlink="http://www.w3.org/1999/xlink" x="0px" y="0px"
	 width="30px" height="30px" viewBox="0 0 30 30" enable-background="new 0 0 30 30" xml:space="preserve">
<g id="check">
</g>
<g>
	<path fill="#EB923C" d="M22.868,20.813c0-0.183-0.183-0.642-0.459-0.734c-0.275-0.092-0.275,0.183-0.183,0.367
		c0.183,0.459,0.367,0.825,0.459,0.917C22.776,21.454,22.96,21.271,22.868,20.813z"/>
	<path fill="#EB923C" d="M20.759,21.271c-0.092-0.092-0.183-0.275-0.367-0.275s-0.275,0-0.459,0.092
		c-0.275,0.183-0.367,0.642-0.092,1.009c0.092,0.183,0.275,0.275,0.459,0.367c0.183,0,0.275,0,0.459-0.092
		C21.034,22.096,21.034,21.638,20.759,21.271z"/>
	<g>
		<path fill="#EB923C" d="M22.501,24.114c0.459,0.183,1.009,0.367,1.559,0.642c1.376,0.825,2.751,1.926,3.485,3.393
			c0.367,0.642,0.275,0.734,0.183,0.825c-0.092,0.092-0.183-0.092-0.183-0.092c-0.183-0.367-0.459-0.734-0.459-0.734
			c-3.485-4.127-8.437-3.668-9.904-3.21c-3.852,1.192-10.546-0.092-13.389-4.585C0.308,15.127,2.051,7.79,7.736,4.122
			c5.686-3.76,13.022-2.384,16.507,3.026c2.751,4.218,2.201,9.629-0.825,13.572c-0.092-0.642-0.367-1.284-0.734-1.834
			c0-0.092-0.092-0.092-0.092-0.183l-0.55-0.55c0.092-0.183,0.183-0.367,0.183-0.55c0.825-2.568,0.275-5.777-1.559-8.437
			c-2.935-4.31-8.345-6.053-11.922-3.668s-4.494,7.887-1.834,12.38c1.467,2.476,4.677,4.494,8.254,4.585
			c-0.367-1.1-0.183-1.926-0.183-1.926c0,0.092,0.275,0.459,0.275,0.55c0.275,0.459,0.642,0.825,1.1,1.192
			c0.825,0.55,1.651,1.009,2.659,1.192C20.392,23.655,21.401,23.747,22.501,24.114L22.501,24.114z"/>
		<path fill="#EB923C" d="M22.043,18.245c0,0-1.192-1.284-2.751-1.1c0,0,1.467-0.55,3.026,0.55"/>
	</g>
</g>
</svg>
