<?xml version="1.0" encoding="utf-8"?>
<!-- Generator: Adobe Illustrator 19.2.1, SVG Export Plug-In . SVG Version: 6.00 Build 0)  -->
<svg version="1.0" id="Layer_2" xmlns="http://www.w3.org/2000/svg" xmlns:xlink="http://www.w3.org/1999/xlink" x="0px" y="0px"
	 width="24px" height="24px" viewBox="0 0 24 24" enable-background="new 0 0 24 24" xml:space="preserve">
<g id="check">
</g>
<g>
	<path d="M7.218,10.573L8.12,9.81V8.213L8.675,8.63v2.152l1.041,1.041l-5.483,5.414l2.29,2.29l5.344-5.414l5.483,5.553l2.29-2.29
		l-5.483-5.483l1.041-1.041V8.699l0.625-0.555V9.81l0.833,0.694l2.568-2.568l0.833,0.625c0.486-1.805-2.29-5.83-4.581-3.54
		L12.77,7.658l0.555,0.625l-1.388,1.319l-1.319-1.319l0.694-0.625L8.467,4.951C6.246,3.147,3.955,5.923,3.886,8.63l0.833-0.694
		L7.218,10.573z"/>
	<path d="M23,1H1v22h22V1z M22,22H2V2h20V22z"/>
</g>
</svg>
