<?xml version="1.0" encoding="utf-8"?>
<!-- Generator: Adobe Illustrator 19.2.1, SVG Export Plug-In . SVG Version: 6.00 Build 0)  -->
<svg version="1.0" id="art" xmlns="http://www.w3.org/2000/svg" xmlns:xlink="http://www.w3.org/1999/xlink" x="0px" y="0px"
	 width="30px" height="30px" viewBox="0 0 30 30" enable-background="new 0 0 30 30" xml:space="preserve">
<g id="check">
</g>
<g>
	<linearGradient id="SVGID_1_" gradientUnits="userSpaceOnUse" x1="3.9897" y1="8.9067" x2="3.9897" y2="19.9198">
		<stop  offset="0" style="stop-color:#571356"/>
		<stop  offset="0.2515" style="stop-color:#A30046"/>
		<stop  offset="0.3339" style="stop-color:#B30A3B"/>
		<stop  offset="0.5092" style="stop-color:#D31E25"/>
		<stop  offset="0.7423" style="stop-color:#A30046"/>
		<stop  offset="0.762" style="stop-color:#9C0247"/>
		<stop  offset="0.9214" style="stop-color:#6A0E52"/>
		<stop  offset="1" style="stop-color:#571356"/>
	</linearGradient>
	<path fill="url(#SVGID_1_)" d="M5.615,19.92c-0.361-0.632-0.632-1.354-0.632-2.167V8.907C3.809,9.178,2.906,9.99,2.365,10.983
		v5.597C3.087,18.024,4.261,19.198,5.615,19.92"/>
	<linearGradient id="SVGID_2_" gradientUnits="userSpaceOnUse" x1="1.8088" y1="8.7767" x2="9.6925" y2="5.414">
		<stop  offset="0" style="stop-color:#EC1C24"/>
		<stop  offset="0.0992" style="stop-color:#D7142E"/>
		<stop  offset="0.2597" style="stop-color:#BA093B"/>
		<stop  offset="0.3998" style="stop-color:#A90243"/>
		<stop  offset="0.5031" style="stop-color:#A30046"/>
		<stop  offset="0.5675" style="stop-color:#950349"/>
		<stop  offset="0.7497" style="stop-color:#730C50"/>
		<stop  offset="0.9004" style="stop-color:#5F1154"/>
		<stop  offset="1" style="stop-color:#571356"/>
	</linearGradient>
	<path fill="url(#SVGID_2_)" d="M6.066,7.823h2.618c0.722,0,1.354-0.632,1.354-1.354S9.406,5.206,8.684,5.206H6.066
		c-2.076,0-3.701,1.625-3.701,3.701v1.174C2.997,8.726,4.441,7.823,6.066,7.823"/>
	<linearGradient id="SVGID_3_" gradientUnits="userSpaceOnUse" x1="2.3768" y1="19.0483" x2="26.3331" y2="9.5149">
		<stop  offset="0" style="stop-color:#00ADEE"/>
		<stop  offset="0.1427" style="stop-color:#02AAEB"/>
		<stop  offset="0.2473" style="stop-color:#07A1E2"/>
		<stop  offset="0.3397" style="stop-color:#1091D2"/>
		<stop  offset="0.4251" style="stop-color:#1D7ABC"/>
		<stop  offset="0.5056" style="stop-color:#2D5D9F"/>
		<stop  offset="0.5815" style="stop-color:#413A7C"/>
		<stop  offset="0.6503" style="stop-color:#571356"/>
		<stop  offset="0.691" style="stop-color:#641053"/>
		<stop  offset="0.7655" style="stop-color:#85074C"/>
		<stop  offset="0.8221" style="stop-color:#A30046"/>
		<stop  offset="0.8413" style="stop-color:#AC0342"/>
		<stop  offset="0.947" style="stop-color:#DA152C"/>
		<stop  offset="1" style="stop-color:#EC1C24"/>
	</linearGradient>
	<path fill="url(#SVGID_3_)" d="M26.377,9.9c-0.542-2.708-2.798-4.694-5.597-4.694H14.1v12.548c0,2.437-2.076,4.423-4.514,4.423
		c-2.889,0-5.777-1.625-7.222-4.333c0.09,3.791,3.25,6.951,7.222,6.951s7.222-3.159,7.222-7.041v-9.93h4.333
		C23.037,7.823,24.933,8.636,26.377,9.9"/>
	<linearGradient id="SVGID_4_" gradientUnits="userSpaceOnUse" x1="25.6682" y1="8.997" x2="25.6682" y2="20.1906">
		<stop  offset="0" style="stop-color:#571356"/>
		<stop  offset="0.2577" style="stop-color:#A30046"/>
		<stop  offset="0.413" style="stop-color:#C5152F"/>
		<stop  offset="0.5031" style="stop-color:#D31E25"/>
		<stop  offset="0.641" style="stop-color:#B50C39"/>
		<stop  offset="0.7485" style="stop-color:#A30046"/>
		<stop  offset="0.9061" style="stop-color:#700D51"/>
		<stop  offset="1" style="stop-color:#571356"/>
	</linearGradient>
	<path fill="url(#SVGID_4_)" d="M26.106,12.879c0.271-0.722,0.361-1.625,0.361-2.076c-0.812-0.722-1.986-1.444-3.25-1.805
		c0.361,0.451,0.632,1.264,0.632,1.896s-0.181,1.174-0.542,1.805c-0.361,0.542-0.361,1.264,0.271,1.625
		c1.174,0.632,1.986,1.805,2.076,3.069c0.09,0.903-0.09,1.896-0.632,2.798c1.444-0.722,2.618-1.896,3.25-3.25
		C28.092,15.496,27.46,14.142,26.106,12.879"/>
	<linearGradient id="SVGID_5_" gradientUnits="userSpaceOnUse" x1="16.1763" y1="21.3641" x2="28.3648" y2="21.3641">
		<stop  offset="0" style="stop-color:#571356"/>
		<stop  offset="0.0996" style="stop-color:#5F1154"/>
		<stop  offset="0.2503" style="stop-color:#730C50"/>
		<stop  offset="0.4325" style="stop-color:#950349"/>
		<stop  offset="0.4969" style="stop-color:#A30046"/>
		<stop  offset="0.577" style="stop-color:#B00540"/>
		<stop  offset="0.8571" style="stop-color:#DB162C"/>
		<stop  offset="1" style="stop-color:#EC1C24"/>
	</linearGradient>
	<path fill="url(#SVGID_5_)" d="M21.773,22.086H17.53c-0.722,0-1.354,0.632-1.354,1.354c0,0.722,0.632,1.354,1.354,1.354h4.243
		c3.611,0,6.68-3.069,6.59-6.861C27.46,20.281,25.023,22.086,21.773,22.086"/>
</g>
</svg>
