<?xml version="1.0" encoding="utf-8"?>
<!-- Generator: Adobe Illustrator 19.2.1, SVG Export Plug-In . SVG Version: 6.00 Build 0)  -->
<svg version="1.0" id="Layer_2" xmlns="http://www.w3.org/2000/svg" xmlns:xlink="http://www.w3.org/1999/xlink" x="0px" y="0px"
	 width="36px" height="36px" viewBox="0 0 36 36" enable-background="new 0 0 36 36" xml:space="preserve">
<g id="check">
</g>
<g>
	<path fill="#FFFFFF" d="M30.034,23.833c0-5.568-3.801-10.253-9.104-11.401c-0.265-3.801-0.265-5.303-0.265-7.159h-0.884
		c0,0,0.088,5.303,0.088,6.982c-0.354-0.088-0.619-0.088-0.972-0.088V0.5h-0.795v11.667c-0.354,0-0.619,0.088-0.972,0.088
		c0.088-1.679,0.088-6.982,0.088-6.982h-0.884c0,1.856,0,3.447-0.265,7.159c-5.215,1.149-9.104,5.745-9.104,11.401
		c0,4.066,2.21,7.689,5.303,9.811c4.154-4.331,4.861-16.263,4.861-17.058c-0.707,0-1.503,0.265-1.591,0.265
		c-0.884,5.48-3.359,10.253-6.098,12.816c-0.972-1.503-1.503-3.182-1.503-4.773c0-5.215,4.95-9.192,10.783-9.192
		c5.745,0,10.694,3.977,10.341,9.104c0,1.591-0.442,3.27-1.503,4.773c-2.828-2.563-5.215-7.159-6.098-12.816
		c-0.177,0-0.972-0.265-1.591-0.265c0,0.795,0.619,12.816,4.861,17.058C28.001,31.523,30.034,27.899,30.034,23.833z"/>
	<path fill="#FFFFFF" d="M18.014,16.497c-0.354,9.899-1.326,15.556-3.005,18.472c1.149,0.354,2.386,0.53,3.624,0.53
		s2.475-0.177,3.624-0.53c-1.679-2.917-2.651-8.573-3.005-18.472H18.014z"/>
</g>
</svg>
