<?xml version="1.0" encoding="utf-8"?>
<!-- Generator: Adobe Illustrator 19.2.1, SVG Export Plug-In . SVG Version: 6.00 Build 0)  -->
<svg version="1.0" id="Layer_2" xmlns="http://www.w3.org/2000/svg" xmlns:xlink="http://www.w3.org/1999/xlink" x="0px" y="0px"
	 width="36px" height="36px" viewBox="0 0 36 36" enable-background="new 0 0 36 36" xml:space="preserve">
<g id="check">
</g>
<g>
	<polygon fill="#FFFFFF" points="10.845,23.408 10.394,22.62 10.394,22.732 9.718,21.493 7.803,22.62 8.93,24.535 10.394,23.634 	
		"/>
	
		<rect x="7.057" y="18.606" transform="matrix(0.9878 -0.156 0.156 0.9878 -2.9711 1.5105)" fill="#FFFFFF" width="2.167" height="2.167"/>
	<polygon fill="#FFFFFF" points="24.366,8.761 22.901,10.451 24.592,11.915 25.606,10.789 25.606,10.676 26.056,10.225 
		25.606,9.887 	"/>
	<polygon fill="#FFFFFF" points="11.859,30.394 12.873,28.704 11.183,27.69 10.394,29.155 10.169,29.493 10.394,29.606 	"/>
	<polygon fill="#FFFFFF" points="11.634,27.239 13.099,25.549 11.408,24.084 10.394,25.324 9.944,25.775 10.394,26.225 	"/>
	<polygon fill="#FFFFFF" points="7.803,13.493 9.718,14.62 10.394,13.38 10.845,12.592 10.394,12.366 10.394,12.366 8.93,11.577 	
		"/>
	<polygon fill="#FFFFFF" points="3.746,10.676 5.099,11.465 5.775,10.113 4.535,9.324 	"/>
	
		<rect x="22.342" y="2.905" transform="matrix(0.359 -0.9333 0.9333 0.359 11.3801 23.9504)" fill="#FFFFFF" width="1.569" height="1.569"/>
	
		<rect x="4.928" y="12.646" transform="matrix(0.3328 -0.943 0.943 0.3328 -8.9176 14.7199)" fill="#FFFFFF" width="2.031" height="2.031"/>
	<polygon fill="#FFFFFF" points="25.831,29.493 25.606,29.155 24.704,27.803 23.014,28.817 24.028,30.507 25.606,29.606 	"/>
	
		<rect x="11.976" y="31.525" transform="matrix(0.359 -0.9334 0.9334 0.359 -21.9765 32.6218)" fill="#FFFFFF" width="1.569" height="1.569"/>
	
		<rect x="2.161" y="19.907" transform="matrix(0.99 -0.1414 0.1414 0.99 -2.8982 0.6263)" fill="#FFFFFF" width="1.593" height="1.593"/>
	
		<rect x="20.183" y="7.507" transform="matrix(0.3457 -0.9383 0.9383 0.3457 5.8374 25.6673)" fill="#FFFFFF" width="2.282" height="2.282"/>
	<polygon fill="#FFFFFF" points="2.056,15.972 3.634,16.197 3.859,14.732 2.282,14.507 	"/>
	<polygon fill="#FFFFFF" points="19.07,6.282 20.986,6.62 21.324,4.592 19.408,4.253 	"/>
	
		<rect x="14.718" y="4.296" transform="matrix(0.9864 -0.1644 0.1644 0.9864 -0.6611 2.6615)" fill="#FFFFFF" width="2.056" height="2.056"/>
	<polygon fill="#FFFFFF" points="10.169,6.507 10.394,6.845 11.183,8.31 12.986,7.296 11.972,5.606 10.394,6.394 	"/>
	
		<rect x="13.31" y="7.394" transform="matrix(0.9383 -0.3457 0.3457 0.9383 -2.0597 5.5222)" fill="#FFFFFF" width="2.282" height="2.282"/>
	
		<rect x="13.423" y="26.211" transform="matrix(0.3457 -0.9383 0.9383 0.3457 -16.1369 31.5621)" fill="#FFFFFF" width="2.282" height="2.282"/>
	
		<rect x="14.718" y="29.535" transform="matrix(0.1644 -0.9864 0.9864 0.1644 -16.99 41.0702)" fill="#FFFFFF" width="2.056" height="2.056"/>
	<polygon fill="#FFFFFF" points="24.028,5.606 23.127,7.296 24.817,8.31 25.606,6.845 25.718,6.507 25.606,6.394 	"/>
	
		<rect x="11.976" y="2.905" transform="matrix(0.9333 -0.359 0.359 0.9333 -0.4741 4.827)" fill="#FFFFFF" width="1.569" height="1.569"/>
	<polygon fill="#FFFFFF" points="10.394,10.789 10.394,10.676 11.408,11.915 13.099,10.451 11.634,8.761 10.394,9.887 9.944,10.225 
			"/>
	<rect x="16.817" y="26.901" fill="#FFFFFF" width="2.254" height="2.254"/>
	
		<rect x="26.946" y="5.594" transform="matrix(0.6332 -0.774 0.774 0.6332 5.2273 23.8197)" fill="#FFFFFF" width="1.601" height="1.601"/>
	
		<rect x="26.8" y="25.166" transform="matrix(0.6178 -0.7863 0.7863 0.6178 -9.9516 31.8629)" fill="#FFFFFF" width="2.006" height="2.006"/>
	<rect x="17.155" y="2" fill="#FFFFFF" width="1.578" height="1.577"/>
	
		<rect x="28.928" y="21.435" transform="matrix(0.3328 -0.943 0.943 0.3328 -1.1932 43.215)" fill="#FFFFFF" width="2.031" height="2.031"/>
	<polygon fill="#FFFFFF" points="27.634,11.239 29.211,9.887 27.972,8.31 26.394,9.549 	"/>
	
		<rect x="32.246" y="19.907" transform="matrix(0.1414 -0.99 0.99 0.1414 7.8734 50.4865)" fill="#FFFFFF" width="1.593" height="1.593"/>
	
		<rect x="30.4" y="24.823" transform="matrix(0.5039 -0.8638 0.8638 0.5039 -6.6465 39.6397)" fill="#FFFFFF" width="1.565" height="1.565"/>
	<rect x="29.775" y="16.986" fill="#FFFFFF" width="2.028" height="2.028"/>
	<polygon fill="#FFFFFF" points="9.268,6.394 8.254,5.268 7.127,6.282 8.141,7.521 	"/>
	<polygon fill="#FFFFFF" points="19.408,31.859 21.437,31.521 21.099,29.606 19.07,29.831 	"/>
	<rect x="17.155" y="32.423" fill="#FFFFFF" width="1.578" height="1.577"/>
	<polygon fill="#FFFFFF" points="8.254,11.239 9.606,9.662 8.028,8.423 6.789,9.887 	"/>
	<polygon fill="#FFFFFF" points="33.606,14.507 32.028,14.732 32.366,16.31 33.944,16.084 	"/>
	
		<rect x="26.775" y="15.226" transform="matrix(0.9878 -0.156 0.156 0.9878 -2.2028 4.5444)" fill="#FFFFFF" width="2.167" height="2.167"/>
	
		<rect x="26.775" y="18.606" transform="matrix(0.156 -0.9878 0.9878 0.156 4.0652 44.1376)" fill="#FFFFFF" width="2.167" height="2.167"/>
	<rect x="16.817" y="6.845" fill="#FFFFFF" width="2.254" height="2.254"/>
	<rect x="4.197" y="16.986" fill="#FFFFFF" width="2.028" height="2.028"/>
	
		<rect x="7.453" y="28.918" transform="matrix(0.6332 -0.774 0.774 0.6332 -19.9735 17.2873)" fill="#FFFFFF" width="1.601" height="1.601"/>
	<polygon fill="#FFFFFF" points="6.563,21.155 4.648,21.831 5.324,23.634 7.239,22.958 	"/>
	
		<rect x="7.194" y="25.279" transform="matrix(0.7863 -0.6178 0.6178 0.7863 -14.4859 10.6804)" fill="#FFFFFF" width="2.006" height="2.006"/>
	
		<rect x="6.945" y="15.226" transform="matrix(0.156 -0.9878 0.9878 0.156 -9.3342 21.6961)" fill="#FFFFFF" width="2.167" height="2.167"/>
	<polygon fill="#FFFFFF" points="3.746,25.324 4.535,26.676 5.775,25.887 4.986,24.535 	"/>
	<polygon fill="#FFFFFF" points="28.197,22.507 26.282,21.38 25.606,22.62 25.606,22.732 25.155,23.408 25.606,23.634 27.07,24.423 
			"/>
	
		<rect x="20.296" y="26.211" transform="matrix(0.9383 -0.3457 0.3457 0.9383 -8.1342 9.0974)" fill="#FFFFFF" width="2.282" height="2.282"/>
	
		<rect x="28.928" y="12.646" transform="matrix(0.943 -0.3328 0.3328 0.943 -2.8398 10.7441)" fill="#FFFFFF" width="2.031" height="2.031"/>
	
		<rect x="30.4" y="9.612" transform="matrix(0.8638 -0.5039 0.5039 0.8638 -0.9895 17.1286)" fill="#FFFFFF" width="1.565" height="1.565"/>
	<polygon fill="#FFFFFF" points="25.155,12.592 25.606,13.38 26.282,14.507 28.197,13.38 27.07,11.465 25.606,12.366 	"/>
	
		<rect x="22.455" y="31.525" transform="matrix(0.9333 -0.359 0.359 0.9333 -10.05 10.4968)" fill="#FFFFFF" width="1.569" height="1.569"/>
	
		<rect x="26.946" y="28.918" transform="matrix(0.774 -0.6332 0.6332 0.774 -12.5469 24.2879)" fill="#FFFFFF" width="1.601" height="1.601"/>
	<polygon fill="#FFFFFF" points="25.606,25.324 24.592,24.197 22.901,25.662 24.366,27.352 25.606,26.225 26.056,25.775 	"/>
</g>
</svg>
