<?xml version="1.0" encoding="utf-8"?>
<!-- Generator: Adobe Illustrator 19.2.1, SVG Export Plug-In . SVG Version: 6.00 Build 0)  -->
<svg version="1.0" id="art" xmlns="http://www.w3.org/2000/svg" xmlns:xlink="http://www.w3.org/1999/xlink" x="0px" y="0px"
	 width="18px" height="18px" viewBox="0 0 18 18" enable-background="new 0 0 18 18" xml:space="preserve">
<g id="check">
</g>
<path fill="#FDEB3F" d="M2,16h14V2H2V16z M6.696,4.402l1.856,1.766L8.099,6.576l0.86,0.86l0.905-0.86L9.502,6.168l1.766-1.72
	c1.494-1.494,3.305,1.132,2.988,2.309l-0.543-0.407l-1.675,1.675l-0.543-0.453V6.485l-0.407,0.362v1.403L10.408,8.93l3.576,3.576
	L12.49,14l-3.576-3.622l-3.486,3.531l-1.494-1.494L7.51,8.884L6.831,8.205V6.802L6.469,6.53v1.041L5.881,8.069l-1.63-1.72
	L3.708,6.802C3.753,5.036,5.247,3.225,6.696,4.402z"/>
<path fill="#191919" d="M1,1v16h16V1H1z M16,16H2V2h14V16z"/>
<path fill="#191919" d="M5.881,8.069l0.589-0.498V6.53l0.362,0.272v1.403L7.51,8.884l-3.576,3.531l1.494,1.494l3.486-3.531L12.49,14
	l1.494-1.494L10.408,8.93l0.679-0.679V6.847l0.407-0.362v1.087l0.543,0.453l1.675-1.675l0.543,0.407
	c0.317-1.177-1.494-3.803-2.988-2.309l-1.766,1.72l0.362,0.407l-0.905,0.86l-0.86-0.86l0.453-0.407L6.696,4.402
	C5.247,3.225,3.753,5.036,3.708,6.802l0.543-0.453L5.881,8.069z"/>
</svg>
