<?xml version="1.0" encoding="utf-8"?>
<!-- Generator: Adobe Illustrator 19.2.1, SVG Export Plug-In . SVG Version: 6.00 Build 0)  -->
<svg version="1.0" id="art" xmlns="http://www.w3.org/2000/svg" xmlns:xlink="http://www.w3.org/1999/xlink" x="0px" y="0px"
	 width="36px" height="36px" viewBox="0 0 36 36" enable-background="new 0 0 36 36" xml:space="preserve">
<g id="check">
</g>
<linearGradient id="SVGID_1_" gradientUnits="userSpaceOnUse" x1="9" y1="11" x2="27" y2="11">
	<stop  offset="0" style="stop-color:#DE3934"/>
	<stop  offset="1" style="stop-color:#E6552F"/>
</linearGradient>
<circle fill="url(#SVGID_1_)" cx="18" cy="11" r="9"/>
<linearGradient id="SVGID_2_" gradientUnits="userSpaceOnUse" x1="9" y1="25.5" x2="27" y2="25.5">
	<stop  offset="0" style="stop-color:#DE3934"/>
	<stop  offset="1" style="stop-color:#E6552F"/>
</linearGradient>
<path fill="url(#SVGID_2_)" d="M27,25.464c-0.007-1.932-4.04-3.482-9.009-3.464C13.019,22.02,8.995,23.604,9,25.54h0
	c0.004,1.93,4.04,3.48,9.011,3.46C22.981,28.981,27.005,27.398,27,25.464L27,25.464z"/>
<linearGradient id="SVGID_3_" gradientUnits="userSpaceOnUse" x1="9" y1="32.5" x2="27" y2="32.5">
	<stop  offset="0" style="stop-color:#DE3934"/>
	<stop  offset="1" style="stop-color:#E6552F"/>
</linearGradient>
<path fill="url(#SVGID_3_)" d="M27,32.485c0.005,0.829-4.019,1.508-8.989,1.515C13.04,34.008,9.004,33.344,9,32.517
	c-0.005-0.83,4.019-1.509,8.991-1.517C22.96,30.992,26.993,31.656,27,32.485L27,32.485z"/>
</svg>
