<?xml version="1.0" encoding="utf-8"?>
<!-- Generator: Adobe Illustrator 19.2.1, SVG Export Plug-In . SVG Version: 6.00 Build 0)  -->
<svg version="1.0" id="art" xmlns="http://www.w3.org/2000/svg" xmlns:xlink="http://www.w3.org/1999/xlink" x="0px" y="0px"
	 width="30px" height="30px" viewBox="0 0 30 30" enable-background="new 0 0 30 30" xml:space="preserve">
<g id="check">
</g>
<g>
	<path fill="#296A51" d="M2,15C2,7.835,7.835,2,15,2v4.709c-4.606,0-8.291,3.685-8.291,8.291s3.685,8.291,8.291,8.291
		c4.504,0,8.291-3.685,8.291-8.291H28c0,7.165-5.835,13-13,13S2,22.165,2,15"/>
	<path fill="#87B94B" d="M9.5,15c0-3.044,2.455-5.499,5.5-5.499s5.5,2.455,5.5,5.499s-2.455,5.499-5.5,5.499
		C11.955,20.597,9.5,18.044,9.5,15"/>
	<path fill="#296A51" d="M19.179,7.571c0-1.828,1.422-3.25,3.25-3.25c1.828,0,3.25,1.422,3.25,3.25s-1.422,3.25-3.25,3.25
		S19.179,9.4,19.179,7.571"/>
</g>
</svg>
