<?xml version="1.0" encoding="utf-8"?>
<!-- Generator: Adobe Illustrator 19.2.1, SVG Export Plug-In . SVG Version: 6.00 Build 0)  -->
<svg version="1.0" id="art" xmlns="http://www.w3.org/2000/svg" xmlns:xlink="http://www.w3.org/1999/xlink" x="0px" y="0px"
	 width="30px" height="30px" viewBox="0 0 30 30" enable-background="new 0 0 30 30" xml:space="preserve">
<g id="check">
</g>
<path fill="#193163" d="M21.68,16.001H6.438C6.722,16.689,7.053,17.358,7.436,18h13.439c1.38,1.36,3.346,3.565,4.435,6H10.109
	c-2.09-1.629-3.779-3.69-4.953-5.999c-0.329-0.648-0.611-1.317-0.855-2c-0.071-0.199-0.151-0.395-0.215-0.596
	c0.146-0.473,0.31-0.942,0.488-1.404h18.033c0.585-0.597,1.165-1.27,1.719-2H5.476c0.35-0.693,0.725-1.366,1.135-2h16.69h2.383
	c0.397-0.652,0.766-1.322,1.089-2H24.53H8.098c0.639-0.753,1.315-1.432,2.02-2h15.349h2.113c0.227-0.679,0.404-1.351,0.508-2H9.441
	C8.653,4.572,7.911,5.254,7.21,6C6.628,6.62,6.083,7.29,5.572,8c-0.46,0.639-0.888,1.308-1.284,2c-0.373,0.653-0.725,1.318-1.035,2
	c-0.3,0.66-0.565,1.328-0.801,2C2.288,14.469,2.131,14.939,2,15.407c0.057,0.202,0.132,0.394,0.195,0.593
	c0.216,0.686,0.469,1.353,0.756,2c1.436,3.236,3.707,5.981,6.49,7.999H28c-0.459-2.883-2.344-5.732-4.362-7.999
	C22.984,17.266,22.318,16.594,21.68,16.001z"/>
</svg>
