<?xml version="1.0" encoding="utf-8"?>
<!-- Generator: Adobe Illustrator 19.2.1, SVG Export Plug-In . SVG Version: 6.00 Build 0)  -->
<svg version="1.0" id="Layer_2" xmlns="http://www.w3.org/2000/svg" xmlns:xlink="http://www.w3.org/1999/xlink" x="0px" y="0px"
	 width="24px" height="24px" viewBox="0 0 24 24" enable-background="new 0 0 24 24" xml:space="preserve">
<g id="check">
</g>
<g>
	<path d="M1.415,13.29c0.59,1.18,1.548,2.138,2.654,2.728c-0.295-0.516-0.516-1.106-0.516-1.77V7.023
		C2.594,7.244,1.857,7.908,1.415,8.719V13.29z"/>
	<path d="M1.415,7.982c0.516-1.106,1.696-1.843,3.023-1.843h2.138c0.59,0,1.106-0.516,1.106-1.106C7.682,4.442,7.166,4,6.576,4
		H4.438C2.742,4,1.415,5.327,1.415,7.023V7.982z"/>
	<path d="M7.313,20c3.244,0,5.899-2.581,5.899-5.751V6.138h3.539c1.548,0,3.097,0.664,4.276,1.696C20.585,5.622,18.742,4,16.456,4
		H11v10.249c0,1.991-1.696,3.613-3.687,3.613c-2.359,0-4.719-1.327-5.899-3.539C1.488,17.419,4.069,20,7.313,20z"/>
	<path d="M18.742,11.447c0.958,0.516,1.622,1.475,1.696,2.507c0.074,0.737-0.074,1.548-0.516,2.286
		c1.18-0.59,2.138-1.548,2.654-2.654c-0.147-1.18-0.664-2.286-1.77-3.318c0.221-0.59,0.295-1.327,0.295-1.696
		c-0.664-0.59-1.622-1.18-2.654-1.475c0.295,0.369,0.516,1.032,0.516,1.548s-0.147,0.959-0.442,1.475
		C18.226,10.562,18.226,11.152,18.742,11.447z"/>
	<path d="M22.65,14.396c-0.737,1.917-2.728,3.392-5.383,3.392h-3.465c-0.59,0-1.106,0.516-1.106,1.106S13.212,20,13.802,20h3.465
		C20.217,20,22.723,17.493,22.65,14.396z"/>
</g>
</svg>
