<?xml version="1.0" encoding="UTF-8" standalone="no"?>
<!-- Generator: Adobe Illustrator 18.1.0, SVG Export Plug-In . SVG Version: 6.00 Build 0)  -->
<svg id="Layer_1" xmlns="http://www.w3.org/2000/svg" xml:space="preserve" viewBox="-197 389.8 38 61.1" version="1.1" y="0px" x="0px" xmlns:xlink="http://www.w3.org/1999/xlink" enable-background="new -197 389.8 38 61.1">
	<path d="m-178 390.5c4 0 5.3 2.9 6.4 5.9 0.4 1.2 10.9 30.3 11.2 31.2 0.1 0.2 0 0.6-0.3 0.8-0.4 0.1-5.8 2.3-6.1 2.4s-0.6-0.1-0.8-0.4c-0.1-0.3-2.4-6.6-2.6-7.3h-15.5c-0.3 0.7-2.5 7.1-2.6 7.3-0.1 0.3-0.4 0.5-0.7 0.4s-5.8-2.3-6.1-2.4-0.5-0.5-0.3-0.8c0.4-1.1 10.7-29.7 11.2-31.2 0.9-3 2.2-5.9 6.2-5.9zm-18.4 52c-0.3 0-0.6 0.3-0.6 0.6v6.8c0 0.3 0.3 0.6 0.6 0.6h36.8c0.3 0 0.6-0.3 0.6-0.6v-6.8c0-0.3-0.3-0.6-0.6-0.6h-36.8zm18.4-42.5l-5.2 16h10.6l-5.4-16z" fill="#ef3124"/>
</svg>
