<?xml version="1.0" encoding="utf-8"?>
<!-- Generator: Adobe Illustrator 16.0.4, SVG Export Plug-In . SVG Version: 6.00 Build 0)  -->
<!DOCTYPE svg PUBLIC "-//W3C//DTD SVG 1.1//EN" "http://www.w3.org/Graphics/SVG/1.1/DTD/svg11.dtd">
<svg version="1.1" id="Layer_1" xmlns="http://www.w3.org/2000/svg" xmlns:xlink="http://www.w3.org/1999/xlink" x="0px" y="0px"
	 width="24px" height="24px" viewBox="0 0 24 24" enable-background="new 0 0 24 24" xml:space="preserve">
<path d="M21.8,0H2.2C1,0,0,1,0,2.2v19.6C0,23,1,24,2.2,24h19.6c1.2,0,2.2-1,2.2-2.2V2.2C24,1,23,0,21.8,0z M20.2,17.3h-2.4
	c0,0-0.5,0.101-1.2-0.399C15.7,16.3,14.9,14.7,14.2,14.9C13.5,15.1,13.6,16.6,13.6,16.6s0,0.301-0.1,0.4c-0.2,0.2-0.5,0.2-0.5,0.2
	h-1.1c0,0-2.4,0.2-4.5-2C5.1,12.8,3,8.1,3,8.1S2.9,7.8,3,7.7c0.1-0.2,0.5-0.2,0.5-0.2h2.6c0,0,0.2,0,0.4,0.2C6.6,7.8,6.7,8,6.7,8
	s0.4,1.1,1,2c1.1,1.9,1.6,2.3,1.9,2.1c0.5-0.3,0.4-2.6,0.4-2.6s0-0.8-0.3-1.2C9.6,7.8,9.2,7.8,9,7.7c-0.1,0,0.1-0.4,0.4-0.5
	C9.9,7,10.7,7,11.7,7c0.8,0,1,0.1,1.3,0.1c0.9,0.2,0.6,1,0.6,3c0,0.6-0.1,1.5,0.301,1.8c0.199,0.1,0.699,0,1.899-2
	c0.601-1,1-2.1,1-2.1S16.9,7.6,17,7.5s0.3-0.1,0.3-0.1H20c0,0,0.8-0.1,0.9,0.3C21,8.1,20.6,9,19.5,10.5c-1.8,2.4-2,2.2-0.4,3.6
	c1.4,1.301,1.7,2,1.801,2.102C21.5,17.2,20.2,17.3,20.2,17.3z"/>
</svg>
