<?xml version="1.0" encoding="utf-8"?>
<!-- Generator: Adobe Illustrator 19.2.1, SVG Export Plug-In . SVG Version: 6.00 Build 0)  -->
<svg version="1.0" id="art" xmlns="http://www.w3.org/2000/svg" xmlns:xlink="http://www.w3.org/1999/xlink" x="0px" y="0px"
	 width="36px" height="36px" viewBox="0 0 36 36" enable-background="new 0 0 36 36" xml:space="preserve">
<g id="check">
</g>
<g>
	<g>
		<polygon fill="#1A1F71" points="15.95,22.834 13.435,22.834 15.007,13.173 17.523,13.173 		"/>
		<path fill="#1A1F71" d="M11.319,13.173l-2.398,6.645l-0.284-1.431l0,0.001l-0.846-4.344c0,0-0.102-0.87-1.193-0.87H2.635
			l-0.046,0.164c0,0,1.213,0.252,2.631,1.105l2.185,8.393h2.62l4.002-9.661H11.319z"/>
		<path fill="#1A1F71" d="M31.102,22.834h2.309l-2.014-9.661h-2.022c-0.934,0-1.161,0.72-1.161,0.72l-3.751,8.941h2.621l0.524-1.435
			h3.197L31.102,22.834z M28.335,19.416l1.322-3.615l0.743,3.615H28.335z"/>
		<path fill="#1A1F71" d="M24.661,15.496l0.359-2.075c0,0-1.108-0.421-2.262-0.421c-1.248,0-4.212,0.546-4.212,3.198
			c0,2.496,3.479,2.527,3.479,3.838s-3.12,1.076-4.15,0.25L17.5,22.454c0,0,1.123,0.546,2.839,0.546
			c1.716,0,4.306-0.889,4.306-3.307c0-2.512-3.51-2.746-3.51-3.838C21.135,14.763,23.584,14.903,24.661,15.496z"/>
	</g>
	<path fill="#FDBB0A" d="M8.638,18.387l-0.846-4.344c0,0-0.102-0.87-1.193-0.87H2.635l-0.046,0.164c0,0,1.905,0.395,3.733,1.874
		C8.068,16.625,8.638,18.387,8.638,18.387z"/>
</g>
</svg>
