<?xml version="1.0" encoding="utf-8"?>
<!-- Generator: Adobe Illustrator 19.2.1, SVG Export Plug-In . SVG Version: 6.00 Build 0)  -->
<svg version="1.0" id="art" xmlns="http://www.w3.org/2000/svg" xmlns:xlink="http://www.w3.org/1999/xlink" x="0px" y="0px"
	 width="36px" height="36px" viewBox="0 0 36 36" enable-background="new 0 0 36 36" xml:space="preserve">
<g>
	<path fill="#0086C7" d="M12,18h12c0-0.338-0.023-0.669-0.05-1H12.05c0.028-0.338,0.074-0.67,0.129-1h11.64
		c-0.057-0.339-0.129-0.672-0.213-1H12.393c0.088-0.34,0.188-0.673,0.304-1h10.605c-0.121-0.341-0.254-0.674-0.404-1h-9.797
		c0.157-0.342,0.329-0.676,0.517-1h8.763c-0.2-0.345-0.416-0.678-0.648-1h-7.466c0.251-0.348,0.521-0.681,0.807-1h5.853
		c-0.316-0.353-0.652-0.687-1.007-1h-3.838C16.673,8.479,17.314,8.016,18,7.619C16.233,6.595,14.188,6,12,6C5.373,6,0,11.373,0,18
		s5.373,12,12,12c2.188,0,4.233-0.595,6-1.618c-0.212-0.123-0.424-0.246-0.628-0.381h1.256c0.455-0.302,0.882-0.64,1.291-1h-3.838
		c-0.356-0.313-0.691-0.647-1.007-1h5.853c0.286-0.319,0.556-0.652,0.807-1h-7.466c-0.232-0.322-0.449-0.655-0.648-1h8.763
		c0.188-0.324,0.36-0.658,0.517-1h-9.797c-0.15-0.326-0.283-0.659-0.404-1h10.605c0.116-0.327,0.217-0.66,0.304-1H12.393
		c-0.085-0.328-0.156-0.661-0.213-1h11.64c0.055-0.33,0.102-0.662,0.129-1H12.05C12.023,18.669,12,18.338,12,18z"/>
</g>
<g>
	<g>
		<path fill-rule="evenodd" clip-rule="evenodd" fill="#EC1C2E" d="M24,6c-2.188,0-4.234,0.595-6,1.619
			C17.314,8.016,16.673,8.479,16.081,9h3.838c0.356,0.313,0.691,0.647,1.007,1h-5.853c-0.286,0.319-0.556,0.652-0.807,1h7.466
			c0.232,0.322,0.448,0.655,0.648,1h-8.763c-0.188,0.324-0.36,0.658-0.517,1h9.797c0.15,0.326,0.283,0.659,0.404,1H12.697
			c-0.116,0.327-0.217,0.66-0.304,1h11.213c0.085,0.328,0.156,0.661,0.213,1H12.18c-0.055,0.33-0.102,0.662-0.129,1H23.95
			c0.027,0.331,0.05,0.662,0.05,1H12c0,0.338,0.023,0.669,0.05,1H23.95c-0.028,0.338-0.074,0.67-0.129,1H12.18
			c0.057,0.339,0.129,0.672,0.213,1h11.213c-0.088,0.34-0.188,0.673-0.304,1H12.697c0.121,0.341,0.254,0.674,0.404,1h9.797
			c-0.157,0.342-0.329,0.676-0.517,1h-8.763c0.2,0.345,0.416,0.678,0.648,1h7.466c-0.251,0.348-0.521,0.681-0.807,1h-5.853
			c0.316,0.353,0.652,0.687,1.007,1h3.838c-0.409,0.36-0.836,0.698-1.291,1h-1.256c0.204,0.135,0.416,0.258,0.628,0.381
			C19.766,29.405,21.812,30,24,30c6.627,0,12-5.373,12-12C36,11.373,30.627,6,24,6z"/>
	</g>
</g>
<g id="check">
</g>
<g>
	<polygon fill-rule="evenodd" clip-rule="evenodd" fill="#FFFFFF" points="22.374,17.105 22.31,17.102 22.246,17.095 22.189,17.086 
		22.131,17.079 22.074,17.07 22.016,17.06 21.956,17.051 21.892,17.041 21.825,17.035 21.755,17.028 21.675,17.022 21.589,17.019 
		21.493,17.019 21.388,17.022 21.27,17.028 21.142,17.038 21.049,17.051 20.963,17.07 20.883,17.095 20.813,17.124 20.749,17.159 
		20.692,17.197 20.644,17.242 20.606,17.287 20.577,17.338 20.558,17.392 20.548,17.446 20.548,17.504 20.561,17.564 20.584,17.625 
		20.619,17.686 20.663,17.746 20.756,17.829 20.864,17.896 20.992,17.954 21.129,18.002 21.273,18.049 21.423,18.097 21.576,18.152 
		21.723,18.215 21.86,18.292 21.991,18.385 22.106,18.503 22.202,18.643 22.275,18.815 22.323,19.02 22.339,19.262 22.323,19.549 
		22.288,19.763 22.23,19.955 22.157,20.127 22.064,20.28 21.956,20.414 21.838,20.529 21.707,20.628 21.566,20.714 21.42,20.785 
		21.266,20.842 21.11,20.89 20.954,20.925 20.797,20.951 20.644,20.966 20.497,20.976 20.354,20.979 20.156,20.979 19.977,20.976 
		19.814,20.973 19.664,20.97 19.527,20.963 19.406,20.957 19.291,20.947 19.189,20.935 19.093,20.922 19.004,20.906 18.921,20.89 
		18.838,20.868 18.761,20.845 18.685,20.823 18.608,20.794 18.528,20.765 18.726,19.763 18.771,19.773 18.825,19.789 18.892,19.805 
		18.965,19.824 19.052,19.84 19.147,19.862 19.249,19.881 19.358,19.901 19.473,19.916 19.594,19.932 19.719,19.945 19.849,19.958 
		19.98,19.964 20.114,19.968 20.248,19.968 20.386,19.961 20.513,19.939 20.619,19.904 20.698,19.853 20.762,19.795 20.81,19.728 
		20.845,19.658 20.874,19.588 20.893,19.518 20.903,19.444 20.899,19.38 20.883,19.32 20.858,19.269 20.823,19.218 20.778,19.173 
		20.724,19.131 20.663,19.093 20.596,19.058 20.523,19.023 20.443,18.988 20.36,18.956 20.277,18.924 20.188,18.889 20.098,18.854 
		20.006,18.815 19.916,18.777 19.827,18.736 19.738,18.688 19.652,18.637 19.569,18.582 19.492,18.522 19.419,18.452 19.352,18.378 
		19.291,18.295 19.237,18.206 19.192,18.107 19.154,18.002 19.128,17.883 19.112,17.756 19.109,17.615 19.119,17.465 19.128,17.373 
		19.141,17.284 19.154,17.197 19.173,17.114 19.192,17.035 19.214,16.955 19.243,16.881 19.272,16.808 19.307,16.741 19.342,16.674 
		19.383,16.613 19.428,16.553 19.476,16.495 19.527,16.441 19.581,16.39 19.642,16.342 19.706,16.297 19.773,16.256 19.846,16.218 
		19.923,16.179 20.003,16.147 20.089,16.115 20.178,16.09 20.274,16.064 20.376,16.042 20.481,16.023 20.59,16.007 20.705,15.994 
		20.826,15.985 20.954,15.978 21.085,15.972 21.222,15.972 21.391,15.972 21.544,15.975 21.681,15.978 21.809,15.985 21.921,15.991 
		22.023,15.997 22.115,16.007 22.195,16.013 22.269,16.023 22.332,16.032 22.393,16.039 22.444,16.048 22.489,16.055 22.53,16.061 
		22.569,16.068 22.604,16.071 22.374,17.105 	"/>
	<polygon fill="#FFFFFF" points="23.424,14.97 24.707,14.97 24.509,16.087 25.297,16.087 25.119,17.105 24.311,17.089 
		23.887,19.632 23.88,19.687 23.88,19.735 23.887,19.776 23.899,19.814 23.919,19.846 23.941,19.878 23.97,19.904 24.002,19.923 
		24.04,19.942 24.078,19.958 24.123,19.971 24.168,19.977 24.219,19.987 24.27,19.99 24.324,19.993 24.378,19.993 24.48,19.993 
		24.57,19.987 24.653,19.974 24.723,19.958 24.777,19.942 24.819,19.926 24.844,19.913 24.854,19.91 24.723,20.781 24.691,20.801 
		24.656,20.816 24.621,20.832 24.586,20.848 24.551,20.861 24.512,20.874 24.474,20.887 24.429,20.899 24.385,20.912 24.337,20.922 
		24.282,20.931 24.225,20.941 24.164,20.951 24.1,20.96 24.027,20.97 23.95,20.979 23.606,20.979 23.424,20.966 23.261,20.947 
		23.118,20.922 22.993,20.887 22.888,20.848 22.798,20.801 22.725,20.746 22.664,20.686 22.616,20.619 22.581,20.545 22.559,20.465 
		22.546,20.376 22.543,20.283 22.546,20.181 22.556,20.076 22.572,19.961 23.424,14.97 	"/>
	<g>
		<polygon fill="none" points="17.456,17.852 17.456,17.74 17.449,17.635 17.43,17.539 17.405,17.453 17.373,17.373 17.331,17.303 
			17.284,17.239 17.229,17.181 17.169,17.134 17.105,17.095 17.038,17.063 16.964,17.038 16.888,17.019 16.808,17.009 
			16.725,17.006 16.636,17.006 16.553,17.019 16.47,17.035 16.393,17.06 16.32,17.095 16.249,17.137 16.182,17.185 16.122,17.239 
			16.064,17.303 16.013,17.37 15.965,17.443 15.921,17.523 15.882,17.606 15.85,17.695 15.825,17.791 15.803,17.89 15.787,17.973 
			17.446,17.973 		"/>
		<path fill="#FFFFFF" d="M18.713,17.536l-0.016-0.14l-0.025-0.134l-0.029-0.125l-0.038-0.118L18.56,16.91l-0.051-0.102
			l-0.054-0.093l-0.061-0.089l-0.067-0.08l-0.07-0.073l-0.077-0.067l-0.077-0.064l-0.083-0.054l-0.083-0.051l-0.086-0.045
			l-0.089-0.038l-0.093-0.035l-0.093-0.029l-0.093-0.026l-0.093-0.022l-0.096-0.019l-0.093-0.013l-0.093-0.01l-0.093-0.006
			l-0.089-0.006H16.84l-0.192,0.006l-0.179,0.013l-0.172,0.022l-0.163,0.032l-0.153,0.038l-0.144,0.048L15.7,16.202l-0.128,0.057
			l-0.121,0.067l-0.112,0.07l-0.105,0.077l-0.096,0.083l-0.093,0.083l-0.083,0.089l-0.077,0.093l-0.073,0.093l-0.064,0.096
			l-0.061,0.099l-0.054,0.099l-0.051,0.099l-0.045,0.099l-0.042,0.099l-0.035,0.096l-0.032,0.099l-0.025,0.096l-0.026,0.093
			l-0.022,0.089l-0.016,0.086l-0.016,0.083l-0.013,0.077l-0.01,0.077l-0.01,0.067l-0.016,0.192l-0.006,0.185v0.172l0.013,0.166
			l0.019,0.16l0.029,0.147l0.035,0.14l0.045,0.134l0.051,0.125l0.057,0.118l0.064,0.109l0.07,0.105l0.073,0.096l0.083,0.089
			l0.086,0.083l0.089,0.077l0.096,0.07l0.096,0.064l0.102,0.057l0.105,0.054l0.109,0.048l0.108,0.042l0.112,0.035l0.112,0.035
			l0.115,0.025l0.115,0.025l0.115,0.019l0.118,0.016l0.115,0.013l0.112,0.006l0.115,0.006h0.112h0.153l0.14-0.003h0.128l0.115-0.006
			l0.105-0.003l0.099-0.01l0.089-0.01l0.083-0.01l0.08-0.016l0.073-0.016l0.07-0.019l0.07-0.026l0.07-0.025l0.067-0.029l0.073-0.035
			l0.073-0.038l0.198-1.133l-0.134,0.077l-0.131,0.07l-0.134,0.057l-0.128,0.048l-0.128,0.042l-0.128,0.032l-0.128,0.022
			l-0.125,0.019l-0.121,0.01l-0.125,0.006h-0.118L16.91,19.98l-0.118-0.006l-0.118-0.013l-0.115-0.016l-0.115-0.016l-0.096-0.022
			l-0.096-0.032l-0.089-0.042l-0.086-0.051l-0.08-0.061l-0.073-0.064l-0.07-0.073l-0.061-0.077l-0.054-0.08l-0.045-0.083
			l-0.038-0.086l-0.025-0.086l-0.019-0.083l-0.006-0.086l0.003-0.08l0.013-0.064h2.955l0.051-0.281l0.038-0.198l0.029-0.188
			l0.016-0.179l0.009-0.169v-0.16L18.713,17.536z M17.456,17.852l-0.01,0.121h-1.659l0.016-0.083l0.022-0.099l0.025-0.096
			l0.032-0.089l0.038-0.083l0.045-0.08l0.048-0.073l0.051-0.067l0.057-0.064l0.061-0.054l0.067-0.048l0.07-0.041l0.073-0.035
			l0.077-0.025l0.083-0.016l0.083-0.013h0.089l0.083,0.003l0.08,0.01l0.077,0.019l0.073,0.026l0.067,0.032l0.064,0.038l0.061,0.048
			l0.054,0.057l0.048,0.064l0.042,0.07l0.032,0.08l0.025,0.086l0.019,0.096l0.006,0.105V17.852z"/>
	</g>
	<path fill-rule="evenodd" clip-rule="evenodd" fill="#FFFFFF" d="M14.347,17.204l-0.029-0.163l-0.051-0.15l-0.07-0.137
		l-0.089-0.124l-0.105-0.112l-0.118-0.102l-0.128-0.089l-0.134-0.077l-0.144-0.067l-0.144-0.054l-0.144-0.041l-0.144-0.035
		l-0.137-0.019L12.78,16.02l-0.16-0.003l-0.153-0.003h-0.147h-0.147h-0.14l-0.134,0.003l-0.131,0.006l-0.128,0.006l-0.125,0.013
		l-0.121,0.016l-0.115,0.019l-0.112,0.022l-0.109,0.029l-0.102,0.035l-0.102,0.042l-0.096,0.045l-0.329,1.085l0.048-0.029
		l0.067-0.025l0.083-0.026l0.099-0.025l0.112-0.026l0.118-0.022l0.131-0.019l0.137-0.022l0.144-0.016l0.147-0.016l0.147-0.013
		l0.147-0.01l0.147-0.01l0.144-0.003l0.137-0.003l0.131,0.003l0.054,0.006l0.054,0.01l0.054,0.013l0.051,0.016l0.048,0.022
		l0.048,0.026l0.041,0.025l0.042,0.032l0.038,0.038l0.032,0.038l0.032,0.041l0.025,0.045l0.022,0.048l0.016,0.051l0.01,0.054
		l0.006,0.057v0.08l-0.016,0.089l-0.022,0.077l-0.01,0.032h-0.003h-0.013H12.86l-0.026-0.003h-0.032l-0.035-0.003h-0.042
		l-0.045-0.003H12.63h-0.051l-0.051-0.003h-0.054l-0.057-0.003h-0.054h-0.054h-0.054h-0.051l-0.061,0.003l-0.067,0.003l-0.07,0.006
		l-0.077,0.006l-0.08,0.006l-0.077,0.01l-0.077,0.006l-0.077,0.006l-0.07,0.01l-0.064,0.006l-0.054,0.006l-0.048,0.006l-0.035,0.003
		l-0.022,0.003h-0.006l-0.156,0.029l-0.153,0.038l-0.15,0.051l-0.147,0.064l-0.14,0.073l-0.134,0.086l-0.125,0.093l-0.118,0.105
		l-0.105,0.118l-0.099,0.124l-0.083,0.134l-0.073,0.144l-0.061,0.153l-0.041,0.163l-0.029,0.169l-0.013,0.179l0.003,0.099
		L9.7,19.865l0.013,0.105l0.019,0.102l0.029,0.105l0.035,0.102l0.045,0.099l0.054,0.096l0.064,0.096l0.077,0.086l0.086,0.083
		l0.102,0.073l0.115,0.067l0.131,0.061l0.144,0.051l0.163,0.038l0.125,0.019l0.128,0.01l0.131-0.003l0.134-0.01l0.134-0.019
		l0.134-0.025l0.134-0.035l0.131-0.042l0.124-0.048l0.121-0.051l0.115-0.057l0.105-0.061l0.099-0.064l0.086-0.067l0.077-0.07
		l0.061-0.07l-0.013,0.022l-0.013,0.038l-0.01,0.057l-0.013,0.067l-0.013,0.08l-0.013,0.086l-0.013,0.096l-0.013,0.096h1.152
		l0.182-1.018l0.475-2.397l0.026-0.188L14.347,17.204z M12.736,18.822l-0.013,0.067l-0.013,0.07l-0.013,0.077l-0.016,0.08
		l-0.016,0.076l-0.016,0.074l-0.016,0.07l-0.016,0.048l-0.019,0.051l-0.026,0.051l-0.032,0.054l-0.038,0.054l-0.045,0.051
		l-0.051,0.054l-0.061,0.048l-0.067,0.048l-0.077,0.045l-0.086,0.038l-0.096,0.032l-0.105,0.029l-0.118,0.022l-0.124,0.013
		l-0.14,0.003l-0.077-0.003l-0.08-0.016l-0.073-0.032l-0.07-0.048l-0.057-0.07l-0.038-0.096l-0.022-0.121l0.006-0.156l0.016-0.077
		l0.025-0.073l0.032-0.067l0.045-0.061l0.048-0.057l0.054-0.051l0.057-0.048l0.061-0.045l0.061-0.035l0.061-0.035l0.061-0.029
		l0.054-0.022l0.051-0.022l0.048-0.016l0.038-0.013l0.029-0.006l0.051-0.016l0.057-0.016l0.067-0.013l0.07-0.013l0.073-0.013
		l0.073-0.01l0.077-0.01l0.073-0.006h0.07h0.067l0.057,0.003l0.054,0.006l0.042,0.01l0.032,0.016l0.019,0.019l0.003,0.025
		L12.736,18.822z"/>
	<polygon fill-rule="evenodd" clip-rule="evenodd" fill="#FFFFFF" points="4.218,20.979 2.97,20.979 4.02,14.97 6.19,14.97 
		6.404,18.547 7.881,14.97 10.135,14.97 9.081,20.979 7.834,20.979 8.622,16.479 8.574,16.479 6.716,20.979 5.319,20.979 
		5.306,20.791 5.277,20.29 5.236,19.581 5.188,18.768 5.14,17.947 5.098,17.223 5.07,16.699 5.057,16.479 5.054,16.479 
		5.041,16.479 5.028,16.479 5.012,16.479 4.999,16.479 4.993,16.479 5.006,16.479 4.218,20.979 	"/>
	<polygon fill-rule="evenodd" clip-rule="evenodd" fill="#FFFFFF" points="25.068,20.979 26.366,20.979 26.81,18.385 26.829,18.282 
		26.852,18.183 26.877,18.085 26.909,17.992 26.944,17.899 26.989,17.813 27.043,17.73 27.104,17.651 27.177,17.58 27.26,17.516 
		27.359,17.459 27.467,17.408 27.595,17.366 27.739,17.335 27.898,17.315 28.077,17.303 28.093,17.303 28.112,17.306 28.138,17.309 
		28.163,17.309 28.186,17.312 28.205,17.315 28.217,17.319 28.224,17.319 28.227,17.299 28.24,17.245 28.256,17.162 28.281,17.057 
		28.313,16.939 28.348,16.811 28.39,16.684 28.438,16.562 28.473,16.473 28.514,16.387 28.556,16.301 28.6,16.221 28.639,16.154 
		28.671,16.099 28.693,16.064 28.699,16.052 28.693,16.052 28.677,16.045 28.655,16.042 28.623,16.036 28.591,16.029 28.553,16.026 
		28.518,16.02 28.486,16.02 28.345,16.029 28.217,16.045 28.099,16.071 27.991,16.099 27.889,16.138 27.796,16.179 27.707,16.23 
		27.627,16.285 27.547,16.345 27.474,16.412 27.407,16.482 27.337,16.559 27.27,16.639 27.206,16.725 27.139,16.814 27.072,16.907 
		27.222,16.087 25.923,16.071 25.068,20.979 	"/>
	<path fill="#FFFFFF" d="M33.088,18.212l-0.006-0.131l-0.013-0.124l-0.019-0.125l-0.025-0.121l-0.029-0.118l-0.035-0.112
		l-0.038-0.112l-0.048-0.105l-0.048-0.105l-0.058-0.099l-0.061-0.096l-0.064-0.089l-0.07-0.089l-0.077-0.083l-0.08-0.08
		l-0.083-0.073l-0.089-0.07l-0.096-0.067l-0.096-0.061l-0.105-0.054l-0.105-0.051l-0.112-0.048l-0.118-0.041l-0.118-0.035
		l-0.124-0.032l-0.128-0.026l-0.134-0.019l-0.137-0.013l-0.14-0.01l-0.144-0.003l-0.137,0.003l-0.137,0.006l-0.134,0.016
		l-0.131,0.016l-0.128,0.026l-0.125,0.029l-0.121,0.035l-0.118,0.038l-0.112,0.045l-0.112,0.048l-0.109,0.057l-0.105,0.057
		l-0.099,0.064l-0.096,0.07l-0.093,0.073l-0.089,0.08L28.76,16.77l-0.08,0.086l-0.077,0.096l-0.07,0.096l-0.067,0.105l-0.064,0.105
		l-0.057,0.112l-0.051,0.118l-0.048,0.121l-0.042,0.125l-0.038,0.131l-0.032,0.134l-0.029,0.137l-0.022,0.144l-0.016,0.147
		l-0.01,0.153l-0.003,0.15l0.003,0.147l0.01,0.14l0.016,0.137l0.022,0.131l0.029,0.128l0.035,0.124l0.038,0.118l0.045,0.112
		l0.048,0.108l0.057,0.105l0.057,0.099l0.067,0.096l0.067,0.089l0.077,0.086l0.077,0.08l0.083,0.077l0.089,0.07l0.089,0.067
		l0.096,0.061l0.099,0.057l0.102,0.051l0.105,0.048l0.112,0.042l0.112,0.038l0.115,0.032l0.121,0.025l0.121,0.022l0.124,0.019
		l0.125,0.013l0.131,0.006l0.131,0.003l0.131-0.003l0.131-0.006l0.128-0.013l0.128-0.016l0.121-0.022l0.121-0.026l0.121-0.032
		l0.115-0.038l0.115-0.041l0.108-0.048l0.108-0.051l0.105-0.057l0.099-0.061l0.099-0.067l0.093-0.073l0.089-0.077l0.086-0.083
		l0.083-0.086l0.08-0.093l0.073-0.099l0.067-0.102l0.067-0.109l0.057-0.115l0.057-0.118l0.048-0.125l0.045-0.131l0.042-0.134
		l0.032-0.14l0.029-0.147l0.022-0.15l0.019-0.156l0.01-0.163l0.003-0.134L33.088,18.212z M31.553,18.116l-0.01,0.131l-0.016,0.137
		l-0.029,0.175l-0.032,0.163l-0.041,0.15l-0.048,0.137l-0.051,0.124l-0.061,0.115l-0.064,0.102l-0.067,0.089l-0.077,0.08
		l-0.08,0.067l-0.086,0.057l-0.089,0.045l-0.096,0.035l-0.099,0.022l-0.105,0.013l-0.108,0.003l-0.099-0.006l-0.093-0.013
		l-0.089-0.025l-0.08-0.035l-0.073-0.045l-0.067-0.057l-0.061-0.067l-0.054-0.08l-0.045-0.093l-0.035-0.102l-0.029-0.112
		l-0.019-0.128l-0.01-0.14v-0.15l0.01-0.166l0.019-0.179l0.019-0.105l0.022-0.109l0.032-0.108l0.038-0.109l0.041-0.108l0.051-0.102
		l0.057-0.102l0.067-0.096l0.07-0.089l0.08-0.08l0.089-0.07l0.096-0.064l0.105-0.048l0.112-0.038l0.121-0.022l0.131-0.01h0.105
		l0.096,0.016l0.089,0.026l0.083,0.041l0.073,0.051l0.067,0.064l0.057,0.07l0.051,0.083l0.041,0.093l0.035,0.099l0.025,0.109
		l0.016,0.112l0.01,0.121V18.116z"/>
</g>
</svg>
