<?xml version="1.0" encoding="utf-8"?>
<!-- Generator: Adobe Illustrator 19.2.1, SVG Export Plug-In . SVG Version: 6.00 Build 0)  -->
<svg version="1.0" id="art" xmlns="http://www.w3.org/2000/svg" xmlns:xlink="http://www.w3.org/1999/xlink" x="0px" y="0px"
	 width="30px" height="30px" viewBox="0 0 30 30" enable-background="new 0 0 30 30" xml:space="preserve">
<g id="check">
</g>
<path d="M20.066,5c-1.829,0-3.561,0.515-5.067,1.402C13.493,5.515,11.762,5,9.934,5c-5.514,0-10,4.486-10,10s4.486,10,10,10
	c1.829,0,3.561-0.515,5.067-1.402C16.507,24.485,18.238,25,20.066,25c5.514,0,10-4.486,10-10S25.58,5,20.066,5z M20.066,24
	c-1.476,0-2.882-0.373-4.136-1.023c1.384-1.04,2.517-2.424,3.221-4.093l-0.922-0.389c-0.691,1.637-1.827,2.984-3.229,3.939
	c-1.4-0.953-2.535-2.298-3.226-3.93l-0.922,0.389c0.704,1.665,1.836,3.046,3.218,4.084C12.817,23.627,11.41,24,9.934,24
	c-4.963,0-9-4.037-9-9s4.037-9,9-9c1.476,0,2.882,0.373,4.136,1.023c-1.384,1.04-2.517,2.424-3.221,4.093l0.922,0.389
	C12.461,9.868,13.598,8.521,15,7.566c1.4,0.953,2.535,2.298,3.226,3.93l0.922-0.39c-0.705-1.665-1.837-3.045-3.218-4.083
	C17.183,6.373,18.59,6,20.066,6c4.963,0,9,4.037,9,9S25.029,24,20.066,24z"/>
<polygon points="9.95,14.679 9.964,14.647 9.982,14.615 10.008,14.588 10.037,14.559 10.075,14.536 10.116,14.516 10.159,14.498 
	10.209,14.481 10.264,14.472 10.322,14.463 10.406,14.457 10.482,14.452 10.549,14.449 10.61,14.449 10.665,14.452 10.718,14.455 
	10.764,14.457 10.805,14.463 10.846,14.469 10.884,14.475 10.921,14.481 10.956,14.487 10.994,14.492 11.032,14.498 11.073,14.504 
	11.113,14.507 11.262,13.849 11.238,13.846 11.212,13.841 11.186,13.838 11.157,13.832 11.122,13.826 11.084,13.82 11.044,13.812 
	10.994,13.806 10.942,13.8 10.884,13.794 10.817,13.788 10.744,13.783 10.662,13.78 10.572,13.777 10.473,13.774 10.366,13.774 
	10.194,13.777 10.037,13.788 9.894,13.809 9.764,13.835 9.647,13.867 9.542,13.911 9.449,13.957 9.365,14.012 9.292,14.076 
	9.231,14.149 9.179,14.225 9.132,14.312 9.097,14.405 9.068,14.504 9.048,14.612 9.033,14.725 9.03,14.911 9.057,15.068 
	9.109,15.199 9.182,15.31 9.275,15.4 9.377,15.476 9.487,15.537 9.604,15.589 9.717,15.636 9.83,15.676 9.932,15.72 10.02,15.764 
	10.092,15.813 10.142,15.871 10.168,15.944 10.162,16.028 10.15,16.072 10.136,16.119 10.113,16.165 10.084,16.206 10.043,16.247 
	9.99,16.279 9.924,16.302 9.839,16.319 9.755,16.322 9.67,16.322 9.586,16.319 9.502,16.316 9.42,16.308 9.342,16.299 9.266,16.287 
	9.193,16.276 9.124,16.264 9.06,16.249 9.001,16.238 8.949,16.226 8.899,16.215 8.859,16.203 8.827,16.194 8.801,16.188 
	8.67,16.831 8.719,16.849 8.766,16.866 8.812,16.884 8.862,16.895 8.911,16.91 8.966,16.919 9.022,16.93 9.083,16.936 9.15,16.945 
	9.22,16.951 9.298,16.956 9.385,16.959 9.481,16.962 9.583,16.962 9.699,16.965 9.825,16.965 9.915,16.962 10.011,16.956 
	10.107,16.948 10.206,16.93 10.308,16.907 10.406,16.878 10.503,16.84 10.596,16.796 10.686,16.741 10.767,16.677 10.843,16.604 
	10.91,16.52 10.968,16.424 11.015,16.313 11.049,16.194 11.07,16.057 11.081,15.874 11.07,15.717 11.041,15.586 10.994,15.476 
	10.933,15.385 10.86,15.313 10.779,15.252 10.692,15.202 10.598,15.164 10.503,15.129 10.406,15.097 10.313,15.068 10.226,15.036 
	10.145,14.999 10.075,14.955 10.017,14.9 9.988,14.862 9.964,14.824 9.953,14.786 9.944,14.748 9.944,14.713 "/>
<polygon points="12.687,16.284 12.661,16.293 12.623,16.305 12.577,16.316 12.524,16.325 12.466,16.331 12.402,16.334 
	12.332,16.328 12.268,16.316 12.21,16.299 12.158,16.279 12.12,16.247 12.091,16.209 12.076,16.159 12.079,16.101 12.359,14.478 
	12.87,14.492 12.975,13.835 12.489,13.835 12.609,13.131 11.803,13.131 11.247,16.305 11.238,16.377 11.23,16.444 11.23,16.508 
	11.233,16.569 11.241,16.625 11.256,16.674 11.276,16.724 11.305,16.764 11.343,16.802 11.393,16.837 11.448,16.866 11.515,16.892 
	11.593,16.913 11.686,16.93 11.788,16.942 11.905,16.951 12.126,16.951 12.175,16.945 12.222,16.939 12.265,16.933 12.303,16.927 
	12.338,16.921 12.373,16.916 12.402,16.91 12.431,16.901 12.457,16.892 12.484,16.884 12.507,16.875 12.527,16.866 12.548,16.855 
	12.568,16.843 12.588,16.831 12.609,16.817 12.71,16.276 12.705,16.279 "/>
<path d="M15.236,16.168l-0.084,0.035l-0.081,0.032l-0.079,0.026l-0.082,0.017l-0.078,0.015l-0.079,0.012l-0.078,0.006l-0.076,0.003
	H14.52l-0.076-0.003l-0.076-0.006l-0.076-0.009l-0.073-0.009l-0.076-0.012l-0.058-0.012l-0.058-0.02l-0.058-0.026l-0.052-0.032
	l-0.052-0.035l-0.047-0.044l-0.044-0.044l-0.041-0.049L13.7,15.964l-0.032-0.055l-0.023-0.052l-0.02-0.055l-0.012-0.055
	l-0.006-0.055l0.003-0.052l0.006-0.035h1.888l0.014-0.177l0.044-0.244l0.02-0.221l-0.003-0.198l-0.023-0.174l-0.041-0.154
	L15.457,14.3l-0.073-0.116l-0.087-0.099l-0.096-0.081l-0.105-0.07l-0.113-0.052l-0.116-0.044l-0.119-0.029l-0.119-0.02l-0.119-0.012
	l-0.113-0.003l-0.236,0.012L13.95,13.82l-0.189,0.052l-0.169,0.073l-0.145,0.087l-0.128,0.099l-0.113,0.111l-0.093,0.116
	l-0.081,0.122l-0.067,0.128l-0.052,0.125l-0.044,0.125l-0.032,0.122l-0.023,0.114l-0.018,0.108l-0.012,0.093l-0.015,0.239
	l0.009,0.215l0.032,0.195l0.049,0.172l0.07,0.154l0.084,0.134l0.099,0.119l0.114,0.099l0.122,0.084l0.131,0.073l0.137,0.055
	l0.143,0.044l0.145,0.035l0.146,0.021l0.145,0.014l0.143,0.003h0.096l0.09-0.003h0.079l0.076-0.003l0.067-0.006l0.061-0.006
	l0.058-0.006l0.052-0.009l0.049-0.009l0.046-0.012l0.047-0.014l0.044-0.015l0.044-0.017l0.047-0.018l0.047-0.023l0.047-0.023
	l0.116-0.716l-0.084,0.049L15.236,16.168z M13.734,14.987l0.012-0.061l0.017-0.058l0.02-0.058l0.026-0.052l0.026-0.049l0.032-0.047
	l0.035-0.044l0.038-0.041l0.038-0.035l0.044-0.032l0.044-0.026l0.049-0.023l0.049-0.017l0.049-0.012l0.052-0.009l0.055-0.003
	l0.052,0.006l0.049,0.009l0.047,0.012l0.047,0.017l0.044,0.023l0.044,0.026l0.038,0.029l0.035,0.035l0.029,0.041l0.029,0.044
	l0.02,0.049l0.02,0.055l0.012,0.058l0.006,0.064l0.003,0.07l-0.006,0.073h-1.064L13.734,14.987z"/>
<polygon points="20.396,13.931 20.44,13.951 20.481,13.972 20.519,13.989 20.556,14.01 20.702,13.204 20.684,13.198 20.658,13.186 
	20.623,13.174 20.583,13.16 20.536,13.143 20.481,13.125 20.423,13.108 20.356,13.09 20.286,13.073 20.21,13.058 20.132,13.041 
	20.05,13.029 19.963,13.017 19.876,13.009 19.785,13.003 19.692,13 19.582,13.003 19.477,13.009 19.372,13.02 19.273,13.035 
	19.174,13.052 19.081,13.073 18.991,13.096 18.901,13.125 18.817,13.157 18.735,13.192 18.657,13.23 18.578,13.273 18.505,13.32 
	18.436,13.37 18.369,13.425 18.302,13.483 18.241,13.544 18.182,13.608 18.124,13.678 18.072,13.751 18.02,13.826 17.97,13.908 
	17.927,13.992 17.883,14.082 17.842,14.172 17.804,14.268 17.767,14.37 17.734,14.472 17.706,14.58 17.676,14.693 17.65,14.809 
	17.627,14.929 17.595,15.17 17.589,15.397 17.601,15.604 17.636,15.799 17.688,15.976 17.758,16.139 17.839,16.284 17.935,16.415 
	18.043,16.532 18.159,16.633 18.281,16.721 18.409,16.791 18.543,16.849 18.677,16.892 18.811,16.921 18.945,16.936 19.108,16.945 
	19.256,16.948 19.387,16.945 19.5,16.939 19.602,16.927 19.69,16.916 19.765,16.901 19.832,16.881 19.884,16.863 19.931,16.843 
	19.972,16.823 20.004,16.799 20.03,16.782 20.053,16.761 20.071,16.744 20.088,16.729 20.219,15.953 20.161,16.005 20.1,16.052 
	20.033,16.089 19.96,16.121 19.887,16.145 19.815,16.165 19.739,16.18 19.663,16.188 19.591,16.194 19.518,16.194 19.451,16.194 
	19.387,16.188 19.329,16.182 19.276,16.177 19.233,16.168 19.195,16.159 19.084,16.133 18.985,16.095 18.895,16.052 18.817,15.999 
	18.747,15.938 18.686,15.871 18.633,15.796 18.59,15.717 18.558,15.63 18.532,15.543 18.511,15.449 18.503,15.35 18.5,15.252 
	18.505,15.15 18.517,15.048 18.534,14.943 18.581,14.757 18.636,14.594 18.698,14.449 18.761,14.321 18.831,14.213 18.904,14.12 
	18.98,14.044 19.058,13.98 19.14,13.928 19.221,13.887 19.303,13.855 19.384,13.832 19.465,13.817 19.544,13.809 19.62,13.803 
	19.692,13.803 19.765,13.803 19.835,13.803 19.902,13.809 19.969,13.815 20.03,13.823 20.091,13.835 20.146,13.846 20.201,13.861 
	20.254,13.879 20.303,13.896 20.353,13.913 "/>
<polygon points="4.742,13.131 3.791,15.397 3.66,13.131 2.284,13.131 1.624,16.951 2.415,16.951 2.898,14.097 2.915,14.097 
	2.933,14.097 2.942,14.097 2.947,14.236 2.968,14.568 2.994,15.025 3.023,15.545 3.052,16.063 3.078,16.514 3.099,16.831 
	3.105,16.951 3.998,16.951 5.182,14.097 5.214,14.097 4.713,16.951 5.505,16.951 6.18,13.131 "/>
<polygon points="25.17,14.551 25.211,14.551 25.234,14.551 25.243,14.551 25.374,13.803 25.292,13.809 25.214,13.817 25.141,13.832 
	25.071,13.852 25.007,13.876 24.946,13.905 24.888,13.937 24.833,13.972 24.78,14.012 24.731,14.053 24.685,14.1 24.638,14.146 
	24.594,14.196 24.551,14.251 24.507,14.303 24.466,14.362 24.554,13.835 23.736,13.835 23.192,16.951 24.012,16.951 24.306,15.295 
	24.318,15.231 24.335,15.167 24.353,15.103 24.376,15.039 24.405,14.975 24.44,14.914 24.478,14.856 24.524,14.801 24.577,14.751 
	24.635,14.705 24.702,14.661 24.778,14.626 24.862,14.597 24.955,14.574 25.057,14.556 "/>
<polygon points="17.627,14.14 17.65,14.085 17.679,14.03 17.708,13.975 17.737,13.925 17.764,13.882 17.784,13.846 17.799,13.826 
	17.804,13.817 17.801,13.817 17.79,13.815 17.775,13.812 17.755,13.809 17.734,13.809 17.711,13.806 17.691,13.803 17.67,13.803 
	17.58,13.809 17.499,13.817 17.423,13.832 17.353,13.849 17.287,13.873 17.225,13.902 17.17,13.931 17.118,13.966 17.068,14.004 
	17.022,14.047 16.978,14.091 16.935,14.14 16.891,14.19 16.85,14.245 16.807,14.303 16.763,14.362 16.868,13.835 16.033,13.835 
	15.489,16.951 16.309,16.951 16.324,16.951 16.603,15.295 16.615,15.231 16.629,15.17 16.644,15.109 16.664,15.051 16.687,14.993 
	16.716,14.937 16.751,14.885 16.792,14.836 16.839,14.792 16.891,14.748 16.955,14.713 17.025,14.681 17.106,14.655 17.196,14.632 
	17.295,14.617 17.409,14.609 17.417,14.609 17.429,14.612 17.444,14.615 17.458,14.615 17.473,14.617 17.484,14.62 17.493,14.623 
	17.496,14.623 17.499,14.612 17.508,14.577 17.519,14.524 17.534,14.46 17.554,14.385 17.575,14.303 17.601,14.222 "/>
<path d="M26.223,13.884l-0.116,0.041l-0.111,0.049l-0.111,0.064l-0.108,0.073l-0.102,0.084l-0.096,0.096l-0.09,0.105l-0.087,0.116
	l-0.076,0.131l-0.073,0.14l-0.061,0.148l-0.052,0.163l-0.044,0.172l-0.026,0.148l-0.015,0.148l-0.003,0.151l0.009,0.148l0.023,0.148
	l0.032,0.143l0.047,0.137l0.058,0.131l0.07,0.122l0.081,0.108l0.093,0.099l0.105,0.084l0.116,0.067l0.128,0.049l0.14,0.032
	l0.151,0.012h0.058l0.058-0.003l0.055-0.006l0.058-0.009l0.058-0.009l0.055-0.015l0.055-0.015l0.055-0.02l0.055-0.026l0.052-0.026
	l0.052-0.032l0.052-0.038l0.052-0.041l0.049-0.046l0.049-0.052l0.047-0.058v0.029l-0.058,0.323h0.806l0.657-3.805h-0.791
	l-0.204,1.143l-0.018-0.035l-0.023-0.035l-0.026-0.038l-0.029-0.038l-0.035-0.038l-0.038-0.038l-0.044-0.038l-0.047-0.035
	l-0.052-0.032l-0.058-0.032l-0.058-0.026l-0.067-0.023l-0.07-0.02l-0.076-0.015l-0.081-0.009l-0.084-0.003l-0.119,0.006
	l-0.116,0.018L26.223,13.884z M26.41,14.644l0.058-0.038l0.067-0.029l0.067-0.023l0.073-0.012l0.079-0.006l0.061,0.006l0.055,0.015
	l0.052,0.023l0.049,0.035l0.044,0.041l0.038,0.046l0.035,0.055l0.029,0.058l0.023,0.067l0.02,0.07l0.012,0.073l0.009,0.076
	l0.003,0.081v0.079l-0.009,0.084l-0.015,0.081l-0.015,0.079l-0.02,0.079l-0.023,0.076l-0.029,0.073l-0.032,0.07l-0.038,0.067
	l-0.041,0.064l-0.044,0.058l-0.049,0.052l-0.055,0.049l-0.058,0.044l-0.061,0.035l-0.067,0.032l-0.07,0.02l-0.076,0.017
	l-0.081,0.006l-0.116-0.023l-0.096-0.064l-0.076-0.096l-0.058-0.119l-0.038-0.137l-0.02-0.143l-0.006-0.14l0.015-0.128l0.017-0.084
	l0.023-0.084l0.023-0.079l0.029-0.078l0.032-0.076l0.038-0.07l0.041-0.067l0.044-0.064l0.049-0.055l0.049-0.049L26.41,14.644z"/>
<path d="M23.294,14.652v-0.111l-0.02-0.099l-0.032-0.093l-0.044-0.087l-0.058-0.078l-0.067-0.07L23,14.05l-0.081-0.055l-0.087-0.049
	l-0.09-0.041l-0.09-0.035l-0.093-0.026l-0.09-0.02l-0.087-0.015l-0.081-0.006L22.2,13.8l-0.099-0.003h-0.093h-0.09h-0.09
	L21.743,13.8l-0.084,0.003l-0.081,0.006l-0.078,0.006l-0.076,0.012l-0.073,0.012l-0.073,0.015l-0.07,0.015l-0.067,0.02l-0.067,0.023
	l-0.064,0.026l-0.204,0.701l0.032-0.018l0.041-0.02l0.052-0.017l0.064-0.018l0.07-0.015l0.076-0.015l0.084-0.014l0.087-0.012
	l0.09-0.012l0.093-0.009l0.093-0.009l0.096-0.006l0.093-0.003h0.09l0.087,0.003l0.082,0.003l0.07,0.006l0.064,0.018l0.061,0.026
	l0.052,0.038l0.044,0.044l0.038,0.052l0.023,0.058l0.012,0.064l-0.006,0.055L22.386,14.9l-0.009,0.052l-0.006,0.02H22.36
	l-0.026-0.003l-0.047-0.003l-0.055-0.003h-0.064l-0.067-0.003l-0.07-0.003h-0.07H21.93l-0.041,0.003l-0.041,0.003l-0.047,0.003
	l-0.049,0.006l-0.049,0.003l-0.052,0.006l-0.05,0.006l-0.047,0.006l-0.044,0.006l-0.041,0.003l-0.038,0.006l-0.029,0.003
	l-0.02,0.003l-0.015,0.003h-0.006l-0.099,0.018l-0.096,0.026l-0.096,0.032l-0.09,0.041l-0.09,0.047l-0.084,0.055l-0.078,0.061
	l-0.076,0.067l-0.067,0.073l-0.061,0.081l-0.055,0.084l-0.044,0.093l-0.038,0.099l-0.026,0.102l-0.018,0.108l-0.006,0.113v0.064
	l0.006,0.064l0.009,0.067l0.012,0.067l0.015,0.064l0.023,0.064l0.026,0.064l0.035,0.061l0.041,0.058l0.047,0.055l0.055,0.052
	l0.064,0.047l0.076,0.044l0.082,0.038l0.093,0.029l0.105,0.026l0.079,0.012L21.182,17l0.081-0.003l0.084-0.006l0.081-0.012
	l0.081-0.015l0.081-0.023l0.078-0.023l0.073-0.029l0.073-0.035l0.07-0.035l0.061-0.038l0.058-0.041l0.052-0.041l0.044-0.044
	l0.038-0.044l-0.006,0.035v0.078l-0.003,0.105l-0.006,0.119h0.73l0.119-0.646l0.305-1.536L23.294,14.652z M22.264,15.618
	L22.252,15.7l-0.015,0.084l-0.012,0.081l-0.009,0.032l-0.012,0.035l-0.015,0.035l-0.02,0.035l-0.026,0.038l-0.032,0.035
	l-0.035,0.038l-0.041,0.032l-0.047,0.035l-0.052,0.029l-0.055,0.026l-0.064,0.023l-0.067,0.02l-0.076,0.015l-0.081,0.009
	l-0.087,0.003l-0.049-0.003l-0.049-0.009l-0.049-0.018l-0.044-0.029l-0.035-0.044l-0.023-0.058l-0.015-0.079l0.003-0.099
	l0.009-0.049l0.017-0.047l0.02-0.044l0.026-0.041l0.032-0.038l0.032-0.032l0.038-0.032l0.038-0.026l0.038-0.026l0.041-0.02
	l0.035-0.017l0.038-0.017l0.032-0.012l0.029-0.009l0.023-0.009l0.02-0.003l0.029-0.006l0.038-0.009l0.038-0.006l0.044-0.009
	l0.044-0.006l0.047-0.006l0.047-0.006l0.047-0.006l0.044-0.003h0.044l0.038,0.003l0.032,0.003l0.029,0.009l0.02,0.009l0.012,0.014
	l0.006,0.017L22.264,15.618z"/>
<path d="M8.847,14.652v-0.111L8.83,14.443L8.801,14.35l-0.044-0.087l-0.058-0.078l-0.064-0.07L8.562,14.05l-0.081-0.055
	l-0.087-0.049l-0.087-0.041l-0.09-0.035l-0.093-0.026l-0.09-0.02l-0.087-0.015l-0.081-0.006L7.762,13.8L7.66,13.797H7.564H7.471
	h-0.09L7.294,13.8l-0.084,0.003l-0.082,0.006l-0.078,0.006l-0.076,0.012l-0.076,0.012l-0.07,0.015l-0.07,0.015l-0.07,0.02
	l-0.064,0.023l-0.064,0.026l-0.207,0.701l0.032-0.018l0.041-0.02l0.052-0.017l0.064-0.018l0.07-0.015l0.076-0.015l0.084-0.014
	L6.86,14.51l0.09-0.012l0.093-0.009l0.093-0.009l0.096-0.006l0.093-0.003h0.09l0.087,0.003l0.081,0.003l0.076,0.006l0.07,0.018
	l0.061,0.026l0.055,0.038l0.047,0.044l0.035,0.052l0.026,0.058l0.012,0.064L7.96,14.839L7.945,14.9l-0.018,0.052l-0.006,0.02H7.913
	l-0.029-0.003l-0.041-0.003l-0.052-0.003H7.727l-0.064-0.003l-0.07-0.003H7.526H7.494l-0.041,0.003L7.41,14.964l-0.047,0.003
	l-0.047,0.006l-0.052,0.003l-0.049,0.006l-0.049,0.006l-0.049,0.006l-0.044,0.006l-0.041,0.003l-0.035,0.006L6.965,15.01
	l-0.02,0.003L6.93,15.016H6.924l-0.102,0.018L6.724,15.06l-0.096,0.032l-0.093,0.041l-0.087,0.047l-0.084,0.055l-0.081,0.061
	l-0.073,0.067l-0.07,0.073l-0.061,0.081l-0.052,0.084l-0.047,0.093l-0.038,0.099l-0.029,0.102l-0.017,0.108l-0.009,0.113v0.064
	l0.006,0.064L5.9,16.31l0.012,0.067l0.017,0.064l0.023,0.064l0.029,0.064l0.035,0.061l0.041,0.058l0.047,0.055l0.058,0.052
	l0.064,0.047l0.073,0.044l0.081,0.038l0.093,0.029l0.102,0.026l0.079,0.012L6.735,17l0.084-0.003l0.084-0.006l0.087-0.012
	l0.084-0.017l0.084-0.02l0.084-0.026l0.079-0.029l0.076-0.035l0.073-0.035l0.07-0.041l0.061-0.041l0.055-0.044l0.047-0.047
	l0.041-0.047l-0.012,0.044l-0.012,0.081l-0.015,0.108l-0.02,0.119h0.733l0.116-0.646l0.294-1.536L8.847,14.652z M7.82,15.621
	l-0.017,0.093L7.782,15.81l-0.023,0.084L7.75,15.927l-0.014,0.032l-0.017,0.035l-0.021,0.035l-0.023,0.035l-0.029,0.032L7.611,16.13
	l-0.038,0.029l-0.044,0.032L7.48,16.217l-0.055,0.026l-0.058,0.02L7.3,16.281l-0.076,0.012l-0.079,0.009l-0.087,0.003l-0.047-0.003
	l-0.047-0.009l-0.049-0.018l-0.044-0.029l-0.038-0.044l-0.029-0.058L6.79,16.066l0.003-0.099l0.009-0.047l0.017-0.046l0.02-0.041
	l0.029-0.038l0.032-0.035l0.035-0.035l0.038-0.029l0.041-0.029l0.038-0.023l0.041-0.02l0.038-0.02l0.038-0.017l0.032-0.014
	l0.032-0.012l0.023-0.009l0.02-0.006l0.032-0.009l0.035-0.009l0.041-0.009l0.044-0.006l0.047-0.006l0.047-0.006l0.049-0.006
	l0.047-0.003H7.66h0.044l0.038,0.003l0.032,0.006l0.029,0.006l0.017,0.009l0.012,0.015l0.003,0.014L7.82,15.621z"/>
</svg>
