<?xml version="1.0" encoding="utf-8"?>
<!-- Generator: Adobe Illustrator 19.2.1, SVG Export Plug-In . SVG Version: 6.00 Build 0)  -->
<svg version="1.0" id="art" xmlns="http://www.w3.org/2000/svg" xmlns:xlink="http://www.w3.org/1999/xlink" x="0px" y="0px"
	 width="30px" height="30px" viewBox="0 0 30 30" enable-background="new 0 0 30 30" xml:space="preserve">
<g id="check">
</g>
<polygon fill="#FFFFFF" points="10.892,18.85 13.155,18.85 14.57,10.156 12.307,10.156 "/>
<path fill="#FFFFFF" d="M25.238,10.156c-0.84,0-1.045,0.648-1.045,0.648l-3.376,8.047h2.359l0.472-1.291h2.878l0.266,1.291h2.078
	l-1.812-8.695H25.238z M24.301,15.775l1.189-3.254l0.669,3.254H24.301z"/>
<path fill="#FFFFFF" d="M14.887,16.557l-0.337,1.952c0,0,1.011,0.491,2.555,0.491c1.544,0,3.875-0.8,3.875-2.977
	c0-2.261-3.159-2.471-3.159-3.454c0-0.983,2.204-0.857,3.173-0.323l0.323-1.867c0,0-0.997-0.379-2.036-0.379
	c-1.123,0-3.791,0.491-3.791,2.878c0,2.247,3.131,2.274,3.131,3.454C18.622,17.512,15.814,17.301,14.887,16.557z"/>
<path fill="#FFFFFF" d="M5.813,10.939c0,0-0.092-0.783-1.074-0.783H1.172L1.13,10.303c0,0,0.029,0.007,0.06,0.014
	c0.012,0.003,0.033,0.009,0.048,0.012c0.034,0.009,0.081,0.021,0.132,0.036c0.031,0.009,0.065,0.019,0.101,0.029
	c0.056,0.017,0.123,0.038,0.191,0.06c0.044,0.014,0.086,0.028,0.134,0.044c0.106,0.037,0.223,0.08,0.348,0.129
	c0.038,0.015,0.076,0.031,0.116,0.047c0.121,0.05,0.249,0.105,0.382,0.167c0.06,0.028,0.123,0.06,0.185,0.091
	c0.107,0.053,0.217,0.109,0.329,0.17c0.07,0.038,0.141,0.078,0.212,0.119c0.044,0.025,0.089,0.055,0.133,0.082l1.964,7.545h2.358
	l3.601-8.695H8.988l-2.158,5.98l-0.255-1.288l0,0L5.813,10.939z"/>
</svg>
