<?xml version="1.0" encoding="utf-8"?>
<!-- Generator: Adobe Illustrator 19.2.1, SVG Export Plug-In . SVG Version: 6.00 Build 0)  -->
<svg version="1.0" id="art" xmlns="http://www.w3.org/2000/svg" xmlns:xlink="http://www.w3.org/1999/xlink" x="0px" y="0px"
	 width="24px" height="24px" viewBox="0 0 24 24" enable-background="new 0 0 24 24" xml:space="preserve">
<g id="check">
</g>
<g>
	<g>
		<polygon fill="#1A1F71" points="10.565,15.852 8.805,15.852 9.905,9.089 11.666,9.089 		"/>
		<path fill="#1A1F71" d="M7.324,9.089L5.645,13.74l-0.199-1.002l0,0L4.854,9.698c0,0-0.072-0.609-0.835-0.609H1.245L1.212,9.204
			c0,0,0.849,0.176,1.842,0.773l1.53,5.875h1.834l2.801-6.763H7.324z"/>
		<path fill="#1A1F71" d="M21.171,15.852h1.617l-1.409-6.763h-1.415c-0.654,0-0.813,0.504-0.813,0.504l-2.625,6.259h1.835
			l0.367-1.004h2.238L21.171,15.852z M19.234,13.46l0.925-2.531l0.52,2.531H19.234z"/>
		<path fill="#1A1F71" d="M16.662,10.715l0.251-1.452c0,0-0.775-0.295-1.583-0.295c-0.874,0-2.948,0.382-2.948,2.239
			c0,1.747,2.435,1.769,2.435,2.686s-2.184,0.753-2.905,0.175l-0.262,1.518c0,0,0.786,0.382,1.987,0.382
			c1.201,0,3.014-0.622,3.014-2.315c0-1.758-2.457-1.922-2.457-2.686C14.194,10.202,15.909,10.3,16.662,10.715z"/>
	</g>
	<path fill="#FDBB0A" d="M5.447,12.739L4.854,9.698c0,0-0.072-0.609-0.835-0.609H1.245L1.212,9.204c0,0,1.334,0.276,2.613,1.312
		C5.048,11.505,5.447,12.739,5.447,12.739z"/>
</g>
</svg>
