<?xml version="1.0" encoding="utf-8"?>
<!-- Generator: Adobe Illustrator 19.2.1, SVG Export Plug-In . SVG Version: 6.00 Build 0)  -->
<svg version="1.0" id="art" xmlns="http://www.w3.org/2000/svg" xmlns:xlink="http://www.w3.org/1999/xlink" x="0px" y="0px"
	 width="30px" height="30px" viewBox="0 0 30 30" enable-background="new 0 0 30 30" xml:space="preserve">
<g>
	<path fill="#0086C7" d="M10,15.004c0-0.001,0-0.002,0-0.004c0-0.338,0.018-0.671,0.05-1h9.899c-0.034-0.339-0.084-0.672-0.15-1
		h-9.598c0.069-0.34,0.156-0.673,0.258-1h9.082c-0.108-0.342-0.236-0.675-0.378-1h-8.325c0.151-0.345,0.324-0.677,0.511-1h7.302
		c-0.201-0.348-0.424-0.68-0.665-1h-5.973c0.264-0.351,0.544-0.687,0.851-1h4.271c-0.357-0.364-0.745-0.694-1.154-1h-1.963
		C14.332,6.765,14.659,6.546,15,6.349C13.528,5.496,11.824,5,10,5C4.477,5,0,9.477,0,15s4.477,10,10,10c1.556,0,3.023-0.366,4.337-1
		c0.226-0.109,0.447-0.224,0.663-0.349c0.341-0.198,0.668-0.416,0.982-0.651h-1.963c-0.409-0.306-0.797-0.636-1.154-1h4.271
		c0.307-0.313,0.587-0.649,0.851-1h-5.973c-0.24-0.32-0.463-0.652-0.665-1h7.302c0.187-0.323,0.36-0.655,0.511-1h-8.325
		c-0.142-0.325-0.271-0.658-0.378-1h9.082c0.103-0.327,0.189-0.66,0.258-1h-9.598c-0.067-0.328-0.117-0.661-0.15-1h9.899
		c0.033-0.329,0.05-0.662,0.05-1H10V15.004z"/>
</g>
<g>
	<g>
		<path fill-rule="evenodd" clip-rule="evenodd" fill="#EC1C2E" d="M20,5c-1.824,0-3.528,0.496-5,1.349
			C14.659,6.546,14.332,6.765,14.018,7h1.963c0.409,0.306,0.797,0.636,1.154,1h-4.271c-0.307,0.313-0.587,0.649-0.851,1h5.973
			c0.241,0.32,0.463,0.652,0.665,1h-7.302c-0.187,0.323-0.36,0.655-0.511,1h8.325c0.142,0.325,0.271,0.658,0.378,1h-9.082
			c-0.103,0.327-0.189,0.66-0.258,1h9.598c0.067,0.328,0.117,0.661,0.15,1H10.05C10.018,14.329,10,14.662,10,15
			c0,0.001,0,0.002,0,0.004V15h10c0,0.338-0.018,0.671-0.05,1H10.05c0.034,0.339,0.084,0.672,0.15,1h9.598
			c-0.069,0.34-0.156,0.673-0.258,1h-9.082c0.108,0.342,0.236,0.675,0.378,1h8.325c-0.151,0.345-0.324,0.677-0.511,1h-7.302
			c0.201,0.348,0.424,0.68,0.665,1h5.973c-0.264,0.351-0.544,0.687-0.851,1h-4.271c0.357,0.364,0.745,0.694,1.154,1h1.963
			c-0.314,0.235-0.641,0.454-0.982,0.651C16.472,24.504,18.176,25,20,25c5.523,0,10-4.477,10-10S25.523,5,20,5z"/>
	</g>
</g>
<g id="check">
</g>
<g>
	<polygon fill-rule="evenodd" clip-rule="evenodd" fill="#FFFFFF" points="18.378,14.661 18.329,14.658 18.279,14.653 
		18.234,14.646 18.19,14.641 18.145,14.633 18.1,14.626 18.053,14.618 18.004,14.611 17.951,14.606 17.897,14.601 17.835,14.596 
		17.768,14.594 17.693,14.594 17.611,14.596 17.519,14.601 17.42,14.608 17.348,14.618 17.281,14.633 17.219,14.653 17.165,14.676 
		17.115,14.703 17.07,14.733 17.033,14.767 17.003,14.802 16.981,14.842 16.966,14.884 16.958,14.926 16.958,14.971 16.968,15.018 
		16.986,15.065 17.013,15.112 17.048,15.16 17.12,15.224 17.204,15.276 17.304,15.321 17.41,15.358 17.522,15.395 17.639,15.433 
		17.758,15.475 17.872,15.524 17.979,15.584 18.08,15.656 18.17,15.748 18.244,15.857 18.301,15.991 18.339,16.15 18.351,16.339 
		18.339,16.562 18.311,16.728 18.267,16.877 18.21,17.011 18.138,17.13 18.053,17.235 17.961,17.324 17.86,17.401 17.75,17.468 
		17.636,17.523 17.517,17.567 17.395,17.605 17.274,17.632 17.152,17.652 17.033,17.664 16.919,17.672 16.807,17.674 16.653,17.674 
		16.514,17.672 16.388,17.669 16.271,17.667 16.164,17.662 16.07,17.657 15.98,17.649 15.901,17.639 15.827,17.629 15.757,17.617 
		15.693,17.605 15.628,17.587 15.568,17.57 15.509,17.553 15.449,17.53 15.387,17.508 15.541,16.728 15.576,16.736 15.618,16.748 
		15.67,16.761 15.727,16.776 15.794,16.788 15.869,16.805 15.948,16.82 16.033,16.835 16.122,16.848 16.216,16.86 16.313,16.87 
		16.415,16.88 16.517,16.885 16.621,16.887 16.725,16.887 16.832,16.882 16.931,16.865 17.013,16.838 17.075,16.798 17.125,16.753 
		17.162,16.701 17.189,16.646 17.212,16.592 17.227,16.537 17.234,16.48 17.232,16.43 17.219,16.383 17.199,16.344 17.172,16.304 
		17.137,16.269 17.095,16.237 17.048,16.207 16.996,16.18 16.939,16.152 16.877,16.125 16.812,16.1 16.747,16.076 16.678,16.048 
		16.609,16.021 16.536,15.991 16.467,15.961 16.398,15.929 16.328,15.892 16.261,15.852 16.196,15.81 16.137,15.763 16.08,15.708 
		16.028,15.651 15.98,15.587 15.938,15.517 15.904,15.44 15.874,15.358 15.854,15.266 15.841,15.167 15.839,15.058 15.846,14.941 
		15.854,14.869 15.864,14.8 15.874,14.733 15.889,14.668 15.904,14.606 15.921,14.544 15.943,14.487 15.966,14.43 15.993,14.378 
		16.02,14.326 16.052,14.278 16.087,14.231 16.124,14.187 16.164,14.144 16.206,14.105 16.254,14.067 16.303,14.033 16.355,14 
		16.412,13.971 16.472,13.941 16.534,13.916 16.601,13.891 16.671,13.871 16.745,13.851 16.824,13.834 16.906,13.819 16.991,13.807 
		17.08,13.797 17.174,13.789 17.274,13.784 17.375,13.779 17.482,13.779 17.614,13.779 17.733,13.782 17.84,13.784 17.939,13.789 
		18.026,13.794 18.105,13.799 18.177,13.807 18.239,13.812 18.296,13.819 18.346,13.827 18.393,13.832 18.433,13.839 18.468,13.844 
		18.5,13.849 18.53,13.854 18.557,13.856 18.378,14.661 	"/>
	<polygon fill="#FFFFFF" points="19.195,13 20.193,13 20.039,13.869 20.652,13.869 20.513,14.661 19.885,14.648 19.555,16.627 
		19.55,16.669 19.55,16.706 19.555,16.738 19.565,16.768 19.58,16.793 19.597,16.818 19.619,16.838 19.644,16.852 19.674,16.867 
		19.704,16.88 19.739,16.89 19.773,16.895 19.813,16.902 19.853,16.905 19.895,16.907 19.937,16.907 20.017,16.907 20.086,16.902 
		20.151,16.892 20.205,16.88 20.247,16.867 20.28,16.855 20.3,16.845 20.307,16.843 20.205,17.52 20.18,17.535 20.153,17.548 
		20.126,17.56 20.099,17.572 20.071,17.582 20.041,17.592 20.012,17.602 19.977,17.612 19.942,17.622 19.905,17.629 19.863,17.637 
		19.818,17.644 19.771,17.652 19.721,17.659 19.664,17.667 19.605,17.674 19.337,17.674 19.195,17.664 19.068,17.649 18.957,17.629 
		18.86,17.602 18.778,17.572 18.708,17.535 18.651,17.493 18.604,17.446 18.567,17.394 18.54,17.337 18.522,17.274 18.512,17.205 
		18.51,17.133 18.512,17.054 18.52,16.972 18.532,16.882 19.195,13 	"/>
	<g>
		<polygon fill="none" points="14.553,15.241 14.553,15.155 14.548,15.073 14.533,14.998 14.513,14.931 14.489,14.869 
			14.456,14.815 14.419,14.765 14.377,14.72 14.33,14.683 14.28,14.653 14.228,14.628 14.171,14.608 14.111,14.594 14.049,14.586 
			13.985,14.584 13.915,14.584 13.851,14.594 13.786,14.606 13.727,14.626 13.669,14.653 13.615,14.685 13.563,14.723 
			13.516,14.765 13.471,14.815 13.431,14.867 13.394,14.924 13.359,14.986 13.329,15.05 13.305,15.12 13.285,15.194 13.267,15.271 
			13.255,15.336 14.546,15.336 		"/>
		<path fill="#FFFFFF" d="M15.531,14.996l-0.012-0.109l-0.02-0.104l-0.022-0.097l-0.03-0.092l-0.035-0.084l-0.04-0.079l-0.042-0.072
			l-0.047-0.069l-0.052-0.062l-0.055-0.057l-0.06-0.052l-0.06-0.05l-0.065-0.042l-0.065-0.04l-0.067-0.035l-0.07-0.03l-0.072-0.027
			l-0.072-0.022l-0.072-0.02l-0.072-0.017l-0.074-0.015l-0.072-0.01l-0.072-0.007l-0.072-0.005l-0.069-0.005h-0.07l-0.149,0.005
			l-0.139,0.01l-0.134,0.017l-0.127,0.025l-0.119,0.03l-0.112,0.037l-0.107,0.042l-0.099,0.045l-0.094,0.052l-0.087,0.055
			l-0.082,0.06l-0.074,0.065l-0.072,0.065l-0.065,0.07l-0.06,0.072l-0.057,0.072l-0.05,0.074l-0.047,0.077l-0.042,0.077l-0.04,0.077
			l-0.035,0.077l-0.032,0.077l-0.027,0.074L12.2,15.122l-0.02,0.074l-0.02,0.072l-0.017,0.07l-0.012,0.067l-0.012,0.064l-0.01,0.06
			l-0.007,0.06l-0.007,0.052l-0.012,0.149l-0.005,0.144v0.134l0.01,0.129l0.015,0.124l0.022,0.114l0.027,0.109l0.035,0.104
			l0.04,0.097l0.045,0.092l0.05,0.084l0.055,0.082l0.057,0.074l0.065,0.07l0.067,0.065l0.07,0.06l0.075,0.055l0.074,0.05
			l0.079,0.045l0.082,0.042l0.084,0.037l0.084,0.032l0.087,0.027l0.087,0.027l0.089,0.02l0.089,0.02l0.089,0.015l0.092,0.012
			l0.089,0.01l0.087,0.005l0.089,0.005h0.087h0.119l0.109-0.002h0.099l0.089-0.005l0.082-0.002l0.077-0.007l0.069-0.007l0.065-0.007
			l0.062-0.012l0.057-0.012l0.055-0.015l0.055-0.02l0.055-0.02l0.052-0.022l0.057-0.027l0.057-0.03l0.154-0.881l-0.104,0.06
			l-0.102,0.055L15,16.761l-0.099,0.037l-0.099,0.032l-0.099,0.025l-0.099,0.017l-0.097,0.015l-0.094,0.007L14.315,16.9h-0.092
			l-0.094-0.002l-0.092-0.005l-0.092-0.01l-0.089-0.012l-0.089-0.012l-0.074-0.017l-0.075-0.025l-0.069-0.032l-0.067-0.04
			l-0.062-0.047l-0.057-0.05l-0.055-0.057l-0.047-0.06l-0.042-0.062l-0.035-0.065l-0.03-0.067l-0.02-0.067l-0.015-0.065
			l-0.005-0.067l0.002-0.062l0.01-0.05h2.299l0.04-0.218l0.03-0.154l0.022-0.146l0.012-0.139l0.007-0.132v-0.124L15.531,14.996z
			 M14.553,15.241l-0.007,0.094h-1.29l0.012-0.065l0.017-0.077l0.02-0.074l0.025-0.07l0.03-0.064l0.035-0.062l0.037-0.057
			l0.04-0.052l0.045-0.05l0.047-0.042l0.052-0.037l0.055-0.032l0.057-0.027l0.06-0.02l0.065-0.012l0.064-0.01h0.07l0.065,0.002
			l0.062,0.007l0.06,0.015l0.057,0.02l0.052,0.025l0.05,0.03l0.047,0.037l0.042,0.045l0.037,0.05l0.032,0.055l0.025,0.062
			l0.02,0.067l0.015,0.075l0.005,0.082V15.241z"/>
	</g>
	<path fill-rule="evenodd" clip-rule="evenodd" fill="#FFFFFF" d="M12.136,14.738l-0.022-0.127l-0.04-0.117l-0.055-0.107
		l-0.07-0.097l-0.082-0.087l-0.092-0.079l-0.099-0.069l-0.104-0.06l-0.112-0.052l-0.112-0.042l-0.112-0.032l-0.112-0.027
		l-0.107-0.015l-0.102-0.01l-0.124-0.002l-0.119-0.002h-0.114h-0.114h-0.109l-0.104,0.002l-0.102,0.005l-0.099,0.005l-0.097,0.01
		l-0.094,0.012L9.75,13.861l-0.087,0.017l-0.084,0.022l-0.079,0.027L9.42,13.961l-0.074,0.035L9.09,14.839l0.037-0.022l0.052-0.02
		l0.065-0.02l0.077-0.02l0.087-0.02l0.092-0.017l0.102-0.015l0.107-0.017l0.112-0.012l0.114-0.012l0.114-0.01l0.114-0.007
		l0.114-0.007l0.112-0.002l0.107-0.002l0.102,0.002l0.042,0.005l0.042,0.007l0.042,0.01l0.04,0.012l0.037,0.017l0.037,0.02
		l0.032,0.02l0.032,0.025l0.03,0.03l0.025,0.03l0.025,0.032l0.02,0.035l0.017,0.037l0.012,0.04l0.007,0.042l0.005,0.045v0.062
		l-0.012,0.07l-0.017,0.06l-0.007,0.025h-0.002h-0.01h-0.015l-0.02-0.003h-0.025l-0.027-0.002h-0.032l-0.035-0.002H10.8h-0.04
		l-0.04-0.002h-0.042l-0.045-0.002h-0.042h-0.042h-0.042h-0.04l-0.047,0.002l-0.052,0.002l-0.055,0.005l-0.06,0.005l-0.062,0.005
		l-0.06,0.007l-0.06,0.005l-0.06,0.005l-0.055,0.007l-0.05,0.005l-0.042,0.005l-0.037,0.005l-0.027,0.003l-0.017,0.002H9.78
		l-0.122,0.022l-0.119,0.03l-0.117,0.04l-0.114,0.05L9.199,15.51l-0.104,0.067l-0.097,0.072L8.906,15.73l-0.082,0.092l-0.077,0.097
		l-0.065,0.104l-0.057,0.112l-0.047,0.119l-0.032,0.127l-0.022,0.132l-0.01,0.139l0.002,0.077l0.005,0.079l0.01,0.082l0.015,0.079
		l0.022,0.082l0.027,0.08l0.035,0.077l0.042,0.074l0.05,0.075l0.06,0.067l0.067,0.065l0.079,0.057l0.089,0.052l0.102,0.047
		l0.112,0.04l0.127,0.03l0.097,0.015l0.099,0.007l0.102-0.002l0.104-0.008l0.104-0.015l0.104-0.02l0.104-0.027l0.102-0.032
		l0.097-0.037l0.094-0.04l0.089-0.045l0.082-0.047l0.077-0.05l0.067-0.052l0.06-0.055l0.047-0.055l-0.01,0.017l-0.01,0.03
		l-0.007,0.045l-0.01,0.052l-0.01,0.062l-0.01,0.067l-0.01,0.075l-0.01,0.074h0.896l0.141-0.792l0.37-1.864l0.02-0.146
		L12.136,14.738z M10.882,15.996l-0.01,0.052l-0.01,0.055l-0.01,0.06l-0.012,0.062l-0.012,0.059l-0.012,0.057l-0.012,0.055
		l-0.012,0.037l-0.015,0.04l-0.02,0.04l-0.025,0.042l-0.03,0.042l-0.035,0.04l-0.04,0.042l-0.047,0.037l-0.052,0.037l-0.06,0.035
		l-0.067,0.03l-0.074,0.025l-0.082,0.022l-0.092,0.017l-0.097,0.01l-0.109,0.002l-0.06-0.002L9.824,16.88l-0.057-0.025l-0.055-0.037
		l-0.045-0.055l-0.03-0.074l-0.017-0.094l0.005-0.122l0.012-0.06l0.02-0.057l0.025-0.052l0.035-0.047l0.037-0.045l0.042-0.04
		l0.045-0.037L9.889,16.1l0.047-0.027l0.047-0.027l0.047-0.022l0.042-0.017l0.04-0.017l0.037-0.012l0.03-0.01l0.022-0.005
		l0.04-0.012l0.045-0.012l0.052-0.01l0.055-0.01l0.057-0.01l0.057-0.007l0.06-0.007l0.057-0.005h0.055h0.052l0.045,0.002
		l0.042,0.005l0.032,0.007l0.025,0.012l0.015,0.015l0.002,0.02L10.882,15.996z"/>
	<polygon fill-rule="evenodd" clip-rule="evenodd" fill="#FFFFFF" points="4.257,17.674 3.286,17.674 4.103,13 5.791,13 
		5.957,15.783 7.106,13 8.859,13 8.04,17.674 7.069,17.674 7.682,14.174 7.645,14.174 6.2,17.674 5.113,17.674 5.103,17.528 
		5.081,17.138 5.049,16.587 5.011,15.954 4.974,15.316 4.942,14.752 4.919,14.345 4.91,14.174 4.907,14.174 4.897,14.174 
		4.887,14.174 4.875,14.174 4.865,14.174 4.86,14.174 4.87,14.174 4.257,17.674 	"/>
	<polygon fill-rule="evenodd" clip-rule="evenodd" fill="#FFFFFF" points="20.473,17.674 21.484,17.674 21.829,15.656 
		21.844,15.577 21.861,15.5 21.881,15.423 21.906,15.351 21.933,15.279 21.968,15.212 22.01,15.147 22.057,15.085 22.114,15.03 
		22.179,14.981 22.256,14.936 22.34,14.896 22.439,14.864 22.551,14.839 22.675,14.824 22.814,14.815 22.827,14.815 22.841,14.817 
		22.861,14.819 22.881,14.819 22.899,14.822 22.913,14.824 22.923,14.827 22.928,14.827 22.931,14.812 22.941,14.77 22.953,14.705 
		22.973,14.623 22.998,14.532 23.025,14.432 23.057,14.333 23.095,14.239 23.122,14.169 23.154,14.102 23.186,14.035 23.221,13.973 
		23.251,13.921 23.276,13.879 23.293,13.851 23.298,13.841 23.293,13.841 23.281,13.837 23.263,13.834 23.239,13.829 23.214,13.824 
		23.184,13.822 23.157,13.817 23.132,13.817 23.023,13.824 22.923,13.837 22.831,13.856 22.747,13.879 22.668,13.909 22.596,13.941 
		22.526,13.98 22.464,14.023 22.402,14.07 22.345,14.122 22.293,14.177 22.238,14.236 22.186,14.298 22.136,14.365 22.084,14.435 
		22.032,14.507 22.149,13.869 21.139,13.856 20.473,17.674 	"/>
	<path fill="#FFFFFF" d="M26.711,15.522l-0.005-0.102l-0.01-0.097l-0.015-0.097l-0.02-0.094l-0.022-0.092l-0.027-0.087l-0.03-0.087
		l-0.037-0.082l-0.037-0.082l-0.045-0.077l-0.047-0.074l-0.05-0.07l-0.055-0.07l-0.06-0.065l-0.062-0.062l-0.064-0.057l-0.07-0.055
		l-0.074-0.052l-0.074-0.047l-0.082-0.042l-0.082-0.04l-0.087-0.037l-0.092-0.032l-0.092-0.027l-0.097-0.025l-0.099-0.02
		l-0.104-0.015l-0.107-0.01l-0.109-0.007l-0.112-0.002l-0.107,0.002l-0.107,0.005l-0.104,0.012l-0.102,0.012l-0.099,0.02
		l-0.097,0.022l-0.094,0.027l-0.092,0.03l-0.087,0.035l-0.087,0.037l-0.084,0.045l-0.082,0.045l-0.077,0.05l-0.074,0.055
		l-0.072,0.057l-0.07,0.062L23.345,14.4l-0.062,0.067l-0.06,0.075l-0.055,0.074l-0.052,0.082l-0.05,0.082l-0.045,0.087l-0.04,0.092
		l-0.037,0.094l-0.032,0.097l-0.03,0.102l-0.025,0.104l-0.022,0.107l-0.017,0.112l-0.012,0.114l-0.007,0.119l-0.002,0.117
		l0.002,0.114l0.007,0.109l0.012,0.107l0.017,0.102l0.022,0.099l0.027,0.097l0.03,0.092l0.035,0.087l0.037,0.084l0.045,0.082
		l0.045,0.077l0.052,0.074l0.052,0.07l0.06,0.067l0.06,0.062l0.065,0.06l0.069,0.055l0.07,0.052l0.074,0.047l0.077,0.045l0.08,0.04
		l0.082,0.037l0.087,0.032l0.087,0.03l0.089,0.025l0.094,0.02l0.094,0.017l0.097,0.015l0.097,0.01l0.102,0.005l0.102,0.002
		l0.102-0.002l0.102-0.005l0.099-0.01l0.099-0.012l0.094-0.017l0.094-0.02l0.094-0.025l0.089-0.03l0.089-0.032l0.084-0.037
		l0.084-0.04l0.082-0.045l0.077-0.047l0.077-0.052l0.072-0.057l0.07-0.06l0.067-0.065l0.065-0.067l0.062-0.072l0.057-0.077
		l0.052-0.079l0.052-0.084l0.045-0.089l0.045-0.092l0.037-0.097l0.035-0.102l0.032-0.104l0.025-0.109l0.022-0.114l0.017-0.117
		l0.015-0.122l0.007-0.127l0.002-0.104L26.711,15.522z M25.517,15.448l-0.007,0.102l-0.012,0.107l-0.022,0.136l-0.025,0.127
		l-0.032,0.117l-0.037,0.107l-0.04,0.097l-0.047,0.089l-0.05,0.079l-0.052,0.07l-0.06,0.062l-0.062,0.052l-0.067,0.045l-0.07,0.035
		l-0.074,0.027l-0.077,0.017l-0.082,0.01l-0.084,0.002l-0.077-0.005l-0.072-0.01l-0.07-0.02l-0.062-0.027l-0.057-0.035l-0.052-0.045
		l-0.047-0.052l-0.042-0.062l-0.035-0.072l-0.027-0.079l-0.022-0.087l-0.015-0.099l-0.007-0.109v-0.117l0.007-0.129l0.015-0.139
		l0.015-0.082l0.017-0.084l0.025-0.084l0.03-0.084l0.032-0.084l0.04-0.079l0.045-0.079l0.052-0.074l0.055-0.07l0.062-0.062
		l0.07-0.055l0.074-0.05l0.082-0.037l0.087-0.03l0.094-0.017l0.102-0.007h0.082l0.074,0.012l0.07,0.02l0.064,0.032l0.057,0.04
		l0.052,0.05l0.045,0.055l0.04,0.065l0.032,0.072l0.027,0.077l0.02,0.084l0.012,0.087l0.007,0.094V15.448z"/>
</g>
</svg>
