<?xml version="1.0" encoding="utf-8"?>
<!-- Generator: Adobe Illustrator 19.2.1, SVG Export Plug-In . SVG Version: 6.00 Build 0)  -->
<svg version="1.0" id="art" xmlns="http://www.w3.org/2000/svg" xmlns:xlink="http://www.w3.org/1999/xlink" x="0px" y="0px"
	 width="36px" height="36px" viewBox="0 0 36 36" enable-background="new 0 0 36 36" xml:space="preserve">
<g>
	<g>
		<path fill-rule="evenodd" clip-rule="evenodd" fill="#EC1C2E" d="M23.95,17H12.05c0.028-0.338,0.074-0.67,0.129-1h11.64
			c-0.057-0.339-0.129-0.672-0.213-1H12.393c0.088-0.34,0.188-0.673,0.304-1h10.605c-0.121-0.341-0.254-0.674-0.404-1h-9.797
			c0.157-0.342,0.329-0.676,0.517-1h8.763c-0.2-0.345-0.416-0.678-0.648-1h-7.466c0.251-0.348,0.521-0.681,0.807-1h5.853
			c-0.316-0.353-0.652-0.687-1.007-1h-3.838C16.673,8.479,17.314,8.016,18,7.619C16.233,6.595,14.188,6,12,6C5.373,6,0,11.373,0,18
			s5.373,12,12,12c2.188,0,4.233-0.595,6-1.618c-0.212-0.123-0.424-0.246-0.628-0.381h1.256c0.455-0.302,0.882-0.64,1.291-1h-3.838
			c-0.356-0.313-0.691-0.647-1.007-1h5.853c0.286-0.319,0.556-0.652,0.807-1h-7.466c-0.232-0.322-0.449-0.655-0.648-1h8.763
			c0.188-0.324,0.36-0.658,0.517-1h-9.797c-0.15-0.326-0.283-0.659-0.404-1h10.605c0.116-0.327,0.217-0.66,0.304-1H12.393
			c-0.085-0.328-0.156-0.661-0.213-1h11.64c0.055-0.33,0.102-0.662,0.129-1H12.05C12.023,18.669,12,18.338,12,18h12
			C24,17.662,23.977,17.331,23.95,17z"/>
	</g>
</g>
<g>
	<path fill="#FBB131" d="M24,6c-2.188,0-4.234,0.595-6,1.619C17.314,8.016,16.673,8.479,16.081,9h3.838
		c0.356,0.313,0.691,0.647,1.007,1h-5.853c-0.286,0.319-0.556,0.652-0.807,1h7.466c0.232,0.322,0.448,0.655,0.648,1h-8.763
		c-0.188,0.324-0.36,0.658-0.517,1h9.797c0.15,0.326,0.283,0.659,0.404,1H12.697c-0.116,0.327-0.217,0.66-0.304,1h11.213
		c0.085,0.328,0.156,0.661,0.213,1H12.18c-0.055,0.33-0.102,0.662-0.129,1H23.95c0.027,0.331,0.05,0.662,0.05,1H12
		c0,0.338,0.023,0.669,0.05,1H23.95c-0.028,0.338-0.074,0.67-0.129,1H12.18c0.057,0.339,0.129,0.672,0.213,1h11.213
		c-0.088,0.34-0.188,0.673-0.304,1H12.697c0.121,0.341,0.254,0.674,0.404,1h9.797c-0.157,0.342-0.329,0.676-0.517,1h-8.763
		c0.2,0.345,0.416,0.678,0.648,1h7.466c-0.251,0.348-0.521,0.681-0.807,1h-5.853c0.316,0.353,0.652,0.687,1.007,1h3.838
		c-0.409,0.36-0.836,0.698-1.291,1h-1.256c0.204,0.135,0.416,0.258,0.628,0.381C19.766,29.405,21.812,30,24,30
		c6.627,0,12-5.373,12-12C36,11.373,30.627,6,24,6z"/>
</g>
<g id="check">
</g>
<g>
	<polygon fill="#FFFFFF" points="11.687,18.098 11.705,18.058 11.727,18.018 11.76,17.986 11.796,17.949 11.844,17.92 
		11.894,17.895 11.949,17.873 12.011,17.851 12.08,17.84 12.153,17.829 12.258,17.822 12.353,17.815 12.436,17.811 12.513,17.811 
		12.582,17.815 12.647,17.818 12.705,17.822 12.756,17.829 12.807,17.836 12.854,17.844 12.902,17.851 12.945,17.858 12.993,17.865 
		13.04,17.873 13.091,17.88 13.142,17.884 13.327,17.062 13.298,17.058 13.265,17.051 13.233,17.047 13.196,17.04 13.153,17.033 
		13.105,17.025 13.054,17.015 12.993,17.007 12.927,17 12.854,16.993 12.771,16.985 12.68,16.978 12.578,16.974 12.465,16.971 
		12.342,16.967 12.207,16.967 11.993,16.971 11.796,16.985 11.618,17.011 11.454,17.044 11.309,17.084 11.178,17.138 11.062,17.196 
		10.956,17.265 10.865,17.346 10.789,17.436 10.723,17.531 10.665,17.64 10.622,17.756 10.585,17.88 10.56,18.015 10.542,18.156 
		10.538,18.389 10.571,18.586 10.636,18.749 10.727,18.887 10.843,19 10.971,19.095 11.109,19.171 11.254,19.236 11.396,19.294 
		11.538,19.345 11.665,19.4 11.774,19.454 11.865,19.516 11.927,19.589 11.96,19.68 11.953,19.785 11.938,19.84 11.92,19.898 
		11.891,19.956 11.854,20.007 11.803,20.058 11.738,20.098 11.654,20.127 11.549,20.149 11.444,20.153 11.338,20.153 11.233,20.149 
		11.127,20.145 11.025,20.135 10.927,20.124 10.833,20.109 10.742,20.094 10.654,20.08 10.574,20.062 10.502,20.047 10.436,20.033 
		10.374,20.018 10.324,20.004 10.283,19.993 10.251,19.985 10.087,20.789 10.149,20.811 10.207,20.833 10.265,20.855 10.327,20.869 
		10.389,20.887 10.458,20.898 10.527,20.913 10.604,20.92 10.687,20.931 10.774,20.938 10.873,20.945 10.982,20.949 11.102,20.953 
		11.229,20.953 11.374,20.956 11.531,20.956 11.643,20.953 11.764,20.945 11.884,20.935 12.007,20.913 12.134,20.884 12.258,20.847 
		12.378,20.8 12.494,20.745 12.607,20.676 12.709,20.596 12.803,20.505 12.887,20.4 12.96,20.28 13.018,20.142 13.062,19.993 
		13.087,19.822 13.102,19.593 13.087,19.396 13.051,19.233 12.993,19.095 12.916,18.982 12.825,18.891 12.724,18.815 12.614,18.753 
		12.498,18.705 12.378,18.662 12.258,18.622 12.142,18.586 12.033,18.545 11.931,18.498 11.844,18.444 11.771,18.375 11.734,18.327 
		11.705,18.28 11.691,18.233 11.68,18.186 11.68,18.142 	"/>
	<polygon fill="#FFFFFF" points="15.109,20.105 15.076,20.116 15.029,20.131 14.971,20.145 14.905,20.156 14.833,20.164 
		14.753,20.167 14.665,20.16 14.585,20.145 14.513,20.124 14.447,20.098 14.4,20.058 14.364,20.011 14.345,19.949 14.349,19.876 
		14.698,17.847 15.338,17.865 15.469,17.044 14.862,17.044 15.011,16.164 14.004,16.164 13.309,20.131 13.298,20.222 13.287,20.305 
		13.287,20.385 13.291,20.462 13.302,20.531 13.32,20.593 13.345,20.655 13.382,20.705 13.429,20.753 13.491,20.796 13.56,20.833 
		13.644,20.865 13.742,20.891 13.858,20.913 13.985,20.927 14.131,20.938 14.407,20.938 14.469,20.931 14.527,20.924 14.582,20.916 
		14.629,20.909 14.673,20.902 14.716,20.894 14.753,20.887 14.789,20.876 14.822,20.865 14.854,20.855 14.884,20.844 14.909,20.833 
		14.935,20.818 14.96,20.804 14.985,20.789 15.011,20.771 15.138,20.094 15.131,20.098 	"/>
	<path fill="#FFFFFF" d="M18.295,19.96l-0.105,0.044l-0.102,0.04l-0.098,0.033l-0.102,0.022l-0.098,0.018l-0.098,0.015l-0.098,0.007
		l-0.095,0.004H17.4l-0.095-0.004l-0.095-0.007l-0.095-0.011l-0.091-0.011l-0.095-0.015l-0.073-0.014l-0.073-0.025l-0.073-0.033
		l-0.065-0.04l-0.065-0.044l-0.058-0.055l-0.054-0.055l-0.051-0.062l-0.044-0.062l-0.04-0.069l-0.029-0.065l-0.025-0.069
		l-0.014-0.069l-0.007-0.069l0.004-0.065l0.008-0.044h2.36l0.018-0.222l0.055-0.306l0.025-0.276l-0.004-0.247l-0.029-0.218
		l-0.051-0.193l-0.073-0.167L18.48,17.48l-0.109-0.124l-0.12-0.102l-0.131-0.087l-0.142-0.065l-0.146-0.055l-0.149-0.036
		l-0.149-0.025l-0.149-0.015l-0.142-0.004l-0.295,0.015l-0.262,0.044l-0.236,0.065l-0.211,0.091l-0.182,0.109l-0.16,0.124
		l-0.142,0.138l-0.116,0.146l-0.102,0.153l-0.084,0.16l-0.066,0.156l-0.054,0.156l-0.04,0.153l-0.029,0.142l-0.022,0.135
		l-0.014,0.116l-0.018,0.298l0.011,0.269l0.04,0.244l0.062,0.214l0.087,0.193l0.105,0.167l0.124,0.149l0.142,0.124l0.153,0.106
		l0.164,0.091l0.171,0.069l0.178,0.055l0.182,0.044l0.182,0.026l0.182,0.018l0.178,0.004h0.12l0.113-0.004h0.098l0.094-0.004
		l0.084-0.007l0.076-0.007l0.073-0.007l0.066-0.011l0.062-0.011l0.058-0.015l0.058-0.018l0.054-0.018l0.055-0.022l0.058-0.022
		l0.058-0.029l0.058-0.029l0.145-0.895l-0.106,0.062L18.295,19.96z M16.418,18.484l0.015-0.076l0.022-0.073l0.025-0.073l0.033-0.065
		l0.033-0.062l0.04-0.058l0.044-0.055l0.047-0.051l0.047-0.044l0.055-0.04l0.055-0.033l0.062-0.029l0.062-0.022l0.062-0.014
		l0.065-0.011l0.069-0.004l0.065,0.007l0.062,0.011l0.058,0.015l0.058,0.022l0.055,0.029l0.055,0.033l0.047,0.036l0.044,0.044
		l0.036,0.051l0.036,0.055l0.025,0.062l0.025,0.069l0.014,0.073l0.007,0.08l0.004,0.087l-0.007,0.091h-1.331L16.418,18.484z"/>
	<polygon fill="#FFFFFF" points="24.746,17.164 24.8,17.189 24.851,17.215 24.898,17.236 24.946,17.262 25.127,16.255 
		25.106,16.247 25.073,16.233 25.029,16.218 24.978,16.2 24.92,16.178 24.851,16.156 24.778,16.135 24.695,16.113 24.607,16.091 
		24.513,16.073 24.415,16.051 24.313,16.036 24.204,16.022 24.095,16.011 23.982,16.004 23.866,16 23.727,16.004 23.596,16.011 
		23.465,16.025 23.342,16.044 23.218,16.065 23.102,16.091 22.989,16.12 22.876,16.156 22.771,16.196 22.669,16.24 22.571,16.287 
		22.473,16.342 22.382,16.4 22.295,16.462 22.211,16.531 22.127,16.604 22.051,16.68 21.978,16.76 21.905,16.847 21.84,16.938 
		21.775,17.033 21.713,17.135 21.658,17.24 21.604,17.353 21.553,17.465 21.505,17.585 21.458,17.713 21.418,17.84 21.382,17.975 
		21.345,18.116 21.313,18.262 21.284,18.411 21.244,18.713 21.236,18.996 21.251,19.255 21.295,19.498 21.36,19.72 21.447,19.924 
		21.549,20.105 21.669,20.269 21.804,20.415 21.949,20.542 22.102,20.651 22.262,20.738 22.429,20.811 22.596,20.865 22.764,20.902 
		22.931,20.92 23.134,20.931 23.32,20.935 23.484,20.931 23.625,20.924 23.753,20.909 23.862,20.894 23.956,20.876 24.04,20.851 
		24.105,20.829 24.164,20.804 24.215,20.778 24.255,20.749 24.287,20.727 24.316,20.702 24.338,20.68 24.36,20.662 24.524,19.691 
		24.451,19.756 24.375,19.815 24.291,19.862 24.2,19.902 24.109,19.931 24.018,19.956 23.924,19.975 23.829,19.985 23.738,19.993 
		23.647,19.993 23.564,19.993 23.484,19.985 23.411,19.978 23.345,19.971 23.291,19.96 23.244,19.949 23.105,19.916 22.982,19.869 
		22.869,19.815 22.771,19.749 22.684,19.673 22.607,19.589 22.542,19.495 22.487,19.396 22.447,19.287 22.415,19.178 22.389,19.062 
		22.378,18.938 22.375,18.815 22.382,18.687 22.396,18.56 22.418,18.429 22.476,18.196 22.545,17.993 22.622,17.811 22.702,17.651 
		22.789,17.516 22.88,17.4 22.975,17.305 23.073,17.225 23.175,17.16 23.276,17.109 23.378,17.069 23.48,17.04 23.582,17.022 
		23.68,17.011 23.775,17.004 23.866,17.004 23.956,17.004 24.044,17.004 24.127,17.011 24.211,17.018 24.287,17.029 24.364,17.044 
		24.433,17.058 24.502,17.076 24.567,17.098 24.629,17.12 24.691,17.142 	"/>
	<polygon fill="#FFFFFF" points="5.178,16.164 3.989,18.996 3.825,16.164 2.105,16.164 1.28,20.938 2.269,20.938 2.872,17.371 
		2.894,17.371 2.916,17.371 2.927,17.371 2.934,17.546 2.96,17.96 2.993,18.531 3.029,19.182 3.065,19.829 3.098,20.393 
		3.123,20.789 3.131,20.938 4.247,20.938 5.727,17.371 5.767,17.371 5.142,20.938 6.131,20.938 6.974,16.164 	"/>
	<polygon fill="#FFFFFF" points="30.713,17.938 30.764,17.938 30.793,17.938 30.804,17.938 30.967,17.004 30.866,17.011 
		30.767,17.022 30.676,17.04 30.589,17.065 30.509,17.095 30.433,17.131 30.36,17.171 30.291,17.215 30.226,17.265 30.164,17.316 
		30.106,17.375 30.047,17.433 29.993,17.495 29.938,17.564 29.884,17.629 29.833,17.702 29.942,17.044 28.92,17.044 28.24,20.938 
		29.266,20.938 29.633,18.869 29.647,18.789 29.669,18.709 29.691,18.629 29.72,18.549 29.757,18.469 29.8,18.393 29.847,18.32 
		29.906,18.251 29.971,18.189 30.044,18.131 30.127,18.076 30.222,18.033 30.327,17.996 30.444,17.967 30.571,17.945 	"/>
	<polygon fill="#FFFFFF" points="21.284,17.425 21.313,17.356 21.349,17.287 21.385,17.218 21.422,17.156 21.455,17.102 
		21.48,17.058 21.498,17.033 21.505,17.022 21.502,17.022 21.487,17.018 21.469,17.015 21.444,17.011 21.418,17.011 21.389,17.007 
		21.364,17.004 21.338,17.004 21.225,17.011 21.124,17.022 21.029,17.04 20.942,17.062 20.858,17.091 20.782,17.127 20.713,17.164 
		20.647,17.207 20.585,17.255 20.527,17.309 20.473,17.364 20.418,17.425 20.364,17.487 20.313,17.556 20.258,17.629 20.204,17.702 
		20.335,17.044 19.291,17.044 18.611,20.938 19.636,20.938 19.654,20.938 20.004,18.869 20.018,18.789 20.036,18.713 20.055,18.636 
		20.08,18.564 20.109,18.491 20.145,18.422 20.189,18.356 20.24,18.295 20.298,18.24 20.364,18.186 20.444,18.142 20.531,18.102 
		20.633,18.069 20.745,18.04 20.869,18.022 21.011,18.011 21.022,18.011 21.036,18.015 21.054,18.018 21.073,18.018 21.091,18.022 
		21.105,18.025 21.116,18.029 21.12,18.029 21.124,18.015 21.135,17.971 21.149,17.905 21.167,17.825 21.193,17.731 21.218,17.629 
		21.251,17.527 	"/>
	<path fill="#FFFFFF" d="M33.731,16.182l-0.255,1.429l-0.022-0.044l-0.029-0.044l-0.033-0.047l-0.036-0.047l-0.044-0.047
		l-0.047-0.047l-0.055-0.047l-0.058-0.044l-0.066-0.04l-0.073-0.04l-0.073-0.033l-0.084-0.029l-0.087-0.025l-0.095-0.018
		l-0.102-0.011l-0.105-0.004l-0.149,0.007l-0.145,0.022l-0.146,0.033l-0.145,0.051l-0.138,0.062l-0.138,0.08l-0.135,0.091
		l-0.127,0.105l-0.12,0.12l-0.113,0.131l-0.109,0.146l-0.095,0.164l-0.091,0.175l-0.076,0.185l-0.065,0.204l-0.055,0.214
		l-0.033,0.185l-0.018,0.185l-0.004,0.189l0.011,0.185l0.029,0.185l0.04,0.178l0.058,0.171l0.073,0.164l0.087,0.153l0.102,0.135
		l0.116,0.124l0.131,0.105l0.146,0.084l0.16,0.062l0.175,0.04l0.189,0.015h0.073l0.073-0.004l0.069-0.007l0.073-0.011l0.073-0.011
		l0.069-0.018l0.069-0.018l0.069-0.025l0.069-0.033l0.065-0.033l0.065-0.04l0.065-0.047l0.065-0.051l0.062-0.058l0.062-0.066
		l0.058-0.073v0.036l-0.073,0.404h1.007l0.822-4.756H33.731z M33.229,18.825l-0.011,0.105L33.2,19.033l-0.018,0.098l-0.025,0.098
		l-0.029,0.095l-0.036,0.091l-0.04,0.087l-0.047,0.084l-0.051,0.08l-0.055,0.073l-0.062,0.066l-0.069,0.062l-0.073,0.054
		l-0.076,0.044l-0.084,0.04l-0.087,0.025l-0.095,0.022l-0.102,0.007l-0.146-0.029l-0.12-0.08l-0.095-0.12l-0.073-0.149l-0.047-0.171
		l-0.025-0.178l-0.007-0.175l0.018-0.16l0.022-0.105l0.029-0.105l0.029-0.098l0.036-0.098l0.04-0.095l0.047-0.087l0.051-0.084
		l0.055-0.08l0.062-0.069l0.062-0.062l0.073-0.058l0.073-0.047l0.084-0.036l0.084-0.029l0.091-0.014l0.098-0.007l0.076,0.007
		l0.069,0.018l0.065,0.029l0.062,0.044l0.054,0.051l0.047,0.058l0.044,0.069l0.036,0.073l0.029,0.084L33.2,18.44l0.015,0.091
		l0.011,0.095l0.004,0.102V18.825z"/>
	<path fill="#FFFFFF" d="M28.367,18.065v-0.138l-0.025-0.124l-0.04-0.116l-0.054-0.109l-0.073-0.098l-0.084-0.087L28,17.313
		l-0.102-0.069l-0.109-0.062l-0.113-0.051l-0.113-0.044l-0.116-0.033l-0.113-0.025l-0.109-0.018l-0.102-0.007L27,17l-0.124-0.004
		H26.76h-0.113h-0.113L26.429,17l-0.105,0.004l-0.102,0.007l-0.098,0.007l-0.095,0.014l-0.091,0.014l-0.091,0.018l-0.087,0.018
		l-0.084,0.025l-0.084,0.029l-0.08,0.033l-0.255,0.876l0.04-0.022L25.349,18l0.065-0.022l0.08-0.022l0.087-0.018l0.095-0.018
		l0.105-0.018l0.109-0.015l0.113-0.014l0.116-0.011l0.116-0.011l0.12-0.007l0.116-0.004h0.113l0.109,0.004l0.102,0.004l0.087,0.007
		l0.08,0.022l0.076,0.033l0.065,0.047l0.055,0.055l0.047,0.065l0.029,0.073l0.015,0.08l-0.007,0.069l-0.011,0.076l-0.011,0.065
		l-0.007,0.025H27.2l-0.033-0.004l-0.058-0.004l-0.069-0.004h-0.08l-0.084-0.004l-0.087-0.004h-0.087h-0.04l-0.051,0.004
		l-0.051,0.004l-0.058,0.004l-0.062,0.007l-0.062,0.004l-0.065,0.007l-0.062,0.007l-0.058,0.007l-0.054,0.007l-0.051,0.004
		l-0.047,0.007l-0.036,0.004l-0.025,0.004L25.96,18.52h-0.007l-0.124,0.022l-0.12,0.033l-0.12,0.04l-0.113,0.051l-0.113,0.058
		l-0.106,0.069l-0.098,0.076l-0.095,0.084l-0.084,0.091l-0.076,0.102l-0.069,0.105l-0.055,0.116l-0.047,0.124l-0.033,0.127
		l-0.022,0.135l-0.007,0.142v0.08l0.007,0.08l0.011,0.084l0.015,0.084l0.018,0.08l0.029,0.08l0.033,0.08l0.044,0.076l0.051,0.073
		l0.058,0.069l0.069,0.065l0.08,0.058l0.095,0.055l0.102,0.047l0.116,0.036l0.131,0.033l0.098,0.014L25.727,21l0.102-0.004
		l0.105-0.007l0.102-0.014l0.102-0.018l0.102-0.029l0.098-0.029l0.091-0.036l0.091-0.044l0.087-0.044l0.076-0.047l0.073-0.051
		l0.065-0.051l0.054-0.055l0.047-0.055l-0.007,0.044v0.098l-0.004,0.131l-0.007,0.149h0.913l0.149-0.807l0.382-1.92L28.367,18.065z
		 M27.08,19.273l-0.015,0.102l-0.018,0.106l-0.015,0.102l-0.011,0.04l-0.014,0.044l-0.018,0.044l-0.025,0.044L26.931,19.8
		l-0.04,0.044l-0.044,0.047l-0.051,0.04l-0.058,0.044l-0.065,0.036l-0.069,0.033l-0.08,0.029l-0.084,0.025l-0.095,0.018
		l-0.102,0.011l-0.109,0.004l-0.062-0.004l-0.062-0.011l-0.062-0.022l-0.055-0.036l-0.044-0.055l-0.029-0.073l-0.018-0.098
		l0.004-0.124l0.011-0.062l0.022-0.058l0.025-0.055l0.033-0.051l0.04-0.047l0.04-0.04l0.047-0.04l0.047-0.033l0.047-0.033
		l0.051-0.025l0.044-0.022l0.047-0.022l0.04-0.015l0.036-0.011l0.029-0.011l0.025-0.004l0.036-0.007l0.047-0.011l0.047-0.007
		l0.055-0.011l0.055-0.007l0.058-0.007l0.058-0.007l0.058-0.007l0.054-0.004h0.055l0.047,0.004l0.04,0.004l0.036,0.011l0.025,0.011
		l0.015,0.018l0.007,0.022L27.08,19.273z"/>
	<path fill="#FFFFFF" d="M10.309,18.065v-0.138l-0.022-0.124l-0.036-0.116l-0.055-0.109l-0.073-0.098l-0.08-0.087l-0.091-0.08
		l-0.102-0.069l-0.109-0.062l-0.109-0.051L9.52,17.087l-0.116-0.033l-0.113-0.025l-0.109-0.018L9.08,17.004L8.953,17l-0.127-0.004
		h-0.12H8.589H8.476L8.367,17l-0.105,0.004L8.16,17.011l-0.098,0.007l-0.095,0.014l-0.095,0.014l-0.087,0.018l-0.087,0.018
		l-0.087,0.025l-0.08,0.029l-0.08,0.033l-0.258,0.876l0.04-0.022L7.283,18l0.065-0.022l0.08-0.022l0.087-0.018l0.095-0.018
		l0.105-0.018l0.109-0.015l0.113-0.014l0.116-0.011l0.116-0.011l0.12-0.007l0.116-0.004H8.52l0.109,0.004l0.102,0.004l0.095,0.007
		l0.087,0.022l0.076,0.033l0.069,0.047l0.058,0.055l0.044,0.065l0.033,0.073l0.015,0.08L9.2,18.298l-0.018,0.076L9.16,18.44
		l-0.007,0.025H9.142l-0.036-0.004l-0.051-0.004l-0.065-0.004h-0.08l-0.08-0.004l-0.087-0.004H8.658h-0.04l-0.051,0.004
		l-0.055,0.004l-0.058,0.004l-0.058,0.007l-0.065,0.004l-0.062,0.007l-0.062,0.007l-0.062,0.007l-0.055,0.007L8.04,18.502
		l-0.044,0.007l-0.04,0.004l-0.025,0.004L7.913,18.52H7.905l-0.127,0.022l-0.124,0.033l-0.12,0.04l-0.116,0.051l-0.109,0.058
		l-0.105,0.069l-0.102,0.076l-0.091,0.084l-0.087,0.091l-0.076,0.102l-0.065,0.105l-0.058,0.116l-0.047,0.124L6.64,19.618
		l-0.022,0.135l-0.011,0.142v0.08l0.007,0.08l0.011,0.084l0.015,0.084l0.022,0.08l0.029,0.08l0.036,0.08l0.044,0.076l0.051,0.073
		L6.88,20.68l0.073,0.065l0.08,0.058l0.091,0.055l0.102,0.047l0.116,0.036l0.127,0.033l0.098,0.014L7.669,21l0.105-0.004
		l0.105-0.007l0.109-0.014l0.106-0.022L8.2,20.927l0.105-0.033l0.098-0.036l0.095-0.044l0.091-0.044l0.087-0.051l0.076-0.051
		l0.069-0.055l0.058-0.058l0.051-0.058l-0.015,0.055l-0.014,0.102l-0.018,0.134l-0.025,0.149h0.916l0.146-0.807l0.367-1.92
		L10.309,18.065z M9.025,19.276l-0.022,0.117l-0.026,0.12l-0.029,0.105l-0.011,0.04l-0.018,0.04l-0.022,0.044l-0.026,0.044
		l-0.029,0.044l-0.036,0.04l-0.044,0.044l-0.047,0.036l-0.054,0.04L8.6,20.022l-0.069,0.033L8.458,20.08l-0.084,0.022L8.28,20.116
		l-0.098,0.011l-0.109,0.004l-0.058-0.004l-0.058-0.011l-0.062-0.022L7.84,20.058l-0.047-0.055l-0.036-0.073l-0.018-0.098
		l0.004-0.124l0.011-0.058l0.022-0.058L7.8,19.542l0.036-0.047l0.04-0.044l0.044-0.044l0.047-0.036l0.051-0.036l0.047-0.029
		l0.051-0.025l0.047-0.025l0.047-0.022l0.04-0.018l0.04-0.015l0.029-0.011l0.025-0.007l0.04-0.011l0.044-0.011l0.051-0.011
		l0.054-0.007l0.058-0.007l0.058-0.007l0.062-0.007l0.058-0.004h0.055H8.88l0.047,0.004l0.04,0.007l0.036,0.007l0.022,0.011
		l0.014,0.018l0.004,0.018L9.025,19.276z"/>
</g>
</svg>
