<?xml version="1.0" encoding="utf-8"?>
<!-- Generator: Adobe Illustrator 19.2.1, SVG Export Plug-In . SVG Version: 6.00 Build 0)  -->
<svg version="1.0" id="art" xmlns="http://www.w3.org/2000/svg" xmlns:xlink="http://www.w3.org/1999/xlink" x="0px" y="0px"
	 width="24px" height="24px" viewBox="0 0 24 24" enable-background="new 0 0 24 24" xml:space="preserve">
<g id="check">
</g>
<g id="g4155_1_">
	<g id="g4161_1_" transform="translate(302.4478,424.6084)">
		<path id="path4163_1_" fill="#1A1F71" d="M-290.715-417.485l-1.448,6.77h-1.752l1.448-6.77H-290.715z M-283.347-413.113
			l0.922-2.542l0.53,2.542H-283.347z M-281.391-410.715h1.619l-1.415-6.77h-1.494c-0.337,0-0.62,0.196-0.746,0.496l-2.628,6.274
			h1.839l0.365-1.011h2.247L-281.391-410.715z M-285.964-412.925c0.007-1.786-2.47-1.886-2.454-2.684
			c0.006-0.243,0.237-0.501,0.743-0.567c0.251-0.032,0.943-0.058,1.727,0.303l0.307-1.436c-0.421-0.152-0.964-0.299-1.638-0.299
			c-1.732,0-2.95,0.92-2.959,2.238c-0.011,0.975,0.87,1.518,1.533,1.843c0.683,0.332,0.912,0.545,0.908,0.841
			c-0.005,0.454-0.545,0.655-1.048,0.663c-0.881,0.014-1.392-0.238-1.799-0.428l-0.318,1.484c0.41,0.188,1.165,0.351,1.947,0.359
			C-287.173-410.608-285.969-411.518-285.964-412.925 M-293.218-417.485l-2.838,6.77h-1.852l-1.397-5.403
			c-0.085-0.332-0.158-0.454-0.416-0.595c-0.421-0.229-1.117-0.443-1.728-0.576l0.041-0.197h2.981c0.379,0,0.721,0.253,0.808,0.69
			l0.738,3.918l1.822-4.608H-293.218z"/>
	</g>
	<g id="g4165_1_" transform="translate(318.6445,362.2266)">
		<path id="path4167_1_" fill="#1A1F71" d="M-304.488-346.134h-0.724v0.674h0.81v0.203h-1.054v-1.87h1.012v0.203h-0.768v0.591h0.724
			V-346.134z"/>
	</g>
	<path id="path4169_1_" fill="#1A1F71" d="M14.617,15h0.244v1.969h-0.244V15z"/>
	<g id="g4171_1_" transform="translate(333.0977,361.6953)">
		<path id="path4173_1_" fill="#1A1F71" d="M-316.905-345.528c0.003-0.152-0.064-0.394-0.338-0.394c-0.25,0-0.355,0.225-0.375,0.394
			H-316.905z M-317.621-345.353c0.005,0.33,0.214,0.466,0.46,0.466c0.175,0,0.283-0.031,0.372-0.069l0.044,0.175
			c-0.086,0.039-0.236,0.086-0.449,0.086c-0.413,0-0.66-0.275-0.66-0.68s0.238-0.721,0.63-0.721c0.441,0,0.555,0.383,0.555,0.63
			c0,0.05-0.003,0.086-0.008,0.114H-317.621z"/>
	</g>
	<g id="g4175_1_" transform="translate(344.2041,356.3369)">
		<path id="path4177_1_" fill="#1A1F71" d="M-326.448-339.415c-0.064,0.031-0.205,0.078-0.386,0.078
			c-0.405,0-0.668-0.275-0.668-0.685c0-0.413,0.283-0.716,0.721-0.716c0.144,0,0.272,0.036,0.338,0.072l-0.055,0.186
			c-0.058-0.031-0.15-0.064-0.283-0.064c-0.308,0-0.474,0.23-0.474,0.508c0,0.311,0.2,0.502,0.466,0.502
			c0.139,0,0.23-0.033,0.299-0.064L-326.448-339.415z"/>
	</g>
	<g id="g4179_1_" transform="translate(349.0664,367.8213)">
		<path id="path4181_1_" fill="#1A1F71" d="M-330.626-352.516v0.322h0.349v0.186h-0.349v0.724c0,0.167,0.047,0.261,0.183,0.261
			c0.066,0,0.105-0.005,0.142-0.017l0.011,0.186c-0.047,0.017-0.122,0.033-0.216,0.033c-0.114,0-0.205-0.039-0.263-0.103
			c-0.067-0.075-0.094-0.194-0.094-0.352v-0.733h-0.208v-0.186h0.208v-0.25L-330.626-352.516z"/>
	</g>
	<g id="g4183_1_" transform="translate(353.9688,362.5615)">
		<path id="path4185_1_" fill="#1A1F71" d="M-334.838-346.516c0-0.158-0.003-0.294-0.011-0.419h0.214l0.011,0.266h0.008
			c0.061-0.18,0.211-0.294,0.374-0.294c0.025,0,0.044,0.003,0.067,0.005v0.23c-0.025-0.006-0.05-0.006-0.083-0.006
			c-0.172,0-0.294,0.128-0.327,0.311c-0.005,0.033-0.008,0.075-0.008,0.114v0.716h-0.244V-346.516z"/>
	</g>
	<g id="g4187_1_" transform="translate(361.7861,360.749)">
		<path id="path4189_1_" fill="#1A1F71" d="M-341.554-344.448c0,0.294,0.166,0.516,0.405,0.516c0.233,0,0.408-0.219,0.408-0.522
			c0-0.227-0.114-0.513-0.402-0.513C-341.429-344.967-341.554-344.701-341.554-344.448 M-340.492-344.462
			c0,0.497-0.347,0.713-0.669,0.713c-0.361,0-0.643-0.266-0.643-0.691c0-0.447,0.297-0.71,0.666-0.71
			C-340.753-345.15-340.492-344.87-340.492-344.462"/>
	</g>
	<g id="g4191_1_" transform="translate(371.9873,362.9561)">
		<path id="path4193_1_" fill="#1A1F71" d="M-350.319-346.966c0-0.141-0.003-0.252-0.011-0.363h0.216l0.014,0.222h0.005
			c0.067-0.125,0.222-0.25,0.444-0.25c0.186,0,0.474,0.111,0.474,0.571v0.799h-0.244v-0.774c0-0.216-0.08-0.397-0.311-0.397
			c-0.158,0-0.283,0.114-0.327,0.25c-0.011,0.031-0.017,0.072-0.017,0.114v0.807h-0.244V-346.966z"/>
	</g>
</g>
</svg>
