<?xml version="1.0" encoding="utf-8"?>
<!-- Generator: Adobe Illustrator 19.2.1, SVG Export Plug-In . SVG Version: 6.00 Build 0)  -->
<svg version="1.0" id="art" xmlns="http://www.w3.org/2000/svg" xmlns:xlink="http://www.w3.org/1999/xlink" x="0px" y="0px"
	 width="24px" height="24px" viewBox="0 0 24 24" enable-background="new 0 0 24 24" xml:space="preserve">
<g id="check">
</g>
<path fill="#FFFFFF" d="M7.39,7.124l-1.822,4.608L4.83,7.813c-0.087-0.437-0.428-0.69-0.808-0.69H1.041L1,7.32
	c0.611,0.133,1.307,0.347,1.728,0.576c0.258,0.14,0.331,0.263,0.416,0.595l1.397,5.403h1.852l2.838-6.77H7.39z"/>
<polygon fill="#FFFFFF" points="9.981,7.124 8.533,13.894 10.285,13.894 11.733,7.124 "/>
<path fill="#FFFFFF" d="M16.484,11.683c0.007-1.786-2.47-1.886-2.454-2.684c0.006-0.243,0.237-0.501,0.743-0.567
	c0.251-0.032,0.943-0.058,1.727,0.303l0.307-1.436C16.386,7.147,15.844,7,15.169,7c-1.732,0-2.95,0.92-2.959,2.238
	c-0.011,0.975,0.87,1.518,1.533,1.843c0.683,0.332,0.912,0.545,0.908,0.841c-0.005,0.454-0.545,0.655-1.048,0.663
	c-0.881,0.014-1.392-0.238-1.799-0.428l-0.318,1.484c0.41,0.188,1.165,0.351,1.947,0.359C15.275,14,16.479,13.091,16.484,11.683z"/>
<path fill="#FFFFFF" d="M19.021,7.62l-2.628,6.274h1.839l0.365-1.011h2.247l0.212,1.011h1.619l-1.415-6.77h-1.494
	C19.43,7.124,19.147,7.319,19.021,7.62z M20.553,11.495h-1.452l0.922-2.542L20.553,11.495z"/>
<polygon fill="#FFFFFF" points="13.433,16.093 14.157,16.093 14.157,15.893 13.433,15.893 13.433,15.302 14.201,15.302 14.201,15.1 
	13.189,15.1 13.189,16.969 14.243,16.969 14.243,16.767 13.433,16.767 "/>
<rect x="14.617" y="15" fill="#FFFFFF" width="0.244" height="1.969"/>
<path fill="#FFFFFF" d="M15.873,15.599c-0.391,0-0.63,0.316-0.63,0.721S15.491,17,15.904,17c0.214,0,0.363-0.047,0.449-0.086
	l-0.044-0.175c-0.089,0.039-0.197,0.069-0.372,0.069c-0.247,0-0.455-0.136-0.46-0.466h0.943c0.006-0.028,0.008-0.064,0.008-0.114
	C16.428,15.982,16.314,15.599,15.873,15.599z M15.479,16.168c0.019-0.169,0.125-0.394,0.375-0.394c0.275,0,0.341,0.241,0.338,0.394
	H15.479z"/>
<path fill="#FFFFFF" d="M17.423,15.793c0.133,0,0.225,0.033,0.283,0.064l0.055-0.186c-0.067-0.036-0.194-0.072-0.338-0.072
	c-0.438,0-0.721,0.302-0.721,0.716c0,0.411,0.263,0.685,0.668,0.685c0.18,0,0.322-0.047,0.386-0.078l-0.042-0.183
	c-0.069,0.031-0.161,0.064-0.3,0.064c-0.266,0-0.466-0.191-0.466-0.502C16.949,16.023,17.115,15.793,17.423,15.793z"/>
<path fill="#FFFFFF" d="M18.441,15.305l-0.239,0.072v0.25h-0.208v0.186h0.208v0.733c0,0.158,0.028,0.277,0.094,0.352
	C18.355,16.961,18.446,17,18.56,17c0.094,0,0.169-0.017,0.216-0.033l-0.011-0.186c-0.036,0.011-0.075,0.017-0.141,0.017
	c-0.136,0-0.183-0.094-0.183-0.261v-0.724h0.349v-0.186h-0.349V15.305z"/>
<path fill="#FFFFFF" d="M19.353,15.893h-0.008l-0.011-0.266H19.12c0.008,0.125,0.011,0.261,0.011,0.419v0.924h0.244v-0.716
	c0-0.039,0.003-0.081,0.008-0.114c0.033-0.183,0.155-0.311,0.327-0.311c0.034,0,0.058,0,0.083,0.006v-0.23
	c-0.022-0.003-0.042-0.005-0.067-0.005C19.564,15.599,19.414,15.713,19.353,15.893z"/>
<path fill="#FFFFFF" d="M20.648,15.599c-0.369,0-0.666,0.263-0.666,0.71c0,0.424,0.283,0.691,0.643,0.691
	c0.322,0,0.669-0.216,0.669-0.713C21.294,15.879,21.034,15.599,20.648,15.599z M20.637,16.817c-0.239,0-0.405-0.222-0.405-0.516
	c0-0.253,0.125-0.519,0.41-0.519c0.289,0,0.402,0.286,0.402,0.513C21.045,16.598,20.87,16.817,20.637,16.817z"/>
<path fill="#FFFFFF" d="M22.337,15.599c-0.222,0-0.377,0.125-0.444,0.25h-0.005l-0.014-0.222h-0.216
	c0.008,0.111,0.011,0.222,0.011,0.363v0.979h0.244v-0.807c0-0.042,0.005-0.083,0.017-0.114c0.044-0.136,0.169-0.25,0.327-0.25
	c0.23,0,0.311,0.18,0.311,0.397v0.774h0.244V16.17C22.811,15.71,22.523,15.599,22.337,15.599z"/>
</svg>
