<?xml version="1.0" encoding="utf-8"?>
<!-- Generator: Adobe Illustrator 19.2.1, SVG Export Plug-In . SVG Version: 6.00 Build 0)  -->
<svg version="1.0" id="art" xmlns="http://www.w3.org/2000/svg" xmlns:xlink="http://www.w3.org/1999/xlink" x="0px" y="0px"
	 width="18px" height="18px" viewBox="0 0 18 18" enable-background="new 0 0 18 18" xml:space="preserve">
<g id="check">
</g>
<path fill="#FFFFFF" d="M4.751,7.544H4.159h0c-0.069,0-0.126,0.057-0.126,0.126v2.387c0,0.069,0.057,0.126,0.126,0.126h2.544
	l-0.412,0.412c-0.049,0.049-0.049,0.129,0,0.178l1.688,1.688c0.049,0.049,0.129,0.049,0.178,0l1.787-1.787v0.583
	c0,0.069,0.057,0.126,0.126,0.126h2.387c0.069,0,0.126-0.057,0.126-0.126V8.704l0.425,0.425c0.049,0.049,0.129,0.049,0.178,0
	l1.688-1.688c0.049-0.049,0.049-0.129,0-0.178l-2.539-2.539l0.726,0.726h0.596c0.069,0,0.126-0.057,0.126-0.126V2.937
	c0-0.069-0.057-0.126-0.126-0.126h-2.543l0.413-0.413c0.049-0.049,0.049-0.129,0-0.178L9.838,0.533
	c-0.049-0.049-0.129-0.049-0.178,0L7.855,2.338l0.01-0.01V1.734v0c0-0.069-0.056-0.126-0.126-0.126H5.352
	c-0.069,0-0.126,0.057-0.126,0.126v2.554L4.804,3.865l0,0l0,0c-0.049-0.049-0.129-0.049-0.178,0L2.938,5.553
	c-0.049,0.049-0.049,0.129,0,0.178L4.751,7.544z M7.74,5.45c0.069,0,0.126-0.056,0.126-0.126v-1.14L7.121,3.25l1.688,1.688
	c0.049,0.049,0.129,0.049,0.178,0l0.83-0.83l0.123-1.171v2.387c0,0.069,0.057,0.126,0.126,0.126h1.188l0.903-0.726l-1.688,1.688
	c-0.049,0.049-0.049,0.129,0,0.178l0.828,0.828l1.161,0.123H10.07C10,7.54,9.944,7.597,9.944,7.666v1.121l0.752,0.956L9.008,8.055
	c-0.049-0.049-0.129-0.049-0.178,0L8.025,8.86l-0.15,1.196V7.669c0-0.069-0.057-0.126-0.126-0.126H6.544L5.655,8.27l1.688-1.688
	c0.049-0.049,0.049-0.129,0-0.178L6.498,5.559L5.352,5.45H7.74z"/>
<path fill="#FFFFFF" d="M4.339,16.075c0.013-0.033,0.036-0.059,0.07-0.078c0.034-0.02,0.081-0.029,0.143-0.03h0.906
	c0.026,0,0.044-0.005,0.054-0.017c0.01-0.011,0.014-0.032,0.014-0.062v-0.303c0.001-0.033-0.004-0.056-0.012-0.068
	C5.504,15.505,5.485,15.5,5.457,15.5H4.434c-0.12,0.001-0.222,0.019-0.305,0.055c-0.084,0.036-0.152,0.086-0.203,0.147
	c-0.051,0.062-0.089,0.133-0.112,0.211c-0.024,0.078-0.036,0.16-0.035,0.246v1.184c-0.001,0.082,0.009,0.162,0.029,0.24
	c0.02,0.077,0.054,0.147,0.103,0.21c0.049,0.062,0.116,0.112,0.202,0.149C4.197,17.98,4.306,17.999,4.437,18h1.055
	c0.028,0,0.047-0.006,0.057-0.02c0.01-0.013,0.015-0.034,0.014-0.062v-0.303c0.001-0.035-0.004-0.058-0.013-0.07
	c-0.01-0.011-0.029-0.017-0.058-0.016H4.551C4.5,17.53,4.458,17.524,4.423,17.511c-0.035-0.013-0.06-0.035-0.077-0.065
	c-0.017-0.031-0.026-0.075-0.026-0.13v-0.407h1.023c0.028,0,0.046-0.006,0.055-0.02s0.013-0.034,0.012-0.062v-0.278
	c0.001-0.033-0.004-0.056-0.012-0.068c-0.009-0.012-0.027-0.018-0.055-0.017H4.32v-0.275C4.319,16.146,4.326,16.109,4.339,16.075z"
	/>
<path fill="#FFFFFF" d="M9.221,16.907c0.057,0.016,0.105,0.046,0.143,0.089c0.037,0.043,0.069,0.106,0.093,0.187l0.218,0.767
	c0.008,0.023,0.018,0.036,0.031,0.042C9.719,17.998,9.732,18,9.745,18h0.414c0.02-0.001,0.034-0.005,0.042-0.013
	c0.008-0.008,0.012-0.018,0.013-0.029c0-0.011-0.002-0.021-0.005-0.03l-0.221-0.827c-0.014-0.053-0.029-0.102-0.045-0.146
	c-0.017-0.044-0.037-0.083-0.063-0.118c-0.025-0.035-0.058-0.067-0.099-0.094c-0.04-0.027-0.092-0.052-0.153-0.073v-0.018
	c0.077-0.046,0.141-0.107,0.191-0.181c0.051-0.074,0.089-0.162,0.112-0.263l0.164-0.636c0.004-0.008,0.005-0.018,0.005-0.029
	c-0.001-0.011-0.005-0.021-0.013-0.029c-0.008-0.008-0.023-0.012-0.042-0.013H9.645c-0.013,0-0.027,0.002-0.041,0.008
	c-0.014,0.005-0.024,0.02-0.03,0.042l-0.16,0.6c-0.019,0.073-0.045,0.131-0.076,0.174c-0.031,0.043-0.067,0.076-0.105,0.096
	c-0.038,0.021-0.077,0.034-0.117,0.041c-0.04,0.006-0.077,0.009-0.112,0.008H8.718v-0.906c0.005-0.026,0.003-0.042-0.007-0.049
	c-0.01-0.006-0.027-0.01-0.05-0.008H8.244c-0.021-0.001-0.037,0.002-0.048,0.008c-0.011,0.007-0.016,0.023-0.016,0.049v2.378
	c0,0.026,0.005,0.042,0.016,0.049c0.011,0.007,0.027,0.01,0.048,0.008h0.414c0.023,0.001,0.039-0.002,0.049-0.008
	c0.01-0.006,0.015-0.023,0.015-0.049l-0.004-1.059h0.292C9.093,16.882,9.164,16.89,9.221,16.907z"/>
<path fill="#FFFFFF" d="M11.726,15.567c-0.023-0.028-0.051-0.046-0.086-0.055c-0.034-0.009-0.078-0.012-0.131-0.012h-0.214
	c-0.048,0-0.087,0.005-0.121,0.016c-0.033,0.011-0.061,0.031-0.083,0.059c-0.023,0.029-0.041,0.068-0.056,0.12l-0.742,2.233
	c-0.006,0.02-0.005,0.037,0.001,0.051c0.007,0.013,0.023,0.02,0.049,0.021h0.417c0.033,0,0.056-0.005,0.07-0.017
	c0.014-0.011,0.024-0.028,0.03-0.051L11,17.479h0.817l0.139,0.464c0.007,0.026,0.02,0.042,0.037,0.049
	c0.018,0.007,0.04,0.01,0.067,0.008h0.424c0.018-0.001,0.03-0.004,0.038-0.012c0.008-0.008,0.013-0.017,0.013-0.028
	c0.001-0.011-0.001-0.021-0.005-0.031l-0.742-2.233C11.77,15.639,11.749,15.596,11.726,15.567z"/>
<path fill="#FFFFFF" d="M14.119,15.558C14.016,15.52,13.9,15.501,13.77,15.5h-0.874c-0.056,0-0.1,0.01-0.131,0.027
	c-0.031,0.018-0.053,0.043-0.065,0.076c-0.012,0.033-0.018,0.071-0.017,0.115v2.207c0,0.028,0.007,0.048,0.02,0.059
	C12.715,17.995,12.736,18,12.765,18h0.374c0.024,0,0.042-0.001,0.054-0.004c0.012-0.004,0.021-0.011,0.025-0.021
	c0.005-0.011,0.007-0.027,0.007-0.049v-0.831h0.474c0.133-0.001,0.248-0.015,0.346-0.043c0.097-0.028,0.179-0.066,0.245-0.113
	c0.067-0.048,0.121-0.1,0.162-0.159c0.041-0.058,0.074-0.118,0.096-0.179c0.022-0.061,0.037-0.119,0.045-0.174
	c0.008-0.055,0.012-0.103,0.011-0.144c0-0.114-0.02-0.218-0.058-0.313c-0.038-0.095-0.093-0.177-0.166-0.247
	C14.309,15.651,14.221,15.597,14.119,15.558z"/>
<path fill="#FFFFFF" d="M14.65,15.515c-0.01,0.01-0.014,0.03-0.014,0.06v0.317c0,0.023,0.005,0.041,0.017,0.053
	c0.011,0.012,0.028,0.018,0.051,0.018h0.631v1.961c0,0.028,0.007,0.048,0.02,0.059C15.368,17.995,15.389,18,15.417,18h0.382
	c0.035,0.001,0.058-0.004,0.07-0.015c0.012-0.011,0.017-0.03,0.016-0.06v-1.961h0.645c0.023,0,0.041-0.007,0.053-0.018
	c0.013-0.012,0.018-0.03,0.018-0.053v-0.317c0.001-0.03-0.004-0.05-0.014-0.06c-0.01-0.011-0.029-0.015-0.057-0.015h-1.826
	C14.678,15.5,14.66,15.504,14.65,15.515z"/>
<path fill="#FFFFFF" d="M1.745,17.978C1.776,17.993,1.82,18,1.878,18h0.899c0.121-0.001,0.234-0.02,0.337-0.059
	c0.103-0.039,0.194-0.093,0.272-0.163c0.077-0.071,0.138-0.153,0.181-0.248c0.043-0.096,0.065-0.2,0.066-0.314
	c0.001-0.041-0.002-0.089-0.008-0.144c-0.006-0.055-0.018-0.112-0.038-0.173c-0.019-0.061-0.049-0.119-0.088-0.177
	c-0.04-0.058-0.093-0.11-0.159-0.157c-0.066-0.047-0.15-0.084-0.25-0.112c-0.1-0.028-0.221-0.042-0.362-0.043H2.206v-0.446h1.077
	c0.026,0.001,0.043-0.004,0.052-0.014c0.008-0.01,0.013-0.028,0.012-0.054v-0.317c0.001-0.03-0.004-0.051-0.012-0.062
	C3.326,15.505,3.309,15.5,3.283,15.5H1.892c-0.056,0-0.102,0.008-0.135,0.026c-0.034,0.017-0.058,0.044-0.072,0.08
	c-0.015,0.036-0.022,0.081-0.021,0.137v2.043c0,0.051,0.005,0.092,0.017,0.124C1.693,17.941,1.714,17.964,1.745,17.978z"/>
<path fill="#FFFFFF" d="M7.326,17.984c0.011,0.008,0.03,0.013,0.056,0.012h0.396c0.023,0,0.039-0.002,0.049-0.005
	c0.011-0.004,0.018-0.01,0.021-0.019c0.003-0.01,0.005-0.023,0.004-0.04v-2.193c0-0.054-0.007-0.098-0.021-0.133
	c-0.015-0.036-0.039-0.062-0.072-0.08C7.726,15.509,7.681,15.5,7.625,15.5h-1.28c-0.057,0-0.101,0.008-0.133,0.024
	c-0.032,0.017-0.055,0.043-0.07,0.078c-0.014,0.036-0.023,0.081-0.026,0.137l-0.032,0.542c-0.011,0.185-0.022,0.345-0.035,0.481
	c-0.02,0.226-0.042,0.767-0.335,0.767c-0.03,0-0.049,0.005-0.058,0.016c-0.009,0.012-0.013,0.035-0.013,0.07v0.303
	c0,0.029,0.004,0.049,0.014,0.062C5.667,17.993,5.686,18,5.714,18c0.227,0,0.425-0.018,0.595-0.276
	c0.052-0.079,0.098-0.168,0.131-0.268c0.033-0.1,0.059-0.213,0.078-0.338c0.019-0.124,0.035-0.261,0.047-0.411
	c0.012-0.149,0.024-0.311,0.036-0.487l0.014-0.25h0.695v1.961C7.311,17.958,7.316,17.975,7.326,17.984z"/>
</svg>
