<?xml version="1.0" encoding="utf-8"?>
<!-- Generator: Adobe Illustrator 19.2.1, SVG Export Plug-In . SVG Version: 6.00 Build 0)  -->
<svg version="1.0" id="art" xmlns="http://www.w3.org/2000/svg" xmlns:xlink="http://www.w3.org/1999/xlink" x="0px" y="0px"
	 width="18px" height="18px" viewBox="0 0 18 18" enable-background="new 0 0 18 18" xml:space="preserve">
<g id="check">
</g>
<path d="M11.492,3C10.616,3,9.776,3.188,9,3.51C8.224,3.188,7.384,3,6.508,3c-3.584,0-6.5,2.916-6.5,6.5s2.916,6.5,6.5,6.5
	C7.384,16,8.224,15.812,9,15.489C9.776,15.812,10.616,16,11.492,16c3.584,0,6.5-2.916,6.5-6.5S15.076,3,11.492,3z M11.492,15
	c-0.44,0-0.866-0.066-1.281-0.165c0.991-0.688,1.797-1.647,2.288-2.811l-0.921-0.389c-0.517,1.226-1.444,2.183-2.578,2.759
	c-1.134-0.577-2.061-1.534-2.578-2.759l-0.921,0.389c0.491,1.164,1.297,2.123,2.288,2.811C7.374,14.934,6.948,15,6.508,15
	c-3.033,0-5.5-2.468-5.5-5.5S3.475,4,6.508,4c0.44,0,0.866,0.066,1.281,0.165c-0.99,0.687-1.795,1.643-2.286,2.804l0.921,0.391
	C6.941,6.136,7.868,5.181,9,4.605c1.132,0.576,2.059,1.531,2.576,2.754l0.921-0.391c-0.491-1.161-1.296-2.117-2.286-2.804
	C10.626,4.066,11.052,4,11.492,4c3.033,0,5.5,2.468,5.5,5.5S14.525,15,11.492,15z"/>
<polygon points="6.475,8.839 6.482,8.823 6.491,8.807 6.504,8.794 6.518,8.78 6.537,8.768 6.558,8.758 6.58,8.749 6.604,8.74 
	6.632,8.736 6.661,8.732 6.703,8.729 6.741,8.726 6.774,8.724 6.805,8.724 6.833,8.726 6.859,8.727 6.882,8.729 6.903,8.732 
	6.923,8.734 6.942,8.737 6.961,8.74 6.978,8.743 6.997,8.746 7.016,8.749 7.036,8.752 7.057,8.753 7.131,8.425 7.119,8.423 
	7.106,8.42 7.093,8.419 7.079,8.416 7.061,8.413 7.042,8.41 7.022,8.406 6.997,8.403 6.971,8.4 6.942,8.397 6.908,8.394 
	6.872,8.391 6.831,8.39 6.786,8.388 6.737,8.387 6.683,8.387 6.597,8.388 6.518,8.394 6.447,8.404 6.382,8.417 6.324,8.433 
	6.271,8.455 6.225,8.479 6.182,8.506 6.146,8.538 6.116,8.575 6.089,8.612 6.066,8.656 6.049,8.703 6.034,8.752 6.024,8.806 
	6.017,8.863 6.015,8.956 6.028,9.034 6.055,9.1 6.091,9.155 6.137,9.2 6.188,9.238 6.244,9.268 6.302,9.295 6.359,9.318 
	6.415,9.338 6.466,9.36 6.51,9.382 6.546,9.406 6.571,9.436 6.584,9.472 6.581,9.514 6.575,9.536 6.568,9.559 6.556,9.583 
	6.542,9.603 6.521,9.623 6.495,9.639 6.462,9.651 6.42,9.66 6.377,9.661 6.335,9.661 6.293,9.66 6.251,9.658 6.21,9.654 
	6.171,9.649 6.133,9.644 6.097,9.638 6.062,9.632 6.03,9.625 6.001,9.619 5.974,9.613 5.95,9.607 5.929,9.601 5.913,9.597 
	5.9,9.594 5.835,9.916 5.86,9.924 5.883,9.933 5.906,9.942 5.931,9.948 5.956,9.955 5.983,9.959 6.011,9.965 6.041,9.968 
	6.075,9.972 6.11,9.975 6.149,9.978 6.193,9.98 6.241,9.981 6.292,9.981 6.35,9.983 6.412,9.983 6.457,9.981 6.505,9.978 
	6.553,9.974 6.603,9.965 6.654,9.953 6.703,9.939 6.751,9.92 6.798,9.898 6.843,9.871 6.884,9.839 6.921,9.802 6.955,9.76 
	6.984,9.712 7.007,9.657 7.025,9.597 7.035,9.529 7.041,9.437 7.035,9.359 7.02,9.293 6.997,9.238 6.967,9.193 6.93,9.156 
	6.889,9.126 6.846,9.101 6.799,9.082 6.751,9.065 6.703,9.049 6.657,9.034 6.613,9.018 6.572,8.999 6.537,8.977 6.508,8.95 
	6.494,8.931 6.482,8.912 6.476,8.893 6.472,8.874 6.472,8.857 "/>
<polygon points="7.844,9.642 7.831,9.647 7.812,9.652 7.788,9.658 7.762,9.663 7.733,9.665 7.701,9.667 7.666,9.664 7.634,9.658 
	7.605,9.649 7.579,9.639 7.56,9.623 7.545,9.604 7.538,9.58 7.54,9.551 7.679,8.739 7.935,8.746 7.988,8.417 7.745,8.417 
	7.804,8.065 7.401,8.065 7.124,9.652 7.119,9.689 7.115,9.722 7.115,9.754 7.116,9.785 7.121,9.812 7.128,9.837 7.138,9.862 
	7.153,9.882 7.172,9.901 7.196,9.919 7.224,9.933 7.257,9.946 7.297,9.956 7.343,9.965 7.394,9.971 7.452,9.975 7.563,9.975 
	7.588,9.972 7.611,9.969 7.633,9.967 7.652,9.964 7.669,9.961 7.687,9.958 7.701,9.955 7.716,9.951 7.729,9.946 7.742,9.942 
	7.753,9.937 7.764,9.933 7.774,9.927 7.784,9.921 7.794,9.916 7.804,9.908 7.855,9.638 7.852,9.639 "/>
<path d="M9.118,9.584L9.076,9.601L9.035,9.617L8.996,9.631L8.955,9.639L8.916,9.647L8.876,9.652L8.837,9.655L8.799,9.657H8.76
	L8.722,9.655L8.684,9.652L8.647,9.648L8.61,9.644L8.572,9.638L8.543,9.632l-0.029-0.01L8.485,9.609L8.459,9.593L8.433,9.575
	L8.409,9.553L8.388,9.532l-0.02-0.025L8.35,9.482L8.334,9.455L8.322,9.428l-0.01-0.028L8.306,9.373L8.303,9.345l0.001-0.026
	l0.003-0.017h0.944l0.007-0.089l0.022-0.122l0.01-0.111L9.289,8.881L9.278,8.794l-0.02-0.077L9.228,8.65L9.192,8.592L9.148,8.543
	L9.1,8.502L9.048,8.467L8.991,8.441L8.933,8.419l-0.06-0.015l-0.06-0.01l-0.06-0.006L8.697,8.387L8.58,8.393L8.475,8.41L8.38,8.436
	L8.296,8.473L8.223,8.516L8.159,8.566L8.103,8.621L8.056,8.679L8.015,8.74L7.982,8.804L7.956,8.867L7.934,8.929L7.918,8.991
	L7.906,9.047L7.897,9.101L7.892,9.148L7.884,9.267l0.004,0.108l0.016,0.097l0.025,0.086l0.035,0.077l0.042,0.067l0.049,0.06
	l0.057,0.049l0.061,0.042l0.065,0.036l0.068,0.028l0.071,0.022l0.073,0.017l0.073,0.01l0.073,0.007l0.071,0.001h0.048l0.045-0.001
	h0.039l0.038-0.001l0.033-0.003l0.031-0.003l0.029-0.003l0.026-0.004l0.025-0.004l0.023-0.006l0.023-0.007l0.022-0.007l0.022-0.009
	l0.023-0.009l0.023-0.012l0.023-0.012l0.058-0.358L9.159,9.561L9.118,9.584z M8.367,8.993l0.006-0.03l0.009-0.029l0.01-0.029
	l0.013-0.026l0.013-0.025l0.016-0.023l0.017-0.022l0.019-0.02l0.019-0.017l0.022-0.016l0.022-0.013L8.558,8.73l0.025-0.009
	l0.025-0.006l0.026-0.004L8.661,8.71l0.026,0.003l0.025,0.004l0.023,0.006l0.023,0.009L8.78,8.743l0.022,0.013l0.019,0.014
	l0.017,0.017l0.015,0.02l0.015,0.022l0.01,0.025l0.01,0.028l0.006,0.029l0.003,0.032l0.001,0.035L8.895,9.015H8.363L8.367,8.993z"/>
<polygon points="11.698,8.465 11.72,8.476 11.74,8.486 11.759,8.495 11.778,8.505 11.851,8.102 11.842,8.099 11.829,8.093 
	11.812,8.087 11.791,8.08 11.768,8.071 11.74,8.063 11.711,8.054 11.678,8.045 11.643,8.036 11.605,8.029 11.566,8.02 11.525,8.015 
	11.481,8.009 11.438,8.004 11.393,8.001 11.346,8 11.291,8.001 11.239,8.004 11.186,8.01 11.137,8.017 11.087,8.026 11.041,8.036 
	10.996,8.048 10.951,8.063 10.908,8.079 10.868,8.096 10.828,8.115 10.789,8.137 10.753,8.16 10.718,8.185 10.684,8.212 
	10.651,8.241 10.62,8.272 10.591,8.304 10.562,8.339 10.536,8.375 10.51,8.413 10.485,8.454 10.463,8.496 10.441,8.541 
	10.421,8.586 10.402,8.634 10.383,8.685 10.367,8.736 10.353,8.79 10.338,8.846 10.325,8.905 10.313,8.964 10.297,9.085 
	10.295,9.199 10.3,9.302 10.318,9.399 10.344,9.488 10.379,9.569 10.42,9.642 10.468,9.708 10.521,9.766 10.58,9.817 10.641,9.86 
	10.705,9.895 10.772,9.924 10.839,9.946 10.905,9.961 10.972,9.968 11.054,9.972 11.128,9.974 11.193,9.972 11.25,9.969 
	11.301,9.964 11.345,9.958 11.383,9.951 11.416,9.94 11.442,9.932 11.465,9.921 11.486,9.911 11.502,9.9 11.515,9.891 11.527,9.881 
	11.535,9.872 11.544,9.865 11.609,9.476 11.58,9.503 11.55,9.526 11.516,9.545 11.48,9.561 11.444,9.572 11.407,9.583 11.369,9.59 
	11.332,9.594 11.295,9.597 11.259,9.597 11.225,9.597 11.193,9.594 11.164,9.591 11.138,9.588 11.116,9.584 11.097,9.58 
	11.042,9.567 10.993,9.548 10.948,9.526 10.908,9.5 10.873,9.469 10.843,9.436 10.817,9.398 10.795,9.359 10.779,9.315 
	10.766,9.271 10.756,9.225 10.751,9.175 10.75,9.126 10.753,9.075 10.759,9.024 10.767,8.972 10.791,8.879 10.818,8.797 
	10.849,8.724 10.881,8.66 10.916,8.607 10.952,8.56 10.99,8.522 11.029,8.49 11.07,8.464 11.111,8.444 11.151,8.428 11.192,8.416 
	11.233,8.409 11.272,8.404 11.31,8.401 11.346,8.401 11.383,8.401 11.417,8.401 11.451,8.404 11.484,8.407 11.515,8.412 
	11.545,8.417 11.573,8.423 11.601,8.431 11.627,8.439 11.652,8.448 11.676,8.457 "/>
<polygon points="3.871,8.065 3.396,9.199 3.33,8.065 2.642,8.065 2.312,9.975 2.708,9.975 2.949,8.548 2.958,8.548 2.966,8.548 
	2.971,8.548 2.974,8.618 2.984,8.784 2.997,9.012 3.012,9.273 3.026,9.532 3.039,9.757 3.049,9.916 3.052,9.975 3.499,9.975 
	4.091,8.548 4.107,8.548 3.857,9.975 4.252,9.975 4.59,8.065 "/>
<polygon points="14.085,8.775 14.105,8.775 14.117,8.775 14.122,8.775 14.187,8.401 14.146,8.404 14.107,8.409 14.071,8.416 
	14.036,8.426 14.004,8.438 13.973,8.452 13.944,8.468 13.916,8.486 13.89,8.506 13.865,8.527 13.842,8.55 13.819,8.573 
	13.797,8.598 13.775,8.625 13.754,8.652 13.733,8.681 13.777,8.417 13.368,8.417 13.096,9.975 13.506,9.975 13.653,9.148 
	13.659,9.116 13.668,9.084 13.676,9.052 13.688,9.02 13.703,8.988 13.72,8.957 13.739,8.928 13.762,8.9 13.788,8.876 13.818,8.852 
	13.851,8.831 13.889,8.813 13.931,8.799 13.977,8.787 14.028,8.778 "/>
<polygon points="10.313,8.57 10.325,8.543 10.34,8.515 10.354,8.487 10.369,8.463 10.382,8.441 10.392,8.423 10.399,8.413 
	10.402,8.409 10.401,8.409 10.395,8.407 10.388,8.406 10.377,8.404 10.367,8.404 10.356,8.403 10.346,8.401 10.335,8.401 
	10.29,8.404 10.249,8.409 10.212,8.416 10.177,8.425 10.143,8.436 10.113,8.451 10.085,8.465 10.059,8.483 10.034,8.502 
	10.011,8.524 9.989,8.545 9.967,8.57 9.945,8.595 9.925,8.623 9.903,8.652 9.881,8.681 9.934,8.417 9.516,8.417 9.244,9.975 
	9.655,9.975 9.662,9.975 9.801,9.148 9.807,9.116 9.815,9.085 9.822,9.055 9.832,9.025 9.844,8.996 9.858,8.969 9.876,8.943 
	9.896,8.918 9.919,8.896 9.945,8.874 9.977,8.857 10.012,8.841 10.053,8.828 10.098,8.816 10.148,8.809 10.204,8.804 10.209,8.804 
	10.215,8.806 10.222,8.807 10.229,8.807 10.236,8.809 10.242,8.81 10.247,8.812 10.248,8.812 10.249,8.806 10.254,8.788 
	10.26,8.762 10.267,8.73 10.277,8.692 10.287,8.652 10.3,8.611 "/>
<path d="M15.191,8.644l-0.009-0.017L15.17,8.609l-0.013-0.019l-0.015-0.019l-0.017-0.019l-0.019-0.019l-0.022-0.019l-0.023-0.017
	l-0.026-0.016l-0.029-0.016l-0.029-0.013l-0.033-0.012l-0.035-0.01l-0.038-0.007L14.83,8.419l-0.042-0.001l-0.06,0.003L14.67,8.429
	l-0.058,0.013l-0.058,0.02l-0.055,0.025l-0.055,0.032l-0.054,0.036l-0.051,0.042L14.29,8.646l-0.045,0.052l-0.044,0.058
	l-0.038,0.065l-0.036,0.07l-0.031,0.074l-0.026,0.081l-0.022,0.086l-0.013,0.074l-0.007,0.074l-0.001,0.076l0.004,0.074l0.012,0.074
	l0.016,0.071l0.023,0.068l0.029,0.065l0.035,0.061l0.041,0.054l0.047,0.049l0.052,0.042l0.058,0.034l0.064,0.025l0.07,0.016
	l0.076,0.006h0.029l0.029-0.002l0.028-0.003l0.029-0.004l0.029-0.004l0.028-0.007l0.028-0.007l0.028-0.01l0.028-0.013l0.026-0.013
	l0.026-0.016l0.026-0.019l0.026-0.02l0.025-0.023l0.025-0.026l0.023-0.029v0.015l-0.029,0.161h0.403l0.329-1.903h-0.396
	L15.191,8.644z M15.092,9.13l-0.004,0.042L15.08,9.213l-0.007,0.039l-0.01,0.039l-0.012,0.038l-0.015,0.036L15.02,9.401
	l-0.019,0.033l-0.02,0.032l-0.022,0.029l-0.025,0.026l-0.028,0.025l-0.029,0.022l-0.031,0.017l-0.033,0.016l-0.035,0.01L14.741,9.62
	L14.7,9.623l-0.058-0.012L14.594,9.58l-0.038-0.048l-0.029-0.06l-0.019-0.068l-0.01-0.071l-0.003-0.07l0.007-0.064l0.009-0.042
	l0.012-0.042l0.012-0.039l0.015-0.039l0.016-0.038l0.019-0.035l0.02-0.034l0.022-0.032l0.025-0.028l0.025-0.025l0.029-0.023
	l0.029-0.019l0.033-0.015l0.034-0.012l0.036-0.006l0.039-0.003l0.031,0.003l0.028,0.007l0.026,0.012l0.025,0.017l0.022,0.02
	l0.019,0.023l0.018,0.028l0.014,0.029l0.012,0.033l0.01,0.035l0.006,0.036L15.09,9.05l0.001,0.041V9.13z"/>
<path d="M13.147,8.826V8.771l-0.01-0.049l-0.016-0.047l-0.022-0.044L13.07,8.592l-0.034-0.035L13,8.525l-0.041-0.028l-0.044-0.025
	l-0.045-0.02l-0.045-0.017l-0.047-0.013l-0.045-0.01L12.69,8.404l-0.041-0.003L12.6,8.4l-0.049-0.001h-0.047h-0.045h-0.045
	L12.372,8.4l-0.042,0.001l-0.041,0.003L12.25,8.407l-0.038,0.006l-0.036,0.006l-0.036,0.007l-0.035,0.007l-0.033,0.01l-0.033,0.012
	l-0.032,0.013l-0.102,0.351l0.016-0.009l0.02-0.01l0.026-0.009l0.032-0.009l0.035-0.007l0.038-0.007l0.042-0.007l0.044-0.006
	l0.045-0.006l0.047-0.004l0.047-0.004l0.048-0.003l0.047-0.001h0.045l0.044,0.001l0.041,0.001l0.035,0.003l0.032,0.009l0.031,0.013
	l0.026,0.019l0.022,0.022l0.019,0.026l0.012,0.029L12.7,8.892l-0.003,0.028L12.693,8.95l-0.004,0.026l-0.003,0.01H12.68
	l-0.013-0.001l-0.023-0.001l-0.028-0.001h-0.032L12.551,8.98l-0.035-0.001h-0.035h-0.016l-0.02,0.001l-0.02,0.001l-0.023,0.001
	l-0.025,0.003l-0.025,0.001l-0.026,0.003L12.3,8.993l-0.023,0.003l-0.022,0.003l-0.02,0.001l-0.019,0.003l-0.015,0.002l-0.01,0.001
	l-0.007,0.001h-0.003l-0.049,0.009L12.084,9.03l-0.048,0.016l-0.045,0.02l-0.045,0.023l-0.042,0.028l-0.039,0.031l-0.038,0.033
	l-0.034,0.036l-0.031,0.041L11.735,9.3l-0.022,0.047l-0.019,0.049l-0.013,0.051l-0.009,0.054l-0.003,0.057V9.59l0.003,0.032
	l0.004,0.033l0.006,0.033l0.007,0.032l0.012,0.032l0.013,0.032l0.018,0.031l0.02,0.029l0.023,0.028l0.028,0.026l0.032,0.023
	l0.038,0.022l0.041,0.019l0.047,0.015l0.052,0.013l0.039,0.006L12.091,10l0.041-0.001l0.042-0.003l0.041-0.006l0.041-0.007
	l0.041-0.012l0.039-0.012l0.036-0.015l0.036-0.017l0.035-0.017l0.03-0.019l0.029-0.02l0.026-0.02l0.022-0.022l0.019-0.022
	l-0.003,0.018v0.039l-0.001,0.052l-0.003,0.06h0.365l0.06-0.323l0.153-0.768L13.147,8.826z M12.632,9.309L12.626,9.35l-0.007,0.042
	l-0.006,0.041l-0.004,0.016l-0.006,0.018l-0.007,0.017l-0.01,0.017L12.572,9.52l-0.016,0.017l-0.017,0.019l-0.02,0.016L12.495,9.59
	l-0.026,0.015l-0.028,0.013l-0.032,0.012l-0.033,0.01l-0.038,0.007l-0.041,0.004l-0.044,0.001l-0.025-0.001l-0.025-0.004
	L12.18,9.638l-0.022-0.014L12.14,9.601l-0.012-0.029l-0.007-0.039l0.001-0.049l0.004-0.025l0.009-0.023l0.01-0.022l0.013-0.02
	l0.016-0.019l0.016-0.016l0.019-0.016l0.019-0.013l0.019-0.013l0.02-0.01l0.017-0.009l0.019-0.009l0.016-0.006l0.014-0.004
	l0.012-0.004l0.01-0.001l0.015-0.003l0.019-0.004l0.019-0.003l0.022-0.004l0.022-0.003l0.023-0.003L12.5,9.249l0.023-0.003
	l0.022-0.001h0.022l0.019,0.001l0.016,0.002l0.015,0.004l0.01,0.004l0.006,0.007l0.003,0.009L12.632,9.309z"/>
<path d="M5.924,8.826V8.771L5.915,8.721L5.9,8.675L5.878,8.631L5.849,8.592L5.817,8.557L5.781,8.525L5.74,8.497L5.697,8.473
	l-0.044-0.02L5.608,8.435L5.561,8.422l-0.045-0.01L5.473,8.404L5.432,8.401L5.381,8.4L5.33,8.399H5.282H5.236H5.19L5.147,8.4
	L5.105,8.401L5.064,8.404L5.025,8.407L4.987,8.413L4.949,8.419L4.914,8.426L4.879,8.433l-0.035,0.01L4.812,8.455L4.78,8.468
	L4.677,8.819L4.693,8.81l0.02-0.01L4.74,8.791l0.032-0.009l0.035-0.007l0.038-0.007l0.042-0.007L4.93,8.755l0.045-0.006l0.047-0.004
	L5.068,8.74l0.048-0.003l0.047-0.001h0.045l0.044,0.001l0.041,0.001L5.33,8.742l0.035,0.009l0.031,0.013l0.028,0.019l0.023,0.022
	l0.017,0.026L5.477,8.86l0.006,0.032L5.48,8.919L5.473,8.95L5.464,8.976l-0.003,0.01H5.457L5.442,8.985l-0.02-0.001L5.396,8.982
	H5.364L5.332,8.98L5.297,8.979H5.263H5.247L5.227,8.98L5.205,8.982L5.182,8.983L5.159,8.986L5.132,8.988L5.108,8.991L5.083,8.993
	L5.058,8.996L5.036,8.999l-0.02,0.001L4.999,9.004L4.982,9.005l-0.01,0.001L4.965,9.008H4.962L4.911,9.017L4.862,9.03L4.814,9.046
	l-0.047,0.02L4.724,9.089L4.681,9.117L4.641,9.148L4.604,9.181L4.569,9.217L4.539,9.258L4.513,9.3L4.489,9.347L4.471,9.396
	L4.456,9.447L4.447,9.501L4.443,9.558V9.59l0.003,0.032L4.45,9.655l0.006,0.033l0.009,0.032l0.012,0.032l0.015,0.032l0.017,0.031
	l0.02,0.029l0.023,0.028l0.029,0.026l0.032,0.023l0.036,0.022L4.69,9.962l0.047,0.015L4.788,9.99l0.039,0.006L4.868,10L4.91,9.999
	l0.042-0.003L4.996,9.99l0.042-0.009l0.042-0.01l0.042-0.013l0.039-0.015l0.038-0.017l0.036-0.017l0.035-0.02l0.031-0.02
	l0.028-0.022l0.023-0.023l0.02-0.023L5.367,9.821L5.361,9.862L5.353,9.916l-0.01,0.06H5.71l0.058-0.323l0.147-0.768L5.924,8.826z
	 M5.41,9.31L5.401,9.357l-0.01,0.048L5.38,9.447L5.375,9.463L5.368,9.479L5.359,9.497l-0.01,0.017L5.337,9.532L5.323,9.548
	L5.305,9.565L5.286,9.58L5.265,9.596L5.24,9.609L5.212,9.622l-0.029,0.01L5.15,9.641L5.112,9.647L5.073,9.651L5.029,9.652
	L5.006,9.651L4.982,9.647L4.958,9.638L4.936,9.623L4.917,9.601L4.903,9.572L4.895,9.533l0.002-0.049L4.901,9.46L4.91,9.437
	l0.01-0.02l0.015-0.019L4.951,9.38l0.017-0.017l0.019-0.015l0.02-0.015l0.019-0.012l0.02-0.01l0.019-0.01l0.019-0.009L5.1,9.286
	L5.116,9.28l0.012-0.004l0.01-0.003l0.016-0.004l0.017-0.004l0.02-0.004l0.022-0.003l0.023-0.003L5.26,9.251l0.025-0.003
	l0.023-0.002H5.33h0.022l0.019,0.002l0.016,0.003l0.015,0.003L5.41,9.258l0.006,0.007l0.001,0.007L5.41,9.31z"/>
</svg>
