<?xml version="1.0" encoding="utf-8"?>
<!-- Generator: Adobe Illustrator 19.2.1, SVG Export Plug-In . SVG Version: 6.00 Build 0)  -->
<svg version="1.0" id="art" xmlns="http://www.w3.org/2000/svg" xmlns:xlink="http://www.w3.org/1999/xlink" x="0px" y="0px"
	 width="30px" height="30px" viewBox="0 0 30 30" enable-background="new 0 0 30 30" xml:space="preserve">
<g id="check">
</g>
<g>
	
		<radialGradient id="SVGID_1_" cx="14.9203" cy="11.0304" r="11.3356" gradientTransform="matrix(0.9984 0 0 0.9984 0.4977 0.1261)" gradientUnits="userSpaceOnUse">
		<stop  offset="0.1932" style="stop-color:#FFFFFF"/>
		<stop  offset="0.227" style="stop-color:#F7FCFF"/>
		<stop  offset="0.2806" style="stop-color:#E0F5FD"/>
		<stop  offset="0.3474" style="stop-color:#BAE9FB"/>
		<stop  offset="0.4248" style="stop-color:#86D9F8"/>
		<stop  offset="0.5098" style="stop-color:#44C4F4"/>
		<stop  offset="0.5899" style="stop-color:#00AFF0"/>
		<stop  offset="1" style="stop-color:#005F9B"/>
	</radialGradient>
	<path fill-rule="evenodd" clip-rule="evenodd" fill="url(#SVGID_1_)" d="M25.75,12.397l-4.652-4.652c-0.09-0.09-0.236-0.09-0.325,0
		l-3.093,3.093c-0.089,0.09-0.089,0.236,0,0.325l1.516,1.517l2.127,0.225c0.126,0.013,0.23,0.104,0.23,0.23v1.902l0.778,0.778
		c0.089,0.09,0.236,0.09,0.325,0l3.093-3.093C25.839,12.633,25.839,12.487,25.75,12.397L25.75,12.397z"/>
	
		<radialGradient id="SVGID_2_" cx="14.9203" cy="11.0304" r="11.3356" gradientTransform="matrix(0.9984 0 0 0.9984 0.4977 0.1261)" gradientUnits="userSpaceOnUse">
		<stop  offset="0.1932" style="stop-color:#FFFFFF"/>
		<stop  offset="0.227" style="stop-color:#F7FCFF"/>
		<stop  offset="0.2806" style="stop-color:#E0F5FD"/>
		<stop  offset="0.3474" style="stop-color:#BAE9FB"/>
		<stop  offset="0.4248" style="stop-color:#86D9F8"/>
		<stop  offset="0.5098" style="stop-color:#44C4F4"/>
		<stop  offset="0.5899" style="stop-color:#00AFF0"/>
		<stop  offset="1" style="stop-color:#005F9B"/>
	</radialGradient>
	<path fill-rule="evenodd" clip-rule="evenodd" fill="url(#SVGID_2_)" d="M21.554,19.714v-6.579c0-0.126-0.104-0.23-0.23-0.23H16.95
		c-0.127,0-0.23,0.104-0.23,0.23v2.054l1.378,1.752c0.078,0.099,0.089,0.236,0,0.325l-1.378,1.378v1.069
		c0,0.127,0.104,0.23,0.23,0.23h4.373C21.45,19.944,21.554,19.84,21.554,19.714L21.554,19.714z"/>
	
		<radialGradient id="SVGID_3_" cx="14.9203" cy="11.0304" r="11.3356" gradientTransform="matrix(0.9984 0 0 0.9984 0.4977 0.1261)" gradientUnits="userSpaceOnUse">
		<stop  offset="0.1932" style="stop-color:#FFFFFF"/>
		<stop  offset="0.227" style="stop-color:#F7FCFF"/>
		<stop  offset="0.2806" style="stop-color:#E0F5FD"/>
		<stop  offset="0.3474" style="stop-color:#BAE9FB"/>
		<stop  offset="0.4248" style="stop-color:#86D9F8"/>
		<stop  offset="0.5098" style="stop-color:#44C4F4"/>
		<stop  offset="0.5899" style="stop-color:#00AFF0"/>
		<stop  offset="1" style="stop-color:#005F9B"/>
	</radialGradient>
	<path fill-rule="evenodd" clip-rule="evenodd" fill="url(#SVGID_3_)" d="M13.446,21.918l4.652-4.652
		c0.089-0.09,0.089-0.236,0-0.325l-3.093-3.093c-0.089-0.089-0.236-0.089-0.325,0l-1.475,1.475l-0.274,2.192
		c-0.016,0.126-0.104,0.23-0.23,0.23h-1.917L10.028,18.5c-0.089,0.089-0.089,0.236,0,0.325l3.093,3.092
		C13.21,22.008,13.356,22.008,13.446,21.918L13.446,21.918z"/>
	
		<radialGradient id="SVGID_4_" cx="14.9203" cy="11.0304" r="11.3356" gradientTransform="matrix(0.9984 0 0 0.9984 0.4977 0.1261)" gradientUnits="userSpaceOnUse">
		<stop  offset="0.1932" style="stop-color:#FFFFFF"/>
		<stop  offset="0.227" style="stop-color:#F7FCFF"/>
		<stop  offset="0.2806" style="stop-color:#E0F5FD"/>
		<stop  offset="0.3474" style="stop-color:#BAE9FB"/>
		<stop  offset="0.4248" style="stop-color:#86D9F8"/>
		<stop  offset="0.5098" style="stop-color:#44C4F4"/>
		<stop  offset="0.5899" style="stop-color:#00AFF0"/>
		<stop  offset="1" style="stop-color:#005F9B"/>
	</radialGradient>
	<path fill-rule="evenodd" clip-rule="evenodd" fill="url(#SVGID_4_)" d="M6.121,17.746H12.7c0.127,0,0.23-0.104,0.23-0.23v-4.373
		c0-0.127-0.104-0.23-0.23-0.23h-2.209l-1.629,1.33c-0.098,0.08-0.236,0.09-0.325,0l-1.33-1.33H6.121c-0.126,0-0.23,0.104-0.23,0.23
		v4.373C5.891,17.642,5.995,17.746,6.121,17.746L6.121,17.746z"/>
	
		<radialGradient id="SVGID_5_" cx="14.9203" cy="11.0304" r="11.3356" gradientTransform="matrix(0.9984 0 0 0.9984 0.4977 0.1261)" gradientUnits="userSpaceOnUse">
		<stop  offset="0.1932" style="stop-color:#FFFFFF"/>
		<stop  offset="0.227" style="stop-color:#F7FCFF"/>
		<stop  offset="0.2806" style="stop-color:#E0F5FD"/>
		<stop  offset="0.3474" style="stop-color:#BAE9FB"/>
		<stop  offset="0.4248" style="stop-color:#86D9F8"/>
		<stop  offset="0.5098" style="stop-color:#44C4F4"/>
		<stop  offset="0.5899" style="stop-color:#00AFF0"/>
		<stop  offset="1" style="stop-color:#005F9B"/>
	</radialGradient>
	<path fill-rule="evenodd" clip-rule="evenodd" fill="url(#SVGID_5_)" d="M8.077,2.267v6.579c0,0.127,0.104,0.23,0.23,0.23h4.373
		c0.127,0,0.23-0.104,0.23-0.23V6.757l-1.363-1.713c-0.079-0.099-0.09-0.236,0-0.325l1.363-1.363V2.267
		c0-0.126-0.104-0.23-0.23-0.23H8.308C8.181,2.037,8.077,2.141,8.077,2.267L8.077,2.267z"/>
	
		<radialGradient id="SVGID_6_" cx="14.9203" cy="11.0304" r="11.3356" gradientTransform="matrix(0.9984 0 0 0.9984 0.4977 0.1261)" gradientUnits="userSpaceOnUse">
		<stop  offset="0.1932" style="stop-color:#FFFFFF"/>
		<stop  offset="0.227" style="stop-color:#F7FCFF"/>
		<stop  offset="0.2806" style="stop-color:#E0F5FD"/>
		<stop  offset="0.3474" style="stop-color:#BAE9FB"/>
		<stop  offset="0.4248" style="stop-color:#86D9F8"/>
		<stop  offset="0.5098" style="stop-color:#44C4F4"/>
		<stop  offset="0.5899" style="stop-color:#00AFF0"/>
		<stop  offset="1" style="stop-color:#005F9B"/>
	</radialGradient>
	<path fill-rule="evenodd" clip-rule="evenodd" fill="url(#SVGID_6_)" d="M16.2,0.067l-4.652,4.652c-0.09,0.089-0.09,0.236,0,0.325
		l3.093,3.092c0.09,0.09,0.236,0.09,0.325,0l1.52-1.52l0.225-2.145c0.013-0.126,0.104-0.23,0.23-0.23h1.92l0.757-0.756
		c0.089-0.09,0.089-0.236,0-0.326l-3.093-3.092C16.435-0.022,16.289-0.022,16.2,0.067L16.2,0.067z"/>
	
		<radialGradient id="SVGID_7_" cx="14.9203" cy="11.0304" r="11.3356" gradientTransform="matrix(0.9984 0 0 0.9984 0.4977 0.1261)" gradientUnits="userSpaceOnUse">
		<stop  offset="0.1932" style="stop-color:#FFFFFF"/>
		<stop  offset="0.227" style="stop-color:#F7FCFF"/>
		<stop  offset="0.2806" style="stop-color:#E0F5FD"/>
		<stop  offset="0.3474" style="stop-color:#BAE9FB"/>
		<stop  offset="0.4248" style="stop-color:#86D9F8"/>
		<stop  offset="0.5098" style="stop-color:#44C4F4"/>
		<stop  offset="0.5899" style="stop-color:#00AFF0"/>
		<stop  offset="1" style="stop-color:#005F9B"/>
	</radialGradient>
	<path fill-rule="evenodd" clip-rule="evenodd" fill="url(#SVGID_7_)" d="M23.519,4.242h-6.579c-0.127,0-0.23,0.104-0.23,0.23v4.373
		c0,0.126,0.104,0.23,0.23,0.23h2.177l1.654-1.33c0.099-0.079,0.236-0.09,0.325,0l1.33,1.33h1.092c0.127,0,0.23-0.104,0.23-0.23
		V4.472C23.75,4.345,23.646,4.242,23.519,4.242L23.519,4.242z"/>
	
		<radialGradient id="SVGID_8_" cx="14.9203" cy="11.0304" r="11.3356" gradientTransform="matrix(0.9984 0 0 0.9984 0.4977 0.1261)" gradientUnits="userSpaceOnUse">
		<stop  offset="0.1932" style="stop-color:#FFFFFF"/>
		<stop  offset="0.227" style="stop-color:#F7FCFF"/>
		<stop  offset="0.2806" style="stop-color:#E0F5FD"/>
		<stop  offset="0.3474" style="stop-color:#BAE9FB"/>
		<stop  offset="0.4248" style="stop-color:#86D9F8"/>
		<stop  offset="0.5098" style="stop-color:#44C4F4"/>
		<stop  offset="0.5899" style="stop-color:#00AFF0"/>
		<stop  offset="1" style="stop-color:#005F9B"/>
	</radialGradient>
	<path fill-rule="evenodd" clip-rule="evenodd" fill="url(#SVGID_8_)" d="M3.884,9.59l4.652,4.652c0.089,0.09,0.236,0.09,0.325,0
		l3.093-3.093c0.089-0.089,0.089-0.236,0-0.325l-1.548-1.548l-2.098-0.2c-0.126-0.012-0.23-0.104-0.23-0.23V6.947L7.302,6.172
		c-0.089-0.09-0.236-0.09-0.325,0L3.884,9.265C3.794,9.354,3.794,9.501,3.884,9.59L3.884,9.59z"/>
</g>
<path fill-rule="evenodd" clip-rule="evenodd" fill="#005388" d="M21.554,13.135v1.902l0.778,0.778L21.554,13.135L21.554,13.135z
	 M21.098,7.746l1.33,1.33h1.092L21.098,7.746L21.098,7.746z M16.941,4.242h1.92l0.757-0.757L16.941,4.242L16.941,4.242z
	 M11.504,4.78l1.407-1.424V2.267L11.504,4.78L11.504,4.78z M8.078,8.846V6.947L7.302,6.172L8.078,8.846L8.078,8.846z M8.536,14.242
	l-1.33-1.33H6.121L8.536,14.242L8.536,14.242z M12.7,17.746h-1.917L10.028,18.5L12.7,17.746L12.7,17.746z M18.078,17.286
	l-1.359,1.359v1.069L18.078,17.286L18.078,17.286z"/>
<path fill="#005D99" d="M5.532,28.699c0.001,0.055-0.008,0.114-0.026,0.176c-0.017,0.063-0.047,0.121-0.088,0.177
	c-0.042,0.055-0.098,0.1-0.17,0.135c-0.071,0.035-0.161,0.053-0.269,0.054H4.151V28.18h0.833c0.12,0.001,0.221,0.024,0.301,0.069
	c0.082,0.045,0.143,0.106,0.185,0.184C5.511,28.511,5.532,28.599,5.532,28.699L5.532,28.699z M9.524,29.868v-0.485
	c0.001-0.055-0.006-0.092-0.021-0.111c-0.015-0.018-0.046-0.027-0.093-0.026H7.904c-0.082,0.001-0.15-0.009-0.205-0.029
	c-0.055-0.02-0.096-0.055-0.124-0.105c-0.028-0.05-0.042-0.12-0.042-0.208v-0.65H9.17c0.045,0,0.074-0.01,0.088-0.031
	c0.014-0.021,0.021-0.054,0.02-0.1v-0.445c0.001-0.053-0.006-0.089-0.02-0.109c-0.014-0.019-0.044-0.028-0.088-0.028H7.533v-0.439
	c-0.001-0.068,0.009-0.127,0.03-0.181c0.021-0.053,0.058-0.095,0.112-0.125c0.054-0.031,0.13-0.047,0.228-0.047h1.449
	c0.042,0.001,0.07-0.009,0.087-0.027c0.015-0.018,0.023-0.051,0.022-0.099v-0.485c0.001-0.053-0.006-0.089-0.02-0.109
	C9.427,26.009,9.398,25.999,9.353,26H7.715c-0.192,0.001-0.355,0.031-0.489,0.089c-0.134,0.058-0.243,0.137-0.325,0.236
	c-0.082,0.1-0.143,0.212-0.18,0.338c-0.038,0.126-0.057,0.257-0.056,0.394v1.894c-0.001,0.131,0.014,0.259,0.047,0.383
	c0.031,0.124,0.087,0.236,0.164,0.337c0.078,0.1,0.185,0.18,0.323,0.239c0.137,0.06,0.311,0.089,0.521,0.091H9.41
	c0.045,0,0.075-0.01,0.091-0.031C9.517,29.947,9.525,29.914,9.524,29.868L9.524,29.868z M16.026,27.872v-0.028
	c0.123-0.074,0.225-0.171,0.306-0.29c0.082-0.119,0.142-0.26,0.179-0.421l0.262-1.018c0.006-0.013,0.009-0.03,0.009-0.047
	c-0.001-0.018-0.008-0.033-0.021-0.046c-0.013-0.013-0.036-0.02-0.067-0.021h-0.639c-0.021-0.001-0.043,0.003-0.066,0.012
	c-0.023,0.009-0.039,0.031-0.048,0.068l-0.257,0.96c-0.031,0.117-0.071,0.21-0.122,0.279c-0.05,0.07-0.107,0.121-0.168,0.154
	c-0.061,0.033-0.123,0.055-0.186,0.066c-0.063,0.01-0.123,0.014-0.18,0.013h-0.456v-1.449c0.009-0.042,0.005-0.068-0.011-0.078
	c-0.016-0.01-0.043-0.015-0.08-0.013h-0.667c-0.034-0.002-0.06,0.003-0.077,0.013c-0.017,0.01-0.026,0.036-0.026,0.078v3.805
	c0,0.041,0.009,0.068,0.026,0.078c0.017,0.01,0.043,0.015,0.077,0.013h0.662c0.037,0.002,0.063-0.003,0.079-0.013
	c0.016-0.01,0.024-0.037,0.024-0.078l-0.006-1.694h0.468c0.132-0.002,0.244,0.01,0.336,0.037c0.091,0.026,0.167,0.073,0.228,0.143
	c0.06,0.069,0.11,0.169,0.149,0.3L16.1,29.92c0.012,0.036,0.029,0.058,0.05,0.067c0.022,0.01,0.043,0.013,0.064,0.012h0.662
	c0.031-0.001,0.054-0.007,0.067-0.021c0.013-0.013,0.02-0.029,0.021-0.046c0-0.018-0.003-0.033-0.008-0.048l-0.354-1.324
	c-0.022-0.086-0.046-0.164-0.072-0.233c-0.026-0.07-0.06-0.133-0.101-0.189c-0.04-0.056-0.093-0.106-0.158-0.151
	C16.206,27.945,16.125,27.906,16.026,27.872L16.026,27.872z M18.427,28.459l0.217-0.723l0.217-0.814h0.034l0.211,0.814l0.217,0.723
	H18.427L18.427,28.459z M19.528,29.167l0.223,0.742c0.011,0.041,0.031,0.068,0.059,0.078c0.028,0.01,0.064,0.015,0.107,0.013h0.679
	c0.028-0.001,0.048-0.007,0.061-0.02c0.012-0.012,0.02-0.027,0.021-0.045c0.001-0.017-0.002-0.033-0.008-0.049l-1.187-3.572
	c-0.029-0.091-0.063-0.16-0.099-0.205c-0.036-0.045-0.082-0.074-0.137-0.088s-0.125-0.02-0.209-0.019h-0.342
	c-0.076-0.001-0.14,0.008-0.193,0.026c-0.053,0.017-0.097,0.049-0.133,0.095c-0.036,0.046-0.066,0.109-0.09,0.192l-1.187,3.572
	c-0.01,0.032-0.008,0.059,0.002,0.081c0.011,0.021,0.036,0.032,0.078,0.033h0.668c0.052,0,0.09-0.008,0.112-0.027
	c0.022-0.017,0.038-0.045,0.048-0.082l0.223-0.725H19.528L19.528,29.167z M23.093,27.307c0,0.102-0.02,0.193-0.06,0.275
	c-0.041,0.082-0.103,0.146-0.186,0.194c-0.083,0.048-0.189,0.072-0.318,0.073h-0.747v-1.084h0.742
	c0.115,0.001,0.21,0.019,0.284,0.055c0.074,0.035,0.132,0.081,0.174,0.137c0.042,0.055,0.071,0.114,0.088,0.176
	C23.085,27.195,23.094,27.253,23.093,27.307L23.093,27.307z M21.781,29.88V28.55h0.759c0.213-0.001,0.397-0.025,0.553-0.069
	c0.155-0.045,0.286-0.105,0.393-0.181c0.107-0.076,0.193-0.161,0.26-0.254c0.066-0.093,0.118-0.189,0.153-0.286
	c0.035-0.098,0.059-0.19,0.072-0.279c0.012-0.088,0.019-0.165,0.018-0.231c0-0.182-0.031-0.349-0.092-0.501
	c-0.061-0.152-0.149-0.283-0.265-0.395c-0.115-0.111-0.256-0.198-0.42-0.26c-0.164-0.061-0.35-0.092-0.557-0.093h-1.398
	c-0.09,0-0.161,0.015-0.21,0.043c-0.05,0.028-0.085,0.069-0.105,0.121c-0.019,0.052-0.028,0.113-0.028,0.184v3.532
	c0,0.045,0.01,0.076,0.031,0.094c0.021,0.018,0.054,0.027,0.1,0.026h0.599c0.038,0,0.066-0.002,0.087-0.007
	c0.02-0.006,0.033-0.017,0.04-0.034C21.778,29.942,21.781,29.915,21.781,29.88L21.781,29.88z M27.183,26.628V26.12
	c0.001-0.048-0.007-0.08-0.023-0.096c-0.016-0.017-0.047-0.025-0.091-0.024h-2.921c-0.042-0.001-0.07,0.007-0.087,0.024
	c-0.015,0.016-0.023,0.048-0.022,0.096v0.508c0,0.037,0.008,0.066,0.027,0.085c0.017,0.019,0.045,0.029,0.082,0.029h1.01v3.138
	c0,0.045,0.011,0.076,0.031,0.094c0.021,0.018,0.054,0.027,0.1,0.026h0.61c0.056,0.001,0.093-0.007,0.111-0.024
	c0.019-0.017,0.028-0.049,0.026-0.096v-3.138h1.033c0.037,0,0.066-0.01,0.084-0.029C27.173,26.693,27.183,26.665,27.183,26.628
	L27.183,26.628z M3.626,30h1.438c0.194-0.001,0.374-0.032,0.539-0.094c0.165-0.062,0.31-0.149,0.434-0.261
	c0.124-0.113,0.221-0.245,0.29-0.398c0.069-0.153,0.105-0.32,0.105-0.502c0.001-0.066-0.004-0.143-0.013-0.23
	c-0.01-0.088-0.029-0.18-0.061-0.277c-0.03-0.097-0.078-0.191-0.141-0.283c-0.064-0.092-0.148-0.176-0.255-0.251
	c-0.106-0.075-0.24-0.135-0.4-0.18c-0.161-0.045-0.354-0.068-0.579-0.069H4.151v-0.713h1.723c0.042,0.001,0.069-0.007,0.084-0.022
	c0.013-0.016,0.02-0.045,0.019-0.087v-0.508c0.001-0.048-0.006-0.081-0.019-0.099C5.944,26.008,5.916,25.999,5.874,26H3.649
	c-0.09,0-0.163,0.014-0.216,0.041c-0.054,0.028-0.092,0.07-0.115,0.127c-0.024,0.057-0.035,0.13-0.034,0.22v3.269
	c-0.001,0.082,0.008,0.147,0.027,0.198c0.019,0.05,0.053,0.087,0.103,0.11C3.463,29.988,3.534,30,3.626,30L3.626,30z M10.407,26.382
	l-0.052,0.867c-0.017,0.296-0.036,0.551-0.056,0.77c-0.032,0.361-0.068,1.227-0.536,1.227c-0.047,0-0.078,0.008-0.093,0.026
	c-0.015,0.019-0.021,0.056-0.021,0.111v0.485c0,0.046,0.007,0.079,0.023,0.1C9.689,29.989,9.72,30,9.764,30
	c0.362,0,0.68-0.029,0.952-0.441c0.084-0.126,0.157-0.268,0.209-0.429c0.053-0.161,0.095-0.341,0.126-0.54
	c0.031-0.199,0.055-0.417,0.075-0.657c0.019-0.239,0.038-0.498,0.057-0.78l0.023-0.399h1.113v3.138c0,0.042,0.008,0.069,0.025,0.084
	c0.018,0.014,0.048,0.02,0.089,0.019h0.633c0.036,0,0.062-0.003,0.079-0.008c0.018-0.006,0.029-0.016,0.034-0.03
	c0.005-0.015,0.007-0.037,0.007-0.065v-3.509c0.001-0.086-0.011-0.157-0.033-0.213c-0.024-0.057-0.062-0.099-0.115-0.127
	C12.983,26.015,12.911,26,12.821,26h-2.048c-0.09,0-0.162,0.014-0.212,0.039c-0.051,0.027-0.088,0.068-0.111,0.125
	C10.426,26.221,10.412,26.293,10.407,26.382L10.407,26.382z"/>
</svg>
