<?xml version="1.0" encoding="utf-8"?>
<!-- Generator: Adobe Illustrator 19.2.1, SVG Export Plug-In . SVG Version: 6.00 Build 0)  -->
<svg version="1.0" id="art" xmlns="http://www.w3.org/2000/svg" xmlns:xlink="http://www.w3.org/1999/xlink" x="0px" y="0px"
	 width="36px" height="36px" viewBox="0 0 36 36" enable-background="new 0 0 36 36" xml:space="preserve">
<g id="check">
</g>
<polygon fill="#FFFFFF" points="13.435,22.834 15.95,22.834 17.523,13.173 15.007,13.173 "/>
<path fill="#FFFFFF" d="M27.61,21.399h3.197l0.295,1.435h2.309l-2.013-9.661h-2.022c-0.934,0-1.161,0.72-1.161,0.72l-3.751,8.941
	h2.621L27.61,21.399z M29.656,15.801l0.743,3.615h-2.065L29.656,15.801z"/>
<path fill="#FFFFFF" d="M17.874,20.285L17.5,22.454c0,0,1.123,0.546,2.839,0.546c1.716,0,4.306-0.889,4.306-3.307
	c0-2.512-3.51-2.746-3.51-3.838c0-1.092,2.449-0.952,3.526-0.359l0.359-2.075c0,0-1.108-0.421-2.262-0.421
	c-1.248,0-4.212,0.546-4.212,3.198c0,2.496,3.479,2.527,3.479,3.838S18.904,21.112,17.874,20.285z"/>
<path fill="#FFFFFF" d="M7.792,14.043c0,0-0.102-0.87-1.193-0.87H2.635l-0.046,0.164c0,0,0.032,0.007,0.064,0.015
	c0.015,0.004,0.041,0.011,0.061,0.016c0.037,0.009,0.087,0.023,0.14,0.038c0.035,0.01,0.074,0.021,0.115,0.034
	c0.062,0.018,0.135,0.042,0.21,0.067c0.049,0.016,0.095,0.031,0.149,0.049c0.114,0.039,0.241,0.087,0.375,0.139
	c0.048,0.019,0.098,0.04,0.149,0.061c0.132,0.054,0.271,0.115,0.416,0.182c0.066,0.031,0.137,0.067,0.205,0.101
	c0.119,0.059,0.241,0.122,0.366,0.19c0.077,0.042,0.156,0.086,0.235,0.132c0.049,0.028,0.099,0.062,0.148,0.091l2.183,8.383h2.62
	l4.002-9.661h-2.707l-2.398,6.645l-0.284-1.431l0,0L7.792,14.043z"/>
</svg>
