<?xml version="1.0" encoding="UTF-8" standalone="no"?>
<!-- Generator: Adobe Illustrator 18.1.1, SVG Export Plug-In . SVG Version: 6.00 Build 0)  -->
<svg id="Слой_1" xmlns="http://www.w3.org/2000/svg" xml:space="preserve" viewBox="76.5 -39.625 154.375 50.125" version="1.1" y="0px" x="0px" xmlns:xlink="http://www.w3.org/1999/xlink" enable-background="new 76.5 -39.625 154.375 50.125">
<path d="m78.51-37.13c2.02-1.04 4.33-0.62 6.5-0.66 4.97 0.13 9.95-0.12 14.92 0.1 2.24-0.01 4.16 1.85 4.47 4.02 1.56 7.56 2.99 15.15 4.52 22.73-2.53-8.88-9.21-16.13-17.06-20.74-4.15-2.49-8.78-3.94-13.35-5.45z" fill="#fff"/>
<path d="m121.75-37.77c4.31 0.05 8.61 0.03 12.91 0-6.54 15.63-12.64 31.44-19.32 47.01-4.2-0.13-8.4-0.07-12.6-0.07-3.72-13.59-7.19-27.25-10.88-40.85 7.85 4.61 14.53 11.86 17.06 20.74 0.38 1.72 0.65 3.48 0.98 5.22 3.92-10.69 7.89-21.37 11.85-32.05z" fill="#fff"/>
<path d="m139.49-37.79c4.05 0.03 8.1 0.03 12.15 0-2.49 15.66-5.11 31.3-7.54 46.97-4.03 0.01-8.06 0.01-12.1 0 2.32-15.68 5.05-31.3 7.49-46.97z" fill="#fff"/>
<path d="m163.16-34.84c7.26-4.77 16.75-4.63 24.78-1.99-0.37 3.47-0.95 6.91-1.55 10.34-4.27-2.05-9.25-2.96-13.89-1.77-2.19 0.52-4.35 3.24-2.53 5.28 3.74 3.83 9.63 4.7 13.15 8.87 4.08 3.99 3.93 10.71 1.15 15.38-2.94 4.93-8.6 7.51-14.11 8.25-6.23 0.65-12.72 0.26-18.56-2.15 0.62-3.5 1.14-7.02 1.77-10.52 5.05 2.61 10.91 3.92 16.54 2.67 1.91-0.64 3.88-2.21 3.71-4.45-0.63-2.67-3.42-3.81-5.59-5.02-4.21-2.07-8.74-4.61-10.63-9.16-2.35-5.75 0.76-12.48 5.76-15.73z" fill="#fff"/>
<path d="m219.11-37.73c-3.72 0.07-7.46-0.15-11.18 0.11-2.53 0.13-4.13 2.48-4.94 4.64-5.85 14.08-11.77 28.13-17.63 42.2 4.24-0.01 8.48-0.01 12.72-0.01 0.89-2.35 1.75-4.72 2.58-7.09 5.18 0.03 10.36 0.02 15.55 0.02 0.48 2.37 0.98 4.73 1.51 7.08 3.74-0.01 7.48-0.01 11.22-0.02-3.28-15.64-6.5-31.29-9.83-46.93zm-14.92 30.19c2.26-5.81 4.11-11.79 6.64-17.49 0.75 5.9 2.22 11.68 3.43 17.5-3.36 0-6.71 0-10.07-0.01z" fill="#fff"/>
</svg>
