<?xml version="1.0" encoding="utf-8"?>
<!-- Generator: Adobe Illustrator 19.2.1, SVG Export Plug-In . SVG Version: 6.00 Build 0)  -->
<svg version="1.0" id="art" xmlns="http://www.w3.org/2000/svg" xmlns:xlink="http://www.w3.org/1999/xlink" x="0px" y="0px"
	 width="18px" height="18px" viewBox="0 0 18 18" enable-background="new 0 0 18 18" xml:space="preserve">
<g id="check">
</g>
<path fill="#FFFFFF" d="M11.492,3C10.616,3,9.776,3.188,9,3.511C8.224,3.188,7.384,3,6.508,3c-3.584,0-6.5,2.916-6.5,6.5
	s2.916,6.5,6.5,6.5C7.384,16,8.224,15.812,9,15.489C9.776,15.812,10.616,16,11.492,16c3.584,0,6.5-2.916,6.5-6.5S15.076,3,11.492,3z
	 M11.492,15c-0.44,0-0.866-0.066-1.281-0.165c0.991-0.688,1.797-1.647,2.288-2.811l-0.921-0.389
	c-0.517,1.225-1.444,2.183-2.578,2.759c-1.134-0.577-2.061-1.534-2.578-2.759l-0.921,0.389c0.491,1.164,1.297,2.123,2.288,2.811
	C7.374,14.934,6.948,15,6.508,15c-3.033,0-5.5-2.467-5.5-5.5S3.475,4,6.508,4c0.44,0,0.866,0.066,1.281,0.165
	C6.799,4.852,5.994,5.808,5.503,6.97l0.921,0.39C6.941,6.137,7.868,5.181,9,4.605c1.132,0.576,2.059,1.531,2.576,2.754l0.921-0.39
	c-0.491-1.161-1.296-2.118-2.286-2.805C10.626,4.066,11.052,4,11.492,4c3.033,0,5.5,2.467,5.5,5.5S14.525,15,11.492,15z"/>
<polygon fill="#FFFFFF" points="16.288,11.96 16.285,12 16.331,12 16.334,11.966 16.336,11.958 16.288,11.958 "/>
<polygon fill="#FFFFFF" points="10.264,8.711 10.273,8.684 10.288,8.659 10.307,8.636 10.331,8.614 10.36,8.595 10.391,8.577 
	10.427,8.563 10.466,8.55 10.51,8.54 10.556,8.534 10.62,8.529 10.679,8.526 10.731,8.524 10.779,8.524 10.822,8.526 10.862,8.529 
	10.897,8.532 10.931,8.536 10.963,8.54 10.993,8.545 11.022,8.55 11.051,8.555 11.079,8.558 11.108,8.563 11.14,8.566 11.172,8.568 
	11.287,8.051 11.269,8.049 11.25,8.046 11.229,8.043 11.207,8.039 11.181,8.035 11.151,8.031 11.119,8.027 11.082,8.022 
	11.043,8.019 10.996,8.014 10.945,8.011 10.889,8.007 10.826,8.004 10.757,8.003 10.68,8.001 10.596,8.001 10.527,8.001 
	10.462,8.004 10.398,8.007 10.337,8.012 10.28,8.019 10.226,8.027 10.173,8.036 10.122,8.047 10.074,8.06 10.029,8.073 9.986,8.089 
	9.946,8.105 9.908,8.124 9.871,8.143 9.838,8.164 9.806,8.186 9.776,8.21 9.748,8.236 9.723,8.263 9.699,8.292 9.677,8.322 
	9.656,8.352 9.638,8.386 9.621,8.419 9.606,8.456 9.592,8.493 9.581,8.532 9.571,8.572 9.562,8.614 9.555,8.657 9.549,8.702 
	9.544,8.748 9.539,8.823 9.541,8.893 9.549,8.957 9.562,9.016 9.581,9.069 9.603,9.118 9.63,9.163 9.661,9.204 9.694,9.241 
	9.731,9.276 9.769,9.306 9.811,9.333 9.854,9.359 9.898,9.383 9.943,9.404 9.988,9.423 10.034,9.442 10.079,9.46 10.123,9.477 
	10.165,9.493 10.206,9.509 10.246,9.527 10.283,9.544 10.316,9.562 10.347,9.581 10.374,9.602 10.396,9.624 10.414,9.649 
	10.427,9.675 10.435,9.705 10.436,9.737 10.431,9.774 10.422,9.809 10.407,9.844 10.39,9.879 10.366,9.913 10.334,9.941 
	10.294,9.967 10.242,9.985 10.178,9.996 10.109,9.999 10.042,9.999 9.975,9.997 9.91,9.994 9.844,9.988 9.782,9.981 9.721,9.973 
	9.664,9.965 9.61,9.956 9.559,9.946 9.511,9.935 9.468,9.927 9.431,9.918 9.397,9.91 9.37,9.902 9.348,9.897 9.249,10.398 
	9.289,10.412 9.327,10.427 9.365,10.438 9.404,10.449 9.445,10.46 9.487,10.468 9.531,10.476 9.579,10.482 9.63,10.489 
	9.688,10.494 9.748,10.497 9.817,10.5 9.892,10.502 9.973,10.503 10.063,10.505 10.162,10.505 10.233,10.503 10.307,10.498 
	10.384,10.49 10.462,10.478 10.54,10.46 10.618,10.436 10.695,10.407 10.768,10.372 10.838,10.329 10.904,10.28 10.963,10.222 
	11.017,10.155 11.063,10.079 11.1,9.993 11.129,9.897 11.146,9.79 11.154,9.646 11.146,9.525 11.122,9.423 11.086,9.337 
	11.038,9.266 10.98,9.207 10.915,9.161 10.846,9.123 10.773,9.091 10.696,9.064 10.621,9.04 10.549,9.016 10.481,8.992 
	10.417,8.963 10.363,8.93 10.316,8.888 10.294,8.858 10.277,8.828 10.265,8.797 10.259,8.767 10.259,8.738 "/>
<polygon fill="#FFFFFF" points="11.928,9.831 12.14,8.56 12.544,8.568 12.634,8.058 12.239,8.058 12.338,7.5 11.697,7.5 
	11.271,9.996 11.263,10.053 11.258,10.106 11.256,10.157 11.258,10.203 11.264,10.248 11.276,10.288 11.293,10.324 11.317,10.358 
	11.347,10.388 11.384,10.415 11.429,10.439 11.481,10.458 11.544,10.476 11.615,10.489 11.697,10.498 11.788,10.505 11.96,10.505 
	11.998,10.5 12.035,10.495 12.067,10.49 12.097,10.486 12.126,10.481 12.153,10.476 12.177,10.471 12.199,10.465 12.222,10.458 
	12.241,10.452 12.26,10.446 12.278,10.439 12.295,10.431 12.313,10.423 12.33,10.415 12.346,10.406 12.412,9.97 12.407,9.972 
	12.394,9.978 12.373,9.986 12.346,9.994 12.311,10.002 12.27,10.009 12.225,10.012 12.174,10.012 12.147,10.012 12.12,10.01 
	12.094,10.009 12.069,10.004 12.046,10 12.024,9.994 12.005,9.986 11.986,9.977 11.97,9.967 11.955,9.954 11.944,9.938 
	11.935,9.922 11.928,9.903 11.925,9.882 11.925,9.859 "/>
<path fill="#FFFFFF" d="M7.16,8.703L7.159,8.617L7.144,8.536L7.119,8.461L7.083,8.392L7.039,8.33L6.986,8.274L6.927,8.223
	L6.863,8.178L6.796,8.14L6.724,8.106L6.653,8.079L6.581,8.058L6.509,8.041L6.44,8.031L6.375,8.025l-0.08-0.002L6.219,8.022H6.145
	H6.072h-0.07L5.935,8.023L5.869,8.027L5.805,8.03L5.743,8.036L5.682,8.044l-0.057,0.01L5.569,8.065L5.515,8.079L5.464,8.097
	L5.413,8.118L5.365,8.14L5.201,8.682l0.024-0.014l0.034-0.013l0.042-0.013L5.349,8.63l0.056-0.013l0.059-0.011l0.065-0.01
	l0.069-0.011L5.67,8.577l0.073-0.008l0.073-0.006L5.89,8.558l0.073-0.005l0.072-0.002L6.104,8.55l0.065,0.002l0.027,0.003
	L6.223,8.56l0.027,0.006l0.026,0.008L6.3,8.585l0.024,0.013l0.021,0.013l0.021,0.016l0.019,0.019l0.016,0.019l0.016,0.021
	l0.013,0.022L6.44,8.732l0.008,0.026l0.005,0.027l0.003,0.029v0.04L6.448,8.898L6.437,8.936L6.432,8.952H6.431H6.424h-0.01
	L6.402,8.951H6.386L6.369,8.949H6.348L6.326,8.947H6.3H6.274L6.249,8.946H6.222L6.193,8.944H6.166H6.139H6.112H6.086l-0.03,0.002
	L6.022,8.947L5.987,8.951L5.949,8.954l-0.04,0.003L5.871,8.962L5.832,8.965L5.794,8.968L5.759,8.973L5.727,8.976L5.7,8.979
	L5.676,8.982L5.659,8.984L5.647,8.986H5.644L5.566,9L5.489,9.019L5.414,9.045L5.341,9.077l-0.07,0.037L5.204,9.156L5.141,9.203
	L5.082,9.255L5.03,9.314L4.98,9.377L4.939,9.444L4.902,9.515l-0.03,0.077L4.851,9.673L4.837,9.758L4.83,9.847l0.002,0.049
	l0.003,0.051L4.841,10l0.01,0.051l0.014,0.053l0.018,0.051l0.022,0.049l0.027,0.048l0.032,0.048l0.038,0.043l0.043,0.042
	l0.051,0.037l0.057,0.034l0.065,0.03l0.072,0.026l0.081,0.019l0.062,0.01l0.064,0.005l0.065-0.002l0.067-0.005l0.067-0.01
	l0.067-0.013l0.067-0.018l0.065-0.021l0.062-0.024l0.061-0.026l0.057-0.029l0.053-0.03l0.049-0.032l0.043-0.034l0.038-0.035
	l0.03-0.035l-0.006,0.011l-0.006,0.019l-0.005,0.029l-0.006,0.034l-0.006,0.04l-0.006,0.043l-0.006,0.048l-0.006,0.048h0.576
	L6.91,9.996l0.238-1.198L7.16,8.703z M6.353,9.426L6.346,9.46L6.34,9.495L6.334,9.533l-0.008,0.04L6.318,9.611L6.31,9.648
	L6.302,9.683L6.294,9.707l-0.01,0.026L6.271,9.758L6.255,9.785L6.236,9.812L6.214,9.838L6.188,9.865l-0.03,0.024L6.125,9.913
	L6.086,9.935L6.043,9.954L5.995,9.97L5.943,9.985L5.883,9.996l-0.062,0.006l-0.07,0.002l-0.038-0.002l-0.04-0.008L5.636,9.978
	L5.601,9.954L5.572,9.919L5.553,9.871L5.542,9.811l0.003-0.078l0.008-0.038l0.013-0.037l0.016-0.034l0.022-0.03l0.024-0.029
	l0.027-0.026l0.029-0.024l0.03-0.022l0.03-0.018l0.03-0.018l0.03-0.014l0.027-0.011l0.026-0.011l0.024-0.008l0.019-0.006
	l0.014-0.003l0.026-0.008L5.97,9.388l0.034-0.006l0.035-0.006l0.037-0.006l0.037-0.005L6.15,9.359l0.037-0.003h0.035h0.034
	l0.029,0.002l0.027,0.003l0.021,0.005l0.016,0.008l0.01,0.01l0.002,0.013L6.353,9.426z"/>
<polygon fill="#FFFFFF" points="3.926,7.5 3.187,9.289 3.08,7.5 1.995,7.5 1.47,10.505 2.094,10.505 2.488,8.255 2.491,8.255 
	2.499,8.255 2.505,8.255 2.512,8.255 2.513,8.255 2.52,8.365 2.534,8.627 2.555,8.989 2.579,9.399 2.603,9.806 2.623,10.16 
	2.638,10.411 2.644,10.505 3.343,10.505 4.272,8.255 4.296,8.255 3.902,10.505 4.526,10.505 5.052,7.5 "/>
<polygon fill="#FFFFFF" points="14.031,8.667 14.041,8.668 14.054,8.67 14.067,8.67 14.078,8.671 14.087,8.673 14.094,8.674 
	14.097,8.674 14.098,8.665 14.105,8.638 14.113,8.596 14.126,8.544 14.142,8.485 14.159,8.421 14.18,8.357 14.204,8.296 
	14.221,8.252 14.242,8.208 14.263,8.165 14.285,8.125 14.304,8.092 14.32,8.065 14.331,8.047 14.335,8.041 14.331,8.041 
	14.323,8.038 14.312,8.036 14.296,8.033 14.28,8.03 14.261,8.028 14.244,8.025 14.228,8.025 14.157,8.03 14.094,8.038 14.035,8.051 
	13.98,8.065 13.929,8.084 13.883,8.105 13.838,8.13 13.798,8.157 13.758,8.188 13.722,8.221 13.688,8.256 13.653,8.295 13.62,8.335 
	13.588,8.378 13.554,8.422 13.521,8.469 13.596,8.058 12.946,8.051 12.519,10.505 13.168,10.505 13.39,9.207 13.399,9.156 
	13.411,9.107 13.423,9.057 13.439,9.011 13.457,8.965 13.479,8.922 13.506,8.88 13.537,8.84 13.573,8.805 13.615,8.773 
	13.664,8.745 13.719,8.719 13.782,8.698 13.854,8.682 13.934,8.673 14.023,8.667 "/>
<path fill="#FFFFFF" d="M15.26,8.027L15.191,8.03l-0.067,0.008l-0.065,0.008l-0.064,0.013l-0.062,0.014L14.872,8.09l-0.059,0.019
	l-0.056,0.022l-0.056,0.024l-0.054,0.029l-0.053,0.029l-0.049,0.032L14.497,8.28l-0.046,0.037l-0.045,0.04L14.365,8.4l-0.04,0.043
	l-0.038,0.048l-0.035,0.048l-0.034,0.053l-0.032,0.053L14.157,8.7l-0.026,0.059L14.108,8.82l-0.021,0.062l-0.019,0.065l-0.016,0.067
	l-0.014,0.069l-0.011,0.072l-0.008,0.073l-0.005,0.077L14.012,9.38l0.002,0.073l0.005,0.07l0.008,0.069l0.011,0.065l0.014,0.064
	l0.018,0.062l0.019,0.059l0.022,0.056l0.024,0.054l0.029,0.053l0.029,0.049l0.034,0.048l0.034,0.045l0.038,0.043l0.038,0.04
	l0.042,0.038l0.045,0.035l0.045,0.034l0.048,0.03l0.049,0.029l0.051,0.025l0.053,0.024l0.056,0.021l0.056,0.019l0.057,0.016
	l0.061,0.013l0.061,0.011l0.062,0.01l0.062,0.006l0.065,0.003l0.065,0.002l0.065-0.002l0.065-0.003l0.064-0.006l0.064-0.008
	l0.061-0.011l0.061-0.013l0.061-0.016l0.057-0.019l0.057-0.021l0.054-0.024l0.054-0.026l0.053-0.029l0.049-0.03l0.049-0.034
	l0.046-0.037l0.045-0.038l0.043-0.042l0.042-0.043l0.04-0.046l0.037-0.049l0.034-0.051l0.033-0.054l0.029-0.057l0.029-0.059
	l0.024-0.062l0.022-0.065l0.021-0.067l0.016-0.07l0.014-0.073l0.011-0.075l0.01-0.078l0.005-0.081l0.002-0.067l-0.002-0.067
	l-0.003-0.065l-0.006-0.062l-0.01-0.062l-0.013-0.061l-0.014-0.059l-0.018-0.056L16.446,8.7l-0.024-0.053l-0.024-0.053l-0.029-0.049
	l-0.03-0.048l-0.032-0.045l-0.035-0.045l-0.038-0.042l-0.04-0.04L16.152,8.29l-0.045-0.035L16.06,8.221l-0.048-0.03l-0.053-0.027
	l-0.053-0.026l-0.056-0.024l-0.059-0.021l-0.059-0.018L15.67,8.06l-0.064-0.013l-0.067-0.01l-0.069-0.006l-0.07-0.005l-0.072-0.002
	L15.26,8.027z M15.439,8.568l0.048,0.008l0.045,0.013l0.041,0.021l0.037,0.026l0.034,0.032l0.029,0.035l0.026,0.041l0.021,0.046
	l0.018,0.049l0.013,0.054l0.008,0.056l0.005,0.061v0.064l-0.005,0.065l-0.008,0.069l-0.014,0.088l-0.016,0.081l-0.021,0.075
	L15.673,9.52l-0.026,0.062l-0.03,0.057l-0.032,0.051l-0.034,0.045l-0.038,0.04l-0.04,0.034l-0.043,0.029L15.386,9.86l-0.048,0.018
	l-0.049,0.011l-0.053,0.006l-0.054,0.002l-0.049-0.003l-0.046-0.006l-0.045-0.013l-0.04-0.018l-0.037-0.022l-0.033-0.029
	l-0.03-0.034l-0.027-0.04l-0.022-0.046l-0.018-0.051L14.82,9.579l-0.01-0.064l-0.005-0.07V9.37l0.005-0.083l0.01-0.089l0.01-0.053
	l0.011-0.054l0.016-0.054l0.019-0.054l0.021-0.054l0.026-0.051l0.029-0.051l0.034-0.048l0.035-0.045l0.04-0.04l0.045-0.035
	l0.048-0.032l0.053-0.024l0.056-0.019l0.061-0.011l0.065-0.005H15.439z"/>
<path fill="#FFFFFF" d="M9.342,8.783l-0.008-0.07L9.321,8.646L9.306,8.583L9.287,8.524L9.265,8.47L9.239,8.419L9.212,8.373
	l-0.03-0.045l-0.034-0.04L9.113,8.252L9.075,8.218L9.037,8.186L8.995,8.159L8.954,8.133L8.911,8.111L8.866,8.092L8.82,8.074
	L8.773,8.06L8.727,8.047L8.681,8.036l-0.048-0.01L8.587,8.02L8.54,8.015L8.494,8.012L8.449,8.009H8.405L8.309,8.012L8.22,8.019
	L8.133,8.03L8.052,8.046L7.976,8.065L7.904,8.089L7.835,8.116L7.771,8.145L7.711,8.178L7.655,8.213L7.602,8.252L7.554,8.293
	L7.508,8.335L7.466,8.379L7.428,8.426L7.392,8.472L7.36,8.52l-0.03,0.049L7.302,8.619L7.277,8.668L7.254,8.718L7.234,8.767
	L7.216,8.815L7.2,8.864L7.187,8.912L7.174,8.958L7.163,9.003L7.155,9.046L7.147,9.088L7.141,9.126L7.136,9.164L7.131,9.198
	L7.123,9.294L7.12,9.386v0.086l0.006,0.083l0.01,0.08l0.014,0.073l0.018,0.07L7.19,9.846l0.026,0.062l0.029,0.059l0.032,0.054
	l0.035,0.053l0.037,0.048l0.042,0.045l0.043,0.042l0.045,0.038l0.048,0.035l0.048,0.032l0.051,0.029l0.053,0.027l0.054,0.024
	l0.054,0.021l0.056,0.018l0.056,0.018l0.057,0.013l0.057,0.013l0.057,0.01l0.059,0.008l0.057,0.006l0.056,0.003l0.057,0.003h0.056
	h0.077l0.07-0.002h0.064L8.623,10.5l0.053-0.002l0.049-0.005l0.045-0.005l0.042-0.005l0.04-0.008l0.037-0.008l0.035-0.01
	l0.035-0.013l0.035-0.013l0.034-0.014l0.037-0.018l0.037-0.019L9.2,9.815L9.132,9.854L9.067,9.889L9,9.918L8.936,9.941L8.872,9.962
	L8.809,9.978L8.745,9.989l-0.062,0.01l-0.061,0.005L8.56,10.007H8.501L8.44,10.005l-0.059-0.003L8.322,9.996L8.264,9.988L8.207,9.98
	L8.159,9.969L8.111,9.953L8.067,9.932L8.023,9.906l-0.04-0.03L7.947,9.844L7.912,9.807l-0.03-0.038l-0.027-0.04L7.832,9.688
	L7.813,9.645L7.8,9.602L7.79,9.56L7.787,9.517l0.002-0.04l0.006-0.032h1.478l0.026-0.141l0.019-0.099l0.014-0.094L9.34,9.022
	l0.005-0.085v-0.08L9.342,8.783z M8.713,8.941L8.708,9.002h-0.83L7.886,8.96l0.011-0.049L7.91,8.863l0.016-0.045l0.019-0.041
	l0.022-0.04L7.992,8.7l0.026-0.033l0.029-0.032l0.03-0.027L8.11,8.583l0.035-0.021l0.037-0.018L8.22,8.532l0.042-0.008l0.041-0.006
	h0.045L8.389,8.52l0.04,0.005l0.038,0.01l0.037,0.013l0.034,0.016l0.032,0.019l0.03,0.024l0.027,0.029l0.024,0.032l0.021,0.035
	l0.016,0.04L8.7,8.785l0.01,0.048l0.003,0.053V8.941z"/>
</svg>
