<?xml version="1.0" encoding="utf-8"?>
<!-- Generator: Adobe Illustrator 19.2.1, SVG Export Plug-In . SVG Version: 6.00 Build 0)  -->
<svg version="1.0" id="art" xmlns="http://www.w3.org/2000/svg" xmlns:xlink="http://www.w3.org/1999/xlink" x="0px" y="0px"
	 width="24px" height="24px" viewBox="0 0 24 24" enable-background="new 0 0 24 24" xml:space="preserve">
<g id="check">
</g>
<path fill="#FFFFFF" d="M16,4c-1.442,0-2.808,0.401-4,1.091C10.807,4.401,9.442,4,8,4c-4.411,0-8,3.589-8,8s3.589,8,8,8
	c1.442,0,2.807-0.401,4-1.091C13.193,19.599,14.558,20,16,20c4.411,0,8-3.589,8-8S20.411,4,16,4z M16,19
	c-1.092,0-2.137-0.257-3.076-0.716c1.048-0.821,1.909-1.893,2.45-3.177l-0.921-0.389c-0.527,1.249-1.391,2.278-2.453,3.018
	c-1.06-0.739-1.923-1.765-2.45-3.011l-0.921,0.39c0.542,1.281,1.401,2.349,2.447,3.169C10.138,18.743,9.092,19,8,19
	c-3.86,0-7-3.14-7-7s3.14-7,7-7c1.092,0,2.137,0.257,3.076,0.716c-1.048,0.821-1.909,1.893-2.45,3.177l0.921,0.389
	C10.074,8.033,10.938,7.004,12,6.264c1.06,0.739,1.923,1.766,2.451,3.012l0.921-0.39c-0.542-1.281-1.401-2.35-2.448-3.169
	C13.862,5.257,14.908,5,16,5c3.86,0,7,3.14,7,7S19.86,19,16,19z"/>
<polygon fill="#FFFFFF" points="20.94,15.711 20.936,15.76 20.992,15.76 20.996,15.719 20.998,15.709 20.94,15.709 "/>
<polygon fill="#FFFFFF" points="13.55,11.726 13.562,11.692 13.58,11.661 13.603,11.634 13.633,11.606 13.668,11.583 13.707,11.561 
	13.75,11.544 13.799,11.528 13.852,11.516 13.909,11.508 13.987,11.503 14.059,11.499 14.124,11.497 14.183,11.497 14.235,11.499 
	14.284,11.503 14.327,11.506 14.368,11.51 14.408,11.516 14.445,11.522 14.48,11.528 14.515,11.534 14.551,11.538 14.586,11.544 
	14.625,11.548 14.664,11.549 14.805,10.915 14.783,10.913 14.76,10.909 14.734,10.905 14.707,10.902 14.676,10.896 14.639,10.892 
	14.599,10.886 14.554,10.88 14.505,10.876 14.449,10.87 14.386,10.866 14.318,10.862 14.239,10.859 14.155,10.857 14.061,10.855 
	13.957,10.855 13.873,10.855 13.793,10.859 13.715,10.862 13.64,10.868 13.57,10.876 13.503,10.886 13.439,10.898 13.376,10.911 
	13.317,10.927 13.263,10.943 13.21,10.962 13.161,10.982 13.114,11.005 13.069,11.029 13.028,11.054 12.989,11.082 12.951,11.111 
	12.918,11.142 12.887,11.176 12.857,11.211 12.83,11.248 12.805,11.285 12.783,11.326 12.761,11.367 12.744,11.412 12.726,11.458 
	12.712,11.506 12.701,11.555 12.689,11.606 12.681,11.659 12.673,11.714 12.667,11.771 12.662,11.863 12.664,11.949 12.673,12.027 
	12.689,12.1 12.712,12.164 12.74,12.225 12.773,12.28 12.81,12.331 12.851,12.376 12.896,12.419 12.943,12.456 12.994,12.489 
	13.047,12.52 13.102,12.55 13.157,12.575 13.212,12.599 13.268,12.622 13.323,12.644 13.378,12.665 13.429,12.685 13.48,12.704 
	13.529,12.726 13.574,12.747 13.615,12.769 13.652,12.792 13.685,12.818 13.713,12.845 13.734,12.877 13.75,12.908 13.76,12.945 
	13.762,12.984 13.756,13.029 13.744,13.072 13.727,13.115 13.705,13.159 13.676,13.2 13.636,13.235 13.587,13.266 13.523,13.288 
	13.445,13.301 13.36,13.305 13.278,13.305 13.196,13.303 13.116,13.299 13.036,13.292 12.959,13.284 12.885,13.274 12.814,13.264 
	12.748,13.253 12.685,13.241 12.626,13.227 12.574,13.217 12.529,13.206 12.487,13.196 12.454,13.186 12.427,13.18 12.305,13.795 
	12.354,13.812 12.401,13.83 12.448,13.844 12.495,13.857 12.546,13.871 12.597,13.881 12.652,13.891 12.711,13.898 12.773,13.906 
	12.844,13.912 12.918,13.916 13.002,13.92 13.094,13.922 13.194,13.924 13.304,13.926 13.425,13.926 13.513,13.924 13.603,13.918 
	13.697,13.908 13.793,13.893 13.889,13.871 13.985,13.842 14.079,13.806 14.169,13.763 14.255,13.711 14.335,13.65 14.408,13.579 
	14.474,13.497 14.531,13.403 14.576,13.298 14.611,13.18 14.633,13.049 14.643,12.873 14.633,12.724 14.603,12.599 14.558,12.493 
	14.5,12.407 14.429,12.334 14.349,12.278 14.265,12.231 14.175,12.192 14.081,12.158 13.989,12.129 13.901,12.1 13.816,12.07 
	13.738,12.035 13.672,11.994 13.615,11.943 13.587,11.906 13.566,11.869 13.552,11.831 13.544,11.794 13.544,11.759 "/>
<polygon fill="#FFFFFF" points="16.163,13.28 16.138,13.29 16.105,13.299 16.062,13.309 16.011,13.317 15.956,13.321 15.893,13.321 
	15.86,13.321 15.827,13.319 15.795,13.317 15.764,13.311 15.737,13.307 15.709,13.299 15.686,13.29 15.662,13.278 15.643,13.266 
	15.625,13.251 15.612,13.231 15.6,13.211 15.592,13.188 15.588,13.162 15.588,13.133 15.592,13.1 15.852,11.54 16.347,11.549 
	16.457,10.925 15.974,10.925 16.095,10.24 15.308,10.24 14.785,13.301 14.776,13.372 14.77,13.437 14.768,13.499 14.77,13.556 
	14.778,13.611 14.791,13.66 14.813,13.705 14.842,13.746 14.879,13.783 14.924,13.816 14.979,13.846 15.044,13.869 15.12,13.891 
	15.208,13.906 15.308,13.918 15.42,13.926 15.631,13.926 15.678,13.92 15.723,13.914 15.762,13.908 15.799,13.902 15.835,13.896 
	15.868,13.891 15.897,13.885 15.925,13.877 15.952,13.869 15.976,13.861 15.999,13.853 16.021,13.846 16.042,13.836 16.064,13.826 
	16.085,13.816 16.105,13.805 16.185,13.27 16.179,13.272 "/>
<path fill="#FFFFFF" d="M9.743,11.716L9.741,11.61l-0.018-0.1l-0.031-0.092l-0.043-0.084l-0.055-0.076L9.53,11.189l-0.072-0.063
	l-0.078-0.055l-0.082-0.047l-0.088-0.041l-0.088-0.033l-0.088-0.025l-0.088-0.022L8.86,10.892l-0.08-0.008l-0.098-0.002L8.588,10.88
	h-0.09h-0.09H8.322L8.24,10.882l-0.08,0.004L8.081,10.89l-0.076,0.008l-0.074,0.01l-0.07,0.012l-0.068,0.014l-0.067,0.018
	l-0.063,0.022L7.6,10.997l-0.059,0.027L7.339,11.69l0.029-0.018l0.041-0.016l0.051-0.016l0.061-0.016L7.59,11.61l0.072-0.014
	l0.08-0.012l0.084-0.014l0.088-0.01l0.09-0.01l0.09-0.008l0.09-0.006l0.09-0.006l0.088-0.002l0.084-0.002l0.08,0.002l0.033,0.004
	l0.033,0.006l0.033,0.008l0.031,0.01l0.029,0.014l0.029,0.016l0.025,0.016l0.025,0.02l0.023,0.023l0.02,0.023l0.02,0.025
	l0.016,0.027l0.014,0.029l0.01,0.031l0.006,0.033l0.004,0.035V11.9l-0.01,0.055l-0.014,0.047l-0.006,0.02H8.849H8.841H8.829
	l-0.016-0.002h-0.02l-0.021-0.002H8.747l-0.027-0.002H8.688H8.657l-0.031-0.002H8.592l-0.035-0.002H8.524H8.49H8.457H8.426
	l-0.037,0.002l-0.041,0.002l-0.043,0.004l-0.047,0.004l-0.049,0.004l-0.047,0.006l-0.047,0.004l-0.047,0.004l-0.043,0.006
	l-0.039,0.004l-0.033,0.004l-0.029,0.004L7.901,12.06l-0.014,0.002H7.883L7.788,12.08l-0.094,0.023l-0.092,0.031l-0.09,0.039
	l-0.086,0.045l-0.082,0.053l-0.076,0.057l-0.072,0.065L7.13,12.466l-0.061,0.076l-0.051,0.082l-0.045,0.088l-0.037,0.094l-0.025,0.1
	L6.893,13.01l-0.008,0.11l0.002,0.061l0.004,0.063l0.008,0.065l0.012,0.063l0.018,0.065l0.022,0.063l0.027,0.061l0.033,0.059
	l0.039,0.059l0.047,0.053l0.053,0.051l0.063,0.045l0.07,0.041l0.08,0.037l0.088,0.031l0.1,0.024l0.076,0.012l0.078,0.006l0.08-0.002
	l0.082-0.006l0.082-0.012l0.082-0.016l0.082-0.022l0.08-0.025l0.076-0.029l0.074-0.031l0.07-0.035l0.065-0.037l0.061-0.039
	l0.053-0.041l0.047-0.043l0.037-0.043L8.67,13.607L8.663,13.63l-0.006,0.035l-0.008,0.041l-0.008,0.049l-0.008,0.053l-0.008,0.059
	l-0.008,0.059h0.707l0.112-0.624l0.292-1.47L9.743,11.716z M8.753,12.603l-0.008,0.041l-0.008,0.043l-0.008,0.047l-0.01,0.049
	l-0.01,0.047L8.7,12.875l-0.01,0.043l-0.01,0.029l-0.012,0.031L8.653,13.01l-0.02,0.033L8.61,13.076l-0.027,0.031l-0.031,0.033
	L8.514,13.17L8.473,13.2l-0.047,0.027l-0.053,0.023l-0.059,0.02L8.25,13.288l-0.072,0.014l-0.076,0.008l-0.086,0.002l-0.047-0.002
	l-0.049-0.01l-0.045-0.02l-0.043-0.029l-0.035-0.043l-0.023-0.059l-0.014-0.074l0.004-0.096l0.01-0.047l0.016-0.045l0.02-0.041
	l0.027-0.037l0.029-0.035l0.033-0.031l0.035-0.029l0.037-0.027l0.037-0.022l0.037-0.022l0.037-0.018l0.033-0.014l0.031-0.014
	l0.029-0.01l0.023-0.008l0.018-0.004l0.031-0.01l0.035-0.01l0.041-0.008l0.043-0.008l0.045-0.008l0.045-0.006l0.047-0.006
	l0.045-0.004h0.043h0.041l0.035,0.002l0.033,0.004l0.026,0.006l0.02,0.01l0.012,0.012l0.002,0.016L8.753,12.603z"/>
<polygon fill="#FFFFFF" points="5.775,10.24 4.869,12.434 4.738,10.24 3.407,10.24 2.763,13.926 3.528,13.926 4.012,11.166 
	4.016,11.166 4.025,11.166 4.033,11.166 4.041,11.166 4.043,11.166 4.051,11.301 4.068,11.622 4.094,12.066 4.123,12.569 
	4.153,13.068 4.178,13.503 4.196,13.81 4.203,13.926 5.061,13.926 6.2,11.166 6.229,11.166 5.746,13.926 6.511,13.926 7.157,10.24 
	"/>
<polygon fill="#FFFFFF" points="18.172,11.671 18.184,11.673 18.199,11.675 18.215,11.675 18.229,11.677 18.24,11.679 
	18.248,11.681 18.252,11.681 18.254,11.669 18.262,11.636 18.272,11.585 18.287,11.52 18.307,11.448 18.328,11.369 18.354,11.291 
	18.383,11.217 18.405,11.162 18.43,11.109 18.456,11.056 18.483,11.007 18.507,10.966 18.526,10.933 18.54,10.911 18.544,10.904 
	18.54,10.904 18.53,10.9 18.516,10.898 18.497,10.894 18.477,10.89 18.454,10.888 18.432,10.884 18.413,10.884 18.326,10.89 
	18.248,10.9 18.176,10.915 18.109,10.933 18.047,10.956 17.99,10.982 17.935,11.013 17.886,11.046 17.837,11.084 17.792,11.125 
	17.751,11.168 17.708,11.215 17.667,11.264 17.628,11.317 17.587,11.371 17.545,11.428 17.637,10.925 16.841,10.915 16.316,13.926 
	17.113,13.926 17.385,12.334 17.397,12.272 17.41,12.211 17.426,12.15 17.446,12.094 17.467,12.037 17.495,11.984 17.528,11.933 
	17.565,11.884 17.61,11.841 17.661,11.802 17.722,11.767 17.788,11.735 17.866,11.71 17.955,11.69 18.052,11.679 18.162,11.671 "/>
<path fill="#FFFFFF" d="M20.873,11.303l-0.049-0.049l-0.051-0.045l-0.055-0.043l-0.059-0.041l-0.059-0.037l-0.065-0.033
	l-0.065-0.031l-0.068-0.029l-0.072-0.025l-0.072-0.022l-0.076-0.02l-0.078-0.016L20.022,10.9l-0.084-0.008l-0.086-0.006
	l-0.088-0.002l-0.084,0.002l-0.084,0.004l-0.082,0.01l-0.08,0.01l-0.078,0.016l-0.076,0.018l-0.074,0.022l-0.072,0.023l-0.069,0.027
	l-0.068,0.029l-0.067,0.035l-0.065,0.035l-0.061,0.039l-0.059,0.043l-0.057,0.045l-0.055,0.049l-0.051,0.053l-0.049,0.053
	l-0.047,0.059l-0.043,0.059l-0.041,0.065l-0.039,0.065l-0.035,0.068l-0.031,0.072l-0.029,0.074l-0.025,0.076l-0.023,0.08
	l-0.02,0.082l-0.018,0.084l-0.014,0.088l-0.01,0.09l-0.006,0.094l-0.002,0.092l0.002,0.09l0.006,0.086l0.01,0.084l0.014,0.08
	l0.018,0.078l0.021,0.076l0.024,0.072l0.027,0.069l0.029,0.067l0.035,0.065l0.035,0.061l0.041,0.059l0.041,0.055l0.047,0.053
	l0.047,0.049l0.051,0.047l0.055,0.043l0.055,0.041l0.059,0.037l0.061,0.035l0.063,0.031l0.065,0.029l0.069,0.026l0.068,0.023
	l0.07,0.02l0.074,0.016l0.074,0.014l0.076,0.012l0.076,0.008l0.08,0.004l0.08,0.002l0.08-0.002l0.08-0.004l0.078-0.008l0.078-0.01
	l0.074-0.014l0.074-0.016l0.074-0.02l0.07-0.024l0.07-0.025l0.067-0.029l0.067-0.031l0.065-0.035l0.061-0.037l0.061-0.041
	l0.057-0.045l0.055-0.047l0.053-0.051l0.051-0.053l0.049-0.057l0.045-0.061l0.041-0.063l0.041-0.067l0.035-0.071l0.035-0.072
	l0.029-0.076l0.027-0.08l0.026-0.082l0.019-0.086l0.018-0.09l0.014-0.092l0.012-0.096l0.006-0.1l0.002-0.082l-0.002-0.082
	l-0.004-0.08l-0.008-0.076l-0.012-0.076l-0.016-0.074l-0.018-0.072l-0.022-0.068l-0.023-0.069l-0.029-0.065l-0.029-0.065
	l-0.035-0.061l-0.037-0.059l-0.039-0.055l-0.043-0.055L20.873,11.303z M20.294,12.17l-0.006,0.08l-0.01,0.084l-0.018,0.108
	l-0.02,0.1l-0.025,0.092l-0.029,0.084l-0.031,0.076l-0.037,0.07l-0.039,0.063l-0.041,0.055l-0.047,0.049l-0.049,0.041l-0.053,0.035
	l-0.055,0.027l-0.059,0.022l-0.061,0.014l-0.065,0.008l-0.067,0.002l-0.061-0.004l-0.057-0.008l-0.055-0.016l-0.049-0.022
	l-0.045-0.027l-0.041-0.035l-0.037-0.041l-0.033-0.049l-0.027-0.057l-0.022-0.063l-0.018-0.068l-0.012-0.078l-0.006-0.086v-0.092
	l0.006-0.102l0.012-0.11l0.012-0.065l0.014-0.067l0.02-0.067l0.024-0.067l0.025-0.067l0.031-0.063l0.035-0.063l0.041-0.059
	l0.043-0.055l0.049-0.049l0.055-0.043l0.059-0.039l0.065-0.029l0.068-0.023l0.074-0.014l0.08-0.006h0.065l0.059,0.01l0.055,0.016
	l0.051,0.025l0.045,0.031l0.041,0.039l0.035,0.043l0.031,0.051l0.025,0.057l0.022,0.061l0.016,0.067l0.01,0.069l0.006,0.074V12.17z"
	/>
<path fill="#FFFFFF" d="M12.419,11.814l-0.01-0.086l-0.016-0.082l-0.018-0.076l-0.024-0.072l-0.027-0.067l-0.031-0.063l-0.033-0.057
	l-0.037-0.055l-0.041-0.049l-0.043-0.045l-0.047-0.041l-0.047-0.039l-0.051-0.033l-0.051-0.031L11.89,10.99l-0.055-0.023
	l-0.057-0.022l-0.057-0.018l-0.057-0.016l-0.057-0.014l-0.059-0.012l-0.057-0.008l-0.057-0.006l-0.057-0.004l-0.055-0.004H11.27
	l-0.117,0.004l-0.11,0.008l-0.106,0.014l-0.1,0.02l-0.094,0.023l-0.088,0.029l-0.084,0.033l-0.078,0.035l-0.074,0.041l-0.069,0.043
	l-0.065,0.047l-0.059,0.051l-0.057,0.051l-0.051,0.055l-0.047,0.057l-0.045,0.057l-0.039,0.059l-0.037,0.061l-0.033,0.061
	l-0.031,0.061l-0.027,0.061l-0.026,0.061l-0.021,0.059l-0.02,0.061l-0.016,0.059l-0.016,0.057l-0.014,0.055l-0.01,0.053l-0.01,0.051
	L9.72,12.235l-0.006,0.047l-0.006,0.041l-0.01,0.117l-0.004,0.113v0.106l0.008,0.102l0.012,0.098l0.018,0.09l0.022,0.086
	l0.027,0.082l0.031,0.076l0.035,0.072l0.039,0.067l0.043,0.065l0.045,0.059l0.051,0.055l0.053,0.051l0.055,0.047l0.059,0.043
	l0.059,0.039l0.063,0.035l0.065,0.033l0.067,0.029l0.067,0.025l0.068,0.022l0.069,0.022l0.07,0.016l0.07,0.016l0.07,0.012
	l0.072,0.01l0.07,0.008l0.069,0.004l0.07,0.004h0.069h0.094l0.086-0.002h0.078l0.07-0.004l0.065-0.002l0.061-0.006l0.055-0.006
	l0.051-0.006l0.049-0.01l0.045-0.01l0.043-0.012l0.043-0.016l0.043-0.016l0.041-0.018l0.045-0.021l0.045-0.023l0.121-0.695
	l-0.082,0.047l-0.08,0.043L12,13.206l-0.078,0.029l-0.078,0.025l-0.078,0.02l-0.078,0.014l-0.076,0.012l-0.074,0.006l-0.076,0.004
	h-0.072l-0.074-0.002l-0.072-0.004l-0.072-0.008l-0.07-0.01l-0.07-0.01l-0.059-0.014l-0.059-0.02l-0.055-0.025l-0.053-0.031
	l-0.049-0.037l-0.045-0.039l-0.043-0.045l-0.037-0.047l-0.033-0.049l-0.027-0.051l-0.023-0.053l-0.016-0.053l-0.012-0.051
	l-0.004-0.053l0.002-0.049l0.008-0.039h1.813l0.031-0.172l0.024-0.121l0.018-0.115l0.01-0.11l0.006-0.104v-0.098L12.419,11.814z
	 M11.648,12.008l-0.006,0.074h-1.018l0.01-0.051l0.014-0.061l0.016-0.059l0.02-0.055l0.023-0.051l0.027-0.049l0.029-0.045
	l0.031-0.041l0.035-0.039l0.037-0.033l0.041-0.029l0.043-0.025l0.045-0.022l0.047-0.016l0.051-0.01l0.051-0.008h0.055l0.051,0.002
	l0.049,0.006l0.047,0.012l0.045,0.016l0.041,0.02l0.039,0.023l0.037,0.029l0.033,0.035l0.029,0.039l0.026,0.043l0.02,0.049
	l0.016,0.053l0.012,0.059l0.004,0.065V12.008z"/>
</svg>
