<?xml version="1.0" encoding="utf-8"?>
<!-- Generator: Adobe Illustrator 19.2.1, SVG Export Plug-In . SVG Version: 6.00 Build 0)  -->
<svg version="1.0" id="art" xmlns="http://www.w3.org/2000/svg" xmlns:xlink="http://www.w3.org/1999/xlink" x="0px" y="0px"
	 width="24px" height="24px" viewBox="0 0 24 24" enable-background="new 0 0 24 24" xml:space="preserve">
<g id="check">
</g>
<path d="M16,4c-1.442,0-2.807,0.401-4,1.092C10.807,4.401,9.442,4,8,4c-4.411,0-8,3.589-8,8s3.589,8,8,8
	c1.442,0,2.808-0.401,4-1.092C13.193,19.599,14.558,20,16,20c4.411,0,8-3.589,8-8S20.411,4,16,4z M16,19
	c-1.092,0-2.137-0.257-3.076-0.716c1.048-0.821,1.909-1.892,2.45-3.176l-0.921-0.389c-0.527,1.249-1.391,2.277-2.453,3.018
	c-1.06-0.739-1.923-1.765-2.45-3.011l-0.921,0.389c0.542,1.281,1.401,2.349,2.448,3.169C10.138,18.743,9.092,19,8,19
	c-3.86,0-7-3.141-7-7s3.14-7,7-7c1.092,0,2.137,0.257,3.076,0.716c-1.048,0.821-1.909,1.892-2.45,3.176l0.921,0.389
	C10.074,8.033,10.938,7.004,12,6.264c1.061,0.739,1.923,1.766,2.451,3.012l0.921-0.389c-0.542-1.281-1.401-2.35-2.448-3.17
	C13.862,5.257,14.908,5,16,5c3.86,0,7,3.141,7,7S19.86,19,16,19z"/>
<polygon points="8.212,11.759 8.223,11.735 8.236,11.711 8.256,11.691 8.278,11.669 8.306,11.652 8.337,11.637 8.369,11.624 
	8.406,11.611 8.448,11.604 8.492,11.597 8.555,11.593 8.612,11.589 8.662,11.587 8.708,11.587 8.749,11.589 8.788,11.591 
	8.823,11.593 8.854,11.597 8.884,11.602 8.913,11.606 8.941,11.611 8.967,11.615 8.996,11.619 9.024,11.624 9.055,11.628 
	9.085,11.63 9.196,11.137 9.179,11.135 9.159,11.131 9.14,11.128 9.118,11.124 9.092,11.12 9.063,11.115 9.033,11.109 8.996,11.104 
	8.956,11.1 8.913,11.096 8.862,11.091 8.808,11.087 8.747,11.085 8.679,11.083 8.605,11.08 8.524,11.08 8.396,11.083 8.278,11.091 
	8.171,11.107 8.073,11.126 7.985,11.15 7.907,11.183 7.837,11.218 7.774,11.259 7.719,11.307 7.673,11.362 7.634,11.419 
	7.599,11.484 7.573,11.554 7.551,11.628 7.536,11.709 7.525,11.794 7.523,11.933 7.542,12.051 7.582,12.149 7.636,12.232 
	7.706,12.3 7.782,12.357 7.865,12.403 7.953,12.442 8.038,12.477 8.123,12.507 8.199,12.54 8.265,12.573 8.319,12.61 8.356,12.653 
	8.376,12.708 8.372,12.771 8.363,12.804 8.352,12.839 8.334,12.874 8.313,12.904 8.282,12.935 8.243,12.959 8.193,12.976 
	8.129,12.99 8.066,12.992 8.003,12.992 7.94,12.99 7.876,12.987 7.815,12.981 7.756,12.974 7.7,12.966 7.645,12.957 7.593,12.948 
	7.545,12.937 7.501,12.928 7.462,12.92 7.425,12.911 7.394,12.902 7.37,12.896 7.35,12.891 7.252,13.373 7.289,13.387 7.324,13.4 
	7.359,13.413 7.396,13.421 7.433,13.432 7.475,13.439 7.516,13.448 7.562,13.452 7.612,13.459 7.665,13.463 7.724,13.467 
	7.789,13.469 7.861,13.472 7.937,13.472 8.025,13.474 8.118,13.474 8.186,13.472 8.258,13.467 8.33,13.461 8.404,13.448 
	8.481,13.43 8.555,13.408 8.627,13.38 8.697,13.347 8.764,13.306 8.825,13.258 8.882,13.203 8.932,13.14 8.976,13.068 9.011,12.985 
	9.037,12.896 9.052,12.793 9.061,12.656 9.052,12.538 9.03,12.44 8.996,12.357 8.95,12.289 8.895,12.235 8.834,12.189 8.769,12.152 
	8.699,12.123 8.627,12.097 8.555,12.073 8.485,12.051 8.42,12.027 8.358,11.999 8.306,11.966 8.263,11.925 8.241,11.896 
	8.223,11.868 8.214,11.84 8.208,11.811 8.208,11.785 "/>
<polygon points="10.265,12.963 10.246,12.97 10.217,12.979 10.182,12.987 10.143,12.994 10.1,12.998 10.052,13 9.999,12.996 
	9.951,12.987 9.908,12.974 9.868,12.959 9.84,12.935 9.818,12.907 9.807,12.869 9.809,12.826 10.019,11.608 10.403,11.619 
	10.481,11.126 10.117,11.126 10.206,10.598 9.602,10.598 9.185,12.979 9.179,13.033 9.172,13.083 9.172,13.131 9.174,13.177 
	9.181,13.219 9.192,13.256 9.207,13.293 9.229,13.323 9.257,13.352 9.295,13.378 9.336,13.4 9.386,13.419 9.445,13.435 
	9.515,13.448 9.591,13.456 9.678,13.463 9.844,13.463 9.881,13.459 9.916,13.454 9.949,13.45 9.977,13.445 10.004,13.441 
	10.03,13.437 10.052,13.432 10.073,13.426 10.093,13.419 10.113,13.413 10.13,13.406 10.145,13.4 10.161,13.391 10.176,13.382 
	10.191,13.373 10.206,13.363 10.283,12.957 10.279,12.959 "/>
<path d="M12.177,12.876l-0.063,0.026l-0.061,0.024l-0.059,0.02l-0.061,0.013l-0.059,0.011l-0.059,0.009l-0.059,0.004l-0.057,0.002
	H11.64l-0.057-0.002l-0.057-0.004l-0.057-0.007l-0.055-0.007l-0.057-0.009l-0.044-0.009l-0.044-0.015l-0.044-0.02l-0.039-0.024
	l-0.039-0.026l-0.035-0.033l-0.033-0.033l-0.031-0.037l-0.026-0.037l-0.024-0.041l-0.017-0.039l-0.015-0.041l-0.009-0.041
	l-0.004-0.041l0.002-0.039l0.005-0.026h1.416l0.011-0.133l0.033-0.183l0.015-0.166l-0.002-0.148l-0.017-0.131l-0.031-0.116
	l-0.044-0.1l-0.055-0.087l-0.065-0.074l-0.072-0.061L12.072,11.2l-0.085-0.039L11.9,11.128l-0.089-0.022l-0.089-0.015l-0.089-0.009
	l-0.085-0.002l-0.177,0.009l-0.157,0.026l-0.142,0.039l-0.126,0.055l-0.109,0.065l-0.096,0.074l-0.085,0.083l-0.07,0.087
	l-0.061,0.092l-0.05,0.096L10.433,11.8l-0.033,0.094l-0.024,0.092l-0.017,0.085l-0.013,0.081l-0.009,0.07L10.326,12.4l0.007,0.161
	l0.024,0.146l0.037,0.129l0.052,0.116l0.063,0.1l0.074,0.089l0.085,0.074l0.092,0.063l0.098,0.054l0.103,0.042l0.107,0.033
	l0.109,0.026l0.109,0.015l0.109,0.011l0.107,0.002h0.072l0.068-0.002h0.059l0.057-0.002l0.05-0.004l0.046-0.004l0.044-0.004
	l0.039-0.007l0.037-0.007l0.035-0.009l0.035-0.011l0.033-0.011l0.033-0.013l0.035-0.013l0.035-0.017l0.035-0.017l0.087-0.537
	l-0.063,0.037L12.177,12.876z M11.051,11.99l0.009-0.046l0.013-0.044l0.015-0.044l0.02-0.039l0.02-0.037l0.024-0.035l0.026-0.033
	l0.028-0.031l0.028-0.026l0.033-0.024l0.033-0.02l0.037-0.017l0.037-0.013l0.037-0.009l0.039-0.007l0.041-0.002l0.039,0.004
	l0.037,0.007l0.035,0.009l0.035,0.013l0.033,0.017l0.033,0.02l0.028,0.022l0.026,0.026l0.022,0.031l0.022,0.033l0.015,0.037
	l0.015,0.042l0.009,0.044l0.004,0.048l0.002,0.052l-0.004,0.055h-0.798L11.051,11.99z"/>
<polygon points="16.047,11.198 16.08,11.213 16.111,11.229 16.139,11.242 16.167,11.257 16.276,10.653 16.263,10.648 16.244,10.64 
	16.218,10.631 16.187,10.62 16.152,10.607 16.111,10.594 16.067,10.581 16.017,10.568 15.964,10.555 15.908,10.544 15.849,10.531 
	15.788,10.522 15.722,10.513 15.657,10.507 15.589,10.502 15.519,10.5 15.436,10.502 15.358,10.507 15.279,10.515 15.205,10.526 
	15.131,10.539 15.061,10.555 14.994,10.572 14.926,10.594 14.863,10.618 14.801,10.644 14.743,10.672 14.684,10.705 14.629,10.74 
	14.577,10.777 14.526,10.818 14.476,10.862 14.431,10.908 14.387,10.956 14.343,11.008 14.304,11.063 14.265,11.12 14.228,11.181 
	14.195,11.244 14.162,11.312 14.132,11.379 14.103,11.451 14.075,11.528 14.051,11.604 14.029,11.685 14.007,11.77 13.988,11.857 
	13.97,11.947 13.946,12.128 13.942,12.298 13.951,12.453 13.977,12.599 14.016,12.732 14.068,12.854 14.129,12.963 14.201,13.061 
	14.282,13.149 14.369,13.225 14.461,13.291 14.557,13.343 14.657,13.387 14.758,13.419 14.858,13.441 14.959,13.452 15.081,13.459 
	15.192,13.461 15.29,13.459 15.375,13.454 15.452,13.445 15.517,13.437 15.574,13.426 15.624,13.411 15.663,13.397 15.698,13.382 
	15.729,13.367 15.753,13.349 15.772,13.336 15.79,13.321 15.803,13.308 15.816,13.297 15.914,12.715 15.871,12.754 15.825,12.789 
	15.775,12.817 15.72,12.841 15.665,12.859 15.611,12.874 15.554,12.885 15.497,12.891 15.443,12.896 15.388,12.896 15.338,12.896 
	15.29,12.891 15.247,12.887 15.207,12.883 15.174,12.876 15.146,12.869 15.063,12.85 14.989,12.821 14.921,12.789 14.863,12.749 
	14.81,12.704 14.764,12.653 14.725,12.597 14.692,12.538 14.668,12.472 14.649,12.407 14.633,12.337 14.627,12.263 14.625,12.189 
	14.629,12.112 14.638,12.036 14.651,11.957 14.686,11.818 14.727,11.696 14.773,11.587 14.821,11.491 14.873,11.41 14.928,11.34 
	14.985,11.283 15.044,11.235 15.105,11.196 15.166,11.165 15.227,11.141 15.288,11.124 15.349,11.113 15.408,11.107 15.465,11.102 
	15.519,11.102 15.574,11.102 15.626,11.102 15.676,11.107 15.727,11.111 15.772,11.117 15.818,11.126 15.86,11.135 15.901,11.146 
	15.94,11.159 15.977,11.172 16.015,11.185 "/>
<polygon points="4.307,10.598 3.593,12.298 3.495,10.598 2.463,10.598 1.968,13.463 2.561,13.463 2.923,11.323 2.937,11.323 
	2.95,11.323 2.956,11.323 2.961,11.427 2.976,11.676 2.995,12.019 3.017,12.409 3.039,12.797 3.059,13.136 3.074,13.373 
	3.078,13.463 3.748,13.463 4.636,11.323 4.66,11.323 4.285,13.463 4.878,13.463 5.385,10.598 "/>
<polygon points="19.628,11.663 19.658,11.663 19.676,11.663 19.682,11.663 19.78,11.102 19.719,11.107 19.66,11.113 19.606,11.124 
	19.554,11.139 19.505,11.157 19.46,11.179 19.416,11.203 19.375,11.229 19.335,11.259 19.298,11.29 19.263,11.325 19.228,11.36 
	19.196,11.397 19.163,11.438 19.13,11.477 19.1,11.521 19.165,11.126 18.552,11.126 18.144,13.463 18.759,13.463 18.98,12.221 
	18.988,12.173 19.002,12.125 19.015,12.077 19.032,12.029 19.054,11.981 19.08,11.936 19.108,11.892 19.143,11.851 19.183,11.813 
	19.226,11.779 19.276,11.746 19.333,11.72 19.396,11.698 19.466,11.68 19.543,11.667 "/>
<polygon points="13.97,11.355 13.988,11.314 14.009,11.272 14.031,11.231 14.053,11.194 14.073,11.161 14.088,11.135 14.099,11.12 
	14.103,11.113 14.101,11.113 14.092,11.111 14.081,11.109 14.066,11.107 14.051,11.107 14.033,11.104 14.018,11.102 14.003,11.102 
	13.935,11.107 13.874,11.113 13.817,11.124 13.765,11.137 13.715,11.155 13.669,11.176 13.628,11.198 13.588,11.224 13.551,11.253 
	13.516,11.285 13.484,11.318 13.451,11.355 13.418,11.392 13.388,11.434 13.355,11.477 13.322,11.521 13.401,11.126 12.775,11.126 
	12.367,13.463 12.982,13.463 12.993,13.463 13.202,12.221 13.211,12.173 13.222,12.128 13.233,12.082 13.248,12.038 13.265,11.995 
	13.287,11.953 13.313,11.914 13.344,11.877 13.379,11.844 13.418,11.811 13.466,11.785 13.519,11.761 13.58,11.742 13.647,11.724 
	13.721,11.713 13.807,11.707 13.813,11.707 13.822,11.709 13.833,11.711 13.844,11.711 13.854,11.713 13.863,11.715 13.87,11.717 
	13.872,11.717 13.874,11.709 13.881,11.683 13.889,11.643 13.9,11.595 13.916,11.539 13.931,11.477 13.951,11.416 "/>
<path d="M20.863,11.146l-0.057-0.011l-0.061-0.007l-0.063-0.002l-0.089,0.004l-0.087,0.013l-0.087,0.02l-0.087,0.031l-0.083,0.037
	l-0.083,0.048l-0.081,0.055l-0.076,0.063l-0.072,0.072l-0.068,0.079l-0.065,0.087l-0.057,0.098l-0.055,0.105l-0.046,0.111
	l-0.039,0.122L19.573,12.2l-0.02,0.111l-0.011,0.111l-0.002,0.114l0.007,0.111l0.017,0.111l0.024,0.107l0.035,0.103l0.044,0.098
	l0.052,0.092l0.061,0.081l0.07,0.074l0.078,0.063l0.087,0.05l0.096,0.037l0.105,0.024l0.113,0.009h0.044l0.044-0.002l0.041-0.004
	l0.044-0.007l0.044-0.007l0.041-0.011l0.041-0.011l0.041-0.015l0.042-0.02l0.039-0.02l0.039-0.024l0.039-0.028l0.039-0.031
	l0.037-0.035l0.037-0.039l0.035-0.044v0.022l-0.044,0.242h0.604l0.493-2.854h-0.594l-0.153,0.857l-0.013-0.026l-0.017-0.026
	l-0.02-0.028l-0.022-0.028l-0.026-0.028l-0.028-0.028l-0.033-0.028l-0.035-0.026l-0.039-0.024l-0.044-0.024l-0.044-0.02l-0.05-0.017
	L20.863,11.146z M20.978,11.711l0.033,0.031l0.028,0.035l0.026,0.042l0.022,0.044l0.017,0.05l0.015,0.052l0.009,0.055l0.007,0.057
	l0.002,0.061v0.059l-0.007,0.063L21.12,12.32l-0.011,0.059l-0.015,0.059l-0.017,0.057l-0.022,0.055l-0.024,0.052l-0.028,0.05
	l-0.031,0.048l-0.033,0.044l-0.037,0.039l-0.041,0.037l-0.044,0.033l-0.046,0.026l-0.05,0.024l-0.052,0.015l-0.057,0.013
	l-0.061,0.004l-0.087-0.017l-0.072-0.048l-0.057-0.072l-0.044-0.089l-0.028-0.103l-0.015-0.107l-0.004-0.105l0.011-0.096
	l0.013-0.063l0.018-0.063l0.017-0.059l0.022-0.059l0.024-0.057l0.028-0.052l0.031-0.05l0.033-0.048l0.037-0.041l0.037-0.037
	l0.044-0.035l0.044-0.028l0.05-0.022l0.05-0.018l0.055-0.009l0.059-0.004l0.046,0.004l0.041,0.011l0.039,0.018L20.978,11.711z"/>
<path d="M18.22,11.739v-0.083l-0.015-0.074l-0.024-0.07l-0.033-0.065l-0.044-0.059l-0.05-0.052L18,11.288l-0.061-0.042l-0.065-0.037
	l-0.068-0.031l-0.068-0.026l-0.07-0.02l-0.068-0.015l-0.065-0.011l-0.061-0.004L17.4,11.1l-0.074-0.002h-0.07h-0.068h-0.068
	L17.057,11.1l-0.063,0.002l-0.061,0.004l-0.059,0.004l-0.057,0.009l-0.055,0.009l-0.055,0.011l-0.052,0.011l-0.05,0.015l-0.05,0.017
	l-0.048,0.02l-0.153,0.526l0.024-0.013l0.031-0.015l0.039-0.013l0.048-0.013l0.052-0.011l0.057-0.011l0.063-0.011l0.065-0.009
	l0.068-0.009l0.07-0.007l0.07-0.007l0.072-0.004l0.07-0.002h0.068l0.065,0.002l0.061,0.002l0.052,0.004l0.048,0.013l0.046,0.02
	l0.039,0.028l0.033,0.033l0.028,0.039l0.017,0.044l0.009,0.048l-0.004,0.041l-0.007,0.046l-0.007,0.039l-0.004,0.015H17.52
	l-0.02-0.002l-0.035-0.002l-0.042-0.002h-0.048l-0.05-0.002l-0.052-0.002h-0.052h-0.024l-0.031,0.002l-0.031,0.002l-0.035,0.002
	l-0.037,0.004l-0.037,0.002l-0.039,0.004l-0.037,0.004l-0.035,0.004l-0.033,0.004l-0.031,0.002l-0.028,0.004l-0.022,0.002
	l-0.015,0.002l-0.011,0.002h-0.004l-0.074,0.013l-0.072,0.02l-0.072,0.024l-0.068,0.031l-0.068,0.035l-0.063,0.041l-0.059,0.046
	l-0.057,0.05l-0.05,0.055l-0.046,0.061l-0.041,0.063l-0.033,0.07l-0.028,0.074l-0.02,0.076l-0.013,0.081l-0.004,0.085v0.048
	l0.004,0.048l0.007,0.05l0.009,0.05l0.011,0.048l0.017,0.048l0.02,0.048l0.026,0.046l0.031,0.044l0.035,0.042l0.041,0.039
	l0.048,0.035l0.057,0.033l0.061,0.028l0.07,0.022l0.078,0.02l0.059,0.009l0.059,0.007l0.061-0.002l0.063-0.004l0.061-0.009
	l0.061-0.011l0.061-0.017l0.059-0.018l0.055-0.022l0.055-0.026l0.052-0.026l0.046-0.028l0.044-0.031l0.039-0.031l0.033-0.033
	l0.028-0.033l-0.004,0.026v0.059l-0.002,0.078l-0.004,0.09h0.548l0.089-0.484l0.229-1.152L18.22,11.739z M17.448,12.464
	l-0.009,0.061l-0.011,0.063l-0.009,0.061l-0.007,0.024l-0.009,0.026l-0.011,0.026l-0.015,0.026l-0.02,0.028l-0.024,0.026
	l-0.026,0.028l-0.031,0.024l-0.035,0.026l-0.039,0.022l-0.041,0.02l-0.048,0.017l-0.05,0.015l-0.057,0.011l-0.061,0.007
	l-0.065,0.002l-0.037-0.002l-0.037-0.007l-0.037-0.013l-0.033-0.022l-0.026-0.033l-0.017-0.044L16.682,12.8l0.002-0.074l0.007-0.037
	l0.013-0.035l0.015-0.033l0.02-0.031l0.024-0.028l0.024-0.024l0.028-0.024l0.028-0.02l0.028-0.02l0.031-0.015l0.026-0.013
	l0.028-0.013l0.024-0.009l0.022-0.007l0.017-0.007l0.015-0.002l0.022-0.004l0.028-0.007l0.028-0.004l0.033-0.007l0.033-0.004
	l0.035-0.004l0.035-0.004l0.035-0.004l0.033-0.002h0.033l0.028,0.002l0.024,0.002l0.022,0.007l0.015,0.007l0.009,0.011l0.004,0.013
	L17.448,12.464z"/>
<path d="M7.385,11.739v-0.083l-0.013-0.074l-0.022-0.07l-0.033-0.065l-0.044-0.059l-0.048-0.052l-0.055-0.048L7.11,11.246
	l-0.065-0.037L6.98,11.179l-0.068-0.026l-0.07-0.02l-0.068-0.015l-0.065-0.011l-0.061-0.004L6.572,11.1l-0.076-0.002H6.423h-0.07
	H6.286L6.22,11.1l-0.063,0.002l-0.061,0.004l-0.059,0.004L5.98,11.12l-0.057,0.009l-0.052,0.011L5.819,11.15l-0.052,0.015
	l-0.048,0.017l-0.048,0.02l-0.155,0.526l0.024-0.013L5.57,11.7l0.039-0.013l0.048-0.013l0.052-0.011l0.057-0.011l0.063-0.011
	l0.065-0.009l0.068-0.009l0.07-0.007l0.07-0.007l0.072-0.004l0.07-0.002h0.068l0.065,0.002l0.061,0.002l0.057,0.004l0.052,0.013
	l0.046,0.02l0.041,0.028l0.035,0.033l0.026,0.039l0.02,0.044l0.009,0.048L6.72,11.879l-0.011,0.046l-0.013,0.039l-0.004,0.015H6.685
	l-0.022-0.002l-0.031-0.002l-0.039-0.002H6.545l-0.048-0.002l-0.052-0.002h-0.05H6.371L6.34,11.971l-0.033,0.002l-0.035,0.002
	l-0.035,0.004l-0.039,0.002l-0.037,0.004L6.124,11.99l-0.037,0.004l-0.033,0.004l-0.031,0.002l-0.026,0.004l-0.024,0.002
	L5.958,12.01l-0.011,0.002H5.943l-0.076,0.013l-0.074,0.02l-0.072,0.024l-0.07,0.031l-0.065,0.035l-0.063,0.041l-0.061,0.046
	l-0.055,0.05l-0.052,0.055l-0.046,0.061l-0.039,0.063l-0.035,0.07l-0.028,0.074l-0.022,0.076l-0.013,0.081l-0.007,0.085v0.048
	l0.004,0.048l0.007,0.05l0.009,0.05l0.013,0.048l0.018,0.048l0.022,0.048l0.026,0.046l0.031,0.044l0.035,0.042l0.044,0.039
	l0.048,0.035l0.055,0.033l0.061,0.028l0.07,0.022l0.076,0.02l0.059,0.009L5.801,13.5l0.063-0.002l0.063-0.004l0.065-0.009
	l0.063-0.013l0.063-0.015l0.063-0.02l0.059-0.022l0.057-0.026l0.055-0.026l0.052-0.031l0.046-0.031l0.041-0.033l0.035-0.035
	l0.031-0.035L6.55,13.232l-0.009,0.061L6.53,13.373l-0.015,0.09h0.55l0.087-0.484l0.22-1.152L7.385,11.739z M6.615,12.466
	l-0.013,0.07l-0.015,0.072l-0.017,0.063l-0.007,0.024l-0.011,0.024l-0.013,0.026l-0.015,0.026l-0.017,0.026l-0.022,0.024
	l-0.026,0.026L6.43,12.869l-0.033,0.024l-0.037,0.02l-0.041,0.02l-0.044,0.015l-0.05,0.013L6.168,12.97l-0.059,0.007l-0.065,0.002
	l-0.035-0.002L5.974,12.97l-0.037-0.013l-0.033-0.022l-0.028-0.033l-0.022-0.044L5.843,12.8l0.002-0.074l0.007-0.035l0.013-0.035
	l0.015-0.031l0.022-0.028l0.024-0.026l0.026-0.026l0.028-0.022l0.031-0.022l0.028-0.017l0.031-0.015l0.028-0.015l0.028-0.013
	l0.024-0.011l0.024-0.009l0.017-0.007l0.015-0.004l0.024-0.007l0.026-0.007l0.031-0.007l0.033-0.004l0.035-0.004l0.035-0.004
	l0.037-0.004l0.035-0.002h0.033h0.033l0.028,0.002l0.024,0.004l0.022,0.004l0.013,0.007l0.009,0.011l0.002,0.011L6.615,12.466z"/>
</svg>
