<?xml version="1.0" encoding="utf-8"?>
<!-- Generator: Adobe Illustrator 19.2.1, SVG Export Plug-In . SVG Version: 6.00 Build 0)  -->
<svg version="1.0" id="art" xmlns="http://www.w3.org/2000/svg" xmlns:xlink="http://www.w3.org/1999/xlink" x="0px" y="0px"
	 width="36px" height="36px" viewBox="0 0 36 36" enable-background="new 0 0 36 36" xml:space="preserve">
<g id="check">
</g>
<path fill="#FFFFFF" d="M24,6c-2.158,0-4.215,0.576-6.001,1.606C16.213,6.576,14.157,6,12,6C5.383,6,0,11.383,0,18s5.383,12,12,12
	c2.158,0,4.215-0.576,6-1.606C19.786,29.424,21.843,30,24,30c6.617,0,12-5.383,12-12S30.617,6,24,6z M24,29
	c-1.796,0-3.514-0.44-5.041-1.226c1.776-1.264,3.216-3.01,4.103-5.113l-0.922-0.389c-0.876,2.077-2.335,3.777-4.139,4.95
	c-1.801-1.171-3.259-2.868-4.135-4.94l-0.922,0.391c0.888,2.098,2.325,3.839,4.099,5.101C15.515,28.561,13.797,29,12,29
	C5.935,29,1,24.065,1,18S5.935,7,12,7c1.796,0,3.514,0.439,5.041,1.226c-1.776,1.264-3.216,3.01-4.103,5.114l0.922,0.389
	c0.876-2.077,2.335-3.777,4.139-4.95c1.801,1.171,3.26,2.868,4.136,4.94l0.922-0.39c-0.888-2.098-2.326-3.84-4.1-5.102
	C20.485,7.439,22.204,7,24,7c6.065,0,11,4.935,11,11S30.065,29,24,29z"/>
<polygon fill="#FFFFFF" points="12.003,17.243 12.02,17.205 12.041,17.167 12.072,17.136 12.106,17.102 12.151,17.074 12.2,17.05 
	12.252,17.029 12.31,17.008 12.376,16.998 12.445,16.988 12.545,16.981 12.635,16.974 12.714,16.97 12.787,16.97 12.853,16.974 
	12.915,16.977 12.97,16.981 13.018,16.988 13.067,16.995 13.112,17.001 13.157,17.008 13.198,17.015 13.243,17.022 13.288,17.029 
	13.336,17.036 13.385,17.039 13.561,16.259 13.533,16.255 13.502,16.248 13.471,16.245 13.437,16.238 13.395,16.231 13.35,16.224 
	13.302,16.214 13.243,16.207 13.181,16.2 13.112,16.193 13.032,16.186 12.946,16.179 12.849,16.176 12.742,16.172 12.625,16.169 
	12.497,16.169 12.293,16.172 12.106,16.186 11.937,16.21 11.782,16.241 11.644,16.279 11.519,16.331 11.409,16.387 11.308,16.452 
	11.222,16.528 11.15,16.615 11.087,16.704 11.032,16.808 10.991,16.919 10.956,17.036 10.932,17.164 10.915,17.299 10.911,17.52 
	10.942,17.706 11.004,17.862 11.091,17.993 11.201,18.1 11.322,18.19 11.453,18.262 11.592,18.325 11.726,18.38 11.861,18.428 
	11.982,18.48 12.086,18.532 12.172,18.591 12.231,18.66 12.262,18.746 12.255,18.846 12.241,18.898 12.224,18.953 12.196,19.009 
	12.162,19.057 12.113,19.105 12.051,19.143 11.972,19.171 11.872,19.192 11.771,19.195 11.671,19.195 11.571,19.192 11.471,19.188 
	11.374,19.178 11.281,19.167 11.191,19.154 11.105,19.14 11.022,19.126 10.946,19.109 10.877,19.095 10.814,19.081 10.756,19.067 
	10.707,19.053 10.669,19.043 10.638,19.036 10.483,19.8 10.542,19.82 10.597,19.841 10.652,19.862 10.711,19.876 10.769,19.893 
	10.835,19.903 10.901,19.917 10.973,19.924 11.053,19.934 11.136,19.941 11.229,19.948 11.333,19.952 11.447,19.955 11.568,19.955 
	11.706,19.958 11.854,19.958 11.961,19.955 12.075,19.948 12.189,19.938 12.307,19.917 12.428,19.889 12.545,19.855 12.659,19.81 
	12.77,19.758 12.877,19.693 12.973,19.617 13.063,19.53 13.143,19.43 13.212,19.316 13.267,19.185 13.309,19.043 13.333,18.881 
	13.347,18.663 13.333,18.477 13.298,18.321 13.243,18.19 13.17,18.083 13.084,17.996 12.987,17.924 12.884,17.865 12.773,17.82 
	12.659,17.779 12.545,17.741 12.435,17.706 12.331,17.668 12.234,17.623 12.151,17.571 12.082,17.506 12.048,17.461 12.02,17.416 
	12.006,17.371 11.996,17.326 11.996,17.285 "/>
<polygon fill="#FFFFFF" points="15.254,19.15 15.223,19.161 15.177,19.174 15.122,19.188 15.06,19.198 14.991,19.205 14.915,19.209 
	14.832,19.202 14.756,19.188 14.687,19.167 14.625,19.143 14.58,19.105 14.545,19.06 14.528,19.002 14.532,18.933 14.863,17.005 
	15.471,17.022 15.596,16.241 15.019,16.241 15.16,15.405 14.203,15.405 13.544,19.174 13.533,19.261 13.523,19.34 13.523,19.416 
	13.526,19.489 13.537,19.554 13.554,19.613 13.578,19.672 13.613,19.72 13.658,19.765 13.716,19.807 13.782,19.841 13.861,19.872 
	13.955,19.896 14.065,19.917 14.186,19.931 14.324,19.941 14.587,19.941 14.646,19.934 14.701,19.927 14.753,19.921 14.798,19.914 
	14.839,19.907 14.88,19.9 14.915,19.893 14.95,19.883 14.981,19.872 15.012,19.862 15.039,19.852 15.064,19.841 15.088,19.827 
	15.112,19.813 15.136,19.8 15.16,19.782 15.281,19.14 15.274,19.143 "/>
<path fill="#FFFFFF" d="M18.28,19.012l-0.1,0.041l-0.097,0.038l-0.093,0.031l-0.097,0.021L17.8,19.161l-0.093,0.014l-0.093,0.007
	l-0.09,0.004H17.43l-0.09-0.004l-0.09-0.007l-0.09-0.01l-0.086-0.01l-0.09-0.014l-0.069-0.014l-0.069-0.024l-0.069-0.031
	l-0.062-0.038l-0.062-0.041l-0.055-0.052l-0.052-0.052l-0.048-0.059l-0.041-0.059l-0.038-0.066l-0.028-0.062l-0.024-0.066
	l-0.014-0.066l-0.007-0.066l0.003-0.062l0.007-0.042h2.242l0.017-0.211l0.052-0.29l0.024-0.263l-0.003-0.235l-0.028-0.207
	l-0.048-0.183l-0.069-0.159l-0.086-0.138l-0.104-0.117l-0.114-0.097l-0.124-0.083l-0.135-0.062l-0.138-0.052l-0.142-0.034
	l-0.142-0.024l-0.142-0.014l-0.135-0.003l-0.28,0.014l-0.249,0.041l-0.225,0.062l-0.2,0.086l-0.173,0.104l-0.152,0.117l-0.135,0.131
	l-0.111,0.138l-0.097,0.145l-0.079,0.152l-0.062,0.149l-0.052,0.149l-0.038,0.145l-0.028,0.135l-0.021,0.128l-0.014,0.111
	l-0.017,0.283l0.01,0.256l0.038,0.231l0.059,0.204l0.083,0.183l0.1,0.159l0.117,0.142l0.135,0.117l0.145,0.1l0.155,0.086
	l0.162,0.066l0.169,0.052l0.173,0.041l0.173,0.024l0.173,0.017l0.169,0.003h0.114l0.107-0.003h0.093l0.09-0.003l0.079-0.007
	l0.073-0.007l0.069-0.007l0.062-0.01l0.059-0.01l0.055-0.014l0.055-0.017l0.052-0.017l0.052-0.021l0.055-0.021l0.055-0.028
	l0.055-0.028l0.138-0.85l-0.1,0.059L18.28,19.012z M16.497,17.609l0.014-0.072l0.021-0.069l0.024-0.069l0.031-0.062l0.031-0.059
	l0.038-0.055l0.041-0.052l0.045-0.048l0.045-0.042l0.052-0.038l0.052-0.031l0.059-0.028l0.059-0.021l0.059-0.014l0.062-0.01
	l0.066-0.003l0.062,0.007l0.059,0.01l0.055,0.014l0.055,0.021l0.052,0.028l0.052,0.031l0.045,0.034l0.041,0.042l0.035,0.048
	l0.034,0.052l0.024,0.059l0.024,0.066l0.014,0.069l0.007,0.076l0.003,0.083l-0.007,0.086h-1.264L16.497,17.609z"/>
<polygon fill="#FFFFFF" points="24.408,16.355 24.46,16.38 24.508,16.404 24.553,16.424 24.598,16.449 24.771,15.492 24.75,15.485 
	24.719,15.471 24.678,15.457 24.629,15.44 24.574,15.419 24.508,15.399 24.439,15.378 24.36,15.357 24.277,15.336 24.187,15.319 
	24.094,15.298 23.997,15.285 23.893,15.271 23.79,15.26 23.683,15.253 23.572,15.25 23.441,15.253 23.317,15.26 23.192,15.274 
	23.075,15.291 22.957,15.312 22.847,15.336 22.74,15.364 22.633,15.399 22.532,15.437 22.436,15.478 22.342,15.523 22.249,15.575 
	22.163,15.63 22.08,15.689 22,15.754 21.921,15.823 21.848,15.896 21.779,15.972 21.71,16.055 21.648,16.141 21.586,16.231 
	21.527,16.328 21.475,16.428 21.423,16.535 21.375,16.642 21.33,16.756 21.285,16.877 21.247,16.998 21.213,17.126 21.178,17.26 
	21.147,17.399 21.119,17.54 21.081,17.827 21.075,18.097 21.088,18.342 21.13,18.573 21.192,18.784 21.275,18.977 21.372,19.15 
	21.486,19.306 21.613,19.444 21.752,19.565 21.897,19.668 22.049,19.751 22.208,19.82 22.367,19.872 22.525,19.907 22.684,19.924 
	22.878,19.934 23.054,19.938 23.209,19.934 23.344,19.927 23.465,19.914 23.569,19.9 23.659,19.883 23.738,19.858 23.8,19.838 
	23.855,19.813 23.904,19.789 23.942,19.762 23.973,19.741 24.001,19.717 24.021,19.696 24.042,19.679 24.198,18.756 24.128,18.819 
	24.056,18.874 23.976,18.919 23.89,18.957 23.804,18.984 23.717,19.009 23.627,19.026 23.538,19.036 23.451,19.043 23.365,19.043 
	23.285,19.043 23.209,19.036 23.14,19.029 23.078,19.022 23.026,19.012 22.982,19.002 22.85,18.97 22.733,18.926 22.626,18.874 
	22.532,18.812 22.449,18.739 22.377,18.66 22.315,18.57 22.263,18.477 22.225,18.373 22.194,18.269 22.17,18.159 22.159,18.041 
	22.156,17.924 22.163,17.803 22.177,17.682 22.197,17.558 22.253,17.337 22.318,17.143 22.391,16.97 22.467,16.818 22.55,16.691 
	22.636,16.58 22.726,16.49 22.819,16.414 22.916,16.352 23.013,16.304 23.109,16.266 23.206,16.238 23.303,16.221 23.396,16.21 
	23.486,16.203 23.572,16.203 23.659,16.203 23.742,16.203 23.821,16.21 23.9,16.217 23.973,16.228 24.045,16.241 24.111,16.255 
	24.177,16.273 24.239,16.293 24.298,16.314 24.356,16.335 "/>
<polygon fill="#FFFFFF" points="5.819,15.405 4.689,18.097 4.534,15.405 2.9,15.405 2.116,19.941 3.055,19.941 3.629,16.552 
	3.65,16.552 3.67,16.552 3.681,16.552 3.688,16.718 3.712,17.112 3.743,17.654 3.777,18.273 3.812,18.888 3.843,19.423 3.867,19.8 
	3.874,19.941 4.935,19.941 6.341,16.552 6.379,16.552 5.784,19.941 6.724,19.941 7.526,15.405 "/>
<polygon fill="#FFFFFF" points="30.077,17.091 30.125,17.091 30.153,17.091 30.164,17.091 30.319,16.203 30.222,16.21 
	30.129,16.221 30.043,16.238 29.96,16.262 29.884,16.29 29.811,16.324 29.742,16.362 29.676,16.404 29.614,16.452 29.555,16.501 
	29.5,16.556 29.445,16.611 29.393,16.67 29.341,16.735 29.29,16.798 29.241,16.867 29.345,16.241 28.374,16.241 27.728,19.941 
	28.702,19.941 29.051,17.976 29.065,17.9 29.086,17.824 29.106,17.748 29.134,17.672 29.169,17.596 29.21,17.523 29.255,17.454 
	29.31,17.388 29.372,17.33 29.442,17.274 29.521,17.223 29.611,17.181 29.711,17.147 29.822,17.119 29.942,17.098 "/>
<polygon fill="#FFFFFF" points="21.119,16.604 21.147,16.539 21.182,16.473 21.216,16.407 21.251,16.349 21.282,16.297 
	21.306,16.255 21.323,16.231 21.33,16.221 21.327,16.221 21.313,16.217 21.296,16.214 21.271,16.21 21.247,16.21 21.22,16.207 
	21.195,16.203 21.171,16.203 21.064,16.21 20.967,16.221 20.878,16.238 20.795,16.259 20.715,16.286 20.643,16.321 20.577,16.355 
	20.515,16.397 20.456,16.442 20.401,16.494 20.349,16.545 20.297,16.604 20.245,16.663 20.197,16.729 20.145,16.798 20.093,16.867 
	20.218,16.241 19.226,16.241 18.58,19.941 19.554,19.941 19.572,19.941 19.903,17.976 19.917,17.9 19.935,17.827 19.952,17.755 
	19.976,17.685 20.004,17.616 20.038,17.551 20.08,17.489 20.128,17.43 20.183,17.378 20.245,17.326 20.321,17.285 20.404,17.247 
	20.501,17.216 20.608,17.188 20.726,17.171 20.86,17.16 20.871,17.16 20.885,17.164 20.902,17.167 20.919,17.167 20.936,17.171 
	20.95,17.174 20.961,17.178 20.964,17.178 20.967,17.164 20.978,17.122 20.992,17.06 21.009,16.984 21.033,16.894 21.057,16.798 
	21.088,16.701 "/>
<path fill="#FFFFFF" d="M31.604,16.248l-0.138,0.021L31.328,16.3l-0.138,0.048l-0.131,0.059l-0.131,0.076l-0.128,0.086l-0.121,0.1
	l-0.114,0.114l-0.107,0.124l-0.104,0.138l-0.09,0.155l-0.086,0.166l-0.073,0.176l-0.062,0.193l-0.052,0.204l-0.031,0.176
	l-0.017,0.176l-0.003,0.18l0.01,0.176l0.028,0.176l0.038,0.169l0.055,0.162l0.069,0.155l0.083,0.145l0.097,0.128l0.111,0.117
	l0.124,0.1l0.138,0.079l0.152,0.059l0.166,0.038l0.18,0.014h0.069l0.069-0.004l0.066-0.007l0.069-0.01l0.069-0.01l0.066-0.017
	l0.066-0.017l0.066-0.024l0.066-0.031l0.062-0.031l0.062-0.038l0.062-0.045l0.062-0.048l0.059-0.055l0.059-0.062l0.055-0.069v0.034
	l-0.069,0.384h0.957l0.781-4.518h-0.94l-0.242,1.358l-0.021-0.042l-0.028-0.041l-0.031-0.045l-0.035-0.045l-0.041-0.045
	l-0.045-0.045l-0.052-0.045l-0.055-0.042l-0.062-0.038l-0.069-0.038l-0.069-0.031l-0.079-0.028l-0.083-0.024l-0.09-0.017
	l-0.097-0.01l-0.1-0.003L31.604,16.248z M31.863,17.081l0.093-0.007l0.073,0.007l0.066,0.017l0.062,0.028l0.059,0.041l0.052,0.048
	l0.045,0.055l0.042,0.066l0.034,0.069l0.028,0.079l0.024,0.083l0.014,0.086l0.01,0.09l0.003,0.097v0.093l-0.01,0.1l-0.017,0.097
	l-0.017,0.093l-0.024,0.093l-0.028,0.09l-0.035,0.086l-0.038,0.083l-0.045,0.079l-0.048,0.076l-0.052,0.069l-0.059,0.062
	l-0.066,0.059l-0.069,0.052l-0.073,0.041l-0.079,0.038l-0.083,0.024l-0.09,0.021l-0.097,0.007L31.4,19.078l-0.114-0.076l-0.09-0.114
	l-0.069-0.142l-0.045-0.162l-0.024-0.169l-0.007-0.166l0.017-0.152l0.021-0.1l0.028-0.1l0.028-0.093l0.035-0.093l0.038-0.09
	l0.045-0.083l0.048-0.079l0.052-0.076l0.059-0.066l0.059-0.059l0.069-0.055l0.069-0.045l0.079-0.035l0.079-0.028L31.863,17.081z"/>
<path fill="#FFFFFF" d="M27.849,17.212v-0.131l-0.024-0.117l-0.038-0.111l-0.052-0.104l-0.069-0.093l-0.079-0.083L27.5,16.497
	l-0.097-0.066L27.3,16.373l-0.107-0.048l-0.107-0.041l-0.11-0.031l-0.107-0.024l-0.104-0.017l-0.097-0.007L26.55,16.2l-0.118-0.003
	h-0.11h-0.107h-0.107l-0.1,0.003l-0.1,0.003l-0.097,0.007l-0.093,0.007l-0.09,0.014l-0.086,0.014l-0.086,0.017l-0.083,0.017
	l-0.079,0.024l-0.079,0.028l-0.076,0.031l-0.242,0.833l0.038-0.021l0.048-0.024l0.062-0.021l0.076-0.021l0.083-0.017l0.09-0.017
	l0.1-0.017l0.104-0.014l0.107-0.014l0.11-0.01l0.111-0.01l0.114-0.007l0.11-0.003h0.107l0.104,0.003l0.097,0.003l0.083,0.007
	l0.076,0.021l0.073,0.031l0.062,0.045l0.052,0.052l0.045,0.062l0.028,0.069l0.014,0.076l-0.007,0.066l-0.01,0.073l-0.01,0.062
	l-0.007,0.024H26.74l-0.031-0.003l-0.055-0.003l-0.066-0.004h-0.076l-0.079-0.003l-0.083-0.003h-0.083h-0.038l-0.048,0.003
	l-0.048,0.003l-0.055,0.004l-0.059,0.007l-0.059,0.003l-0.062,0.007l-0.059,0.007l-0.055,0.007l-0.052,0.007l-0.048,0.003
	l-0.045,0.007l-0.035,0.004l-0.024,0.003l-0.017,0.003h-0.007l-0.117,0.021l-0.114,0.031l-0.114,0.038l-0.107,0.048l-0.107,0.055
	l-0.1,0.066l-0.093,0.073l-0.09,0.079l-0.079,0.086l-0.073,0.097l-0.066,0.1l-0.052,0.11l-0.045,0.118l-0.031,0.121l-0.021,0.128
	l-0.007,0.135v0.076l0.007,0.076l0.01,0.079l0.014,0.079l0.017,0.076l0.028,0.076l0.031,0.076l0.042,0.073l0.048,0.069l0.055,0.066
	l0.066,0.062l0.076,0.055l0.09,0.052l0.097,0.045l0.11,0.035l0.124,0.031l0.093,0.014L25.341,20l0.097-0.003l0.1-0.007l0.097-0.014
	l0.097-0.017l0.097-0.028l0.093-0.028l0.086-0.035l0.086-0.041l0.083-0.041l0.072-0.045l0.069-0.048l0.062-0.048l0.052-0.052
	l0.045-0.052l-0.007,0.042v0.093L26.467,19.8l-0.007,0.142h0.867l0.142-0.767l0.363-1.824L27.849,17.212z M26.626,18.359
	l-0.014,0.097l-0.017,0.1l-0.014,0.097l-0.01,0.038l-0.014,0.042l-0.017,0.042l-0.024,0.041l-0.031,0.045l-0.038,0.042l-0.042,0.045
	l-0.048,0.038l-0.055,0.041l-0.062,0.035l-0.066,0.031l-0.076,0.028l-0.079,0.024l-0.09,0.017l-0.097,0.01l-0.104,0.003
	l-0.059-0.003l-0.059-0.01l-0.059-0.021L25.5,19.105l-0.041-0.052l-0.028-0.069l-0.017-0.093l0.003-0.117l0.01-0.059l0.021-0.055
	l0.024-0.052l0.031-0.048l0.038-0.045l0.038-0.038l0.045-0.038l0.045-0.031l0.045-0.031l0.048-0.024l0.041-0.021l0.045-0.021
	l0.038-0.014l0.034-0.01l0.028-0.01l0.024-0.004l0.035-0.007l0.045-0.01l0.045-0.007l0.052-0.01l0.052-0.007l0.055-0.007
	l0.055-0.007l0.055-0.007l0.052-0.003h0.052l0.045,0.003l0.038,0.004l0.034,0.01l0.024,0.01l0.014,0.017l0.007,0.021L26.626,18.359z
	"/>
<path fill="#FFFFFF" d="M10.693,17.212v-0.131l-0.021-0.117l-0.035-0.111l-0.052-0.104l-0.069-0.093l-0.076-0.083l-0.086-0.076
	l-0.097-0.066l-0.104-0.059l-0.104-0.048l-0.107-0.041l-0.111-0.031l-0.107-0.024L9.623,16.21l-0.097-0.007L9.405,16.2l-0.121-0.003
	H9.17H9.059H8.952L8.849,16.2l-0.1,0.003L8.652,16.21l-0.093,0.007l-0.09,0.014l-0.09,0.014l-0.083,0.017l-0.083,0.017L8.13,16.304
	l-0.076,0.028l-0.076,0.031l-0.245,0.833l0.038-0.021l0.048-0.024l0.062-0.021l0.076-0.021l0.083-0.017l0.09-0.017l0.1-0.017
	l0.104-0.014l0.107-0.014l0.111-0.01l0.11-0.01l0.114-0.007l0.111-0.003h0.107l0.104,0.003l0.097,0.003l0.09,0.007l0.083,0.021
	l0.073,0.031l0.066,0.045L9.56,17.16l0.042,0.062l0.031,0.069l0.014,0.076L9.64,17.433l-0.017,0.073l-0.021,0.062l-0.007,0.024
	h-0.01L9.55,17.589l-0.048-0.003L9.44,17.582H9.364l-0.076-0.003l-0.083-0.003H9.125H9.087l-0.048,0.003l-0.052,0.003l-0.055,0.004
	l-0.055,0.007l-0.062,0.003l-0.059,0.007l-0.059,0.007l-0.059,0.007l-0.052,0.007l-0.048,0.003l-0.041,0.007l-0.038,0.004
	l-0.024,0.003l-0.017,0.003H8.41l-0.121,0.021l-0.117,0.031l-0.114,0.038l-0.11,0.048l-0.104,0.055l-0.1,0.066l-0.097,0.073
	L7.56,18.055l-0.083,0.086l-0.073,0.097l-0.062,0.1l-0.055,0.11l-0.045,0.118l-0.035,0.121l-0.021,0.128l-0.01,0.135v0.076
	l0.007,0.076l0.01,0.079l0.014,0.079l0.021,0.076l0.028,0.076l0.034,0.076l0.042,0.073l0.048,0.069l0.055,0.066l0.069,0.062
	l0.076,0.055l0.086,0.052l0.097,0.045l0.111,0.035l0.121,0.031l0.093,0.014L8.186,20l0.1-0.003l0.1-0.007l0.104-0.014l0.1-0.021
	l0.1-0.024l0.1-0.031l0.093-0.034l0.09-0.041l0.086-0.041l0.083-0.048l0.073-0.048l0.066-0.052l0.055-0.055l0.048-0.055L9.37,19.575
	l-0.014,0.097L9.339,19.8l-0.024,0.142h0.871l0.138-0.767l0.349-1.824L10.693,17.212z M9.474,18.362l-0.021,0.111l-0.024,0.114
	l-0.028,0.1l-0.01,0.038l-0.017,0.038l-0.021,0.041l-0.024,0.042l-0.028,0.041l-0.034,0.038l-0.041,0.041L9.18,19.002L9.129,19.04
	L9.07,19.071l-0.066,0.031l-0.069,0.024l-0.079,0.021l-0.09,0.014l-0.093,0.01l-0.104,0.003l-0.055-0.003l-0.055-0.01L8.4,19.14
	l-0.052-0.034l-0.045-0.052l-0.034-0.069l-0.017-0.093l0.003-0.117l0.01-0.055l0.021-0.055l0.024-0.048l0.035-0.045l0.038-0.042
	l0.042-0.041l0.045-0.035l0.048-0.034l0.045-0.028l0.048-0.024l0.045-0.024L8.7,18.321l0.038-0.017l0.038-0.014l0.028-0.01
	l0.024-0.007l0.038-0.01l0.041-0.01l0.048-0.01l0.052-0.007l0.055-0.007l0.055-0.007l0.059-0.007l0.055-0.004h0.052h0.052
	l0.045,0.004l0.038,0.007l0.035,0.007l0.021,0.01l0.014,0.017l0.003,0.017L9.474,18.362z"/>
</svg>
