<?xml version="1.0" encoding="utf-8"?>
<!-- Generator: Adobe Illustrator 19.2.1, SVG Export Plug-In . SVG Version: 6.00 Build 0)  -->
<svg version="1.0" id="art" xmlns="http://www.w3.org/2000/svg" xmlns:xlink="http://www.w3.org/1999/xlink" x="0px" y="0px"
	 width="18px" height="18px" viewBox="0 0 18 18" enable-background="new 0 0 18 18" xml:space="preserve">
<g id="check">
</g>
<g>
	<g>
		<polygon fill="#1A1F71" points="7.975,11.917 6.718,11.917 7.504,7.086 8.761,7.086 		"/>
		<path fill="#1A1F71" d="M5.66,7.086l-1.199,3.322L4.319,9.693l0,0L3.896,7.521c0,0-0.051-0.435-0.597-0.435H1.318L1.294,7.168
			c0,0,0.606,0.126,1.315,0.552l1.093,4.196h1.31l2.001-4.83H5.66z"/>
		<path fill="#1A1F71" d="M15.551,11.917h1.155l-1.007-4.83h-1.011c-0.467,0-0.581,0.36-0.581,0.36l-1.875,4.47h1.311l0.262-0.717
			h1.599L15.551,11.917z M14.167,10.208L14.828,8.4l0.372,1.808H14.167z"/>
		<path fill="#1A1F71" d="M12.33,8.248l0.179-1.037c0,0-0.554-0.211-1.131-0.211c-0.624,0-2.106,0.273-2.106,1.599
			c0,1.248,1.739,1.264,1.739,1.919s-1.56,0.538-2.075,0.125L8.75,11.727c0,0,0.561,0.273,1.42,0.273
			c0.858,0,2.153-0.445,2.153-1.654c0-1.256-1.755-1.373-1.755-1.919C10.567,7.881,11.792,7.952,12.33,8.248z"/>
	</g>
	<path fill="#FDBB0A" d="M4.319,9.694L3.896,7.521c0,0-0.051-0.435-0.597-0.435H1.318L1.294,7.168c0,0,0.953,0.197,1.867,0.937
		C4.034,8.812,4.319,9.694,4.319,9.694z"/>
</g>
</svg>
