<?xml version="1.0" encoding="utf-8"?>
<!-- Generator: Adobe Illustrator 19.2.1, SVG Export Plug-In . SVG Version: 6.00 Build 0)  -->
<svg version="1.0" id="art" xmlns="http://www.w3.org/2000/svg" xmlns:xlink="http://www.w3.org/1999/xlink" x="0px" y="0px"
	 width="36px" height="36px" viewBox="0 0 36 36" enable-background="new 0 0 36 36" xml:space="preserve">
<g id="check">
</g>
<g>
	
		<radialGradient id="SVGID_1_" cx="18.3553" cy="14.1996" r="13.921" gradientTransform="matrix(0.9984 0 0 0.9984 0.383 0.1261)" gradientUnits="userSpaceOnUse">
		<stop  offset="0.1932" style="stop-color:#FFFFFF"/>
		<stop  offset="0.227" style="stop-color:#F7FCFF"/>
		<stop  offset="0.2806" style="stop-color:#E0F5FD"/>
		<stop  offset="0.3474" style="stop-color:#BAE9FB"/>
		<stop  offset="0.4248" style="stop-color:#86D9F8"/>
		<stop  offset="0.5098" style="stop-color:#44C4F4"/>
		<stop  offset="0.5899" style="stop-color:#00AFF0"/>
		<stop  offset="1" style="stop-color:#005F9B"/>
	</radialGradient>
	<path fill-rule="evenodd" clip-rule="evenodd" fill="url(#SVGID_1_)" d="M31.426,15.849l-5.713-5.713c-0.11-0.11-0.29-0.11-0.4,0
		l-3.798,3.798c-0.11,0.11-0.11,0.29,0,0.4l1.862,1.862l2.612,0.276c0.155,0.016,0.283,0.127,0.283,0.283v2.336l0.956,0.956
		c0.11,0.11,0.29,0.11,0.4,0l3.798-3.798C31.536,16.138,31.536,15.959,31.426,15.849L31.426,15.849z"/>
	
		<radialGradient id="SVGID_2_" cx="18.3553" cy="14.1996" r="13.921" gradientTransform="matrix(0.9984 0 0 0.9984 0.383 0.1261)" gradientUnits="userSpaceOnUse">
		<stop  offset="0.1932" style="stop-color:#FFFFFF"/>
		<stop  offset="0.227" style="stop-color:#F7FCFF"/>
		<stop  offset="0.2806" style="stop-color:#E0F5FD"/>
		<stop  offset="0.3474" style="stop-color:#BAE9FB"/>
		<stop  offset="0.4248" style="stop-color:#86D9F8"/>
		<stop  offset="0.5098" style="stop-color:#44C4F4"/>
		<stop  offset="0.5899" style="stop-color:#00AFF0"/>
		<stop  offset="1" style="stop-color:#005F9B"/>
	</radialGradient>
	<path fill-rule="evenodd" clip-rule="evenodd" fill="url(#SVGID_2_)" d="M26.273,24.833v-8.079c0-0.155-0.127-0.283-0.283-0.283
		H20.62c-0.156,0-0.283,0.127-0.283,0.283v2.522l1.692,2.152c0.096,0.122,0.11,0.29,0,0.4l-1.692,1.692v1.313
		c0,0.156,0.127,0.283,0.283,0.283h5.371C26.146,25.116,26.273,24.989,26.273,24.833L26.273,24.833z"/>
	
		<radialGradient id="SVGID_3_" cx="18.3553" cy="14.1996" r="13.921" gradientTransform="matrix(0.9984 0 0 0.9984 0.383 0.1261)" gradientUnits="userSpaceOnUse">
		<stop  offset="0.1932" style="stop-color:#FFFFFF"/>
		<stop  offset="0.227" style="stop-color:#F7FCFF"/>
		<stop  offset="0.2806" style="stop-color:#E0F5FD"/>
		<stop  offset="0.3474" style="stop-color:#BAE9FB"/>
		<stop  offset="0.4248" style="stop-color:#86D9F8"/>
		<stop  offset="0.5098" style="stop-color:#44C4F4"/>
		<stop  offset="0.5899" style="stop-color:#00AFF0"/>
		<stop  offset="1" style="stop-color:#005F9B"/>
	</radialGradient>
	<path fill-rule="evenodd" clip-rule="evenodd" fill="url(#SVGID_3_)" d="M16.316,27.541l5.713-5.713c0.11-0.11,0.11-0.29,0-0.4
		l-3.798-3.798c-0.11-0.11-0.29-0.11-0.4,0l-1.812,1.812l-0.337,2.691c-0.019,0.154-0.127,0.283-0.283,0.283h-2.354l-0.927,0.927
		c-0.11,0.11-0.11,0.29,0,0.4l3.798,3.798C16.026,27.651,16.206,27.651,16.316,27.541L16.316,27.541z"/>
	
		<radialGradient id="SVGID_4_" cx="18.3553" cy="14.1996" r="13.921" gradientTransform="matrix(0.9984 0 0 0.9984 0.383 0.1261)" gradientUnits="userSpaceOnUse">
		<stop  offset="0.1932" style="stop-color:#FFFFFF"/>
		<stop  offset="0.227" style="stop-color:#F7FCFF"/>
		<stop  offset="0.2806" style="stop-color:#E0F5FD"/>
		<stop  offset="0.3474" style="stop-color:#BAE9FB"/>
		<stop  offset="0.4248" style="stop-color:#86D9F8"/>
		<stop  offset="0.5098" style="stop-color:#44C4F4"/>
		<stop  offset="0.5899" style="stop-color:#00AFF0"/>
		<stop  offset="1" style="stop-color:#005F9B"/>
	</radialGradient>
	<path fill-rule="evenodd" clip-rule="evenodd" fill="url(#SVGID_4_)" d="M7.321,22.417H15.4c0.156,0,0.283-0.127,0.283-0.283
		v-5.371c0-0.155-0.127-0.283-0.283-0.283h-2.713l-2.001,1.633c-0.12,0.098-0.29,0.11-0.4,0L8.653,16.48H7.321
		c-0.155,0-0.282,0.127-0.282,0.283v5.371C7.038,22.29,7.166,22.417,7.321,22.417L7.321,22.417z"/>
	
		<radialGradient id="SVGID_5_" cx="18.3553" cy="14.1996" r="13.921" gradientTransform="matrix(0.9984 0 0 0.9984 0.383 0.1261)" gradientUnits="userSpaceOnUse">
		<stop  offset="0.1932" style="stop-color:#FFFFFF"/>
		<stop  offset="0.227" style="stop-color:#F7FCFF"/>
		<stop  offset="0.2806" style="stop-color:#E0F5FD"/>
		<stop  offset="0.3474" style="stop-color:#BAE9FB"/>
		<stop  offset="0.4248" style="stop-color:#86D9F8"/>
		<stop  offset="0.5098" style="stop-color:#44C4F4"/>
		<stop  offset="0.5899" style="stop-color:#00AFF0"/>
		<stop  offset="1" style="stop-color:#005F9B"/>
	</radialGradient>
	<path fill-rule="evenodd" clip-rule="evenodd" fill="url(#SVGID_5_)" d="M9.723,3.408v8.079c0,0.156,0.127,0.283,0.283,0.283h5.371
		c0.156,0,0.283-0.127,0.283-0.283V8.922l-1.674-2.103c-0.097-0.122-0.11-0.29,0-0.4l1.674-1.674V3.408
		c0-0.155-0.127-0.282-0.283-0.282h-5.371C9.851,3.125,9.723,3.252,9.723,3.408L9.723,3.408z"/>
	
		<radialGradient id="SVGID_6_" cx="18.3553" cy="14.1996" r="13.921" gradientTransform="matrix(0.9984 0 0 0.9984 0.383 0.1261)" gradientUnits="userSpaceOnUse">
		<stop  offset="0.1932" style="stop-color:#FFFFFF"/>
		<stop  offset="0.227" style="stop-color:#F7FCFF"/>
		<stop  offset="0.2806" style="stop-color:#E0F5FD"/>
		<stop  offset="0.3474" style="stop-color:#BAE9FB"/>
		<stop  offset="0.4248" style="stop-color:#86D9F8"/>
		<stop  offset="0.5098" style="stop-color:#44C4F4"/>
		<stop  offset="0.5899" style="stop-color:#00AFF0"/>
		<stop  offset="1" style="stop-color:#005F9B"/>
	</radialGradient>
	<path fill-rule="evenodd" clip-rule="evenodd" fill="url(#SVGID_6_)" d="M19.698,0.706l-5.713,5.713c-0.11,0.11-0.11,0.29,0,0.4
		l3.798,3.798c0.11,0.11,0.29,0.11,0.4,0l1.867-1.867l0.276-2.634c0.016-0.155,0.127-0.283,0.283-0.283h2.358l0.929-0.929
		c0.11-0.11,0.11-0.29,0-0.4l-3.798-3.798C19.988,0.596,19.808,0.596,19.698,0.706L19.698,0.706z"/>
	
		<radialGradient id="SVGID_7_" cx="18.3553" cy="14.1996" r="13.921" gradientTransform="matrix(0.9984 0 0 0.9984 0.383 0.1261)" gradientUnits="userSpaceOnUse">
		<stop  offset="0.1932" style="stop-color:#FFFFFF"/>
		<stop  offset="0.227" style="stop-color:#F7FCFF"/>
		<stop  offset="0.2806" style="stop-color:#E0F5FD"/>
		<stop  offset="0.3474" style="stop-color:#BAE9FB"/>
		<stop  offset="0.4248" style="stop-color:#86D9F8"/>
		<stop  offset="0.5098" style="stop-color:#44C4F4"/>
		<stop  offset="0.5899" style="stop-color:#00AFF0"/>
		<stop  offset="1" style="stop-color:#005F9B"/>
	</radialGradient>
	<path fill-rule="evenodd" clip-rule="evenodd" fill="url(#SVGID_7_)" d="M28.687,5.833h-8.079c-0.156,0-0.283,0.127-0.283,0.283
		v5.371c0,0.155,0.127,0.282,0.283,0.282h2.674l2.032-1.633c0.121-0.097,0.29-0.11,0.4,0l1.633,1.633h1.341
		c0.156,0,0.283-0.127,0.283-0.282V6.116C28.97,5.96,28.843,5.833,28.687,5.833L28.687,5.833z"/>
	
		<radialGradient id="SVGID_8_" cx="18.3553" cy="14.1996" r="13.921" gradientTransform="matrix(0.9984 0 0 0.9984 0.383 0.1261)" gradientUnits="userSpaceOnUse">
		<stop  offset="0.1932" style="stop-color:#FFFFFF"/>
		<stop  offset="0.227" style="stop-color:#F7FCFF"/>
		<stop  offset="0.2806" style="stop-color:#E0F5FD"/>
		<stop  offset="0.3474" style="stop-color:#BAE9FB"/>
		<stop  offset="0.4248" style="stop-color:#86D9F8"/>
		<stop  offset="0.5098" style="stop-color:#44C4F4"/>
		<stop  offset="0.5899" style="stop-color:#00AFF0"/>
		<stop  offset="1" style="stop-color:#005F9B"/>
	</radialGradient>
	<path fill-rule="evenodd" clip-rule="evenodd" fill="url(#SVGID_8_)" d="M4.574,12.401l5.713,5.713c0.11,0.11,0.29,0.11,0.4,0
		l3.798-3.798c0.11-0.11,0.11-0.29,0-0.4l-1.901-1.902l-2.577-0.245c-0.155-0.015-0.283-0.127-0.283-0.283V9.155L8.771,8.203
		c-0.11-0.11-0.29-0.11-0.4,0l-3.798,3.798C4.464,12.111,4.464,12.291,4.574,12.401L4.574,12.401z"/>
</g>
<path fill-rule="evenodd" clip-rule="evenodd" fill="#005388" d="M26.273,16.754v2.336l0.956,0.956L26.273,16.754L26.273,16.754z
	 M25.714,10.136l1.633,1.633h1.341L25.714,10.136L25.714,10.136z M20.608,5.833h2.358l0.929-0.929L20.608,5.833L20.608,5.833z
	 M13.932,6.493l1.728-1.749V3.408L13.932,6.493L13.932,6.493z M9.724,11.487V9.155L8.771,8.203L9.724,11.487L9.724,11.487z
	 M10.286,18.114L8.653,16.48H7.321L10.286,18.114L10.286,18.114z M15.4,22.417h-2.354l-0.927,0.927L15.4,22.417L15.4,22.417z
	 M22.005,21.852l-1.669,1.669v1.313L22.005,21.852L22.005,21.852z"/>
<path fill="#005D99" d="M5.949,34.374c0.001,0.069-0.01,0.143-0.032,0.22c-0.022,0.078-0.058,0.151-0.111,0.221
	c-0.052,0.069-0.122,0.125-0.213,0.169c-0.089,0.044-0.201,0.067-0.336,0.068H4.223v-1.327h1.041c0.15,0.001,0.276,0.03,0.377,0.086
	c0.102,0.056,0.178,0.133,0.231,0.231C5.923,34.138,5.949,34.249,5.949,34.374L5.949,34.374z M10.939,35.836v-0.606
	c0.001-0.069-0.007-0.115-0.026-0.139c-0.019-0.023-0.057-0.033-0.117-0.032H8.913c-0.102,0.001-0.188-0.011-0.257-0.037
	c-0.069-0.025-0.12-0.069-0.155-0.131c-0.034-0.063-0.052-0.15-0.052-0.26v-0.813h2.047c0.056,0,0.093-0.013,0.111-0.039
	c0.018-0.026,0.026-0.068,0.025-0.125v-0.556c0.001-0.067-0.007-0.112-0.025-0.137c-0.018-0.024-0.055-0.036-0.111-0.034H8.45
	v-0.549c-0.001-0.085,0.012-0.159,0.038-0.226c0.026-0.067,0.073-0.119,0.14-0.157c0.068-0.039,0.163-0.058,0.285-0.059h1.812
	c0.052,0.001,0.088-0.011,0.108-0.034c0.019-0.022,0.028-0.064,0.027-0.124v-0.606c0.001-0.066-0.007-0.112-0.025-0.136
	c-0.018-0.024-0.055-0.036-0.111-0.035H8.678c-0.24,0.001-0.443,0.038-0.611,0.111c-0.168,0.072-0.303,0.171-0.407,0.295
	c-0.102,0.125-0.178,0.265-0.225,0.422c-0.048,0.157-0.071,0.321-0.07,0.492v2.368c-0.001,0.164,0.018,0.323,0.058,0.479
	c0.039,0.154,0.108,0.295,0.206,0.421c0.097,0.125,0.232,0.225,0.404,0.298c0.171,0.075,0.389,0.112,0.651,0.114h2.111
	c0.056,0,0.094-0.013,0.114-0.039C10.931,35.934,10.94,35.893,10.939,35.836L10.939,35.836z M19.066,33.339v-0.036
	c0.153-0.093,0.282-0.214,0.383-0.363c0.102-0.148,0.177-0.325,0.223-0.527L20,31.142c0.007-0.017,0.011-0.037,0.011-0.058
	c-0.001-0.022-0.01-0.042-0.026-0.057C19.968,31.01,19.94,31.002,19.9,31h-0.799c-0.026-0.001-0.053,0.004-0.082,0.015
	c-0.029,0.011-0.049,0.039-0.061,0.084l-0.321,1.201c-0.038,0.146-0.089,0.263-0.152,0.348c-0.063,0.087-0.133,0.151-0.211,0.193
	c-0.076,0.041-0.154,0.069-0.233,0.082c-0.079,0.012-0.154,0.018-0.225,0.017h-0.571v-1.811c0.011-0.052,0.006-0.085-0.014-0.098
	c-0.02-0.013-0.054-0.019-0.1-0.016h-0.834c-0.043-0.003-0.075,0.004-0.096,0.016c-0.021,0.013-0.032,0.045-0.032,0.098v4.757
	c0,0.051,0.011,0.084,0.032,0.097c0.022,0.013,0.054,0.019,0.096,0.017h0.827c0.046,0.003,0.078-0.003,0.099-0.017
	c0.02-0.013,0.03-0.046,0.03-0.097l-0.007-2.118h0.585c0.165-0.002,0.306,0.013,0.42,0.046c0.114,0.032,0.209,0.092,0.285,0.178
	c0.075,0.087,0.138,0.212,0.187,0.375l0.435,1.533c0.015,0.045,0.037,0.073,0.063,0.084c0.027,0.012,0.054,0.017,0.08,0.015h0.827
	c0.039-0.001,0.068-0.009,0.084-0.026c0.017-0.017,0.025-0.036,0.026-0.057c0-0.023-0.004-0.042-0.011-0.059l-0.442-1.655
	c-0.027-0.107-0.058-0.204-0.09-0.291c-0.033-0.088-0.075-0.166-0.126-0.237c-0.05-0.07-0.117-0.133-0.197-0.189
	C19.292,33.431,19.19,33.382,19.066,33.339L19.066,33.339z M22.068,34.074l0.271-0.903l0.271-1.018h0.043l0.264,1.018l0.271,0.903
	H22.068L22.068,34.074z M23.444,34.958l0.278,0.927c0.014,0.051,0.039,0.084,0.074,0.097c0.036,0.013,0.08,0.019,0.133,0.017h0.849
	c0.036-0.001,0.061-0.008,0.076-0.025c0.015-0.015,0.025-0.033,0.026-0.056c0.001-0.021-0.002-0.041-0.01-0.062l-1.483-4.465
	c-0.037-0.114-0.078-0.2-0.124-0.257c-0.045-0.056-0.102-0.093-0.171-0.111c-0.069-0.018-0.156-0.025-0.262-0.024h-0.428
	c-0.095-0.001-0.175,0.01-0.241,0.032c-0.067,0.021-0.121,0.062-0.166,0.119c-0.045,0.057-0.082,0.137-0.113,0.24l-1.484,4.465
	c-0.012,0.04-0.011,0.074,0.002,0.101c0.013,0.026,0.045,0.04,0.097,0.041h0.835c0.065,0,0.113-0.011,0.14-0.033
	c0.027-0.021,0.048-0.056,0.06-0.102l0.278-0.906H23.444L23.444,34.958z M27.9,32.633c0,0.127-0.025,0.241-0.075,0.343
	c-0.051,0.102-0.128,0.183-0.233,0.243c-0.103,0.059-0.237,0.09-0.398,0.092H26.26v-1.355h0.927
	c0.144,0.001,0.263,0.024,0.355,0.069c0.093,0.044,0.165,0.101,0.217,0.171c0.052,0.069,0.089,0.143,0.111,0.22
	C27.891,32.493,27.901,32.566,27.9,32.633L27.9,32.633z M26.26,35.85v-1.662h0.949c0.266-0.001,0.497-0.031,0.692-0.087
	c0.194-0.057,0.358-0.132,0.491-0.227c0.133-0.095,0.241-0.201,0.325-0.317c0.083-0.117,0.147-0.237,0.191-0.358
	c0.044-0.122,0.074-0.238,0.09-0.348c0.015-0.111,0.024-0.207,0.023-0.289c0-0.227-0.039-0.436-0.115-0.627
	c-0.076-0.19-0.187-0.354-0.332-0.494c-0.144-0.139-0.32-0.247-0.525-0.325c-0.205-0.076-0.438-0.115-0.697-0.117h-1.747
	c-0.113,0-0.201,0.019-0.263,0.054c-0.063,0.036-0.106,0.087-0.131,0.151c-0.024,0.065-0.036,0.141-0.034,0.23v4.415
	c0,0.056,0.013,0.095,0.039,0.118c0.026,0.023,0.068,0.033,0.125,0.032h0.749c0.048,0,0.083-0.002,0.108-0.008
	c0.025-0.007,0.041-0.021,0.05-0.043C26.256,35.927,26.26,35.894,26.26,35.85L26.26,35.85z M33.013,31.785V31.15
	c0.001-0.059-0.008-0.1-0.029-0.12c-0.02-0.022-0.058-0.031-0.114-0.03h-3.652c-0.052-0.001-0.088,0.008-0.108,0.03
	c-0.019,0.02-0.028,0.06-0.027,0.12v0.635c0,0.046,0.011,0.082,0.033,0.106c0.021,0.024,0.056,0.037,0.102,0.037h1.262v3.922
	c0,0.056,0.013,0.095,0.039,0.118c0.026,0.023,0.068,0.033,0.125,0.032h0.763c0.07,0.001,0.116-0.008,0.139-0.029
	c0.024-0.021,0.034-0.061,0.032-0.12v-3.922h1.291c0.046,0,0.082-0.013,0.106-0.037C33.001,31.867,33.013,31.831,33.013,31.785
	L33.013,31.785z M3.567,35.999h1.797c0.243-0.001,0.467-0.04,0.674-0.118c0.207-0.077,0.388-0.187,0.543-0.327
	c0.155-0.141,0.276-0.307,0.363-0.497c0.087-0.191,0.131-0.401,0.132-0.627c0.001-0.082-0.005-0.178-0.017-0.288
	c-0.012-0.109-0.037-0.225-0.076-0.346c-0.038-0.121-0.097-0.239-0.176-0.354c-0.08-0.115-0.185-0.22-0.319-0.314
	c-0.133-0.094-0.299-0.169-0.5-0.225c-0.201-0.056-0.442-0.084-0.724-0.086H4.223v-0.891h2.154c0.052,0.001,0.087-0.008,0.105-0.027
	c0.017-0.02,0.025-0.056,0.024-0.108v-0.635c0.001-0.059-0.007-0.101-0.024-0.124C6.464,31.01,6.429,30.999,6.377,31H3.595
	c-0.113,0-0.203,0.017-0.27,0.051c-0.068,0.034-0.115,0.088-0.144,0.159c-0.03,0.071-0.044,0.163-0.043,0.275v4.086
	c-0.001,0.102,0.01,0.184,0.034,0.247c0.024,0.063,0.066,0.109,0.128,0.138C3.362,35.985,3.452,35.999,3.567,35.999L3.567,35.999z
	 M12.043,31.478l-0.064,1.084c-0.021,0.37-0.045,0.689-0.07,0.963c-0.04,0.451-0.085,1.533-0.669,1.533
	c-0.059,0-0.098,0.009-0.117,0.032c-0.019,0.023-0.026,0.07-0.026,0.139v0.606c0,0.057,0.008,0.099,0.028,0.125
	c0.02,0.026,0.058,0.039,0.114,0.039c0.453,0,0.849-0.036,1.19-0.551c0.105-0.158,0.196-0.335,0.262-0.536
	c0.066-0.201,0.119-0.427,0.157-0.675c0.038-0.248,0.069-0.522,0.094-0.821c0.024-0.298,0.048-0.623,0.071-0.975l0.028-0.499h1.391
	v3.922c0,0.052,0.01,0.087,0.031,0.104c0.022,0.017,0.059,0.025,0.112,0.024h0.792c0.045,0,0.077-0.004,0.099-0.01
	c0.023-0.007,0.036-0.02,0.043-0.038c0.006-0.019,0.009-0.046,0.008-0.081v-4.386c0.001-0.107-0.013-0.196-0.042-0.266
	c-0.03-0.071-0.077-0.124-0.144-0.159C15.263,31.018,15.172,31,15.06,31h-2.56c-0.113,0-0.202,0.017-0.265,0.049
	c-0.064,0.033-0.111,0.085-0.139,0.156C12.067,31.276,12.049,31.366,12.043,31.478L12.043,31.478z"/>
</svg>
