<?xml version="1.0" encoding="utf-8"?>
<!-- Generator: Adobe Illustrator 19.2.1, SVG Export Plug-In . SVG Version: 6.00 Build 0)  -->
<svg version="1.0" id="art" xmlns="http://www.w3.org/2000/svg" xmlns:xlink="http://www.w3.org/1999/xlink" x="0px" y="0px"
	 width="18px" height="18px" viewBox="0 0 18 18" enable-background="new 0 0 18 18" xml:space="preserve">
<g id="check">
</g>
<g id="g4155_3_">
	<g id="g4161_3_" transform="translate(302.4478,424.6084)">
		<path id="path4163_3_" fill="#1A1F71" d="M-293.577-419.52l-1.034,4.836h-1.251l1.034-4.836H-293.577z M-288.314-416.398
			l0.659-1.816l0.378,1.816H-288.314z M-286.917-414.684h1.157l-1.011-4.836h-1.067c-0.241,0-0.443,0.14-0.533,0.354l-1.877,4.481
			h1.314l0.261-0.722h1.605L-286.917-414.684z M-290.183-416.263c0.005-1.276-1.764-1.347-1.753-1.917
			c0.004-0.173,0.169-0.358,0.531-0.405c0.179-0.023,0.674-0.042,1.234,0.216l0.219-1.026c-0.301-0.109-0.688-0.214-1.17-0.214
			c-1.237,0-2.107,0.657-2.114,1.598c-0.008,0.696,0.621,1.084,1.095,1.316c0.488,0.237,0.651,0.389,0.649,0.601
			c-0.003,0.324-0.389,0.468-0.748,0.473c-0.629,0.01-0.994-0.17-1.285-0.306l-0.227,1.06c0.293,0.134,0.832,0.251,1.391,0.257
			C-291.047-414.608-290.187-415.258-290.183-416.263 M-295.365-419.52l-2.027,4.836h-1.323l-0.998-3.859
			c-0.06-0.237-0.113-0.324-0.297-0.425c-0.301-0.163-0.798-0.316-1.234-0.411l0.029-0.14h2.129c0.271,0,0.515,0.18,0.577,0.493
			l0.527,2.799l1.301-3.291H-295.365z"/>
	</g>
	<g id="g4165_3_" transform="translate(318.6445,362.2266)">
		<path id="path4167_3_" fill="#1A1F71" d="M-310.676-349.734h-0.724v0.674h0.81v0.203h-1.054v-1.87h1.012v0.203h-0.768v0.591h0.724
			V-349.734z"/>
	</g>
	<path id="path4169_3_" fill="#1A1F71" d="M8.428,11.4h0.244v1.969H8.428V11.4z"/>
	<g id="g4171_3_" transform="translate(333.0977,361.6953)">
		<path id="path4173_3_" fill="#1A1F71" d="M-323.094-349.128c0.003-0.152-0.064-0.394-0.338-0.394c-0.25,0-0.355,0.225-0.375,0.394
			H-323.094z M-323.81-348.953c0.005,0.33,0.214,0.466,0.46,0.466c0.175,0,0.283-0.031,0.372-0.069l0.044,0.175
			c-0.086,0.039-0.236,0.086-0.449,0.086c-0.413,0-0.66-0.275-0.66-0.68c0-0.405,0.238-0.721,0.63-0.721
			c0.441,0,0.555,0.383,0.555,0.63c0,0.05-0.003,0.086-0.008,0.114H-323.81z"/>
	</g>
	<g id="g4175_3_" transform="translate(344.2041,356.3369)">
		<path id="path4177_3_" fill="#1A1F71" d="M-332.637-343.015c-0.064,0.031-0.205,0.078-0.386,0.078
			c-0.405,0-0.668-0.275-0.668-0.685c0-0.413,0.283-0.716,0.721-0.716c0.144,0,0.272,0.036,0.338,0.072l-0.055,0.186
			c-0.058-0.031-0.15-0.064-0.283-0.064c-0.308,0-0.474,0.23-0.474,0.508c0,0.311,0.2,0.502,0.466,0.502
			c0.139,0,0.23-0.033,0.299-0.064L-332.637-343.015z"/>
	</g>
	<g id="g4179_3_" transform="translate(349.0664,367.8213)">
		<path id="path4181_3_" fill="#1A1F71" d="M-336.814-356.116v0.322h0.349v0.186h-0.349v0.724c0,0.167,0.047,0.261,0.183,0.261
			c0.066,0,0.105-0.005,0.142-0.017l0.011,0.186c-0.047,0.017-0.122,0.033-0.216,0.033c-0.114,0-0.205-0.039-0.263-0.103
			c-0.067-0.075-0.094-0.194-0.094-0.352v-0.733h-0.208v-0.186h0.208v-0.25L-336.814-356.116z"/>
	</g>
	<g id="g4183_3_" transform="translate(353.9688,362.5615)">
		<path id="path4185_3_" fill="#1A1F71" d="M-341.027-350.116c0-0.158-0.003-0.294-0.011-0.419h0.214l0.011,0.266h0.008
			c0.061-0.18,0.211-0.294,0.374-0.294c0.025,0,0.044,0.003,0.067,0.005v0.23c-0.025-0.006-0.05-0.006-0.083-0.006
			c-0.172,0-0.294,0.128-0.327,0.311c-0.005,0.033-0.008,0.075-0.008,0.114v0.716h-0.244V-350.116z"/>
	</g>
	<g id="g4187_3_" transform="translate(361.7861,360.749)">
		<path id="path4189_3_" fill="#1A1F71" d="M-347.743-348.048c0,0.294,0.166,0.516,0.405,0.516c0.233,0,0.408-0.219,0.408-0.522
			c0-0.227-0.114-0.513-0.402-0.513C-347.618-348.567-347.743-348.3-347.743-348.048 M-346.681-348.062
			c0,0.497-0.347,0.713-0.669,0.713c-0.361,0-0.643-0.266-0.643-0.691c0-0.447,0.297-0.71,0.666-0.71
			C-346.941-348.75-346.681-348.47-346.681-348.062"/>
	</g>
	<g id="g4191_3_" transform="translate(371.9873,362.9561)">
		<path id="path4193_3_" fill="#1A1F71" d="M-356.508-350.566c0-0.141-0.003-0.252-0.011-0.363h0.216l0.014,0.222h0.005
			c0.067-0.125,0.222-0.25,0.444-0.25c0.186,0,0.474,0.111,0.474,0.571v0.799h-0.244v-0.774c0-0.216-0.08-0.397-0.311-0.397
			c-0.158,0-0.283,0.114-0.327,0.25c-0.011,0.031-0.017,0.072-0.017,0.114v0.807h-0.244V-350.566z"/>
	</g>
</g>
</svg>
