<?xml version="1.0" encoding="utf-8"?>
<!-- Generator: Adobe Illustrator 19.2.1, SVG Export Plug-In . SVG Version: 6.00 Build 0)  -->
<svg version="1.0" id="art" xmlns="http://www.w3.org/2000/svg" xmlns:xlink="http://www.w3.org/1999/xlink" x="0px" y="0px"
	 width="36px" height="36px" viewBox="0 0 36 36" enable-background="new 0 0 36 36" xml:space="preserve">
<g id="check">
</g>
<path fill="#FFFFFF" d="M8.653,16.471H7.321h0c-0.155,0-0.282,0.127-0.282,0.283v5.371c0,0.156,0.127,0.283,0.282,0.283h5.725
	l-0.927,0.927c-0.11,0.11-0.11,0.29,0,0.4l3.798,3.798c0.11,0.11,0.29,0.11,0.4,0l4.021-4.02v1.313c0,0.156,0.127,0.283,0.283,0.283
	h5.371c0.156,0,0.283-0.127,0.283-0.283v-5.743l0.956,0.956c0.11,0.11,0.29,0.11,0.4,0l3.798-3.798c0.11-0.11,0.11-0.29,0-0.4
	l-5.713-5.713l1.633,1.633h1.341c0.156,0,0.283-0.127,0.283-0.282V6.106c0-0.156-0.127-0.283-0.283-0.283h-5.721l0.929-0.929
	c0.11-0.11,0.11-0.29,0-0.4l-3.798-3.798c-0.11-0.11-0.29-0.11-0.4,0l-4.052,4.052l0.014-0.014V3.399v0
	c0-0.155-0.127-0.282-0.283-0.282h-5.371c-0.155,0-0.283,0.127-0.283,0.282v5.747L8.771,8.194l0,0l0,0c-0.11-0.11-0.29-0.11-0.4,0
	l-3.798,3.798c-0.11,0.11-0.11,0.29,0,0.4L8.653,16.471z M15.377,11.76c0.156,0,0.283-0.127,0.283-0.283V8.913l-1.674-2.103
	l3.798,3.798c0.11,0.11,0.29,0.11,0.4,0L20.05,8.74l0.276-2.634v5.371c0,0.155,0.127,0.282,0.283,0.282h2.674l2.032-1.633
	l-3.798,3.798c-0.11,0.11-0.11,0.29,0,0.4l1.862,1.862l2.612,0.276H20.62c-0.156,0-0.283,0.127-0.283,0.283v2.522l1.692,2.152
	l-3.798-3.798c-0.11-0.11-0.29-0.11-0.4,0l-1.812,1.812l-0.337,2.691v-5.371c0-0.156-0.127-0.283-0.283-0.283h-2.713l-2.001,1.633
	l3.798-3.798c0.11-0.11,0.11-0.29,0-0.4l-1.901-1.902l-2.577-0.245H15.377z"/>
<path fill="#FFFFFF" d="M8.488,32.151c0.026-0.066,0.073-0.119,0.14-0.157c0.068-0.039,0.163-0.058,0.285-0.059h1.812
	c0.052,0.001,0.088-0.011,0.108-0.034c0.019-0.022,0.028-0.064,0.027-0.124v-0.606c0.001-0.066-0.007-0.112-0.025-0.136
	c-0.018-0.024-0.055-0.036-0.111-0.035H8.678c-0.24,0.001-0.443,0.038-0.611,0.111c-0.168,0.072-0.303,0.171-0.406,0.295
	c-0.102,0.125-0.178,0.265-0.225,0.422c-0.048,0.157-0.071,0.321-0.07,0.492v2.368c-0.001,0.164,0.018,0.323,0.058,0.479
	c0.039,0.154,0.108,0.295,0.206,0.421c0.097,0.125,0.232,0.225,0.404,0.298c0.171,0.075,0.389,0.112,0.651,0.114h2.111
	c0.056,0,0.094-0.013,0.114-0.039c0.02-0.026,0.03-0.068,0.028-0.125v-0.606c0.001-0.069-0.007-0.115-0.026-0.139
	c-0.019-0.023-0.057-0.033-0.117-0.032H8.913c-0.102,0.001-0.188-0.011-0.257-0.037c-0.069-0.025-0.12-0.069-0.155-0.131
	c-0.034-0.063-0.052-0.15-0.052-0.26v-0.813h2.047c0.056,0,0.093-0.013,0.11-0.039c0.018-0.026,0.026-0.068,0.025-0.125v-0.556
	c0.001-0.066-0.007-0.112-0.025-0.137c-0.018-0.024-0.055-0.036-0.11-0.034H8.45v-0.549C8.449,32.292,8.462,32.217,8.488,32.151z"/>
<path fill="#FFFFFF" d="M28.048,31.117c-0.205-0.076-0.438-0.115-0.697-0.117h-1.747c-0.113,0-0.201,0.019-0.263,0.054
	c-0.063,0.036-0.106,0.087-0.131,0.151c-0.024,0.065-0.036,0.141-0.034,0.23v4.415c0,0.056,0.013,0.095,0.039,0.118
	c0.026,0.023,0.068,0.033,0.125,0.032h0.749c0.048,0,0.083-0.002,0.108-0.008c0.025-0.007,0.041-0.021,0.05-0.043
	c0.009-0.021,0.013-0.055,0.013-0.099v-1.662h0.949c0.266-0.001,0.497-0.031,0.692-0.087c0.194-0.057,0.358-0.132,0.491-0.227
	c0.133-0.095,0.241-0.201,0.325-0.317c0.083-0.117,0.147-0.237,0.191-0.358c0.044-0.122,0.074-0.238,0.09-0.348
	c0.016-0.11,0.024-0.207,0.023-0.289c0-0.227-0.039-0.436-0.115-0.627c-0.076-0.19-0.187-0.354-0.332-0.494
	C28.429,31.302,28.253,31.194,28.048,31.117z M27.825,32.977c-0.051,0.102-0.128,0.183-0.233,0.243
	c-0.103,0.059-0.237,0.09-0.398,0.092H26.26v-1.355h0.927c0.144,0.001,0.263,0.024,0.355,0.069c0.093,0.044,0.165,0.101,0.217,0.171
	c0.052,0.069,0.089,0.143,0.111,0.22c0.02,0.078,0.031,0.15,0.03,0.218C27.9,32.761,27.875,32.875,27.825,32.977z"/>
<path fill="#FFFFFF" d="M29.11,31.03c-0.019,0.02-0.028,0.06-0.027,0.12v0.635c0,0.046,0.011,0.082,0.033,0.106
	c0.021,0.024,0.056,0.037,0.102,0.037h1.262v3.922c0,0.056,0.013,0.095,0.039,0.118c0.026,0.023,0.068,0.033,0.125,0.032h0.763
	c0.07,0.001,0.116-0.008,0.139-0.029c0.024-0.021,0.034-0.061,0.032-0.12v-3.922h1.291c0.046,0,0.082-0.013,0.106-0.037
	c0.025-0.024,0.037-0.06,0.037-0.106V31.15c0.001-0.059-0.008-0.1-0.029-0.12c-0.02-0.022-0.058-0.031-0.114-0.03h-3.652
	C29.166,30.999,29.131,31.009,29.11,31.03z"/>
<path fill="#FFFFFF" d="M18.252,33.814c0.114,0.032,0.209,0.091,0.285,0.178c0.075,0.087,0.138,0.212,0.187,0.375l0.435,1.533
	c0.015,0.045,0.037,0.073,0.063,0.084c0.027,0.012,0.054,0.017,0.08,0.015h0.828c0.039-0.001,0.068-0.009,0.084-0.026
	s0.025-0.036,0.026-0.057c0-0.023-0.004-0.042-0.011-0.06l-0.442-1.654c-0.027-0.107-0.058-0.204-0.09-0.291
	c-0.033-0.088-0.075-0.166-0.126-0.237c-0.05-0.07-0.117-0.133-0.197-0.189c-0.081-0.055-0.183-0.103-0.307-0.146v-0.036
	c0.153-0.093,0.282-0.214,0.383-0.363c0.102-0.148,0.177-0.325,0.223-0.527L20,31.142c0.007-0.017,0.011-0.037,0.011-0.058
	c-0.001-0.022-0.01-0.042-0.026-0.057C19.968,31.01,19.94,31.002,19.9,31h-0.799c-0.026-0.001-0.053,0.004-0.082,0.015
	c-0.029,0.011-0.049,0.039-0.061,0.085l-0.321,1.201c-0.038,0.146-0.089,0.263-0.152,0.348c-0.063,0.087-0.133,0.151-0.211,0.193
	c-0.076,0.041-0.154,0.069-0.233,0.082c-0.079,0.012-0.154,0.018-0.225,0.017h-0.571v-1.811c0.011-0.052,0.006-0.085-0.014-0.098
	c-0.02-0.013-0.054-0.019-0.1-0.016h-0.834c-0.043-0.003-0.075,0.003-0.096,0.016c-0.021,0.013-0.032,0.045-0.032,0.098v4.757
	c0,0.051,0.011,0.084,0.032,0.097c0.022,0.013,0.054,0.019,0.096,0.017h0.827c0.046,0.003,0.078-0.003,0.099-0.017
	c0.02-0.013,0.03-0.046,0.03-0.097l-0.007-2.118h0.585C17.997,33.765,18.138,33.78,18.252,33.814z"/>
<path fill="#FFFFFF" d="M14.463,35.969c0.022,0.017,0.059,0.025,0.112,0.024h0.792c0.045,0,0.077-0.004,0.099-0.01
	c0.023-0.007,0.036-0.02,0.043-0.038c0.006-0.019,0.009-0.046,0.008-0.081v-4.386c0.001-0.107-0.013-0.196-0.042-0.266
	c-0.03-0.071-0.077-0.124-0.144-0.159C15.263,31.018,15.172,31,15.06,31h-2.56c-0.113,0-0.202,0.017-0.265,0.049
	c-0.064,0.033-0.11,0.085-0.139,0.156c-0.029,0.071-0.046,0.162-0.052,0.273l-0.064,1.084c-0.021,0.37-0.045,0.689-0.07,0.963
	c-0.04,0.451-0.085,1.533-0.669,1.533c-0.059,0-0.098,0.009-0.117,0.032c-0.019,0.023-0.026,0.07-0.026,0.139v0.606
	c0,0.057,0.008,0.099,0.028,0.125c0.02,0.026,0.058,0.039,0.114,0.039c0.453,0,0.849-0.036,1.19-0.551
	c0.105-0.158,0.196-0.335,0.262-0.536c0.067-0.201,0.119-0.427,0.157-0.675c0.038-0.248,0.069-0.522,0.094-0.821
	c0.024-0.298,0.047-0.623,0.071-0.975l0.028-0.499h1.391v3.922C14.432,35.916,14.442,35.951,14.463,35.969z"/>
<path fill="#FFFFFF" d="M23.263,31.135c-0.045-0.056-0.102-0.093-0.171-0.111c-0.069-0.018-0.156-0.025-0.262-0.024h-0.428
	c-0.095-0.001-0.175,0.01-0.241,0.032c-0.067,0.021-0.121,0.062-0.167,0.119c-0.045,0.057-0.082,0.137-0.113,0.24l-1.484,4.465
	c-0.012,0.041-0.01,0.074,0.002,0.101c0.013,0.026,0.045,0.04,0.097,0.041h0.835c0.065,0,0.113-0.01,0.14-0.033
	c0.027-0.021,0.048-0.056,0.06-0.102l0.278-0.906h1.633l0.278,0.927c0.014,0.051,0.039,0.084,0.074,0.097
	c0.036,0.013,0.08,0.019,0.133,0.017h0.849c0.036-0.001,0.061-0.008,0.076-0.025c0.015-0.015,0.025-0.033,0.026-0.056
	c0.001-0.021-0.002-0.041-0.01-0.062l-1.483-4.465C23.35,31.277,23.309,31.192,23.263,31.135z M22.068,34.074l0.271-0.903
	l0.271-1.018h0.043l0.264,1.018l0.271,0.903H22.068z"/>
<path fill="#FFFFFF" d="M3.301,35.957c0.062,0.029,0.151,0.043,0.266,0.043h1.797c0.243-0.001,0.467-0.04,0.674-0.117
	c0.207-0.077,0.388-0.187,0.543-0.327c0.155-0.141,0.276-0.307,0.363-0.497c0.087-0.191,0.131-0.401,0.132-0.627
	c0.001-0.082-0.005-0.178-0.017-0.288c-0.012-0.109-0.037-0.225-0.076-0.346c-0.038-0.121-0.097-0.239-0.176-0.354
	c-0.08-0.115-0.185-0.22-0.319-0.314c-0.133-0.094-0.299-0.169-0.5-0.225c-0.201-0.056-0.442-0.084-0.724-0.086H4.223v-0.891h2.154
	c0.052,0.001,0.087-0.008,0.105-0.027c0.017-0.02,0.025-0.056,0.024-0.108v-0.635c0.001-0.059-0.007-0.101-0.024-0.124
	C6.464,31.01,6.429,30.999,6.377,31H3.595c-0.113,0-0.203,0.017-0.27,0.051c-0.068,0.034-0.115,0.088-0.144,0.159
	c-0.03,0.071-0.044,0.163-0.043,0.275v4.086c-0.001,0.102,0.01,0.184,0.034,0.247C3.196,35.882,3.239,35.928,3.301,35.957z
	 M4.223,33.724h1.041c0.15,0.001,0.276,0.03,0.377,0.086c0.102,0.056,0.178,0.133,0.231,0.231c0.051,0.097,0.077,0.208,0.077,0.333
	c0.001,0.069-0.01,0.143-0.032,0.22c-0.022,0.078-0.058,0.151-0.111,0.221c-0.052,0.069-0.122,0.125-0.213,0.169
	c-0.089,0.044-0.201,0.067-0.336,0.068H4.223V33.724z"/>
</svg>
