<?xml version="1.0" encoding="utf-8"?>
<!-- Generator: Adobe Illustrator 19.2.1, SVG Export Plug-In . SVG Version: 6.00 Build 0)  -->
<svg version="1.0" id="art" xmlns="http://www.w3.org/2000/svg" xmlns:xlink="http://www.w3.org/1999/xlink" x="0px" y="0px"
	 width="18px" height="18px" viewBox="0 0 18 18" enable-background="new 0 0 18 18" xml:space="preserve">
<g id="check">
</g>
<g>
	
		<radialGradient id="SVGID_1_" cx="-3.9478" cy="-2.3017" r="7.4863" gradientTransform="matrix(0.8933 0 0 0.8933 12.7725 8.6385)" gradientUnits="userSpaceOnUse">
		<stop  offset="0.1932" style="stop-color:#FFFFFF"/>
		<stop  offset="0.227" style="stop-color:#F7FCFF"/>
		<stop  offset="0.2806" style="stop-color:#E0F5FD"/>
		<stop  offset="0.3474" style="stop-color:#BAE9FB"/>
		<stop  offset="0.4248" style="stop-color:#86D9F8"/>
		<stop  offset="0.5098" style="stop-color:#44C4F4"/>
		<stop  offset="0.5899" style="stop-color:#00AFF0"/>
		<stop  offset="1" style="stop-color:#005F9B"/>
	</radialGradient>
	<path fill-rule="evenodd" clip-rule="evenodd" fill="url(#SVGID_1_)" d="M15.366,7.326l-2.749-2.749
		c-0.053-0.053-0.139-0.053-0.192,0l-1.827,1.827c-0.053,0.053-0.053,0.139,0,0.192l0.896,0.896l1.257,0.133
		c0.074,0.008,0.136,0.061,0.136,0.136v1.124l0.46,0.46c0.053,0.053,0.139,0.053,0.192,0l1.827-1.827
		C15.419,7.466,15.419,7.379,15.366,7.326L15.366,7.326z"/>
	
		<radialGradient id="SVGID_2_" cx="-3.9478" cy="-2.3017" r="7.4863" gradientTransform="matrix(0.8933 0 0 0.8933 12.7725 8.6385)" gradientUnits="userSpaceOnUse">
		<stop  offset="0.1932" style="stop-color:#FFFFFF"/>
		<stop  offset="0.227" style="stop-color:#F7FCFF"/>
		<stop  offset="0.2806" style="stop-color:#E0F5FD"/>
		<stop  offset="0.3474" style="stop-color:#BAE9FB"/>
		<stop  offset="0.4248" style="stop-color:#86D9F8"/>
		<stop  offset="0.5098" style="stop-color:#44C4F4"/>
		<stop  offset="0.5899" style="stop-color:#00AFF0"/>
		<stop  offset="1" style="stop-color:#005F9B"/>
	</radialGradient>
	<path fill-rule="evenodd" clip-rule="evenodd" fill="url(#SVGID_2_)" d="M12.886,11.65V7.762c0-0.075-0.061-0.136-0.136-0.136
		h-2.584c-0.075,0-0.136,0.061-0.136,0.136v1.214l0.814,1.035c0.046,0.059,0.053,0.139,0,0.192l-0.814,0.814v0.632
		c0,0.075,0.061,0.136,0.136,0.136h2.584C12.825,11.786,12.886,11.724,12.886,11.65L12.886,11.65z"/>
	
		<radialGradient id="SVGID_3_" cx="-3.9478" cy="-2.3017" r="7.4863" gradientTransform="matrix(0.8933 0 0 0.8933 12.7725 8.6385)" gradientUnits="userSpaceOnUse">
		<stop  offset="0.1932" style="stop-color:#FFFFFF"/>
		<stop  offset="0.227" style="stop-color:#F7FCFF"/>
		<stop  offset="0.2806" style="stop-color:#E0F5FD"/>
		<stop  offset="0.3474" style="stop-color:#BAE9FB"/>
		<stop  offset="0.4248" style="stop-color:#86D9F8"/>
		<stop  offset="0.5098" style="stop-color:#44C4F4"/>
		<stop  offset="0.5899" style="stop-color:#00AFF0"/>
		<stop  offset="1" style="stop-color:#005F9B"/>
	</radialGradient>
	<path fill-rule="evenodd" clip-rule="evenodd" fill="url(#SVGID_3_)" d="M8.095,12.952l2.749-2.749
		c0.053-0.053,0.053-0.139,0-0.192L9.016,8.184c-0.053-0.053-0.139-0.053-0.192,0L7.952,9.056L7.79,10.351
		c-0.009,0.074-0.061,0.136-0.136,0.136H6.521l-0.446,0.446c-0.053,0.053-0.053,0.139,0,0.192l1.827,1.827
		C7.956,13.005,8.042,13.005,8.095,12.952L8.095,12.952z"/>
	
		<radialGradient id="SVGID_4_" cx="-3.9478" cy="-2.3017" r="7.4863" gradientTransform="matrix(0.8933 0 0 0.8933 12.7725 8.6385)" gradientUnits="userSpaceOnUse">
		<stop  offset="0.1932" style="stop-color:#FFFFFF"/>
		<stop  offset="0.227" style="stop-color:#F7FCFF"/>
		<stop  offset="0.2806" style="stop-color:#E0F5FD"/>
		<stop  offset="0.3474" style="stop-color:#BAE9FB"/>
		<stop  offset="0.4248" style="stop-color:#86D9F8"/>
		<stop  offset="0.5098" style="stop-color:#44C4F4"/>
		<stop  offset="0.5899" style="stop-color:#00AFF0"/>
		<stop  offset="1" style="stop-color:#005F9B"/>
	</radialGradient>
	<path fill-rule="evenodd" clip-rule="evenodd" fill="url(#SVGID_4_)" d="M3.767,10.487h3.887c0.075,0,0.136-0.061,0.136-0.136
		V7.766c0-0.075-0.061-0.136-0.136-0.136H6.349L5.386,8.416c-0.058,0.047-0.139,0.053-0.192,0L4.408,7.63H3.767
		c-0.075,0-0.136,0.061-0.136,0.136v2.584C3.631,10.426,3.692,10.487,3.767,10.487L3.767,10.487z"/>
	
		<radialGradient id="SVGID_5_" cx="-3.9478" cy="-2.3017" r="7.4863" gradientTransform="matrix(0.8933 0 0 0.8933 12.7725 8.6385)" gradientUnits="userSpaceOnUse">
		<stop  offset="0.1932" style="stop-color:#FFFFFF"/>
		<stop  offset="0.227" style="stop-color:#F7FCFF"/>
		<stop  offset="0.2806" style="stop-color:#E0F5FD"/>
		<stop  offset="0.3474" style="stop-color:#BAE9FB"/>
		<stop  offset="0.4248" style="stop-color:#86D9F8"/>
		<stop  offset="0.5098" style="stop-color:#44C4F4"/>
		<stop  offset="0.5899" style="stop-color:#00AFF0"/>
		<stop  offset="1" style="stop-color:#005F9B"/>
	</radialGradient>
	<path fill-rule="evenodd" clip-rule="evenodd" fill="url(#SVGID_5_)" d="M4.923,1.34v3.887c0,0.075,0.061,0.136,0.136,0.136h2.584
		c0.075,0,0.136-0.061,0.136-0.136V3.994L6.974,2.981c-0.047-0.059-0.053-0.139,0-0.192l0.806-0.806V1.34
		c0-0.075-0.061-0.136-0.136-0.136H5.059C4.984,1.204,4.923,1.266,4.923,1.34L4.923,1.34z"/>
	
		<radialGradient id="SVGID_6_" cx="-3.9478" cy="-2.3017" r="7.4863" gradientTransform="matrix(0.8933 0 0 0.8933 12.7725 8.6385)" gradientUnits="userSpaceOnUse">
		<stop  offset="0.1932" style="stop-color:#FFFFFF"/>
		<stop  offset="0.227" style="stop-color:#F7FCFF"/>
		<stop  offset="0.2806" style="stop-color:#E0F5FD"/>
		<stop  offset="0.3474" style="stop-color:#BAE9FB"/>
		<stop  offset="0.4248" style="stop-color:#86D9F8"/>
		<stop  offset="0.5098" style="stop-color:#44C4F4"/>
		<stop  offset="0.5899" style="stop-color:#00AFF0"/>
		<stop  offset="1" style="stop-color:#005F9B"/>
	</radialGradient>
	<path fill-rule="evenodd" clip-rule="evenodd" fill="url(#SVGID_6_)" d="M9.722,0.04L6.974,2.789c-0.053,0.053-0.053,0.139,0,0.192
		l1.827,1.827c0.053,0.053,0.139,0.053,0.192,0L9.892,3.91l0.133-1.267c0.008-0.074,0.061-0.136,0.136-0.136h1.135l0.447-0.447
		c0.053-0.053,0.053-0.139,0-0.192L9.915,0.04C9.862-0.013,9.775-0.013,9.722,0.04L9.722,0.04z"/>
	
		<radialGradient id="SVGID_7_" cx="-3.9478" cy="-2.3017" r="7.4863" gradientTransform="matrix(0.8933 0 0 0.8933 12.7725 8.6385)" gradientUnits="userSpaceOnUse">
		<stop  offset="0.1932" style="stop-color:#FFFFFF"/>
		<stop  offset="0.227" style="stop-color:#F7FCFF"/>
		<stop  offset="0.2806" style="stop-color:#E0F5FD"/>
		<stop  offset="0.3474" style="stop-color:#BAE9FB"/>
		<stop  offset="0.4248" style="stop-color:#86D9F8"/>
		<stop  offset="0.5098" style="stop-color:#44C4F4"/>
		<stop  offset="0.5899" style="stop-color:#00AFF0"/>
		<stop  offset="1" style="stop-color:#005F9B"/>
	</radialGradient>
	<path fill-rule="evenodd" clip-rule="evenodd" fill="url(#SVGID_7_)" d="M14.048,2.507H10.16c-0.075,0-0.136,0.061-0.136,0.136
		v2.584c0,0.075,0.061,0.136,0.136,0.136h1.287l0.978-0.786c0.058-0.047,0.139-0.053,0.192,0l0.786,0.786h0.645
		c0.075,0,0.136-0.061,0.136-0.136V2.643C14.184,2.568,14.123,2.507,14.048,2.507L14.048,2.507z"/>
	
		<radialGradient id="SVGID_8_" cx="-3.9478" cy="-2.3017" r="7.4863" gradientTransform="matrix(0.8933 0 0 0.8933 12.7725 8.6385)" gradientUnits="userSpaceOnUse">
		<stop  offset="0.1932" style="stop-color:#FFFFFF"/>
		<stop  offset="0.227" style="stop-color:#F7FCFF"/>
		<stop  offset="0.2806" style="stop-color:#E0F5FD"/>
		<stop  offset="0.3474" style="stop-color:#BAE9FB"/>
		<stop  offset="0.4248" style="stop-color:#86D9F8"/>
		<stop  offset="0.5098" style="stop-color:#44C4F4"/>
		<stop  offset="0.5899" style="stop-color:#00AFF0"/>
		<stop  offset="1" style="stop-color:#005F9B"/>
	</radialGradient>
	<path fill-rule="evenodd" clip-rule="evenodd" fill="url(#SVGID_8_)" d="M2.445,5.668l2.749,2.749c0.053,0.053,0.139,0.053,0.192,0
		l1.827-1.827c0.053-0.053,0.053-0.139,0-0.192L6.299,5.482l-1.24-0.118C4.984,5.357,4.923,5.302,4.923,5.228V4.106L4.465,3.648
		c-0.053-0.053-0.139-0.053-0.192,0L2.445,5.475C2.392,5.528,2.392,5.615,2.445,5.668L2.445,5.668z"/>
</g>
<path fill-rule="evenodd" clip-rule="evenodd" fill="#005388" d="M12.886,7.762v1.124l0.46,0.46L12.886,7.762L12.886,7.762z
	 M12.617,4.578l0.786,0.786h0.645L12.617,4.578L12.617,4.578z M10.16,2.507h1.135l0.447-0.447L10.16,2.507L10.16,2.507z
	 M6.948,2.825l0.831-0.842V1.34L6.948,2.825L6.948,2.825z M4.923,5.228V4.106L4.465,3.648L4.923,5.228L4.923,5.228z M5.194,8.416
	L4.408,7.63H3.767L5.194,8.416L5.194,8.416z M7.654,10.487H6.521l-0.446,0.446L7.654,10.487L7.654,10.487z M10.833,10.215
	l-0.803,0.803v0.632L10.833,10.215L10.833,10.215z"/>
<path fill="#005D99" d="M1.724,17.024c0.001,0.041-0.006,0.086-0.019,0.132c-0.013,0.047-0.035,0.091-0.066,0.133
	c-0.031,0.041-0.073,0.075-0.128,0.101c-0.054,0.026-0.121,0.04-0.202,0.041H0.688v-0.796h0.625c0.09,0.001,0.165,0.018,0.226,0.051
	c0.061,0.034,0.107,0.08,0.138,0.138C1.708,16.883,1.724,16.949,1.724,17.024L1.724,17.024z M4.718,17.901v-0.364
	c0.001-0.041-0.004-0.069-0.016-0.083c-0.012-0.014-0.034-0.02-0.07-0.019h-1.13c-0.061,0.001-0.113-0.006-0.154-0.022
	c-0.041-0.015-0.072-0.041-0.093-0.079c-0.021-0.038-0.031-0.09-0.031-0.156V16.69h1.228c0.034,0,0.056-0.008,0.066-0.024
	c0.011-0.016,0.016-0.041,0.015-0.075v-0.334c0.001-0.04-0.004-0.067-0.015-0.082c-0.011-0.014-0.033-0.021-0.066-0.021H3.225
	v-0.329c-0.001-0.051,0.007-0.096,0.023-0.136c0.016-0.04,0.044-0.071,0.084-0.094c0.041-0.023,0.098-0.035,0.171-0.036H4.59
	c0.031,0.001,0.053-0.006,0.065-0.02c0.011-0.013,0.017-0.038,0.016-0.074v-0.364c0.001-0.04-0.004-0.067-0.015-0.082
	C4.645,15.007,4.623,15,4.59,15H3.361c-0.144,0.001-0.266,0.023-0.367,0.066c-0.101,0.043-0.182,0.103-0.244,0.177
	c-0.061,0.075-0.107,0.159-0.135,0.253c-0.029,0.094-0.043,0.192-0.042,0.295v1.421c-0.001,0.098,0.011,0.194,0.035,0.287
	c0.023,0.093,0.065,0.177,0.123,0.252c0.058,0.075,0.139,0.135,0.242,0.179C3.078,17.976,3.208,17.998,3.366,18h1.267
	c0.034,0,0.056-0.008,0.069-0.023C4.713,17.96,4.719,17.936,4.718,17.901L4.718,17.901z M9.594,16.404v-0.021
	c0.092-0.056,0.169-0.128,0.23-0.218c0.061-0.089,0.106-0.195,0.134-0.316l0.197-0.764c0.004-0.01,0.006-0.022,0.006-0.035
	c-0.001-0.013-0.006-0.025-0.016-0.034c-0.01-0.01-0.027-0.015-0.051-0.016H9.615C9.6,15,9.583,15.002,9.566,15.009
	c-0.017,0.006-0.029,0.024-0.036,0.051l-0.192,0.72c-0.023,0.088-0.054,0.158-0.091,0.209c-0.038,0.052-0.08,0.091-0.126,0.116
	c-0.045,0.025-0.093,0.041-0.14,0.049c-0.048,0.007-0.093,0.011-0.135,0.01H8.503v-1.087c0.006-0.031,0.004-0.051-0.008-0.059
	c-0.012-0.008-0.032-0.011-0.06-0.01H7.934c-0.026-0.002-0.045,0.002-0.058,0.01c-0.013,0.008-0.019,0.027-0.019,0.059v2.854
	c0,0.031,0.006,0.051,0.019,0.058c0.013,0.008,0.032,0.011,0.058,0.01H8.43c0.028,0.002,0.047-0.002,0.059-0.01
	c0.012-0.008,0.018-0.028,0.018-0.058L8.503,16.66h0.351c0.099-0.001,0.183,0.008,0.252,0.028c0.068,0.019,0.125,0.055,0.171,0.107
	c0.045,0.052,0.083,0.127,0.112,0.225l0.261,0.92c0.009,0.027,0.022,0.044,0.038,0.051C9.704,17.998,9.72,18,9.735,18h0.496
	c0.023-0.001,0.041-0.006,0.051-0.016c0.01-0.01,0.015-0.021,0.016-0.034c0-0.014-0.002-0.025-0.006-0.036l-0.265-0.993
	c-0.016-0.064-0.035-0.123-0.054-0.175c-0.02-0.053-0.045-0.1-0.075-0.142c-0.03-0.042-0.07-0.08-0.118-0.113
	C9.73,16.459,9.668,16.429,9.594,16.404L9.594,16.404z M11.395,16.844l0.163-0.542l0.163-0.611h0.026l0.158,0.611l0.163,0.542
	H11.395L11.395,16.844z M12.221,17.375l0.167,0.556c0.009,0.031,0.023,0.051,0.044,0.058c0.021,0.008,0.048,0.011,0.08,0.01h0.509
	c0.021-0.001,0.036-0.005,0.046-0.015c0.009-0.009,0.015-0.02,0.016-0.034c0.001-0.013-0.001-0.025-0.006-0.037l-0.89-2.679
	c-0.022-0.069-0.047-0.12-0.074-0.154c-0.027-0.034-0.061-0.056-0.103-0.066S11.917,15,11.853,15h-0.257
	c-0.057-0.001-0.105,0.006-0.145,0.019c-0.04,0.013-0.073,0.037-0.1,0.071c-0.027,0.034-0.049,0.082-0.068,0.144l-0.89,2.679
	c-0.007,0.024-0.006,0.044,0.001,0.061c0.008,0.016,0.027,0.024,0.058,0.025h0.501c0.039,0,0.068-0.006,0.084-0.02
	c0.016-0.013,0.029-0.033,0.036-0.061l0.167-0.544H12.221L12.221,17.375z M14.895,15.98c0,0.076-0.015,0.145-0.045,0.206
	c-0.031,0.061-0.077,0.11-0.14,0.146c-0.062,0.036-0.142,0.054-0.239,0.055h-0.561v-0.813h0.556
	c0.086,0.001,0.158,0.014,0.213,0.041c0.056,0.026,0.099,0.061,0.13,0.103c0.031,0.041,0.054,0.086,0.066,0.132
	C14.889,15.896,14.895,15.939,14.895,15.98L14.895,15.98z M13.911,17.91v-0.997h0.569c0.16-0.001,0.298-0.019,0.415-0.052
	c0.116-0.034,0.215-0.079,0.294-0.136c0.08-0.057,0.145-0.121,0.195-0.19c0.05-0.07,0.088-0.142,0.115-0.215
	c0.026-0.073,0.044-0.143,0.054-0.209c0.009-0.066,0.014-0.124,0.014-0.173c0-0.136-0.024-0.262-0.069-0.376
	c-0.046-0.114-0.112-0.212-0.199-0.297c-0.086-0.083-0.192-0.148-0.315-0.195c-0.123-0.046-0.263-0.069-0.418-0.07h-1.048
	c-0.068,0-0.121,0.012-0.158,0.032c-0.038,0.021-0.064,0.052-0.079,0.091c-0.014,0.039-0.021,0.085-0.021,0.138v2.649
	c0,0.033,0.008,0.057,0.024,0.071C13.299,17.994,13.324,18,13.359,18h0.449c0.029,0,0.05-0.001,0.065-0.005
	c0.015-0.004,0.025-0.013,0.03-0.026C13.908,17.956,13.911,17.936,13.911,17.91L13.911,17.91z M17.962,15.471V15.09
	c0.001-0.036-0.005-0.06-0.017-0.072C17.933,15.005,17.91,15,17.877,15h-2.191c-0.031-0.001-0.053,0.005-0.065,0.018
	c-0.011,0.012-0.017,0.036-0.016,0.072v0.381c0,0.028,0.006,0.049,0.02,0.064c0.013,0.014,0.033,0.022,0.061,0.022h0.757v2.353
	c0,0.033,0.008,0.057,0.024,0.071C16.482,17.994,16.507,18,16.541,18h0.458c0.042,0.001,0.07-0.005,0.083-0.018
	c0.014-0.013,0.021-0.037,0.019-0.072v-2.353h0.775c0.028,0,0.049-0.008,0.063-0.022C17.955,15.52,17.962,15.499,17.962,15.471
	L17.962,15.471z M0.295,18h1.078c0.146-0.001,0.28-0.024,0.404-0.071c0.124-0.046,0.233-0.112,0.326-0.196
	c0.093-0.085,0.165-0.184,0.218-0.298c0.052-0.115,0.078-0.24,0.079-0.376c0.001-0.049-0.003-0.107-0.01-0.173
	c-0.007-0.066-0.022-0.135-0.046-0.208c-0.023-0.073-0.058-0.143-0.106-0.213c-0.048-0.069-0.111-0.132-0.191-0.188
	c-0.08-0.056-0.18-0.101-0.3-0.135c-0.121-0.034-0.265-0.051-0.434-0.051H0.688v-0.535h1.292c0.031,0.001,0.052-0.005,0.063-0.016
	c0.01-0.012,0.015-0.033,0.014-0.065v-0.381c0.001-0.036-0.004-0.061-0.014-0.074C2.033,15.006,2.012,15,1.981,15H0.312
	c-0.068,0-0.122,0.01-0.162,0.031c-0.041,0.021-0.069,0.053-0.086,0.096c-0.018,0.043-0.026,0.098-0.026,0.165v2.452
	c-0.001,0.061,0.006,0.111,0.02,0.148c0.014,0.038,0.04,0.066,0.077,0.083C0.172,17.991,0.226,18,0.295,18L0.295,18z M5.38,15.287
	l-0.039,0.65c-0.013,0.222-0.027,0.414-0.042,0.578c-0.024,0.271-0.051,0.92-0.402,0.92c-0.036,0-0.059,0.006-0.07,0.019
	c-0.011,0.014-0.016,0.042-0.016,0.083v0.364c0,0.034,0.005,0.059,0.017,0.075C4.842,17.992,4.865,18,4.898,18
	c0.272,0,0.51-0.022,0.714-0.331c0.063-0.095,0.118-0.201,0.157-0.322c0.04-0.12,0.071-0.256,0.094-0.405
	c0.023-0.149,0.041-0.313,0.056-0.493c0.014-0.179,0.029-0.374,0.043-0.585l0.017-0.3h0.835v2.353c0,0.031,0.006,0.052,0.019,0.063
	c0.013,0.01,0.036,0.015,0.067,0.014h0.475c0.027,0,0.046-0.002,0.059-0.006c0.014-0.004,0.021-0.012,0.026-0.023
	c0.004-0.011,0.006-0.028,0.005-0.048v-2.632c0.001-0.064-0.008-0.118-0.025-0.16c-0.018-0.043-0.046-0.074-0.086-0.096
	C7.312,15.011,7.258,15,7.19,15H5.654c-0.068,0-0.121,0.01-0.159,0.029c-0.038,0.02-0.066,0.051-0.083,0.093
	C5.395,15.166,5.384,15.22,5.38,15.287L5.38,15.287z"/>
</svg>
