<?xml version="1.0" encoding="utf-8"?>
<!-- Generator: Adobe Illustrator 19.2.1, SVG Export Plug-In . SVG Version: 6.00 Build 0)  -->
<svg version="1.0" id="art" xmlns="http://www.w3.org/2000/svg" xmlns:xlink="http://www.w3.org/1999/xlink" x="0px" y="0px"
	 width="24px" height="24px" viewBox="0 0 24 24" enable-background="new 0 0 24 24" xml:space="preserve">
<g id="check">
</g>
<g>
	
		<radialGradient id="SVGID_1_" cx="6.5933" cy="1.0979" r="10.3657" gradientTransform="matrix(0.8933 0 0 0.8933 6.5821 8.6385)" gradientUnits="userSpaceOnUse">
		<stop  offset="0.1932" style="stop-color:#FFFFFF"/>
		<stop  offset="0.227" style="stop-color:#F7FCFF"/>
		<stop  offset="0.2806" style="stop-color:#E0F5FD"/>
		<stop  offset="0.3474" style="stop-color:#BAE9FB"/>
		<stop  offset="0.4248" style="stop-color:#86D9F8"/>
		<stop  offset="0.5098" style="stop-color:#44C4F4"/>
		<stop  offset="0.5899" style="stop-color:#00AFF0"/>
		<stop  offset="1" style="stop-color:#005F9B"/>
	</radialGradient>
	<path fill-rule="evenodd" clip-rule="evenodd" fill="url(#SVGID_1_)" d="M20.945,10.649l-3.806-3.806
		c-0.073-0.073-0.193-0.073-0.266,0l-2.53,2.53c-0.073,0.073-0.073,0.193,0,0.266l1.241,1.241l1.74,0.184
		c0.103,0.011,0.188,0.085,0.188,0.188v1.556l0.637,0.637c0.073,0.073,0.193,0.073,0.266,0l2.53-2.53
		C21.018,10.842,21.018,10.723,20.945,10.649L20.945,10.649z"/>
	
		<radialGradient id="SVGID_2_" cx="6.5933" cy="1.0979" r="10.3657" gradientTransform="matrix(0.8933 0 0 0.8933 6.5821 8.6385)" gradientUnits="userSpaceOnUse">
		<stop  offset="0.1932" style="stop-color:#FFFFFF"/>
		<stop  offset="0.227" style="stop-color:#F7FCFF"/>
		<stop  offset="0.2806" style="stop-color:#E0F5FD"/>
		<stop  offset="0.3474" style="stop-color:#BAE9FB"/>
		<stop  offset="0.4248" style="stop-color:#86D9F8"/>
		<stop  offset="0.5098" style="stop-color:#44C4F4"/>
		<stop  offset="0.5899" style="stop-color:#00AFF0"/>
		<stop  offset="1" style="stop-color:#005F9B"/>
	</radialGradient>
	<path fill-rule="evenodd" clip-rule="evenodd" fill="url(#SVGID_2_)" d="M17.512,16.635v-5.382c0-0.103-0.085-0.188-0.188-0.188
		h-3.578c-0.104,0-0.188,0.085-0.188,0.188v1.681l1.127,1.434c0.064,0.081,0.073,0.193,0,0.266l-1.127,1.127v0.875
		c0,0.104,0.085,0.188,0.188,0.188h3.578C17.427,16.824,17.512,16.739,17.512,16.635L17.512,16.635z"/>
	
		<radialGradient id="SVGID_3_" cx="6.5933" cy="1.0979" r="10.3657" gradientTransform="matrix(0.8933 0 0 0.8933 6.5821 8.6385)" gradientUnits="userSpaceOnUse">
		<stop  offset="0.1932" style="stop-color:#FFFFFF"/>
		<stop  offset="0.227" style="stop-color:#F7FCFF"/>
		<stop  offset="0.2806" style="stop-color:#E0F5FD"/>
		<stop  offset="0.3474" style="stop-color:#BAE9FB"/>
		<stop  offset="0.4248" style="stop-color:#86D9F8"/>
		<stop  offset="0.5098" style="stop-color:#44C4F4"/>
		<stop  offset="0.5899" style="stop-color:#00AFF0"/>
		<stop  offset="1" style="stop-color:#005F9B"/>
	</radialGradient>
	<path fill-rule="evenodd" clip-rule="evenodd" fill="url(#SVGID_3_)" d="M10.878,18.439l3.806-3.806
		c0.073-0.073,0.073-0.193,0-0.266l-2.53-2.53c-0.073-0.073-0.193-0.073-0.266,0l-1.207,1.207l-0.225,1.793
		c-0.013,0.103-0.085,0.188-0.188,0.188H8.699l-0.617,0.617c-0.073,0.073-0.073,0.193,0,0.266l2.53,2.53
		C10.685,18.512,10.805,18.512,10.878,18.439L10.878,18.439z"/>
	
		<radialGradient id="SVGID_4_" cx="6.5933" cy="1.0979" r="10.3657" gradientTransform="matrix(0.8933 0 0 0.8933 6.5821 8.6385)" gradientUnits="userSpaceOnUse">
		<stop  offset="0.1932" style="stop-color:#FFFFFF"/>
		<stop  offset="0.227" style="stop-color:#F7FCFF"/>
		<stop  offset="0.2806" style="stop-color:#E0F5FD"/>
		<stop  offset="0.3474" style="stop-color:#BAE9FB"/>
		<stop  offset="0.4248" style="stop-color:#86D9F8"/>
		<stop  offset="0.5098" style="stop-color:#44C4F4"/>
		<stop  offset="0.5899" style="stop-color:#00AFF0"/>
		<stop  offset="1" style="stop-color:#005F9B"/>
	</radialGradient>
	<path fill-rule="evenodd" clip-rule="evenodd" fill="url(#SVGID_4_)" d="M4.885,15.025h5.382c0.104,0,0.188-0.085,0.188-0.188
		v-3.578c0-0.104-0.085-0.188-0.188-0.188H8.46l-1.333,1.088c-0.08,0.065-0.193,0.073-0.266,0L5.773,11.07H4.885
		c-0.103,0-0.188,0.085-0.188,0.188v3.578C4.697,14.94,4.782,15.025,4.885,15.025L4.885,15.025z"/>
	
		<radialGradient id="SVGID_5_" cx="6.5933" cy="1.0979" r="10.3657" gradientTransform="matrix(0.8933 0 0 0.8933 6.5821 8.6385)" gradientUnits="userSpaceOnUse">
		<stop  offset="0.1932" style="stop-color:#FFFFFF"/>
		<stop  offset="0.227" style="stop-color:#F7FCFF"/>
		<stop  offset="0.2806" style="stop-color:#E0F5FD"/>
		<stop  offset="0.3474" style="stop-color:#BAE9FB"/>
		<stop  offset="0.4248" style="stop-color:#86D9F8"/>
		<stop  offset="0.5098" style="stop-color:#44C4F4"/>
		<stop  offset="0.5899" style="stop-color:#00AFF0"/>
		<stop  offset="1" style="stop-color:#005F9B"/>
	</radialGradient>
	<path fill-rule="evenodd" clip-rule="evenodd" fill="url(#SVGID_5_)" d="M6.486,2.361v5.382c0,0.104,0.085,0.188,0.188,0.188h3.578
		c0.104,0,0.188-0.085,0.188-0.188V6.034L9.325,4.633c-0.064-0.081-0.073-0.193,0-0.266l1.115-1.116V2.361
		c0-0.103-0.085-0.188-0.188-0.188H6.674C6.571,2.173,6.486,2.257,6.486,2.361L6.486,2.361z"/>
	
		<radialGradient id="SVGID_6_" cx="6.5933" cy="1.0979" r="10.3657" gradientTransform="matrix(0.8933 0 0 0.8933 6.5821 8.6385)" gradientUnits="userSpaceOnUse">
		<stop  offset="0.1932" style="stop-color:#FFFFFF"/>
		<stop  offset="0.227" style="stop-color:#F7FCFF"/>
		<stop  offset="0.2806" style="stop-color:#E0F5FD"/>
		<stop  offset="0.3474" style="stop-color:#BAE9FB"/>
		<stop  offset="0.4248" style="stop-color:#86D9F8"/>
		<stop  offset="0.5098" style="stop-color:#44C4F4"/>
		<stop  offset="0.5899" style="stop-color:#00AFF0"/>
		<stop  offset="1" style="stop-color:#005F9B"/>
	</radialGradient>
	<path fill-rule="evenodd" clip-rule="evenodd" fill="url(#SVGID_6_)" d="M13.131,0.561L9.325,4.367
		c-0.073,0.073-0.073,0.193,0,0.266l2.53,2.53c0.073,0.073,0.193,0.073,0.266,0l1.244-1.244l0.184-1.755
		c0.011-0.103,0.085-0.188,0.188-0.188h1.571l0.619-0.619c0.073-0.073,0.073-0.193,0-0.266l-2.53-2.53
		C13.324,0.488,13.204,0.488,13.131,0.561L13.131,0.561z"/>
	
		<radialGradient id="SVGID_7_" cx="6.5933" cy="1.0979" r="10.3657" gradientTransform="matrix(0.8933 0 0 0.8933 6.5821 8.6385)" gradientUnits="userSpaceOnUse">
		<stop  offset="0.1932" style="stop-color:#FFFFFF"/>
		<stop  offset="0.227" style="stop-color:#F7FCFF"/>
		<stop  offset="0.2806" style="stop-color:#E0F5FD"/>
		<stop  offset="0.3474" style="stop-color:#BAE9FB"/>
		<stop  offset="0.4248" style="stop-color:#86D9F8"/>
		<stop  offset="0.5098" style="stop-color:#44C4F4"/>
		<stop  offset="0.5899" style="stop-color:#00AFF0"/>
		<stop  offset="1" style="stop-color:#005F9B"/>
	</radialGradient>
	<path fill-rule="evenodd" clip-rule="evenodd" fill="url(#SVGID_7_)" d="M19.12,3.976h-5.382c-0.104,0-0.188,0.085-0.188,0.188
		v3.578c0,0.103,0.085,0.188,0.188,0.188h1.781l1.354-1.088c0.081-0.065,0.193-0.073,0.266,0l1.088,1.088h0.893
		c0.104,0,0.188-0.085,0.188-0.188V4.165C19.309,4.061,19.224,3.976,19.12,3.976L19.12,3.976z"/>
	
		<radialGradient id="SVGID_8_" cx="6.5933" cy="1.0979" r="10.3657" gradientTransform="matrix(0.8933 0 0 0.8933 6.5821 8.6385)" gradientUnits="userSpaceOnUse">
		<stop  offset="0.1932" style="stop-color:#FFFFFF"/>
		<stop  offset="0.227" style="stop-color:#F7FCFF"/>
		<stop  offset="0.2806" style="stop-color:#E0F5FD"/>
		<stop  offset="0.3474" style="stop-color:#BAE9FB"/>
		<stop  offset="0.4248" style="stop-color:#86D9F8"/>
		<stop  offset="0.5098" style="stop-color:#44C4F4"/>
		<stop  offset="0.5899" style="stop-color:#00AFF0"/>
		<stop  offset="1" style="stop-color:#005F9B"/>
	</radialGradient>
	<path fill-rule="evenodd" clip-rule="evenodd" fill="url(#SVGID_8_)" d="M3.055,8.352l3.806,3.806c0.073,0.073,0.193,0.073,0.266,0
		l2.53-2.53c0.073-0.073,0.073-0.193,0-0.266L8.391,8.095L6.674,7.932c-0.103-0.01-0.188-0.085-0.188-0.188V6.19L5.851,5.556
		c-0.073-0.073-0.193-0.073-0.266,0l-2.53,2.53C2.982,8.159,2.982,8.279,3.055,8.352L3.055,8.352z"/>
</g>
<path fill-rule="evenodd" clip-rule="evenodd" fill="#005388" d="M17.512,11.253v1.556l0.637,0.637L17.512,11.253L17.512,11.253z
	 M17.139,6.843l1.088,1.088h0.893L17.139,6.843L17.139,6.843z M13.738,3.976h1.571l0.619-0.619L13.738,3.976L13.738,3.976z
	 M9.29,4.416l1.151-1.165v-0.89L9.29,4.416L9.29,4.416z M6.486,7.743V6.19L5.852,5.556L6.486,7.743L6.486,7.743z M6.861,12.158
	L5.773,11.07H4.885L6.861,12.158L6.861,12.158z M10.268,15.025H8.699l-0.617,0.617L10.268,15.025L10.268,15.025z M14.668,14.649
	l-1.112,1.112v0.875L14.668,14.649L14.668,14.649z"/>
<path fill="#005D99" d="M4.951,23.024c0.001,0.041-0.006,0.086-0.019,0.132c-0.013,0.047-0.035,0.091-0.066,0.133
	c-0.031,0.041-0.073,0.075-0.128,0.101c-0.054,0.026-0.121,0.04-0.202,0.041H3.916v-0.796H4.54c0.09,0.001,0.165,0.018,0.226,0.051
	c0.061,0.034,0.107,0.08,0.138,0.138C4.935,22.883,4.951,22.949,4.951,23.024L4.951,23.024z M7.945,23.901v-0.364
	c0.001-0.041-0.004-0.069-0.016-0.083c-0.012-0.014-0.034-0.02-0.07-0.019H6.73c-0.061,0.001-0.113-0.006-0.154-0.022
	c-0.041-0.015-0.072-0.041-0.093-0.079c-0.021-0.038-0.031-0.09-0.031-0.156V22.69H7.68c0.034,0,0.056-0.008,0.066-0.024
	c0.011-0.016,0.016-0.041,0.015-0.075v-0.334c0.001-0.04-0.004-0.067-0.015-0.082c-0.011-0.014-0.033-0.021-0.066-0.021H6.452
	v-0.329c-0.001-0.051,0.007-0.096,0.023-0.136c0.016-0.04,0.044-0.071,0.084-0.094c0.041-0.023,0.098-0.035,0.171-0.036h1.087
	c0.031,0.001,0.053-0.006,0.065-0.02c0.011-0.013,0.017-0.038,0.016-0.074v-0.364c0.001-0.04-0.004-0.067-0.015-0.082
	C7.872,21.007,7.85,21,7.817,21H6.589c-0.144,0.001-0.266,0.023-0.367,0.066c-0.101,0.043-0.182,0.103-0.244,0.177
	c-0.061,0.075-0.107,0.159-0.135,0.253c-0.029,0.094-0.043,0.192-0.042,0.295v1.421c-0.001,0.098,0.011,0.194,0.035,0.287
	c0.023,0.093,0.065,0.177,0.123,0.252c0.058,0.075,0.139,0.135,0.242,0.179C6.305,23.976,6.435,23.998,6.593,24H7.86
	c0.034,0,0.056-0.008,0.069-0.023C7.94,23.96,7.946,23.936,7.945,23.901L7.945,23.901z M12.821,22.404v-0.021
	c0.092-0.056,0.169-0.128,0.23-0.218c0.061-0.089,0.106-0.195,0.134-0.316l0.197-0.764c0.004-0.01,0.006-0.022,0.006-0.035
	c-0.001-0.013-0.006-0.025-0.016-0.034c-0.01-0.01-0.027-0.015-0.051-0.016h-0.479c-0.016-0.001-0.032,0.002-0.049,0.009
	c-0.017,0.006-0.029,0.024-0.036,0.051l-0.192,0.72c-0.023,0.088-0.054,0.158-0.091,0.209c-0.038,0.052-0.08,0.091-0.126,0.116
	c-0.045,0.025-0.093,0.041-0.14,0.049c-0.048,0.007-0.093,0.011-0.135,0.01H11.73v-1.087c0.006-0.031,0.004-0.051-0.008-0.059
	c-0.012-0.008-0.032-0.011-0.06-0.01h-0.501c-0.026-0.002-0.045,0.002-0.058,0.01c-0.013,0.008-0.019,0.027-0.019,0.059v2.854
	c0,0.031,0.006,0.051,0.019,0.058c0.013,0.008,0.032,0.011,0.058,0.01h0.496c0.028,0.002,0.047-0.002,0.059-0.01
	c0.012-0.008,0.018-0.028,0.018-0.058L11.73,22.66h0.351c0.099-0.001,0.183,0.008,0.252,0.028c0.068,0.019,0.125,0.055,0.171,0.107
	c0.045,0.052,0.083,0.127,0.112,0.225l0.261,0.92c0.009,0.027,0.022,0.044,0.038,0.051C12.931,23.998,12.947,24,12.963,24h0.496
	c0.023-0.001,0.041-0.006,0.051-0.016c0.01-0.01,0.015-0.021,0.016-0.034c0-0.014-0.002-0.025-0.006-0.036l-0.265-0.993
	c-0.016-0.064-0.035-0.123-0.054-0.175c-0.02-0.053-0.045-0.1-0.075-0.142c-0.03-0.042-0.07-0.08-0.118-0.113
	C12.957,22.459,12.896,22.429,12.821,22.404L12.821,22.404z M14.622,22.844l0.163-0.542l0.163-0.611h0.026l0.158,0.611l0.163,0.542
	H14.622L14.622,22.844z M15.448,23.375l0.167,0.556c0.009,0.031,0.023,0.051,0.044,0.058c0.021,0.008,0.048,0.011,0.08,0.01h0.509
	c0.021-0.001,0.036-0.005,0.046-0.015c0.009-0.009,0.015-0.02,0.016-0.034c0.001-0.013-0.001-0.025-0.006-0.037l-0.89-2.679
	c-0.022-0.069-0.047-0.12-0.074-0.154c-0.027-0.034-0.061-0.056-0.103-0.066C15.196,21.004,15.144,21,15.08,21h-0.257
	c-0.057-0.001-0.105,0.006-0.145,0.019c-0.04,0.013-0.073,0.037-0.1,0.071c-0.027,0.034-0.049,0.082-0.068,0.144l-0.89,2.679
	c-0.007,0.024-0.006,0.044,0.001,0.061C13.63,23.99,13.65,23.999,13.681,24h0.501c0.039,0,0.068-0.006,0.084-0.02
	c0.016-0.013,0.029-0.033,0.036-0.061l0.167-0.544H15.448L15.448,23.375z M18.122,21.98c0,0.076-0.015,0.145-0.045,0.206
	c-0.031,0.061-0.077,0.11-0.14,0.146c-0.062,0.036-0.142,0.054-0.239,0.055h-0.561v-0.813h0.556
	c0.086,0.001,0.158,0.014,0.213,0.041c0.056,0.026,0.099,0.061,0.13,0.103c0.031,0.041,0.054,0.086,0.066,0.132
	C18.116,21.896,18.123,21.939,18.122,21.98L18.122,21.98z M17.138,23.91v-0.997h0.569c0.16-0.001,0.298-0.019,0.415-0.052
	c0.116-0.034,0.215-0.079,0.294-0.136c0.08-0.057,0.145-0.121,0.195-0.19c0.05-0.07,0.088-0.142,0.115-0.215
	c0.026-0.073,0.044-0.143,0.054-0.209c0.009-0.066,0.014-0.124,0.014-0.173c0-0.136-0.024-0.262-0.069-0.376
	c-0.046-0.114-0.112-0.212-0.199-0.297c-0.086-0.083-0.192-0.148-0.315-0.195c-0.123-0.046-0.263-0.069-0.418-0.07h-1.048
	c-0.068,0-0.121,0.012-0.158,0.032c-0.038,0.021-0.064,0.052-0.079,0.091c-0.014,0.039-0.021,0.085-0.021,0.138v2.649
	c0,0.033,0.008,0.057,0.024,0.071C16.527,23.994,16.552,24,16.586,24h0.449c0.029,0,0.05-0.001,0.065-0.005
	c0.015-0.004,0.025-0.013,0.03-0.026C17.136,23.956,17.138,23.936,17.138,23.91L17.138,23.91z M21.189,21.471V21.09
	c0.001-0.036-0.005-0.06-0.017-0.072C21.16,21.005,21.137,21,21.104,21h-2.191c-0.031-0.001-0.053,0.005-0.065,0.018
	c-0.011,0.012-0.017,0.036-0.016,0.072v0.381c0,0.028,0.006,0.049,0.02,0.064c0.013,0.014,0.033,0.022,0.061,0.022h0.757v2.353
	c0,0.033,0.008,0.057,0.024,0.071C19.709,23.994,19.734,24,19.769,24h0.458c0.042,0.001,0.07-0.005,0.083-0.018
	c0.014-0.013,0.021-0.037,0.019-0.072v-2.353h0.775c0.028,0,0.049-0.008,0.063-0.022C21.182,21.52,21.189,21.499,21.189,21.471
	L21.189,21.471z M3.522,24H4.6c0.146-0.001,0.28-0.024,0.404-0.071c0.124-0.046,0.233-0.112,0.326-0.196
	c0.093-0.085,0.165-0.184,0.218-0.298c0.052-0.115,0.078-0.24,0.079-0.376c0.001-0.049-0.003-0.107-0.01-0.173
	c-0.007-0.066-0.022-0.135-0.046-0.208c-0.023-0.073-0.058-0.143-0.106-0.213c-0.048-0.069-0.111-0.132-0.191-0.188
	c-0.08-0.056-0.18-0.101-0.3-0.135c-0.121-0.034-0.265-0.051-0.434-0.051H3.916v-0.535h1.292c0.031,0.001,0.052-0.005,0.063-0.016
	c0.01-0.012,0.015-0.033,0.014-0.065v-0.381c0.001-0.036-0.004-0.061-0.014-0.074C5.26,21.006,5.239,21,5.208,21H3.539
	c-0.068,0-0.122,0.01-0.162,0.031c-0.041,0.021-0.069,0.053-0.086,0.096c-0.018,0.043-0.026,0.098-0.026,0.165v2.452
	c-0.001,0.061,0.006,0.111,0.02,0.148c0.014,0.038,0.04,0.066,0.077,0.083C3.399,23.991,3.453,24,3.522,24L3.522,24z M8.608,21.287
	l-0.039,0.65c-0.013,0.222-0.027,0.414-0.042,0.578c-0.024,0.271-0.051,0.92-0.402,0.92c-0.036,0-0.059,0.006-0.07,0.019
	c-0.011,0.014-0.016,0.042-0.016,0.083v0.364c0,0.034,0.005,0.059,0.017,0.075C8.069,23.992,8.092,24,8.125,24
	c0.272,0,0.51-0.022,0.714-0.331c0.063-0.095,0.118-0.201,0.157-0.322c0.04-0.12,0.071-0.256,0.094-0.405
	c0.023-0.149,0.041-0.313,0.056-0.493c0.014-0.179,0.029-0.374,0.043-0.585l0.017-0.3h0.835v2.353c0,0.031,0.006,0.052,0.019,0.063
	c0.013,0.01,0.036,0.015,0.067,0.014h0.475c0.027,0,0.046-0.002,0.059-0.006c0.014-0.004,0.021-0.012,0.026-0.023
	c0.004-0.011,0.006-0.028,0.005-0.048v-2.632c0.001-0.064-0.008-0.118-0.025-0.16c-0.018-0.043-0.046-0.074-0.086-0.096
	C10.54,21.011,10.485,21,10.418,21H8.881c-0.068,0-0.121,0.01-0.159,0.029c-0.038,0.02-0.066,0.051-0.083,0.093
	C8.622,21.166,8.611,21.22,8.608,21.287L8.608,21.287z"/>
</svg>
