<?xml version="1.0" encoding="utf-8"?>
<!-- Generator: Adobe Illustrator 19.2.1, SVG Export Plug-In . SVG Version: 6.00 Build 0)  -->
<svg version="1.0" id="art" xmlns="http://www.w3.org/2000/svg" xmlns:xlink="http://www.w3.org/1999/xlink" x="0px" y="0px"
	 width="18px" height="18px" viewBox="0 0 18 18" enable-background="new 0 0 18 18" xml:space="preserve">
<g id="check">
</g>
<path d="M5.768,5.088L4.467,8.38L3.94,5.581C3.878,5.269,3.634,5.088,3.363,5.088H1.234l-0.029,0.14
	C1.641,5.324,2.138,5.477,2.439,5.64c0.184,0.1,0.237,0.188,0.297,0.425l0.998,3.859h1.323l2.027-4.836H5.768z"/>
<path d="M12.265,8.345c0.005-1.276-1.764-1.347-1.753-1.917c0.004-0.173,0.169-0.358,0.531-0.405C11.221,6,11.716,5.982,12.276,6.24
	l0.219-1.026C12.194,5.105,11.807,5,11.325,5c-1.237,0-2.107,0.657-2.114,1.598c-0.008,0.696,0.621,1.084,1.095,1.316
	c0.488,0.237,0.651,0.389,0.649,0.601c-0.003,0.324-0.389,0.468-0.748,0.473c-0.629,0.01-0.994-0.17-1.285-0.306l-0.227,1.06
	C8.988,9.878,9.527,9.994,10.086,10C11.401,10,12.261,9.351,12.265,8.345z"/>
<polygon points="8.871,5.088 7.62,5.088 6.585,9.924 7.836,9.924 "/>
<path d="M14.609,5.088c-0.241,0-0.443,0.14-0.533,0.354l-1.877,4.481h1.314l0.261-0.722h1.605l0.152,0.722h1.157l-1.011-4.836
	H14.609z M14.134,8.211l0.659-1.816l0.378,1.816H14.134z"/>
<polygon points="7.244,12.493 7.968,12.493 7.968,12.293 7.244,12.293 7.244,11.702 8.012,11.702 8.012,11.5 7,11.5 7,13.369 
	8.054,13.369 8.054,13.167 7.244,13.167 "/>
<rect x="8.428" y="11.4" width="0.244" height="1.969"/>
<path d="M9.684,11.999c-0.391,0-0.63,0.316-0.63,0.721c0,0.405,0.247,0.68,0.66,0.68c0.214,0,0.363-0.047,0.45-0.086l-0.044-0.175
	c-0.089,0.039-0.197,0.069-0.372,0.069c-0.247,0-0.455-0.136-0.46-0.466h0.943c0.006-0.028,0.008-0.064,0.008-0.114
	C10.239,12.382,10.125,11.999,9.684,11.999z M9.29,12.568c0.019-0.169,0.125-0.394,0.375-0.394c0.275,0,0.341,0.241,0.338,0.394
	H9.29z"/>
<path d="M11.234,12.193c0.133,0,0.225,0.033,0.283,0.064l0.055-0.186c-0.067-0.036-0.194-0.072-0.338-0.072
	c-0.438,0-0.721,0.302-0.721,0.716c0,0.411,0.263,0.685,0.668,0.685c0.18,0,0.322-0.047,0.386-0.078l-0.042-0.183
	c-0.069,0.031-0.161,0.064-0.299,0.064c-0.266,0-0.466-0.191-0.466-0.502C10.76,12.423,10.926,12.193,11.234,12.193z"/>
<path d="M12.252,11.705l-0.239,0.072v0.25h-0.208v0.186h0.208v0.733c0,0.158,0.028,0.277,0.094,0.352
	c0.058,0.064,0.15,0.102,0.263,0.102c0.094,0,0.169-0.017,0.216-0.033l-0.011-0.186c-0.036,0.011-0.075,0.017-0.142,0.017
	c-0.136,0-0.183-0.094-0.183-0.261v-0.724h0.349v-0.186h-0.349V11.705z"/>
<path d="M13.164,12.293h-0.008l-0.011-0.266h-0.214c0.008,0.125,0.011,0.261,0.011,0.419v0.924h0.244v-0.716
	c0-0.039,0.003-0.081,0.008-0.114c0.033-0.183,0.155-0.311,0.327-0.311c0.034,0,0.058,0,0.083,0.006v-0.23
	c-0.022-0.003-0.042-0.005-0.067-0.005C13.375,11.999,13.225,12.113,13.164,12.293z"/>
<path d="M14.459,11.999c-0.369,0-0.666,0.263-0.666,0.71c0,0.424,0.283,0.691,0.643,0.691c0.322,0,0.669-0.216,0.669-0.713
	C15.106,12.279,14.845,11.999,14.459,11.999z M14.448,13.217c-0.239,0-0.405-0.222-0.405-0.516c0-0.253,0.125-0.519,0.41-0.519
	c0.289,0,0.402,0.286,0.402,0.513C14.856,12.998,14.681,13.217,14.448,13.217z"/>
<path d="M16.148,11.999c-0.222,0-0.377,0.125-0.444,0.25h-0.005l-0.014-0.222h-0.216c0.008,0.111,0.011,0.222,0.011,0.363v0.979
	h0.244v-0.807c0-0.042,0.005-0.083,0.017-0.114c0.044-0.136,0.169-0.25,0.327-0.25c0.23,0,0.311,0.18,0.311,0.397v0.774h0.244V12.57
	C16.622,12.11,16.334,11.999,16.148,11.999z"/>
</svg>
