<?xml version="1.0" encoding="utf-8"?>
<!-- Generator: Adobe Illustrator 19.2.1, SVG Export Plug-In . SVG Version: 6.00 Build 0)  -->
<svg version="1.0" id="art" xmlns="http://www.w3.org/2000/svg" xmlns:xlink="http://www.w3.org/1999/xlink" x="0px" y="0px"
	 width="30px" height="30px" viewBox="0 0 30 30" enable-background="new 0 0 30 30" xml:space="preserve">
<g id="check">
</g>
<path d="M17.424,11.285c0.007-0.277,0.271-0.573,0.849-0.648c0.286-0.037,1.078-0.067,1.974,0.346l0.351-1.642
	C20.116,9.168,19.497,9,18.726,9c-1.979,0-3.371,1.051-3.382,2.557c-0.013,1.114,0.994,1.735,1.752,2.106
	c0.78,0.379,1.042,0.623,1.038,0.961c-0.006,0.519-0.623,0.749-1.197,0.758c-1.007,0.016-1.59-0.272-2.056-0.489l-0.363,1.696
	c0.468,0.215,1.331,0.401,2.225,0.411c2.104,0,3.48-1.039,3.486-2.648C20.237,12.311,17.406,12.197,17.424,11.285z"/>
<polygon points="14.799,9.141 12.797,9.141 11.142,16.878 13.143,16.878 "/>
<path d="M9.835,9.141l-2.082,5.266L6.909,9.93C6.81,9.43,6.42,9.141,5.986,9.141H2.58L2.533,9.366
	c0.699,0.152,1.493,0.397,1.975,0.658c0.294,0.16,0.379,0.3,0.475,0.68l1.596,6.175h2.116l3.243-7.737H9.835z"/>
<path d="M23.98,9.141c-0.385,0-0.709,0.224-0.852,0.567l-3.004,7.17h2.102l0.417-1.156h2.568l0.243,1.156h1.851l-1.617-7.737H23.98z
	 M23.22,14.137l1.054-2.906l0.606,2.906H23.22z"/>
<polygon points="12.933,19.639 14.019,19.639 14.019,19.34 12.933,19.34 12.933,18.454 14.085,18.454 14.085,18.15 12.567,18.15 
	12.567,20.954 14.148,20.954 14.148,20.65 12.933,20.65 "/>
<rect x="14.709" y="18" width="0.366" height="2.954"/>
<path d="M16.593,18.899c-0.587,0-0.944,0.474-0.944,1.082S16.019,21,16.639,21c0.321,0,0.545-0.071,0.674-0.129l-0.067-0.262
	c-0.133,0.058-0.296,0.104-0.558,0.104c-0.37,0-0.682-0.204-0.69-0.699h1.415c0.008-0.042,0.013-0.096,0.013-0.17
	C17.425,19.473,17.255,18.899,16.593,18.899z M16.002,19.752c0.029-0.254,0.187-0.591,0.562-0.591c0.412,0,0.512,0.362,0.508,0.591
	H16.002z"/>
<path d="M18.918,19.19c0.2,0,0.337,0.05,0.425,0.096l0.083-0.279c-0.1-0.054-0.291-0.108-0.508-0.108
	c-0.658,0-1.082,0.453-1.082,1.073c0,0.616,0.395,1.028,1.003,1.028c0.27,0,0.483-0.071,0.578-0.117l-0.063-0.275
	c-0.104,0.046-0.241,0.096-0.449,0.096c-0.399,0-0.699-0.287-0.699-0.753C18.207,19.535,18.456,19.19,18.918,19.19z"/>
<path d="M20.445,18.458l-0.358,0.108v0.375h-0.312v0.279h0.312v1.099c0,0.237,0.042,0.416,0.142,0.528
	C20.315,20.942,20.453,21,20.623,21c0.141,0,0.254-0.025,0.325-0.05l-0.017-0.279c-0.054,0.017-0.113,0.025-0.212,0.025
	c-0.204,0-0.275-0.141-0.275-0.391v-1.086h0.524V18.94h-0.524V18.458z"/>
<path d="M21.813,19.34H21.8l-0.017-0.399h-0.32c0.012,0.187,0.017,0.391,0.017,0.628v1.386h0.366v-1.073
	c0-0.058,0.004-0.121,0.012-0.171c0.05-0.275,0.233-0.466,0.491-0.466c0.05,0,0.087,0,0.125,0.008v-0.346
	c-0.033-0.004-0.063-0.008-0.1-0.008C22.129,18.899,21.904,19.069,21.813,19.34z"/>
<path d="M23.755,18.899c-0.553,0-0.998,0.395-0.998,1.065c0,0.636,0.424,1.036,0.965,1.036c0.483,0,1.003-0.325,1.003-1.069
	C24.725,19.319,24.334,18.899,23.755,18.899z M23.739,20.725c-0.358,0-0.607-0.333-0.607-0.774c0-0.379,0.187-0.778,0.616-0.778
	c0.433,0,0.603,0.429,0.603,0.77C24.35,20.396,24.088,20.725,23.739,20.725z"/>
<path d="M26.289,18.899c-0.333,0-0.566,0.187-0.666,0.374h-0.008l-0.021-0.333h-0.324c0.012,0.166,0.017,0.333,0.017,0.545v1.469
	h0.366v-1.211c0-0.063,0.008-0.125,0.025-0.171c0.066-0.204,0.254-0.375,0.491-0.375c0.345,0,0.466,0.271,0.466,0.595v1.161H27
	v-1.198C27,19.065,26.567,18.899,26.289,18.899z"/>
</svg>
