<?xml version="1.0" encoding="utf-8"?>
<!-- Generator: Adobe Illustrator 19.2.1, SVG Export Plug-In . SVG Version: 6.00 Build 0)  -->
<svg version="1.0" id="art" xmlns="http://www.w3.org/2000/svg" xmlns:xlink="http://www.w3.org/1999/xlink" x="0px" y="0px"
	 width="36px" height="36px" viewBox="0 0 36 36" enable-background="new 0 0 36 36" xml:space="preserve">
<g id="check">
</g>
<polygon fill="#FFFFFF" points="32.606,23.92 32.599,24 32.692,24 32.698,23.933 32.702,23.917 32.606,23.917 "/>
<polygon fill="#FFFFFF" points="18.608,20.824 18.685,20.853 18.761,20.875 18.838,20.898 18.921,20.92 19.004,20.936 
	19.093,20.952 19.189,20.965 19.291,20.978 19.406,20.987 19.527,20.994 19.664,21 19.814,21.003 19.977,21.006 20.156,21.009 
	20.354,21.009 20.497,21.006 20.644,20.997 20.797,20.981 20.954,20.955 21.11,20.92 21.266,20.872 21.42,20.815 21.566,20.745 
	21.707,20.658 21.838,20.56 21.956,20.445 22.064,20.311 22.157,20.157 22.23,19.985 22.288,19.794 22.323,19.58 22.339,19.292 
	22.323,19.05 22.275,18.846 22.202,18.673 22.106,18.533 21.991,18.415 21.86,18.322 21.723,18.246 21.576,18.182 21.423,18.128 
	21.273,18.08 21.129,18.032 20.992,17.984 20.864,17.927 20.756,17.86 20.663,17.777 20.619,17.716 20.583,17.655 20.561,17.595 
	20.548,17.534 20.548,17.477 20.558,17.422 20.577,17.368 20.606,17.317 20.644,17.272 20.692,17.228 20.749,17.189 20.813,17.154 
	20.883,17.125 20.963,17.1 21.049,17.081 21.142,17.068 21.27,17.058 21.388,17.052 21.493,17.049 21.589,17.049 21.675,17.052 
	21.755,17.058 21.825,17.065 21.892,17.071 21.956,17.081 22.016,17.09 22.074,17.1 22.131,17.11 22.189,17.116 22.246,17.125 
	22.31,17.132 22.374,17.135 22.604,16.101 22.569,16.098 22.53,16.091 22.489,16.085 22.444,16.079 22.393,16.069 22.332,16.063 
	22.269,16.053 22.195,16.044 22.115,16.037 22.023,16.028 21.921,16.021 21.809,16.015 21.681,16.008 21.544,16.005 21.391,16.002 
	21.222,16.002 21.085,16.002 20.954,16.008 20.826,16.015 20.705,16.024 20.59,16.037 20.481,16.053 20.376,16.072 20.274,16.095 
	20.178,16.12 20.089,16.146 20.003,16.178 19.923,16.21 19.846,16.248 19.773,16.286 19.706,16.328 19.642,16.372 19.581,16.42 
	19.527,16.471 19.476,16.526 19.428,16.583 19.383,16.644 19.342,16.704 19.307,16.771 19.272,16.838 19.243,16.912 19.214,16.985 
	19.192,17.065 19.173,17.145 19.154,17.228 19.141,17.314 19.128,17.403 19.119,17.496 19.109,17.646 19.112,17.786 19.128,17.914 
	19.154,18.032 19.192,18.137 19.237,18.236 19.291,18.326 19.352,18.408 19.419,18.482 19.492,18.552 19.569,18.613 19.652,18.667 
	19.738,18.718 19.827,18.766 19.916,18.807 20.006,18.846 20.098,18.884 20.188,18.919 20.277,18.954 20.36,18.986 20.443,19.018 
	20.523,19.053 20.596,19.088 20.663,19.123 20.724,19.162 20.778,19.203 20.823,19.248 20.858,19.299 20.883,19.35 20.899,19.411 
	20.903,19.474 20.893,19.548 20.874,19.618 20.845,19.688 20.81,19.758 20.762,19.825 20.698,19.883 20.619,19.934 20.513,19.969 
	20.386,19.991 20.248,19.998 20.114,19.998 19.98,19.995 19.849,19.988 19.719,19.975 19.594,19.963 19.473,19.947 19.358,19.931 
	19.249,19.912 19.147,19.893 19.052,19.87 18.965,19.854 18.892,19.835 18.825,19.819 18.771,19.803 18.726,19.794 18.528,20.796 
	"/>
<polygon fill="#FFFFFF" points="22.556,20.106 22.546,20.212 22.543,20.314 22.546,20.406 22.559,20.496 22.581,20.576 
	22.616,20.649 22.664,20.716 22.725,20.776 22.798,20.831 22.888,20.879 22.993,20.917 23.118,20.952 23.261,20.978 23.424,20.997 
	23.606,21.009 23.95,21.009 24.027,21 24.101,20.99 24.164,20.981 24.225,20.971 24.282,20.962 24.337,20.952 24.385,20.943 
	24.429,20.93 24.474,20.917 24.512,20.904 24.551,20.891 24.586,20.879 24.621,20.863 24.656,20.847 24.691,20.831 24.723,20.812 
	24.854,19.94 24.844,19.944 24.819,19.956 24.777,19.972 24.723,19.988 24.653,20.004 24.57,20.017 24.48,20.023 24.378,20.023 
	24.324,20.023 24.27,20.02 24.219,20.017 24.168,20.007 24.123,20.001 24.078,19.988 24.04,19.972 24.002,19.953 23.97,19.934 
	23.941,19.908 23.919,19.877 23.899,19.845 23.887,19.806 23.88,19.765 23.88,19.717 23.887,19.663 24.311,17.119 25.119,17.135 
	25.297,16.117 24.509,16.117 24.707,15 23.424,15 22.572,19.991 "/>
<path fill="#FFFFFF" d="M9.991,18.753l-0.083,0.134l-0.073,0.144l-0.061,0.153l-0.041,0.163l-0.029,0.169l-0.013,0.179l0.003,0.099
	l0.006,0.102l0.013,0.105l0.019,0.102l0.029,0.105l0.035,0.102l0.045,0.099l0.054,0.096l0.064,0.096l0.077,0.086l0.086,0.083
	l0.102,0.073l0.115,0.067l0.131,0.061l0.144,0.051l0.163,0.038l0.125,0.019l0.128,0.01l0.131-0.003l0.134-0.01l0.134-0.019
	l0.134-0.026l0.134-0.035l0.131-0.042l0.124-0.048l0.121-0.051l0.115-0.057l0.105-0.061l0.099-0.064l0.086-0.067l0.077-0.07
	l0.061-0.07l-0.013,0.022l-0.013,0.038l-0.01,0.057l-0.013,0.067l-0.013,0.08l-0.013,0.086l-0.013,0.096l-0.013,0.096h1.152
	l0.182-1.018l0.475-2.397l0.026-0.188l-0.003-0.172l-0.029-0.163l-0.051-0.15l-0.07-0.137l-0.089-0.124l-0.105-0.112l-0.118-0.102
	l-0.128-0.089l-0.134-0.077l-0.144-0.067l-0.144-0.054l-0.144-0.041l-0.144-0.035l-0.137-0.019L12.78,16.05l-0.16-0.003
	l-0.153-0.003h-0.147h-0.147h-0.141l-0.134,0.003l-0.131,0.006l-0.128,0.006l-0.125,0.013l-0.121,0.016l-0.115,0.019l-0.112,0.022
	l-0.109,0.029l-0.102,0.035l-0.102,0.042L10.76,16.28l-0.329,1.085l0.048-0.029l0.067-0.026l0.083-0.026l0.099-0.025l0.112-0.026
	l0.118-0.022l0.131-0.019l0.137-0.022l0.144-0.016l0.147-0.016l0.147-0.013l0.147-0.01l0.147-0.01l0.144-0.003l0.137-0.003
	l0.131,0.003l0.054,0.006l0.054,0.01l0.054,0.013l0.051,0.016l0.048,0.022l0.048,0.026l0.041,0.026l0.042,0.032l0.038,0.038
	l0.032,0.038l0.032,0.041l0.026,0.045l0.022,0.048l0.016,0.051l0.01,0.054l0.006,0.057v0.08l-0.016,0.089l-0.022,0.077l-0.01,0.032
	h-0.003h-0.013H12.86l-0.026-0.003h-0.032l-0.035-0.003h-0.042l-0.045-0.003H12.63h-0.051l-0.051-0.003h-0.054l-0.057-0.003h-0.054
	h-0.054h-0.054h-0.051l-0.061,0.003l-0.067,0.003l-0.07,0.006l-0.077,0.006l-0.08,0.006l-0.077,0.01l-0.077,0.006l-0.077,0.006
	l-0.07,0.01l-0.064,0.006l-0.054,0.006l-0.048,0.006l-0.035,0.003l-0.022,0.003h-0.006L11.162,18l-0.153,0.038l-0.15,0.051
	l-0.147,0.064l-0.14,0.073l-0.134,0.086l-0.125,0.093l-0.118,0.105l-0.105,0.118L9.991,18.753z M11.121,19.465l0.016-0.077
	l0.025-0.073l0.032-0.067l0.045-0.061l0.048-0.057l0.054-0.051l0.057-0.048l0.061-0.045l0.061-0.035l0.061-0.035l0.061-0.029
	l0.054-0.022l0.051-0.022l0.048-0.016l0.038-0.013l0.029-0.006l0.051-0.016l0.057-0.016l0.067-0.013l0.07-0.013l0.073-0.013
	l0.073-0.01l0.077-0.01l0.073-0.006h0.07h0.067l0.057,0.003l0.054,0.006l0.042,0.01l0.032,0.016l0.019,0.019l0.003,0.026
	l-0.013,0.061l-0.013,0.067l-0.013,0.07l-0.013,0.077l-0.016,0.08l-0.016,0.076l-0.016,0.074l-0.016,0.07l-0.016,0.048l-0.019,0.051
	l-0.026,0.051l-0.032,0.054l-0.038,0.054l-0.045,0.051l-0.051,0.054l-0.061,0.048l-0.067,0.048l-0.077,0.045l-0.086,0.038
	l-0.096,0.032l-0.105,0.029l-0.118,0.022l-0.124,0.013l-0.14,0.003l-0.077-0.003l-0.08-0.016l-0.073-0.032l-0.07-0.048l-0.057-0.07
	l-0.038-0.096l-0.022-0.121L11.121,19.465z"/>
<polygon fill="#FFFFFF" points="5.012,16.51 5.028,16.51 5.041,16.51 5.054,16.51 5.057,16.51 5.07,16.73 5.098,17.253 5.14,17.978 
	5.188,18.798 5.236,19.612 5.277,20.32 5.306,20.821 5.319,21.009 6.716,21.009 8.574,16.51 8.622,16.51 7.834,21.009 9.081,21.009 
	10.135,15 7.881,15 6.404,18.578 6.19,15 4.02,15 2.97,21.009 4.218,21.009 5.006,16.51 "/>
<polygon fill="#FFFFFF" points="26.366,21.009 26.81,18.415 26.829,18.313 26.852,18.214 26.877,18.115 26.909,18.022 26.944,17.93 
	26.989,17.844 27.043,17.761 27.104,17.681 27.177,17.611 27.26,17.547 27.359,17.489 27.467,17.438 27.595,17.397 27.739,17.365 
	27.898,17.346 28.077,17.333 28.093,17.333 28.112,17.336 28.138,17.339 28.163,17.339 28.186,17.343 28.205,17.346 28.217,17.349 
	28.224,17.349 28.227,17.33 28.24,17.276 28.256,17.193 28.281,17.087 28.313,16.969 28.348,16.841 28.39,16.714 28.438,16.593 
	28.473,16.503 28.514,16.417 28.556,16.331 28.6,16.251 28.639,16.184 28.671,16.13 28.693,16.095 28.699,16.082 28.693,16.082 
	28.677,16.076 28.655,16.072 28.623,16.066 28.591,16.06 28.553,16.056 28.518,16.05 28.486,16.05 28.345,16.06 28.217,16.076 
	28.099,16.101 27.991,16.13 27.889,16.168 27.796,16.21 27.707,16.261 27.627,16.315 27.547,16.375 27.474,16.443 27.407,16.513 
	27.337,16.589 27.27,16.669 27.206,16.755 27.139,16.845 27.072,16.937 27.222,16.117 25.923,16.101 25.068,21.009 "/>
<path fill="#FFFFFF" d="M28.604,16.982l-0.07,0.096l-0.067,0.105l-0.064,0.105L28.345,17.4l-0.051,0.118l-0.048,0.121l-0.042,0.124
	l-0.038,0.131l-0.032,0.134l-0.029,0.137l-0.022,0.144l-0.016,0.147l-0.01,0.153l-0.003,0.15l0.003,0.147l0.01,0.14l0.016,0.137
	l0.022,0.131l0.029,0.128l0.035,0.124l0.038,0.118l0.045,0.112l0.048,0.108l0.057,0.105l0.057,0.099l0.067,0.096l0.067,0.089
	l0.077,0.086l0.077,0.08l0.083,0.077l0.089,0.07l0.089,0.067l0.096,0.061l0.099,0.057l0.102,0.051l0.105,0.048l0.112,0.042
	l0.112,0.038l0.115,0.032l0.121,0.025l0.121,0.022l0.124,0.019l0.124,0.013l0.131,0.006l0.131,0.003l0.131-0.003l0.131-0.006
	l0.128-0.013l0.128-0.016l0.121-0.022l0.121-0.026l0.121-0.032l0.115-0.038l0.115-0.041l0.108-0.048l0.108-0.051l0.105-0.057
	l0.099-0.061l0.099-0.067l0.093-0.073l0.089-0.077l0.086-0.083l0.083-0.086l0.08-0.092l0.073-0.099l0.067-0.102l0.067-0.109
	l0.057-0.115l0.057-0.118l0.048-0.125l0.045-0.131l0.042-0.134l0.032-0.14l0.029-0.147l0.022-0.15l0.019-0.156l0.01-0.163
	l0.003-0.134l-0.003-0.134l-0.006-0.131l-0.013-0.124l-0.019-0.125l-0.026-0.121l-0.029-0.118l-0.035-0.112L32.922,17.4
	l-0.048-0.105l-0.048-0.105l-0.058-0.099l-0.061-0.096l-0.064-0.089l-0.07-0.089l-0.077-0.083l-0.08-0.08l-0.083-0.073l-0.089-0.07
	l-0.096-0.067l-0.096-0.061l-0.105-0.054l-0.105-0.051l-0.112-0.048l-0.118-0.041l-0.118-0.035l-0.124-0.032l-0.128-0.026
	l-0.134-0.019l-0.137-0.013l-0.141-0.01l-0.144-0.003l-0.137,0.003l-0.137,0.006l-0.134,0.016l-0.131,0.016l-0.128,0.026
	l-0.125,0.029l-0.121,0.035l-0.118,0.038l-0.112,0.045l-0.112,0.048l-0.109,0.057l-0.105,0.057l-0.099,0.064l-0.096,0.07
	l-0.093,0.073l-0.089,0.08L28.76,16.8l-0.08,0.086L28.604,16.982z M29.641,18.74l0.01-0.166l0.019-0.179l0.019-0.105l0.022-0.109
	l0.032-0.108l0.038-0.109l0.042-0.108l0.051-0.102l0.057-0.102l0.067-0.096l0.07-0.089l0.08-0.08l0.089-0.07l0.096-0.064
	l0.105-0.048l0.112-0.038l0.121-0.022l0.131-0.01h0.105l0.096,0.016l0.089,0.026l0.083,0.041l0.073,0.051l0.067,0.064l0.057,0.07
	l0.051,0.083l0.041,0.093l0.035,0.099l0.025,0.109l0.016,0.112l0.01,0.121v0.128l-0.01,0.131l-0.016,0.137l-0.029,0.176
	l-0.032,0.163l-0.041,0.15l-0.048,0.137l-0.051,0.124l-0.061,0.115l-0.064,0.102l-0.067,0.089l-0.077,0.08l-0.08,0.067l-0.086,0.057
	l-0.089,0.045l-0.096,0.035l-0.099,0.022l-0.105,0.013l-0.109,0.003l-0.099-0.007l-0.093-0.013l-0.089-0.025l-0.08-0.035
	l-0.073-0.045l-0.067-0.057l-0.061-0.067l-0.054-0.08l-0.045-0.093l-0.035-0.102l-0.029-0.112l-0.019-0.128l-0.01-0.14V18.74z"/>
<path fill="#FFFFFF" d="M12,30c2.158,0,4.215-0.576,6.001-1.606C19.787,29.424,21.843,30,24,30c6.617,0,12-5.383,12-12
	S30.617,6,24,6c-2.158,0-4.214,0.576-6,1.606C16.214,6.576,14.157,6,12,6C5.383,6,0,11.383,0,18S5.383,30,12,30z M12,7
	c1.796,0,3.514,0.44,5.041,1.226c-1.776,1.264-3.216,3.01-4.103,5.113l0.922,0.389c0.876-2.076,2.335-3.777,4.14-4.95
	c1.802,1.171,3.26,2.868,4.136,4.94l0.922-0.39c-0.888-2.098-2.326-3.84-4.099-5.102C20.486,7.439,22.204,7,24,7
	c6.065,0,11,4.935,11,11s-4.935,11-11,11c-1.796,0-3.514-0.439-5.041-1.226c1.776-1.264,3.216-3.01,4.103-5.113l-0.922-0.389
	c-0.876,2.076-2.335,3.776-4.14,4.95c-1.801-1.171-3.259-2.868-4.135-4.939l-0.922,0.39c0.888,2.098,2.325,3.839,4.099,5.101
	C15.515,28.561,13.796,29,12,29C5.935,29,1,24.065,1,18S5.935,7,12,7z"/>
<path fill="#FFFFFF" d="M18.713,17.566l-0.016-0.141l-0.025-0.134l-0.029-0.125l-0.038-0.118L18.56,16.94l-0.051-0.102l-0.054-0.093
	l-0.061-0.089l-0.067-0.08l-0.07-0.073l-0.077-0.067l-0.077-0.064l-0.083-0.054l-0.083-0.051l-0.086-0.045l-0.089-0.038
	l-0.093-0.035l-0.093-0.029l-0.093-0.026l-0.093-0.022l-0.096-0.019l-0.093-0.013l-0.093-0.01l-0.093-0.006l-0.089-0.006H16.84
	l-0.192,0.006l-0.179,0.013l-0.172,0.022l-0.163,0.032l-0.153,0.038l-0.144,0.048l-0.137,0.054l-0.128,0.057l-0.121,0.067
	l-0.112,0.07l-0.105,0.077l-0.096,0.083l-0.093,0.083l-0.083,0.089l-0.077,0.093l-0.073,0.093l-0.064,0.096l-0.061,0.099
	l-0.054,0.099l-0.051,0.099l-0.045,0.099l-0.042,0.099l-0.035,0.096l-0.032,0.099l-0.026,0.096l-0.026,0.093l-0.022,0.089
	l-0.016,0.086l-0.016,0.083l-0.013,0.077l-0.01,0.077l-0.01,0.067l-0.016,0.192l-0.006,0.185v0.172l0.013,0.166l0.019,0.16
	l0.029,0.147l0.035,0.14l0.045,0.134l0.051,0.125l0.057,0.118l0.064,0.109l0.07,0.105l0.073,0.096l0.083,0.089l0.086,0.083
	l0.089,0.077l0.096,0.07l0.096,0.064l0.102,0.057l0.105,0.054l0.109,0.048l0.108,0.042l0.112,0.035l0.112,0.035l0.115,0.025
	l0.115,0.026l0.115,0.019l0.118,0.016l0.115,0.013l0.112,0.006l0.115,0.006h0.112h0.153l0.141-0.003h0.128L17.277,21l0.105-0.003
	l0.099-0.01l0.089-0.01l0.083-0.01l0.08-0.016l0.073-0.016l0.07-0.019l0.07-0.026l0.07-0.025l0.067-0.029l0.073-0.035l0.073-0.038
	l0.198-1.133l-0.134,0.077l-0.131,0.07l-0.134,0.057l-0.128,0.048l-0.128,0.042l-0.128,0.032l-0.128,0.022l-0.125,0.019l-0.121,0.01
	l-0.125,0.006h-0.118l-0.121-0.003l-0.118-0.006l-0.118-0.013l-0.115-0.016l-0.115-0.016l-0.096-0.022l-0.096-0.032l-0.089-0.042
	l-0.086-0.051l-0.08-0.061l-0.073-0.064l-0.07-0.073l-0.061-0.077l-0.054-0.08l-0.045-0.083l-0.038-0.086l-0.025-0.086l-0.019-0.083
	l-0.006-0.086l0.003-0.08l0.013-0.064h2.955l0.051-0.281l0.038-0.198l0.029-0.188l0.016-0.179l0.009-0.169v-0.16L18.713,17.566z
	 M17.456,17.882l-0.01,0.121h-1.659l0.016-0.083l0.022-0.099l0.025-0.096l0.032-0.089l0.038-0.083l0.045-0.08l0.048-0.073
	l0.051-0.067l0.057-0.064l0.061-0.054l0.067-0.048l0.07-0.041l0.073-0.035l0.077-0.026l0.083-0.016l0.083-0.013h0.089l0.083,0.003
	l0.08,0.01l0.077,0.019l0.073,0.026l0.067,0.032l0.064,0.038l0.061,0.048l0.054,0.057l0.048,0.064l0.042,0.07l0.032,0.08
	l0.026,0.086l0.019,0.096l0.006,0.105V17.882z"/>
</svg>
