<?xml version="1.0" encoding="utf-8"?>
<!-- Generator: Adobe Illustrator 19.2.1, SVG Export Plug-In . SVG Version: 6.00 Build 0)  -->
<svg version="1.0" id="art" xmlns="http://www.w3.org/2000/svg" xmlns:xlink="http://www.w3.org/1999/xlink" x="0px" y="0px"
	 width="18px" height="18px" viewBox="0 0 18 18" enable-background="new 0 0 18 18" xml:space="preserve">
<g>
	<g>
		<path fill-rule="evenodd" clip-rule="evenodd" fill="#EC1C2E" d="M6.09,8h5.82c-0.058-0.344-0.145-0.678-0.259-1H6.349
			c0.124-0.349,0.277-0.684,0.461-1h4.381c-0.208-0.359-0.452-0.693-0.728-1H7.537C7.958,4.53,8.451,4.128,9,3.809
			C8.117,3.298,7.094,3,6,3C2.686,3,0,5.686,0,9s2.686,6,6,6c1.094,0,2.117-0.298,3-0.809C8.894,14.129,8.788,14.068,8.686,14h0.628
			c0.426-0.283,0.809-0.621,1.149-1H7.537c-0.275-0.307-0.52-0.641-0.728-1h4.381c0.183-0.316,0.337-0.651,0.461-1H6.349
			c-0.114-0.322-0.201-0.656-0.259-1h5.82C11.965,9.674,12,9.341,12,9H6C6,8.659,6.035,8.326,6.09,8z"/>
	</g>
</g>
<g>
	<path fill="#FBB131" d="M12,3c-1.094,0-2.117,0.298-3,0.809C8.451,4.128,7.958,4.53,7.537,5h2.926c0.275,0.307,0.52,0.641,0.728,1
		H6.809C6.626,6.316,6.472,6.651,6.349,7h5.302c0.114,0.322,0.201,0.656,0.259,1H6.09C6.035,8.326,6,8.659,6,9h6
		c0,0.341-0.035,0.674-0.09,1H6.09c0.058,0.344,0.145,0.678,0.259,1h5.302c-0.124,0.349-0.277,0.684-0.461,1H6.809
		c0.208,0.359,0.452,0.693,0.728,1h2.926c-0.34,0.379-0.724,0.717-1.149,1H8.686C8.788,14.068,8.894,14.129,9,14.191
		C9.883,14.702,10.906,15,12,15c3.314,0,6-2.686,6-6S15.314,3,12,3z"/>
</g>
<g id="check">
</g>
<g>
	<polygon fill="#FFFFFF" points="5.844,8.799 5.853,8.779 5.864,8.759 5.88,8.743 5.898,8.725 5.922,8.71 5.947,8.697 5.974,8.686 
		6.005,8.675 6.04,8.67 6.076,8.665 6.129,8.661 6.176,8.657 6.218,8.655 6.256,8.655 6.291,8.657 6.324,8.659 6.353,8.661 
		6.378,8.665 6.404,8.668 6.427,8.672 6.451,8.675 6.473,8.679 6.496,8.683 6.52,8.686 6.545,8.69 6.571,8.692 6.664,8.281 
		6.649,8.279 6.633,8.275 6.616,8.274 6.598,8.27 6.576,8.266 6.553,8.263 6.527,8.257 6.496,8.254 6.464,8.25 6.427,8.246 
		6.385,8.243 6.34,8.239 6.289,8.237 6.233,8.235 6.171,8.234 6.104,8.234 5.996,8.235 5.898,8.243 5.809,8.255 5.727,8.272 
		5.654,8.292 5.589,8.319 5.531,8.348 5.478,8.383 5.433,8.423 5.395,8.468 5.362,8.515 5.333,8.57 5.311,8.628 5.293,8.69 
		5.28,8.757 5.271,8.828 5.269,8.945 5.285,9.043 5.318,9.125 5.364,9.194 5.422,9.25 5.485,9.297 5.554,9.335 5.627,9.368 
		5.698,9.397 5.769,9.423 5.833,9.45 5.887,9.477 5.933,9.508 5.964,9.545 5.98,9.59 5.976,9.643 5.969,9.67 5.96,9.699 
		5.945,9.728 5.927,9.754 5.902,9.779 5.869,9.799 5.827,9.814 5.774,9.825 5.722,9.826 5.669,9.826 5.616,9.825 5.564,9.823 
		5.513,9.817 5.464,9.812 5.416,9.805 5.371,9.797 5.327,9.79 5.287,9.781 5.251,9.774 5.218,9.766 5.187,9.759 5.162,9.752 
		5.142,9.746 5.125,9.743 5.044,10.145 5.075,10.155 5.104,10.166 5.133,10.177 5.164,10.185 5.194,10.194 5.229,10.199 
		5.264,10.206 5.302,10.21 5.344,10.215 5.387,10.219 5.436,10.223 5.491,10.225 5.551,10.226 5.614,10.226 5.687,10.228 
		5.765,10.228 5.822,10.226 5.882,10.223 5.942,10.217 6.004,10.206 6.067,10.192 6.129,10.174 6.189,10.15 6.247,10.123 
		6.304,10.088 6.354,10.048 6.402,10.003 6.444,9.95 6.48,9.89 6.509,9.821 6.531,9.746 6.544,9.661 6.551,9.546 6.544,9.448 
		6.525,9.366 6.496,9.297 6.458,9.241 6.413,9.195 6.362,9.157 6.307,9.126 6.249,9.103 6.189,9.081 6.129,9.061 6.071,9.043 
		6.016,9.023 5.965,8.999 5.922,8.972 5.885,8.937 5.867,8.914 5.853,8.89 5.845,8.866 5.84,8.843 5.84,8.821 	"/>
	<polygon fill="#FFFFFF" points="7.555,9.803 7.538,9.808 7.514,9.815 7.485,9.823 7.453,9.828 7.416,9.832 7.376,9.834 7.333,9.83 
		7.293,9.823 7.256,9.812 7.224,9.799 7.2,9.779 7.182,9.755 7.173,9.725 7.174,9.688 7.349,8.674 7.669,8.683 7.734,8.272 
		7.431,8.272 7.505,7.832 7.002,7.832 6.654,9.815 6.649,9.861 6.644,9.903 6.644,9.943 6.645,9.981 6.651,10.015 6.66,10.046 
		6.673,10.077 6.691,10.103 6.714,10.126 6.745,10.148 6.78,10.166 6.822,10.183 6.871,10.195 6.929,10.206 6.993,10.214 
		7.065,10.219 7.204,10.219 7.235,10.215 7.264,10.212 7.291,10.208 7.315,10.205 7.336,10.201 7.358,10.197 7.376,10.194 
		7.395,10.188 7.411,10.183 7.427,10.177 7.442,10.172 7.455,10.166 7.467,10.159 7.48,10.152 7.493,10.145 7.505,10.135 
		7.569,9.797 7.565,9.799 	"/>
	<path fill="#FFFFFF" d="M9.147,9.73L9.095,9.752l-0.051,0.02L8.995,9.788L8.944,9.799L8.895,9.808L8.845,9.815L8.796,9.819
		L8.749,9.821H8.7L8.653,9.819L8.605,9.815L8.558,9.81L8.513,9.805L8.465,9.797L8.429,9.79L8.393,9.777L8.356,9.761l-0.033-0.02
		L8.291,9.719L8.262,9.692L8.235,9.665L8.209,9.634L8.187,9.603l-0.02-0.035L8.153,9.535L8.14,9.501L8.133,9.466L8.129,9.432
		l0.002-0.033l0.004-0.022h1.18l0.009-0.111l0.027-0.153l0.013-0.138L9.362,8.852L9.347,8.743L9.322,8.646L9.285,8.563L9.24,8.49
		L9.185,8.428l-0.06-0.051L9.06,8.334L8.989,8.301L8.916,8.274L8.842,8.255L8.767,8.243L8.693,8.235L8.622,8.234L8.475,8.241
		L8.344,8.263L8.225,8.295L8.12,8.341L8.029,8.395l-0.08,0.062L7.878,8.526L7.82,8.599L7.769,8.675l-0.042,0.08L7.694,8.834
		L7.667,8.912l-0.02,0.076L7.633,9.059L7.622,9.126L7.615,9.185L7.605,9.334l0.005,0.135l0.02,0.122l0.031,0.107l0.044,0.096
		l0.053,0.084L7.82,9.952l0.071,0.062l0.076,0.053l0.082,0.045l0.085,0.035l0.089,0.027l0.091,0.022l0.091,0.013l0.091,0.009
		l0.089,0.002h0.06l0.056-0.002h0.049l0.047-0.002l0.042-0.004l0.038-0.004l0.036-0.004l0.033-0.005l0.031-0.005l0.029-0.007
		l0.029-0.009l0.027-0.009l0.027-0.011l0.029-0.011l0.029-0.015l0.029-0.015L9.251,9.67L9.198,9.701L9.147,9.73z M8.209,8.992
		l0.007-0.038l0.011-0.036L8.24,8.881l0.016-0.033l0.016-0.031l0.02-0.029l0.022-0.027l0.024-0.025l0.024-0.022l0.027-0.02
		l0.027-0.016l0.031-0.015l0.031-0.011l0.031-0.007l0.033-0.005l0.035-0.002l0.033,0.004L8.64,8.646l0.029,0.007l0.029,0.011
		l0.027,0.015l0.027,0.016l0.024,0.018l0.022,0.022l0.018,0.025l0.018,0.027l0.013,0.031L8.86,8.854L8.867,8.89l0.004,0.04
		l0.002,0.044L8.869,9.019H8.204L8.209,8.992z"/>
	<polygon fill="#FFFFFF" points="12.373,8.332 12.4,8.345 12.426,8.357 12.449,8.368 12.473,8.381 12.564,7.877 12.553,7.874 
		12.536,7.866 12.515,7.859 12.489,7.85 12.46,7.839 12.426,7.828 12.389,7.817 12.347,7.806 12.304,7.795 12.256,7.786 
		12.207,7.775 12.156,7.768 12.102,7.761 12.047,7.755 11.991,7.752 11.933,7.75 11.864,7.752 11.798,7.755 11.733,7.763 
		11.671,7.772 11.609,7.783 11.551,7.795 11.495,7.81 11.438,7.828 11.385,7.848 11.335,7.87 11.285,7.894 11.236,7.921 
		11.191,7.95 11.147,7.981 11.105,8.015 11.064,8.052 11.025,8.09 10.989,8.13 10.953,8.174 10.92,8.219 10.887,8.266 10.856,8.317 
		10.829,8.37 10.802,8.426 10.776,8.483 10.753,8.543 10.729,8.606 10.709,8.67 10.691,8.737 10.673,8.808 10.656,8.881 
		10.642,8.955 10.622,9.106 10.618,9.248 10.625,9.377 10.647,9.499 10.68,9.61 10.724,9.712 10.775,9.803 10.835,9.885 
		10.902,9.957 10.975,10.021 11.051,10.075 11.131,10.119 11.215,10.155 11.298,10.183 11.382,10.201 11.465,10.21 11.567,10.215 
		11.66,10.217 11.742,10.215 11.813,10.212 11.876,10.205 11.931,10.197 11.978,10.188 12.02,10.175 12.053,10.165 12.082,10.152 
		12.107,10.139 12.127,10.125 12.144,10.114 12.158,10.101 12.169,10.09 12.18,10.081 12.262,9.595 12.225,9.628 12.187,9.657 
		12.145,9.681 12.1,9.701 12.055,9.715 12.009,9.728 11.962,9.737 11.915,9.743 11.869,9.746 11.824,9.746 11.782,9.746 
		11.742,9.743 11.706,9.739 11.673,9.735 11.645,9.73 11.622,9.725 11.553,9.708 11.491,9.685 11.435,9.657 11.385,9.625 
		11.342,9.586 11.304,9.545 11.271,9.497 11.244,9.448 11.224,9.394 11.207,9.339 11.195,9.281 11.189,9.219 11.187,9.157 
		11.191,9.094 11.198,9.03 11.209,8.965 11.238,8.848 11.273,8.746 11.311,8.655 11.351,8.575 11.395,8.508 11.44,8.45 
		11.487,8.403 11.536,8.363 11.587,8.33 11.638,8.305 11.689,8.285 11.74,8.27 11.791,8.261 11.84,8.255 11.887,8.252 11.933,8.252 
		11.978,8.252 12.022,8.252 12.064,8.255 12.106,8.259 12.144,8.265 12.182,8.272 12.216,8.279 12.251,8.288 12.284,8.299 
		12.315,8.31 12.345,8.321 	"/>
	<polygon fill="#FFFFFF" points="2.589,7.832 1.994,9.248 1.913,7.832 1.053,7.832 0.64,10.219 1.134,10.219 1.436,8.435 
		1.447,8.435 1.458,8.435 1.463,8.435 1.467,8.523 1.48,8.73 1.496,9.015 1.514,9.341 1.533,9.665 1.549,9.946 1.562,10.145 
		1.565,10.219 2.124,10.219 2.864,8.435 2.884,8.435 2.571,10.219 3.065,10.219 3.487,7.832 	"/>
	<polygon fill="#FFFFFF" points="15.356,8.719 15.382,8.719 15.396,8.719 15.402,8.719 15.484,8.252 15.433,8.255 15.384,8.261 
		15.338,8.27 15.295,8.283 15.255,8.297 15.216,8.315 15.18,8.335 15.145,8.357 15.113,8.383 15.082,8.408 15.053,8.437 
		15.024,8.466 14.996,8.497 14.969,8.532 14.942,8.565 14.916,8.601 14.971,8.272 14.46,8.272 14.12,10.219 14.633,10.219 
		14.816,9.185 14.824,9.145 14.835,9.105 14.845,9.065 14.86,9.025 14.878,8.985 14.9,8.946 14.924,8.91 14.953,8.875 14.985,8.845 
		15.022,8.815 15.064,8.788 15.111,8.766 15.164,8.748 15.222,8.734 15.286,8.723 	"/>
	<polygon fill="#FFFFFF" points="10.642,8.463 10.656,8.428 10.674,8.394 10.693,8.359 10.711,8.328 10.727,8.301 10.74,8.279 
		10.749,8.266 10.753,8.261 10.751,8.261 10.744,8.259 10.735,8.257 10.722,8.255 10.709,8.255 10.695,8.254 10.682,8.252 
		10.669,8.252 10.613,8.255 10.562,8.261 10.515,8.27 10.471,8.281 10.429,8.295 10.391,8.314 10.356,8.332 10.324,8.354 
		10.293,8.377 10.264,8.405 10.236,8.432 10.209,8.463 10.182,8.494 10.156,8.528 10.129,8.565 10.102,8.601 10.167,8.272 
		9.645,8.272 9.305,10.219 9.818,10.219 9.827,10.219 10.002,9.185 10.009,9.145 10.018,9.106 10.027,9.068 10.04,9.032 
		10.054,8.995 10.073,8.961 10.095,8.928 10.12,8.897 10.149,8.87 10.182,8.843 10.222,8.821 10.265,8.801 10.316,8.785 
		10.373,8.77 10.435,8.761 10.505,8.755 10.511,8.755 10.518,8.757 10.527,8.759 10.536,8.759 10.545,8.761 10.553,8.763 
		10.558,8.765 10.56,8.765 10.562,8.757 10.567,8.735 10.575,8.703 10.584,8.663 10.596,8.615 10.609,8.565 10.625,8.514 	"/>
	<path fill="#FFFFFF" d="M16.866,7.841l-0.127,0.715l-0.011-0.022l-0.014-0.022l-0.016-0.024l-0.018-0.024l-0.022-0.024
		l-0.024-0.024l-0.027-0.024l-0.029-0.022l-0.033-0.02l-0.036-0.02l-0.036-0.016l-0.042-0.014l-0.044-0.013l-0.047-0.009
		l-0.051-0.005l-0.053-0.002L16.16,8.275l-0.073,0.011l-0.073,0.016l-0.073,0.025l-0.069,0.031l-0.069,0.04l-0.067,0.045
		l-0.064,0.053l-0.06,0.06l-0.056,0.065l-0.055,0.073l-0.047,0.082l-0.045,0.087l-0.038,0.093l-0.033,0.102l-0.027,0.107
		l-0.016,0.093l-0.009,0.093l-0.002,0.095l0.005,0.093l0.015,0.093l0.02,0.089l0.029,0.085l0.036,0.082l0.044,0.076l0.051,0.067
		l0.058,0.062l0.065,0.053l0.073,0.042l0.08,0.031l0.087,0.02l0.095,0.007h0.036l0.036-0.002l0.035-0.004l0.036-0.005l0.036-0.005
		l0.035-0.009l0.035-0.009l0.035-0.013l0.035-0.016l0.033-0.016l0.033-0.02l0.033-0.024l0.033-0.025l0.031-0.029l0.031-0.033
		l0.029-0.036v0.018l-0.036,0.202h0.504l0.411-2.378H16.866z M16.615,9.163l-0.005,0.053L16.6,9.266l-0.009,0.049l-0.013,0.049
		l-0.015,0.047l-0.018,0.045l-0.02,0.044l-0.024,0.042l-0.025,0.04l-0.027,0.036l-0.031,0.033l-0.035,0.031L16.347,9.71
		l-0.038,0.022l-0.042,0.02l-0.044,0.013l-0.047,0.011l-0.051,0.004l-0.073-0.015l-0.06-0.04l-0.047-0.06L15.909,9.59l-0.024-0.085
		l-0.013-0.089l-0.004-0.087l0.009-0.08l0.011-0.053l0.015-0.053l0.014-0.049l0.018-0.049l0.02-0.047l0.024-0.044l0.025-0.042
		l0.027-0.04l0.031-0.035l0.031-0.031l0.036-0.029l0.036-0.024l0.042-0.018l0.042-0.015l0.045-0.007l0.049-0.004l0.038,0.004
		l0.035,0.009l0.033,0.015l0.031,0.022l0.027,0.025l0.024,0.029l0.022,0.035l0.018,0.036l0.015,0.042L16.6,8.97l0.007,0.045
		l0.005,0.047l0.002,0.051V9.163z"/>
	<path fill="#FFFFFF" d="M14.184,8.783V8.714l-0.013-0.062l-0.02-0.058l-0.027-0.055L14.087,8.49l-0.042-0.044L14,8.406
		l-0.051-0.035l-0.055-0.031l-0.056-0.025l-0.056-0.022l-0.058-0.016l-0.056-0.013l-0.055-0.009l-0.051-0.004L13.5,8.25
		l-0.062-0.002H13.38h-0.056h-0.056L13.215,8.25l-0.053,0.002l-0.051,0.004l-0.049,0.004l-0.047,0.007l-0.045,0.007l-0.045,0.009
		L12.88,8.292l-0.042,0.013l-0.042,0.015l-0.04,0.016l-0.127,0.438l0.02-0.011l0.025-0.013l0.033-0.011l0.04-0.011l0.044-0.009
		l0.047-0.009l0.053-0.009l0.055-0.007l0.056-0.007l0.058-0.005l0.058-0.005l0.06-0.004l0.058-0.002h0.056l0.055,0.002l0.051,0.002
		l0.044,0.004l0.04,0.011l0.038,0.016l0.033,0.024l0.027,0.027l0.024,0.033l0.014,0.036l0.007,0.04l-0.004,0.034l-0.005,0.038
		L13.611,8.97l-0.004,0.013H13.6l-0.016-0.002l-0.029-0.002L13.52,8.977h-0.04l-0.042-0.002l-0.044-0.002h-0.044h-0.02l-0.025,0.002
		L13.28,8.977l-0.029,0.002L13.22,8.983l-0.031,0.002l-0.033,0.004l-0.031,0.004l-0.029,0.004l-0.027,0.004l-0.025,0.002
		L13.02,9.005l-0.018,0.002l-0.013,0.002L12.98,9.01h-0.004l-0.062,0.011l-0.06,0.016l-0.06,0.02l-0.056,0.025l-0.056,0.029
		l-0.053,0.035L12.58,9.185l-0.047,0.042l-0.042,0.045l-0.038,0.051l-0.035,0.053l-0.027,0.058l-0.024,0.062l-0.016,0.064
		L12.34,9.626l-0.004,0.071v0.04l0.004,0.04l0.005,0.042l0.007,0.042l0.009,0.04l0.015,0.04l0.016,0.04l0.022,0.038l0.025,0.036
		l0.029,0.035l0.035,0.033l0.04,0.029l0.047,0.027l0.051,0.024l0.058,0.018l0.065,0.016l0.049,0.007l0.049,0.005l0.051-0.002
		l0.053-0.004l0.051-0.007l0.051-0.009l0.051-0.014l0.049-0.015l0.045-0.018l0.045-0.022l0.044-0.022l0.038-0.024l0.036-0.025
		l0.033-0.025l0.027-0.027l0.024-0.027l-0.004,0.022v0.049l-0.002,0.065l-0.004,0.075h0.456l0.075-0.404l0.191-0.96L14.184,8.783z
		 M13.54,9.386l-0.007,0.051L13.524,9.49l-0.007,0.051l-0.005,0.02l-0.007,0.022l-0.009,0.022l-0.013,0.022L13.465,9.65l-0.02,0.022
		l-0.022,0.024l-0.025,0.02l-0.029,0.022l-0.033,0.018l-0.035,0.016l-0.04,0.015L13.22,9.799l-0.047,0.009l-0.051,0.005
		l-0.055,0.002l-0.031-0.002l-0.031-0.005l-0.031-0.011l-0.027-0.018l-0.022-0.027l-0.015-0.036l-0.009-0.049l0.002-0.062
		l0.005-0.031l0.011-0.029l0.013-0.027l0.016-0.025l0.02-0.024l0.02-0.02l0.024-0.02l0.024-0.016l0.024-0.016l0.025-0.013
		l0.022-0.011l0.024-0.011l0.02-0.007l0.018-0.005l0.015-0.005l0.013-0.002l0.018-0.004l0.024-0.005l0.024-0.004l0.027-0.005
		l0.027-0.004l0.029-0.004l0.029-0.004l0.029-0.004l0.027-0.002h0.027l0.024,0.002l0.02,0.002l0.018,0.005l0.013,0.005L13.54,9.33
		l0.004,0.011L13.54,9.386z"/>
	<path fill="#FFFFFF" d="M5.154,8.783V8.714L5.144,8.652L5.125,8.594L5.098,8.539L5.062,8.49l-0.04-0.044l-0.045-0.04L4.925,8.372
		L4.871,8.341L4.816,8.315L4.76,8.294L4.702,8.277L4.645,8.265L4.591,8.255L4.54,8.252L4.476,8.25L4.413,8.248h-0.06H4.294H4.238
		L4.184,8.25L4.131,8.252L4.08,8.255L4.031,8.259L3.984,8.266L3.936,8.274L3.893,8.283L3.849,8.292L3.805,8.305l-0.04,0.015
		l-0.04,0.016L3.596,8.774l0.02-0.011L3.642,8.75l0.033-0.011l0.04-0.011l0.044-0.009L3.805,8.71l0.053-0.009l0.055-0.007
		l0.056-0.007l0.058-0.005l0.058-0.005l0.06-0.004L4.204,8.67H4.26l0.055,0.002l0.051,0.002l0.047,0.004l0.044,0.011l0.038,0.016
		l0.035,0.024l0.029,0.027L4.58,8.788l0.016,0.036l0.007,0.04L4.6,8.899L4.591,8.937L4.58,8.97L4.576,8.983H4.571L4.553,8.981
		L4.527,8.979L4.494,8.977h-0.04l-0.04-0.002L4.371,8.974H4.329h-0.02L4.284,8.975L4.256,8.977L4.227,8.979L4.198,8.983L4.165,8.985
		L4.134,8.988L4.104,8.992L4.073,8.995L4.045,8.999L4.02,9.001L3.998,9.005l-0.02,0.002L3.965,9.008L3.956,9.01H3.953L3.889,9.021
		L3.827,9.037l-0.06,0.02L3.709,9.083L3.654,9.112L3.602,9.146L3.551,9.185L3.505,9.226L3.462,9.272L3.424,9.323L3.391,9.375
		L3.362,9.434L3.338,9.495L3.32,9.559L3.309,9.626L3.304,9.697v0.04l0.004,0.04l0.005,0.042L3.32,9.861l0.011,0.04l0.015,0.04
		l0.018,0.04l0.022,0.038l0.025,0.036L3.44,10.09l0.036,0.033l0.04,0.029l0.045,0.027l0.051,0.024l0.058,0.018l0.064,0.016
		l0.049,0.007l0.051,0.005l0.053-0.002l0.053-0.004l0.055-0.007l0.053-0.011L4.1,10.214l0.053-0.016l0.049-0.018l0.047-0.022
		l0.045-0.022l0.044-0.025l0.038-0.025l0.035-0.027l0.029-0.029l0.025-0.029l-0.007,0.027l-0.007,0.051l-0.009,0.067l-0.013,0.075
		h0.458L4.96,9.815l0.184-0.96L5.154,8.783z M4.513,9.388L4.502,9.446l-0.013,0.06L4.474,9.559l-0.005,0.02L4.46,9.599L4.449,9.621
		L4.436,9.643L4.422,9.665l-0.018,0.02L4.382,9.706L4.358,9.725l-0.027,0.02L4.3,9.761L4.265,9.777L4.229,9.79L4.187,9.801
		L4.14,9.808L4.091,9.814L4.036,9.815L4.007,9.814L3.978,9.808L3.947,9.797L3.92,9.779L3.896,9.752L3.878,9.715L3.869,9.666
		l0.002-0.062l0.005-0.029l0.011-0.029L3.9,9.521l0.018-0.024l0.02-0.022L3.96,9.454l0.024-0.018l0.025-0.018l0.024-0.015
		L4.058,9.39l0.024-0.013l0.024-0.011l0.02-0.009l0.02-0.007L4.16,9.345l0.013-0.004l0.02-0.005L4.214,9.33L4.24,9.325l0.027-0.004
		l0.029-0.004l0.029-0.004L4.356,9.31l0.029-0.002h0.027H4.44L4.464,9.31l0.02,0.004l0.018,0.004l0.011,0.005L4.52,9.332
		l0.002,0.009L4.513,9.388z"/>
</g>
</svg>
