<?xml version="1.0" encoding="utf-8"?>
<!-- Generator: Adobe Illustrator 19.2.1, SVG Export Plug-In . SVG Version: 6.00 Build 0)  -->
<svg version="1.0" id="art" xmlns="http://www.w3.org/2000/svg" xmlns:xlink="http://www.w3.org/1999/xlink" x="0px" y="0px"
	 width="36px" height="36px" viewBox="0 0 36 36" enable-background="new 0 0 36 36" xml:space="preserve">
<g id="check">
</g>
<path d="M22.193,13.046c0.358-0.046,1.347-0.083,2.468,0.433l0.438-2.052C24.497,11.21,23.722,11,22.759,11
	c-2.474,0-4.214,1.314-4.228,3.197c-0.016,1.393,1.243,2.169,2.19,2.633c0.975,0.474,1.302,0.778,1.298,1.201
	c-0.007,0.649-0.779,0.936-1.497,0.947c-1.258,0.02-1.988-0.34-2.57-0.611l-0.454,2.12c0.585,0.268,1.664,0.501,2.782,0.513
	c2.63,0,4.35-1.299,4.357-3.31c0.01-2.552-3.529-2.694-3.506-3.834C21.14,13.51,21.47,13.141,22.193,13.046z"/>
<path d="M31.461,11.177h-2.135c-0.481,0-0.886,0.279-1.065,0.709l-3.755,8.963h2.628l0.521-1.445h3.21l0.303,1.445h2.313
	L31.461,11.177z M28.376,17.422l1.318-3.632l0.757,3.632H28.376z"/>
<polygon points="17.85,11.177 15.347,11.177 13.279,20.848 15.781,20.848 "/>
<path d="M11.645,11.177l-2.603,6.583l-1.054-5.597c-0.124-0.625-0.612-0.986-1.154-0.986H2.576l-0.059,0.281
	c0.873,0.19,1.867,0.496,2.468,0.823c0.368,0.201,0.473,0.375,0.594,0.849l1.995,7.719h2.645l4.054-9.672H11.645z"/>
<polygon points="14.744,25.186 16.192,25.186 16.192,24.786 14.744,24.786 14.744,23.605 16.28,23.605 16.28,23.2 14.255,23.2 
	14.255,26.939 16.364,26.939 16.364,26.534 14.744,26.534 "/>
<rect x="17.112" y="23" width="0.488" height="3.939"/>
<path d="M19.624,24.198c-0.782,0-1.259,0.633-1.259,1.443c0,0.81,0.494,1.359,1.32,1.359c0.428,0,0.727-0.094,0.899-0.172
	l-0.089-0.349c-0.178,0.077-0.394,0.139-0.744,0.139c-0.493,0-0.91-0.272-0.921-0.932h1.886c0.011-0.055,0.017-0.128,0.017-0.227
	C20.734,24.964,20.506,24.198,19.624,24.198z M18.836,25.335c0.039-0.338,0.25-0.788,0.749-0.788c0.549,0,0.682,0.483,0.677,0.788
	H18.836z"/>
<path d="M22.724,24.586c0.266,0,0.449,0.067,0.566,0.128l0.111-0.372c-0.133-0.072-0.388-0.144-0.677-0.144
	c-0.877,0-1.442,0.605-1.442,1.431c0,0.821,0.527,1.37,1.337,1.37c0.36,0,0.643-0.094,0.771-0.155l-0.083-0.366
	c-0.139,0.061-0.322,0.128-0.599,0.128c-0.533,0-0.932-0.383-0.932-1.004C21.776,25.047,22.108,24.586,22.724,24.586z"/>
<path d="M24.759,23.61l-0.477,0.144v0.499h-0.416v0.371h0.416v1.465c0,0.316,0.055,0.555,0.189,0.705
	C24.587,26.922,24.77,27,24.998,27c0.189,0,0.339-0.033,0.433-0.066l-0.022-0.372c-0.072,0.023-0.15,0.034-0.283,0.034
	c-0.272,0-0.366-0.188-0.366-0.522v-1.448h0.699v-0.371h-0.699V23.61z"/>
<path d="M26.584,24.786h-0.016l-0.022-0.533h-0.427c0.016,0.25,0.022,0.522,0.022,0.838v1.847h0.488v-1.431
	c0-0.078,0.006-0.161,0.017-0.228c0.066-0.366,0.311-0.622,0.655-0.622c0.067,0,0.117,0,0.167,0.011v-0.461
	c-0.044-0.005-0.083-0.011-0.133-0.011C27.005,24.198,26.706,24.426,26.584,24.786z"/>
<path d="M29.174,24.198c-0.738,0-1.331,0.527-1.331,1.42c0,0.849,0.565,1.381,1.287,1.381c0.644,0,1.337-0.433,1.337-1.426
	C30.466,24.758,29.945,24.198,29.174,24.198z M29.152,26.634c-0.477,0-0.81-0.444-0.81-1.032c0-0.505,0.25-1.038,0.821-1.038
	c0.577,0,0.804,0.572,0.804,1.027C29.967,26.195,29.618,26.634,29.152,26.634z"/>
<path d="M32.551,24.198c-0.444,0-0.754,0.25-0.888,0.499h-0.011l-0.028-0.444h-0.433c0.016,0.222,0.022,0.444,0.022,0.727v1.958
	h0.488v-1.614c0-0.083,0.011-0.166,0.034-0.228c0.088-0.272,0.338-0.499,0.655-0.499c0.46,0,0.621,0.361,0.621,0.793v1.548H33.5
	v-1.598C33.5,24.42,32.923,24.198,32.551,24.198z"/>
</svg>
