<?xml version="1.0" encoding="utf-8"?>
<!-- Generator: Adobe Illustrator 19.2.1, SVG Export Plug-In . SVG Version: 6.00 Build 0)  -->
<svg version="1.0" id="art" xmlns="http://www.w3.org/2000/svg" xmlns:xlink="http://www.w3.org/1999/xlink" x="0px" y="0px"
	 width="30px" height="30px" viewBox="0 0 30 30" enable-background="new 0 0 30 30" xml:space="preserve">
<g id="check">
</g>
<g>
	<g>
		<polygon fill="#1A1F71" points="13.155,18.85 10.892,18.85 12.307,10.156 14.57,10.156 		"/>
		<path fill="#1A1F71" d="M8.988,10.156l-2.158,5.98l-0.255-1.288l0,0l-0.762-3.91c0,0-0.092-0.783-1.074-0.783H1.172L1.13,10.303
			c0,0,1.091,0.227,2.368,0.994l1.967,7.553h2.358l3.601-8.695H8.988z"/>
		<path fill="#1A1F71" d="M26.792,18.85h2.078l-1.812-8.695h-1.82c-0.84,0-1.045,0.648-1.045,0.648l-3.376,8.047h2.359l0.472-1.291
			h2.878L26.792,18.85z M24.301,15.775l1.189-3.254l0.669,3.254H24.301z"/>
		<path fill="#1A1F71" d="M20.995,12.246l0.323-1.867c0,0-0.997-0.379-2.036-0.379c-1.123,0-3.791,0.491-3.791,2.878
			c0,2.246,3.131,2.274,3.131,3.454s-2.808,0.969-3.735,0.225l-0.337,1.952c0,0,1.011,0.491,2.555,0.491
			c1.544,0,3.875-0.8,3.875-2.977c0-2.261-3.159-2.471-3.159-3.454C17.821,11.586,20.026,11.713,20.995,12.246z"/>
	</g>
	<path fill="#FDBB0A" d="M6.574,14.848l-0.762-3.91c0,0-0.092-0.783-1.074-0.783H1.172L1.13,10.303c0,0,1.715,0.355,3.36,1.687
		C6.062,13.262,6.574,14.848,6.574,14.848z"/>
</g>
</svg>
