<?xml version="1.0" encoding="utf-8"?>
<!-- Generator: Adobe Illustrator 19.2.1, SVG Export Plug-In . SVG Version: 6.00 Build 0)  -->
<svg version="1.0" id="art" xmlns="http://www.w3.org/2000/svg" xmlns:xlink="http://www.w3.org/1999/xlink" x="0px" y="0px"
	 width="24px" height="24px" viewBox="0 0 24 24" enable-background="new 0 0 24 24" xml:space="preserve">
<g id="check">
</g>
<path fill="#FFFFFF" d="M5.769,11.071H4.881h0c-0.104,0-0.188,0.085-0.188,0.188v3.581c0,0.104,0.085,0.188,0.188,0.188h3.816
	l-0.618,0.618c-0.073,0.073-0.073,0.193,0,0.266l2.532,2.532c0.073,0.073,0.193,0.073,0.266,0l2.68-2.68v0.875
	c0,0.104,0.085,0.188,0.188,0.188h3.581c0.104,0,0.188-0.085,0.188-0.188v-3.829l0.637,0.637c0.073,0.073,0.193,0.073,0.266,0
	l2.532-2.532c0.073-0.073,0.073-0.193,0-0.266l-3.808-3.808l1.089,1.089h0.894c0.104,0,0.188-0.085,0.188-0.188V4.161
	c0-0.104-0.085-0.189-0.188-0.189h-3.814l0.619-0.619c0.073-0.073,0.073-0.193,0-0.267l-2.532-2.532
	c-0.073-0.073-0.193-0.073-0.266,0l-2.704,2.704l0.012-0.012V2.356v0c0-0.104-0.085-0.188-0.188-0.188H6.671
	c-0.104,0-0.188,0.085-0.188,0.188v3.832L5.848,5.553l0,0l0,0c-0.073-0.073-0.193-0.073-0.267,0L3.049,8.085
	c-0.073,0.073-0.073,0.193,0,0.266L5.769,11.071z M10.251,7.931c0.104,0,0.188-0.085,0.188-0.188v-1.71L9.323,4.63l2.532,2.532
	c0.073,0.073,0.193,0.073,0.266,0l1.245-1.245l0.184-1.756v3.581c0,0.104,0.085,0.188,0.188,0.188h1.783l1.354-1.089l-2.532,2.532
	c-0.073,0.073-0.073,0.193,0,0.266l1.242,1.242l1.741,0.184h-3.581c-0.104,0-0.188,0.085-0.188,0.188v1.682l1.128,1.435
	l-2.532-2.532c-0.073-0.073-0.193-0.073-0.266,0l-1.208,1.208l-0.225,1.794V11.26c0-0.104-0.085-0.188-0.188-0.188H8.458
	L7.124,12.16l2.532-2.532c0.073-0.073,0.073-0.193,0-0.266L8.388,8.094L6.671,7.931H10.251z"/>
<path fill="#FFFFFF" d="M10.06,23.981c0.013,0.01,0.036,0.015,0.067,0.014h0.475c0.027,0,0.046-0.002,0.059-0.006
	c0.014-0.004,0.021-0.012,0.026-0.023c0.004-0.011,0.006-0.028,0.005-0.049v-2.632c0.001-0.064-0.008-0.118-0.025-0.16
	c-0.018-0.043-0.046-0.074-0.086-0.096C10.54,21.011,10.485,21,10.418,21H8.881c-0.068,0-0.121,0.01-0.159,0.029
	c-0.038,0.02-0.066,0.051-0.083,0.093c-0.017,0.043-0.028,0.097-0.031,0.164l-0.039,0.65c-0.013,0.222-0.027,0.414-0.042,0.578
	c-0.024,0.271-0.051,0.92-0.402,0.92c-0.036,0-0.059,0.006-0.07,0.019c-0.011,0.014-0.016,0.042-0.016,0.083v0.364
	c0,0.034,0.005,0.059,0.017,0.075C8.069,23.992,8.092,24,8.125,24c0.272,0,0.51-0.022,0.714-0.331
	c0.063-0.095,0.118-0.201,0.157-0.322c0.04-0.12,0.071-0.256,0.094-0.405c0.023-0.149,0.041-0.313,0.056-0.493
	c0.014-0.179,0.029-0.374,0.043-0.585l0.017-0.299h0.835v2.353C10.041,23.95,10.047,23.97,10.06,23.981z"/>
<path fill="#FFFFFF" d="M6.475,21.69c0.016-0.04,0.044-0.071,0.084-0.094c0.041-0.023,0.098-0.035,0.171-0.036h1.087
	c0.031,0.001,0.053-0.006,0.065-0.02c0.011-0.013,0.017-0.038,0.016-0.074v-0.364c0.001-0.04-0.004-0.067-0.015-0.082
	C7.872,21.007,7.85,21,7.817,21H6.589c-0.144,0.001-0.266,0.023-0.367,0.066c-0.101,0.043-0.182,0.103-0.244,0.177
	c-0.061,0.075-0.107,0.159-0.135,0.253c-0.029,0.094-0.043,0.192-0.042,0.295v1.421c-0.001,0.098,0.011,0.194,0.035,0.287
	c0.023,0.093,0.065,0.177,0.123,0.252c0.058,0.075,0.139,0.135,0.242,0.179C6.305,23.976,6.435,23.998,6.593,24H7.86
	c0.034,0,0.056-0.008,0.069-0.023c0.012-0.016,0.018-0.041,0.017-0.075v-0.364c0.001-0.041-0.004-0.069-0.016-0.083
	c-0.012-0.014-0.034-0.02-0.07-0.019H6.73c-0.061,0.001-0.113-0.006-0.154-0.022c-0.041-0.015-0.072-0.041-0.093-0.079
	c-0.021-0.038-0.031-0.09-0.031-0.156V22.69H7.68c0.034,0,0.056-0.008,0.066-0.024c0.011-0.016,0.016-0.041,0.015-0.075v-0.334
	c0.001-0.04-0.004-0.067-0.015-0.082c-0.011-0.014-0.033-0.021-0.066-0.021H6.452v-0.329C6.451,21.775,6.459,21.73,6.475,21.69z"/>
<path fill="#FFFFFF" d="M12.333,22.688c0.068,0.019,0.125,0.055,0.171,0.107c0.045,0.052,0.083,0.127,0.112,0.225l0.261,0.92
	c0.009,0.027,0.022,0.044,0.038,0.051C12.931,23.998,12.947,24,12.963,24h0.497c0.023-0.001,0.041-0.006,0.051-0.016
	c0.01-0.01,0.015-0.021,0.016-0.034c0-0.014-0.002-0.025-0.006-0.036l-0.265-0.993c-0.016-0.064-0.035-0.123-0.054-0.175
	c-0.02-0.053-0.045-0.1-0.075-0.142c-0.03-0.042-0.07-0.08-0.118-0.113c-0.048-0.033-0.11-0.062-0.184-0.088v-0.021
	c0.092-0.056,0.169-0.128,0.23-0.218c0.061-0.089,0.106-0.195,0.134-0.316l0.197-0.764c0.004-0.01,0.006-0.022,0.006-0.035
	c-0.001-0.013-0.006-0.025-0.016-0.034c-0.01-0.01-0.027-0.015-0.051-0.016h-0.479c-0.016,0-0.032,0.002-0.049,0.009
	c-0.017,0.006-0.029,0.024-0.036,0.051l-0.192,0.72c-0.023,0.088-0.054,0.158-0.091,0.209c-0.038,0.052-0.08,0.091-0.126,0.116
	c-0.045,0.025-0.093,0.041-0.14,0.049c-0.048,0.007-0.093,0.011-0.135,0.01H11.73v-1.087c0.006-0.031,0.004-0.051-0.008-0.059
	c-0.012-0.008-0.032-0.011-0.06-0.01h-0.501c-0.026-0.002-0.045,0.002-0.058,0.01c-0.013,0.008-0.019,0.027-0.019,0.059v2.854
	c0,0.031,0.006,0.051,0.019,0.058c0.013,0.008,0.032,0.012,0.058,0.01h0.496c0.028,0.002,0.047-0.002,0.059-0.01
	c0.012-0.008,0.018-0.028,0.018-0.058L11.73,22.66h0.351C12.18,22.659,12.264,22.668,12.333,22.688z"/>
<path fill="#FFFFFF" d="M5.208,21.556c0.031,0.001,0.052-0.005,0.063-0.016c0.01-0.012,0.015-0.033,0.014-0.065v-0.381
	c0.001-0.036-0.004-0.061-0.014-0.074C5.26,21.006,5.239,21,5.208,21H3.539c-0.068,0-0.122,0.01-0.162,0.031
	c-0.041,0.021-0.069,0.053-0.086,0.096c-0.018,0.043-0.026,0.098-0.026,0.165v2.452c-0.001,0.061,0.006,0.111,0.02,0.148
	c0.014,0.038,0.04,0.066,0.077,0.083C3.399,23.991,3.453,24,3.522,24H4.6c0.146-0.001,0.28-0.024,0.404-0.07
	c0.124-0.046,0.233-0.112,0.326-0.196c0.093-0.085,0.166-0.184,0.218-0.298c0.052-0.115,0.078-0.24,0.079-0.376
	c0.001-0.049-0.003-0.107-0.01-0.173c-0.007-0.066-0.022-0.135-0.046-0.208c-0.023-0.073-0.058-0.143-0.106-0.213
	c-0.048-0.069-0.111-0.132-0.191-0.188c-0.08-0.056-0.18-0.101-0.3-0.135c-0.121-0.034-0.265-0.051-0.434-0.051H3.916v-0.535H5.208z
	 M4.54,22.635c0.09,0.001,0.165,0.018,0.226,0.051c0.061,0.034,0.107,0.08,0.138,0.138c0.031,0.058,0.046,0.125,0.046,0.2
	c0.001,0.041-0.006,0.086-0.019,0.132c-0.013,0.047-0.035,0.091-0.066,0.133c-0.031,0.041-0.073,0.075-0.128,0.101
	c-0.054,0.026-0.121,0.04-0.202,0.041H3.916v-0.796H4.54z"/>
<path fill="#FFFFFF" d="M18.848,21.018c-0.011,0.012-0.017,0.036-0.016,0.072v0.381c0,0.028,0.006,0.049,0.02,0.064
	c0.013,0.014,0.033,0.022,0.061,0.022h0.757v2.353c0,0.033,0.008,0.057,0.024,0.071C19.709,23.994,19.734,24,19.769,24h0.458
	c0.042,0.001,0.07-0.005,0.083-0.018c0.014-0.013,0.021-0.036,0.019-0.072v-2.353h0.775c0.028,0,0.049-0.008,0.063-0.022
	c0.015-0.014,0.022-0.036,0.022-0.064V21.09c0.001-0.036-0.005-0.06-0.017-0.072C21.16,21.005,21.137,21,21.104,21h-2.191
	C18.882,21,18.86,21.005,18.848,21.018z"/>
<path fill="#FFFFFF" d="M18.21,21.07c-0.123-0.046-0.263-0.069-0.418-0.07h-1.048c-0.068,0-0.121,0.012-0.158,0.032
	c-0.038,0.021-0.064,0.052-0.079,0.091c-0.014,0.039-0.021,0.085-0.021,0.138v2.649c0,0.033,0.008,0.057,0.024,0.071
	C16.526,23.994,16.552,24,16.586,24h0.449c0.029,0,0.05-0.001,0.065-0.005c0.015-0.004,0.025-0.013,0.03-0.026
	c0.006-0.013,0.008-0.033,0.008-0.059v-0.997h0.569c0.16-0.001,0.298-0.019,0.415-0.052c0.116-0.034,0.215-0.079,0.294-0.136
	c0.08-0.057,0.145-0.121,0.195-0.19c0.05-0.07,0.088-0.142,0.115-0.215c0.026-0.073,0.044-0.143,0.054-0.209
	c0.009-0.066,0.014-0.124,0.014-0.173c0-0.136-0.024-0.262-0.069-0.376c-0.045-0.114-0.112-0.212-0.199-0.297
	C18.439,21.181,18.334,21.116,18.21,21.07z M18.077,22.186c-0.031,0.061-0.077,0.11-0.14,0.146
	c-0.062,0.036-0.142,0.054-0.239,0.055h-0.561v-0.813h0.556c0.086,0.001,0.158,0.014,0.213,0.041
	c0.056,0.026,0.099,0.061,0.13,0.103c0.031,0.041,0.054,0.086,0.066,0.132c0.012,0.047,0.019,0.09,0.018,0.13
	C18.122,22.056,18.107,22.125,18.077,22.186z"/>
<path fill="#FFFFFF" d="M15.34,21.081c-0.027-0.034-0.061-0.056-0.103-0.066C15.196,21.004,15.144,21,15.08,21h-0.257
	c-0.057,0-0.105,0.006-0.145,0.019c-0.04,0.013-0.073,0.037-0.1,0.071c-0.027,0.034-0.049,0.082-0.068,0.144l-0.89,2.679
	c-0.007,0.024-0.006,0.044,0.001,0.061C13.63,23.99,13.65,23.999,13.681,24h0.501c0.039,0,0.068-0.006,0.084-0.02
	c0.016-0.013,0.029-0.033,0.036-0.061l0.167-0.544h0.98l0.167,0.556c0.009,0.031,0.023,0.051,0.044,0.058
	c0.021,0.008,0.048,0.012,0.08,0.01h0.509c0.021-0.001,0.036-0.005,0.046-0.015c0.009-0.009,0.015-0.02,0.016-0.034
	c0.001-0.013-0.001-0.025-0.006-0.037l-0.89-2.679C15.392,21.166,15.367,21.115,15.34,21.081z M14.622,22.844l0.163-0.542
	l0.163-0.611h0.026l0.158,0.611l0.163,0.542H14.622z"/>
</svg>
