<?xml version="1.0" encoding="utf-8"?>
<!-- Generator: Adobe Illustrator 19.2.1, SVG Export Plug-In . SVG Version: 6.00 Build 0)  -->
<svg version="1.0" id="art" xmlns="http://www.w3.org/2000/svg" xmlns:xlink="http://www.w3.org/1999/xlink" x="0px" y="0px"
	 width="18px" height="18px" viewBox="0 0 18 18" enable-background="new 0 0 18 18" xml:space="preserve">
<g id="check">
</g>
<polygon fill="#FFFFFF" points="6.718,11.917 7.975,11.917 8.761,7.086 7.504,7.086 "/>
<path fill="#FFFFFF" d="M14.688,7.086c-0.467,0-0.581,0.36-0.581,0.36l-1.875,4.47h1.311l0.262-0.717h1.599l0.148,0.717h1.155
	l-1.007-4.83H14.688z M14.167,10.208L14.828,8.4l0.372,1.808H14.167z"/>
<path fill="#FFFFFF" d="M8.937,10.643L8.75,11.727c0,0,0.561,0.273,1.42,0.273c0.858,0,2.153-0.445,2.153-1.654
	c0-1.256-1.755-1.373-1.755-1.919c0-0.546,1.225-0.476,1.763-0.179l0.179-1.037c0,0-0.554-0.211-1.131-0.211
	c-0.624,0-2.106,0.273-2.106,1.599c0,1.248,1.739,1.264,1.739,1.919S9.452,11.056,8.937,10.643z"/>
<path fill="#FFFFFF" d="M3.896,7.521c0,0-0.051-0.435-0.597-0.435H1.318L1.294,7.168c0,0,0.016,0.004,0.034,0.008
	C1.335,7.178,1.345,7.18,1.353,7.182c0.019,0.005,0.046,0.012,0.074,0.02c0.017,0.005,0.037,0.011,0.057,0.017
	C1.516,7.228,1.553,7.24,1.591,7.253c0.024,0.008,0.047,0.015,0.073,0.024c0.059,0.02,0.124,0.045,0.193,0.072
	C1.878,7.357,1.9,7.367,1.922,7.376C1.989,7.403,2.06,7.434,2.134,7.469c0.033,0.015,0.068,0.033,0.102,0.05
	C2.296,7.548,2.357,7.58,2.42,7.614c0.038,0.021,0.077,0.043,0.116,0.065c0.025,0.014,0.05,0.031,0.075,0.046l1.091,4.192h1.31
	l2.001-4.83H5.66l-1.199,3.322L4.319,9.693l0,0L3.896,7.521z"/>
</svg>
