<?xml version="1.0" encoding="utf-8"?>
<!-- Generator: Adobe Illustrator 19.2.1, SVG Export Plug-In . SVG Version: 6.00 Build 0)  -->
<svg version="1.0" id="art" xmlns="http://www.w3.org/2000/svg" xmlns:xlink="http://www.w3.org/1999/xlink" x="0px" y="0px"
	 width="30px" height="30px" viewBox="0 0 30 30" enable-background="new 0 0 30 30" xml:space="preserve">
<g id="check">
</g>
<g id="g4155_5_">
	<g id="g4161_5_" transform="translate(302.4478,424.6084)">
		<path id="path4163_5_" fill="#1A1F71" d="M-287.649-415.467l-1.655,7.737h-2.002l1.655-7.737H-287.649z M-279.228-410.471
			l1.054-2.906l0.605,2.906H-279.228z M-276.994-407.73h1.851l-1.617-7.737h-1.708c-0.385,0-0.709,0.224-0.852,0.567l-3.004,7.17
			h2.102l0.417-1.156h2.568L-276.994-407.73z M-282.219-410.256c0.008-2.042-2.823-2.155-2.805-3.067
			c0.007-0.277,0.271-0.573,0.849-0.648c0.286-0.037,1.078-0.067,1.974,0.346l0.351-1.642c-0.482-0.174-1.101-0.342-1.872-0.342
			c-1.979,0-3.371,1.051-3.382,2.557c-0.013,1.114,0.994,1.735,1.752,2.106c0.78,0.379,1.042,0.623,1.038,0.961
			c-0.006,0.519-0.623,0.749-1.197,0.758c-1.007,0.016-1.59-0.272-2.056-0.489l-0.363,1.696c0.468,0.215,1.331,0.401,2.225,0.411
			C-283.601-407.608-282.225-408.647-282.219-410.256 M-290.51-415.467l-3.243,7.737h-2.116l-1.596-6.175
			c-0.097-0.379-0.181-0.519-0.475-0.68c-0.481-0.261-1.276-0.506-1.975-0.658l0.047-0.225h3.407c0.434,0,0.824,0.289,0.923,0.788
			l0.843,4.478l2.082-5.266H-290.51z"/>
	</g>
	<g id="g4165_5_" transform="translate(318.6445,362.2266)">
		<path id="path4167_5_" fill="#1A1F71" d="M-304.626-342.587h-1.086v1.011h1.215v0.304h-1.581v-2.805h1.519v0.304h-1.153v0.886
			h1.086V-342.587z"/>
	</g>
	<path id="path4169_5_" fill="#1A1F71" d="M14.709,18h0.366v2.954h-0.366V18z"/>
	<g id="g4171_5_" transform="translate(333.0977,361.6953)">
		<path id="path4173_5_" fill="#1A1F71" d="M-316.026-341.944c0.004-0.229-0.096-0.591-0.508-0.591
			c-0.375,0-0.533,0.337-0.562,0.591H-316.026z M-317.1-341.682c0.008,0.495,0.32,0.699,0.69,0.699c0.262,0,0.425-0.046,0.558-0.104
			l0.067,0.262c-0.129,0.058-0.354,0.129-0.674,0.129c-0.62,0-0.99-0.412-0.99-1.019s0.358-1.082,0.944-1.082
			c0.662,0,0.832,0.574,0.832,0.945c0,0.075-0.004,0.129-0.013,0.17H-317.1z"/>
	</g>
	<g id="g4175_5_" transform="translate(344.2041,356.3369)">
		<path id="path4177_5_" fill="#1A1F71" d="M-324.787-335.454c-0.096,0.046-0.308,0.117-0.578,0.117
			c-0.607,0-1.003-0.412-1.003-1.028c0-0.62,0.424-1.073,1.082-1.073c0.216,0,0.408,0.054,0.508,0.108l-0.083,0.279
			c-0.088-0.046-0.225-0.096-0.425-0.096c-0.462,0-0.711,0.345-0.711,0.762c0,0.466,0.3,0.753,0.699,0.753
			c0.208,0,0.345-0.05,0.449-0.096L-324.787-335.454z"/>
	</g>
	<g id="g4179_5_" transform="translate(349.0664,367.8213)">
		<path id="path4181_5_" fill="#1A1F71" d="M-328.622-349.364v0.483h0.524v0.279h-0.524v1.086c0,0.25,0.071,0.391,0.275,0.391
			c0.1,0,0.158-0.008,0.212-0.025l0.017,0.279c-0.071,0.025-0.183,0.05-0.325,0.05c-0.171,0-0.308-0.058-0.395-0.154
			c-0.1-0.113-0.142-0.291-0.142-0.528v-1.099h-0.312v-0.279h0.312v-0.375L-328.622-349.364z"/>
	</g>
	<g id="g4183_5_" transform="translate(353.9688,362.5615)">
		<path id="path4185_5_" fill="#1A1F71" d="M-332.489-342.993c0-0.237-0.004-0.441-0.017-0.628h0.32l0.017,0.399h0.012
			c0.092-0.27,0.316-0.441,0.562-0.441c0.038,0,0.067,0.004,0.1,0.008v0.346c-0.038-0.008-0.075-0.008-0.125-0.008
			c-0.258,0-0.441,0.191-0.491,0.466c-0.008,0.05-0.012,0.112-0.012,0.171v1.073h-0.366V-342.993z"/>
	</g>
	<g id="g4187_5_" transform="translate(361.7861,360.749)">
		<path id="path4189_5_" fill="#1A1F71" d="M-338.655-340.798c0,0.441,0.25,0.774,0.607,0.774c0.35,0,0.611-0.329,0.611-0.782
			c0-0.341-0.17-0.77-0.603-0.77C-338.468-341.576-338.655-341.176-338.655-340.798 M-337.061-340.818
			c0,0.745-0.52,1.069-1.003,1.069c-0.541,0-0.965-0.4-0.965-1.036c0-0.67,0.445-1.065,0.998-1.065
			C-337.452-341.85-337.061-341.43-337.061-340.818"/>
	</g>
	<g id="g4191_5_" transform="translate(371.9873,362.9561)">
		<path id="path4193_5_" fill="#1A1F71" d="M-346.701-343.471c0-0.212-0.004-0.379-0.017-0.545h0.324l0.021,0.333h0.008
			c0.1-0.187,0.333-0.374,0.666-0.374c0.279,0,0.711,0.166,0.711,0.857v1.198h-0.366v-1.161c0-0.324-0.121-0.595-0.466-0.595
			c-0.237,0-0.425,0.171-0.491,0.375c-0.017,0.046-0.025,0.108-0.025,0.171v1.211h-0.366V-343.471z"/>
	</g>
</g>
</svg>
