<?xml version="1.0" encoding="utf-8"?>
<!-- Generator: Adobe Illustrator 19.2.1, SVG Export Plug-In . SVG Version: 6.00 Build 0)  -->
<svg version="1.0" id="art" xmlns="http://www.w3.org/2000/svg" xmlns:xlink="http://www.w3.org/1999/xlink" x="0px" y="0px"
	 width="24px" height="24px" viewBox="0 0 24 24" enable-background="new 0 0 24 24" xml:space="preserve">
<g id="check">
</g>
<polygon points="8.805,15.852 10.565,15.852 11.666,9.089 9.905,9.089 "/>
<path d="M21.379,9.089h-1.415c-0.654,0-0.813,0.504-0.813,0.504l-2.625,6.259h1.835l0.367-1.004h2.238l0.206,1.004h1.617
	L21.379,9.089z M19.234,13.46l0.925-2.531l0.52,2.531H19.234z"/>
<path d="M11.912,14.068l-0.262,1.518c0,0,0.786,0.382,1.987,0.382c1.201,0,3.014-0.622,3.014-2.315c0-1.758-2.457-1.922-2.457-2.686
	c0-0.765,1.715-0.666,2.468-0.251l0.251-1.452c0,0-0.775-0.295-1.583-0.295c-0.874,0-2.948,0.382-2.948,2.239
	c0,1.747,2.435,1.769,2.435,2.686S12.633,14.647,11.912,14.068z"/>
<path d="M4.854,9.698c0,0-0.072-0.609-0.835-0.609H1.245L1.212,9.204c0,0,0.023,0.005,0.047,0.011
	c0.009,0.002,0.024,0.006,0.036,0.009C1.322,9.231,1.359,9.241,1.4,9.252c0.023,0.007,0.049,0.014,0.076,0.022
	c0.044,0.013,0.096,0.03,0.15,0.047C1.66,9.333,1.693,9.343,1.73,9.356c0.083,0.029,0.174,0.063,0.272,0.101
	C2.03,9.469,2.059,9.481,2.088,9.493c0.095,0.039,0.195,0.083,0.3,0.131c0.046,0.021,0.094,0.046,0.142,0.07
	C2.614,9.735,2.7,9.78,2.788,9.828c0.054,0.029,0.108,0.06,0.163,0.091c0.034,0.02,0.07,0.044,0.105,0.065l1.528,5.868h1.834
	l2.801-6.763H7.324L5.645,13.74l-0.199-1.002l0,0L4.854,9.698z"/>
</svg>
