<?xml version="1.0" encoding="utf-8"?>
<!-- Generator: Adobe Illustrator 19.2.1, SVG Export Plug-In . SVG Version: 6.00 Build 0)  -->
<svg version="1.0" id="art" xmlns="http://www.w3.org/2000/svg" xmlns:xlink="http://www.w3.org/1999/xlink" x="0px" y="0px"
	 width="36px" height="36px" viewBox="0 0 36 36" enable-background="new 0 0 36 36" xml:space="preserve">
<g id="check">
</g>
<g id="g4155_7_">
	<g id="g4161_7_" transform="translate(302.4478,424.6084)">
		<path id="path4163_7_" fill="#1A1F71" d="M-284.598-413.432l-2.069,9.672h-2.502l2.069-9.672H-284.598z M-274.072-407.187
			l1.318-3.632l0.757,3.632H-274.072z M-271.279-403.76h2.313l-2.021-9.672h-2.135c-0.481,0-0.886,0.279-1.065,0.709l-3.755,8.963
			h2.628l0.521-1.445h3.21L-271.279-403.76z M-277.811-406.918c0.01-2.552-3.529-2.694-3.506-3.834
			c0.009-0.347,0.339-0.716,1.062-0.81c0.358-0.046,1.347-0.083,2.468,0.433l0.438-2.052c-0.602-0.218-1.377-0.427-2.34-0.427
			c-2.474,0-4.214,1.314-4.228,3.197c-0.016,1.393,1.243,2.169,2.19,2.633c0.975,0.474,1.302,0.778,1.298,1.202
			c-0.007,0.649-0.779,0.936-1.496,0.947c-1.258,0.02-1.988-0.34-2.57-0.611l-0.454,2.12c0.585,0.268,1.664,0.501,2.782,0.513
			C-279.538-403.608-277.818-404.907-277.811-406.918 M-288.174-413.432l-4.054,9.672h-2.645l-1.995-7.719
			c-0.121-0.474-0.226-0.649-0.594-0.849c-0.602-0.327-1.595-0.632-2.468-0.823l0.059-0.281h4.258c0.542,0,1.03,0.361,1.154,0.986
			l1.054,5.597l2.603-6.583H-288.174z"/>
	</g>
	<g id="g4165_7_" transform="translate(318.6445,362.2266)">
		<path id="path4167_7_" fill="#1A1F71" d="M-302.453-337.041h-1.448v1.348h1.62v0.405h-2.108v-3.739h2.025v0.405h-1.537v1.181
			h1.448V-337.041z"/>
	</g>
	<path id="path4169_7_" fill="#1A1F71" d="M17.112,23H17.6v3.939h-0.488V23z"/>
	<g id="g4171_7_" transform="translate(333.0977,361.6953)">
		<path id="path4173_7_" fill="#1A1F71" d="M-312.836-336.36c0.006-0.305-0.128-0.788-0.677-0.788c-0.499,0-0.71,0.449-0.749,0.788
			H-312.836z M-314.267-336.01c0.011,0.66,0.427,0.932,0.921,0.932c0.35,0,0.566-0.061,0.744-0.139l0.089,0.349
			c-0.172,0.077-0.471,0.172-0.899,0.172c-0.826,0-1.32-0.549-1.32-1.359s0.477-1.443,1.259-1.443c0.882,0,1.11,0.766,1.11,1.259
			c0,0.1-0.006,0.172-0.017,0.227H-314.267z"/>
	</g>
	<g id="g4175_7_" transform="translate(344.2041,356.3369)">
		<path id="path4177_7_" fill="#1A1F71" d="M-320.814-329.492c-0.128,0.061-0.411,0.155-0.771,0.155c-0.81,0-1.337-0.549-1.337-1.37
			c0-0.827,0.566-1.431,1.442-1.431c0.288,0,0.544,0.072,0.677,0.144l-0.111,0.372c-0.117-0.061-0.3-0.128-0.566-0.128
			c-0.616,0-0.949,0.46-0.949,1.016c0,0.621,0.399,1.004,0.932,1.004c0.277,0,0.46-0.066,0.599-0.128L-320.814-329.492z"/>
	</g>
	<g id="g4179_7_" transform="translate(349.0664,367.8213)">
		<path id="path4181_7_" fill="#1A1F71" d="M-324.307-344.211v0.644h0.699v0.371h-0.699v1.448c0,0.333,0.094,0.522,0.366,0.522
			c0.133,0,0.211-0.011,0.283-0.034l0.022,0.372c-0.094,0.033-0.244,0.066-0.433,0.066c-0.228,0-0.411-0.078-0.527-0.205
			c-0.133-0.15-0.189-0.388-0.189-0.705v-1.465h-0.416v-0.371h0.416v-0.499L-324.307-344.211z"/>
	</g>
	<g id="g4183_7_" transform="translate(353.9688,362.5615)">
		<path id="path4185_7_" fill="#1A1F71" d="M-327.829-337.47c0-0.316-0.006-0.588-0.022-0.838h0.427l0.022,0.533h0.016
			c0.122-0.36,0.422-0.588,0.749-0.588c0.05,0,0.089,0.006,0.134,0.011v0.461c-0.05-0.011-0.1-0.011-0.167-0.011
			c-0.344,0-0.588,0.255-0.654,0.622c-0.011,0.066-0.017,0.15-0.017,0.228v1.431h-0.488V-337.47z"/>
	</g>
	<g id="g4187_7_" transform="translate(361.7861,360.749)">
		<path id="path4189_7_" fill="#1A1F71" d="M-333.444-335.147c0,0.588,0.333,1.032,0.81,1.032c0.466,0,0.815-0.438,0.815-1.043
			c0-0.455-0.227-1.027-0.804-1.027C-333.195-336.185-333.444-335.652-333.444-335.147 M-331.32-335.175
			c0,0.993-0.694,1.426-1.337,1.426c-0.721,0-1.287-0.533-1.287-1.381c0-0.893,0.593-1.42,1.331-1.42
			C-331.841-336.551-331.32-335.991-331.32-335.175"/>
	</g>
	<g id="g4191_7_" transform="translate(371.9873,362.9561)">
		<path id="path4193_7_" fill="#1A1F71" d="M-340.773-337.976c0-0.283-0.006-0.505-0.022-0.727h0.433l0.028,0.444h0.011
			c0.133-0.25,0.444-0.499,0.888-0.499c0.371,0,0.949,0.222,0.949,1.143v1.598h-0.488v-1.548c0-0.433-0.161-0.793-0.621-0.793
			c-0.316,0-0.566,0.228-0.655,0.499c-0.023,0.061-0.034,0.144-0.034,0.228v1.614h-0.488V-337.976z"/>
	</g>
</g>
</svg>
