<?xml version="1.0" encoding="utf-8"?>
<!-- Generator: Adobe Illustrator 19.2.1, SVG Export Plug-In . SVG Version: 6.00 Build 0)  -->
<svg version="1.0" id="Layer_4" xmlns="http://www.w3.org/2000/svg" xmlns:xlink="http://www.w3.org/1999/xlink" x="0px" y="0px"
	 width="30px" height="30px" viewBox="0 0 30 30" enable-background="new 0 0 30 30" xml:space="preserve">
<path fill="#FFFFFF" d="M19,28H6c-2.163,0-3.932-1.727-3.998-3.874H2V8.293L8.293,2H19c2.206,0,4,1.794,4,4v4h-1V6
	c0-1.654-1.346-3-3-3H8.707L3,8.707V24c0,1.654,1.346,3,3,3h13c1.654,0,3-1.346,3-3h1C23,26.206,21.206,28,19,28z"/>
<path fill="#FFFFFF" d="M14.034,21h-1v-6h-1.828v-0.749L14.034,14V21z"/>
<path fill="#FFFFFF" d="M22.002,18.5c-0.064,0.385-0.23,0.712-0.5,0.977C21.147,19.826,20.654,20,20.021,20
	c-0.624,0-1.111-0.174-1.462-0.523c-0.351-0.348-0.526-0.799-0.526-1.352V16.86c0-0.547,0.173-0.993,0.519-1.34S19.387,15,20.015,15
	c0.628,0,1.122,0.174,1.48,0.523c0.276,0.268,0.443,0.594,0.507,0.977H23c-0.076-0.658-0.336-1.222-0.805-1.68
	c-0.56-0.547-1.285-0.82-2.178-0.82c-0.885,0-1.604,0.273-2.156,0.82c-0.551,0.547-0.827,1.236-0.827,2.068v1.224
	c0,0.834,0.277,1.525,0.829,2.07C18.416,20.727,19.135,21,20.022,21c0.891,0,1.617-0.273,2.175-0.818
	C22.664,19.725,22.924,19.16,23,18.5H22.002z"/>
</svg>
