<?xml version="1.0" encoding="utf-8"?>
<!-- Generator: Adobe Illustrator 19.2.1, SVG Export Plug-In . SVG Version: 6.00 Build 0)  -->
<svg version="1.0" id="Layer_4" xmlns="http://www.w3.org/2000/svg" xmlns:xlink="http://www.w3.org/1999/xlink" x="0px" y="0px"
	 width="36px" height="36px" viewBox="0 0 36 36" enable-background="new 0 0 36 36" xml:space="preserve">
<path fill="#FFFFFF" d="M24.558,34h-17c-2.481,0-4.5-2.019-4.5-4.5V10.294L11.292,2h13.266c2.481,0,4.5,2.019,4.5,4.5V12h-1V6.5
	c0-1.93-1.57-3.5-3.5-3.5h-12.85l-7.65,7.706V29.5c0,1.93,1.57,3.5,3.5,3.5h17c1.93,0,3.5-1.57,3.5-3.5V28h1v1.5
	C29.058,31.981,27.039,34,24.558,34z"/>
<path fill="#FFFFFF" d="M14,16.966h-3v8.027h-1v-8.027H7V16.01h7V16.966z"/>
<path fill="#FFFFFF" d="M32,16.966h-3v8.027h-1v-8.027h-3V16.01h7V16.966z"/>
<polygon fill="#FFFFFF" points="16.3,24.965 19.095,20.467 16.369,16.059 17.46,16.059 19.547,19.889 21.791,16.01 22.761,16.046 
	20.027,20.467 22.813,24.952 21.729,24.952 19.575,21.062 17.271,25 "/>
</svg>
