<?xml version="1.0" encoding="utf-8"?>
<!-- Generator: Adobe Illustrator 19.2.1, SVG Export Plug-In . SVG Version: 6.00 Build 0)  -->
<svg version="1.0" id="Layer_4" xmlns="http://www.w3.org/2000/svg" xmlns:xlink="http://www.w3.org/1999/xlink" x="0px" y="0px"
	 width="36px" height="36px" viewBox="0 0 36 36" enable-background="new 0 0 36 36" xml:space="preserve">
<path d="M24.558,34h-17c-2.481,0-4.5-2.019-4.5-4.5V10.294L11.292,2h13.266c2.481,0,4.5,2.019,4.5,4.5V12h-1V6.5
	c0-1.93-1.57-3.5-3.5-3.5h-12.85l-7.65,7.706V29.5c0,1.93,1.57,3.5,3.5,3.5h17c1.93,0,3.5-1.57,3.5-3.5V28h1v1.5
	C29.058,31.981,27.039,34,24.558,34z"/>
<path d="M23,25h-1.252l-4.457-6.947L17,18.065V25h-1v-8.983h1.253l4.456,6.935L22,22.94v-6.923h1V25z"/>
<path d="M29.789,25c-1.094,0-2.008-0.336-2.719-0.999c-0.71-0.659-1.069-1.526-1.069-2.576v-1.843c0-1.05,0.337-1.918,0.999-2.579
	c0.66-0.659,1.527-0.995,2.575-0.995c1.047,0,1.88,0.246,2.475,0.732c0.571,0.466,0.875,1.071,0.904,1.802h-1.029
	c-0.058-0.503-0.276-0.926-0.648-1.257c-0.396-0.352-0.968-0.53-1.701-0.53c-0.747,0-1.358,0.269-1.817,0.802
	c-0.453,0.528-0.683,1.204-0.683,2.011v1.851c0,0.815,0.257,1.497,0.765,2.029c0.509,0.532,1.164,0.801,1.949,0.801
	c0.544,0,0.998-0.07,1.35-0.208c0.36-0.143,0.612-0.302,0.77-0.489l0.024-2.55h-2.062v-0.999h3.129v3.783
	c-0.195,0.251-0.574,0.544-1.11,0.81C31.355,24.866,30.647,25,29.789,25z"/>
<path d="M8,21.99V25H7v-8.99h3.427c0.956,0,1.698,0.247,2.228,0.741s0.793,1.421,0.793,2.228c0,0.819-0.264,1.791-0.793,2.279
	c-0.529,0.488-1.271,0.732-2.228,0.732H8z M8,21.005h2.427c0.607,0,1.061-0.188,1.359-0.564c0.3-0.376,0.449-0.85,0.449-1.423
	s-0.15-1.051-0.452-1.434c-0.301-0.383-0.754-0.575-1.356-0.575H8V21.005z"/>
</svg>
