<?xml version="1.0" encoding="utf-8"?>
<!-- Generator: Adobe Illustrator 19.2.1, SVG Export Plug-In . SVG Version: 6.00 Build 0)  -->
<svg version="1.0" id="Layer_4" xmlns="http://www.w3.org/2000/svg" xmlns:xlink="http://www.w3.org/1999/xlink" x="0px" y="0px"
	 width="24px" height="24px" viewBox="0 0 24 24" enable-background="new 0 0 24 24" xml:space="preserve">
<path d="M20,8h-1V4c0-1.103-0.897-2-2-2H7.707L3,6.707V7H2V6.293L7.293,1H17c1.654,0,3,1.346,3,3V8z"/>
<path d="M17,23H5c-1.654,0-3-1.346-3-3V6.999h1V20c0,1.103,0.897,2,2,2h12c1.103,0,2-0.897,2-2v-1h1v1C20,21.654,18.654,23,17,23z"
	/>
<path d="M10,17H9v-6H7.172v-0.749L10,10V17z"/>
<path d="M17.968,14.5c-0.064,0.385-0.23,0.712-0.5,0.977C17.113,15.826,16.62,16,15.988,16c-0.624,0-1.111-0.174-1.462-0.523
	C14.175,15.129,14,14.678,14,14.126V12.86c0-0.547,0.173-0.993,0.519-1.34S15.353,11,15.981,11c0.628,0,1.122,0.174,1.48,0.523
	c0.276,0.268,0.443,0.594,0.507,0.977h0.997c-0.076-0.658-0.336-1.222-0.805-1.68c-0.56-0.547-1.285-0.82-2.178-0.82
	c-0.885,0-1.604,0.273-2.156,0.82C13.276,11.367,13,12.056,13,12.888v1.224c0,0.834,0.277,1.525,0.829,2.07
	C14.383,16.727,15.102,17,15.988,17c0.891,0,1.617-0.273,2.175-0.818c0.468-0.457,0.728-1.022,0.803-1.682H17.968z"/>
</svg>
