<?xml version="1.0" encoding="utf-8"?>
<!-- Generator: Adobe Illustrator 19.2.1, SVG Export Plug-In . SVG Version: 6.00 Build 0)  -->
<svg version="1.0" id="Layer_4" xmlns="http://www.w3.org/2000/svg" xmlns:xlink="http://www.w3.org/1999/xlink" x="0px" y="0px"
	 width="18px" height="18px" viewBox="0 0 18 18" enable-background="new 0 0 18 18" xml:space="preserve">
<path fill="#FFFFFF" d="M12.5,17h-10C1.673,17,1,16.327,1,15.5V4.293L5.293,0h7.148C13.301,0,14,0.699,14,1.559V5h-1V1.559
	C13,1.251,12.749,1,12.441,1H5.707L2,4.707V15.5C2,15.775,2.224,16,2.5,16h10c0.275,0,0.5-0.225,0.5-0.5h1
	C14,16.327,13.327,17,12.5,17z"/>
<path fill="#FFFFFF" d="M8,13H7V8H5.573V7.207L8,6.992V13z"/>
<path fill="#FFFFFF" d="M14.462,10.929l0.008,0.024c0.011,0.627-0.177,1.126-0.561,1.494S12.993,13,12.31,13
	c-0.685,0-1.241-0.226-1.668-0.677s-0.641-1.032-0.641-1.742V9.423c0-0.707,0.208-1.288,0.625-1.742C11.043,7.227,11.584,7,12.251,7
	c0.703,0,1.253,0.185,1.648,0.555c0.396,0.37,0.589,0.874,0.578,1.512L14.47,9.091h-1.109c0-0.385-0.09-0.679-0.27-0.883
	s-0.46-0.306-0.84-0.306c-0.341,0-0.717,0.142-0.917,0.426C11.134,8.612,11,8.974,11,9.414v1.165c0,0.446,0.139,0.81,0.35,1.094
	c0.211,0.284,0.6,0.426,0.96,0.426c0.356,0,0.62-0.098,0.791-0.294c0.171-0.196,0.256-0.488,0.256-0.875H14.462z"/>
</svg>
