<?xml version="1.0" encoding="utf-8"?>
<!-- Generator: Adobe Illustrator 19.2.1, SVG Export Plug-In . SVG Version: 6.00 Build 0)  -->
<svg version="1.0" id="Layer_4" xmlns="http://www.w3.org/2000/svg" xmlns:xlink="http://www.w3.org/1999/xlink" x="0px" y="0px"
	 width="18px" height="18px" viewBox="0 0 18 18" enable-background="new 0 0 18 18" xml:space="preserve">
<path d="M14,5h-1V1.559C13,1.25,12.749,1,12.441,1H5.707L2,4.707V5H1V4.293L5.293,0h7.148C13.301,0,14,0.699,14,1.559V5z"/>
<path d="M12.5,17h-10C1.673,17,1,16.327,1,15.5h1C2,15.776,2.224,16,2.5,16h10c0.275,0,0.5-0.224,0.5-0.5h1
	C14,16.327,13.327,17,12.5,17z"/>
<path d="M7,12.073h3V13H6V7h1V12.073z"/>
<path d="M14.658,11.432c0-0.231-0.081-0.417-0.245-0.557c-0.164-0.14-0.45-0.272-0.86-0.396c-0.715-0.206-1.256-0.451-1.621-0.734
	c-0.366-0.283-0.549-0.671-0.549-1.164c0-0.492,0.21-0.895,0.629-1.207c0.42-0.312,0.955-0.468,1.607-0.468
	c0.66,0,1.197,0.175,1.613,0.526c0.415,0.351,0.616,0.783,0.603,1.297l-0.009,0.025h-1.168c0-0.278-0.093-0.502-0.278-0.675
	c-0.186-0.172-0.446-0.258-0.781-0.258c-0.322,0-0.571,0.072-0.747,0.215s-0.265,0.326-0.265,0.548c0,0.204,0.095,0.371,0.283,0.501
	c0.188,0.131,0.514,0.269,0.976,0.415c0.663,0.185,1.165,0.428,1.506,0.73s0.512,0.7,0.512,1.192c0,0.515-0.203,0.92-0.608,1.217
	c-0.406,0.297-0.941,0.445-1.607,0.445c-0.654,0-1.225-0.168-1.712-0.505s-0.724-0.809-0.71-1.417l0.009-0.025h1.172
	c0,0.357,0.109,0.62,0.327,0.786c0.219,0.167,0.523,0.25,0.914,0.25c0.327,0,0.578-0.067,0.751-0.202
	C14.572,11.838,14.658,11.658,14.658,11.432z"/>
<polygon points="3.482,13 2.302,10.64 1.123,13 0,13 1.706,9.974 0.043,7 1.154,7 2.286,9.325 3.434,7 4.554,7 2.891,9.975 
	4.649,13 "/>
</svg>
