<?xml version="1.0" encoding="utf-8"?>
<!-- Generator: Adobe Illustrator 19.2.1, SVG Export Plug-In . SVG Version: 6.00 Build 0)  -->
<svg version="1.0" id="Layer_4" xmlns="http://www.w3.org/2000/svg" xmlns:xlink="http://www.w3.org/1999/xlink" x="0px" y="0px"
	 width="18px" height="18px" viewBox="0 0 18 18" enable-background="new 0 0 18 18" xml:space="preserve">
<path d="M14,5h-1V1.559C13,1.25,12.749,1,12.441,1H5.707L2,4.707V5H1V4.293L5.293,0h7.148C13.301,0,14,0.699,14,1.559V5z"/>
<path d="M12.5,17h-10C1.673,17,1,16.327,1,15.5h1C2,15.776,2.224,16,2.5,16h10c0.275,0,0.5-0.224,0.5-0.5h1
	C14,16.327,13.327,17,12.5,17z"/>
<path d="M9.52,11.31c0-0.224-0.079-0.405-0.238-0.541c-0.159-0.136-0.438-0.264-0.835-0.385c-0.694-0.2-1.219-0.438-1.574-0.713
	C6.517,9.397,6.34,9.02,6.34,8.542S6.544,7.673,6.951,7.37c0.408-0.303,0.927-0.455,1.56-0.455c0.641,0,1.163,0.17,1.566,0.511
	c0.404,0.34,0.598,0.761,0.585,1.26L10.654,8.71H9.52c0-0.27-0.09-0.488-0.27-0.655c-0.18-0.167-0.434-0.25-0.759-0.25
	c-0.312,0-0.554,0.07-0.725,0.208C7.595,8.152,7.51,8.33,7.51,8.546c0,0.198,0.091,0.36,0.274,0.487
	c0.183,0.127,0.499,0.261,0.947,0.403c0.644,0.179,1.131,0.415,1.462,0.709c0.331,0.294,0.497,0.679,0.497,1.158
	c0,0.499-0.197,0.893-0.591,1.182c-0.394,0.288-0.914,0.433-1.56,0.433c-0.636,0-1.19-0.164-1.662-0.491s-0.702-0.786-0.689-1.376
	l0.008-0.024h1.138c0,0.347,0.106,0.601,0.318,0.763s0.508,0.242,0.887,0.242c0.317,0,0.561-0.066,0.729-0.196
	S9.52,11.529,9.52,11.31z"/>
<path d="M4.461,10.929l0.008,0.024c0.011,0.627-0.177,1.126-0.561,1.494S2.991,13,2.309,13c-0.685,0-1.241-0.226-1.668-0.677
	S0,11.291,0,10.581V9.423c0-0.707,0.208-1.288,0.625-1.742C1.042,7.227,1.583,7,2.25,7c0.703,0,1.253,0.185,1.648,0.555
	c0.396,0.37,0.589,0.874,0.578,1.512L4.469,9.091H3.359c0-0.385-0.09-0.679-0.27-0.883S2.63,7.901,2.25,7.901
	c-0.341,0-0.717,0.142-0.917,0.426c-0.2,0.284-0.334,0.646-0.334,1.086v1.165c0,0.446,0.139,0.81,0.35,1.094
	c0.211,0.284,0.6,0.426,0.96,0.426c0.356,0,0.62-0.098,0.791-0.294c0.171-0.196,0.256-0.488,0.256-0.875H4.461z"/>
<path d="M14.332,11.405l0.072,0.326h0.024l0.068-0.317L15.766,7H17l-1.983,6h-1.202l-1.979-6h1.234L14.332,11.405z"/>
</svg>
