<?xml version="1.0" encoding="utf-8"?>
<!-- Generator: Adobe Illustrator 19.2.1, SVG Export Plug-In . SVG Version: 6.00 Build 0)  -->
<svg version="1.0" id="Layer_4" xmlns="http://www.w3.org/2000/svg" xmlns:xlink="http://www.w3.org/1999/xlink" x="0px" y="0px"
	 width="30px" height="30px" viewBox="0 0 30 30" enable-background="new 0 0 30 30" xml:space="preserve">
<path fill="#FFFFFF" d="M19,28H6c-2.163,0-3.932-1.727-3.998-3.874H2V8.293L8.293,2H19c2.206,0,4,1.794,4,4v5h-1V6
	c0-1.654-1.346-3-3-3H8.707L3,8.707V24c0,1.654,1.346,3,3,3h13c1.654,0,3-1.346,3-3h1C23,26.206,21.206,28,19,28z"/>
<path fill="#FFFFFF" d="M6.981,19v2H6.034v-7h2.678c0.747,0,1.305,0.303,1.718,0.688s0.643,1.184,0.643,1.812
	c0,0.638-0.306,1.475-0.72,1.854C9.939,18.734,9.459,19,8.712,19H6.981z M6.981,18h1.651c0.452,0,0.791-0.141,1.014-0.424
	s0.335-0.638,0.335-1.068s-0.113-0.788-0.337-1.076C9.418,15.144,9.082,15,8.632,15H6.981V18z"/>
<path fill="#FFFFFF" d="M14.981,19v2h-0.947v-7h2.678c0.747,0,1.305,0.303,1.718,0.688s0.643,1.184,0.643,1.812
	c0,0.638-0.306,1.475-0.72,1.854S17.459,19,16.712,19H14.981z M14.981,18h1.651c0.452,0,0.791-0.141,1.014-0.424
	c0.223-0.282,0.335-0.638,0.335-1.068s-0.113-0.788-0.337-1.076C17.418,15.144,17.082,15,16.632,15h-1.651V18z"/>
<path fill="#FFFFFF" d="M26.034,15h-2v6h-1v-6h-2v-1h5V15z"/>
</svg>
