<?xml version="1.0" encoding="utf-8"?>
<!-- Generator: Adobe Illustrator 19.2.1, SVG Export Plug-In . SVG Version: 6.00 Build 0)  -->
<svg version="1.0" id="Layer_4" xmlns="http://www.w3.org/2000/svg" xmlns:xlink="http://www.w3.org/1999/xlink" x="0px" y="0px"
	 width="30px" height="30px" viewBox="0 0 30 30" enable-background="new 0 0 30 30" xml:space="preserve">
<path d="M3,11H2V8.293L8.293,2H19c2.206,0,4,1.794,4,4v4h-1V6c0-1.654-1.346-3-3-3H8.707L3,8.707V11z"/>
<path d="M12.999,28H6c-2.206,0-4-1.794-4-4V11.125h1V24c0,1.654,1.346,3,3,3h6.999V28z"/>
<path d="M19.5,29.741L8.865,17.702l4.54-6.53h12.189l4.54,6.53L19.5,29.741z M10.135,17.628L19.5,28.231l9.365-10.604l-3.794-5.456
	H13.929L10.135,17.628z"/>
<rect x="9.5" y="17.165" width="20" height="1"/>
<rect x="12.934" y="14.169" transform="matrix(0.5708 -0.8211 0.8211 0.5708 -4.9267 19.9113)" width="7.299" height="0.999"/>
<rect x="21.917" y="11.019" transform="matrix(0.821 -0.5709 0.5709 0.821 -4.3621 15.4218)" width="0.999" height="7.299"/>
<rect x="16.5" y="17.138" transform="matrix(0.9148 -0.404 0.404 0.9148 -7.9745 8.8563)" width="0.999" height="12.376"/>
<rect x="15.812" y="22.826" transform="matrix(0.4045 -0.9145 0.9145 0.4045 -8.2313 34.0101)" width="12.376" height="0.999"/>
</svg>
