<?xml version="1.0" encoding="utf-8"?>
<!-- Generator: Adobe Illustrator 19.2.1, SVG Export Plug-In . SVG Version: 6.00 Build 0)  -->
<svg version="1.0" id="Layer_4" xmlns="http://www.w3.org/2000/svg" xmlns:xlink="http://www.w3.org/1999/xlink" x="0px" y="0px"
	 width="24px" height="24px" viewBox="0 0 24 24" enable-background="new 0 0 24 24" xml:space="preserve">
<path fill="#FFFFFF" d="M20,8h-1V4c0-1.103-0.897-2-2-2H7.707L3,6.707V7H2V6.293L7.293,1H17c1.654,0,3,1.346,3,3V8z"/>
<path fill="#FFFFFF" d="M17,23H5c-1.654,0-3-1.346-3-3v-1h1v1c0,1.103,0.897,2,2,2h12c1.103,0,2-0.897,2-2v-1h1v1
	C20,21.654,18.654,23,17,23z"/>
<polygon fill="#FFFFFF" points="14.816,17 14.816,14.955 14.953,11.689 14.778,11.656 14.721,11.734 12.889,17 12.102,17 
	10.251,11.672 10.077,11.702 10.051,11.797 10.185,14.96 10.185,17 9,17 9,10 10.636,10 12.401,15.31 12.55,15.31 12.603,15.241 
	14.36,10 16,10 16,17 "/>
<path fill="#FFFFFF" d="M19,16h3v1h-4v-7h1V16z"/>
<polygon fill="#FFFFFF" points="5.943,17 4.472,14.087 3,17 1.832,17 3.843,13.469 1.884,10 3.037,10 4.45,12.875 5.887,10 7.05,10 
	5.09,13.471 7.163,17 "/>
</svg>
