<?xml version="1.0" encoding="utf-8"?>
<!-- Generator: Adobe Illustrator 19.2.1, SVG Export Plug-In . SVG Version: 6.00 Build 0)  -->
<svg version="1.0" id="Layer_4" xmlns="http://www.w3.org/2000/svg" xmlns:xlink="http://www.w3.org/1999/xlink" x="0px" y="0px"
	 width="24px" height="24px" viewBox="0 0 24 24" enable-background="new 0 0 24 24" xml:space="preserve">
<path fill="#FFFFFF" d="M20,7h-1V3c0-1.103-0.897-2-2-2H7.707L3,5.707V6H2V5.293L7.293,0H17c1.654,0,3,1.346,3,3V7z"/>
<path fill="#FFFFFF" d="M17,22H5c-1.654,0-3-1.346-3-3v-1h1v1c0,1.103,0.897,2,2,2h12c1.103,0,2-0.897,2-2v-1h1v1
	C20,20.654,18.654,22,17,22z"/>
<path fill="#FFFFFF" d="M14,16h-1.237l-2.498-4.783L10,11.222V16H9V9h1.24l2.498,4.779L13,13.774V9h1V16z"/>
<path fill="#FFFFFF" d="M19.143,16c-0.896,0-1.635-0.26-2.198-0.774c-0.561-0.508-0.845-1.179-0.845-1.995v-1.463
	c0-0.813,0.273-1.484,0.812-1.994C17.453,9.26,18.161,9,19.018,9c0.893,0,1.584,0.202,2.054,0.6c0.453,0.383,0.687,0.785,0.712,1.4
	h-1.246c-0.044-0.353-0.181-0.557-0.407-0.771c-0.247-0.234-0.607-0.353-1.071-0.353c-0.49,0-0.893,0.179-1.196,0.532
	c-0.299,0.35-0.45,0.803-0.45,1.35v1.47c0,0.557,0.156,1.016,0.466,1.364c0.314,0.353,0.739,0.532,1.265,0.532
	c0.366,0,0.654-0.034,0.882-0.107c0.23-0.071,0.895-0.407,1.017-0.517L21,13h-2v-1h2.901v3.044
	c-0.191,0.197-0.533,0.435-0.992,0.641C20.447,15.893,19.853,16,19.143,16z"/>
<path fill="#FFFFFF" d="M2.947,14v2H2V9h2.678c0.747,0,1.305,0.303,1.718,0.688c0.413,0.385,0.643,1.184,0.643,1.812
	c0,0.638-0.306,1.475-0.72,1.854S5.425,14,4.678,14H2.947z M2.947,13h1.651c0.452,0,0.791-0.141,1.014-0.424
	c0.223-0.282,0.335-0.638,0.335-1.068S5.834,10.72,5.61,10.432C5.385,10.144,5.048,10,4.598,10H2.947V13z"/>
</svg>
