<?xml version="1.0" encoding="utf-8"?>
<!-- Generator: Adobe Illustrator 19.2.1, SVG Export Plug-In . SVG Version: 6.00 Build 0)  -->
<svg version="1.0" id="Layer_4" xmlns="http://www.w3.org/2000/svg" xmlns:xlink="http://www.w3.org/1999/xlink" x="0px" y="0px"
	 width="18px" height="18px" viewBox="0 0 18 18" enable-background="new 0 0 18 18" xml:space="preserve">
<path d="M14,5h-1V1.559C13,1.25,12.749,1,12.441,1H5.707L2,4.707V5H1V4.293L5.293,0h7.148C13.301,0,14,0.699,14,1.559V5z"/>
<path d="M12.5,17h-10C1.673,17,1,16.327,1,15.5h1C2,15.776,2.224,16,2.5,16h10c0.275,0,0.5-0.224,0.5-0.5h1
	C14,16.327,13.327,17,12.5,17z"/>
<path d="M1,12.687V7h1.953c0.695,0,1.269,0.222,1.719,0.666S5.348,8.68,5.348,9.375v0.941c0,0.698-0.226,1.268-0.676,1.709
	s-1.023,0.662-1.719,0.662H1z M2.141,7.879v3.93h0.754c0.409,0,0.729-0.138,0.961-0.414s0.348-0.636,0.348-1.081V9.366
	c0-0.439-0.116-0.797-0.348-1.073S3.304,7.879,2.895,7.879H2.141z"/>
<path d="M11.012,10.525c0,0.715-0.233,1.307-0.698,1.774C9.849,12.766,9.246,13,8.502,13c-0.738,0-1.337-0.234-1.798-0.701
	c-0.461-0.467-0.691-1.059-0.691-1.774V9.475c0-0.713,0.229-1.304,0.689-1.772C7.161,7.234,7.76,7,8.498,7
	c0.744,0,1.349,0.234,1.815,0.703c0.466,0.469,0.7,1.059,0.7,1.772V10.525z M9.81,9.47c0-0.455-0.116-0.828-0.35-1.119
	C9.227,8.059,8.906,7.913,8.498,7.913S7.772,8.058,7.547,8.349S7.21,9.013,7.21,9.47v1.059c0,0.463,0.114,0.84,0.342,1.132
	c0.227,0.292,0.544,0.438,0.951,0.438c0.412,0,0.733-0.146,0.963-0.438c0.23-0.291,0.346-0.669,0.346-1.132V9.47z"/>
<path d="M16.461,10.929l0.008,0.024c0.011,0.627-0.177,1.126-0.561,1.494S14.991,13,14.309,13c-0.685,0-1.241-0.226-1.668-0.677
	S12,11.291,12,10.581V9.423c0-0.707,0.208-1.288,0.625-1.742C13.042,7.227,13.583,7,14.25,7c0.703,0,1.253,0.185,1.648,0.555
	c0.396,0.37,0.589,0.874,0.578,1.512l-0.008,0.024h-1.109c0-0.385-0.09-0.679-0.27-0.883s-0.46-0.306-0.84-0.306
	c-0.341,0-0.717,0.142-0.917,0.426c-0.2,0.284-0.334,0.646-0.334,1.086v1.165c0,0.446,0.139,0.81,0.35,1.094
	c0.211,0.284,0.6,0.426,0.96,0.426c0.356,0,0.62-0.098,0.791-0.294c0.171-0.196,0.256-0.488,0.256-0.875H16.461z"/>
</svg>
