<?xml version="1.0" encoding="utf-8"?>
<!-- Generator: Adobe Illustrator 19.2.1, SVG Export Plug-In . SVG Version: 6.00 Build 0)  -->
<svg version="1.0" id="Layer_4" xmlns="http://www.w3.org/2000/svg" xmlns:xlink="http://www.w3.org/1999/xlink" x="0px" y="0px"
	 width="30px" height="30px" viewBox="0 0 30 30" enable-background="new 0 0 30 30" xml:space="preserve">
<path d="M19,28H6c-2.163,0-3.932-1.727-3.998-3.874H2V8.293L8.293,2H19c2.206,0,4,1.794,4,4v5h-1V6c0-1.654-1.346-3-3-3H8.707
	L3,8.707V24c0,1.654,1.346,3,3,3h13c1.654,0,3-1.346,3-3h1C23,26.206,21.206,28,19,28z"/>
<polygon points="22.881,21 20.573,14.2 21.84,14.2 23.335,19.268 23.437,19.719 23.597,19.719 23.644,19.64 23.726,19.271 
	25.227,14.2 26.494,14.2 24.182,21 "/>
<path d="M11.002,18.5c-0.064,0.385-0.23,0.712-0.5,0.977C10.147,19.826,9.654,20,9.022,20c-0.624,0-1.111-0.174-1.462-0.523
	c-0.351-0.348-0.526-0.799-0.526-1.352V16.86c0-0.547,0.173-0.993,0.519-1.34S8.387,15,9.015,15c0.628,0,1.122,0.174,1.48,0.523
	c0.276,0.268,0.443,0.594,0.507,0.977H12c-0.076-0.658-0.336-1.222-0.805-1.68C10.635,14.273,9.909,14,9.017,14
	c-0.885,0-1.604,0.273-2.156,0.82c-0.551,0.547-0.827,1.236-0.827,2.068v1.224c0,0.834,0.277,1.525,0.829,2.07
	C7.417,20.727,8.135,21,9.022,21c0.891,0,1.617-0.273,2.175-0.818C11.665,19.725,11.924,19.16,12,18.5H11.002z"/>
<path d="M16.65,21c-0.717,0-1.351-0.191-1.883-0.57c-0.468-0.334-0.71-0.778-0.738-1.354h0.983c0.038,0.393,0.189,0.696,0.451,0.9
	c0.289,0.227,0.688,0.342,1.187,0.342c0.425,0,0.761-0.096,0.999-0.286c0.252-0.202,0.379-0.475,0.379-0.811
	c0-0.339-0.119-0.616-0.354-0.824c-0.216-0.189-0.567-0.358-1.075-0.516c-0.808-0.24-1.422-0.524-1.826-0.847
	c-0.379-0.302-0.563-0.705-0.563-1.232c0-0.525,0.214-0.945,0.653-1.282c0.451-0.345,1.041-0.52,1.755-0.52
	c0.718,0,1.307,0.195,1.751,0.581c0.395,0.344,0.602,0.745,0.628,1.223h-0.979c-0.039-0.3-0.166-0.553-0.378-0.754
	c-0.252-0.242-0.604-0.364-1.046-0.364c-0.42,0-0.756,0.102-0.997,0.303c-0.253,0.213-0.381,0.488-0.381,0.818
	c0,0.315,0.14,0.574,0.416,0.77c0.237,0.17,0.627,0.342,1.19,0.524c0.745,0.213,1.311,0.494,1.683,0.834
	c0.352,0.32,0.53,0.75,0.53,1.276c0,0.553-0.206,0.976-0.628,1.294C17.97,20.834,17.379,21,16.65,21z"/>
</svg>
