<?xml version="1.0" encoding="utf-8"?>
<!-- Generator: Adobe Illustrator 19.2.1, SVG Export Plug-In . SVG Version: 6.00 Build 0)  -->
<svg version="1.0" id="Layer_4" xmlns="http://www.w3.org/2000/svg" xmlns:xlink="http://www.w3.org/1999/xlink" x="0px" y="0px"
	 width="18px" height="18px" viewBox="0 0 18 18" enable-background="new 0 0 18 18" xml:space="preserve">
<path fill="#FFFFFF" d="M14,5h-1V1.559C13,1.25,12.749,1,12.441,1H5.707L2,4.707V5H1V4.293L5.293,0h7.148
	C13.301,0,14,0.699,14,1.559V5z"/>
<path fill="#FFFFFF" d="M12.5,17h-10C1.673,17,1,16.327,1,15.5h1C2,15.776,2.224,16,2.5,16h10c0.275,0,0.5-0.224,0.5-0.5h1
	C14,16.327,13.327,17,12.5,17z"/>
<path fill="#FFFFFF" d="M17,8h-2v5h-1V8h-2V7h5V8z"/>
<path fill="#FFFFFF" d="M2,10.824V13H1V7h2.279c0.689,0,1.232,0.176,1.628,0.527C5.302,7.879,5.5,8.342,5.5,8.916
	s-0.198,1.036-0.593,1.385c-0.396,0.349-0.939,0.523-1.628,0.523H2z M2,10h1.39c0.335,0,0.589-0.091,0.762-0.274
	C4.326,9.543,4.412,9.283,4.412,9c0-0.288-0.086-0.53-0.258-0.718S3.728,8,3.39,8H2V10z"/>
<path fill="#FFFFFF" d="M8,10.824V13H7V7h2.279c0.689,0,1.232,0.176,1.628,0.527S11.5,8.342,11.5,8.916s-0.198,1.036-0.593,1.385
	s-0.939,0.523-1.628,0.523H8z M8,10h1.39c0.335,0,0.589-0.091,0.762-0.274s0.26-0.443,0.26-0.726c0-0.288-0.086-0.53-0.258-0.718
	S9.728,8,9.39,8H8V10z"/>
</svg>
