<?xml version="1.0" encoding="utf-8"?>
<!-- Generator: Adobe Illustrator 19.2.1, SVG Export Plug-In . SVG Version: 6.00 Build 0)  -->
<svg version="1.0" id="Layer_4" xmlns="http://www.w3.org/2000/svg" xmlns:xlink="http://www.w3.org/1999/xlink" x="0px" y="0px"
	 width="36px" height="36px" viewBox="0 0 36 36" enable-background="new 0 0 36 36" xml:space="preserve">
<path d="M24.558,34h-17c-2.481,0-4.5-2.019-4.5-4.5V10.294L11.292,2h13.266c2.481,0,4.5,2.019,4.5,4.5V12h-1V6.5
	c0-1.93-1.57-3.5-3.5-3.5h-12.85l-7.65,7.706V29.5c0,1.93,1.57,3.5,3.5,3.5h17c1.93,0,3.5-1.57,3.5-3.5V28h1v1.5
	C29.058,31.981,27.039,34,24.558,34z"/>
<path d="M19,24.001h5V25h-6v-8.983h1V24.001z"/>
<polygon points="8.245,24.965 11.039,20.467 8.313,16.059 9.405,16.059 11.492,19.889 13.735,16.01 14.706,16.045 11.971,20.467 
	14.757,24.952 13.673,24.952 11.519,21.062 9.215,25 "/>
<path d="M29.017,25c-0.872,0-1.654-0.238-2.323-0.708c-0.649-0.457-0.965-1.046-0.963-1.798h0.978
	c0.023,0.556,0.251,0.989,0.676,1.288c0.439,0.309,0.989,0.466,1.633,0.466c0.632,0,1.143-0.136,1.517-0.403
	c0.384-0.274,0.578-0.652,0.578-1.124c0-0.434-0.167-0.803-0.496-1.095c-0.324-0.288-0.876-0.522-1.687-0.715
	c-0.933-0.221-1.668-0.549-2.187-0.976c-0.514-0.423-0.764-0.939-0.764-1.577c0-0.663,0.278-1.224,0.825-1.67
	c0.554-0.45,1.284-0.678,2.17-0.678c0.954,0,1.722,0.261,2.282,0.777c0.541,0.498,0.814,1.08,0.812,1.73h-0.978
	c-0.021-0.505-0.206-0.923-0.551-1.243c-0.366-0.339-0.894-0.511-1.566-0.511c-0.627,0-1.117,0.145-1.457,0.432
	c-0.346,0.29-0.521,0.674-0.521,1.14c0,0.42,0.189,0.773,0.565,1.052c0.358,0.266,0.944,0.502,1.74,0.701
	c0.927,0.228,1.639,0.567,2.117,1.007c0.471,0.433,0.71,0.976,0.71,1.614c0,0.693-0.278,1.235-0.85,1.656
	C30.708,24.786,29.946,25,29.017,25z"/>
</svg>
