<?xml version="1.0" encoding="utf-8"?>
<!-- Generator: Adobe Illustrator 19.2.1, SVG Export Plug-In . SVG Version: 6.00 Build 0)  -->
<svg version="1.0" id="Layer_4" xmlns="http://www.w3.org/2000/svg" xmlns:xlink="http://www.w3.org/1999/xlink" x="0px" y="0px"
	 width="36px" height="36px" viewBox="0 0 36 36" enable-background="new 0 0 36 36" xml:space="preserve">
<path fill="#FFFFFF" d="M18,34H7.558c-2.481,0-4.5-2.019-4.5-4.5V10.294L11.292,2h13.266c2.481,0,4.5,2.019,4.5,4.5V10h-1V6.5
	c0-1.93-1.57-3.5-3.5-3.5h-12.85l-7.65,7.706V29.5c0,1.93,1.57,3.5,3.5,3.5H18V34z"/>
<path fill="#FFFFFF" d="M23,35.237L10.374,21.559L15.723,13h14.555l5.349,8.559L23,35.237z M11.626,21.441L23,33.763l11.374-12.321
	L29.723,14H16.277L11.626,21.441z"/>
<rect x="11" y="21" fill="#FFFFFF" width="24" height="1"/>
<rect x="14.783" y="17" transform="matrix(0.5296 -0.8482 0.8482 0.5296 -5.6719 24.7714)" fill="#FFFFFF" width="9.434" height="0.999"/>
<rect x="26" y="12.783" transform="matrix(0.848 -0.53 0.53 0.848 -5.2469 16.705)" fill="#FFFFFF" width="0.999" height="9.434"/>
<rect x="19.5" y="20.841" transform="matrix(0.908 -0.4191 0.4191 0.908 -9.8928 10.9583)" fill="#FFFFFF" width="1.001" height="14.318"/>
<rect x="18.841" y="27.5" transform="matrix(0.4197 -0.9077 0.9077 0.4197 -10.3265 39.8486)" fill="#FFFFFF" width="14.318" height="1.001"/>
</svg>
