<?xml version="1.0" encoding="utf-8"?>
<!-- Generator: Adobe Illustrator 19.2.1, SVG Export Plug-In . SVG Version: 6.00 Build 0)  -->
<svg version="1.0" id="Layer_4" xmlns="http://www.w3.org/2000/svg" xmlns:xlink="http://www.w3.org/1999/xlink" x="0px" y="0px"
	 width="36px" height="36px" viewBox="0 0 36 36" enable-background="new 0 0 36 36" xml:space="preserve">
<path d="M24.558,34h-17c-2.481,0-4.5-2.019-4.5-4.5V10.294L11.292,2h13.266c2.481,0,4.5,2.019,4.5,4.5V12h-1V6.5
	c0-1.93-1.57-3.5-3.5-3.5h-12.85l-7.65,7.706V29.5c0,1.93,1.57,3.5,3.5,3.5h17c1.93,0,3.5-1.57,3.5-3.5V28h1v1.5
	C29.058,31.981,27.039,34,24.558,34z"/>
<path d="M21.016,25c-0.872,0-1.654-0.238-2.323-0.708c-0.649-0.457-0.965-1.046-0.963-1.798h0.978
	c0.023,0.556,0.251,0.989,0.676,1.288c0.439,0.309,0.989,0.466,1.633,0.466c0.632,0,1.143-0.136,1.517-0.403
	c0.384-0.274,0.578-0.652,0.578-1.124c0-0.434-0.167-0.803-0.496-1.095c-0.324-0.288-0.876-0.522-1.687-0.715
	c-0.933-0.221-1.668-0.549-2.187-0.976c-0.514-0.423-0.764-0.939-0.764-1.577c0-0.663,0.278-1.224,0.825-1.67
	c0.554-0.45,1.284-0.678,2.17-0.678c0.954,0,1.722,0.261,2.282,0.777c0.541,0.498,0.814,1.08,0.812,1.73H23.09
	c-0.021-0.505-0.206-0.923-0.551-1.243c-0.366-0.339-0.894-0.511-1.566-0.511c-0.627,0-1.117,0.145-1.457,0.432
	c-0.346,0.29-0.521,0.674-0.521,1.14c0,0.42,0.189,0.773,0.565,1.052c0.358,0.266,0.944,0.502,1.74,0.701
	c0.927,0.228,1.639,0.567,2.117,1.007c0.471,0.433,0.71,0.976,0.71,1.614c0,0.693-0.278,1.235-0.85,1.656
	C22.707,24.786,21.945,25,21.016,25z"/>
<polygon points="30.268,25 27,16 28.107,16 30.406,22.847 30.63,23.643 30.78,23.643 30.838,23.569 31.041,22.842 33.339,16 
	34.44,16 31.173,25 "/>
<path d="M11.493,25c-0.983,0-1.793-0.352-2.407-1.047c-0.616-0.698-0.93-1.59-0.93-2.651v-1.589c0-1.058,0.313-1.949,0.93-2.651
	c0.614-0.698,1.424-1.053,2.407-1.053c1.021,0,1.861,0.354,2.499,1.051c0.46,0.503,0.758,1.111,0.887,1.809h-0.823
	c-0.113-0.481-0.321-0.895-0.621-1.231c-0.483-0.539-1.138-0.813-1.946-0.813c-0.767,0-1.388,0.274-1.846,0.815
	c-0.455,0.536-0.686,1.231-0.686,2.063v1.588c0,0.841,0.23,1.539,0.686,2.075c0.458,0.54,1.079,0.815,1.846,0.815
	c0.812,0,1.468-0.272,1.949-0.81c0.298-0.334,0.506-0.749,0.618-1.234h0.824c-0.129,0.701-0.427,1.31-0.888,1.812
	C13.356,24.648,12.514,25,11.493,25z"/>
</svg>
