<?xml version="1.0" encoding="utf-8"?>
<!-- Generator: Adobe Illustrator 19.2.1, SVG Export Plug-In . SVG Version: 6.00 Build 0)  -->
<svg version="1.0" id="Layer_4" xmlns="http://www.w3.org/2000/svg" xmlns:xlink="http://www.w3.org/1999/xlink" x="0px" y="0px"
	 width="18px" height="18px" viewBox="0 0 18 18" enable-background="new 0 0 18 18" xml:space="preserve">
<path fill="#FFFFFF" d="M14,5h-1V1.559C13,1.251,12.749,1,12.441,1H5.707L2,4.707V5H1V4.293L5.293,0h7.148
	C13.301,0,14,0.699,14,1.559V5z"/>
<path fill="#FFFFFF" d="M12.5,17h-10C1.673,17,1,16.327,1,15.5h1C2,15.775,2.224,16,2.5,16h10c0.275,0,0.5-0.225,0.5-0.5h1
	C14,16.327,13.327,17,12.5,17z"/>
<path fill="#FFFFFF" d="M9.495,11.405l0.072,0.326h0.024l0.068-0.317L10.929,7h1.234l-1.983,6H8.979L7,7h1.234L9.495,11.405z"/>
<path fill="#FFFFFF" d="M18,12.119c-0.188,0.229-0.48,0.434-0.876,0.612C16.726,12.911,16.225,13,15.619,13
	c-0.77,0-1.4-0.221-1.887-0.665C13.244,11.893,13,11.317,13,10.609V9.392c0-0.705,0.235-1.28,0.704-1.724S14.777,7,15.515,7
	c0.767,0,1.356,0.173,1.764,0.52c0.408,0.345,0.617,0.8,0.625,1.363l-0.008,0.025h-1.191c-0.024-0.31-0.13-0.556-0.321-0.736
	c-0.191-0.18-0.469-0.27-0.835-0.27c-0.387,0-0.699,0.138-0.935,0.414c-0.237,0.276-0.355,0.631-0.355,1.067v1.224
	c0,0.444,0.122,0.803,0.368,1.079c0.245,0.276,0.576,0.414,0.991,0.414c0.295,0,0.532-0.028,0.71-0.084
	c0.179-0.056,0.315-0.125,0.407-0.208v-1.078h-1.117V9.92H18V12.119z"/>
<path fill="#FFFFFF" d="M4.433,11.432c0-0.231-0.081-0.417-0.245-0.557c-0.164-0.14-0.45-0.272-0.86-0.396
	c-0.715-0.206-1.256-0.451-1.621-0.734C1.34,9.461,1.158,9.074,1.158,8.581c0-0.492,0.21-0.895,0.629-1.207
	c0.42-0.312,0.955-0.468,1.607-0.468c0.66,0,1.197,0.175,1.613,0.526C5.422,7.783,5.624,8.215,5.61,8.729L5.601,8.754H4.433
	c0-0.278-0.093-0.502-0.278-0.675C3.969,7.908,3.709,7.822,3.374,7.822c-0.322,0-0.571,0.072-0.747,0.215S2.362,8.362,2.362,8.585
	c0,0.204,0.095,0.371,0.283,0.501c0.188,0.131,0.514,0.269,0.976,0.415c0.663,0.185,1.165,0.428,1.506,0.73s0.512,0.7,0.512,1.192
	c0,0.515-0.203,0.92-0.608,1.217c-0.406,0.297-0.941,0.445-1.607,0.445c-0.654,0-1.225-0.168-1.712-0.505s-0.724-0.809-0.71-1.417
	l0.009-0.025h1.172c0,0.357,0.109,0.62,0.327,0.786c0.219,0.167,0.523,0.25,0.914,0.25c0.327,0,0.578-0.067,0.751-0.202
	C4.347,11.838,4.433,11.658,4.433,11.432z"/>
</svg>
