<?xml version="1.0" encoding="utf-8"?>
<!-- Generator: Adobe Illustrator 19.2.1, SVG Export Plug-In . SVG Version: 6.00 Build 0)  -->
<svg version="1.0" id="Layer_4" xmlns="http://www.w3.org/2000/svg" xmlns:xlink="http://www.w3.org/1999/xlink" x="0px" y="0px"
	 width="36px" height="36px" viewBox="0 0 36 36" enable-background="new 0 0 36 36" xml:space="preserve">
<path d="M24.558,34h-17c-2.481,0-4.5-2.019-4.5-4.5V10.294L11.292,2h13.266c2.481,0,4.5,2.019,4.5,4.5V12h-1V6.5
	c0-1.93-1.57-3.5-3.5-3.5h-12.85l-7.65,7.706V29.5c0,1.93,1.57,3.5,3.5,3.5h17c1.93,0,3.5-1.57,3.5-3.5V28h1v1.5
	C29.058,31.981,27.039,34,24.558,34z"/>
<path d="M21.437,24.995c-0.983,0-1.793-0.352-2.407-1.047c-0.616-0.698-0.93-1.59-0.93-2.651v-1.589c0-1.058,0.313-1.949,0.93-2.651
	c0.614-0.698,1.424-1.053,2.407-1.053c1.02,0,1.861,0.354,2.499,1.051c0.64,0.698,0.965,1.591,0.965,2.652v1.589
	c0,1.061-0.325,1.952-0.965,2.649C23.299,24.643,22.458,24.995,21.437,24.995z M21.432,16.822c-0.767,0-1.388,0.274-1.846,0.814
	c-0.455,0.537-0.686,1.231-0.686,2.064v1.588c0,0.841,0.23,1.539,0.686,2.076c0.458,0.54,1.079,0.814,1.846,0.814
	c0.812,0,1.468-0.272,1.949-0.81c0.478-0.535,0.719-1.235,0.719-2.08V19.7c0-0.834-0.242-1.528-0.722-2.066
	C22.894,17.096,22.24,16.822,21.432,16.822z"/>
<path d="M30.338,24.995c-0.983,0-1.793-0.352-2.407-1.047c-0.616-0.698-0.93-1.59-0.93-2.651v-1.589c0-1.058,0.313-1.949,0.93-2.651
	c0.614-0.698,1.424-1.053,2.407-1.053c1.021,0,1.861,0.354,2.499,1.051c0.46,0.503,0.758,1.111,0.887,1.809H32.9
	c-0.113-0.481-0.321-0.895-0.621-1.231c-0.483-0.539-1.138-0.813-1.946-0.813c-0.767,0-1.388,0.274-1.846,0.815
	c-0.455,0.536-0.686,1.231-0.686,2.063v1.588c0,0.841,0.23,1.539,0.686,2.075c0.458,0.54,1.079,0.815,1.846,0.815
	c0.812,0,1.468-0.272,1.949-0.81c0.298-0.334,0.506-0.749,0.618-1.234h0.824c-0.129,0.701-0.427,1.31-0.888,1.812
	C32.2,24.643,31.358,24.995,30.338,24.995z"/>
<path d="M9,25v-9h3.051c1.104,0,1.99,0.362,2.659,1.085c0.667,0.723,1.002,1.658,1.002,2.803v1.23c0,1.15-0.335,2.084-1.002,2.803
	C14.042,24.64,13.155,25,12.051,25H9z M10,16.958v7.084h2c0.828,0,1.481-0.274,1.96-0.821c0.478-0.548,0.717-1.249,0.717-2.106
	v-1.242c0-0.848-0.239-1.546-0.717-2.093c-0.479-0.547-1.132-0.822-1.96-0.822H10z"/>
</svg>
