<?xml version="1.0" encoding="utf-8"?>
<!-- Generator: Adobe Illustrator 19.2.1, SVG Export Plug-In . SVG Version: 6.00 Build 0)  -->
<svg version="1.0" id="Layer_4" xmlns="http://www.w3.org/2000/svg" xmlns:xlink="http://www.w3.org/1999/xlink" x="0px" y="0px"
	 width="36px" height="36px" viewBox="0 0 36 36" enable-background="new 0 0 36 36" xml:space="preserve">
<path fill="#FFFFFF" d="M24.558,34h-17c-2.481,0-4.5-2.019-4.5-4.5V10.294L11.292,2h13.266c2.481,0,4.5,2.019,4.5,4.5V12h-1V6.5
	c0-1.93-1.57-3.5-3.5-3.5h-12.85l-7.65,7.706V29.5c0,1.93,1.57,3.5,3.5,3.5h17c1.93,0,3.5-1.57,3.5-3.5V28h1v1.5
	C29.058,31.981,27.039,34,24.558,34z"/>
<path fill="#FFFFFF" d="M30.789,25.08c-1.094,0-2.008-0.336-2.719-0.999c-0.71-0.659-1.069-1.526-1.069-2.576v-1.843
	c0-1.05,0.337-1.918,0.999-2.579c0.66-0.659,1.527-0.995,2.575-0.995c1.047,0,1.88,0.246,2.475,0.732
	c0.571,0.466,0.874,1.071,0.904,1.802h-1.029c-0.058-0.503-0.276-0.926-0.648-1.257c-0.396-0.352-0.968-0.53-1.701-0.53
	c-0.747,0-1.358,0.269-1.817,0.802c-0.453,0.528-0.683,1.204-0.683,2.011v1.851c0,0.815,0.257,1.497,0.765,2.029
	c0.509,0.532,1.164,0.801,1.949,0.801c0.544,0,0.998-0.07,1.35-0.208c0.36-0.143,0.612-0.302,0.77-0.489l0.024-2.55h-2.062v-0.999
	h3.129v3.783c-0.195,0.251-0.574,0.544-1.11,0.81C32.355,24.946,31.648,25.08,30.789,25.08z"/>
<path fill="#FFFFFF" d="M11.287,25.08c-0.872,0-1.654-0.238-2.323-0.708c-0.649-0.457-0.965-1.046-0.963-1.798h0.978
	c0.023,0.556,0.251,0.989,0.676,1.288c0.439,0.309,0.989,0.466,1.633,0.466c0.632,0,1.143-0.136,1.517-0.403
	c0.384-0.274,0.578-0.652,0.578-1.124c0-0.434-0.167-0.803-0.496-1.095c-0.324-0.288-0.876-0.522-1.687-0.715
	c-0.933-0.221-1.668-0.549-2.187-0.976c-0.514-0.423-0.764-0.939-0.764-1.577c0-0.663,0.278-1.224,0.825-1.67
	c0.554-0.45,1.284-0.678,2.17-0.678c0.954,0,1.722,0.261,2.282,0.777c0.541,0.498,0.814,1.08,0.812,1.73h-0.978
	c-0.021-0.505-0.206-0.923-0.551-1.243c-0.366-0.339-0.894-0.511-1.566-0.511c-0.627,0-1.117,0.145-1.457,0.432
	c-0.346,0.29-0.521,0.674-0.521,1.14c0,0.42,0.189,0.773,0.565,1.052c0.358,0.266,0.944,0.502,1.74,0.701
	c0.927,0.228,1.639,0.567,2.117,1.007c0.471,0.433,0.71,0.976,0.71,1.614c0,0.693-0.278,1.235-0.85,1.656
	C12.977,24.866,12.215,25.08,11.287,25.08z"/>
<polygon fill="#FFFFFF" points="20.405,25.08 17.138,16.09 18.245,16.09 20.544,22.93 20.767,23.725 20.918,23.725 20.975,23.651 
	21.179,22.925 23.476,16.09 24.578,16.09 21.31,25.08 "/>
</svg>
