<?xml version="1.0" encoding="utf-8"?>
<!-- Generator: Adobe Illustrator 19.2.1, SVG Export Plug-In . SVG Version: 6.00 Build 0)  -->
<svg version="1.0" id="Layer_4" xmlns="http://www.w3.org/2000/svg" xmlns:xlink="http://www.w3.org/1999/xlink" x="0px" y="0px"
	 width="24px" height="24px" viewBox="0 0 24 24" enable-background="new 0 0 24 24" xml:space="preserve">
<path d="M20,8h-1V4c0-1.103-0.897-2-2-2H7.707L3,6.707V7H2V6.293L7.293,1H17c1.654,0,3,1.346,3,3V8z"/>
<path d="M17,23H5c-1.654,0-3-1.346-3-3v-3h1v3c0,1.103,0.897,2,2,2h12c1.103,0,2-0.897,2-2v-1h1v1C20,21.654,18.654,23,17,23z"/>
<path d="M8,11H6v6H5v-6H3v-1h5V11z"/>
<path d="M22,11h-2v6h-1v-6h-2v-1h5V11z"/>
<polygon points="13.944,17 12.472,14.087 11,17 9.833,17 11.843,13.469 9.884,10 11.038,10 12.451,12.875 13.887,10 15.05,10 
	13.09,13.471 15.164,17 "/>
</svg>
