<?xml version="1.0" encoding="utf-8"?>
<!-- Generator: Adobe Illustrator 19.2.1, SVG Export Plug-In . SVG Version: 6.00 Build 0)  -->
<svg version="1.0" id="Layer_4" xmlns="http://www.w3.org/2000/svg" xmlns:xlink="http://www.w3.org/1999/xlink" x="0px" y="0px"
	 width="30px" height="30px" viewBox="0 0 30 30" enable-background="new 0 0 30 30" xml:space="preserve">
<path fill="#FFFFFF" d="M19,28H6c-2.163,0-3.932-1.727-3.998-3.874H2V8.293L8.293,2H19c2.206,0,4,1.794,4,4v5h-1V6
	c0-1.654-1.346-3-3-3H8.707L3,8.707V24c0,1.654,1.346,3,3,3h13c1.654,0,3-1.346,3-3h1C23,26.206,21.206,28,19,28z"/>
<polygon fill="#FFFFFF" points="18.85,22 18.85,19.955 18.986,16.688 18.811,16.655 18.755,16.734 16.923,22 16.136,22 
	14.285,16.671 14.11,16.702 14.085,16.797 14.219,19.959 14.219,22 13.034,22 13.034,15 14.67,15 16.435,20.31 16.584,20.31 
	16.636,20.241 18.393,15 20.034,15 20.034,22 "/>
<path fill="#FFFFFF" d="M23.034,21h3v1h-4v-7h1V21z"/>
<polygon fill="#FFFFFF" points="9.977,22 8.505,19.086 7.034,22 5.866,22 7.876,18.469 5.917,15 7.071,15 8.484,17.875 9.92,15 
	11.083,15 9.123,18.471 11.197,22 "/>
</svg>
