<?xml version="1.0" encoding="utf-8"?>
<!-- Generator: Adobe Illustrator 19.2.1, SVG Export Plug-In . SVG Version: 6.00 Build 0)  -->
<svg version="1.0" id="Layer_4" xmlns="http://www.w3.org/2000/svg" xmlns:xlink="http://www.w3.org/1999/xlink" x="0px" y="0px"
	 width="24px" height="24px" viewBox="0 0 24 24" enable-background="new 0 0 24 24" xml:space="preserve">
<path d="M20,7h-1V3c0-1.103-0.897-2-2-2H7.707L3,5.707V6H2V5.293L7.293,0H17c1.654,0,3,1.346,3,3V7z"/>
<path d="M11,22H5c-1.654,0-3-1.346-3-3V6h1v13c0,1.103,0.897,2,2,2h6V22z"/>
<path d="M15.503,23.234l-8.131-8.673L10.848,9h9.301l3.48,5.431L15.503,23.234z M8.628,14.438l6.869,7.327l6.874-7.446L19.602,10
	h-8.199L8.628,14.438z"/>
<rect x="8" y="14" width="15" height="1"/>
<rect x="10.364" y="11.5" transform="matrix(0.5296 -0.8482 0.8482 0.5296 -3.917 16.9361)" width="5.896" height="0.999"/>
<rect x="17.188" y="9.052" transform="matrix(0.848 -0.53 0.53 0.848 -3.6715 11.1984)" width="0.999" height="5.896"/>
<rect x="13.125" y="14.082" transform="matrix(0.9055 -0.4244 0.4244 0.9055 -6.5639 7.5319)" width="1" height="8.835"/>
<rect x="12.957" y="18" transform="matrix(0.4236 -0.9058 0.9058 0.4236 -6.7436 26.4016)" width="8.835" height="1"/>
</svg>
