<?xml version="1.0" encoding="utf-8"?>
<!-- Generator: Adobe Illustrator 19.2.1, SVG Export Plug-In . SVG Version: 6.00 Build 0)  -->
<svg version="1.0" id="Layer_4" xmlns="http://www.w3.org/2000/svg" xmlns:xlink="http://www.w3.org/1999/xlink" x="0px" y="0px"
	 width="24px" height="24px" viewBox="0 0 24 24" enable-background="new 0 0 24 24" xml:space="preserve">
<path fill="#FFFFFF" d="M20,8h-1V4c0-1.103-0.897-2-2-2H7.707L3,6.707V7H2V6.293L7.293,1H17c1.654,0,3,1.346,3,3V8z"/>
<path fill="#FFFFFF" d="M17,23H5c-1.654,0-3-1.346-3-3v-1h1v1c0,1.103,0.897,2,2,2h12c1.103,0,2-0.897,2-2v-1h1v1
	C20,21.654,18.654,23,17,23z"/>
<polygon fill="#FFFFFF" points="10.847,17 8.539,10.2 9.806,10.2 11.301,15.268 11.402,15.719 11.562,15.719 11.609,15.641 
	11.691,15.271 13.192,10.2 14.46,10.2 12.147,17 "/>
<path fill="#FFFFFF" d="M19.143,17c-0.896,0-1.635-0.26-2.198-0.774c-0.561-0.508-0.845-1.179-0.845-1.995v-1.463
	c0-0.813,0.273-1.484,0.812-1.994C17.453,10.26,18.161,10,19.018,10c0.893,0,1.584,0.202,2.054,0.6
	c0.453,0.383,0.687,0.785,0.712,1.4h-1.246c-0.044-0.353-0.181-0.557-0.407-0.771c-0.247-0.234-0.607-0.353-1.071-0.353
	c-0.49,0-0.893,0.179-1.196,0.532c-0.299,0.35-0.45,0.803-0.45,1.35v1.47c0,0.557,0.156,1.016,0.466,1.364
	c0.314,0.353,0.739,0.532,1.265,0.532c0.366,0,0.654-0.034,0.882-0.107c0.23-0.071,0.895-0.407,1.017-0.517L21,14h-2v-1h2.901v3.044
	c-0.191,0.197-0.533,0.435-0.992,0.641C20.447,16.893,19.853,17,19.143,17z"/>
<path fill="#FFFFFF" d="M3.621,17c-0.717,0-1.351-0.191-1.883-0.57C1.271,16.097,1.028,15.653,1,15.077h0.983
	c0.038,0.393,0.189,0.696,0.451,0.9c0.289,0.227,0.688,0.342,1.187,0.342c0.425,0,0.761-0.096,0.999-0.286
	c0.252-0.202,0.379-0.475,0.379-0.811c0-0.339-0.119-0.616-0.354-0.824c-0.216-0.189-0.567-0.358-1.075-0.516
	c-0.808-0.24-1.422-0.524-1.826-0.847C1.364,12.733,1.18,12.33,1.18,11.803c0-0.525,0.214-0.945,0.653-1.282
	C2.284,10.175,2.874,10,3.588,10c0.718,0,1.307,0.195,1.751,0.581c0.395,0.344,0.602,0.745,0.628,1.223H4.987
	c-0.039-0.3-0.166-0.553-0.378-0.754c-0.252-0.242-0.604-0.364-1.046-0.364c-0.42,0-0.756,0.102-0.997,0.303
	c-0.253,0.213-0.381,0.488-0.381,0.818c0,0.315,0.14,0.574,0.416,0.77c0.237,0.17,0.627,0.342,1.19,0.524
	c0.745,0.213,1.311,0.494,1.683,0.834c0.352,0.32,0.53,0.75,0.53,1.276c0,0.553-0.206,0.976-0.628,1.294
	C4.941,16.834,4.351,17,3.621,17z"/>
</svg>
