<?xml version="1.0" encoding="utf-8"?>
<!-- Generator: Adobe Illustrator 19.2.1, SVG Export Plug-In . SVG Version: 6.00 Build 0)  -->
<svg version="1.0" id="Layer_4" xmlns="http://www.w3.org/2000/svg" xmlns:xlink="http://www.w3.org/1999/xlink" x="0px" y="0px"
	 width="30px" height="30px" viewBox="0 0 30 30" enable-background="new 0 0 30 30" xml:space="preserve">
<path d="M19,28H6c-2.163,0-3.932-1.727-3.998-3.874H2V8.293L8.293,2H19c2.206,0,4,1.794,4,4v5h-1V6c0-1.654-1.346-3-3-3H8.707
	L3,8.707V24c0,1.654,1.346,3,3,3h13c1.654,0,3-1.346,3-3h1C23,26.206,21.206,28,19,28z"/>
<path d="M6.981,19v2H6.034v-7h2.678c0.747,0,1.305,0.303,1.718,0.688s0.643,1.184,0.643,1.812c0,0.638-0.306,1.475-0.72,1.854
	C9.939,18.734,9.459,19,8.712,19H6.981z M6.981,18h1.651c0.452,0,0.791-0.141,1.014-0.424s0.335-0.638,0.335-1.068
	s-0.113-0.788-0.337-1.076C9.418,15.144,9.082,15,8.632,15H6.981V18z"/>
<path d="M13.034,21v-7h2.071c0.883,0,1.592,0.281,2.127,0.844s0.802,1.289,0.802,2.18v0.957c0,0.894-0.267,1.621-0.802,2.18
	C16.697,20.72,15.988,21,15.105,21H13.034z M14.034,15v5h1.095c0.589,0,1.055-0.193,1.395-0.58c0.34-0.387,0.51-0.882,0.51-1.486
	v-0.876c0-0.599-0.17-1.091-0.51-1.478C16.183,15.193,15.718,15,15.129,15H14.034z"/>
<path d="M24.034,18h-3v3h-1v-7h5v1h-4v2h3V18z"/>
</svg>
