<?xml version="1.0" encoding="utf-8"?>
<!-- Generator: Adobe Illustrator 19.2.1, SVG Export Plug-In . SVG Version: 6.00 Build 0)  -->
<svg version="1.0" id="Layer_4" xmlns="http://www.w3.org/2000/svg" xmlns:xlink="http://www.w3.org/1999/xlink" x="0px" y="0px"
	 width="30px" height="30px" viewBox="0 0 30 30" enable-background="new 0 0 30 30" xml:space="preserve">
<path fill="#FFFFFF" d="M19,28H6c-2.163,0-3.932-1.727-3.998-3.874H2V8.293L8.293,2H19c2.206,0,4,1.794,4,4v5h-1V6
	c0-1.654-1.346-3-3-3H8.707L3,8.707V24c0,1.654,1.346,3,3,3h13c1.654,0,3-1.346,3-3h1C23,26.206,21.206,28,19,28z"/>
<path fill="#FFFFFF" d="M18,21h-1.237l-2.498-4.783L14,16.222V21h-1v-7h1.24l2.498,4.779L17,18.774V14h1V21z"/>
<path fill="#FFFFFF" d="M23.143,21c-0.896,0-1.635-0.26-2.198-0.774c-0.561-0.508-0.845-1.179-0.845-1.995v-1.463
	c0-0.813,0.273-1.484,0.812-1.994C21.453,14.26,22.161,14,23.018,14c0.893,0,1.584,0.202,2.054,0.6
	c0.453,0.383,0.687,0.785,0.712,1.4h-1.246c-0.044-0.353-0.181-0.557-0.407-0.771c-0.247-0.234-0.607-0.353-1.071-0.353
	c-0.49,0-0.893,0.179-1.196,0.532c-0.299,0.35-0.45,0.803-0.45,1.35v1.47c0,0.557,0.156,1.016,0.466,1.364
	c0.314,0.353,0.739,0.532,1.265,0.532c0.366,0,0.654-0.034,0.882-0.107c0.23-0.071,0.895-0.407,1.017-0.517L25,18h-2v-1h2.901v3.044
	c-0.191,0.197-0.533,0.435-0.992,0.641C24.447,20.893,23.853,21,23.143,21z"/>
<path fill="#FFFFFF" d="M6.947,19v2H6v-7h2.678c0.747,0,1.305,0.303,1.718,0.688s0.643,1.184,0.643,1.812
	c0,0.638-0.306,1.475-0.72,1.854C9.905,18.734,9.425,19,8.678,19H6.947z M6.947,18h1.651c0.452,0,0.791-0.141,1.014-0.424
	s0.335-0.638,0.335-1.068s-0.113-0.788-0.337-1.076C9.385,15.144,9.048,15,8.599,15H6.947V18z"/>
</svg>
