<?xml version="1.0" encoding="utf-8"?>
<!-- Generator: Adobe Illustrator 19.2.1, SVG Export Plug-In . SVG Version: 6.00 Build 0)  -->
<svg version="1.0" id="Layer_4" xmlns="http://www.w3.org/2000/svg" xmlns:xlink="http://www.w3.org/1999/xlink" x="0px" y="0px"
	 width="36px" height="36px" viewBox="0 0 36 36" enable-background="new 0 0 36 36" xml:space="preserve">
<path d="M24.558,34h-17c-2.481,0-4.5-2.019-4.5-4.5V10.294L11.292,2h13.266c2.481,0,4.5,2.019,4.5,4.5V12h-1V6.5
	c0-1.93-1.57-3.5-3.5-3.5h-12.85l-7.65,7.706V29.5c0,1.93,1.57,3.5,3.5,3.5h17c1.93,0,3.5-1.57,3.5-3.5V28h1v1.5
	C29.058,31.981,27.039,34,24.558,34z"/>
<polygon points="25,25 25,21.465 25.074,17.642 24.906,17.611 24.843,17.681 21.847,25 21.147,25 18.132,17.622 17.965,17.657 
	17.936,17.749 18,21.468 18,25 17,25 17,16.01 18.443,16.01 21.413,23.481 21.55,23.481 21.614,23.417 24.558,16.01 26,16.01 26,25 
	"/>
<path d="M29,24.001h5V25h-6v-8.983h1V24.001z"/>
<polygon points="8.244,24.965 11.039,20.467 8.312,16.059 9.404,16.059 11.491,19.889 13.734,16.01 14.705,16.046 11.971,20.467 
	14.757,24.952 13.673,24.952 11.519,21.062 9.215,25 "/>
</svg>
