<?xml version="1.0" encoding="utf-8"?>
<!-- Generator: Adobe Illustrator 19.2.1, SVG Export Plug-In . SVG Version: 6.00 Build 0)  -->
<svg version="1.0" id="Layer_4" xmlns="http://www.w3.org/2000/svg" xmlns:xlink="http://www.w3.org/1999/xlink" x="0px" y="0px"
	 width="24px" height="24px" viewBox="0 0 24 24" enable-background="new 0 0 24 24" xml:space="preserve">
<path fill="#FFFFFF" d="M20,8h-1V4c0-1.103-0.897-2-2-2H7.707L3,6.707V7H2V6.293L7.293,1H17c1.654,0,3,1.346,3,3V8z"/>
<path fill="#FFFFFF" d="M17,23H5c-1.654,0-3-1.346-3-3v-1h1v1c0,1.103,0.897,2,2,2h12c1.103,0,2-0.897,2-2v-1h1v1
	C20,21.654,18.654,23,17,23z"/>
<path fill="#FFFFFF" d="M2.947,15v2H2v-7h2.678c0.747,0,1.305,0.303,1.718,0.688c0.413,0.385,0.643,1.184,0.643,1.812
	c0,0.638-0.306,1.475-0.72,1.854S5.425,15,4.678,15H2.947z M2.947,14h1.651c0.452,0,0.791-0.141,1.014-0.424
	c0.223-0.282,0.335-0.638,0.335-1.068S5.834,11.72,5.61,11.432C5.385,11.144,5.048,11,4.598,11H2.947V14z"/>
<path fill="#FFFFFF" d="M9,17v-7h2.071c0.883,0,1.592,0.281,2.127,0.844S14,12.133,14,13.024v0.957c0,0.894-0.267,1.621-0.802,2.18
	C12.664,16.72,11.955,17,11.071,17H9z M10,11v5h1.095c0.589,0,1.055-0.193,1.395-0.58c0.34-0.387,0.51-0.882,0.51-1.486v-0.876
	c0-0.599-0.17-1.091-0.51-1.478C12.149,11.193,11.684,11,11.095,11H10z"/>
<path fill="#FFFFFF" d="M20,14h-3v3h-1v-7h5v1h-4v2h3V14z"/>
</svg>
