<?xml version="1.0" encoding="utf-8"?>
<!-- Generator: Adobe Illustrator 19.2.1, SVG Export Plug-In . SVG Version: 6.00 Build 0)  -->
<svg version="1.0" id="Layer_4" xmlns="http://www.w3.org/2000/svg" xmlns:xlink="http://www.w3.org/1999/xlink" x="0px" y="0px"
	 width="30px" height="30px" viewBox="0 0 30 30" enable-background="new 0 0 30 30" xml:space="preserve">
<path d="M19,28H6c-2.163,0-3.932-1.727-3.998-3.874H2V8.293L8.293,2H19c2.206,0,4,1.794,4,4v5h-1V6c0-1.654-1.346-3-3-3H8.707
	L3,8.707V24c0,1.654,1.346,3,3,3h13c1.654,0,3-1.346,3-3h1C23,26.206,21.206,28,19,28z"/>
<path d="M19.034,18.112c0,0.834-0.279,1.525-0.837,2.07C17.639,20.727,16.913,21,16.022,21c-0.886,0-1.605-0.273-2.159-0.818
	c-0.552-0.545-0.829-1.235-0.829-2.07v-1.224c0-0.832,0.276-1.521,0.827-2.068c0.551-0.547,1.27-0.82,2.156-0.82
	c0.892,0,1.618,0.273,2.178,0.82c0.559,0.547,0.839,1.236,0.839,2.068V18.112z M18.034,16.86c0-0.544-0.18-0.989-0.538-1.338
	C17.137,15.174,16.643,15,16.015,15c-0.628,0-1.117,0.173-1.462,0.52c-0.346,0.347-0.519,0.793-0.519,1.34v1.265
	c0,0.553,0.175,1.003,0.526,1.352C14.91,19.825,15.397,20,16.022,20c0.632,0,1.126-0.174,1.48-0.523
	c0.355-0.348,0.532-0.799,0.532-1.352V16.86z"/>
<path d="M6.034,21v-7h2.071c0.883,0,1.592,0.281,2.127,0.844s0.802,1.289,0.802,2.18v0.957c0,0.894-0.267,1.621-0.802,2.18
	C9.697,20.72,8.988,21,8.105,21H6.034z M7.034,15v5h1.095c0.589,0,1.055-0.193,1.395-0.58c0.34-0.387,0.51-0.882,0.51-1.486v-0.876
	c0-0.599-0.17-1.091-0.51-1.478C9.183,15.193,8.718,15,8.129,15H7.034z"/>
<path d="M26.002,18.5c-0.064,0.385-0.23,0.712-0.5,0.977C25.147,19.825,24.654,20,24.022,20c-0.624,0-1.111-0.174-1.462-0.523
	c-0.351-0.348-0.526-0.799-0.526-1.352V16.86c0-0.547,0.173-0.993,0.519-1.34S23.387,15,24.015,15c0.628,0,1.122,0.174,1.48,0.523
	c0.276,0.268,0.443,0.594,0.507,0.977H27c-0.076-0.658-0.336-1.222-0.805-1.68c-0.56-0.547-1.285-0.82-2.178-0.82
	c-0.885,0-1.604,0.273-2.156,0.82c-0.551,0.547-0.827,1.236-0.827,2.068v1.224c0,0.834,0.277,1.525,0.829,2.07
	C22.417,20.727,23.135,21,24.022,21c0.891,0,1.617-0.273,2.175-0.818C26.665,19.725,26.924,19.16,27,18.5H26.002z"/>
</svg>
