<?xml version="1.0" encoding="utf-8"?>
<!-- Generator: Adobe Illustrator 19.2.1, SVG Export Plug-In . SVG Version: 6.00 Build 0)  -->
<svg version="1.0" id="Layer_4" xmlns="http://www.w3.org/2000/svg" xmlns:xlink="http://www.w3.org/1999/xlink" x="0px" y="0px"
	 width="24px" height="24px" viewBox="0 0 24 24" enable-background="new 0 0 24 24" xml:space="preserve">
<path fill="#FFFFFF" d="M20,8h-1V4c0-1.103-0.897-2-2-2H7.707L3,6.707V7H2V6.293L7.293,1H17c1.654,0,3,1.346,3,3V8z"/>
<path fill="#FFFFFF" d="M17,23H5c-1.654,0-3-1.346-3-3v-1h1v1c0,1.103,0.897,2,2,2h12c1.103,0,2-0.897,2-2v-1h1v1
	C20,21.654,18.654,23,17,23z"/>
<polygon fill="#FFFFFF" points="18.847,17 16.54,10.2 17.806,10.2 19.301,15.268 19.403,15.719 19.563,15.719 19.61,15.641 
	19.692,15.271 21.193,10.2 22.46,10.2 20.148,17 "/>
<path fill="#FFFFFF" d="M6.969,14.5c-0.064,0.385-0.23,0.712-0.5,0.977C6.114,15.826,5.62,16,4.988,16
	c-0.624,0-1.111-0.174-1.462-0.523C3.175,15.129,3,14.678,3,14.126V12.86c0-0.547,0.173-0.993,0.519-1.34S4.353,11,4.982,11
	c0.628,0,1.122,0.174,1.48,0.523c0.276,0.268,0.443,0.594,0.507,0.977h0.997c-0.076-0.658-0.336-1.222-0.805-1.68
	C6.601,10.273,5.875,10,4.983,10c-0.885,0-1.604,0.273-2.156,0.82C2.276,11.367,2,12.056,2,12.888v1.224
	c0,0.834,0.277,1.525,0.829,2.07C3.383,16.727,4.102,17,4.988,17c0.891,0,1.617-0.273,2.175-0.818
	c0.468-0.457,0.728-1.022,0.803-1.682H6.969z"/>
<path fill="#FFFFFF" d="M12.616,17c-0.717,0-1.351-0.191-1.883-0.57c-0.468-0.334-0.71-0.778-0.738-1.354h0.983
	c0.038,0.393,0.189,0.696,0.451,0.9c0.289,0.227,0.688,0.342,1.187,0.342c0.425,0,0.761-0.096,0.999-0.286
	c0.252-0.202,0.379-0.475,0.379-0.811c0-0.339-0.119-0.616-0.354-0.824c-0.216-0.189-0.567-0.358-1.075-0.516
	c-0.808-0.24-1.422-0.524-1.826-0.847c-0.379-0.302-0.563-0.705-0.563-1.232c0-0.525,0.214-0.945,0.653-1.282
	c0.451-0.345,1.041-0.52,1.755-0.52c0.718,0,1.307,0.195,1.751,0.581c0.395,0.344,0.602,0.745,0.628,1.223h-0.979
	c-0.039-0.3-0.166-0.553-0.378-0.754c-0.252-0.242-0.604-0.364-1.046-0.364c-0.42,0-0.756,0.102-0.997,0.303
	c-0.253,0.213-0.381,0.488-0.381,0.818c0,0.315,0.14,0.574,0.416,0.77c0.237,0.17,0.627,0.342,1.19,0.524
	c0.745,0.213,1.311,0.494,1.683,0.834c0.352,0.32,0.53,0.75,0.53,1.276c0,0.553-0.206,0.976-0.628,1.294
	C13.937,16.834,13.346,17,12.616,17z"/>
</svg>
