<?xml version="1.0" encoding="utf-8"?>
<!-- Generator: Adobe Illustrator 19.2.1, SVG Export Plug-In . SVG Version: 6.00 Build 0)  -->
<svg version="1.0" id="Layer_4" xmlns="http://www.w3.org/2000/svg" xmlns:xlink="http://www.w3.org/1999/xlink" x="0px" y="0px"
	 width="18px" height="18px" viewBox="0 0 18 18" enable-background="new 0 0 18 18" xml:space="preserve">
<path d="M14,5h-1V1.559C13,1.25,12.749,1,12.441,1H5.707L2,4.707V5H1V4.293L5.293,0h7.148C13.301,0,14,0.699,14,1.559V5z"/>
<path d="M12.5,17h-10C1.673,17,1,16.327,1,15.5h1C2,15.776,2.224,16,2.5,16h10c0.275,0,0.5-0.224,0.5-0.5h1
	C14,16.327,13.327,17,12.5,17z"/>
<path d="M5,8H3v5H2V8H0V7h5V8z"/>
<path d="M17,8h-2v5h-1V8h-2V7h5V8z"/>
<polygon points="9.656,13 8.477,10.64 7.297,13 6.174,13 7.88,9.974 6.218,7 7.328,7 8.46,9.325 9.608,7 10.728,7 9.065,9.975 
	10.824,13 "/>
</svg>
