<?xml version="1.0" encoding="utf-8"?>
<!-- Generator: Adobe Illustrator 19.2.1, SVG Export Plug-In . SVG Version: 6.00 Build 0)  -->
<svg version="1.0" id="Layer_4" xmlns="http://www.w3.org/2000/svg" xmlns:xlink="http://www.w3.org/1999/xlink" x="0px" y="0px"
	 width="18px" height="18px" viewBox="0 0 18 18" enable-background="new 0 0 18 18" xml:space="preserve">
<path fill="#FFFFFF" d="M9,17H2.5C1.673,17,1,16.327,1,15.5V4.293L5.293,0h7.148C13.301,0,14,0.699,14,1.559V5h-1V1.559
	C13,1.251,12.749,1,12.441,1H5.707L2,4.707V15.5C2,15.775,2.224,16,2.5,16H9V17z"/>
<path fill="#FFFFFF" d="M11.5,17.737l-6.626-7.179L7.723,6h7.555l2.849,4.559L11.5,17.737z M6.126,10.441l5.374,5.821l5.374-5.821
	L14.723,7H8.277L6.126,10.441z"/>
<rect x="5.5" y="10" fill="#FFFFFF" width="12" height="1"/>
<rect x="7.392" y="8" transform="matrix(0.5296 -0.8482 0.8482 0.5296 -2.6239 12.2681)" fill="#FFFFFF" width="4.717" height="0.999"/>
<rect x="12.75" y="6.142" transform="matrix(0.848 -0.53 0.53 0.848 -2.491 8.3145)" fill="#FFFFFF" width="0.999" height="4.717"/>
<rect x="9.5" y="10.171" transform="matrix(0.908 -0.4191 0.4191 0.908 -4.8416 5.4561)" fill="#FFFFFF" width="1.001" height="7.159"/>
<rect x="9.421" y="13.25" transform="matrix(0.4197 -0.9077 0.9077 0.4197 -4.9363 19.7792)" fill="#FFFFFF" width="7.159" height="1.001"/>
</svg>
