<?xml version="1.0" encoding="utf-8"?>
<!-- Generator: Adobe Illustrator 19.2.1, SVG Export Plug-In . SVG Version: 6.00 Build 0)  -->
<svg version="1.0" id="Layer_4" xmlns="http://www.w3.org/2000/svg" xmlns:xlink="http://www.w3.org/1999/xlink" x="0px" y="0px"
	 width="36px" height="36px" viewBox="0 0 36 36" enable-background="new 0 0 36 36" xml:space="preserve">
<path fill="#FFFFFF" d="M24.558,34h-17c-2.481,0-4.5-2.019-4.5-4.5V10.294L11.292,2h13.266c2.481,0,4.5,2.019,4.5,4.5V12h-1V6.5
	c0-1.93-1.57-3.5-3.5-3.5h-12.85l-7.65,7.706V29.5c0,1.93,1.57,3.5,3.5,3.5h17c1.93,0,3.5-1.57,3.5-3.5V28h1v1.5
	C29.058,31.981,27.039,34,24.558,34z"/>
<path fill="#FFFFFF" d="M9,21.989V25H8v-8.99h3.427c0.956,0,1.698,0.247,2.228,0.741s0.793,1.421,0.793,2.228
	c0,0.819-0.264,1.791-0.793,2.279c-0.529,0.488-1.271,0.732-2.228,0.732H9z M9,21.004h2.427c0.607,0,1.061-0.188,1.359-0.564
	c0.3-0.376,0.449-0.85,0.449-1.423s-0.15-1.051-0.452-1.434c-0.301-0.383-0.754-0.575-1.356-0.575H9V21.004z"/>
<path fill="#FFFFFF" d="M18,21.989V25h-1v-8.99h3.427c0.956,0,1.698,0.247,2.228,0.741s0.793,1.421,0.793,2.228
	c0,0.819-0.264,1.791-0.793,2.279c-0.529,0.488-1.271,0.732-2.228,0.732H18z M18,21.004h2.427c0.607,0,1.061-0.188,1.359-0.564
	c0.3-0.376,0.449-0.85,0.449-1.423s-0.15-1.051-0.452-1.434c-0.301-0.383-0.754-0.575-1.356-0.575H18V21.004z"/>
<path fill="#FFFFFF" d="M32,16.966h-3v8.027h-1v-8.027h-3V16.01h7V16.966z"/>
</svg>
