<?xml version="1.0" encoding="utf-8"?>
<!-- Generator: Adobe Illustrator 19.2.1, SVG Export Plug-In . SVG Version: 6.00 Build 0)  -->
<svg version="1.0" id="Layer_4" xmlns="http://www.w3.org/2000/svg" xmlns:xlink="http://www.w3.org/1999/xlink" x="0px" y="0px"
	 width="24px" height="24px" viewBox="0 0 24 24" enable-background="new 0 0 24 24" xml:space="preserve">
<path d="M20,8h-1V4c0-1.103-0.897-2-2-2H7.707L3,6.707V7H2V6.293L7.293,1H17c1.654,0,3,1.346,3,3V8z"/>
<path d="M17,23H5c-1.654,0-3-1.346-3-3v-1h1v1c0,1.103,0.897,2,2,2h12c1.103,0,2-0.897,2-2v-1h1v1C20,21.654,18.654,23,17,23z"/>
<path d="M15,14.112c0,0.834-0.279,1.525-0.837,2.07C13.605,16.727,12.879,17,11.988,17c-0.886,0-1.605-0.273-2.159-0.818
	C9.277,15.637,9,14.947,9,14.112v-1.224c0-0.832,0.276-1.521,0.827-2.068c0.551-0.547,1.27-0.82,2.156-0.82
	c0.892,0,1.618,0.273,2.178,0.82C14.72,11.367,15,12.056,15,12.888V14.112z M14,12.86c0-0.544-0.18-0.989-0.538-1.338
	S12.61,11,11.981,11c-0.628,0-1.117,0.173-1.462,0.52C10.174,11.867,10,12.313,10,12.86v1.265c0,0.553,0.175,1.003,0.526,1.352
	C10.876,15.826,11.363,16,11.988,16c0.632,0,1.126-0.174,1.48-0.523S14,14.678,14,14.126V12.86z"/>
<path d="M2,17v-7h2.071c0.883,0,1.592,0.281,2.127,0.844S7,12.133,7,13.024v0.957c0,0.894-0.267,1.621-0.802,2.18
	C5.664,16.72,4.955,17,4.071,17H2z M3,11v5h1.095c0.589,0,1.055-0.193,1.395-0.58C5.83,15.034,6,14.538,6,13.934v-0.876
	c0-0.599-0.17-1.091-0.51-1.478C5.15,11.193,4.684,11,4.095,11H3z"/>
<path d="M21.969,14.5c-0.064,0.385-0.23,0.712-0.5,0.977C21.114,15.826,20.62,16,19.988,16c-0.624,0-1.111-0.174-1.462-0.523
	C18.175,15.129,18,14.678,18,14.126V12.86c0-0.547,0.173-0.993,0.519-1.34S19.353,11,19.982,11c0.628,0,1.122,0.174,1.48,0.523
	c0.276,0.268,0.443,0.594,0.507,0.977h0.997c-0.076-0.658-0.336-1.222-0.805-1.68c-0.56-0.547-1.285-0.82-2.178-0.82
	c-0.885,0-1.604,0.273-2.156,0.82C17.276,11.367,17,12.056,17,12.888v1.224c0,0.834,0.277,1.525,0.829,2.07
	C18.383,16.727,19.102,17,19.988,17c0.891,0,1.617-0.273,2.175-0.818c0.468-0.457,0.728-1.022,0.803-1.682H21.969z"/>
</svg>
