<?xml version="1.0" encoding="utf-8"?>
<!-- Generator: Adobe Illustrator 19.2.1, SVG Export Plug-In . SVG Version: 6.00 Build 0)  -->
<svg version="1.0" id="Layer_4" xmlns="http://www.w3.org/2000/svg" xmlns:xlink="http://www.w3.org/1999/xlink" x="0px" y="0px"
	 width="30px" height="30px" viewBox="0 0 30 30" enable-background="new 0 0 30 30" xml:space="preserve">
<path d="M19,28H6c-2.163,0-3.932-1.727-3.998-3.874H2V8.293L8.293,2H19c2.206,0,4,1.794,4,4v5h-1V6c0-1.654-1.346-3-3-3H8.707
	L3,8.707V24c0,1.654,1.346,3,3,3h13c1.654,0,3-1.346,3-3h1C23,26.206,21.206,28,19,28z"/>
<path d="M12.034,15h-2v6h-1v-6h-2v-1h5V15z"/>
<path d="M26.034,15h-2v6h-1v-6h-2v-1h5V15z"/>
<polygon points="17.978,21 16.506,18.086 15.034,21 13.866,21 15.877,17.469 13.918,14 15.071,14 16.484,16.875 17.921,14 
	19.084,14 17.124,17.471 19.197,21 "/>
</svg>
