<?xml version="1.0" encoding="utf-8"?>
<!-- Generator: Adobe Illustrator 19.2.1, SVG Export Plug-In . SVG Version: 6.00 Build 0)  -->
<svg version="1.0" id="Layer_4" xmlns="http://www.w3.org/2000/svg" xmlns:xlink="http://www.w3.org/1999/xlink" x="0px" y="0px"
	 width="18px" height="18px" viewBox="0 0 18 18" enable-background="new 0 0 18 18" xml:space="preserve">
<path fill="#FFFFFF" d="M14,5h-1V1.559C13,1.251,12.749,1,12.441,1H5.707L2,4.707V5H1V4.293L5.293,0h7.148
	C13.301,0,14,0.699,14,1.559V5z"/>
<path fill="#FFFFFF" d="M12.5,17h-10C1.673,17,1,16.327,1,15.5h1C2,15.775,2.224,16,2.5,16h10c0.275,0,0.5-0.225,0.5-0.5h1
	C14,16.327,13.327,17,12.5,17z"/>
<path fill="#FFFFFF" d="M11,13H9.764L7.266,8.9L7.24,8.904V13H6V7h1.24l2.499,4.096l0.025-0.004V7H11V13z"/>
<path fill="#FFFFFF" d="M17,12.119c-0.188,0.229-0.48,0.434-0.876,0.612C15.726,12.911,15.225,13,14.619,13
	c-0.77,0-1.4-0.221-1.887-0.665C12.244,11.893,12,11.317,12,10.609V9.392c0-0.705,0.235-1.28,0.704-1.724S13.777,7,14.515,7
	c0.767,0,1.356,0.173,1.764,0.52c0.408,0.345,0.617,0.8,0.625,1.363l-0.008,0.025h-1.191c-0.024-0.31-0.13-0.556-0.321-0.736
	s-0.469-0.27-0.835-0.27c-0.387,0-0.699,0.138-0.935,0.414c-0.237,0.276-0.355,0.631-0.355,1.067v1.224
	c0,0.444,0.122,0.803,0.368,1.079c0.245,0.276,0.576,0.414,0.991,0.414c0.295,0,0.532-0.028,0.71-0.084
	c0.179-0.056,0.315-0.125,0.407-0.208v-1.078h-1.117V9.92H17V12.119z"/>
<path fill="#FFFFFF" d="M2,10.824V13H1V7h2.279c0.689,0,1.232,0.176,1.628,0.527C5.302,7.879,5.5,8.342,5.5,8.916
	s-0.198,1.036-0.593,1.385c-0.396,0.349-0.939,0.523-1.628,0.523H2z M2,10h1.39c0.335,0,0.589-0.091,0.762-0.274
	C4.326,9.543,4.412,9.283,4.412,9c0-0.288-0.086-0.53-0.258-0.718S3.728,8,3.39,8H2V10z"/>
</svg>
