<?xml version="1.0" encoding="utf-8"?>
<!-- Generator: Adobe Illustrator 19.2.1, SVG Export Plug-In . SVG Version: 6.00 Build 0)  -->
<svg version="1.0" id="Layer_4" xmlns="http://www.w3.org/2000/svg" xmlns:xlink="http://www.w3.org/1999/xlink" x="0px" y="0px"
	 width="36px" height="36px" viewBox="0 0 36 36" enable-background="new 0 0 36 36" xml:space="preserve">
<path d="M24.558,34h-17c-2.481,0-4.5-2.019-4.5-4.5V10.294L11.292,2h13.266c2.481,0,4.5,2.019,4.5,4.5V12h-1V6.5
	c0-1.93-1.57-3.5-3.5-3.5h-12.85l-7.65,7.706V29.5c0,1.93,1.57,3.5,3.5,3.5h17c1.93,0,3.5-1.57,3.5-3.5V28h1v1.5
	C29.058,31.981,27.039,34,24.558,34z"/>
<path d="M10,21.989V25H9v-8.99h3.427c0.956,0,1.698,0.247,2.228,0.741s0.793,1.421,0.793,2.228c0,0.819-0.264,1.791-0.793,2.279
	c-0.529,0.488-1.271,0.732-2.228,0.732H10z M10,21.004h2.427c0.607,0,1.061-0.188,1.359-0.564c0.3-0.376,0.449-0.85,0.449-1.423
	s-0.15-1.051-0.452-1.434c-0.301-0.383-0.754-0.575-1.356-0.575H10V21.004z"/>
<path d="M18,25v-8.99h3.051c1.104,0,1.99,0.362,2.659,1.084c0.667,0.722,1.002,1.656,1.002,2.8v1.229c0,1.149-0.335,2.082-1.002,2.8
	C23.042,24.641,22.155,25,21.051,25H18z M19,16.967v7.076h2c0.828,0,1.481-0.273,1.96-0.82c0.478-0.547,0.717-1.248,0.717-2.104
	v-1.24c0-0.847-0.239-1.544-0.717-2.091c-0.479-0.547-1.132-0.821-1.96-0.821H19z"/>
<path d="M33,21h-4v4h-1v-8.99h6V17h-5v3.005h4V21z"/>
</svg>
