<?xml version="1.0" encoding="utf-8"?>
<!-- Generator: Adobe Illustrator 19.2.1, SVG Export Plug-In . SVG Version: 6.00 Build 0)  -->
<svg version="1.0" id="Layer_4" xmlns="http://www.w3.org/2000/svg" xmlns:xlink="http://www.w3.org/1999/xlink" x="0px" y="0px"
	 width="30px" height="30px" viewBox="0 0 30 30" enable-background="new 0 0 30 30" xml:space="preserve">
<path fill="#FFFFFF" d="M19,28H6c-2.163,0-3.932-1.727-3.998-3.874H2V8.293L8.293,2H19c2.206,0,4,1.794,4,4v5h-1V6
	c0-1.654-1.346-3-3-3H8.707L3,8.707V24c0,1.654,1.346,3,3,3h13c1.654,0,3-1.346,3-3h1C23,26.206,21.206,28,19,28z"/>
<path fill="#FFFFFF" d="M15.034,20h3v1h-4v-7h1V20z"/>
<path fill="#FFFFFF" d="M22.65,21c-0.717,0-1.351-0.191-1.883-0.57c-0.468-0.334-0.71-0.778-0.738-1.354h0.983
	c0.038,0.393,0.189,0.696,0.451,0.9c0.289,0.227,0.688,0.342,1.187,0.342c0.425,0,0.761-0.096,0.999-0.286
	c0.252-0.202,0.379-0.475,0.379-0.811c0-0.339-0.119-0.616-0.354-0.824c-0.216-0.189-0.567-0.358-1.075-0.516
	c-0.808-0.24-1.422-0.524-1.826-0.847c-0.379-0.302-0.563-0.705-0.563-1.232c0-0.525,0.214-0.945,0.653-1.282
	c0.451-0.345,1.041-0.52,1.755-0.52c0.718,0,1.307,0.195,1.751,0.581c0.395,0.344,0.602,0.745,0.628,1.223h-0.979
	c-0.039-0.3-0.166-0.553-0.378-0.754c-0.252-0.242-0.604-0.364-1.046-0.364c-0.42,0-0.756,0.102-0.997,0.303
	c-0.253,0.213-0.381,0.488-0.381,0.818c0,0.315,0.14,0.574,0.416,0.77c0.237,0.17,0.627,0.342,1.19,0.524
	c0.745,0.213,1.311,0.494,1.683,0.834c0.352,0.32,0.53,0.75,0.53,1.276c0,0.553-0.206,0.976-0.628,1.294
	C23.97,20.833,23.379,21,22.65,21z"/>
<polygon fill="#FFFFFF" points="9.977,21 8.505,18.086 7.034,21 5.866,21 7.876,17.469 5.917,14 7.071,14 8.484,16.874 9.92,14 
	11.083,14 9.123,17.471 11.197,21 "/>
</svg>
