<?xml version="1.0" encoding="utf-8"?>
<!-- Generator: Adobe Illustrator 19.2.1, SVG Export Plug-In . SVG Version: 6.00 Build 0)  -->
<svg version="1.0" id="Layer_4" xmlns="http://www.w3.org/2000/svg" xmlns:xlink="http://www.w3.org/1999/xlink" x="0px" y="0px"
	 width="18px" height="18px" viewBox="0 0 18 18" enable-background="new 0 0 18 18" xml:space="preserve">
<path d="M14,5h-1V1.559C13,1.251,12.749,1,12.441,1H5.707L2,4.707V5H1V4.293L5.293,0h7.148C13.301,0,14,0.699,14,1.559V5z"/>
<path d="M12.5,17h-10C1.673,17,1,16.327,1,15.5h1C2,15.775,2.224,16,2.5,16h10c0.275,0,0.5-0.225,0.5-0.5h1
	C14,16.327,13.327,17,12.5,17z"/>
<path d="M7.509,7l1.471,4.422h0.023L10.486,7H12v6h-1.157v-1.789l0.111-2.65L10.93,8.558L9.385,13H8.608L7.069,8.574L7.046,8.578
	L7.157,11v2H6V7H7.509z"/>
<path d="M14,12.073h3V13h-4V7h1V12.073z"/>
<polygon points="3.482,13 2.302,10.64 1.123,13 0,13 1.706,9.974 0.043,7 1.154,7 2.286,9.325 3.434,7 4.554,7 2.891,9.975 
	4.649,13 "/>
</svg>
