<?xml version="1.0" encoding="utf-8"?>
<!-- Generator: Adobe Illustrator 18.1.1, SVG Export Plug-In . SVG Version: 6.00 Build 0)  -->
<svg version="1.0" id="Слой_1" xmlns="http://www.w3.org/2000/svg" xmlns:xlink="http://www.w3.org/1999/xlink" x="0px" y="0px"
	 viewBox="-12.8 -7.7 62.8 62.8" enable-background="new -12.8 -7.7 62.8 62.8" xml:space="preserve">
<path d="M20.7,0.7v12.6h12.6V0.7L20.7,0.7 M37.4,0.7v12.6H50V0.7L37.4,0.7 M-12.8,17.3v12.6h12.6V17.3H-12.8 M20.7,17.3v12.6h12.6
	V17.3H20.7 M37.4,17.3v12.6H50V17.3H37.4 M-12.8,34.1v12.6h12.6V34.1H-12.8 M20.7,34.1v12.6h12.6V34.1H20.7 M3.9,0.7v12.6h12.6V0.7
	L3.9,0.7 M3.9,17.3v12.6h12.6V17.3H3.9 M3.9,34.1v12.6h12.6V34.1H3.9"/>
</svg>
