<?xml version="1.0" encoding="utf-8"?>
<!-- Generator: Adobe Illustrator 18.1.0, SVG Export Plug-In . SVG Version: 6.00 Build 0)  -->
<!DOCTYPE svg PUBLIC "-//W3C//DTD SVG 1.1//EN" "http://www.w3.org/Graphics/SVG/1.1/DTD/svg11.dtd">
<svg version="1.1" id="Layer_1" xmlns="http://www.w3.org/2000/svg" xmlns:xlink="http://www.w3.org/1999/xlink" x="0px" y="0px"
	 viewBox="0 0 27.8 28" enable-background="new 0 0 27.8 28" xml:space="preserve">
<path fill="#000000" d="M27.3,24.6l-8-8c2.8-4.1,2.4-9.9-1.2-13.5c-2-2-4.7-3.1-7.5-3.1S5.1,1.1,3.1,3.1C-1,7.3-1,14,3.1,18.1
	c2,2,4.7,3.1,7.5,3.1c2.2,0,4.2-0.7,6-1.9l8,8c0.4,0.4,0.8,0.5,1.3,0.5s1-0.2,1.3-0.5l0.1-0.1C28,26.6,28,25.4,27.3,24.6z M3.8,17.4
	c-3.7-3.8-3.7-9.9,0-13.6C5.6,2,8,1,10.6,1s5,1,6.8,2.8c3.7,3.7,3.7,9.8,0.1,13.5l-0.2,0.2c-1.8,1.8-4.2,2.7-6.7,2.7
	C8,20.2,5.6,19.2,3.8,17.4z M26.6,26.6L26.6,26.6c-0.4,0.4-1,0.4-1.3,0.1l-7.9-7.9l0.6-0.6c0,0,0.1-0.1,0.1-0.1c0,0,0-0.1,0.1-0.1
	l0.6-0.6l7.9,7.9C26.9,25.7,26.9,26.3,26.6,26.6z"/>
</svg>
