<?xml version="1.0" encoding="UTF-8" standalone="no"?>
<!-- Generator: Adobe Illustrator 18.1.0, SVG Export Plug-In . SVG Version: 6.00 Build 0)  -->
<svg id="Слой_1" xmlns="http://www.w3.org/2000/svg" xml:space="preserve" viewBox="0 0 32 31" version="1.1" y="0px" x="0px" xmlns:xlink="http://www.w3.org/1999/xlink" enable-background="new 0 0 32 31">
<g fill="#ED6967">
	<path d="m30.208 8.013h-5.937v-8.013h-16.97v8.013h-6.015v17.987h6.015v5h17.029v-5h5.984v-17.987h-0.106zm-21.893-7h14.943v9.963h-14.943v-9.963zm15.002 28.974h-15.002v-10.942h15.002v10.942zm5.984-5h-4.971v-6.955h-17.029v6.955h-5.002v-15.96h5.002v1.949h-1.99v1.013h21.002v-1.013h-2.043v-1.949h5.03v15.96z"/>
	<rect y="20.031" x="10.316" height="1.013" width="10.955"/>
	<rect y="22.031" x="10.316" height="1.013" width="10.955"/>
	<rect y="24.009" x="10.309" height="1.013" width="10.955"/>
	<rect y="26" x="10.309" height="1.013" width="10.955"/>
	<rect y="28" x="10.309" height="1.013" width="10.955"/>
</g>
</svg>
