<?xml version="1.0" encoding="utf-8"?>
<!-- Generator: Adobe Illustrator 18.1.0, SVG Export Plug-In . SVG Version: 6.00 Build 0)  -->
<svg version="1.1" id="Слой_1" xmlns="http://www.w3.org/2000/svg" xmlns:xlink="http://www.w3.org/1999/xlink" x="0px" y="0px"
	 viewBox="0 0 32 31" enable-background="new 0 0 32 31" xml:space="preserve">
<g>
	<path fill="#FFFFFF" d="M30.208,8.013h-0.907h-5.03v-7V0h-1.013H8.315H7.301v1.013v7H2.299H1.421H1.286V26h0.786h0.227h5.002v5
		h0.248h0.765h15.002h0.273h0.741v-5h4.971h0.506h0.507V8.013H30.208z M8.315,1.013h14.943v9.963H8.315V1.013z M23.317,29.987H8.315
		V19.045h15.002V29.987z M29.301,24.987H24.33v-6.955h-0.059h-0.955H8.315H7.301v1.013v5.942H2.299V9.027h5.002v1.949h-1.99v1.013
		h1.99h1.013h14.943h1.013h2.043v-1.013h-2.043V9.027h5.03V24.987z"/>
	<rect x="10.316" y="20.031" fill="#FFFFFF" width="10.955" height="1.013"/>
	<rect x="10.316" y="22.031" fill="#FFFFFF" width="10.955" height="1.013"/>
	<rect x="10.309" y="24.009" fill="#FFFFFF" width="10.955" height="1.013"/>
	<rect x="10.309" y="26" fill="#FFFFFF" width="10.955" height="1.013"/>
	<rect x="10.309" y="28" fill="#FFFFFF" width="10.955" height="1.013"/>
</g>
</svg>
