<?xml version="1.0" encoding="utf-8"?>
<!-- Generator: Adobe Illustrator 19.2.1, SVG Export Plug-In . SVG Version: 6.00 Build 0)  -->
<svg version="1.0" id="art" xmlns="http://www.w3.org/2000/svg" xmlns:xlink="http://www.w3.org/1999/xlink" x="0px" y="0px"
	 width="18px" height="18px" viewBox="0 0 18 18" enable-background="new 0 0 18 18" xml:space="preserve">
<path d="M14.042,14.173c-0.249-0.11-0.474-0.084-0.655-0.175C12.055,13.334,12,13,12,11h-0.343C13.155,9.735,14,7.452,14,5.214
	C14,2.976,13.481,0,9,0C4.518,0,4,2.976,4,5.214C4,7.452,4.845,9.735,6.343,11H6c0,2-0.055,2.334-1.386,2.999
	c-0.183,0.091-0.407-0.06-0.656,0.049C2.478,14.701,0,16,0,18h1c0-2,2.023-2.322,3.361-2.912c0.266-0.117,0.504-0.098,0.699-0.195
	c1.675-0.836,1.903-2.383,1.934-3.434C7.587,11.8,8.257,12,9,12s1.413-0.2,2.006-0.541c0.031,1.051,0.259,2.599,1.933,3.434
	c0.194,0.097,0.434-0.047,0.699,0.07C14.977,15.553,17,16,17,18h1C18,16,15.522,14.826,14.042,14.173z M5,5.214C5,2.182,6.122,1,9,1
	c2.879,0,4,1.182,4,4.214C13,7.617,11.759,11,9,11S5,7.617,5,5.214z"/>
<polygon points="5.757,6.377 5.758,6.377 5.758,6.376 "/>
</svg>
