<?xml version="1.0" encoding="utf-8"?>
<!-- Generator: Adobe Illustrator 19.2.1, SVG Export Plug-In . SVG Version: 6.00 Build 0)  -->
<svg version="1.0" id="art" xmlns="http://www.w3.org/2000/svg" xmlns:xlink="http://www.w3.org/1999/xlink" x="0px" y="0px"
	 width="30px" height="30px" viewBox="0 0 30 30" enable-background="new 0 0 30 30" xml:space="preserve">
<path d="M22.162,21.625c-2.53-1.262-2.964-2.618-2.966-5.598C20.996,14.058,22,10.891,22,7.786C22,4.161,21.204,0,15,0
	S8,4.161,8,7.786c0,3.105,1.004,6.273,2.804,8.241c-0.003,2.98-0.436,4.336-2.966,5.598C5.899,22.591,0,25.456,0,30h1
	c0-3.926,5.483-6.582,7.285-7.481c2.698-1.346,3.385-3.106,3.499-5.614C12.71,17.59,13.784,18,15,18s2.29-0.41,3.216-1.095
	c0.114,2.508,0.801,4.269,3.499,5.614C23.517,23.418,29,26.074,29,30h1C30,25.456,24.101,22.591,22.162,21.625z M9,7.786
	C9,2.966,10.738,1,15,1s6,1.966,6,6.786C21,11.612,19.139,17,15,17S9,11.612,9,7.786z"/>
<polygon points="9.596,10.628 9.597,10.628 9.597,10.627 "/>
</svg>
