<?xml version="1.0" encoding="utf-8"?>
<!-- Generator: Adobe Illustrator 19.2.1, SVG Export Plug-In . SVG Version: 6.00 Build 0)  -->
<svg version="1.0" id="art" xmlns="http://www.w3.org/2000/svg" xmlns:xlink="http://www.w3.org/1999/xlink" x="0px" y="0px"
	 width="24px" height="24px" viewBox="0 0 24 24" enable-background="new 0 0 24 24" xml:space="preserve">
<g id="check">
</g>
<path d="M14,8V3.5C14,2.673,13.327,2,12.5,2h-9C2.673,2,2,2.673,2,3.5v16C2,20.327,2.673,21,3.5,21h9c0.827,0,1.5-0.673,1.5-1.5V15
	h-1v4.5c0,0.275-0.224,0.5-0.5,0.5h-9C3.224,20,3,19.775,3,19.5v-16C3,3.225,3.224,3,3.5,3h9C12.776,3,13,3.225,13,3.5V8H14z"/>
<polygon points="18.396,7.854 21.543,11 9,11 9,12 21.543,12 18.396,15.146 19.104,15.854 23.457,11.5 19.104,7.146 "/>
</svg>
