<?xml version="1.0" encoding="utf-8"?>
<!-- Generator: Adobe Illustrator 19.2.1, SVG Export Plug-In . SVG Version: 6.00 Build 0)  -->
<svg version="1.0" id="art" xmlns="http://www.w3.org/2000/svg" xmlns:xlink="http://www.w3.org/1999/xlink" x="0px" y="0px"
	 width="30px" height="30px" viewBox="0 0 30 30" enable-background="new 0 0 30 30" xml:space="preserve">
<g id="check">
</g>
<path d="M2,25.5C2,26.879,3.121,28,4.5,28h12c1.379,0,2.5-1.121,2.5-2.5V19h-1v6.5c0,0.827-0.673,1.5-1.5,1.5h-12
	C3.673,27,3,26.327,3,25.5v-21C3,3.673,3.673,3,4.5,3h12C17.327,3,18,3.673,18,4.5V9h1V4.5C19,3.121,17.879,2,16.5,2h-12
	C3.121,2,2,3.121,2,4.5V25.5z"/>
<polygon points="22.841,9.298 27.543,14 9.652,14 9.652,15 27.543,15 22.841,19.702 23.548,20.409 29.457,14.5 23.548,8.591 "/>
</svg>
