<?xml version="1.0" encoding="utf-8"?>
<!-- Generator: Adobe Illustrator 19.2.1, SVG Export Plug-In . SVG Version: 6.00 Build 0)  -->
<svg version="1.0" id="art" xmlns="http://www.w3.org/2000/svg" xmlns:xlink="http://www.w3.org/1999/xlink" x="0px" y="0px"
	 width="36px" height="36px" viewBox="0 0 36 36" enable-background="new 0 0 36 36" xml:space="preserve">
<path d="M26.188,25.83C23.289,24.384,22.742,23,22.742,20h-0.244C24.74,17.735,26,13.866,26,10.071C26,5.848,25.091,1,18,1
	s-8,4.848-8,9.071c0,3.795,1.26,7.664,3.502,9.929h-0.244c0,3-0.547,4.384-3.445,5.83C6.862,27.301,0,31.012,0,36h1
	c0-4.554,7.087-8.192,9.26-9.276c3.063-1.528,3.903-2.597,3.99-6.061C15.324,21.498,16.577,22,18,22s2.676-0.502,3.751-1.337
	c0.087,3.464,0.927,4.533,3.99,6.061C27.913,27.808,35,31.446,35,36h1C36,31.012,29.138,27.301,26.188,25.83z M11,10.071
	C11,4.338,13.028,2,18,2s7,2.338,7,8.071C25,14.609,22.828,21,18,21S11,14.609,11,10.071z"/>
<polygon points="11.797,11.981 11.798,11.981 11.798,11.981 "/>
</svg>
