<?xml version="1.0" encoding="utf-8"?>
<!-- Generator: Adobe Illustrator 19.2.1, SVG Export Plug-In . SVG Version: 6.00 Build 0)  -->
<svg version="1.0" id="art" xmlns="http://www.w3.org/2000/svg" xmlns:xlink="http://www.w3.org/1999/xlink" x="0px" y="0px"
	 width="18px" height="18px" viewBox="0 0 18 18" enable-background="new 0 0 18 18" xml:space="preserve">
<g id="check">
</g>
<polygon points="13.396,5.854 15.543,8 6,8 6,9 15.543,9 13.396,11.146 14.104,11.854 17.457,8.5 14.104,5.146 "/>
<path d="M1,15.5C1,16.327,1.673,17,2.5,17h7c0.827,0,1.5-0.673,1.5-1.5V11h-1v4.5c0,0.275-0.224,0.5-0.5,0.5h-7
	C2.224,16,2,15.775,2,15.5v-13C2,2.225,2.224,2,2.5,2h7C9.776,2,10,2.225,10,2.5V6h1V2.5C11,1.673,10.327,1,9.5,1h-7
	C1.673,1,1,1.673,1,2.5V15.5z"/>
</svg>
