<?xml version="1.0" encoding="utf-8"?>
<!-- Generator: Adobe Illustrator 19.2.1, SVG Export Plug-In . SVG Version: 6.00 Build 0)  -->
<svg version="1.0" id="art" xmlns="http://www.w3.org/2000/svg" xmlns:xlink="http://www.w3.org/1999/xlink" x="0px" y="0px"
	 width="36px" height="36px" viewBox="0 0 36 36" enable-background="new 0 0 36 36" xml:space="preserve">
<g id="check">
</g>
<path d="M18.438,32C19.826,32,21,30.855,21,29.5V23h-1v6.5c0,0.813-0.716,1.5-1.562,1.5h-14C3.632,31,3,30.341,3,29.5v-23
	C3,5.659,3.632,5,4.438,5h14C19.284,5,20,5.687,20,6.5V12h1V6.5C21,5.145,19.826,4,18.438,4h-14C3.07,4,2,5.098,2,6.5v23
	C2,30.902,3.07,32,4.438,32H18.438z"/>
<path d="M26.459,11.854L31.605,17H12.188v1h19.418l-5.146,5.146l0.707,0.707L33.52,17.5l-6.354-6.354L26.459,11.854z M32.062,17.543
	v-0.086l0.043,0.043L32.062,17.543z"/>
</svg>
