<?xml version="1.0" encoding="utf-8"?>
<!-- Generator: Adobe Illustrator 19.2.1, SVG Export Plug-In . SVG Version: 6.00 Build 0)  -->
<svg version="1.0" id="art" xmlns="http://www.w3.org/2000/svg" xmlns:xlink="http://www.w3.org/1999/xlink" x="0px" y="0px"
	 width="24px" height="24px" viewBox="0 0 24 24" enable-background="new 0 0 24 24" xml:space="preserve">
<path d="M17.774,16.999c-1.853-0.925-2.272-0.995-2.314-3.504C17.088,11.87,18,9.158,18,6.5C18,3.474,17.318,0,12,0S6,3.474,6,6.5
	c0,2.658,0.912,5.37,2.54,6.995c-0.043,2.509-0.462,2.579-2.314,3.504C4.687,17.767,0,20.252,0,24h1c0-3.129,4.27-5.407,5.673-6.107
	c2.024-1.011,2.665-1.675,2.822-3.624C10.229,14.733,11.068,15,12,15c0.932,0,1.771-0.267,2.505-0.731
	c0.157,1.95,0.797,2.614,2.822,3.624C18.73,18.593,23,20.871,23,24h1C24,20.252,19.313,17.767,17.774,16.999z M12,14
	c-0.968,0-1.781-0.354-2.458-0.92c0-0.029,0.002-0.051,0.002-0.08H9.446C7.777,11.525,7,8.699,7,6.5C7,2.593,8.448,1,12,1
	s5,1.593,5,5.5c0,2.199-0.777,5.025-2.446,6.5h-0.098c0,0.03,0.002,0.051,0.002,0.08C13.781,13.646,12.968,14,12,14z"/>
<polygon points="7.677,8.502 7.678,8.502 7.677,8.502 "/>
</svg>
