<?xml version="1.0" encoding="utf-8"?>
<!-- Generator: Adobe Illustrator 19.2.1, SVG Export Plug-In . SVG Version: 6.00 Build 0)  -->
<svg version="1.0" id="art" xmlns="http://www.w3.org/2000/svg" xmlns:xlink="http://www.w3.org/1999/xlink" x="0px" y="0px"
	 width="24px" height="24px" viewBox="0 0 24 24" enable-background="new 0 0 24 24" xml:space="preserve">
<g id="check">
</g>
<path d="M12,2C6.486,2,2,6.486,2,12s4.486,10,10,10c5.514,0,10-4.486,10-10S17.514,2,12,2z M12,21c-4.962,0-9-4.038-9-9s4.038-9,9-9
	c4.963,0,9,4.038,9,9S16.963,21,12,21z"/>
<path d="M11.793,15.232c-0.554,0-0.95,0.396-0.95,0.957c0,0.554,0.396,0.95,0.95,0.95s0.943-0.396,0.943-0.95
	C12.736,15.629,12.347,15.232,11.793,15.232z"/>
<path d="M11.943,7.077c-1.921,0-2.905,1.176-2.98,2.652h1.169c0.075-0.978,0.731-1.586,1.764-1.586c1.019,0,1.675,0.622,1.675,1.47
	c0,0.731-0.308,1.162-1.101,1.647c-0.937,0.561-1.374,1.176-1.367,2.078v0.629h1.196v-0.444c0-0.718,0.246-1.101,1.114-1.613
	c0.875-0.526,1.429-1.285,1.429-2.358C14.842,8.144,13.666,7.077,11.943,7.077z"/>
</svg>
