<?xml version="1.0" encoding="UTF-8" standalone="no"?>
<!-- Generator: Adobe Illustrator 18.1.0, SVG Export Plug-In . SVG Version: 6.00 Build 0)  -->
<!DOCTYPE svg  PUBLIC '-//W3C//DTD SVG 1.1//EN'  'http://www.w3.org/Graphics/SVG/1.1/DTD/svg11.dtd'>
<svg id="Layer_1" xmlns="http://www.w3.org/2000/svg" xml:space="preserve" viewBox="0 0 27.8 28" version="1.1" y="0px" x="0px" xmlns:xlink="http://www.w3.org/1999/xlink" enable-background="new 0 0 27.8 28">
<path d="m27.3 24.6l-8-8c2.8-4.1 2.4-9.9-1.2-13.5-2-2-4.7-3.1-7.5-3.1s-5.5 1.1-7.5 3.1c-4.1 4.2-4.1 10.9 0 15 2 2 4.7 3.1 7.5 3.1 2.2 0 4.2-0.7 6-1.9l8 8c0.4 0.4 0.8 0.5 1.3 0.5s1-0.2 1.3-0.5l0.1-0.1c0.7-0.6 0.7-1.8 0-2.6zm-23.5-7.2c-3.7-3.8-3.7-9.9 0-13.6 1.8-1.8 4.2-2.8 6.8-2.8s5 1 6.8 2.8c3.7 3.7 3.7 9.8 0.1 13.5l-0.2 0.2c-1.8 1.8-4.2 2.7-6.7 2.7-2.6 0-5-1-6.8-2.8zm22.8 9.2c-0.4 0.4-1 0.4-1.3 0.1l-7.9-7.9 0.6-0.6 0.1-0.1s0-0.1 0.1-0.1l0.6-0.6 7.9 7.9c0.2 0.4 0.2 1-0.1 1.3z" fill="#fff"/>
</svg>
