<?xml version="1.0" encoding="utf-8"?>
<!-- Generator: Adobe Illustrator 19.2.1, SVG Export Plug-In . SVG Version: 6.00 Build 0)  -->
<svg version="1.0" id="art" xmlns="http://www.w3.org/2000/svg" xmlns:xlink="http://www.w3.org/1999/xlink" x="0px" y="0px"
	 width="18px" height="18px" viewBox="0 0 18 18" enable-background="new 0 0 18 18" xml:space="preserve">
<g id="check">
</g>
<path d="M7.5,14c1.541,0,2.957-0.542,4.072-1.441l3.737,3.737c0.272,0.272,0.714,0.272,0.987,0c0.272-0.272,0.272-0.714,0-0.987
	l-3.737-3.737C13.458,10.457,14,9.041,14,7.5C14,3.916,11.084,1,7.5,1S1,3.916,1,7.5S3.916,14,7.5,14z M7.5,2
	C10.533,2,13,4.468,13,7.5S10.533,13,7.5,13S2,10.532,2,7.5S4.467,2,7.5,2z"/>
</svg>
