<?xml version="1.0" encoding="utf-8"?>
<!-- Generator: Adobe Illustrator 19.2.1, SVG Export Plug-In . SVG Version: 6.00 Build 0)  -->
<svg version="1.0" id="art" xmlns="http://www.w3.org/2000/svg" xmlns:xlink="http://www.w3.org/1999/xlink" x="0px" y="0px"
	 width="24px" height="24px" viewBox="0 0 24 24" enable-background="new 0 0 24 24" xml:space="preserve">
<g id="check">
</g>
<path d="M7,1v4H3.02C1.906,5,1,5.763,1,6.7v8.6C1,16.237,1.906,17,3.02,17H6v6h12v-6h2.98c1.113,0,2.02-0.763,2.02-1.7V6.7
	C23,5.763,22.094,5,20.98,5H17V1H7z M8,2h8v6H8V2z M17,22H7v-8h10V22z M20.98,6C21.533,6,22,6.32,22,6.7v8.6
	c0,0.38-0.467,0.7-1.02,0.7H18v-3H6v3H3.02C2.467,16,2,15.68,2,15.3V6.7C2,6.32,2.467,6,3.02,6H7v2H6v1h1h10h1V8h-1V6H20.98z"/>
<rect x="9" y="16" width="6" height="1"/>
<rect x="9" y="18" width="5" height="1"/>
</svg>
