<?xml version="1.0" encoding="utf-8"?>
<!-- Generator: Adobe Illustrator 19.2.1, SVG Export Plug-In . SVG Version: 6.00 Build 0)  -->
<svg version="1.0" id="art" xmlns="http://www.w3.org/2000/svg" xmlns:xlink="http://www.w3.org/1999/xlink" x="0px" y="0px"
	 width="30px" height="30px" viewBox="0 0 30 30" enable-background="new 0 0 30 30" xml:space="preserve">
<g id="check">
</g>
<path d="M15,28c7.168,0,13-5.832,13-13S22.168,2,15,2S2,7.832,2,15S7.832,28,15,28z M15,3c6.617,0,12,5.383,12,12s-5.383,12-12,12
	S3,21.617,3,15S8.383,3,15,3z"/>
<path d="M14.504,20.491c-0.584,0-1.004,0.429-1.004,1.013c0,0.575,0.421,1.004,1.004,1.004c0.575,0,0.996-0.429,0.996-1.004
	C15.5,20.921,15.079,20.491,14.504,20.491z"/>
<path d="M14.777,10.044c1.415,0,2.408,0.904,2.408,2.149c0,0.965-0.413,1.57-1.521,2.289c-1.239,0.789-1.749,1.526-1.74,2.693V18
	h1.169v-0.658c0-0.974,0.325-1.474,1.477-2.211c1.204-0.772,1.854-1.693,1.854-2.991c0-1.789-1.485-3.14-3.604-3.14
	c-2.268,0-3.586,1.447-3.683,3.307h1.143C12.396,10.921,13.371,10.044,14.777,10.044z"/>
</svg>
