<?xml version="1.0" encoding="utf-8"?>
<!-- Generator: Adobe Illustrator 19.2.1, SVG Export Plug-In . SVG Version: 6.00 Build 0)  -->
<svg version="1.0" id="art" xmlns="http://www.w3.org/2000/svg" xmlns:xlink="http://www.w3.org/1999/xlink" x="0px" y="0px"
	 width="24px" height="24px" viewBox="0 0 24 24" enable-background="new 0 0 24 24" xml:space="preserve">
<g id="check">
</g>
<path d="M10,19c2.122,0,4.071-0.742,5.611-1.975l5.685,5.685c0.391,0.391,1.024,0.391,1.414,0s0.391-1.024,0-1.414l-5.685-5.685
	C18.258,14.071,19,12.122,19,10c0-4.963-4.037-9-9-9c-4.962,0-9,4.037-9,9S5.038,19,10,19z M10,2c4.411,0,8,3.589,8,8
	c0,2.045-0.778,3.906-2.044,5.322l-0.634,0.634C13.907,17.222,12.045,18,10,18c-4.411,0-8-3.589-8-8S5.589,2,10,2z"/>
</svg>
