<?xml version="1.0" encoding="utf-8"?>
<!-- Generator: Adobe Illustrator 19.2.1, SVG Export Plug-In . SVG Version: 6.00 Build 0)  -->
<svg version="1.0" id="art" xmlns="http://www.w3.org/2000/svg" xmlns:xlink="http://www.w3.org/1999/xlink" x="0px" y="0px"
	 width="18px" height="18px" viewBox="0 0 18 18" enable-background="new 0 0 18 18" xml:space="preserve">
<g id="check">
</g>
<path d="M9.5,1C5.364,1,2,4.364,2,8.5S5.364,16,9.5,16S17,12.636,17,8.5S13.636,1,9.5,1z M9.5,15C5.916,15,3,12.084,3,8.5
	S5.916,2,9.5,2S16,4.916,16,8.5S13.084,15,9.5,15z"/>
<path d="M9.496,4.625c-0.476,0-0.871,0.395-0.871,0.87c0,0.485,0.395,0.88,0.871,0.88c0.485,0,0.879-0.395,0.879-0.88
	C10.375,5.02,9.98,4.625,9.496,4.625z"/>
<rect x="9" y="8" width="1" height="5"/>
</svg>
