<?xml version="1.0" encoding="utf-8"?>
<!-- Generator: Adobe Illustrator 19.2.1, SVG Export Plug-In . SVG Version: 6.00 Build 0)  -->
<svg version="1.0" id="art" xmlns="http://www.w3.org/2000/svg" xmlns:xlink="http://www.w3.org/1999/xlink" x="0px" y="0px"
	 width="36px" height="36px" viewBox="0 0 36 36" enable-background="new 0 0 36 36" xml:space="preserve">
<g id="check">
</g>
<path d="M14,27c3.066,0,5.883-1.073,8.109-2.856l8.741,8.74c0.538,0.538,1.411,0.538,1.949,0c0.586-0.586,0.586-1.536,0-2.121
	l-8.654-8.654C25.927,19.883,27,17.066,27,14c0-7.168-5.832-13-13-13S1,6.832,1,14S6.832,27,14,27z M14,2c6.617,0,12,5.383,12,12
	s-5.383,12-12,12S2,20.617,2,14S7.383,2,14,2z"/>
</svg>
