<?xml version="1.0" encoding="utf-8"?>
<!-- Generator: Adobe Illustrator 19.2.1, SVG Export Plug-In . SVG Version: 6.00 Build 0)  -->
<svg version="1.0" id="art" xmlns="http://www.w3.org/2000/svg" xmlns:xlink="http://www.w3.org/1999/xlink" x="0px" y="0px"
	 width="18px" height="18px" viewBox="0 0 18 18" enable-background="new 0 0 18 18" xml:space="preserve">
<g id="check">
</g>
<path d="M9,17c4.411,0,8-3.589,8-8s-3.589-8-8-8S1,4.589,1,9S4.589,17,9,17z M9,2c3.86,0,7,3.14,7,7s-3.14,7-7,7s-7-3.14-7-7
	S5.14,2,9,2z"/>
<path d="M9.012,12.023c-0.668,0-1.117,0.45-1.117,1.12c0,0.662,0.449,1.107,1.117,1.107c0.664,0,1.11-0.445,1.11-1.107
	C10.122,12.473,9.676,12.023,9.012,12.023z"/>
<path d="M7.723,7.447L7.725,7.41c0.052-0.743,0.554-1.186,1.341-1.186c0.767,0,1.283,0.431,1.283,1.071
	c0,0.568-0.228,0.888-0.941,1.318c-0.85,0.509-1.185,1.057-1.156,1.896L8.259,11h1.305v-0.398c0-0.582,0.214-0.876,0.953-1.312
	c0.833-0.499,1.256-1.188,1.256-2.048C11.773,5.922,10.687,5,9.132,5C7.525,5,6.486,5.94,6.417,7.453l1.256,0.008L7.723,7.447z"/>
</svg>
