<?xml version="1.0" encoding="utf-8"?>
<!-- Generator: Adobe Illustrator 19.2.1, SVG Export Plug-In . SVG Version: 6.00 Build 0)  -->
<svg version="1.0" id="art" xmlns="http://www.w3.org/2000/svg" xmlns:xlink="http://www.w3.org/1999/xlink" x="0px" y="0px"
	 width="36px" height="36px" viewBox="0 0 36 36" enable-background="new 0 0 36 36" xml:space="preserve">
<path fill="#FFFFFF" d="M18.5,3C10.505,3,4,9.505,4,17.5S10.505,32,18.5,32S33,25.495,33,17.5S26.495,3,18.5,3z M18.5,31
	C11.056,31,5,24.944,5,17.5S11.056,4,18.5,4S32,10.056,32,17.5S25.944,31,18.5,31z"/>
<rect x="18" y="14" fill="#FFFFFF" width="1" height="11"/>
<path fill="#FFFFFF" d="M18.506,10.22c-0.547,0-1.006,0.43-1.006,0.967c0,0.516,0.458,0.956,1.006,0.956s0.994-0.44,0.994-0.956
	C19.5,10.649,19.053,10.22,18.506,10.22z"/>
</svg>
