<?xml version="1.0" encoding="utf-8"?>
<!-- Generator: Adobe Illustrator 19.2.1, SVG Export Plug-In . SVG Version: 6.00 Build 0)  -->
<svg version="1.0" id="art" xmlns="http://www.w3.org/2000/svg" xmlns:xlink="http://www.w3.org/1999/xlink" x="0px" y="0px"
	 width="18px" height="18px" viewBox="0 0 18 18" enable-background="new 0 0 18 18" xml:space="preserve">
<g id="check">
</g>
<path d="M9,1C4.589,1,1,4.589,1,9c0,4.411,3.589,8,8,8c4.411,0,8-3.589,8-8C17,4.589,13.411,1,9,1z M9.004,15
	C8.118,15,7.5,14.386,7.5,13.507C7.5,12.62,8.118,12,9.004,12c0.881,0,1.496,0.62,1.496,1.507C10.5,14.386,9.885,15,9.004,15z
	 M10.766,9.123c-0.757,0.446-0.891,0.696-0.891,1.175V11H7.925l-0.011-0.8C7.88,9.204,8.292,8.521,9.291,7.923
	c0.751-0.453,0.878-0.73,0.878-1.181c0-0.533-0.434-0.877-1.104-0.877c-0.696,0-1.122,0.372-1.167,1.02L7.881,7.117L7.643,7.186
	H5.931l0.01-0.26C6.012,5.118,7.265,4,9.135,4c1.834,0,3.115,1.104,3.115,2.686C12.25,7.713,11.75,8.533,10.766,9.123z"/>
</svg>
