<?xml version="1.0" encoding="utf-8"?>
<!-- Generator: Adobe Illustrator 19.2.1, SVG Export Plug-In . SVG Version: 6.00 Build 0)  -->
<svg version="1.0" id="art" xmlns="http://www.w3.org/2000/svg" xmlns:xlink="http://www.w3.org/1999/xlink" x="0px" y="0px"
	 width="18px" height="18px" viewBox="0 0 18 18" enable-background="new 0 0 18 18" xml:space="preserve">
<path fill="#FFFFFF" d="M1,12.5C1,13.327,1.673,14,2.5,14H5v3h8v-3h2.5c0.827,0,1.5-0.673,1.5-1.5v-7C17,4.673,16.327,4,15.5,4H13V1
	H5v3H2.5C1.673,4,1,4.673,1,5.5V12.5z M12,16H6v-5h6V16z M12,2v5H6V2H12z M2,5.5C2,5.225,2.224,5,2.5,5H5v2H4v1h10V7h-1V5h2.5
	C15.776,5,16,5.225,16,5.5v7c0,0.275-0.224,0.5-0.5,0.5H13v-3H5v3H2.5C2.224,13,2,12.775,2,12.5V5.5z"/>
<rect x="7" y="13" fill="#FFFFFF" width="4" height="1"/>
</svg>
