<?xml version="1.0" encoding="utf-8"?>
<!-- Generator: Adobe Illustrator 19.2.1, SVG Export Plug-In . SVG Version: 6.00 Build 0)  -->
<svg version="1.0" id="art" xmlns="http://www.w3.org/2000/svg" xmlns:xlink="http://www.w3.org/1999/xlink" x="0px" y="0px"
	 width="30px" height="30px" viewBox="0 0 30 30" enable-background="new 0 0 30 30" xml:space="preserve">
<g id="check">
</g>
<path d="M15.5,2C8.607,2,3,7.607,3,14.5S8.607,27,15.5,27S28,21.393,28,14.5S22.393,2,15.5,2z M15.5,26C9.159,26,4,20.841,4,14.5
	S9.159,3,15.5,3S27,8.159,27,14.5S21.841,26,15.5,26z"/>
<rect x="15" y="12" width="1" height="9"/>
<path d="M15.495,8.622c-0.477,0-0.873,0.396-0.873,0.873c0,0.486,0.396,0.882,0.873,0.882c0.486,0,0.882-0.396,0.882-0.882
	C16.378,9.018,15.982,8.622,15.495,8.622z"/>
</svg>
