<?xml version="1.0" encoding="utf-8"?>
<!-- Generator: Adobe Illustrator 19.2.1, SVG Export Plug-In . SVG Version: 6.00 Build 0)  -->
<svg version="1.0" id="art" xmlns="http://www.w3.org/2000/svg" xmlns:xlink="http://www.w3.org/1999/xlink" x="0px" y="0px"
	 width="36px" height="36px" viewBox="0 0 36 36" enable-background="new 0 0 36 36" xml:space="preserve">
<g id="check">
</g>
<path d="M3,29.8C3,31.564,4.463,33,6.262,33h23.477C31.537,33,33,31.564,33,29.8V8.2C33,6.436,31.537,5,29.738,5H27V3
	c0-0.552-0.448-1-1-1h-1c-0.552,0-1,0.448-1,1v2H12V3c0-0.552-0.448-1-1-1h-1C9.448,2,9,2.448,9,3v2H6.262C4.463,5,3,6.436,3,8.2
	V29.8z M4,8.2C4,6.987,5.015,6,6.262,6H9v2c0,0.552,0.448,1,1,1h1c0.552,0,1-0.448,1-1V6h12v2c0,0.552,0.448,1,1,1h1
	c0.552,0,1-0.448,1-1V6h2.738C30.985,6,32,6.987,32,8.2v21.6c0,1.213-1.015,2.2-2.262,2.2H6.262C5.015,32,4,31.013,4,29.8V8.2z"/>
<rect x="7" y="14" width="6" height="3"/>
<rect x="15" y="14" width="6" height="3"/>
<rect x="7" y="21" width="6" height="3"/>
<rect x="15" y="21" width="6" height="3"/>
<rect x="23" y="14" width="6" height="3"/>
</svg>
