<?xml version="1.0" encoding="utf-8"?>
<!-- Generator: Adobe Illustrator 19.2.1, SVG Export Plug-In . SVG Version: 6.00 Build 0)  -->
<svg version="1.0" id="art" xmlns="http://www.w3.org/2000/svg" xmlns:xlink="http://www.w3.org/1999/xlink" x="0px" y="0px"
	 width="30px" height="30px" viewBox="0 0 30 30" enable-background="new 0 0 30 30" xml:space="preserve">
<path fill="#FFFFFF" d="M2,17.5C2,18.879,3.121,20,4.5,20H8v7h14v-7h3.5c1.379,0,2.5-1.121,2.5-2.5v-9C28,7.121,26.879,6,25.5,6H21
	V2H9v4H4.5C3.121,6,2,7.121,2,8.5V17.5z M21,26H9v-9h12V26z M10,3h10v7H10V3z M3,8.5C3,7.673,3.673,7,4.5,7H9v3H6.99v1H9h12h1.99v-1
	H21V7h4.5C26.327,7,27,7.673,27,8.5v9c0,0.827-0.673,1.5-1.5,1.5H22v-3H8v3H4.5C3.673,19,3,18.327,3,17.5V8.5z"/>
<rect x="11" y="19" fill="#FFFFFF" width="8" height="1"/>
<rect x="11" y="22" fill="#FFFFFF" width="6" height="1"/>
</svg>
