<?xml version="1.0" encoding="utf-8"?>
<!-- Generator: Adobe Illustrator 19.2.1, SVG Export Plug-In . SVG Version: 6.00 Build 0)  -->
<svg version="1.0" id="art" xmlns="http://www.w3.org/2000/svg" xmlns:xlink="http://www.w3.org/1999/xlink" x="0px" y="0px"
	 width="24px" height="24px" viewBox="0 0 24 24" enable-background="new 0 0 24 24" xml:space="preserve">
<g id="check">
</g>
<path d="M12,2C6.477,2,2,6.477,2,12c0,5.523,4.477,10,10,10s10-4.477,10-10C22,6.477,17.523,2,12,2z M12.004,18.5
	c-0.857,0-1.504-0.643-1.504-1.497c0-0.858,0.646-1.503,1.504-1.503c0.853,0,1.496,0.646,1.496,1.503
	C13.5,17.857,12.857,18.5,12.004,18.5z M13.777,11.628c-0.866,0.51-1.006,0.835-1.006,1.415v0.707h-1.727v-0.895
	c-0.007-0.993,0.445-1.689,1.511-2.327c0.742-0.454,0.991-0.82,0.991-1.45c0-0.737-0.579-1.233-1.441-1.233
	c-0.906,0-1.465,0.499-1.532,1.37l-0.019,0.238H8.862l0.014-0.271c0.091-1.781,1.378-2.933,3.278-2.933
	c1.852,0,3.195,1.163,3.195,2.766C15.35,10.104,14.806,11.007,13.777,11.628z"/>
</svg>
