<?xml version="1.0" encoding="utf-8"?>
<!-- Generator: Adobe Illustrator 19.2.1, SVG Export Plug-In . SVG Version: 6.00 Build 0)  -->
<svg version="1.0" id="art" xmlns="http://www.w3.org/2000/svg" xmlns:xlink="http://www.w3.org/1999/xlink" x="0px" y="0px"
	 width="36px" height="36px" viewBox="0 0 36 36" enable-background="new 0 0 36 36" xml:space="preserve">
<path fill="#FFFFFF" d="M3,21.5C3,23.43,4.57,25,6.5,25H10v8h16v-8h3.5c1.93,0,3.5-1.57,3.5-3.5v-10C33,9.57,31.43,8,29.5,8H25V3H11
	v5H6.5C4.57,8,3,9.57,3,11.5V21.5z M25,32H11V19h14V32z M24,4v9H12V4H24z M4,11.5C4,10.121,5.121,9,6.5,9H11v4H8.5v1h19v-1H25V9h4.5
	c1.379,0,2.5,1.121,2.5,2.5v10c0,1.379-1.121,2.5-2.5,2.5H26v-6H10v6H6.5C5.121,24,4,22.879,4,21.5V11.5z"/>
<rect x="13" y="25" fill="#FFFFFF" width="10" height="1"/>
<rect x="13" y="28" fill="#FFFFFF" width="8" height="1"/>
<rect x="13" y="22" fill="#FFFFFF" width="6" height="1"/>
</svg>
