<?xml version="1.0" encoding="UTF-8" standalone="no"?>
<!-- Generator: Adobe Illustrator 18.1.1, SVG Export Plug-In . SVG Version: 6.00 Build 0)  -->
<svg id="Слой_1" xmlns="http://www.w3.org/2000/svg" fill="#FFFFFF" xml:space="preserve" viewBox="-12.8 -7.7 62.8 62.8" version="1.0" y="0px" x="0px" xmlns:xlink="http://www.w3.org/1999/xlink" enable-background="new -12.8 -7.7 62.8 62.8">
<path d="m20.7 0.7v12.6h12.6v-12.6h-12.6m16.7 0v12.6h12.6v-12.6h-12.6m-50.2 16.6v12.6h12.6v-12.6h-12.6m33.5 0v12.6h12.6v-12.6h-12.6m16.7 0v12.6h12.6v-12.6h-12.6m-50.2 16.8v12.6h12.6v-12.6h-12.6m33.5 0v12.6h12.6v-12.6h-12.6m-16.8-33.4v12.6h12.6v-12.6h-12.6m0 16.6v12.6h12.6v-12.6h-12.6m0 16.8v12.6h12.6v-12.6h-12.6"/>
</svg>
