<?xml version="1.0" encoding="utf-8"?>
<!-- Generator: Adobe Illustrator 19.2.1, SVG Export Plug-In . SVG Version: 6.00 Build 0)  -->
<svg version="1.0" id="art" xmlns="http://www.w3.org/2000/svg" xmlns:xlink="http://www.w3.org/1999/xlink" x="0px" y="0px"
	 width="36px" height="36px" viewBox="0 0 36 36" enable-background="new 0 0 36 36" xml:space="preserve">
<path fill="#FFFFFF" d="M18,3C9.716,3,3,9.716,3,18c0,8.284,6.716,15,15,15s15-6.716,15-15C33,9.716,26.284,3,18,3z M17.826,27.5
	c-0.965,0-1.75-0.785-1.75-1.75c0-0.981,0.769-1.75,1.75-1.75s1.75,0.769,1.75,1.75S18.807,27.5,17.826,27.5z M20.666,18.156
	c-1.428,0.915-1.818,1.491-1.818,2.682V22h-2.127v-1.383c-0.012-1.581,0.689-2.685,2.422-3.81c1.395-0.927,1.888-1.656,1.888-2.788
	c0-1.505-1.189-2.556-2.892-2.556c-1.718,0-2.871,1.046-3.01,2.73l-0.021,0.267h-2.086l0.018-0.308
	C13.196,11.37,15.27,9.5,18.196,9.5c2.929,0,5.054,1.871,5.054,4.449C23.25,15.687,22.429,17.022,20.666,18.156z"/>
</svg>
