<?xml version="1.0" encoding="utf-8"?>
<!-- Generator: Adobe Illustrator 19.2.1, SVG Export Plug-In . SVG Version: 6.00 Build 0)  -->
<svg version="1.0" id="art" xmlns="http://www.w3.org/2000/svg" xmlns:xlink="http://www.w3.org/1999/xlink" x="0px" y="0px"
	 width="24px" height="24px" viewBox="0 0 24 24" enable-background="new 0 0 24 24" xml:space="preserve">
<path fill="#FFFFFF" d="M7,0.5c-0.552,0-1,0.448-1,1V3H4C2.897,3,2,3.897,2,5v15c0,1.103,0.897,2,2,2h16c1.103,0,2-0.897,2-2V5
	c0-1.103-0.897-2-2-2h-2V1.5c0-0.552-0.448-1-1-1s-1,0.448-1,1V3H8V1.5C8,0.948,7.552,0.5,7,0.5z M16,4v0.5c0,0.552,0.448,1,1,1
	s1-0.448,1-1V4h2c0.552,0,1,0.448,1,1v15c0,0.552-0.448,1-1,1H4c-0.551,0-1-0.448-1-1V5c0-0.552,0.449-1,1-1h2v0.5
	c0,0.552,0.448,1,1,1s1-0.448,1-1V4H16z"/>
<rect x="5" y="9" fill="#FFFFFF" width="4" height="2"/>
<rect x="10" y="9" fill="#FFFFFF" width="4" height="2"/>
<rect x="5" y="14" fill="#FFFFFF" width="4" height="2"/>
<rect x="10" y="14" fill="#FFFFFF" width="4" height="2"/>
<rect x="15" y="9" fill="#FFFFFF" width="4" height="2"/>
</svg>
