<?xml version="1.0" encoding="utf-8"?>
<!-- Generator: Adobe Illustrator 19.2.1, SVG Export Plug-In . SVG Version: 6.00 Build 0)  -->
<svg version="1.0" id="art" xmlns="http://www.w3.org/2000/svg" xmlns:xlink="http://www.w3.org/1999/xlink" x="0px" y="0px"
	 width="30px" height="30px" viewBox="0 0 30 30" enable-background="new 0 0 30 30" xml:space="preserve">
<path fill="#FFFFFF" d="M12.5,23c2.443,0,4.688-0.846,6.474-2.25l6.75,6.75c0.49,0.49,1.285,0.49,1.776,0s0.49-1.285,0-1.776
	l-6.75-6.75C22.154,17.188,23,14.943,23,12.5C23,6.71,18.29,2,12.5,2S2,6.71,2,12.5S6.71,23,12.5,23z M12.5,3
	c5.238,0,9.5,4.262,9.5,9.5S17.738,22,12.5,22S3,17.738,3,12.5S7.262,3,12.5,3z"/>
</svg>
