<?xml version="1.0" encoding="utf-8"?>
<!-- Generator: Adobe Illustrator 19.2.1, SVG Export Plug-In . SVG Version: 6.00 Build 0)  -->
<svg version="1.0" id="art" xmlns="http://www.w3.org/2000/svg" xmlns:xlink="http://www.w3.org/1999/xlink" x="0px" y="0px"
	 width="36px" height="36px" viewBox="0 0 36 36" enable-background="new 0 0 36 36" xml:space="preserve">
<g id="check">
</g>
<path d="M18,33c8.271,0,15-6.729,15-15S26.271,3,18,3S3,9.729,3,18S9.729,33,18,33z M18,4c7.72,0,14,6.28,14,14s-6.28,14-14,14
	S4,25.72,4,18S10.28,4,18,4z"/>
<path d="M17.5,23c-0.837,0-1.5,0.647-1.5,1.5c0,0.837,0.663,1.5,1.5,1.5c0.853,0,1.5-0.663,1.5-1.5C19,23.647,18.353,23,17.5,23z"/>
<path d="M17.728,11.276c1.729,0,2.943,1.104,2.943,2.627c0,1.158-0.526,1.908-1.869,2.798c-1.504,0.976-2.127,1.876-2.116,3.291V21
	h1.429v-0.804c0-1.19,0.397-1.801,1.805-2.702c1.472-0.943,2.267-2.069,2.267-3.656c0-2.187-1.815-3.838-4.404-3.838
	c-2.771,0-4.372,1.769-4.501,4.042h1.396C14.816,12.348,16.009,11.276,17.728,11.276z"/>
</svg>
