<?xml version="1.0" encoding="utf-8"?>
<!-- Generator: Adobe Illustrator 19.2.1, SVG Export Plug-In . SVG Version: 6.00 Build 0)  -->
<svg version="1.0" id="art" xmlns="http://www.w3.org/2000/svg" xmlns:xlink="http://www.w3.org/1999/xlink" x="0px" y="0px"
	 width="30px" height="30px" viewBox="0 0 30 30" enable-background="new 0 0 30 30" xml:space="preserve">
<g id="check">
</g>
<path d="M9,2C8.448,2,8,2.448,8,3v1H6.5C4.57,4,3,5.57,3,7.5v16C3,25.43,4.57,27,6.5,27h17c1.93,0,3.5-1.57,3.5-3.5v-16
	C27,5.57,25.43,4,23.5,4h-1.63V3c0-0.552-0.448-1-1-1s-1,0.448-1,1v1H10V3C10,2.448,9.552,2,9,2z M19.87,5v1c0,0.552,0.448,1,1,1
	s1-0.448,1-1V5h1.63C24.879,5,26,6.121,26,7.5v16c0,1.379-1.121,2.5-2.5,2.5h-17C5.121,26,4,24.879,4,23.5v-16
	C4,6.121,5.121,5,6.5,5H8v1c0,0.552,0.448,1,1,1s1-0.448,1-1V5H19.87z"/>
<rect x="7" y="11" width="4" height="2"/>
<rect x="13" y="11" width="4" height="2"/>
<rect x="7" y="17" width="4" height="2"/>
<rect x="13" y="17" width="4" height="2"/>
<rect x="19" y="11" width="4" height="2"/>
</svg>
