<?xml version="1.0" encoding="utf-8"?>
<!-- Generator: Adobe Illustrator 19.2.1, SVG Export Plug-In . SVG Version: 6.00 Build 0)  -->
<svg version="1.0" id="art" xmlns="http://www.w3.org/2000/svg" xmlns:xlink="http://www.w3.org/1999/xlink" x="0px" y="0px"
	 width="18px" height="18px" viewBox="0 0 18 18" enable-background="new 0 0 18 18" xml:space="preserve">
<path fill="#FFFFFF" d="M6.5,1C6.224,1,6,1.224,6,1.5V2H3.5C2.673,2,2,2.673,2,3.5v10C2,14.327,2.673,15,3.5,15h11
	c0.827,0,1.5-0.673,1.5-1.5v-10C16,2.673,15.327,2,14.5,2H12V1.5C12,1.224,11.776,1,11.5,1C11.224,1,11,1.224,11,1.5V2H7V1.5
	C7,1.224,6.776,1,6.5,1z M11,3v0.5C11,3.776,11.224,4,11.5,4C11.776,4,12,3.776,12,3.5V3h2.5C14.776,3,15,3.225,15,3.5v10
	c0,0.275-0.224,0.5-0.5,0.5h-11C3.224,14,3,13.775,3,13.5v-10C3,3.225,3.224,3,3.5,3H6v0.5C6,3.776,6.224,4,6.5,4
	C6.776,4,7,3.776,7,3.5V3H11z"/>
<rect x="4" y="7" fill="#FFFFFF" width="3" height="1"/>
<rect x="8" y="7" fill="#FFFFFF" width="3" height="1"/>
<rect x="4" y="10" fill="#FFFFFF" width="3" height="1"/>
<rect x="8" y="10" fill="#FFFFFF" width="3" height="1"/>
<rect x="12" y="7" fill="#FFFFFF" width="2" height="1"/>
</svg>
