<?xml version="1.0" encoding="utf-8"?>
<!-- Generator: Adobe Illustrator 19.2.1, SVG Export Plug-In . SVG Version: 6.00 Build 0)  -->
<svg version="1.0" id="art" xmlns="http://www.w3.org/2000/svg" xmlns:xlink="http://www.w3.org/1999/xlink" x="0px" y="0px"
	 width="30px" height="30px" viewBox="0 0 30 30" enable-background="new 0 0 30 30" xml:space="preserve">
<g id="check">
</g>
<path d="M15,2C7.82,2,2,7.82,2,15s5.82,13,13,13s13-5.82,13-13S22.18,2,15,2z M15.005,22.75c-1,0-1.755-0.75-1.755-1.745
	c0-1,0.755-1.755,1.755-1.755c0.995,0,1.745,0.755,1.745,1.755C16.75,22,16,22.75,15.005,22.75z M17.42,15.052
	c-1.065,0.682-1.245,1.046-1.245,1.791V18H14.01v-1.324c-0.01-1.312,0.561-2.216,1.968-3.115c1.087-0.708,1.287-1.184,1.287-1.869
	c0-0.972-0.784-1.65-1.905-1.65c-1.156,0-1.901,0.675-1.995,1.805l-0.037,0.458h-2.126l0.027-0.525C11.346,9.52,13.024,8,15.404,8
	c2.374,0,4.096,1.531,4.096,3.64C19.5,13.056,18.839,14.14,17.42,15.052z"/>
</svg>
