<?xml version="1.0" encoding="utf-8"?>
<!-- Generator: Adobe Illustrator 18.1.0, SVG Export Plug-In . SVG Version: 6.00 Build 0)  -->
<svg version="1.1" id="Слой_1" xmlns="http://www.w3.org/2000/svg" xmlns:xlink="http://www.w3.org/1999/xlink" x="0px" y="0px"
	 viewBox="0 0 30 30" enable-background="new 0 0 30 30" xml:space="preserve">
<g>
	<path fill="#FFFFFF" d="M4.7,23.8c2.5,2.9,6.2,4.7,10.3,4.7c4.1,0,7.8-1.8,10.3-4.7c-0.9,0.1-3.6,0.4-10.3,0.4
		C8.2,24.3,5.5,24,4.7,23.8z"/>
</g>
<g>
	<path fill="#FFFFFF" d="M28.3,18c0.2-1,0.3-2,0.3-3c0-1.2-0.2-2.3-0.4-3.4c-1.3,0-5.6-0.1-13.1-0.1c-7.6,0-11.9,0.1-13.2,0.1
		c-0.3,1.1-0.4,2.2-0.4,3.4c0,1.1,0.1,2.1,0.3,3.1c1.6,0,8,0.1,13.4,0.1C20.8,18.2,26.9,18,28.3,18z"/>
</g>
<g>
	<path fill="#FFFFFF" d="M25.2,6C22.7,3.1,19.1,1.4,15,1.4C11,1.4,7.3,3.1,4.8,6C5.8,5.8,8.5,5.6,15,5.6C21.5,5.6,24.2,5.8,25.2,6z"
		/>
</g>
<g>
	<path fill="#FFFFFF" d="M28.6,15c0,7.5-6.1,13.6-13.6,13.6C7.5,28.6,1.4,22.5,1.4,15C1.4,7.5,7.5,1.4,15,1.4
		C22.5,1.4,28.6,7.5,28.6,15z M15,1C7.3,1,1,7.2,1,15c0,7.7,6.3,14,14,14c7.7,0,14-6.3,14-14C29,7.2,22.8,1,15,1z"/>
</g>
</svg>
