<?xml version="1.0" encoding="utf-8"?>
<!-- Generator: Adobe Illustrator 18.1.0, SVG Export Plug-In . SVG Version: 6.00 Build 0)  -->
<svg version="1.1" id="Слой_1" xmlns="http://www.w3.org/2000/svg" xmlns:xlink="http://www.w3.org/1999/xlink" x="0px" y="0px"
	 viewBox="0 0 30 30" enable-background="new 0 0 30 30" xml:space="preserve">
<circle fill="#d5d5d5" cx="15.805" cy="8.596" r="8.222"/>
<path fill="#d5d5d5" d="M24.026,21.989l0.001,0.832c0.006,1.58-3.669,2.875-8.211,2.893c-4.541,0.015-8.225-1.253-8.232-2.834
	l-0.003-0.829L24.026,21.989z"/>
<path fill="#d5d5d5" d="M24.026,21.989c0.005,1.581-3.672,2.876-8.212,2.891c-4.541,0.016-8.228-1.251-8.232-2.829
	c-0.005-1.583,3.672-2.878,8.214-2.894C20.335,19.142,24.02,20.409,24.026,21.989z"/>
<path fill="#d5d5d5" d="M7.583,28.346c0-0.232,3.682-0.461,8.223-0.461c4.541,0,8.221,0.229,8.221,0.461v0.494
	c0,0.229-3.681,0.459-8.221,0.459c-4.541,0-8.223-0.229-8.223-0.459V28.346z"/>
</svg>
