<?xml version="1.0" encoding="utf-8"?>
<!-- Generator: Adobe Illustrator 18.1.0, SVG Export Plug-In . SVG Version: 6.00 Build 0)  -->
<svg version="1.1" id="Layer_1" xmlns="http://www.w3.org/2000/svg" xmlns:xlink="http://www.w3.org/1999/xlink" x="0px" y="0px"
	 viewBox="0 0 30 30" enable-background="new 0 0 30 30" xml:space="preserve">
<g>
	<path fill="#d5d5d5" d="M15,1c1.9,0,2.5,1.4,3,2.8c0.2,0.6,5.1,14.2,5.2,14.6c0,0.1,0,0.3-0.1,0.4c-0.2,0-2.7,1.1-2.9,1.1
		c-0.1,0-0.3,0-0.4-0.2c0-0.1-1.1-3.1-1.2-3.4c-0.3,0-6.9,0-7.2,0c-0.1,0.3-1.2,3.3-1.2,3.4c0,0.1-0.2,0.2-0.3,0.2
		c-0.1,0-2.7-1.1-2.9-1.1c-0.1,0-0.2-0.2-0.1-0.4c0.2-0.5,5-13.9,5.2-14.6C12.5,2.3,13.1,1,15,1z M6.4,25.3c-0.1,0-0.3,0.1-0.3,0.3
		v3.2c0,0.1,0.1,0.3,0.3,0.3h17.2c0.1,0,0.3-0.1,0.3-0.3v-3.2c0-0.1-0.1-0.3-0.3-0.3L6.4,25.3L6.4,25.3z M15,5.4l-2.4,7.5h5L15,5.4
		L15,5.4z"/>
</g>
</svg>
